M48
; DRILL file {KiCad 8.0.3} date 2024-06-25T22:30:52+0800
; FORMAT={-:-/ absolute / metric / decimal}
; #@! TF.CreationDate,2024-06-25T22:30:52+08:00
; #@! TF.GenerationSoftware,Kicad,Pcbnew,8.0.3
; #@! TF.FileFunction,Plated,1,4,PTH
FMAT,2
METRIC
; #@! TA.AperFunction,Plated,PTH,ViaDrill
T1C0.300
; #@! TA.AperFunction,Plated,PTH,ViaDrill
T2C0.500
; #@! TA.AperFunction,Plated,PTH,ComponentDrill
T3C0.600
; #@! TA.AperFunction,Plated,PTH,ComponentDrill
T4C0.800
; #@! TA.AperFunction,Plated,PTH,ComponentDrill
T5C0.914
; #@! TA.AperFunction,Plated,PTH,ComponentDrill
T6C1.020
; #@! TA.AperFunction,Plated,PTH,ComponentDrill
T7C1.900
; #@! TA.AperFunction,Plated,PTH,ComponentDrill
T8C3.200
%
G90
G05
T1
X73.22Y-75.156
X73.37Y-82.407
X73.545Y-91.656
X73.87Y-93.906
X74.128Y-87.154
X75.12Y-85.006
X75.128Y-83.407
X75.128Y-87.154
X75.82Y-89.941
X75.82Y-91.786
X76.978Y-83.738
X77.029Y-82.949
X77.029Y-87.243
X77.054Y-92.196
X78.711Y-93.925
X79.071Y-98.089
X79.137Y-83.027
X79.298Y-92.653
X79.349Y-90.748
X79.82Y-69.056
X79.961Y-93.925
X80.58Y-91.806
X81.72Y-91.616
X81.73Y-79.676
X81.75Y-82.346
X81.812Y-93.669
X82.729Y-82.493
X82.99Y-91.126
X83.796Y-79.699
X84.2Y-83.496
X84.376Y-88.406
X84.862Y-78.531
X85.426Y-88.756
X85.458Y-87.982
X86.126Y-87.982
X86.545Y-74.506
X87.199Y-98.648
X87.631Y-88.081
X87.795Y-74.506
X88.51Y-87.357
X89.053Y-80.36
X89.676Y-92.606
X89.72Y-85.666
X89.76Y-88.046
X90.542Y-88.024
X91.6Y-85.386
X91.619Y-79.572
X91.91Y-87.585
X92.826Y-90.156
X93.067Y-84.957
X93.854Y-73.705
X93.93Y-89.471
X94.049Y-74.906
X94.87Y-68.269
X95.091Y-90.147
X95.657Y-74.924
X95.906Y-90.147
X95.936Y-84.101
X96.07Y-82.956
X96.42Y-88.126
X96.722Y-90.147
X97.27Y-89.126
X97.883Y-89.471
X98.147Y-90.086
X98.909Y-85.821
X98.919Y-74.506
X99.02Y-83.406
X100.169Y-74.506
X100.292Y-89.653
X100.356Y-84.246
X101.563Y-88.956
X101.726Y-88.206
X101.76Y-89.556
X102.317Y-90.145
X102.88Y-90.386
X104.27Y-74.906
X105.486Y-84.456
X105.614Y-80.385
X105.67Y-73.881
X105.678Y-76.484
X106.976Y-89.806
X107.037Y-71.012
X107.088Y-76.984
X107.187Y-75.483
X107.426Y-90.356
X107.841Y-89.841
X107.907Y-99.846
X108.12Y-81.056
X108.256Y-82.163
X108.256Y-83.433
X108.257Y-90.328
X108.278Y-103.844
X108.475Y-78.946
X108.536Y-74.021
X108.838Y-69.406
X108.865Y-101.848
X108.891Y-82.798
X108.916Y-89.776
X109.067Y-75.163
X109.067Y-77.804
X109.244Y-90.52
X109.526Y-82.163
X109.526Y-83.433
X109.591Y-101.986
X109.946Y-85.986
X109.95Y-91.856
X110.02Y-93.726
X110.085Y-99.41
X110.313Y-103.524
X110.57Y-82.148
X110.57Y-82.798
X111.507Y-104.388
X111.51Y-89.79
X111.609Y-101.238
X111.67Y-81.823
X111.67Y-82.473
X111.67Y-83.123
X111.709Y-75.163
X111.709Y-77.804
X111.728Y-106.324
X111.861Y-97.809
X112.055Y-90.057
X112.167Y-93.72
X112.239Y-74.021
X112.635Y-78.946
X112.927Y-99.257
X112.936Y-90.266
X112.976Y-70.004
X112.98Y-71.012
X113.126Y-79.313
X113.174Y-100.77
X113.388Y-77.484
X113.438Y-75.984
X113.551Y-94.081
X113.576Y-103.657
X113.605Y-94.886
X113.727Y-91.042
X113.844Y-101.797
X114.076Y-70.006
X114.296Y-89.706
X114.339Y-92.813
X114.501Y-95.031
X114.526Y-104.072
X114.586Y-86.316
X114.605Y-84.328
X114.61Y-91.106
X114.817Y-100.258
X115.076Y-71.206
X115.076Y-74.306
X115.076Y-103.242
X115.42Y-80.956
X115.544Y-100.984
X115.681Y-96.113
X115.693Y-76.485
X115.876Y-104.856
X116.076Y-69.806
X116.128Y-98.257
X116.16Y-97.44
X116.198Y-106.014
X116.52Y-94.972
X116.576Y-101.206
X116.636Y-90.006
X116.678Y-102.357
X116.719Y-92.778
X116.873Y-96.878
X116.943Y-81.994
X116.943Y-82.794
X116.943Y-87.584
X116.943Y-88.394
X117.076Y-71.206
X117.626Y-104.306
X117.736Y-91.386
X117.749Y-102.319
X117.858Y-93.715
X117.888Y-98.134
X117.888Y-99.734
X118.076Y-69.806
X118.178Y-102.751
X118.238Y-106.522
X118.269Y-85.944
X118.27Y-84.942
X118.338Y-94.195
X118.541Y-97.1
X118.555Y-96.458
X118.593Y-102.257
X118.67Y-91.332
X118.972Y-94.972
X119.008Y-101.793
X119.076Y-71.206
X119.076Y-74.606
X119.116Y-97.726
X119.488Y-99.734
X119.686Y-101.594
X119.93Y-100.927
X120.076Y-69.806
X120.22Y-95.956
X120.703Y-95.514
X120.726Y-99.846
X121.118Y-96.094
X121.51Y-97.526
X121.607Y-99.775
X122.939Y-97.717
X122.97Y-95.996
X123.07Y-90.676
X123.52Y-98.279
X123.521Y-68.65
X123.72Y-90.676
X123.875Y-95.872
X124.0Y-97.446
X124.438Y-80.484
X124.438Y-83.684
X124.438Y-88.084
X124.512Y-75.483
X124.698Y-96.824
X124.768Y-98.194
X124.84Y-91.224
T2
X82.745Y-70.74
X84.17Y-72.74
X92.116Y-77.386
X115.077Y-75.714
T4
X78.156Y-78.407
X78.156Y-80.407
X78.156Y-82.407
X78.156Y-84.407
X78.156Y-86.407
X78.156Y-88.407
X80.156Y-78.407
X80.156Y-80.407
X80.156Y-82.407
X80.156Y-84.407
X80.156Y-86.407
X80.156Y-88.407
T5
X114.713Y-78.948
X116.713Y-78.948
T6
X104.905Y-82.798
X104.905Y-85.798
T7
X113.483Y-82.798
X113.483Y-87.878
T8
X86.086Y-92.877
X98.07Y-80.106
T3
G00X118.633Y-80.874
M15
G01X117.533Y-80.874
M16
G05
G00X118.633Y-89.514
M15
G01X117.533Y-89.514
M16
G05
G00X122.663Y-80.874
M15
G01X121.863Y-80.874
M16
G05
G00X122.663Y-89.514
M15
G01X121.863Y-89.514
M16
G05
M30
