%TF.GenerationSoftware,KiCad,Pcbnew,8.0.7*%
%TF.CreationDate,2024-12-18T08:34:55+08:00*%
%TF.ProjectId,SB-main-board,53422d6d-6169-46e2-9d62-6f6172642e6b,B1*%
%TF.SameCoordinates,Original*%
%TF.FileFunction,Legend,Top*%
%TF.FilePolarity,Positive*%
%FSLAX46Y46*%
G04 Gerber Fmt 4.6, Leading zero omitted, Abs format (unit mm)*
G04 Created by KiCad (PCBNEW 8.0.7) date 2024-12-18 08:34:55*
%MOMM*%
%LPD*%
G01*
G04 APERTURE LIST*
%ADD10C,0.150000*%
%ADD11C,0.100000*%
%ADD12C,0.120000*%
%ADD13C,0.254000*%
%ADD14C,0.000000*%
%ADD15C,0.020000*%
G04 APERTURE END LIST*
D10*
X110280330Y-102879664D02*
X110026330Y-102625664D01*
X110534330Y-102625664D01*
X110280330Y-102879664D01*
G36*
X110280330Y-102879664D02*
G01*
X110026330Y-102625664D01*
X110534330Y-102625664D01*
X110280330Y-102879664D01*
G37*
X91761330Y-87030664D02*
X91507330Y-87284664D01*
X91507330Y-86776664D01*
X91761330Y-87030664D01*
G36*
X91761330Y-87030664D02*
G01*
X91507330Y-87284664D01*
X91507330Y-86776664D01*
X91761330Y-87030664D01*
G37*
X96399330Y-73985664D02*
X96145330Y-74239664D01*
X96145330Y-73731664D01*
X96399330Y-73985664D01*
G36*
X96399330Y-73985664D02*
G01*
X96145330Y-74239664D01*
X96145330Y-73731664D01*
X96399330Y-73985664D01*
G37*
X75451330Y-95035664D02*
X75197330Y-95289664D01*
X75197330Y-94781664D01*
X75451330Y-95035664D01*
G36*
X75451330Y-95035664D02*
G01*
X75197330Y-95289664D01*
X75197330Y-94781664D01*
X75451330Y-95035664D01*
G37*
X90569330Y-74239664D02*
X90315330Y-73985664D01*
X90569330Y-73731664D01*
X90569330Y-74239664D01*
G36*
X90569330Y-74239664D02*
G01*
X90315330Y-73985664D01*
X90569330Y-73731664D01*
X90569330Y-74239664D01*
G37*
X100610330Y-85312664D02*
X100356330Y-85566664D01*
X100356330Y-85058664D01*
X100610330Y-85312664D01*
G36*
X100610330Y-85312664D02*
G01*
X100356330Y-85566664D01*
X100356330Y-85058664D01*
X100610330Y-85312664D01*
G37*
X73989330Y-76832664D02*
X73735330Y-76578664D01*
X74243330Y-76578664D01*
X73989330Y-76832664D01*
G36*
X73989330Y-76832664D02*
G01*
X73735330Y-76578664D01*
X74243330Y-76578664D01*
X73989330Y-76832664D01*
G37*
D11*
X99134970Y-85585035D02*
X99134970Y-84985035D01*
X99134970Y-85270749D02*
X99477827Y-85270749D01*
X99477827Y-85585035D02*
X99477827Y-84985035D01*
X99763541Y-85270749D02*
X99963541Y-85270749D01*
X100049255Y-85585035D02*
X99763541Y-85585035D01*
X99763541Y-85585035D02*
X99763541Y-84985035D01*
X99763541Y-84985035D02*
X100049255Y-84985035D01*
X91028976Y-73943749D02*
X90828976Y-73943749D01*
X90828976Y-74258035D02*
X90828976Y-73658035D01*
X90828976Y-73658035D02*
X91114690Y-73658035D01*
X91314690Y-74086606D02*
X91600405Y-74086606D01*
X91257547Y-74258035D02*
X91457547Y-73658035D01*
X91457547Y-73658035D02*
X91657547Y-74258035D01*
X91857548Y-74258035D02*
X91857548Y-73658035D01*
X91857548Y-73658035D02*
X92200405Y-74258035D01*
X92200405Y-74258035D02*
X92200405Y-73658035D01*
X92457547Y-73715178D02*
X92486119Y-73686606D01*
X92486119Y-73686606D02*
X92543262Y-73658035D01*
X92543262Y-73658035D02*
X92686119Y-73658035D01*
X92686119Y-73658035D02*
X92743262Y-73686606D01*
X92743262Y-73686606D02*
X92771833Y-73715178D01*
X92771833Y-73715178D02*
X92800404Y-73772321D01*
X92800404Y-73772321D02*
X92800404Y-73829464D01*
X92800404Y-73829464D02*
X92771833Y-73915178D01*
X92771833Y-73915178D02*
X92428976Y-74258035D01*
X92428976Y-74258035D02*
X92800404Y-74258035D01*
X74493261Y-76378035D02*
X74836119Y-76378035D01*
X74664690Y-76978035D02*
X74664690Y-76378035D01*
X75150404Y-76378035D02*
X75264690Y-76378035D01*
X75264690Y-76378035D02*
X75321833Y-76406606D01*
X75321833Y-76406606D02*
X75378976Y-76463749D01*
X75378976Y-76463749D02*
X75407547Y-76578035D01*
X75407547Y-76578035D02*
X75407547Y-76778035D01*
X75407547Y-76778035D02*
X75378976Y-76892321D01*
X75378976Y-76892321D02*
X75321833Y-76949464D01*
X75321833Y-76949464D02*
X75264690Y-76978035D01*
X75264690Y-76978035D02*
X75150404Y-76978035D01*
X75150404Y-76978035D02*
X75093262Y-76949464D01*
X75093262Y-76949464D02*
X75036119Y-76892321D01*
X75036119Y-76892321D02*
X75007547Y-76778035D01*
X75007547Y-76778035D02*
X75007547Y-76578035D01*
X75007547Y-76578035D02*
X75036119Y-76463749D01*
X75036119Y-76463749D02*
X75093262Y-76406606D01*
X75093262Y-76406606D02*
X75150404Y-76378035D01*
X76321833Y-76663749D02*
X76121833Y-76663749D01*
X76121833Y-76978035D02*
X76121833Y-76378035D01*
X76121833Y-76378035D02*
X76407547Y-76378035D01*
X76607547Y-76806606D02*
X76893262Y-76806606D01*
X76550404Y-76978035D02*
X76750404Y-76378035D01*
X76750404Y-76378035D02*
X76950404Y-76978035D01*
X77150405Y-76978035D02*
X77150405Y-76378035D01*
X77150405Y-76378035D02*
X77493262Y-76978035D01*
X77493262Y-76978035D02*
X77493262Y-76378035D01*
X78436119Y-76663749D02*
X78521833Y-76692321D01*
X78521833Y-76692321D02*
X78550404Y-76720892D01*
X78550404Y-76720892D02*
X78578976Y-76778035D01*
X78578976Y-76778035D02*
X78578976Y-76863749D01*
X78578976Y-76863749D02*
X78550404Y-76920892D01*
X78550404Y-76920892D02*
X78521833Y-76949464D01*
X78521833Y-76949464D02*
X78464690Y-76978035D01*
X78464690Y-76978035D02*
X78236119Y-76978035D01*
X78236119Y-76978035D02*
X78236119Y-76378035D01*
X78236119Y-76378035D02*
X78436119Y-76378035D01*
X78436119Y-76378035D02*
X78493262Y-76406606D01*
X78493262Y-76406606D02*
X78521833Y-76435178D01*
X78521833Y-76435178D02*
X78550404Y-76492321D01*
X78550404Y-76492321D02*
X78550404Y-76549464D01*
X78550404Y-76549464D02*
X78521833Y-76606606D01*
X78521833Y-76606606D02*
X78493262Y-76635178D01*
X78493262Y-76635178D02*
X78436119Y-76663749D01*
X78436119Y-76663749D02*
X78236119Y-76663749D01*
X78950404Y-76378035D02*
X79064690Y-76378035D01*
X79064690Y-76378035D02*
X79121833Y-76406606D01*
X79121833Y-76406606D02*
X79178976Y-76463749D01*
X79178976Y-76463749D02*
X79207547Y-76578035D01*
X79207547Y-76578035D02*
X79207547Y-76778035D01*
X79207547Y-76778035D02*
X79178976Y-76892321D01*
X79178976Y-76892321D02*
X79121833Y-76949464D01*
X79121833Y-76949464D02*
X79064690Y-76978035D01*
X79064690Y-76978035D02*
X78950404Y-76978035D01*
X78950404Y-76978035D02*
X78893262Y-76949464D01*
X78893262Y-76949464D02*
X78836119Y-76892321D01*
X78836119Y-76892321D02*
X78807547Y-76778035D01*
X78807547Y-76778035D02*
X78807547Y-76578035D01*
X78807547Y-76578035D02*
X78836119Y-76463749D01*
X78836119Y-76463749D02*
X78893262Y-76406606D01*
X78893262Y-76406606D02*
X78950404Y-76378035D01*
X79436118Y-76806606D02*
X79721833Y-76806606D01*
X79378975Y-76978035D02*
X79578975Y-76378035D01*
X79578975Y-76378035D02*
X79778975Y-76978035D01*
X80321833Y-76978035D02*
X80121833Y-76692321D01*
X79978976Y-76978035D02*
X79978976Y-76378035D01*
X79978976Y-76378035D02*
X80207547Y-76378035D01*
X80207547Y-76378035D02*
X80264690Y-76406606D01*
X80264690Y-76406606D02*
X80293261Y-76435178D01*
X80293261Y-76435178D02*
X80321833Y-76492321D01*
X80321833Y-76492321D02*
X80321833Y-76578035D01*
X80321833Y-76578035D02*
X80293261Y-76635178D01*
X80293261Y-76635178D02*
X80264690Y-76663749D01*
X80264690Y-76663749D02*
X80207547Y-76692321D01*
X80207547Y-76692321D02*
X79978976Y-76692321D01*
X80578976Y-76978035D02*
X80578976Y-76378035D01*
X80578976Y-76378035D02*
X80721833Y-76378035D01*
X80721833Y-76378035D02*
X80807547Y-76406606D01*
X80807547Y-76406606D02*
X80864690Y-76463749D01*
X80864690Y-76463749D02*
X80893261Y-76520892D01*
X80893261Y-76520892D02*
X80921833Y-76635178D01*
X80921833Y-76635178D02*
X80921833Y-76720892D01*
X80921833Y-76720892D02*
X80893261Y-76835178D01*
X80893261Y-76835178D02*
X80864690Y-76892321D01*
X80864690Y-76892321D02*
X80807547Y-76949464D01*
X80807547Y-76949464D02*
X80721833Y-76978035D01*
X80721833Y-76978035D02*
X80578976Y-76978035D01*
X95261683Y-73943749D02*
X95061683Y-73943749D01*
X95061683Y-74258035D02*
X95061683Y-73658035D01*
X95061683Y-73658035D02*
X95347397Y-73658035D01*
X95547397Y-74229464D02*
X95633112Y-74258035D01*
X95633112Y-74258035D02*
X95775969Y-74258035D01*
X95775969Y-74258035D02*
X95833112Y-74229464D01*
X95833112Y-74229464D02*
X95861683Y-74200892D01*
X95861683Y-74200892D02*
X95890254Y-74143749D01*
X95890254Y-74143749D02*
X95890254Y-74086606D01*
X95890254Y-74086606D02*
X95861683Y-74029464D01*
X95861683Y-74029464D02*
X95833112Y-74000892D01*
X95833112Y-74000892D02*
X95775969Y-73972321D01*
X95775969Y-73972321D02*
X95661683Y-73943749D01*
X95661683Y-73943749D02*
X95604540Y-73915178D01*
X95604540Y-73915178D02*
X95575969Y-73886606D01*
X95575969Y-73886606D02*
X95547397Y-73829464D01*
X95547397Y-73829464D02*
X95547397Y-73772321D01*
X95547397Y-73772321D02*
X95575969Y-73715178D01*
X95575969Y-73715178D02*
X95604540Y-73686606D01*
X95604540Y-73686606D02*
X95661683Y-73658035D01*
X95661683Y-73658035D02*
X95804540Y-73658035D01*
X95804540Y-73658035D02*
X95890254Y-73686606D01*
X88685968Y-87303035D02*
X88685968Y-86703035D01*
X88685968Y-86703035D02*
X88914539Y-86703035D01*
X88914539Y-86703035D02*
X88971682Y-86731606D01*
X88971682Y-86731606D02*
X89000253Y-86760178D01*
X89000253Y-86760178D02*
X89028825Y-86817321D01*
X89028825Y-86817321D02*
X89028825Y-86903035D01*
X89028825Y-86903035D02*
X89000253Y-86960178D01*
X89000253Y-86960178D02*
X88971682Y-86988749D01*
X88971682Y-86988749D02*
X88914539Y-87017321D01*
X88914539Y-87017321D02*
X88685968Y-87017321D01*
X89200253Y-86703035D02*
X89543111Y-86703035D01*
X89371682Y-87303035D02*
X89371682Y-86703035D01*
X90057396Y-87303035D02*
X89714539Y-87303035D01*
X89885968Y-87303035D02*
X89885968Y-86703035D01*
X89885968Y-86703035D02*
X89828825Y-86788749D01*
X89828825Y-86788749D02*
X89771682Y-86845892D01*
X89771682Y-86845892D02*
X89714539Y-86874464D01*
X90428825Y-86703035D02*
X90485968Y-86703035D01*
X90485968Y-86703035D02*
X90543111Y-86731606D01*
X90543111Y-86731606D02*
X90571683Y-86760178D01*
X90571683Y-86760178D02*
X90600254Y-86817321D01*
X90600254Y-86817321D02*
X90628825Y-86931606D01*
X90628825Y-86931606D02*
X90628825Y-87074464D01*
X90628825Y-87074464D02*
X90600254Y-87188749D01*
X90600254Y-87188749D02*
X90571683Y-87245892D01*
X90571683Y-87245892D02*
X90543111Y-87274464D01*
X90543111Y-87274464D02*
X90485968Y-87303035D01*
X90485968Y-87303035D02*
X90428825Y-87303035D01*
X90428825Y-87303035D02*
X90371683Y-87274464D01*
X90371683Y-87274464D02*
X90343111Y-87245892D01*
X90343111Y-87245892D02*
X90314540Y-87188749D01*
X90314540Y-87188749D02*
X90285968Y-87074464D01*
X90285968Y-87074464D02*
X90285968Y-86931606D01*
X90285968Y-86931606D02*
X90314540Y-86817321D01*
X90314540Y-86817321D02*
X90343111Y-86760178D01*
X90343111Y-86760178D02*
X90371683Y-86731606D01*
X90371683Y-86731606D02*
X90428825Y-86703035D01*
X91000254Y-86703035D02*
X91057397Y-86703035D01*
X91057397Y-86703035D02*
X91114540Y-86731606D01*
X91114540Y-86731606D02*
X91143112Y-86760178D01*
X91143112Y-86760178D02*
X91171683Y-86817321D01*
X91171683Y-86817321D02*
X91200254Y-86931606D01*
X91200254Y-86931606D02*
X91200254Y-87074464D01*
X91200254Y-87074464D02*
X91171683Y-87188749D01*
X91171683Y-87188749D02*
X91143112Y-87245892D01*
X91143112Y-87245892D02*
X91114540Y-87274464D01*
X91114540Y-87274464D02*
X91057397Y-87303035D01*
X91057397Y-87303035D02*
X91000254Y-87303035D01*
X91000254Y-87303035D02*
X90943112Y-87274464D01*
X90943112Y-87274464D02*
X90914540Y-87245892D01*
X90914540Y-87245892D02*
X90885969Y-87188749D01*
X90885969Y-87188749D02*
X90857397Y-87074464D01*
X90857397Y-87074464D02*
X90857397Y-86931606D01*
X90857397Y-86931606D02*
X90885969Y-86817321D01*
X90885969Y-86817321D02*
X90914540Y-86760178D01*
X90914540Y-86760178D02*
X90943112Y-86731606D01*
X90943112Y-86731606D02*
X91000254Y-86703035D01*
X111069976Y-102710749D02*
X111155690Y-102739321D01*
X111155690Y-102739321D02*
X111184261Y-102767892D01*
X111184261Y-102767892D02*
X111212833Y-102825035D01*
X111212833Y-102825035D02*
X111212833Y-102910749D01*
X111212833Y-102910749D02*
X111184261Y-102967892D01*
X111184261Y-102967892D02*
X111155690Y-102996464D01*
X111155690Y-102996464D02*
X111098547Y-103025035D01*
X111098547Y-103025035D02*
X110869976Y-103025035D01*
X110869976Y-103025035D02*
X110869976Y-102425035D01*
X110869976Y-102425035D02*
X111069976Y-102425035D01*
X111069976Y-102425035D02*
X111127119Y-102453606D01*
X111127119Y-102453606D02*
X111155690Y-102482178D01*
X111155690Y-102482178D02*
X111184261Y-102539321D01*
X111184261Y-102539321D02*
X111184261Y-102596464D01*
X111184261Y-102596464D02*
X111155690Y-102653606D01*
X111155690Y-102653606D02*
X111127119Y-102682178D01*
X111127119Y-102682178D02*
X111069976Y-102710749D01*
X111069976Y-102710749D02*
X110869976Y-102710749D01*
X111584261Y-102425035D02*
X111698547Y-102425035D01*
X111698547Y-102425035D02*
X111755690Y-102453606D01*
X111755690Y-102453606D02*
X111812833Y-102510749D01*
X111812833Y-102510749D02*
X111841404Y-102625035D01*
X111841404Y-102625035D02*
X111841404Y-102825035D01*
X111841404Y-102825035D02*
X111812833Y-102939321D01*
X111812833Y-102939321D02*
X111755690Y-102996464D01*
X111755690Y-102996464D02*
X111698547Y-103025035D01*
X111698547Y-103025035D02*
X111584261Y-103025035D01*
X111584261Y-103025035D02*
X111527119Y-102996464D01*
X111527119Y-102996464D02*
X111469976Y-102939321D01*
X111469976Y-102939321D02*
X111441404Y-102825035D01*
X111441404Y-102825035D02*
X111441404Y-102625035D01*
X111441404Y-102625035D02*
X111469976Y-102510749D01*
X111469976Y-102510749D02*
X111527119Y-102453606D01*
X111527119Y-102453606D02*
X111584261Y-102425035D01*
X112212832Y-102425035D02*
X112327118Y-102425035D01*
X112327118Y-102425035D02*
X112384261Y-102453606D01*
X112384261Y-102453606D02*
X112441404Y-102510749D01*
X112441404Y-102510749D02*
X112469975Y-102625035D01*
X112469975Y-102625035D02*
X112469975Y-102825035D01*
X112469975Y-102825035D02*
X112441404Y-102939321D01*
X112441404Y-102939321D02*
X112384261Y-102996464D01*
X112384261Y-102996464D02*
X112327118Y-103025035D01*
X112327118Y-103025035D02*
X112212832Y-103025035D01*
X112212832Y-103025035D02*
X112155690Y-102996464D01*
X112155690Y-102996464D02*
X112098547Y-102939321D01*
X112098547Y-102939321D02*
X112069975Y-102825035D01*
X112069975Y-102825035D02*
X112069975Y-102625035D01*
X112069975Y-102625035D02*
X112098547Y-102510749D01*
X112098547Y-102510749D02*
X112155690Y-102453606D01*
X112155690Y-102453606D02*
X112212832Y-102425035D01*
X112641403Y-102425035D02*
X112984261Y-102425035D01*
X112812832Y-103025035D02*
X112812832Y-102425035D01*
X73747398Y-95308035D02*
X73461684Y-95308035D01*
X73461684Y-95308035D02*
X73461684Y-94708035D01*
X73947398Y-95308035D02*
X73947398Y-94708035D01*
X73947398Y-94708035D02*
X74090255Y-94708035D01*
X74090255Y-94708035D02*
X74175969Y-94736606D01*
X74175969Y-94736606D02*
X74233112Y-94793749D01*
X74233112Y-94793749D02*
X74261683Y-94850892D01*
X74261683Y-94850892D02*
X74290255Y-94965178D01*
X74290255Y-94965178D02*
X74290255Y-95050892D01*
X74290255Y-95050892D02*
X74261683Y-95165178D01*
X74261683Y-95165178D02*
X74233112Y-95222321D01*
X74233112Y-95222321D02*
X74175969Y-95279464D01*
X74175969Y-95279464D02*
X74090255Y-95308035D01*
X74090255Y-95308035D02*
X73947398Y-95308035D01*
X74890255Y-95250892D02*
X74861683Y-95279464D01*
X74861683Y-95279464D02*
X74775969Y-95308035D01*
X74775969Y-95308035D02*
X74718826Y-95308035D01*
X74718826Y-95308035D02*
X74633112Y-95279464D01*
X74633112Y-95279464D02*
X74575969Y-95222321D01*
X74575969Y-95222321D02*
X74547398Y-95165178D01*
X74547398Y-95165178D02*
X74518826Y-95050892D01*
X74518826Y-95050892D02*
X74518826Y-94965178D01*
X74518826Y-94965178D02*
X74547398Y-94850892D01*
X74547398Y-94850892D02*
X74575969Y-94793749D01*
X74575969Y-94793749D02*
X74633112Y-94736606D01*
X74633112Y-94736606D02*
X74718826Y-94708035D01*
X74718826Y-94708035D02*
X74775969Y-94708035D01*
X74775969Y-94708035D02*
X74861683Y-94736606D01*
X74861683Y-94736606D02*
X74890255Y-94765178D01*
D10*
X74706043Y-74410244D02*
X74658424Y-74457864D01*
X74658424Y-74457864D02*
X74515567Y-74505483D01*
X74515567Y-74505483D02*
X74420329Y-74505483D01*
X74420329Y-74505483D02*
X74277472Y-74457864D01*
X74277472Y-74457864D02*
X74182234Y-74362625D01*
X74182234Y-74362625D02*
X74134615Y-74267387D01*
X74134615Y-74267387D02*
X74086996Y-74076911D01*
X74086996Y-74076911D02*
X74086996Y-73934054D01*
X74086996Y-73934054D02*
X74134615Y-73743578D01*
X74134615Y-73743578D02*
X74182234Y-73648340D01*
X74182234Y-73648340D02*
X74277472Y-73553102D01*
X74277472Y-73553102D02*
X74420329Y-73505483D01*
X74420329Y-73505483D02*
X74515567Y-73505483D01*
X74515567Y-73505483D02*
X74658424Y-73553102D01*
X74658424Y-73553102D02*
X74706043Y-73600721D01*
X75134615Y-74505483D02*
X75134615Y-73505483D01*
X75563186Y-74505483D02*
X75563186Y-73981673D01*
X75563186Y-73981673D02*
X75515567Y-73886435D01*
X75515567Y-73886435D02*
X75420329Y-73838816D01*
X75420329Y-73838816D02*
X75277472Y-73838816D01*
X75277472Y-73838816D02*
X75182234Y-73886435D01*
X75182234Y-73886435D02*
X75134615Y-73934054D01*
X76467948Y-74505483D02*
X76467948Y-73981673D01*
X76467948Y-73981673D02*
X76420329Y-73886435D01*
X76420329Y-73886435D02*
X76325091Y-73838816D01*
X76325091Y-73838816D02*
X76134615Y-73838816D01*
X76134615Y-73838816D02*
X76039377Y-73886435D01*
X76467948Y-74457864D02*
X76372710Y-74505483D01*
X76372710Y-74505483D02*
X76134615Y-74505483D01*
X76134615Y-74505483D02*
X76039377Y-74457864D01*
X76039377Y-74457864D02*
X75991758Y-74362625D01*
X75991758Y-74362625D02*
X75991758Y-74267387D01*
X75991758Y-74267387D02*
X76039377Y-74172149D01*
X76039377Y-74172149D02*
X76134615Y-74124530D01*
X76134615Y-74124530D02*
X76372710Y-74124530D01*
X76372710Y-74124530D02*
X76467948Y-74076911D01*
X76944139Y-74505483D02*
X76944139Y-73838816D01*
X76944139Y-74029292D02*
X76991758Y-73934054D01*
X76991758Y-73934054D02*
X77039377Y-73886435D01*
X77039377Y-73886435D02*
X77134615Y-73838816D01*
X77134615Y-73838816D02*
X77229853Y-73838816D01*
X77706044Y-74505483D02*
X77610806Y-74457864D01*
X77610806Y-74457864D02*
X77563187Y-74362625D01*
X77563187Y-74362625D02*
X77563187Y-73505483D01*
X78086997Y-74505483D02*
X78086997Y-73838816D01*
X78086997Y-73505483D02*
X78039378Y-73553102D01*
X78039378Y-73553102D02*
X78086997Y-73600721D01*
X78086997Y-73600721D02*
X78134616Y-73553102D01*
X78134616Y-73553102D02*
X78086997Y-73505483D01*
X78086997Y-73505483D02*
X78086997Y-73600721D01*
X78944139Y-74457864D02*
X78848901Y-74505483D01*
X78848901Y-74505483D02*
X78658425Y-74505483D01*
X78658425Y-74505483D02*
X78563187Y-74457864D01*
X78563187Y-74457864D02*
X78515568Y-74362625D01*
X78515568Y-74362625D02*
X78515568Y-73981673D01*
X78515568Y-73981673D02*
X78563187Y-73886435D01*
X78563187Y-73886435D02*
X78658425Y-73838816D01*
X78658425Y-73838816D02*
X78848901Y-73838816D01*
X78848901Y-73838816D02*
X78944139Y-73886435D01*
X78944139Y-73886435D02*
X78991758Y-73981673D01*
X78991758Y-73981673D02*
X78991758Y-74076911D01*
X78991758Y-74076911D02*
X78515568Y-74172149D01*
X79610806Y-74029292D02*
X79610806Y-74505483D01*
X79277473Y-73505483D02*
X79610806Y-74029292D01*
X79610806Y-74029292D02*
X79944139Y-73505483D01*
X80706044Y-73838816D02*
X80706044Y-74505483D01*
X80277473Y-73838816D02*
X80277473Y-74362625D01*
X80277473Y-74362625D02*
X80325092Y-74457864D01*
X80325092Y-74457864D02*
X80420330Y-74505483D01*
X80420330Y-74505483D02*
X80563187Y-74505483D01*
X80563187Y-74505483D02*
X80658425Y-74457864D01*
X80658425Y-74457864D02*
X80706044Y-74410244D01*
D12*
%TO.C,SW1*%
X109330330Y-103923664D02*
X109330330Y-104298664D01*
X109330330Y-103923664D02*
X114230330Y-103923664D01*
X109330330Y-105498664D02*
X109330330Y-106048664D01*
X109330330Y-107248664D02*
X109330330Y-107623664D01*
X109330330Y-107623664D02*
X110255330Y-107623664D01*
X113205330Y-107623664D02*
X114230330Y-107623664D01*
X114230330Y-103923664D02*
X114230330Y-104298664D01*
X114230330Y-105498664D02*
X114230330Y-106048664D01*
X114230330Y-107248664D02*
X114230330Y-107623664D01*
%TO.C,J7*%
X75851330Y-95725664D02*
X76801330Y-95725664D01*
X75851330Y-96175664D02*
X75851330Y-95725664D01*
X75851330Y-99695664D02*
X75851330Y-100145664D01*
X75851330Y-100145664D02*
X82821330Y-100145664D01*
X82821330Y-95725664D02*
X81871330Y-95725664D01*
X82821330Y-96175664D02*
X82821330Y-95725664D01*
X82821330Y-100145664D02*
X82821330Y-99695664D01*
D11*
%TO.C,D4*%
X103816330Y-82797964D02*
G75*
G02*
X103716330Y-82797964I-50000J0D01*
G01*
X103716330Y-82797964D02*
G75*
G02*
X103816330Y-82797964I50000J0D01*
G01*
D12*
%TO.C,R14*%
X106004081Y-75103665D02*
X106311363Y-75103665D01*
X106004081Y-75863665D02*
X106311363Y-75863665D01*
%TO.C,R2*%
X109650145Y-95877586D02*
X109432864Y-96094867D01*
X110187546Y-96414987D02*
X109970265Y-96632268D01*
%TO.C,J4*%
X91620330Y-87720664D02*
X92570330Y-87720664D01*
X91620330Y-88170664D02*
X91620330Y-87720664D01*
X91620330Y-91690664D02*
X91620330Y-92140664D01*
X91620330Y-92140664D02*
X98590330Y-92140664D01*
X98590330Y-87720664D02*
X97640330Y-87720664D01*
X98590330Y-88170664D02*
X98590330Y-87720664D01*
X98590330Y-92140664D02*
X98590330Y-91690664D01*
%TO.C,C17*%
X85295329Y-83643746D02*
X85295329Y-83362584D01*
X86315329Y-83643746D02*
X86315329Y-83362584D01*
%TO.C,R6*%
X124345330Y-99610023D02*
X124345330Y-99917305D01*
X125105330Y-99610023D02*
X125105330Y-99917305D01*
D13*
%TO.C,J1*%
X116332830Y-76578964D02*
X116332830Y-78000964D01*
X116332830Y-76578964D02*
X125133830Y-76578964D01*
X116332830Y-80774964D02*
X116332830Y-80024964D01*
X116332830Y-80774964D02*
X116332830Y-90567964D01*
X125133830Y-76578964D02*
X125133830Y-90578964D01*
X125133830Y-90578964D02*
X116332830Y-90578964D01*
D12*
%TO.C,C21*%
X113727722Y-77071501D02*
X113727722Y-76855829D01*
X114447722Y-77071501D02*
X114447722Y-76855829D01*
D11*
%TO.C,U2*%
X111351777Y-98661431D02*
X111422487Y-98732142D01*
X111422487Y-98732142D02*
X113543808Y-96610821D01*
X111988173Y-95055186D02*
X109866852Y-97176507D01*
X112058883Y-95125897D02*
X111988173Y-95055186D01*
X113473097Y-96540111D02*
X113543808Y-96610821D01*
D12*
X109620496Y-97493573D02*
X109422506Y-97691563D01*
X109422506Y-97295583D01*
X109620496Y-97493573D01*
G36*
X109620496Y-97493573D02*
G01*
X109422506Y-97691563D01*
X109422506Y-97295583D01*
X109620496Y-97493573D01*
G37*
%TO.C,C11*%
X112262647Y-101155465D02*
X112110144Y-101002962D01*
X112771764Y-100646348D02*
X112619261Y-100493845D01*
%TO.C,C3*%
X123780543Y-106039668D02*
X123628040Y-106192171D01*
X124289660Y-106548785D02*
X124137157Y-106701288D01*
%TO.C,C2*%
X120389958Y-106129452D02*
X120542461Y-106281955D01*
X120899075Y-105620335D02*
X121051578Y-105772838D01*
%TO.C,C7*%
X119326725Y-94108589D02*
X119479228Y-93956086D01*
X119835842Y-94617706D02*
X119988345Y-94465203D01*
%TO.C,U6*%
X107777722Y-74598665D02*
X107777722Y-74113665D01*
X107777722Y-79093665D02*
X107777722Y-78368665D01*
X108502722Y-73873665D02*
X108077722Y-73873665D01*
X108502722Y-79093665D02*
X107777722Y-79093665D01*
X112272722Y-73873665D02*
X112997722Y-73873665D01*
X112272722Y-79093665D02*
X112997722Y-79093665D01*
X112997722Y-73873665D02*
X112997722Y-74598665D01*
X112997722Y-79093665D02*
X112997722Y-78368665D01*
X107777722Y-73873665D02*
X107537722Y-73543665D01*
X108017722Y-73543665D01*
X107777722Y-73873665D01*
G36*
X107777722Y-73873665D02*
G01*
X107537722Y-73543665D01*
X108017722Y-73543665D01*
X107777722Y-73873665D01*
G37*
%TO.C,R3*%
X108491689Y-102563664D02*
X108798971Y-102563664D01*
X108491689Y-103323664D02*
X108798971Y-103323664D01*
D14*
%TO.C,G2*%
G36*
X83273097Y-85609216D02*
G01*
X83271688Y-85623017D01*
X83259868Y-85631504D01*
X83203512Y-85655159D01*
X83162846Y-85650736D01*
X83153145Y-85631504D01*
X83176157Y-85612273D01*
X83226517Y-85605232D01*
X83273097Y-85609216D01*
G37*
G36*
X83694638Y-85597537D02*
G01*
X83700099Y-85604823D01*
X83694050Y-85627665D01*
X83674993Y-85631504D01*
X83638488Y-85617574D01*
X83633397Y-85604823D01*
X83652546Y-85578906D01*
X83658503Y-85578143D01*
X83694638Y-85597537D01*
G37*
G36*
X83995723Y-90019684D02*
G01*
X83993586Y-90033815D01*
X83970765Y-90059240D01*
X83966905Y-90060496D01*
X83945693Y-90041887D01*
X83940225Y-90033815D01*
X83946561Y-90011211D01*
X83966905Y-90007134D01*
X83995723Y-90019684D01*
G37*
G36*
X84768645Y-89994511D02*
G01*
X84769652Y-90024263D01*
X84735294Y-90051079D01*
X84718423Y-90055782D01*
X84680345Y-90044289D01*
X84673943Y-90022431D01*
X84696387Y-89987793D01*
X84729528Y-89980454D01*
X84768645Y-89994511D01*
G37*
G36*
X85068651Y-89761705D02*
G01*
X85074153Y-89781135D01*
X85057747Y-89825921D01*
X85019977Y-89828322D01*
X84993868Y-89806736D01*
X84971147Y-89773393D01*
X84970834Y-89764967D01*
X85038686Y-89754446D01*
X85068651Y-89761705D01*
G37*
G36*
X83344622Y-89803431D02*
G01*
X83391623Y-89822463D01*
X83448354Y-89852231D01*
X83461819Y-89871342D01*
X83437831Y-89890089D01*
X83431644Y-89893359D01*
X83379746Y-89904051D01*
X83330428Y-89872068D01*
X83292312Y-89823072D01*
X83298581Y-89798946D01*
X83344622Y-89803431D01*
G37*
G36*
X84322091Y-89922758D02*
G01*
X84327095Y-89953773D01*
X84311462Y-89995617D01*
X84260393Y-90007134D01*
X84205878Y-89992543D01*
X84193691Y-89964259D01*
X84210096Y-89933964D01*
X84233712Y-89936741D01*
X84268068Y-89937295D01*
X84273733Y-89926255D01*
X84294062Y-89901157D01*
X84300414Y-89900412D01*
X84322091Y-89922758D01*
G37*
G36*
X84698614Y-89841069D02*
G01*
X84767933Y-89859370D01*
X84817113Y-89882125D01*
X84827389Y-89893838D01*
X84828829Y-89912576D01*
X84810086Y-89920931D01*
X84760778Y-89919740D01*
X84670520Y-89909837D01*
X84653933Y-89907792D01*
X84589380Y-89890820D01*
X84566195Y-89864834D01*
X84587231Y-89838158D01*
X84631074Y-89832305D01*
X84698614Y-89841069D01*
G37*
G36*
X83657123Y-89867224D02*
G01*
X83732806Y-89877788D01*
X83791062Y-89892842D01*
X83809300Y-89902469D01*
X83852283Y-89920004D01*
X83869559Y-89916202D01*
X83896571Y-89921598D01*
X83914207Y-89954373D01*
X83909466Y-89988667D01*
X83907259Y-89991186D01*
X83876741Y-90003039D01*
X83818132Y-89998670D01*
X83722001Y-89977036D01*
X83681417Y-89966198D01*
X83580637Y-89935774D01*
X83523529Y-89910312D01*
X83501227Y-89885448D01*
X83499994Y-89876896D01*
X83523268Y-89865335D01*
X83581461Y-89862592D01*
X83657123Y-89867224D01*
G37*
G36*
X83066995Y-89712420D02*
G01*
X83137426Y-89731802D01*
X83190099Y-89754859D01*
X83206506Y-89773108D01*
X83186751Y-89787618D01*
X83163515Y-89782901D01*
X83132858Y-89780899D01*
X83135669Y-89805872D01*
X83137491Y-89849216D01*
X83103578Y-89858407D01*
X83065302Y-89843215D01*
X83033916Y-89811652D01*
X83034095Y-89792049D01*
X83025271Y-89772123D01*
X82996210Y-89767008D01*
X82945265Y-89755956D01*
X82925059Y-89731587D01*
X82928883Y-89726987D01*
X82966380Y-89726987D01*
X82979721Y-89740328D01*
X82993061Y-89726987D01*
X82979721Y-89713647D01*
X82966380Y-89726987D01*
X82928883Y-89726987D01*
X82945427Y-89707086D01*
X82950057Y-89705143D01*
X82998106Y-89701829D01*
X83066995Y-89712420D01*
G37*
G36*
X83856590Y-84426806D02*
G01*
X83973826Y-84427634D01*
X84040277Y-84427926D01*
X84114920Y-84433413D01*
X84160262Y-84447106D01*
X84167010Y-84456236D01*
X84190492Y-84474604D01*
X84248364Y-84483940D01*
X84262147Y-84484235D01*
X84341545Y-84491645D01*
X84404584Y-84509616D01*
X84407271Y-84510988D01*
X84454956Y-84523219D01*
X84472246Y-84513493D01*
X84508874Y-84498608D01*
X84568219Y-84513361D01*
X84633190Y-84551856D01*
X84663820Y-84579609D01*
X84734266Y-84626328D01*
X84844489Y-84654756D01*
X84870595Y-84658383D01*
X84957682Y-84674519D01*
X85010418Y-84695235D01*
X85020792Y-84709064D01*
X85037557Y-84751291D01*
X85068830Y-84792702D01*
X85113004Y-84850603D01*
X85134695Y-84891115D01*
X85172884Y-84927390D01*
X85245688Y-84937807D01*
X85318711Y-84948931D01*
X85370723Y-84975988D01*
X85373259Y-84978754D01*
X85433173Y-85047238D01*
X85470497Y-85080734D01*
X85494738Y-85086885D01*
X85503195Y-85083221D01*
X85524245Y-85090517D01*
X85527725Y-85109656D01*
X85541664Y-85146161D01*
X85554423Y-85151252D01*
X85585263Y-85169793D01*
X85642405Y-85219487D01*
X85716888Y-85291437D01*
X85799752Y-85376747D01*
X85882034Y-85466521D01*
X85940694Y-85534703D01*
X86000242Y-85599266D01*
X86048664Y-85639109D01*
X86078182Y-85649505D01*
X86081016Y-85625724D01*
X86078487Y-85618466D01*
X86071350Y-85582074D01*
X86089991Y-85584838D01*
X86128578Y-85622922D01*
X86173022Y-85680650D01*
X86221532Y-85761043D01*
X86256112Y-85839403D01*
X86262058Y-85860175D01*
X86285504Y-85941679D01*
X86321450Y-86040645D01*
X86363551Y-86142289D01*
X86405462Y-86231826D01*
X86440838Y-86294472D01*
X86456461Y-86313138D01*
X86477994Y-86349234D01*
X86505630Y-86422497D01*
X86536259Y-86520766D01*
X86566771Y-86631880D01*
X86594055Y-86743679D01*
X86615003Y-86844001D01*
X86626503Y-86920685D01*
X86625445Y-86961570D01*
X86623074Y-86964647D01*
X86612746Y-86996758D01*
X86606814Y-87069561D01*
X86606043Y-87170510D01*
X86607498Y-87219688D01*
X86609372Y-87342386D01*
X86605859Y-87458202D01*
X86597718Y-87547050D01*
X86594401Y-87565853D01*
X86575567Y-87668227D01*
X86560258Y-87774259D01*
X86559275Y-87782753D01*
X86544109Y-87867577D01*
X86522269Y-87937783D01*
X86517209Y-87948427D01*
X86495228Y-88000091D01*
X86491028Y-88025014D01*
X86493915Y-88092876D01*
X86483906Y-88154831D01*
X86465033Y-88190389D01*
X86458008Y-88192849D01*
X86417280Y-88213132D01*
X86370414Y-88260171D01*
X86335639Y-88313250D01*
X86328145Y-88340408D01*
X86309481Y-88383204D01*
X86286910Y-88407302D01*
X86258790Y-88450723D01*
X86259121Y-88476565D01*
X86252597Y-88520079D01*
X86239949Y-88532322D01*
X86211236Y-88566019D01*
X86169957Y-88632351D01*
X86133861Y-88699781D01*
X86071272Y-88821429D01*
X86025114Y-88902323D01*
X85990415Y-88950592D01*
X85967956Y-88970921D01*
X85881557Y-89045013D01*
X85840957Y-89127162D01*
X85835473Y-89183660D01*
X85828749Y-89251447D01*
X85807153Y-89269313D01*
X85804890Y-89268580D01*
X85766910Y-89278152D01*
X85737268Y-89307332D01*
X85685398Y-89350480D01*
X85621107Y-89377084D01*
X85552617Y-89399125D01*
X85463039Y-89435745D01*
X85364690Y-89480849D01*
X85269885Y-89528343D01*
X85190940Y-89572133D01*
X85140168Y-89606125D01*
X85127973Y-89621110D01*
X85104425Y-89644002D01*
X85045004Y-89671423D01*
X85003676Y-89685201D01*
X84915636Y-89705761D01*
X84858093Y-89703408D01*
X84830613Y-89691026D01*
X84769842Y-89668275D01*
X84695518Y-89659589D01*
X84625545Y-89664336D01*
X84577827Y-89681885D01*
X84567221Y-89700307D01*
X84543372Y-89732927D01*
X84493849Y-89743423D01*
X84453492Y-89748615D01*
X84463508Y-89757711D01*
X84467168Y-89758719D01*
X84509889Y-89780000D01*
X84506164Y-89802393D01*
X84461957Y-89816977D01*
X84427147Y-89818567D01*
X84346792Y-89820112D01*
X84246406Y-89826086D01*
X84207031Y-89829445D01*
X84115108Y-89832747D01*
X83993974Y-89829918D01*
X83867348Y-89821602D01*
X83846842Y-89819675D01*
X83729013Y-89808371D01*
X83619929Y-89798498D01*
X83539410Y-89791839D01*
X83526674Y-89790925D01*
X83456142Y-89781532D01*
X83409068Y-89767100D01*
X83406611Y-89765542D01*
X83364100Y-89747033D01*
X83295561Y-89727046D01*
X83286548Y-89724904D01*
X83221323Y-89709755D01*
X83179086Y-89697949D01*
X83138772Y-89681881D01*
X83079318Y-89653945D01*
X83046422Y-89638205D01*
X82930014Y-89576459D01*
X82852789Y-89522134D01*
X82818600Y-89478560D01*
X82829155Y-89450372D01*
X82832477Y-89446840D01*
X82886338Y-89446840D01*
X82896100Y-89468801D01*
X82904125Y-89464627D01*
X82907318Y-89432964D01*
X82904125Y-89429053D01*
X82888264Y-89432716D01*
X82886338Y-89446840D01*
X82832477Y-89446840D01*
X82851979Y-89426105D01*
X82829155Y-89403700D01*
X82779232Y-89378071D01*
X82718894Y-89354698D01*
X82666151Y-89339280D01*
X85447683Y-89339280D01*
X85467240Y-89353960D01*
X85487704Y-89349766D01*
X85522809Y-89330828D01*
X85527725Y-89323923D01*
X85505938Y-89314596D01*
X85487704Y-89313437D01*
X85452191Y-89327400D01*
X85447683Y-89339280D01*
X82666151Y-89339280D01*
X82665094Y-89338971D01*
X82634782Y-89336280D01*
X82633775Y-89341579D01*
X82628652Y-89372913D01*
X82620959Y-89379256D01*
X82585018Y-89376731D01*
X82528203Y-89351133D01*
X82466512Y-89312824D01*
X82415945Y-89272166D01*
X82413649Y-89268969D01*
X83455526Y-89268969D01*
X83459188Y-89284831D01*
X83473313Y-89286756D01*
X83495274Y-89276994D01*
X83491100Y-89268969D01*
X83459436Y-89265776D01*
X83455526Y-89268969D01*
X82413649Y-89268969D01*
X82405391Y-89257470D01*
X85544833Y-89257470D01*
X85549179Y-89260076D01*
X85580445Y-89238775D01*
X85590823Y-89219824D01*
X85625485Y-89178707D01*
X85670778Y-89150180D01*
X85731956Y-89103548D01*
X85763858Y-89058079D01*
X85780510Y-89014738D01*
X85765288Y-89009167D01*
X85726779Y-89025283D01*
X85678329Y-89054012D01*
X85661128Y-89075546D01*
X85645391Y-89107143D01*
X85606207Y-89160735D01*
X85592055Y-89177986D01*
X85555091Y-89228573D01*
X85544833Y-89257470D01*
X82405391Y-89257470D01*
X82392502Y-89239522D01*
X82393605Y-89232004D01*
X82425637Y-89217628D01*
X82434610Y-89221194D01*
X82457866Y-89217818D01*
X82459447Y-89209228D01*
X82438677Y-89175836D01*
X82410340Y-89155629D01*
X82360385Y-89121214D01*
X82295147Y-89067104D01*
X82274115Y-89047968D01*
X82210726Y-88997963D01*
X82155252Y-88969267D01*
X82140593Y-88966588D01*
X82080213Y-88943602D01*
X82067363Y-88929572D01*
X82388577Y-88929572D01*
X82392746Y-88939907D01*
X82416721Y-88965360D01*
X82421001Y-88966588D01*
X82432461Y-88945946D01*
X82432767Y-88939907D01*
X82412256Y-88914252D01*
X82404511Y-88913227D01*
X82388577Y-88929572D01*
X82067363Y-88929572D01*
X82029378Y-88888099D01*
X82006021Y-88820258D01*
X82005876Y-88814969D01*
X81988449Y-88759842D01*
X81945828Y-88696410D01*
X81939174Y-88688962D01*
X81894396Y-88627107D01*
X81872822Y-88570699D01*
X81872473Y-88565003D01*
X81859720Y-88522423D01*
X81842680Y-88513017D01*
X81831013Y-88499676D01*
X82005876Y-88499676D01*
X82019216Y-88513017D01*
X82032557Y-88499676D01*
X82019216Y-88486336D01*
X82005876Y-88499676D01*
X81831013Y-88499676D01*
X81824283Y-88491981D01*
X81826507Y-88460935D01*
X81827161Y-88415170D01*
X81815246Y-88400559D01*
X81788919Y-88367471D01*
X81761293Y-88292533D01*
X81758490Y-88281633D01*
X81879916Y-88281633D01*
X81892199Y-88304398D01*
X81898646Y-88312301D01*
X81936250Y-88349304D01*
X81951666Y-88340775D01*
X81952515Y-88329107D01*
X81931130Y-88300453D01*
X81908720Y-88288475D01*
X81879916Y-88281633D01*
X81758490Y-88281633D01*
X81734194Y-88187167D01*
X81731785Y-88175062D01*
X81854686Y-88175062D01*
X81858348Y-88190923D01*
X81872473Y-88192849D01*
X81894434Y-88183087D01*
X81890260Y-88175062D01*
X81858596Y-88171868D01*
X81854686Y-88175062D01*
X81731785Y-88175062D01*
X81716741Y-88099466D01*
X81845792Y-88099466D01*
X81859132Y-88112807D01*
X81872473Y-88099466D01*
X81859132Y-88086126D01*
X81845792Y-88099466D01*
X81716741Y-88099466D01*
X81709443Y-88062792D01*
X81694682Y-87968132D01*
X81727380Y-87968132D01*
X81741617Y-87980978D01*
X81786568Y-87991985D01*
X81800675Y-87987648D01*
X81804120Y-87963994D01*
X81789883Y-87951148D01*
X81744932Y-87940141D01*
X81730825Y-87944478D01*
X81727380Y-87968132D01*
X81694682Y-87968132D01*
X81688865Y-87930830D01*
X81675126Y-87810108D01*
X81722448Y-87810108D01*
X81751658Y-87842786D01*
X81767325Y-87846000D01*
X81787728Y-87823639D01*
X81792431Y-87792639D01*
X81778352Y-87747238D01*
X81747026Y-87743667D01*
X81725729Y-87765958D01*
X81722448Y-87810108D01*
X81675126Y-87810108D01*
X81674283Y-87802701D01*
X81667522Y-87689825D01*
X81670330Y-87605874D01*
X81845792Y-87605874D01*
X81855554Y-87627835D01*
X81863579Y-87623661D01*
X81866772Y-87591997D01*
X81863579Y-87588087D01*
X81847717Y-87591749D01*
X81845792Y-87605874D01*
X81670330Y-87605874D01*
X81670405Y-87603623D01*
X81681176Y-87560980D01*
X81686710Y-87539172D01*
X82005876Y-87539172D01*
X82019216Y-87552513D01*
X82032557Y-87539172D01*
X82019216Y-87525832D01*
X82005876Y-87539172D01*
X81686710Y-87539172D01*
X81695571Y-87504249D01*
X81682134Y-87479569D01*
X81669770Y-87447159D01*
X81683383Y-87433886D01*
X81705992Y-87395818D01*
X81712389Y-87351765D01*
X81714084Y-87338632D01*
X81832721Y-87338632D01*
X81838517Y-87361835D01*
X81857558Y-87365748D01*
X81894148Y-87359561D01*
X81899153Y-87353982D01*
X81879602Y-87329078D01*
X81844423Y-87328523D01*
X81832721Y-87338632D01*
X81714084Y-87338632D01*
X81720838Y-87286287D01*
X81736689Y-87222009D01*
X81854963Y-87222009D01*
X81859132Y-87232344D01*
X81883108Y-87257797D01*
X81887388Y-87259025D01*
X81898847Y-87238383D01*
X81899153Y-87232344D01*
X81878642Y-87206689D01*
X81870898Y-87205664D01*
X81854963Y-87222009D01*
X81736689Y-87222009D01*
X81741950Y-87200673D01*
X81750553Y-87173245D01*
X81756849Y-87152302D01*
X81899153Y-87152302D01*
X81908915Y-87174264D01*
X81916940Y-87170090D01*
X81920134Y-87138426D01*
X81916940Y-87134515D01*
X81901079Y-87138178D01*
X81899153Y-87152302D01*
X81756849Y-87152302D01*
X81784480Y-87060397D01*
X81803082Y-86978429D01*
X81886731Y-86978429D01*
X81888068Y-87022459D01*
X81888665Y-87023514D01*
X81909005Y-87022291D01*
X81938376Y-86982900D01*
X81970408Y-86918263D01*
X81998733Y-86841303D01*
X82016982Y-86764941D01*
X82017369Y-86762382D01*
X82019863Y-86738752D01*
X82165960Y-86738752D01*
X82179300Y-86752092D01*
X82192641Y-86738752D01*
X82179300Y-86725412D01*
X82165960Y-86738752D01*
X82019863Y-86738752D01*
X82023157Y-86707551D01*
X82019719Y-86691823D01*
X82015775Y-86698731D01*
X81984119Y-86754383D01*
X81966152Y-86778773D01*
X81932387Y-86835694D01*
X81903709Y-86909210D01*
X81886731Y-86978429D01*
X81803082Y-86978429D01*
X81805938Y-86965846D01*
X81813544Y-86898805D01*
X81805913Y-86868488D01*
X81796124Y-86869873D01*
X81768034Y-86875561D01*
X81765224Y-86847026D01*
X81783074Y-86794246D01*
X81816961Y-86727195D01*
X81862267Y-86655849D01*
X81914371Y-86590183D01*
X81920695Y-86583645D01*
X82013605Y-86583645D01*
X82036773Y-86591986D01*
X82039776Y-86592008D01*
X82083911Y-86570430D01*
X82095566Y-86551987D01*
X82097674Y-86517554D01*
X82088348Y-86511966D01*
X82054321Y-86530184D01*
X82032557Y-86551987D01*
X82013605Y-86583645D01*
X81920695Y-86583645D01*
X81936051Y-86567770D01*
X81987535Y-86510356D01*
X82013911Y-86464986D01*
X82013943Y-86461754D01*
X82112599Y-86461754D01*
X82129037Y-86476220D01*
X82139279Y-86471945D01*
X82164964Y-86436601D01*
X82165960Y-86428775D01*
X82149521Y-86414310D01*
X82139279Y-86418584D01*
X82113595Y-86453928D01*
X82112599Y-86461754D01*
X82013943Y-86461754D01*
X82014056Y-86450255D01*
X82015013Y-86436207D01*
X82026092Y-86441269D01*
X82056603Y-86431823D01*
X82104806Y-86388804D01*
X82141562Y-86345339D01*
X82150509Y-86334095D01*
X84896282Y-86334095D01*
X84899945Y-86349957D01*
X84914069Y-86351882D01*
X84936031Y-86342120D01*
X84931856Y-86334095D01*
X84900193Y-86330902D01*
X84896282Y-86334095D01*
X82150509Y-86334095D01*
X82196939Y-86275741D01*
X82206832Y-86264282D01*
X82515514Y-86264282D01*
X82542248Y-86258684D01*
X82547310Y-86256785D01*
X82579982Y-86235648D01*
X82580216Y-86223632D01*
X82551992Y-86226624D01*
X82532375Y-86241849D01*
X82515514Y-86264282D01*
X82206832Y-86264282D01*
X82243265Y-86222081D01*
X82260855Y-86204473D01*
X82293173Y-86156213D01*
X82303416Y-86124431D01*
X82325896Y-86086650D01*
X82699573Y-86086650D01*
X82719924Y-86111038D01*
X82726254Y-86111756D01*
X82749669Y-86090039D01*
X82752935Y-86070161D01*
X82740000Y-86042545D01*
X82726254Y-86045055D01*
X82700591Y-86079165D01*
X82699573Y-86086650D01*
X82325896Y-86086650D01*
X82326733Y-86085244D01*
X82382897Y-86079838D01*
X82383197Y-86079873D01*
X82451773Y-86071059D01*
X82494190Y-86046522D01*
X82532556Y-86013420D01*
X82548875Y-86005034D01*
X82576694Y-85993178D01*
X82579655Y-85991693D01*
X82832977Y-85991693D01*
X82846317Y-86005034D01*
X82859658Y-85991693D01*
X82913019Y-85991693D01*
X82926359Y-86005034D01*
X82939700Y-85991693D01*
X82926359Y-85978353D01*
X82913019Y-85991693D01*
X82859658Y-85991693D01*
X82846317Y-85978353D01*
X82832977Y-85991693D01*
X82579655Y-85991693D01*
X82639923Y-85961469D01*
X82727173Y-85915691D01*
X82770897Y-85892229D01*
X82811259Y-85871630D01*
X82993061Y-85871630D01*
X83013364Y-85897536D01*
X83019742Y-85898311D01*
X83045647Y-85878008D01*
X83046422Y-85871630D01*
X83033185Y-85854741D01*
X83321876Y-85854741D01*
X83329145Y-85875798D01*
X83364712Y-85890765D01*
X83402952Y-85886237D01*
X83475027Y-85866690D01*
X83511375Y-85857856D01*
X83569448Y-85833463D01*
X83591417Y-85816698D01*
X83594166Y-85800773D01*
X83554550Y-85798367D01*
X83486653Y-85806133D01*
X83390390Y-85821711D01*
X83338420Y-85836606D01*
X83321876Y-85854741D01*
X83033185Y-85854741D01*
X83026119Y-85845725D01*
X83019742Y-85844950D01*
X82993836Y-85865253D01*
X82993061Y-85871630D01*
X82811259Y-85871630D01*
X82873246Y-85839994D01*
X82924289Y-85816939D01*
X83159283Y-85816939D01*
X83169161Y-85839703D01*
X83197865Y-85844950D01*
X83250574Y-85824101D01*
X83278672Y-85794286D01*
X83295978Y-85759480D01*
X83277402Y-85753641D01*
X83240137Y-85762389D01*
X83185018Y-85787112D01*
X83159283Y-85816939D01*
X82924289Y-85816939D01*
X82965227Y-85798448D01*
X83031622Y-85774280D01*
X83046422Y-85771111D01*
X83116029Y-85749321D01*
X83118046Y-85748192D01*
X83642317Y-85748192D01*
X83664511Y-85768212D01*
X83717438Y-85789947D01*
X83750428Y-85769721D01*
X83752052Y-85767186D01*
X83751691Y-85764907D01*
X83846842Y-85764907D01*
X83856604Y-85786869D01*
X83864630Y-85782695D01*
X83867823Y-85751031D01*
X83864630Y-85747120D01*
X83848768Y-85750783D01*
X83846842Y-85764907D01*
X83751691Y-85764907D01*
X83747812Y-85740384D01*
X83710673Y-85726640D01*
X83664511Y-85732530D01*
X83642317Y-85748192D01*
X83118046Y-85748192D01*
X83185415Y-85710491D01*
X83285156Y-85668056D01*
X83378850Y-85658185D01*
X83458377Y-85653037D01*
X83494838Y-85635505D01*
X83499994Y-85618164D01*
X83514400Y-85582658D01*
X83526674Y-85578143D01*
X83550825Y-85599537D01*
X83553355Y-85615271D01*
X83577719Y-85645757D01*
X83641626Y-85671941D01*
X83731297Y-85691595D01*
X83832954Y-85702495D01*
X83932818Y-85702415D01*
X84014721Y-85689802D01*
X84087428Y-85676877D01*
X84119258Y-85688401D01*
X84119469Y-85688985D01*
X84148956Y-85705462D01*
X84212131Y-85715245D01*
X84236306Y-85716215D01*
X84340266Y-85733969D01*
X84409201Y-85770024D01*
X84473838Y-85822338D01*
X84400466Y-85810663D01*
X84347665Y-85809325D01*
X84327095Y-85821969D01*
X84348455Y-85842965D01*
X84363016Y-85844950D01*
X84413318Y-85857018D01*
X84493916Y-85888787D01*
X84588709Y-85933600D01*
X84629850Y-85955237D01*
X84675937Y-85970507D01*
X84694615Y-85966574D01*
X84681925Y-85948804D01*
X84632066Y-85921492D01*
X84598635Y-85907317D01*
X84528204Y-85873587D01*
X84490025Y-85843229D01*
X84490304Y-85822925D01*
X84515944Y-85818269D01*
X84559808Y-85829485D01*
X84629942Y-85858613D01*
X84713472Y-85898874D01*
X84797525Y-85943487D01*
X84869226Y-85985671D01*
X84915701Y-86018648D01*
X84925893Y-86034168D01*
X84893773Y-86047374D01*
X84885545Y-86043915D01*
X84862311Y-86047849D01*
X84860708Y-86056820D01*
X84875383Y-86084295D01*
X84880718Y-86085410D01*
X84915069Y-86102785D01*
X84975782Y-86147833D01*
X85051182Y-86210799D01*
X85129593Y-86281932D01*
X85199340Y-86351479D01*
X85199719Y-86351882D01*
X85252250Y-86419623D01*
X85283602Y-86482747D01*
X85287471Y-86503970D01*
X85307064Y-86562515D01*
X85334290Y-86588801D01*
X85374395Y-86634565D01*
X85387845Y-86676839D01*
X85404487Y-86820426D01*
X85418007Y-86919446D01*
X85429920Y-86982490D01*
X85441740Y-87018151D01*
X85450269Y-87030905D01*
X85473497Y-87077661D01*
X85469566Y-87123586D01*
X85442094Y-87147130D01*
X85430813Y-87146802D01*
X85391797Y-87162373D01*
X85376680Y-87205149D01*
X85371508Y-87250104D01*
X85383141Y-87246849D01*
X85402817Y-87221117D01*
X85437110Y-87188788D01*
X85455548Y-87198278D01*
X85455484Y-87239705D01*
X85434269Y-87303189D01*
X85428191Y-87315816D01*
X85386900Y-87410624D01*
X85377676Y-87470474D01*
X85396834Y-87500704D01*
X85408896Y-87538357D01*
X85395436Y-87589602D01*
X85381809Y-87639396D01*
X85394402Y-87645845D01*
X85418876Y-87607293D01*
X85421002Y-87590959D01*
X85435920Y-87556476D01*
X85447683Y-87552513D01*
X85470483Y-87572785D01*
X85469191Y-87621336D01*
X85445573Y-87679767D01*
X85433790Y-87697280D01*
X85406441Y-87754989D01*
X85384022Y-87838758D01*
X85378580Y-87871793D01*
X85344146Y-87991580D01*
X85271562Y-88096831D01*
X85219688Y-88159254D01*
X85186868Y-88206684D01*
X85180876Y-88221552D01*
X85163193Y-88249326D01*
X85115800Y-88304726D01*
X85047177Y-88378112D01*
X85007385Y-88418711D01*
X84905420Y-88514879D01*
X84829182Y-88571583D01*
X84773291Y-88592716D01*
X84766421Y-88593059D01*
X84709626Y-88607203D01*
X84683592Y-88633080D01*
X84647883Y-88664178D01*
X84604387Y-88673101D01*
X84555616Y-88681775D01*
X84540540Y-88697436D01*
X84516373Y-88715491D01*
X84453380Y-88735313D01*
X84365825Y-88753279D01*
X84273264Y-88765296D01*
X84214313Y-88781830D01*
X84199892Y-88789331D01*
X84158079Y-88800882D01*
X84147000Y-88797836D01*
X84112055Y-88795192D01*
X84040429Y-88799887D01*
X83954810Y-88809972D01*
X83846862Y-88820861D01*
X83758680Y-88816388D01*
X83662433Y-88793894D01*
X83607962Y-88776819D01*
X83450757Y-88715826D01*
X83342129Y-88651990D01*
X83326788Y-88634806D01*
X83449353Y-88634806D01*
X83455117Y-88657298D01*
X83490002Y-88683344D01*
X83533006Y-88698183D01*
X83540015Y-88698524D01*
X83542758Y-88685285D01*
X83535530Y-88678420D01*
X83673418Y-88678420D01*
X83740120Y-88699781D01*
X83827568Y-88720862D01*
X83881269Y-88719036D01*
X83881300Y-88718976D01*
X83958116Y-88718976D01*
X83969514Y-88733517D01*
X84005536Y-88739673D01*
X84046168Y-88720921D01*
X84058608Y-88699781D01*
X84126989Y-88699781D01*
X84129105Y-88724367D01*
X84138755Y-88726462D01*
X84165925Y-88707094D01*
X84167010Y-88699781D01*
X84157907Y-88673794D01*
X84155245Y-88673101D01*
X84132466Y-88691797D01*
X84126989Y-88699781D01*
X84058608Y-88699781D01*
X84060288Y-88696927D01*
X84037916Y-88677561D01*
X84006926Y-88673101D01*
X83960609Y-88686418D01*
X83958116Y-88718976D01*
X83881300Y-88718976D01*
X83894000Y-88694618D01*
X83893534Y-88693111D01*
X83863730Y-88663861D01*
X83851289Y-88662429D01*
X83802663Y-88666724D01*
X83746790Y-88671758D01*
X83673418Y-88678420D01*
X83535530Y-88678420D01*
X83515282Y-88659188D01*
X83508264Y-88655314D01*
X83615610Y-88655314D01*
X83619272Y-88671175D01*
X83633397Y-88673101D01*
X83655358Y-88663339D01*
X83651184Y-88655314D01*
X83619520Y-88652120D01*
X83615610Y-88655314D01*
X83508264Y-88655314D01*
X83470813Y-88634642D01*
X83449353Y-88634806D01*
X83326788Y-88634806D01*
X83301429Y-88606399D01*
X83339910Y-88606399D01*
X83353250Y-88619739D01*
X83366590Y-88606399D01*
X83358260Y-88598069D01*
X84278858Y-88598069D01*
X84288520Y-88608508D01*
X84313754Y-88619739D01*
X84359015Y-88638793D01*
X84373786Y-88644545D01*
X84380270Y-88625940D01*
X84380456Y-88619739D01*
X84357917Y-88599645D01*
X84320424Y-88594934D01*
X84278858Y-88598069D01*
X83358260Y-88598069D01*
X83353250Y-88593059D01*
X83339910Y-88606399D01*
X83301429Y-88606399D01*
X83283705Y-88586545D01*
X83281809Y-88571456D01*
X84433817Y-88571456D01*
X84449482Y-88588931D01*
X84481393Y-88578043D01*
X84506924Y-88546984D01*
X84507751Y-88544682D01*
X84499415Y-88524593D01*
X84476068Y-88529193D01*
X84439370Y-88556456D01*
X84433817Y-88571456D01*
X83281809Y-88571456D01*
X83275960Y-88524892D01*
X83278528Y-88474702D01*
X83261955Y-88464472D01*
X83793481Y-88464472D01*
X83816409Y-88505389D01*
X83870568Y-88538903D01*
X83934018Y-88553096D01*
X83953565Y-88551449D01*
X84014714Y-88543787D01*
X84046471Y-88541739D01*
X84069975Y-88534505D01*
X84054435Y-88512289D01*
X83998253Y-88470996D01*
X83932666Y-88432975D01*
X84086968Y-88432975D01*
X84096730Y-88454936D01*
X84104756Y-88450762D01*
X84106346Y-88434992D01*
X84647263Y-88434992D01*
X84666934Y-88447217D01*
X84687284Y-88442623D01*
X84722578Y-88416895D01*
X84727305Y-88404277D01*
X84707633Y-88392052D01*
X84687284Y-88396646D01*
X84651989Y-88422374D01*
X84647263Y-88434992D01*
X84106346Y-88434992D01*
X84107949Y-88419098D01*
X84104756Y-88415188D01*
X84088894Y-88418850D01*
X84086968Y-88432975D01*
X83932666Y-88432975D01*
X83925735Y-88428957D01*
X83879524Y-88422026D01*
X83862871Y-88430744D01*
X83824543Y-88446580D01*
X83811037Y-88441637D01*
X83795886Y-88446534D01*
X83793481Y-88464472D01*
X83261955Y-88464472D01*
X83246714Y-88455064D01*
X83186496Y-88457664D01*
X83155757Y-88443891D01*
X83153145Y-88433018D01*
X83131834Y-88380883D01*
X83130722Y-88379613D01*
X83713439Y-88379613D01*
X83723201Y-88401575D01*
X83731226Y-88397400D01*
X83732690Y-88382880D01*
X83953565Y-88382880D01*
X83959452Y-88421394D01*
X83984365Y-88413651D01*
X83993292Y-88406538D01*
X84019697Y-88368959D01*
X84018398Y-88349910D01*
X83986193Y-88326110D01*
X83960065Y-88347103D01*
X83953565Y-88382880D01*
X83732690Y-88382880D01*
X83734419Y-88365737D01*
X83731226Y-88361826D01*
X83715365Y-88365489D01*
X83713439Y-88379613D01*
X83130722Y-88379613D01*
X83066636Y-88306400D01*
X83029241Y-88271316D01*
X83313229Y-88271316D01*
X83332597Y-88298486D01*
X83339910Y-88299571D01*
X83365897Y-88290468D01*
X83366590Y-88287806D01*
X83347894Y-88265026D01*
X83339910Y-88259550D01*
X83315324Y-88261666D01*
X83313229Y-88271316D01*
X83029241Y-88271316D01*
X83021839Y-88264371D01*
X82988875Y-88232870D01*
X83233187Y-88232870D01*
X83246527Y-88246210D01*
X83259868Y-88232870D01*
X83246527Y-88219529D01*
X83233187Y-88232870D01*
X82988875Y-88232870D01*
X82937980Y-88184233D01*
X82884166Y-88127251D01*
X83111360Y-88127251D01*
X83115960Y-88150598D01*
X83140699Y-88184119D01*
X83167198Y-88191770D01*
X83175994Y-88169991D01*
X83173711Y-88161165D01*
X83141058Y-88123323D01*
X83131449Y-88118915D01*
X83111360Y-88127251D01*
X82884166Y-88127251D01*
X82860312Y-88101992D01*
X82797976Y-88028207D01*
X82760112Y-87973441D01*
X82752935Y-87953676D01*
X82766504Y-87924824D01*
X82801493Y-87934899D01*
X82849325Y-87978695D01*
X82894240Y-88039435D01*
X82934677Y-88090131D01*
X82968872Y-88112730D01*
X82970262Y-88112807D01*
X82982687Y-88098257D01*
X82965845Y-88072141D01*
X82942657Y-88030209D01*
X82958959Y-88016093D01*
X83007006Y-88032790D01*
X83030767Y-88047042D01*
X83082695Y-88075210D01*
X83097751Y-88065299D01*
X83077969Y-88015329D01*
X83073031Y-88005949D01*
X83056338Y-87957176D01*
X83069592Y-87941548D01*
X83102104Y-87957625D01*
X83143183Y-88003968D01*
X83151336Y-88016497D01*
X83194662Y-88074145D01*
X83246644Y-88127060D01*
X83295728Y-88165806D01*
X83330361Y-88180948D01*
X83339910Y-88170500D01*
X83325306Y-88128845D01*
X83288059Y-88065273D01*
X83238011Y-87993056D01*
X83228564Y-87981011D01*
X83344149Y-87981011D01*
X83344803Y-87993946D01*
X83351235Y-88014936D01*
X83365527Y-88072556D01*
X83368697Y-88094978D01*
X83375149Y-88110561D01*
X83383925Y-88093801D01*
X83383853Y-88092338D01*
X83464321Y-88092338D01*
X83465409Y-88127847D01*
X83474770Y-88156661D01*
X83512472Y-88226067D01*
X83556866Y-88267504D01*
X83573442Y-88272482D01*
X83569916Y-88255104D01*
X83722333Y-88255104D01*
X83725995Y-88270965D01*
X83740120Y-88272891D01*
X83762081Y-88263129D01*
X83757907Y-88255104D01*
X83726243Y-88251910D01*
X83722333Y-88255104D01*
X83569916Y-88255104D01*
X83569117Y-88251169D01*
X83562304Y-88232615D01*
X83802847Y-88232615D01*
X83824654Y-88279584D01*
X83854821Y-88317732D01*
X83871964Y-88326252D01*
X83884888Y-88304961D01*
X83881145Y-88272475D01*
X83872918Y-88255104D01*
X84069181Y-88255104D01*
X84072844Y-88270965D01*
X84086968Y-88272891D01*
X84108930Y-88263129D01*
X84104756Y-88255104D01*
X84073092Y-88251910D01*
X84069181Y-88255104D01*
X83872918Y-88255104D01*
X83855577Y-88218489D01*
X83832084Y-88201742D01*
X84015820Y-88201742D01*
X84019482Y-88217604D01*
X84033607Y-88219529D01*
X84055568Y-88209767D01*
X84051394Y-88201742D01*
X84019731Y-88198549D01*
X84015820Y-88201742D01*
X83832084Y-88201742D01*
X83822116Y-88194636D01*
X83802885Y-88201232D01*
X83802847Y-88232615D01*
X83562304Y-88232615D01*
X83549710Y-88198314D01*
X83545549Y-88187998D01*
X83513278Y-88126348D01*
X83493177Y-88104133D01*
X83608693Y-88104133D01*
X83623353Y-88151796D01*
X83643127Y-88182523D01*
X83652479Y-88182660D01*
X83651002Y-88152821D01*
X83636654Y-88121478D01*
X83613063Y-88090133D01*
X83608693Y-88104133D01*
X83493177Y-88104133D01*
X83483239Y-88093150D01*
X83464321Y-88092338D01*
X83383853Y-88092338D01*
X83381607Y-88046974D01*
X83366464Y-88013759D01*
X83344149Y-87981011D01*
X83228564Y-87981011D01*
X83185005Y-87925471D01*
X83138885Y-87875792D01*
X83109495Y-87857295D01*
X83107925Y-87857644D01*
X83068209Y-87854317D01*
X83053985Y-87809657D01*
X83061718Y-87754325D01*
X83072400Y-87719590D01*
X83087522Y-87710488D01*
X83116452Y-87731206D01*
X83168561Y-87785931D01*
X83193315Y-87813129D01*
X83264120Y-87882796D01*
X83313089Y-87914404D01*
X83336241Y-87907430D01*
X83329599Y-87861353D01*
X83316564Y-87829325D01*
X83296968Y-87775615D01*
X83295555Y-87748058D01*
X83319110Y-87758011D01*
X83365435Y-87795589D01*
X83421913Y-87848477D01*
X83475927Y-87904360D01*
X83514857Y-87950925D01*
X83526674Y-87973612D01*
X83548735Y-87988323D01*
X83590428Y-87986497D01*
X83658495Y-87991985D01*
X83724053Y-88020092D01*
X83790299Y-88047960D01*
X83884261Y-88069711D01*
X83946125Y-88077299D01*
X84045260Y-88078349D01*
X84149881Y-88069415D01*
X84245934Y-88053017D01*
X84319364Y-88031679D01*
X84356114Y-88007922D01*
X84357777Y-88003423D01*
X84363811Y-87955081D01*
X84364447Y-87948105D01*
X84383763Y-87909767D01*
X84411722Y-87875830D01*
X84513859Y-87875830D01*
X84530298Y-87890295D01*
X84540540Y-87886021D01*
X84566224Y-87850677D01*
X84567221Y-87842851D01*
X84550782Y-87828385D01*
X84540540Y-87832660D01*
X84514855Y-87868004D01*
X84513859Y-87875830D01*
X84411722Y-87875830D01*
X84427707Y-87856428D01*
X84436126Y-87847796D01*
X84461435Y-87819319D01*
X84980771Y-87819319D01*
X84982886Y-87843905D01*
X84992537Y-87846000D01*
X85019706Y-87826632D01*
X85020792Y-87819319D01*
X85011689Y-87793332D01*
X85009026Y-87792639D01*
X84986247Y-87811335D01*
X84980771Y-87819319D01*
X84461435Y-87819319D01*
X84486792Y-87790787D01*
X84519039Y-87743043D01*
X84520807Y-87739021D01*
X84537587Y-87712805D01*
X84560382Y-87733731D01*
X84563739Y-87738505D01*
X84580645Y-87761298D01*
X84594530Y-87764370D01*
X84612675Y-87739791D01*
X84642363Y-87679630D01*
X84667805Y-87625171D01*
X84717950Y-87462155D01*
X84727305Y-87340090D01*
X84726456Y-87325727D01*
X85234237Y-87325727D01*
X85247578Y-87339067D01*
X85260918Y-87325727D01*
X85247578Y-87312386D01*
X85234237Y-87325727D01*
X84726456Y-87325727D01*
X84724879Y-87299046D01*
X85340960Y-87299046D01*
X85354300Y-87312386D01*
X85367641Y-87299046D01*
X85354300Y-87285706D01*
X85340960Y-87299046D01*
X84724879Y-87299046D01*
X84718824Y-87196619D01*
X84692359Y-87099456D01*
X84646372Y-87044149D01*
X84621109Y-87032407D01*
X84582083Y-87005559D01*
X85260918Y-87005559D01*
X85274258Y-87018899D01*
X85287599Y-87005559D01*
X85274258Y-86992218D01*
X85260918Y-87005559D01*
X84582083Y-87005559D01*
X84574039Y-87000025D01*
X84519190Y-86938474D01*
X84495742Y-86904610D01*
X84454639Y-86848165D01*
X84559090Y-86848165D01*
X84560550Y-86867709D01*
X84566119Y-86906639D01*
X84567221Y-86938857D01*
X84577514Y-86984282D01*
X84612606Y-86985197D01*
X84643347Y-86968522D01*
X84665613Y-86939995D01*
X84659826Y-86921070D01*
X85269812Y-86921070D01*
X85273474Y-86936932D01*
X85287599Y-86938857D01*
X85309560Y-86929095D01*
X85305386Y-86921070D01*
X85273722Y-86917877D01*
X85269812Y-86921070D01*
X84659826Y-86921070D01*
X84651273Y-86893099D01*
X84648211Y-86887268D01*
X84617223Y-86853732D01*
X84581312Y-86839313D01*
X84559090Y-86848165D01*
X84454639Y-86848165D01*
X84423537Y-86805454D01*
X85234237Y-86805454D01*
X85254541Y-86831359D01*
X85260918Y-86832134D01*
X85286823Y-86811831D01*
X85287599Y-86805454D01*
X85267295Y-86779548D01*
X85260918Y-86778773D01*
X85235013Y-86799076D01*
X85234237Y-86805454D01*
X84423537Y-86805454D01*
X84421703Y-86802936D01*
X84349764Y-86732097D01*
X84288737Y-86700481D01*
X84280403Y-86699619D01*
X84249984Y-86681797D01*
X84251731Y-86672050D01*
X84380456Y-86672050D01*
X84390218Y-86694012D01*
X84398243Y-86689837D01*
X84401436Y-86658174D01*
X84398243Y-86654263D01*
X84382381Y-86657926D01*
X84380456Y-86672050D01*
X84251731Y-86672050D01*
X84256131Y-86647509D01*
X84272568Y-86632750D01*
X84289369Y-86599269D01*
X84258075Y-86552720D01*
X84242535Y-86541352D01*
X85081712Y-86541352D01*
X85087310Y-86568087D01*
X85089209Y-86573149D01*
X85110345Y-86605820D01*
X85122362Y-86606055D01*
X85119369Y-86577830D01*
X85104145Y-86558213D01*
X85081712Y-86541352D01*
X84242535Y-86541352D01*
X84181322Y-86496571D01*
X84159105Y-86483561D01*
X84106809Y-86456655D01*
X84054441Y-86438543D01*
X83989903Y-86427485D01*
X83901096Y-86421740D01*
X83775923Y-86419570D01*
X83712345Y-86419311D01*
X83564396Y-86420301D01*
X83459362Y-86424805D01*
X83386849Y-86434001D01*
X83336463Y-86449067D01*
X83306403Y-86465275D01*
X83243108Y-86498484D01*
X83193042Y-86511966D01*
X83113012Y-86532432D01*
X83014244Y-86587663D01*
X82906383Y-86668410D01*
X82799074Y-86765424D01*
X82701963Y-86869455D01*
X82624692Y-86971255D01*
X82576909Y-87061575D01*
X82566170Y-87113114D01*
X82547489Y-87155558D01*
X82523382Y-87181279D01*
X82494206Y-87229033D01*
X82492976Y-87308516D01*
X82494163Y-87317950D01*
X82497851Y-87388231D01*
X82482329Y-87417099D01*
X82471458Y-87419109D01*
X82437786Y-87443446D01*
X82419544Y-87511330D01*
X82417255Y-87615075D01*
X82431437Y-87746992D01*
X82444404Y-87818832D01*
X82462933Y-87921315D01*
X82473715Y-88003885D01*
X82475065Y-88052577D01*
X82473353Y-88058531D01*
X82477602Y-88091752D01*
X82487339Y-88100214D01*
X82517941Y-88136940D01*
X82541577Y-88185000D01*
X82565975Y-88229777D01*
X82593926Y-88228839D01*
X82603879Y-88221448D01*
X82628116Y-88172849D01*
X82627175Y-88131836D01*
X82626062Y-88105646D01*
X82646180Y-88121622D01*
X82680614Y-88167484D01*
X82729467Y-88260946D01*
X82734082Y-88332806D01*
X82743321Y-88414723D01*
X82798724Y-88518723D01*
X82893940Y-88638244D01*
X82935029Y-88677287D01*
X82970317Y-88677953D01*
X83011846Y-88653740D01*
X83057870Y-88626576D01*
X83072364Y-88636928D01*
X83068641Y-88688596D01*
X83071082Y-88737019D01*
X83095299Y-88780404D01*
X83148505Y-88824975D01*
X83237911Y-88876957D01*
X83353250Y-88934248D01*
X83459669Y-88982089D01*
X83543684Y-89010430D01*
X83629049Y-89026547D01*
X83670308Y-89031347D01*
X83734624Y-89051261D01*
X83771687Y-89082990D01*
X83806862Y-89114191D01*
X83854730Y-89127162D01*
X83896211Y-89121395D01*
X83912223Y-89096386D01*
X83909852Y-89086651D01*
X83916790Y-89057001D01*
X83956878Y-89047007D01*
X84013617Y-89056772D01*
X84069551Y-89085667D01*
X84126365Y-89109256D01*
X84174035Y-89099141D01*
X84193691Y-89059971D01*
X84215246Y-89021804D01*
X84235894Y-89009464D01*
X84294881Y-88994110D01*
X84318724Y-89003969D01*
X84313754Y-89019950D01*
X84323200Y-89039734D01*
X84365541Y-89046630D01*
X84416415Y-89036740D01*
X84433817Y-89017095D01*
X84453225Y-88999255D01*
X84473838Y-89002917D01*
X84508302Y-88999404D01*
X84513859Y-88982203D01*
X84538477Y-88947206D01*
X84604939Y-88922993D01*
X84702156Y-88913593D01*
X84702556Y-88913591D01*
X84743477Y-88904558D01*
X85859202Y-88904558D01*
X85880555Y-88933538D01*
X85902829Y-88939907D01*
X85927453Y-88922006D01*
X85927935Y-88917674D01*
X85910530Y-88879008D01*
X85874401Y-88873638D01*
X85870417Y-88875775D01*
X85859202Y-88904558D01*
X84743477Y-88904558D01*
X84774296Y-88897755D01*
X84870873Y-88856723D01*
X84976038Y-88799351D01*
X85073545Y-88734496D01*
X85082873Y-88726462D01*
X85914595Y-88726462D01*
X85916710Y-88751048D01*
X85926360Y-88753143D01*
X85953530Y-88733775D01*
X85954616Y-88726462D01*
X85945512Y-88700475D01*
X85942850Y-88699781D01*
X85920071Y-88718478D01*
X85914595Y-88726462D01*
X85082873Y-88726462D01*
X85129341Y-88686441D01*
X85981296Y-88686441D01*
X85994637Y-88699781D01*
X86007977Y-88686441D01*
X85994637Y-88673101D01*
X85981296Y-88686441D01*
X85129341Y-88686441D01*
X85146681Y-88671507D01*
X85199694Y-88621778D01*
X85240434Y-88594646D01*
X85247491Y-88592959D01*
X85277663Y-88572987D01*
X85287374Y-88563043D01*
X86013535Y-88563043D01*
X86016260Y-88586434D01*
X86027987Y-88583054D01*
X86055952Y-88557518D01*
X86058003Y-88553038D01*
X86050619Y-88533370D01*
X86026832Y-88542499D01*
X86013535Y-88563043D01*
X85287374Y-88563043D01*
X85327817Y-88521630D01*
X85387799Y-88451541D01*
X85447454Y-88375372D01*
X85469604Y-88344024D01*
X86091023Y-88344024D01*
X86111845Y-88352933D01*
X86141202Y-88331760D01*
X86150507Y-88314270D01*
X86149323Y-88287198D01*
X86126681Y-88290444D01*
X86093952Y-88316286D01*
X86091023Y-88344024D01*
X85469604Y-88344024D01*
X85496629Y-88305776D01*
X85525171Y-88255406D01*
X85528573Y-88242709D01*
X85544406Y-88193856D01*
X85568594Y-88154398D01*
X85602684Y-88100184D01*
X85595406Y-88076837D01*
X85544547Y-88078971D01*
X85538100Y-88080163D01*
X85489320Y-88084620D01*
X85479821Y-88062202D01*
X85488301Y-88029772D01*
X85521000Y-87929879D01*
X85544304Y-87874488D01*
X85562509Y-87856527D01*
X85579908Y-87868922D01*
X85583125Y-87873585D01*
X85614789Y-87890726D01*
X85652504Y-87854959D01*
X85676668Y-87805979D01*
X86408187Y-87805979D01*
X86421527Y-87819319D01*
X86434868Y-87805979D01*
X86421527Y-87792639D01*
X86408187Y-87805979D01*
X85676668Y-87805979D01*
X85696202Y-87766384D01*
X85738312Y-87648670D01*
X85774885Y-87501469D01*
X85777764Y-87428003D01*
X85883467Y-87428003D01*
X85887129Y-87443864D01*
X85901254Y-87445790D01*
X85923215Y-87436028D01*
X85919041Y-87428003D01*
X85887378Y-87424810D01*
X85883467Y-87428003D01*
X85777764Y-87428003D01*
X85779322Y-87388234D01*
X85751551Y-87312926D01*
X85744633Y-87305178D01*
X85716317Y-87260967D01*
X85730843Y-87235188D01*
X85749734Y-87232344D01*
X85770411Y-87208635D01*
X85784330Y-87148662D01*
X85790957Y-87069159D01*
X85790808Y-87058920D01*
X86488229Y-87058920D01*
X86501569Y-87072260D01*
X86514910Y-87058920D01*
X86501569Y-87045580D01*
X86488229Y-87058920D01*
X85790808Y-87058920D01*
X85789759Y-86986861D01*
X85780203Y-86918500D01*
X85761755Y-86880810D01*
X85760961Y-86880264D01*
X85743603Y-86856132D01*
X85767851Y-86832543D01*
X85789624Y-86810658D01*
X85774521Y-86805862D01*
X85745189Y-86783885D01*
X85741170Y-86764320D01*
X85730368Y-86720589D01*
X85702027Y-86645209D01*
X85662243Y-86554373D01*
X85661584Y-86552963D01*
X85614513Y-86444197D01*
X85572538Y-86333407D01*
X85548696Y-86258227D01*
X85519584Y-86179209D01*
X85484080Y-86121998D01*
X85468198Y-86108457D01*
X85429047Y-86072499D01*
X85424145Y-86058395D01*
X86194742Y-86058395D01*
X86203845Y-86084382D01*
X86206507Y-86085076D01*
X86229286Y-86066379D01*
X86234763Y-86058395D01*
X86232647Y-86033809D01*
X86222997Y-86031714D01*
X86195827Y-86051082D01*
X86194742Y-86058395D01*
X85424145Y-86058395D01*
X85421002Y-86049350D01*
X85400623Y-86003735D01*
X85386044Y-85987246D01*
X86176954Y-85987246D01*
X86180617Y-86003108D01*
X86194742Y-86005034D01*
X86216703Y-85995272D01*
X86212529Y-85987246D01*
X86180865Y-85984053D01*
X86176954Y-85987246D01*
X85386044Y-85987246D01*
X85350413Y-85946947D01*
X85286759Y-85893240D01*
X85226051Y-85856864D01*
X85191396Y-85849672D01*
X85151249Y-85840978D01*
X85138165Y-85795715D01*
X85112526Y-85725939D01*
X85055286Y-85657351D01*
X85043012Y-85649018D01*
X85857850Y-85649018D01*
X85892377Y-85680961D01*
X85916169Y-85684865D01*
X85950566Y-85704677D01*
X85954616Y-85720588D01*
X85969251Y-85756665D01*
X86005439Y-85811105D01*
X86051600Y-85869642D01*
X86096155Y-85918010D01*
X86127526Y-85941941D01*
X86133846Y-85941420D01*
X86127433Y-85914508D01*
X86098571Y-85858130D01*
X86073253Y-85816011D01*
X85999092Y-85707456D01*
X85936159Y-85632834D01*
X85888961Y-85596731D01*
X85862976Y-85602004D01*
X85857850Y-85649018D01*
X85043012Y-85649018D01*
X84984917Y-85609577D01*
X84954090Y-85600132D01*
X84914465Y-85604537D01*
X84906656Y-85644834D01*
X84907483Y-85653766D01*
X84905571Y-85697718D01*
X84894143Y-85706655D01*
X84859709Y-85692726D01*
X84792239Y-85666770D01*
X84733975Y-85644780D01*
X84642216Y-85606427D01*
X84600838Y-85578061D01*
X84608226Y-85557665D01*
X84653933Y-85544679D01*
X84669447Y-85530616D01*
X84644479Y-85505286D01*
X84589455Y-85473411D01*
X84585045Y-85471420D01*
X85754510Y-85471420D01*
X85760559Y-85494261D01*
X85779617Y-85498101D01*
X85816121Y-85484171D01*
X85821212Y-85471420D01*
X85802063Y-85445503D01*
X85796106Y-85444739D01*
X85759971Y-85464134D01*
X85754510Y-85471420D01*
X84585045Y-85471420D01*
X84514805Y-85439707D01*
X84492196Y-85431399D01*
X85634447Y-85431399D01*
X85647788Y-85444739D01*
X85661128Y-85431399D01*
X85647788Y-85418059D01*
X85634447Y-85431399D01*
X84492196Y-85431399D01*
X84430956Y-85408895D01*
X84348337Y-85385694D01*
X84278732Y-85374894D01*
X84197537Y-85363412D01*
X84161325Y-85351357D01*
X85581086Y-85351357D01*
X85594426Y-85364697D01*
X85607767Y-85351357D01*
X85594426Y-85338017D01*
X85581086Y-85351357D01*
X84161325Y-85351357D01*
X84135240Y-85342673D01*
X84123601Y-85335204D01*
X84070823Y-85314341D01*
X83979208Y-85299729D01*
X83862993Y-85292094D01*
X83736415Y-85292163D01*
X83613712Y-85300660D01*
X83567234Y-85306842D01*
X83453912Y-85315511D01*
X83382233Y-85296952D01*
X83373165Y-85284655D01*
X85487704Y-85284655D01*
X85489819Y-85309241D01*
X85499469Y-85311336D01*
X85526639Y-85291968D01*
X85527725Y-85284655D01*
X85518622Y-85258668D01*
X85515959Y-85257975D01*
X85493180Y-85276671D01*
X85487704Y-85284655D01*
X83373165Y-85284655D01*
X83346384Y-85248337D01*
X83339501Y-85196037D01*
X83325270Y-85132219D01*
X85265219Y-85132219D01*
X85271711Y-85147130D01*
X85298575Y-85175773D01*
X85314020Y-85169897D01*
X85314279Y-85166167D01*
X85295329Y-85143600D01*
X85283476Y-85135364D01*
X85265219Y-85132219D01*
X83325270Y-85132219D01*
X83321498Y-85115302D01*
X83316642Y-85111231D01*
X84807347Y-85111231D01*
X84820687Y-85124571D01*
X84834027Y-85111231D01*
X84820687Y-85097891D01*
X84807347Y-85111231D01*
X83316642Y-85111231D01*
X83265336Y-85068217D01*
X83256131Y-85064557D01*
X83208594Y-85027289D01*
X83169542Y-84964880D01*
X83147980Y-84897574D01*
X83151973Y-84855469D01*
X83777729Y-84855469D01*
X83815009Y-84851381D01*
X83876484Y-84855709D01*
X83903497Y-84875074D01*
X83946055Y-84901491D01*
X83969229Y-84900586D01*
X84012502Y-84907472D01*
X84034923Y-84926052D01*
X84075965Y-84961099D01*
X84097845Y-84952418D01*
X84095182Y-84912972D01*
X84070834Y-84868328D01*
X84018593Y-84838906D01*
X83927224Y-84819189D01*
X83895578Y-84814960D01*
X83820046Y-84814705D01*
X83778597Y-84833632D01*
X83778014Y-84834526D01*
X83777729Y-84855469D01*
X83151973Y-84855469D01*
X83152908Y-84845615D01*
X83156463Y-84840427D01*
X83170564Y-84811280D01*
X83143071Y-84804403D01*
X83104312Y-84792761D01*
X83111963Y-84761451D01*
X83138332Y-84737702D01*
X83686758Y-84737702D01*
X83700099Y-84751042D01*
X83713439Y-84737702D01*
X83700099Y-84724361D01*
X83686758Y-84737702D01*
X83138332Y-84737702D01*
X83153145Y-84724361D01*
X83199263Y-84680590D01*
X83198419Y-84671000D01*
X83926884Y-84671000D01*
X83936646Y-84692961D01*
X83944672Y-84688787D01*
X83947865Y-84657123D01*
X83944672Y-84653213D01*
X83928810Y-84656875D01*
X83926884Y-84671000D01*
X83198419Y-84671000D01*
X83196824Y-84652883D01*
X83153145Y-84644319D01*
X83142226Y-84642830D01*
X83991998Y-84642830D01*
X83998758Y-84653938D01*
X84037488Y-84670169D01*
X84059513Y-84641612D01*
X84060288Y-84630979D01*
X84046716Y-84595461D01*
X84035182Y-84590958D01*
X84000342Y-84608611D01*
X83991998Y-84642830D01*
X83142226Y-84642830D01*
X83109676Y-84638391D01*
X83104349Y-84612061D01*
X83126259Y-84564660D01*
X83180398Y-84514806D01*
X83190019Y-84510916D01*
X83633397Y-84510916D01*
X83655114Y-84534331D01*
X83674993Y-84537597D01*
X83702609Y-84524662D01*
X83700099Y-84510916D01*
X83665989Y-84485253D01*
X83658503Y-84484235D01*
X83634116Y-84504586D01*
X83633397Y-84510916D01*
X83190019Y-84510916D01*
X83280199Y-84474454D01*
X83418551Y-84445214D01*
X83588343Y-84428696D01*
X83740120Y-84425701D01*
X83856590Y-84426806D01*
G37*
D12*
%TO.C,C6*%
X114989474Y-95364634D02*
X114836971Y-95212131D01*
X115498591Y-94855517D02*
X115346088Y-94703014D01*
%TO.C,L1*%
X86835328Y-78743165D02*
X86835328Y-81943165D01*
X86835328Y-78743165D02*
X86985328Y-78743165D01*
X86835328Y-81943165D02*
X86985328Y-81943165D01*
X89885328Y-78743165D02*
X90035328Y-78743165D01*
X90035328Y-78743165D02*
X90035328Y-81943165D01*
X90035328Y-81943165D02*
X89885328Y-81943165D01*
%TO.C,Y1*%
X120252774Y-104644301D02*
X122586227Y-106977754D01*
X122232673Y-102664402D02*
X120252774Y-104644301D01*
%TO.C,C18*%
X91240328Y-80604418D02*
X91240328Y-80081912D01*
X92710328Y-80604418D02*
X92710328Y-80081912D01*
%TO.C,C34*%
X115998166Y-92225664D02*
X115782494Y-92225664D01*
X115998166Y-92945664D02*
X115782494Y-92945664D01*
%TO.C,R5*%
X123916859Y-104047139D02*
X123699578Y-103829858D01*
X124454260Y-103509738D02*
X124236979Y-103292457D01*
%TO.C,C33*%
X94992494Y-84905664D02*
X95208166Y-84905664D01*
X94992494Y-85625664D02*
X95208166Y-85625664D01*
%TO.C,C20*%
X106427722Y-78421500D02*
X106427722Y-78205828D01*
X107147722Y-78421500D02*
X107147722Y-78205828D01*
%TO.C,C22*%
X115957830Y-70946164D02*
X116745330Y-70946164D01*
X116351580Y-70552414D02*
X116351580Y-71339914D01*
X116985330Y-70448101D02*
X116985330Y-71733664D01*
X116985330Y-70448101D02*
X118049767Y-69383664D01*
X116985330Y-75139227D02*
X116985330Y-73853664D01*
X116985330Y-75139227D02*
X118049767Y-76203664D01*
X118049767Y-69383664D02*
X123805330Y-69383664D01*
X118049767Y-76203664D02*
X123805330Y-76203664D01*
X123805330Y-69383664D02*
X123805330Y-71733664D01*
X123805330Y-76203664D02*
X123805330Y-73853664D01*
%TO.C,C13*%
X115696580Y-94657528D02*
X115544077Y-94505025D01*
X116205697Y-94148411D02*
X116053194Y-93995908D01*
%TO.C,C16*%
X85070329Y-77564410D02*
X85070329Y-78086916D01*
X86540329Y-77564410D02*
X86540329Y-78086916D01*
%TO.C,R18*%
X102547689Y-83425664D02*
X102854971Y-83425664D01*
X102547689Y-84185664D02*
X102854971Y-84185664D01*
%TO.C,U1*%
X113242030Y-99274045D02*
X112994543Y-99521532D01*
X113242030Y-100193283D02*
X112952117Y-99903370D01*
X117428103Y-95087972D02*
X117887722Y-94628353D01*
X117887722Y-94628353D02*
X118347341Y-95087972D01*
X117887722Y-104838975D02*
X117428103Y-104379356D01*
X118347341Y-104379356D02*
X117887722Y-104838975D01*
X122533414Y-100193283D02*
X122993033Y-99733664D01*
X122993033Y-99733664D02*
X122533414Y-99274045D01*
X112782411Y-99733664D02*
X112379360Y-99670024D01*
X112718771Y-99330613D01*
X112782411Y-99733664D01*
G36*
X112782411Y-99733664D02*
G01*
X112379360Y-99670024D01*
X112718771Y-99330613D01*
X112782411Y-99733664D01*
G37*
%TO.C,R12*%
X91781686Y-75545665D02*
X92088968Y-75545665D01*
X91781686Y-76305665D02*
X92088968Y-76305665D01*
%TO.C,J5*%
X101220330Y-84697964D02*
X108590330Y-84697964D01*
X101220330Y-93827964D02*
X101220330Y-84697964D01*
X102220330Y-94827964D02*
X101220330Y-93827964D01*
X107590330Y-94827964D02*
X102220330Y-94827964D01*
X108590330Y-84697964D02*
X108590330Y-93827964D01*
X108590330Y-93827964D02*
X107590330Y-94827964D01*
%TO.C,U5*%
X86706908Y-84503164D02*
X86706908Y-82503164D01*
X88926908Y-84503164D02*
X88926908Y-82503164D01*
X86806908Y-85023164D02*
X86526908Y-84743164D01*
X86806908Y-84743164D01*
X86806908Y-85023164D01*
G36*
X86806908Y-85023164D02*
G01*
X86526908Y-84743164D01*
X86806908Y-84743164D01*
X86806908Y-85023164D01*
G37*
%TO.C,C35*%
X83965329Y-77247828D02*
X83965329Y-77463500D01*
X84685329Y-77247828D02*
X84685329Y-77463500D01*
%TO.C,J8*%
X96059330Y-72499664D02*
X96059330Y-73449664D01*
X96059330Y-73449664D02*
X97009330Y-73449664D01*
X102659330Y-69529664D02*
X96429330Y-69529664D01*
X103029330Y-72499664D02*
X103029330Y-73449664D01*
X103029330Y-73449664D02*
X102079330Y-73449664D01*
%TO.C,C12*%
X114282368Y-96071740D02*
X114129865Y-95919237D01*
X114791485Y-95562623D02*
X114638982Y-95410120D01*
%TO.C,R16*%
X108152286Y-71648664D02*
X107698158Y-71648664D01*
X108152286Y-73118664D02*
X107698158Y-73118664D01*
D15*
%TO.C,G3*%
X105603143Y-77185685D02*
X105603143Y-79705842D01*
X103420330Y-80965920D01*
X101426236Y-79814784D01*
X102191407Y-79814784D01*
X102849624Y-79814784D01*
X103404852Y-79814784D01*
X104063268Y-79814784D01*
X104963777Y-78444772D01*
X104305362Y-78444772D01*
X103404852Y-79814784D01*
X102849624Y-79814784D01*
X104651039Y-77074362D01*
X103992624Y-77074362D01*
X102191407Y-79814784D01*
X101426236Y-79814784D01*
X101237518Y-79705842D01*
X101237518Y-78446056D01*
X101878867Y-78446056D01*
X102537085Y-78446358D01*
X103437793Y-77076346D01*
X102779377Y-77076346D01*
X101878867Y-78446056D01*
X101237518Y-78446056D01*
X101237518Y-78445763D01*
X101237518Y-77185685D01*
X103420330Y-75925409D01*
X105603143Y-77185685D01*
G36*
X105603143Y-77185685D02*
G01*
X105603143Y-79705842D01*
X103420330Y-80965920D01*
X101426236Y-79814784D01*
X102191407Y-79814784D01*
X102849624Y-79814784D01*
X103404852Y-79814784D01*
X104063268Y-79814784D01*
X104963777Y-78444772D01*
X104305362Y-78444772D01*
X103404852Y-79814784D01*
X102849624Y-79814784D01*
X104651039Y-77074362D01*
X103992624Y-77074362D01*
X102191407Y-79814784D01*
X101426236Y-79814784D01*
X101237518Y-79705842D01*
X101237518Y-78446056D01*
X101878867Y-78446056D01*
X102537085Y-78446358D01*
X103437793Y-77076346D01*
X102779377Y-77076346D01*
X101878867Y-78446056D01*
X101237518Y-78446056D01*
X101237518Y-78445763D01*
X101237518Y-77185685D01*
X103420330Y-75925409D01*
X105603143Y-77185685D01*
G37*
D14*
%TO.C,G1*%
G36*
X76728655Y-70915000D02*
G01*
X76765673Y-70939863D01*
X76794778Y-70973806D01*
X76810106Y-71007070D01*
X76814748Y-71048535D01*
X76805162Y-71086932D01*
X76783886Y-71119449D01*
X76753459Y-71143274D01*
X76716419Y-71155595D01*
X76677402Y-71154079D01*
X76628166Y-71135882D01*
X76590379Y-71106026D01*
X76565379Y-71065810D01*
X76557092Y-71037353D01*
X76557641Y-70997579D01*
X76572244Y-70959723D01*
X76598054Y-70928075D01*
X76632220Y-70906924D01*
X76646611Y-70902573D01*
X76687657Y-70901733D01*
X76728655Y-70915000D01*
G37*
G36*
X77162357Y-70413789D02*
G01*
X77174218Y-70419844D01*
X77205077Y-70448023D01*
X77226023Y-70486353D01*
X77235967Y-70530373D01*
X77233821Y-70575623D01*
X77221231Y-70612603D01*
X77194768Y-70647286D01*
X77159482Y-70668833D01*
X77118507Y-70676289D01*
X77074974Y-70668702D01*
X77058971Y-70661953D01*
X77027072Y-70637609D01*
X77004940Y-70603335D01*
X76992763Y-70562985D01*
X76990728Y-70520408D01*
X76999025Y-70479455D01*
X77017842Y-70443977D01*
X77047043Y-70418013D01*
X77082757Y-70405722D01*
X77123771Y-70404351D01*
X77162357Y-70413789D01*
G37*
G36*
X77867789Y-70498312D02*
G01*
X77898601Y-70516198D01*
X77921883Y-70543703D01*
X77934716Y-70580411D01*
X77936306Y-70600806D01*
X77930184Y-70651915D01*
X77911233Y-70692792D01*
X77881375Y-70723300D01*
X77843466Y-70743187D01*
X77800923Y-70751135D01*
X77759759Y-70746433D01*
X77742742Y-70739724D01*
X77715450Y-70716818D01*
X77697265Y-70683135D01*
X77689165Y-70642907D01*
X77692127Y-70600365D01*
X77703039Y-70567673D01*
X77727677Y-70531245D01*
X77759392Y-70506510D01*
X77795264Y-70493053D01*
X77832370Y-70490458D01*
X77867789Y-70498312D01*
G37*
G36*
X78202147Y-70996070D02*
G01*
X78242410Y-71008467D01*
X78244365Y-71009487D01*
X78269109Y-71031620D01*
X78285958Y-71064273D01*
X78293864Y-71102329D01*
X78291776Y-71140669D01*
X78278644Y-71174176D01*
X78278268Y-71174754D01*
X78245718Y-71211025D01*
X78205784Y-71235081D01*
X78162040Y-71245680D01*
X78118063Y-71241582D01*
X78102014Y-71235905D01*
X78066692Y-71212107D01*
X78043494Y-71178771D01*
X78033916Y-71139577D01*
X78039453Y-71098205D01*
X78042628Y-71089699D01*
X78061855Y-71053111D01*
X78086734Y-71027074D01*
X78119198Y-71007199D01*
X78158528Y-70995601D01*
X78202147Y-70996070D01*
G37*
G36*
X77689667Y-71910826D02*
G01*
X77714062Y-71926297D01*
X77732367Y-71949974D01*
X77739985Y-71977569D01*
X77740003Y-71978921D01*
X77734710Y-72007465D01*
X77717698Y-72029932D01*
X77687264Y-72047717D01*
X77641707Y-72062212D01*
X77636837Y-72063395D01*
X77593334Y-72070984D01*
X77537503Y-72076632D01*
X77473983Y-72080241D01*
X77407416Y-72081715D01*
X77342443Y-72080956D01*
X77283706Y-72077868D01*
X77235845Y-72072353D01*
X77232851Y-72071844D01*
X77185298Y-72061455D01*
X77152426Y-72048669D01*
X77131860Y-72031827D01*
X77121226Y-72009268D01*
X77118599Y-71991956D01*
X77119237Y-71965190D01*
X77128155Y-71945737D01*
X77138482Y-71934131D01*
X77148469Y-71924573D01*
X77157939Y-71918471D01*
X77170099Y-71915743D01*
X77188154Y-71916306D01*
X77215309Y-71920076D01*
X77254772Y-71926971D01*
X77274848Y-71930609D01*
X77319629Y-71935941D01*
X77375334Y-71938449D01*
X77436070Y-71938232D01*
X77495943Y-71935386D01*
X77549060Y-71930008D01*
X77574954Y-71925664D01*
X77609802Y-71918573D01*
X77640670Y-71912376D01*
X77661675Y-71908251D01*
X77663784Y-71907851D01*
X77689667Y-71910826D01*
G37*
G36*
X77497141Y-70923250D02*
G01*
X77561087Y-70950986D01*
X77563022Y-70952119D01*
X77591920Y-70971995D01*
X77628404Y-71001203D01*
X77669141Y-71036628D01*
X77710800Y-71075159D01*
X77750047Y-71113682D01*
X77783549Y-71149085D01*
X77807975Y-71178255D01*
X77813595Y-71186163D01*
X77840696Y-71239947D01*
X77851301Y-71295593D01*
X77845546Y-71354511D01*
X77833673Y-71393704D01*
X77802918Y-71452868D01*
X77759484Y-71500981D01*
X77704337Y-71537250D01*
X77638440Y-71560881D01*
X77627305Y-71563366D01*
X77602923Y-71567533D01*
X77580175Y-71568763D01*
X77554202Y-71566749D01*
X77520146Y-71561189D01*
X77486478Y-71554528D01*
X77443972Y-71546192D01*
X77412717Y-71541474D01*
X77387343Y-71540104D01*
X77362480Y-71541817D01*
X77332756Y-71546345D01*
X77330325Y-71546766D01*
X77280099Y-71555357D01*
X77243128Y-71561164D01*
X77215878Y-71564490D01*
X77194815Y-71565640D01*
X77176406Y-71564915D01*
X77157117Y-71562619D01*
X77152826Y-71561996D01*
X77115187Y-71554367D01*
X77083921Y-71542132D01*
X77053066Y-71522304D01*
X77021476Y-71496160D01*
X76980377Y-71450680D01*
X76950022Y-71397833D01*
X76932575Y-71342073D01*
X76929183Y-71306325D01*
X76931922Y-71267821D01*
X76941086Y-71232003D01*
X76958097Y-71196745D01*
X76984374Y-71159920D01*
X77021339Y-71119404D01*
X77070412Y-71073070D01*
X77105896Y-71041905D01*
X77147133Y-71006695D01*
X77178845Y-70980774D01*
X77204235Y-70962053D01*
X77226504Y-70948443D01*
X77248853Y-70937857D01*
X77274485Y-70928206D01*
X77286478Y-70924104D01*
X77355340Y-70909353D01*
X77427059Y-70909221D01*
X77497141Y-70923250D01*
G37*
G36*
X77540201Y-69084503D02*
G01*
X77720945Y-69102012D01*
X77896595Y-69135250D01*
X78068558Y-69184517D01*
X78238246Y-69250116D01*
X78325940Y-69290727D01*
X78489222Y-69379928D01*
X78642541Y-69482557D01*
X78785266Y-69597748D01*
X78916763Y-69724635D01*
X79036402Y-69862352D01*
X79143549Y-70010032D01*
X79237573Y-70166810D01*
X79317841Y-70331819D01*
X79383721Y-70504193D01*
X79434582Y-70683066D01*
X79467990Y-70855429D01*
X79473078Y-70896259D01*
X79477999Y-70948564D01*
X79482310Y-71006750D01*
X79485569Y-71065223D01*
X79486574Y-71090140D01*
X79484542Y-71274327D01*
X79465940Y-71456583D01*
X79431246Y-71635817D01*
X79380941Y-71810940D01*
X79315502Y-71980859D01*
X79235410Y-72144487D01*
X79141142Y-72300731D01*
X79033178Y-72448503D01*
X78911996Y-72586711D01*
X78778077Y-72714265D01*
X78769972Y-72721275D01*
X78621666Y-72837779D01*
X78464678Y-72939666D01*
X78299491Y-73026722D01*
X78126586Y-73098735D01*
X77946442Y-73155490D01*
X77759542Y-73196773D01*
X77667456Y-73211047D01*
X77631474Y-73214714D01*
X77583128Y-73218017D01*
X77526770Y-73220817D01*
X77466754Y-73222979D01*
X77407432Y-73224367D01*
X77353157Y-73224844D01*
X77308281Y-73224274D01*
X77283383Y-73223076D01*
X77102256Y-73202548D01*
X76930096Y-73168849D01*
X76764190Y-73121251D01*
X76601822Y-73059028D01*
X76506703Y-73015219D01*
X76341883Y-72925399D01*
X76187291Y-72822431D01*
X76043566Y-72707129D01*
X75911350Y-72580307D01*
X75791283Y-72442781D01*
X75684005Y-72295365D01*
X75590157Y-72138874D01*
X75510380Y-71974122D01*
X75445314Y-71801925D01*
X75395599Y-71623096D01*
X75389065Y-71593702D01*
X75375040Y-71525571D01*
X75364340Y-71465769D01*
X75356551Y-71409998D01*
X75351256Y-71353959D01*
X75348041Y-71293354D01*
X75346490Y-71223885D01*
X75346173Y-71149885D01*
X75346656Y-71102943D01*
X75497912Y-71102943D01*
X75500920Y-71283580D01*
X75520508Y-71460948D01*
X75556373Y-71634282D01*
X75608208Y-71802814D01*
X75675710Y-71965777D01*
X75758573Y-72122405D01*
X75856493Y-72271931D01*
X75969165Y-72413587D01*
X76056085Y-72507084D01*
X76091514Y-72541420D01*
X76132380Y-72578633D01*
X76176523Y-72617002D01*
X76221785Y-72654805D01*
X76266005Y-72690321D01*
X76307025Y-72721828D01*
X76342685Y-72747603D01*
X76370825Y-72765926D01*
X76389287Y-72775076D01*
X76393114Y-72775792D01*
X76398528Y-72768362D01*
X76403521Y-72750254D01*
X76403911Y-72748054D01*
X76405747Y-72731599D01*
X76408418Y-72699785D01*
X76411816Y-72654295D01*
X76415836Y-72596812D01*
X76420368Y-72529021D01*
X76425306Y-72452605D01*
X76430542Y-72369249D01*
X76435969Y-72280635D01*
X76441480Y-72188448D01*
X76446966Y-72094371D01*
X76452320Y-72000089D01*
X76456767Y-71919604D01*
X76470626Y-71665129D01*
X76379671Y-71579467D01*
X76322278Y-71523504D01*
X76275969Y-71473559D01*
X76237789Y-71425943D01*
X76204780Y-71376969D01*
X76173986Y-71322946D01*
X76173834Y-71322660D01*
X76134354Y-71233565D01*
X76107941Y-71141180D01*
X76095214Y-71048839D01*
X76095892Y-71010644D01*
X76221190Y-71010644D01*
X76226442Y-71092072D01*
X76247129Y-71175624D01*
X76283284Y-71260200D01*
X76334939Y-71344702D01*
X76335992Y-71346189D01*
X76359861Y-71376274D01*
X76392652Y-71412851D01*
X76430793Y-71452387D01*
X76470709Y-71491346D01*
X76508827Y-71526194D01*
X76541575Y-71553396D01*
X76556020Y-71563830D01*
X76576916Y-71581025D01*
X76590878Y-71598675D01*
X76593116Y-71604055D01*
X76593823Y-71617085D01*
X76593523Y-71645442D01*
X76592308Y-71687418D01*
X76590276Y-71741305D01*
X76587522Y-71805395D01*
X76584139Y-71877982D01*
X76580225Y-71957357D01*
X76575874Y-72041812D01*
X76571181Y-72129640D01*
X76566243Y-72219134D01*
X76561153Y-72308585D01*
X76556007Y-72396286D01*
X76550902Y-72480530D01*
X76545931Y-72559608D01*
X76541190Y-72631813D01*
X76536775Y-72695438D01*
X76532781Y-72748774D01*
X76529302Y-72790115D01*
X76526435Y-72817752D01*
X76524807Y-72828191D01*
X76523827Y-72839433D01*
X76528065Y-72849424D01*
X76539755Y-72859779D01*
X76561126Y-72872116D01*
X76594411Y-72888052D01*
X76628436Y-72903295D01*
X76782042Y-72963862D01*
X76938024Y-73011189D01*
X77092927Y-73044323D01*
X77185231Y-73057138D01*
X77224504Y-73061445D01*
X77260763Y-73065473D01*
X77288291Y-73068583D01*
X77296185Y-73069500D01*
X77324415Y-73071170D01*
X77365791Y-73071475D01*
X77416456Y-73070576D01*
X77472555Y-73068637D01*
X77530233Y-73065820D01*
X77585633Y-73062288D01*
X77634899Y-73058204D01*
X77674176Y-73053730D01*
X77675991Y-73053473D01*
X77777482Y-73036951D01*
X77868301Y-73017768D01*
X77954797Y-72994567D01*
X77961911Y-72992440D01*
X78005757Y-72978476D01*
X78052303Y-72962385D01*
X78098430Y-72945389D01*
X78141023Y-72928713D01*
X78176963Y-72913579D01*
X78203135Y-72901211D01*
X78216421Y-72892831D01*
X78216796Y-72892416D01*
X78219487Y-72881498D01*
X78220115Y-72857110D01*
X78218649Y-72818387D01*
X78215056Y-72764465D01*
X78209303Y-72694481D01*
X78209290Y-72694331D01*
X78199397Y-72578635D01*
X78190062Y-72464533D01*
X78181405Y-72353761D01*
X78173542Y-72248050D01*
X78166594Y-72149133D01*
X78160677Y-72058743D01*
X78155909Y-71978613D01*
X78152411Y-71910475D01*
X78150298Y-71856063D01*
X78149680Y-71820711D01*
X78149680Y-71710082D01*
X78220093Y-71647876D01*
X78303498Y-71571872D01*
X78373217Y-71502966D01*
X78430330Y-71439685D01*
X78475913Y-71380556D01*
X78511043Y-71324104D01*
X78536798Y-71268858D01*
X78554255Y-71213342D01*
X78560750Y-71181926D01*
X78565464Y-71107249D01*
X78554246Y-71035969D01*
X78528115Y-70969460D01*
X78488089Y-70909094D01*
X78435187Y-70856244D01*
X78370426Y-70812283D01*
X78294824Y-70778585D01*
X78252099Y-70765711D01*
X78222098Y-70757149D01*
X78198104Y-70748728D01*
X78185954Y-70742667D01*
X78180792Y-70731306D01*
X78177368Y-70706397D01*
X78175557Y-70666649D01*
X78175184Y-70630342D01*
X78172052Y-70549360D01*
X78162250Y-70481826D01*
X78144907Y-70425132D01*
X78119151Y-70376672D01*
X78084113Y-70333839D01*
X78072280Y-70322273D01*
X78013311Y-70277470D01*
X77947822Y-70245965D01*
X77878777Y-70228556D01*
X77809137Y-70226042D01*
X77752359Y-70236022D01*
X77703891Y-70255202D01*
X77651263Y-70285167D01*
X77599736Y-70322469D01*
X77554570Y-70363657D01*
X77549508Y-70369043D01*
X77520029Y-70397044D01*
X77494801Y-70410672D01*
X77471812Y-70409484D01*
X77449047Y-70393035D01*
X77424493Y-70360881D01*
X77410713Y-70338429D01*
X77365974Y-70276239D01*
X77312109Y-70225285D01*
X77251383Y-70186760D01*
X77186060Y-70161860D01*
X77118404Y-70151780D01*
X77063608Y-70155271D01*
X76996491Y-70171883D01*
X76932823Y-70198145D01*
X76876789Y-70231878D01*
X76832575Y-70270902D01*
X76825381Y-70279320D01*
X76792653Y-70325798D01*
X76770165Y-70373328D01*
X76756557Y-70426278D01*
X76750468Y-70489019D01*
X76749818Y-70521982D01*
X76749138Y-70558307D01*
X76747421Y-70588473D01*
X76744966Y-70608199D01*
X76743417Y-70613039D01*
X76725657Y-70629511D01*
X76698899Y-70636955D01*
X76660531Y-70635898D01*
X76642679Y-70633427D01*
X76568842Y-70629938D01*
X76497334Y-70643226D01*
X76428790Y-70673082D01*
X76363848Y-70719296D01*
X76353899Y-70728136D01*
X76297727Y-70790085D01*
X76256864Y-70858551D01*
X76231341Y-70932437D01*
X76221190Y-71010644D01*
X76095892Y-71010644D01*
X76096794Y-70959876D01*
X76100836Y-70930188D01*
X76105962Y-70897923D01*
X76107279Y-70875992D01*
X76103870Y-70857904D01*
X76094815Y-70837168D01*
X76084987Y-70818289D01*
X76065529Y-70769244D01*
X76059834Y-70724644D01*
X76066688Y-70686336D01*
X76084877Y-70656167D01*
X76113189Y-70635983D01*
X76150409Y-70627631D01*
X76195324Y-70632956D01*
X76204940Y-70635767D01*
X76247944Y-70649519D01*
X76294519Y-70611583D01*
X76367083Y-70561727D01*
X76442940Y-70527207D01*
X76520414Y-70508674D01*
X76567997Y-70505496D01*
X76621925Y-70505496D01*
X76622051Y-70473490D01*
X76625985Y-70432382D01*
X76636353Y-70383120D01*
X76651413Y-70332535D01*
X76669424Y-70287460D01*
X76669525Y-70287246D01*
X76694297Y-70245499D01*
X76729026Y-70200819D01*
X76768866Y-70158775D01*
X76808973Y-70124935D01*
X76813633Y-70121649D01*
X76832577Y-70107562D01*
X76844155Y-70094157D01*
X76851250Y-70076031D01*
X76856746Y-70047781D01*
X76858287Y-70037995D01*
X76869065Y-69989012D01*
X76884871Y-69953811D01*
X76907313Y-69929448D01*
X76922952Y-69919661D01*
X76956863Y-69911165D01*
X76993328Y-69917752D01*
X77029855Y-69938200D01*
X77063950Y-69971286D01*
X77083181Y-69998264D01*
X77096102Y-70016323D01*
X77109861Y-70024895D01*
X77131369Y-70027435D01*
X77141703Y-70027539D01*
X77208788Y-70035533D01*
X77278053Y-70058691D01*
X77346937Y-70095782D01*
X77412874Y-70145574D01*
X77440020Y-70170916D01*
X77468309Y-70198729D01*
X77487427Y-70216071D01*
X77500176Y-70224633D01*
X77509361Y-70226108D01*
X77517786Y-70222187D01*
X77521102Y-70219833D01*
X77597902Y-70168310D01*
X77668192Y-70131479D01*
X77687116Y-70123613D01*
X77717099Y-70112935D01*
X77744413Y-70106271D01*
X77774850Y-70102744D01*
X77814200Y-70101478D01*
X77833887Y-70101409D01*
X77873569Y-70102268D01*
X77908778Y-70104502D01*
X77934789Y-70107733D01*
X77944674Y-70110249D01*
X77958757Y-70113733D01*
X77973893Y-70110626D01*
X77994925Y-70099380D01*
X78010898Y-70089073D01*
X78055001Y-70065455D01*
X78097688Y-70055149D01*
X78098337Y-70055086D01*
X78125016Y-70053672D01*
X78142852Y-70057839D01*
X78159856Y-70070462D01*
X78170805Y-70081098D01*
X78188569Y-70100732D01*
X78197533Y-70118375D01*
X78200627Y-70141559D01*
X78200890Y-70158422D01*
X78199475Y-70189101D01*
X78195857Y-70215720D01*
X78193029Y-70226337D01*
X78190395Y-70240050D01*
X78194269Y-70255805D01*
X78206207Y-70277895D01*
X78218777Y-70297306D01*
X78255396Y-70365632D01*
X78282182Y-70444969D01*
X78298016Y-70531648D01*
X78300986Y-70566752D01*
X78303401Y-70604856D01*
X78306027Y-70629281D01*
X78309866Y-70643401D01*
X78315918Y-70650589D01*
X78325184Y-70654218D01*
X78327076Y-70654705D01*
X78361257Y-70666424D01*
X78402767Y-70685183D01*
X78445279Y-70707779D01*
X78482470Y-70731006D01*
X78493491Y-70739023D01*
X78534312Y-70770394D01*
X78580517Y-70756962D01*
X78618451Y-70749139D01*
X78650973Y-70748301D01*
X78656215Y-70749063D01*
X78687121Y-70762167D01*
X78714771Y-70786195D01*
X78732664Y-70815312D01*
X78733807Y-70818736D01*
X78735072Y-70845502D01*
X78727268Y-70880215D01*
X78712014Y-70917509D01*
X78695486Y-70945672D01*
X78681137Y-70968279D01*
X78675702Y-70984823D01*
X78677595Y-71002700D01*
X78680755Y-71014321D01*
X78687295Y-71050156D01*
X78690339Y-71096828D01*
X78690013Y-71148493D01*
X78686442Y-71199306D01*
X78679751Y-71243422D01*
X78675500Y-71260393D01*
X78645791Y-71339504D01*
X78603907Y-71417583D01*
X78548884Y-71495947D01*
X78479759Y-71575909D01*
X78395565Y-71658784D01*
X78359225Y-71691485D01*
X78267534Y-71772199D01*
X78273110Y-71866452D01*
X78276163Y-71915118D01*
X78280130Y-71973187D01*
X78285084Y-72041576D01*
X78291097Y-72121203D01*
X78298240Y-72212985D01*
X78306584Y-72317840D01*
X78316202Y-72436687D01*
X78327165Y-72570442D01*
X78339545Y-72720025D01*
X78343296Y-72765123D01*
X78346524Y-72795129D01*
X78350283Y-72817117D01*
X78353823Y-72826856D01*
X78354233Y-72827002D01*
X78363080Y-72822565D01*
X78383442Y-72810375D01*
X78412607Y-72792112D01*
X78447864Y-72769454D01*
X78461822Y-72760352D01*
X78607417Y-72655181D01*
X78740713Y-72538887D01*
X78861386Y-72412466D01*
X78969116Y-72276915D01*
X79063580Y-72133233D01*
X79144458Y-71982417D01*
X79211427Y-71825464D01*
X79264166Y-71663371D01*
X79302354Y-71497135D01*
X79325668Y-71327755D01*
X79333787Y-71156228D01*
X79326390Y-70983550D01*
X79303155Y-70810720D01*
X79263761Y-70638734D01*
X79207885Y-70468590D01*
X79204037Y-70458554D01*
X79132310Y-70296165D01*
X79046377Y-70142251D01*
X78947176Y-69997609D01*
X78835644Y-69863033D01*
X78712716Y-69739319D01*
X78579331Y-69627263D01*
X78436424Y-69527659D01*
X78284934Y-69441303D01*
X78125796Y-69368991D01*
X77959948Y-69311518D01*
X77808282Y-69273660D01*
X77630140Y-69245485D01*
X77453140Y-69233867D01*
X77278179Y-69238312D01*
X77106153Y-69258326D01*
X76937957Y-69293415D01*
X76774487Y-69343085D01*
X76616639Y-69406841D01*
X76465308Y-69484190D01*
X76321391Y-69574638D01*
X76185784Y-69677691D01*
X76059381Y-69792854D01*
X75943079Y-69919633D01*
X75837773Y-70057535D01*
X75744360Y-70206066D01*
X75663736Y-70364730D01*
X75614646Y-70483531D01*
X75569711Y-70617964D01*
X75536227Y-70752906D01*
X75513409Y-70892517D01*
X75500472Y-71040958D01*
X75497912Y-71102943D01*
X75346656Y-71102943D01*
X75347119Y-71057924D01*
X75350075Y-70978429D01*
X75355553Y-70906859D01*
X75364066Y-70838675D01*
X75376129Y-70769338D01*
X75392254Y-70694309D01*
X75402646Y-70650590D01*
X75453885Y-70475832D01*
X75520439Y-70307440D01*
X75601469Y-70146257D01*
X75696139Y-69993128D01*
X75803610Y-69848899D01*
X75923044Y-69714414D01*
X76053604Y-69590517D01*
X76194452Y-69478053D01*
X76344750Y-69377868D01*
X76503659Y-69290805D01*
X76670343Y-69217709D01*
X76843964Y-69159425D01*
X76895672Y-69145367D01*
X76994309Y-69122006D01*
X77086955Y-69104792D01*
X77179809Y-69092872D01*
X77279073Y-69085392D01*
X77352952Y-69082419D01*
X77540201Y-69084503D01*
G37*
D12*
%TO.C,C27*%
X111577722Y-70591500D02*
X111577722Y-70375828D01*
X112297722Y-70591500D02*
X112297722Y-70375828D01*
%TO.C,R15*%
X112623158Y-71648664D02*
X113077286Y-71648664D01*
X112623158Y-73118664D02*
X113077286Y-73118664D01*
%TO.C,C14*%
X123386922Y-95717828D02*
X123386922Y-95933500D01*
X124106922Y-95717828D02*
X124106922Y-95933500D01*
%TO.C,C28*%
X108477722Y-70591500D02*
X108477722Y-70375828D01*
X109197722Y-70591500D02*
X109197722Y-70375828D01*
D11*
%TO.C,D1*%
X124775330Y-102784064D02*
G75*
G02*
X124675330Y-102784064I-50000J0D01*
G01*
X124675330Y-102784064D02*
G75*
G02*
X124775330Y-102784064I50000J0D01*
G01*
D12*
%TO.C,R13*%
X91045328Y-77239525D02*
X91045328Y-77546807D01*
X91805328Y-77239525D02*
X91805328Y-77546807D01*
%TO.C,U4*%
X88905328Y-75315664D02*
X88105328Y-75315664D01*
X88905328Y-75315664D02*
X89705328Y-75315664D01*
X88905328Y-78435664D02*
X88105328Y-78435664D01*
X88905328Y-78435664D02*
X89705328Y-78435664D01*
X90445328Y-78715664D02*
X89965328Y-78715664D01*
X90205328Y-78385664D01*
X90445328Y-78715664D01*
G36*
X90445328Y-78715664D02*
G01*
X89965328Y-78715664D01*
X90205328Y-78385664D01*
X90445328Y-78715664D01*
G37*
%TO.C,D2*%
X115077722Y-88903664D02*
X115077722Y-87493664D01*
X115077722Y-88903664D02*
X116297722Y-88903664D01*
X116297722Y-88903664D02*
X116297722Y-87493664D01*
%TO.C,C19*%
X89318484Y-83362583D02*
X89318484Y-83643745D01*
X90338484Y-83362583D02*
X90338484Y-83643745D01*
%TO.C,R4*%
X120482709Y-103111618D02*
X120699990Y-102894337D01*
X121020110Y-103649019D02*
X121237391Y-103431738D01*
%TO.C,J9*%
X75096472Y-77346664D02*
X75096472Y-89466664D01*
X75096472Y-89466664D02*
X76716472Y-89466664D01*
X76716472Y-77346664D02*
X75096472Y-77346664D01*
X76716472Y-79406664D02*
X75096472Y-79406664D01*
X76716472Y-81406664D02*
X75096472Y-81406664D01*
X76716472Y-83406664D02*
X75096472Y-83406664D01*
X76716472Y-85406664D02*
X75096472Y-85406664D01*
X76716472Y-87406664D02*
X75096472Y-87406664D01*
X76716472Y-89466664D02*
X76716472Y-77346664D01*
X77274358Y-78096664D02*
X76716472Y-78096664D01*
X77274358Y-78716664D02*
X76716472Y-78716664D01*
X77274358Y-80096664D02*
X76716472Y-80096664D01*
X77274358Y-80716664D02*
X76716472Y-80716664D01*
X77274358Y-82096664D02*
X76716472Y-82096664D01*
X77274358Y-82716664D02*
X76716472Y-82716664D01*
X77274358Y-84096664D02*
X76716472Y-84096664D01*
X77274358Y-84716664D02*
X76716472Y-84716664D01*
X77274358Y-86096664D02*
X76716472Y-86096664D01*
X77274358Y-86716664D02*
X76716472Y-86716664D01*
X77274358Y-88096664D02*
X76716472Y-88096664D01*
X77274358Y-88716664D02*
X76716472Y-88716664D01*
X79221472Y-88096664D02*
X79038586Y-88096664D01*
X79221472Y-88716664D02*
X79038586Y-88716664D01*
X79274358Y-78096664D02*
X79038586Y-78096664D01*
X79274358Y-78716664D02*
X79038586Y-78716664D01*
X79274358Y-80096664D02*
X79038586Y-80096664D01*
X79274358Y-80716664D02*
X79038586Y-80716664D01*
X79274358Y-82096664D02*
X79038586Y-82096664D01*
X79274358Y-82716664D02*
X79038586Y-82716664D01*
X79274358Y-84096664D02*
X79038586Y-84096664D01*
X79274358Y-84716664D02*
X79038586Y-84716664D01*
X79274358Y-86096664D02*
X79038586Y-86096664D01*
X79274358Y-86716664D02*
X79038586Y-86716664D01*
X81156472Y-88406664D02*
X81156472Y-89406664D01*
X81156472Y-89406664D02*
X80156472Y-89406664D01*
%TO.C,C1*%
X110781410Y-94774605D02*
X110933913Y-94622102D01*
X111290527Y-95283722D02*
X111443030Y-95131219D01*
%TO.C,C15*%
X90135327Y-79415329D02*
X90135327Y-79631001D01*
X90855327Y-79415329D02*
X90855327Y-79631001D01*
%TO.C,R10*%
X120784314Y-91580022D02*
X120784314Y-91887304D01*
X121544314Y-91580022D02*
X121544314Y-91887304D01*
%TO.C,R11*%
X85651688Y-75273166D02*
X85958970Y-75273166D01*
X85651688Y-76033166D02*
X85958970Y-76033166D01*
%TO.C,R1*%
X122629958Y-100991786D02*
X122412677Y-101209067D01*
X123167359Y-101529187D02*
X122950078Y-101746468D01*
%TO.C,U3*%
X121811922Y-94273664D02*
X121811922Y-91273664D01*
X121861922Y-91213664D02*
X122011922Y-91213664D01*
X125031922Y-94273664D02*
X125031922Y-91273664D01*
X122081922Y-95313664D02*
X121601922Y-94833664D01*
X122081922Y-94833664D01*
X122081922Y-95313664D01*
G36*
X122081922Y-95313664D02*
G01*
X121601922Y-94833664D01*
X122081922Y-94833664D01*
X122081922Y-95313664D01*
G37*
%TO.C,J6*%
X83685330Y-72499664D02*
X83685330Y-73449664D01*
X83685330Y-73449664D02*
X84635330Y-73449664D01*
X90285330Y-69529664D02*
X84055330Y-69529664D01*
X90655330Y-72499664D02*
X90655330Y-73449664D01*
X90655330Y-73449664D02*
X89705330Y-73449664D01*
%TD*%
G36*
X117931056Y-95762335D02*
G01*
X117975403Y-95790836D01*
X121830550Y-99645983D01*
X121864035Y-99707306D01*
X121859051Y-99776998D01*
X121830550Y-99821345D01*
X117975403Y-103676492D01*
X117914080Y-103709977D01*
X117844388Y-103704993D01*
X117800041Y-103676492D01*
X113944894Y-99821345D01*
X113911409Y-99760022D01*
X113913294Y-99733664D01*
X115448204Y-99733664D01*
X117887722Y-102173182D01*
X120327240Y-99733664D01*
X117887722Y-97294146D01*
X115448204Y-99733664D01*
X113913294Y-99733664D01*
X113916393Y-99690330D01*
X113944894Y-99645983D01*
X117800041Y-95790836D01*
X117861364Y-95757351D01*
X117931056Y-95762335D01*
G37*
M02*
