%TF.GenerationSoftware,KiCad,Pcbnew,8.0.1*%
%TF.CreationDate,2024-06-02T00:59:28+08:00*%
%TF.ProjectId,SB-main-board,53422d6d-6169-46e2-9d62-6f6172642e6b,A0*%
%TF.SameCoordinates,Original*%
%TF.FileFunction,Copper,L2,Inr*%
%TF.FilePolarity,Positive*%
%FSLAX46Y46*%
G04 Gerber Fmt 4.6, Leading zero omitted, Abs format (unit mm)*
G04 Created by KiCad (PCBNEW 8.0.1) date 2024-06-02 00:59:28*
%MOMM*%
%LPD*%
G01*
G04 APERTURE LIST*
G04 Aperture macros list*
%AMRoundRect*
0 Rectangle with rounded corners*
0 $1 Rounding radius*
0 $2 $3 $4 $5 $6 $7 $8 $9 X,Y pos of 4 corners*
0 Add a 4 corners polygon primitive as box body*
4,1,4,$2,$3,$4,$5,$6,$7,$8,$9,$2,$3,0*
0 Add four circle primitives for the rounded corners*
1,1,$1+$1,$2,$3*
1,1,$1+$1,$4,$5*
1,1,$1+$1,$6,$7*
1,1,$1+$1,$8,$9*
0 Add four rect primitives between the rounded corners*
20,1,$1+$1,$2,$3,$4,$5,0*
20,1,$1+$1,$4,$5,$6,$7,0*
20,1,$1+$1,$6,$7,$8,$9,0*
20,1,$1+$1,$8,$9,$2,$3,0*%
G04 Aperture macros list end*
%TA.AperFunction,ComponentPad*%
%ADD10C,2.800000*%
%TD*%
%TA.AperFunction,ComponentPad*%
%ADD11C,1.524000*%
%TD*%
%TA.AperFunction,ComponentPad*%
%ADD12RoundRect,0.250001X0.499999X0.499999X-0.499999X0.499999X-0.499999X-0.499999X0.499999X-0.499999X0*%
%TD*%
%TA.AperFunction,ComponentPad*%
%ADD13C,1.500000*%
%TD*%
%TA.AperFunction,ComponentPad*%
%ADD14C,5.500000*%
%TD*%
%TA.AperFunction,ComponentPad*%
%ADD15R,1.350000X1.350000*%
%TD*%
%TA.AperFunction,ComponentPad*%
%ADD16O,1.350000X1.350000*%
%TD*%
%TA.AperFunction,ComponentPad*%
%ADD17O,1.800000X1.000000*%
%TD*%
%TA.AperFunction,ComponentPad*%
%ADD18O,2.100000X1.000000*%
%TD*%
%TA.AperFunction,ViaPad*%
%ADD19C,0.500000*%
%TD*%
%TA.AperFunction,ViaPad*%
%ADD20C,1.000000*%
%TD*%
G04 APERTURE END LIST*
D10*
%TO.N,+24V*%
%TO.C,J1*%
X158260400Y-105919165D03*
%TO.N,PGND*%
X158260400Y-100839165D03*
D11*
%TO.N,/CAN_H*%
X159490400Y-96989165D03*
%TO.N,/CAN_L*%
X161490400Y-96989165D03*
%TD*%
D12*
%TO.N,+24V*%
%TO.C,J5*%
X149682900Y-103839165D03*
D13*
%TO.N,Net-(D2-K)*%
X149682900Y-100839165D03*
%TD*%
D14*
%TO.N,PGND*%
%TO.C,H2*%
X130863900Y-110917865D03*
%TD*%
%TO.N,PGND*%
%TO.C,H1*%
X142847900Y-98146865D03*
%TD*%
D15*
%TO.N,/FAN0_DET*%
%TO.C,J9*%
X124934042Y-106447865D03*
D16*
%TO.N,/NEO*%
X122934042Y-106447865D03*
%TO.N,/FAN0_PWM*%
X124934042Y-104447865D03*
%TO.N,/FAN1_PWM*%
X122934042Y-104447865D03*
%TO.N,/ADC0*%
X124934042Y-102447865D03*
%TO.N,/FAN1_DET*%
X122934042Y-102447865D03*
%TO.N,/ADC1*%
X124934042Y-100447865D03*
%TO.N,+3V3B*%
X122934042Y-100447865D03*
%TO.N,GND*%
X124934042Y-98447865D03*
%TO.N,PGND*%
X122934042Y-98447865D03*
%TO.N,+24V*%
X124934042Y-96447865D03*
%TO.N,PGND*%
X122934042Y-96447865D03*
%TD*%
D17*
%TO.N,GND*%
%TO.C,J2*%
X167040292Y-98914865D03*
D18*
X162860292Y-98914865D03*
D17*
X167040292Y-107554865D03*
D18*
X162860292Y-107554865D03*
%TD*%
D19*
%TO.N,GND*%
X149247900Y-92146865D03*
X153055292Y-121884865D03*
X153844492Y-95845666D03*
X168777900Y-115486865D03*
X145133900Y-102287065D03*
X156486092Y-93204066D03*
X162665292Y-116174865D03*
X126589900Y-111710465D03*
X161720292Y-100034865D03*
X135558100Y-103099865D03*
X169215292Y-106124865D03*
X156284500Y-122429265D03*
X159382793Y-102368865D03*
X118647900Y-111946865D03*
X119897900Y-103046865D03*
X160975292Y-124054865D03*
X140922900Y-106171865D03*
X158328900Y-112121865D03*
X137603900Y-108196865D03*
X123914442Y-101067865D03*
X162665292Y-117774865D03*
X143228900Y-103506265D03*
X121806242Y-105284265D03*
X155090700Y-121565665D03*
X138422900Y-91971865D03*
X156638100Y-115850665D03*
X156944900Y-111761265D03*
X125357900Y-109846865D03*
X140657900Y-107321865D03*
X160197900Y-98996865D03*
X159073900Y-107746865D03*
X161720292Y-106434865D03*
X156505292Y-124364865D03*
X159363900Y-104356865D03*
X154076200Y-115546865D03*
X161413892Y-108046865D03*
X145337100Y-107544865D03*
X138826400Y-92946865D03*
X143797900Y-101446865D03*
X167747900Y-114036865D03*
X164265292Y-117774865D03*
X159278900Y-113071865D03*
X126497900Y-109656865D03*
X153844492Y-93204066D03*
X140847900Y-100996865D03*
X169215292Y-101724865D03*
X163447300Y-109373665D03*
X169545292Y-116234865D03*
X124126100Y-108789465D03*
X150447900Y-91921865D03*
X156486092Y-95845666D03*
X140797900Y-102971865D03*
X156386100Y-119279665D03*
X124075300Y-110694465D03*
X169475292Y-114864865D03*
X121831642Y-110237265D03*
X154862100Y-117450865D03*
X137844100Y-102998265D03*
X169215292Y-98524865D03*
X149047900Y-92946865D03*
X163015500Y-124562865D03*
X159387900Y-109146865D03*
X136521300Y-103506265D03*
%TO.N,+1V1*%
X160905991Y-116298407D03*
X164707436Y-118968480D03*
D20*
%TO.N,+24V*%
X128947900Y-90780865D03*
X159854399Y-93755367D03*
X136893900Y-95426865D03*
D19*
X153313692Y-92062366D03*
X157016892Y-92062366D03*
%TO.N,PGND*%
X127767900Y-109166865D03*
X153493900Y-103126865D03*
X129639900Y-96572065D03*
X155347900Y-100189165D03*
X156447100Y-100514165D03*
X155347900Y-100839165D03*
X163853900Y-92646865D03*
X153744500Y-109653065D03*
X128573100Y-97740465D03*
X133830900Y-98400865D03*
X139647500Y-86310465D03*
X153615292Y-87446865D03*
X124597900Y-87096865D03*
X154723900Y-104026865D03*
X127506300Y-100534465D03*
D20*
X127522900Y-88780865D03*
D19*
X157713900Y-108306865D03*
X150263900Y-102496865D03*
X152897900Y-99096865D03*
X156447100Y-99864165D03*
X154277900Y-111336865D03*
X154727900Y-109896865D03*
X157753900Y-88044865D03*
X134453900Y-110646865D03*
X126608842Y-97892865D03*
X117997900Y-93196865D03*
X150391700Y-98426265D03*
X140347900Y-95446865D03*
X132408500Y-106122465D03*
X161853900Y-89246865D03*
X154021900Y-108560865D03*
X131976700Y-116688865D03*
X154797900Y-111766865D03*
X159853900Y-89246865D03*
X160470499Y-94526383D03*
X169289300Y-93524065D03*
X123848700Y-116130065D03*
X126507242Y-102668065D03*
X168298700Y-86691465D03*
X159853900Y-92346865D03*
X156447100Y-101164165D03*
X163853900Y-89246865D03*
X128623900Y-100432865D03*
%TO.N,+5V*%
X168652900Y-113912865D03*
X152684766Y-117886865D03*
X158504223Y-109083188D03*
%TO.N,/USB_D+*%
X162635958Y-111756528D03*
X160459035Y-114154395D03*
X163047900Y-102983426D03*
X163046767Y-103984865D03*
%TO.N,/USB_D-*%
X163115236Y-112235806D03*
X161651006Y-114918837D03*
%TO.N,Net-(D3-A)*%
X161720292Y-100834865D03*
X161720292Y-105624865D03*
%TO.N,/FAN0_PWM*%
X158353900Y-121698163D03*
X146537600Y-107597573D03*
X130235174Y-106022865D03*
X152619000Y-107882300D03*
%TO.N,/FAN0_DET*%
X160653900Y-122896865D03*
X151753900Y-107846865D03*
X129153900Y-106446865D03*
X147657900Y-108426865D03*
%TO.N,Net-(J4-Pin_2)*%
X141333900Y-108188468D03*
%TO.N,Net-(J4-Pin_3)*%
X141983900Y-108188468D03*
%TO.N,Net-(J4-Pin_1)*%
X140033900Y-108188468D03*
%TO.N,/FAN1_PWM*%
X152203900Y-108396865D03*
X130203900Y-106796865D03*
X147094602Y-108186596D03*
X159303900Y-122113263D03*
%TO.N,/FAN1_DET*%
X153034100Y-108368839D03*
X159853900Y-121283063D03*
X130903900Y-106022865D03*
X146340787Y-106997020D03*
%TO.N,/FAN2_PWM*%
X157704900Y-117298465D03*
X131322900Y-92546865D03*
%TO.N,/FAN2_DET*%
X132572900Y-92546865D03*
X159595004Y-118299569D03*
%TO.N,/NEO*%
X160321100Y-119025665D03*
%TO.N,/LDC_SCL*%
X124738900Y-111966665D03*
X153642900Y-119889265D03*
%TO.N,/LDC_SDA*%
X123488900Y-111966665D03*
X154368221Y-120027544D03*
%TO.N,/ADC0*%
X163893900Y-115766865D03*
X156287642Y-107830938D03*
%TO.N,/ADC1*%
X163318622Y-115141636D03*
X156832900Y-108097730D03*
%TO.N,/TMC_EN*%
X151964072Y-93524065D03*
X168298027Y-116320570D03*
%TO.N,/HEAT*%
X166384074Y-117816691D03*
%TO.N,/SPI0_CLK*%
X162955124Y-120792232D03*
X119906042Y-105194865D03*
X133879700Y-105397765D03*
%TO.N,/TMC_DIAG*%
X157903539Y-97354323D03*
X164997900Y-113996865D03*
%TO.N,/ADXL_INT1*%
X121755442Y-101779065D03*
X163370224Y-120298275D03*
%TO.N,/TMC_STEP*%
X158165291Y-95524866D03*
X165895492Y-114134865D03*
%TO.N,/ADXL_INT2*%
X121806242Y-100989965D03*
X163785324Y-119833998D03*
%TO.N,/SPI0_CS1*%
X118322900Y-109696865D03*
X119906042Y-101447865D03*
X158621793Y-119838465D03*
%TO.N,/SPI0_MOSI*%
X138246400Y-107953365D03*
X120597900Y-107981765D03*
X162403900Y-122346865D03*
%TO.N,/TEMP_A*%
X162513900Y-109426865D03*
%TO.N,/SPI0_MISO*%
X137511900Y-105626365D03*
X162526276Y-120360559D03*
%TO.N,/ENDSTOP0*%
X143696900Y-92546865D03*
X165503900Y-117886865D03*
X159116630Y-110854134D03*
%TO.N,/TMC_DIR*%
X158215292Y-94024866D03*
X167716723Y-115758042D03*
%TO.N,/TMC_UART*%
X165480392Y-113554724D03*
X157412791Y-96987366D03*
%TO.N,/SPI0_CS2*%
X153693900Y-107816865D03*
X146503900Y-106246865D03*
X161353900Y-119246865D03*
X135266569Y-106211866D03*
%TO.N,/CAN_H*%
X167847900Y-108717365D03*
%TO.N,/CAN_L*%
X168497900Y-108717365D03*
%TO.N,Net-(U6-CPO)*%
X150455292Y-94524866D03*
%TO.N,Net-(U6-CPI)*%
X151865292Y-95024865D03*
%TO.N,Net-(U6-5VOUT)*%
X153252791Y-96987366D03*
%TO.N,Net-(D2-K)*%
X154303900Y-101474165D03*
X153668900Y-100839165D03*
X153033900Y-100204165D03*
X154303900Y-100204165D03*
X153033900Y-101474165D03*
%TO.N,Net-(J3-Pin_1)*%
X164853900Y-87846865D03*
%TO.N,Net-(J3-Pin_4)*%
X158853900Y-88046865D03*
%TO.N,Net-(J3-Pin_2)*%
X162853900Y-87846865D03*
%TO.N,Net-(J3-Pin_3)*%
X160853900Y-87846865D03*
%TO.N,/FS*%
X144946900Y-92546865D03*
X163332353Y-114499151D03*
%TO.N,+3V3A*%
X157951815Y-118811388D03*
X166287398Y-115566971D03*
X169617900Y-109264865D03*
X158382978Y-112926865D03*
X164463300Y-119635265D03*
X161496400Y-110818865D03*
X160937485Y-115481372D03*
X161455702Y-120398667D03*
X163750034Y-113013169D03*
X161297708Y-113013169D03*
%TO.N,+3V3B*%
X140713900Y-102141866D03*
X118147900Y-100447865D03*
X118906042Y-105194865D03*
X120597900Y-109826865D03*
%TD*%
%TA.AperFunction,Conductor*%
%TO.N,GND*%
G36*
X126869420Y-88801430D02*
G01*
X126899484Y-88853501D01*
X126900175Y-88858152D01*
X126909159Y-88932139D01*
X126909161Y-88932143D01*
X126963194Y-89074620D01*
X126963195Y-89074621D01*
X127049760Y-89200031D01*
X127163821Y-89301081D01*
X127298751Y-89371897D01*
X127446708Y-89408365D01*
X127446710Y-89408365D01*
X127599089Y-89408365D01*
X127599092Y-89408365D01*
X127747049Y-89371897D01*
X127881979Y-89301081D01*
X127996040Y-89200031D01*
X128082605Y-89074621D01*
X128136641Y-88932139D01*
X128145622Y-88858168D01*
X128172847Y-88804560D01*
X128228162Y-88780992D01*
X128232881Y-88780865D01*
X149884881Y-88780865D01*
X149941382Y-88801430D01*
X149947036Y-88806610D01*
X152950430Y-91810004D01*
X152975841Y-91864498D01*
X152966596Y-91912063D01*
X152950191Y-91944259D01*
X152950191Y-91944262D01*
X152931486Y-92062366D01*
X152950191Y-92180473D01*
X152950191Y-92180474D01*
X153004478Y-92287017D01*
X153004479Y-92287018D01*
X153004481Y-92287021D01*
X153089037Y-92371577D01*
X153089039Y-92371578D01*
X153089040Y-92371579D01*
X153195583Y-92425866D01*
X153211731Y-92428423D01*
X153313692Y-92444572D01*
X153431800Y-92425866D01*
X153463992Y-92409462D01*
X153523670Y-92402135D01*
X153566053Y-92425627D01*
X153790292Y-92649866D01*
X153290292Y-92649866D01*
X153290292Y-96399866D01*
X149137311Y-96399866D01*
X149080810Y-96379301D01*
X149075156Y-96374121D01*
X147725900Y-95024865D01*
X151483086Y-95024865D01*
X151501791Y-95142972D01*
X151501791Y-95142973D01*
X151556078Y-95249516D01*
X151556079Y-95249517D01*
X151556081Y-95249520D01*
X151640637Y-95334076D01*
X151640639Y-95334077D01*
X151640640Y-95334078D01*
X151747183Y-95388365D01*
X151763331Y-95390922D01*
X151865292Y-95407071D01*
X151983400Y-95388365D01*
X152089947Y-95334076D01*
X152174503Y-95249520D01*
X152228792Y-95142973D01*
X152247498Y-95024865D01*
X152228792Y-94906757D01*
X152228792Y-94906756D01*
X152174505Y-94800213D01*
X152174504Y-94800212D01*
X152174503Y-94800210D01*
X152089947Y-94715654D01*
X152089944Y-94715652D01*
X152089943Y-94715651D01*
X151983400Y-94661364D01*
X151865292Y-94642659D01*
X151747184Y-94661364D01*
X151747183Y-94661364D01*
X151640640Y-94715651D01*
X151556078Y-94800213D01*
X151501791Y-94906756D01*
X151501791Y-94906757D01*
X151483086Y-95024865D01*
X147725900Y-95024865D01*
X147589401Y-94888366D01*
X147225901Y-94524866D01*
X150073086Y-94524866D01*
X150091791Y-94642973D01*
X150091791Y-94642974D01*
X150146078Y-94749517D01*
X150146079Y-94749518D01*
X150146081Y-94749521D01*
X150230637Y-94834077D01*
X150230639Y-94834078D01*
X150230640Y-94834079D01*
X150337183Y-94888366D01*
X150353331Y-94890923D01*
X150455292Y-94907072D01*
X150573400Y-94888366D01*
X150679947Y-94834077D01*
X150764503Y-94749521D01*
X150818792Y-94642974D01*
X150837498Y-94524866D01*
X150818792Y-94406758D01*
X150818792Y-94406757D01*
X150764505Y-94300214D01*
X150764504Y-94300213D01*
X150764503Y-94300211D01*
X150679947Y-94215655D01*
X150679944Y-94215653D01*
X150679943Y-94215652D01*
X150573400Y-94161365D01*
X150455292Y-94142660D01*
X150337184Y-94161365D01*
X150337183Y-94161365D01*
X150230640Y-94215652D01*
X150146078Y-94300214D01*
X150091791Y-94406757D01*
X150091791Y-94406758D01*
X150073086Y-94524866D01*
X147225901Y-94524866D01*
X146225100Y-93524065D01*
X151581866Y-93524065D01*
X151600571Y-93642172D01*
X151600571Y-93642173D01*
X151654858Y-93748716D01*
X151654859Y-93748717D01*
X151654861Y-93748720D01*
X151739417Y-93833276D01*
X151739419Y-93833277D01*
X151739420Y-93833278D01*
X151845963Y-93887565D01*
X151862111Y-93890122D01*
X151964072Y-93906271D01*
X152082180Y-93887565D01*
X152188727Y-93833276D01*
X152273283Y-93748720D01*
X152327572Y-93642173D01*
X152346278Y-93524065D01*
X152327572Y-93405957D01*
X152327572Y-93405956D01*
X152273285Y-93299413D01*
X152273284Y-93299412D01*
X152273283Y-93299410D01*
X152188727Y-93214854D01*
X152188724Y-93214852D01*
X152188723Y-93214851D01*
X152082180Y-93160564D01*
X151964072Y-93141859D01*
X151845964Y-93160564D01*
X151845963Y-93160564D01*
X151739420Y-93214851D01*
X151654858Y-93299413D01*
X151600571Y-93405956D01*
X151600571Y-93405957D01*
X151581866Y-93524065D01*
X146225100Y-93524065D01*
X146047900Y-93346865D01*
X146047899Y-93346865D01*
X130247901Y-93346865D01*
X130247900Y-93346865D01*
X129847900Y-93746865D01*
X129847900Y-93746866D01*
X129847900Y-95510455D01*
X129827335Y-95566956D01*
X129822155Y-95572610D01*
X129473645Y-95921120D01*
X129419151Y-95946531D01*
X129411490Y-95946865D01*
X125567014Y-95946865D01*
X125565432Y-95944348D01*
X125437559Y-95816475D01*
X125284437Y-95720262D01*
X125284436Y-95720261D01*
X125284435Y-95720261D01*
X125284430Y-95720259D01*
X125187310Y-95686275D01*
X125047900Y-95546865D01*
X125047900Y-92546865D01*
X130940694Y-92546865D01*
X130959399Y-92664972D01*
X130959399Y-92664973D01*
X131013686Y-92771516D01*
X131013687Y-92771517D01*
X131013689Y-92771520D01*
X131098245Y-92856076D01*
X131098247Y-92856077D01*
X131098248Y-92856078D01*
X131204791Y-92910365D01*
X131220939Y-92912922D01*
X131322900Y-92929071D01*
X131441008Y-92910365D01*
X131547555Y-92856076D01*
X131632111Y-92771520D01*
X131686400Y-92664973D01*
X131705106Y-92546865D01*
X132190694Y-92546865D01*
X132209399Y-92664972D01*
X132209399Y-92664973D01*
X132263686Y-92771516D01*
X132263687Y-92771517D01*
X132263689Y-92771520D01*
X132348245Y-92856076D01*
X132348247Y-92856077D01*
X132348248Y-92856078D01*
X132454791Y-92910365D01*
X132470939Y-92912922D01*
X132572900Y-92929071D01*
X132691008Y-92910365D01*
X132797555Y-92856076D01*
X132882111Y-92771520D01*
X132936400Y-92664973D01*
X132955106Y-92546865D01*
X143314694Y-92546865D01*
X143333399Y-92664972D01*
X143333399Y-92664973D01*
X143387686Y-92771516D01*
X143387687Y-92771517D01*
X143387689Y-92771520D01*
X143472245Y-92856076D01*
X143472247Y-92856077D01*
X143472248Y-92856078D01*
X143578791Y-92910365D01*
X143594939Y-92912922D01*
X143696900Y-92929071D01*
X143815008Y-92910365D01*
X143921555Y-92856076D01*
X144006111Y-92771520D01*
X144060400Y-92664973D01*
X144079106Y-92546865D01*
X144564694Y-92546865D01*
X144583399Y-92664972D01*
X144583399Y-92664973D01*
X144637686Y-92771516D01*
X144637687Y-92771517D01*
X144637689Y-92771520D01*
X144722245Y-92856076D01*
X144722247Y-92856077D01*
X144722248Y-92856078D01*
X144828791Y-92910365D01*
X144844939Y-92912922D01*
X144946900Y-92929071D01*
X145065008Y-92910365D01*
X145171555Y-92856076D01*
X145256111Y-92771520D01*
X145310400Y-92664973D01*
X145329106Y-92546865D01*
X145310400Y-92428757D01*
X145310400Y-92428756D01*
X145256113Y-92322213D01*
X145256112Y-92322212D01*
X145256111Y-92322210D01*
X145171555Y-92237654D01*
X145171552Y-92237652D01*
X145171551Y-92237651D01*
X145065008Y-92183364D01*
X144946900Y-92164659D01*
X144828792Y-92183364D01*
X144828791Y-92183364D01*
X144722248Y-92237651D01*
X144637686Y-92322213D01*
X144583399Y-92428756D01*
X144583399Y-92428757D01*
X144564694Y-92546865D01*
X144079106Y-92546865D01*
X144060400Y-92428757D01*
X144060400Y-92428756D01*
X144006113Y-92322213D01*
X144006112Y-92322212D01*
X144006111Y-92322210D01*
X143921555Y-92237654D01*
X143921552Y-92237652D01*
X143921551Y-92237651D01*
X143815008Y-92183364D01*
X143696900Y-92164659D01*
X143578792Y-92183364D01*
X143578791Y-92183364D01*
X143472248Y-92237651D01*
X143387686Y-92322213D01*
X143333399Y-92428756D01*
X143333399Y-92428757D01*
X143314694Y-92546865D01*
X132955106Y-92546865D01*
X132936400Y-92428757D01*
X132936400Y-92428756D01*
X132882113Y-92322213D01*
X132882112Y-92322212D01*
X132882111Y-92322210D01*
X132797555Y-92237654D01*
X132797552Y-92237652D01*
X132797551Y-92237651D01*
X132691008Y-92183364D01*
X132572900Y-92164659D01*
X132454792Y-92183364D01*
X132454791Y-92183364D01*
X132348248Y-92237651D01*
X132263686Y-92322213D01*
X132209399Y-92428756D01*
X132209399Y-92428757D01*
X132190694Y-92546865D01*
X131705106Y-92546865D01*
X131686400Y-92428757D01*
X131686400Y-92428756D01*
X131632113Y-92322213D01*
X131632112Y-92322212D01*
X131632111Y-92322210D01*
X131547555Y-92237654D01*
X131547552Y-92237652D01*
X131547551Y-92237651D01*
X131441008Y-92183364D01*
X131322900Y-92164659D01*
X131204792Y-92183364D01*
X131204791Y-92183364D01*
X131098248Y-92237651D01*
X131013686Y-92322213D01*
X130959399Y-92428756D01*
X130959399Y-92428757D01*
X130940694Y-92546865D01*
X125047900Y-92546865D01*
X125047900Y-90780865D01*
X128315791Y-90780865D01*
X128334159Y-90932139D01*
X128334161Y-90932143D01*
X128388194Y-91074620D01*
X128388195Y-91074621D01*
X128474760Y-91200031D01*
X128588821Y-91301081D01*
X128723751Y-91371897D01*
X128871708Y-91408365D01*
X128871710Y-91408365D01*
X129024089Y-91408365D01*
X129024092Y-91408365D01*
X129172049Y-91371897D01*
X129306979Y-91301081D01*
X129421040Y-91200031D01*
X129507605Y-91074621D01*
X129561641Y-90932139D01*
X129580009Y-90780865D01*
X129561641Y-90629591D01*
X129507605Y-90487109D01*
X129421040Y-90361699D01*
X129306979Y-90260649D01*
X129306977Y-90260648D01*
X129306976Y-90260647D01*
X129172051Y-90189834D01*
X129172050Y-90189833D01*
X129172049Y-90189833D01*
X129024092Y-90153365D01*
X128871708Y-90153365D01*
X128723751Y-90189833D01*
X128723750Y-90189833D01*
X128723748Y-90189834D01*
X128588823Y-90260647D01*
X128588818Y-90260651D01*
X128474757Y-90361702D01*
X128388194Y-90487109D01*
X128339240Y-90616192D01*
X128334159Y-90629591D01*
X128315791Y-90780865D01*
X125047900Y-90780865D01*
X125047900Y-89183275D01*
X125068465Y-89126774D01*
X125073645Y-89121120D01*
X125388155Y-88806610D01*
X125442649Y-88781199D01*
X125450310Y-88780865D01*
X126812919Y-88780865D01*
X126869420Y-88801430D01*
G37*
%TD.AperFunction*%
%TD*%
%TA.AperFunction,Conductor*%
%TO.N,Net-(D2-K)*%
G36*
X154816501Y-99734730D02*
G01*
X154846565Y-99786801D01*
X154847900Y-99802065D01*
X154847900Y-101876265D01*
X154827335Y-101932766D01*
X154775264Y-101962830D01*
X154760000Y-101964165D01*
X150094310Y-101964165D01*
X150037809Y-101943600D01*
X150032155Y-101938420D01*
X149708645Y-101614910D01*
X149683234Y-101560416D01*
X149682900Y-101552755D01*
X149682900Y-100125575D01*
X149703465Y-100069074D01*
X149708645Y-100063420D01*
X150032155Y-99739910D01*
X150086649Y-99714499D01*
X150094310Y-99714165D01*
X154760000Y-99714165D01*
X154816501Y-99734730D01*
G37*
%TD.AperFunction*%
%TD*%
%TA.AperFunction,Conductor*%
%TO.N,GND*%
G36*
X160795692Y-96295430D02*
G01*
X160825756Y-96347501D01*
X160815315Y-96406715D01*
X160804517Y-96421577D01*
X160766819Y-96463446D01*
X160766815Y-96463450D01*
X160673325Y-96625380D01*
X160673324Y-96625382D01*
X160615544Y-96803211D01*
X160615543Y-96803216D01*
X160596000Y-96989160D01*
X160596000Y-96989169D01*
X160615543Y-97175113D01*
X160615544Y-97175118D01*
X160615545Y-97175121D01*
X160673325Y-97352950D01*
X160766815Y-97514880D01*
X160891930Y-97653834D01*
X161043200Y-97763738D01*
X161214015Y-97839790D01*
X161360331Y-97870890D01*
X161396909Y-97878665D01*
X161396910Y-97878665D01*
X161583891Y-97878665D01*
X161614372Y-97872185D01*
X161766785Y-97839790D01*
X161937600Y-97763738D01*
X162088870Y-97653834D01*
X162213985Y-97514880D01*
X162307475Y-97352950D01*
X162365255Y-97175121D01*
X162384800Y-96989165D01*
X162384800Y-96989160D01*
X162365256Y-96803216D01*
X162365255Y-96803211D01*
X162365255Y-96803209D01*
X162307475Y-96625380D01*
X162213985Y-96463450D01*
X162176285Y-96421580D01*
X162153763Y-96365833D01*
X162172343Y-96308648D01*
X162223334Y-96276786D01*
X162241609Y-96274865D01*
X169896098Y-96274865D01*
X169952599Y-96295430D01*
X169982663Y-96347501D01*
X169983998Y-96362765D01*
X169983998Y-108774865D01*
X168870999Y-108774865D01*
X168880106Y-108717365D01*
X168861400Y-108599257D01*
X168861400Y-108599256D01*
X168807113Y-108492713D01*
X168807112Y-108492712D01*
X168807111Y-108492710D01*
X168722555Y-108408154D01*
X168722552Y-108408152D01*
X168722551Y-108408151D01*
X168616008Y-108353864D01*
X168497900Y-108335159D01*
X168379792Y-108353864D01*
X168379791Y-108353864D01*
X168273248Y-108408151D01*
X168273245Y-108408153D01*
X168273245Y-108408154D01*
X168235053Y-108446345D01*
X168180561Y-108471756D01*
X168122483Y-108456193D01*
X168110751Y-108446350D01*
X168072555Y-108408154D01*
X168072552Y-108408152D01*
X168072551Y-108408151D01*
X167966008Y-108353864D01*
X167847900Y-108335159D01*
X167729792Y-108353864D01*
X167729791Y-108353864D01*
X167623248Y-108408151D01*
X167538686Y-108492713D01*
X167484399Y-108599256D01*
X167484399Y-108599257D01*
X167465694Y-108717365D01*
X167474800Y-108774865D01*
X158729766Y-108774865D01*
X158728878Y-108773977D01*
X158728875Y-108773975D01*
X158713283Y-108766030D01*
X158672278Y-108722054D01*
X158665292Y-108687712D01*
X158665292Y-107462157D01*
X158685857Y-107405656D01*
X158730740Y-107377886D01*
X158730603Y-107377462D01*
X158732338Y-107376898D01*
X158732685Y-107376683D01*
X158733883Y-107376396D01*
X158956015Y-107284386D01*
X159161018Y-107158759D01*
X159343845Y-107002610D01*
X159499994Y-106819783D01*
X159625621Y-106614780D01*
X159717631Y-106392648D01*
X159769223Y-106177750D01*
X162958592Y-106177750D01*
X162985967Y-106279915D01*
X163038852Y-106371514D01*
X163113643Y-106446305D01*
X163205242Y-106499190D01*
X163307407Y-106526565D01*
X163413176Y-106526565D01*
X163413177Y-106526565D01*
X163515342Y-106499190D01*
X163606941Y-106446305D01*
X163681732Y-106371514D01*
X163734617Y-106279915D01*
X163761992Y-106177750D01*
X163761992Y-106071980D01*
X163734617Y-105969815D01*
X163681732Y-105878216D01*
X163606941Y-105803425D01*
X163515342Y-105750540D01*
X163515341Y-105750539D01*
X163515340Y-105750539D01*
X163413177Y-105723165D01*
X163307407Y-105723165D01*
X163205243Y-105750539D01*
X163113645Y-105803423D01*
X163038850Y-105878218D01*
X162985966Y-105969816D01*
X162975984Y-106007071D01*
X162958592Y-106071980D01*
X162958592Y-106177750D01*
X159769223Y-106177750D01*
X159773758Y-106158862D01*
X159773758Y-106158860D01*
X159773759Y-106158857D01*
X159792623Y-105919165D01*
X159773759Y-105679473D01*
X159760649Y-105624865D01*
X161338086Y-105624865D01*
X161356791Y-105742972D01*
X161356791Y-105742973D01*
X161411078Y-105849516D01*
X161411079Y-105849517D01*
X161411081Y-105849520D01*
X161495637Y-105934076D01*
X161495639Y-105934077D01*
X161495640Y-105934078D01*
X161602183Y-105988365D01*
X161618331Y-105990922D01*
X161720292Y-106007071D01*
X161838400Y-105988365D01*
X161944947Y-105934076D01*
X162029503Y-105849520D01*
X162083792Y-105742973D01*
X162102498Y-105624865D01*
X162083792Y-105506757D01*
X162083792Y-105506756D01*
X162029505Y-105400213D01*
X162029504Y-105400212D01*
X162029503Y-105400210D01*
X161944947Y-105315654D01*
X161944944Y-105315652D01*
X161944943Y-105315651D01*
X161838400Y-105261364D01*
X161720292Y-105242659D01*
X161602184Y-105261364D01*
X161602183Y-105261364D01*
X161495640Y-105315651D01*
X161411078Y-105400213D01*
X161356791Y-105506756D01*
X161356791Y-105506757D01*
X161338086Y-105624865D01*
X159760649Y-105624865D01*
X159717631Y-105445682D01*
X159625621Y-105223550D01*
X159499994Y-105018547D01*
X159499990Y-105018542D01*
X159343849Y-104835724D01*
X159343840Y-104835715D01*
X159161022Y-104679574D01*
X159161020Y-104679572D01*
X159161018Y-104679571D01*
X158956015Y-104553944D01*
X158956009Y-104553941D01*
X158956006Y-104553940D01*
X158733881Y-104461933D01*
X158732657Y-104461639D01*
X158732349Y-104461435D01*
X158730600Y-104460867D01*
X158730757Y-104460381D01*
X158682524Y-104428444D01*
X158665292Y-104376171D01*
X158665292Y-103984865D01*
X162664561Y-103984865D01*
X162683266Y-104102972D01*
X162683266Y-104102973D01*
X162737553Y-104209516D01*
X162737554Y-104209517D01*
X162737556Y-104209520D01*
X162822112Y-104294076D01*
X162822114Y-104294077D01*
X162822115Y-104294078D01*
X162928658Y-104348365D01*
X162944806Y-104350922D01*
X163046767Y-104367071D01*
X163164875Y-104348365D01*
X163271422Y-104294076D01*
X163355978Y-104209520D01*
X163410267Y-104102973D01*
X163428973Y-103984865D01*
X163410267Y-103866757D01*
X163410267Y-103866756D01*
X163355980Y-103760213D01*
X163355979Y-103760212D01*
X163355978Y-103760210D01*
X163271422Y-103675654D01*
X163271419Y-103675652D01*
X163271418Y-103675651D01*
X163164875Y-103621364D01*
X163046767Y-103602659D01*
X162928659Y-103621364D01*
X162928658Y-103621364D01*
X162822115Y-103675651D01*
X162737553Y-103760213D01*
X162683266Y-103866756D01*
X162683266Y-103866757D01*
X162664561Y-103984865D01*
X158665292Y-103984865D01*
X158665292Y-102983426D01*
X162665694Y-102983426D01*
X162684399Y-103101533D01*
X162684399Y-103101534D01*
X162738686Y-103208077D01*
X162738687Y-103208078D01*
X162738689Y-103208081D01*
X162823245Y-103292637D01*
X162823247Y-103292638D01*
X162823248Y-103292639D01*
X162929791Y-103346926D01*
X162945939Y-103349483D01*
X163047900Y-103365632D01*
X163166008Y-103346926D01*
X163272555Y-103292637D01*
X163357111Y-103208081D01*
X163411400Y-103101534D01*
X163430106Y-102983426D01*
X163411400Y-102865318D01*
X163411400Y-102865317D01*
X163357113Y-102758774D01*
X163357112Y-102758773D01*
X163357111Y-102758771D01*
X163272555Y-102674215D01*
X163272552Y-102674213D01*
X163272551Y-102674212D01*
X163166008Y-102619925D01*
X163047900Y-102601220D01*
X162929792Y-102619925D01*
X162929791Y-102619925D01*
X162823248Y-102674212D01*
X162738686Y-102758774D01*
X162684399Y-102865317D01*
X162684399Y-102865318D01*
X162665694Y-102983426D01*
X158665292Y-102983426D01*
X158665292Y-102382157D01*
X158685857Y-102325656D01*
X158730740Y-102297886D01*
X158730603Y-102297462D01*
X158732338Y-102296898D01*
X158732685Y-102296683D01*
X158733883Y-102296396D01*
X158956015Y-102204386D01*
X159161018Y-102078759D01*
X159343845Y-101922610D01*
X159499994Y-101739783D01*
X159625621Y-101534780D01*
X159717631Y-101312648D01*
X159758101Y-101144078D01*
X159773758Y-101078862D01*
X159773758Y-101078860D01*
X159773759Y-101078857D01*
X159792623Y-100839165D01*
X159792285Y-100834865D01*
X161338086Y-100834865D01*
X161356791Y-100952972D01*
X161356791Y-100952973D01*
X161411078Y-101059516D01*
X161411079Y-101059517D01*
X161411081Y-101059520D01*
X161495637Y-101144076D01*
X161495639Y-101144077D01*
X161495640Y-101144078D01*
X161602183Y-101198365D01*
X161618331Y-101200922D01*
X161720292Y-101217071D01*
X161838400Y-101198365D01*
X161944947Y-101144076D01*
X162029503Y-101059520D01*
X162083792Y-100952973D01*
X162102498Y-100834865D01*
X162083792Y-100716757D01*
X162083792Y-100716756D01*
X162029505Y-100610213D01*
X162029504Y-100610212D01*
X162029503Y-100610210D01*
X161944947Y-100525654D01*
X161944944Y-100525652D01*
X161944943Y-100525651D01*
X161838400Y-100471364D01*
X161720292Y-100452659D01*
X161602184Y-100471364D01*
X161602183Y-100471364D01*
X161495640Y-100525651D01*
X161411078Y-100610213D01*
X161356791Y-100716756D01*
X161356791Y-100716757D01*
X161338086Y-100834865D01*
X159792285Y-100834865D01*
X159773759Y-100599473D01*
X159771848Y-100591514D01*
X159725330Y-100397750D01*
X162958592Y-100397750D01*
X162985967Y-100499915D01*
X163038852Y-100591514D01*
X163113643Y-100666305D01*
X163205242Y-100719190D01*
X163307407Y-100746565D01*
X163413176Y-100746565D01*
X163413177Y-100746565D01*
X163515342Y-100719190D01*
X163606941Y-100666305D01*
X163681732Y-100591514D01*
X163734617Y-100499915D01*
X163761992Y-100397750D01*
X163761992Y-100291980D01*
X163734617Y-100189815D01*
X163681732Y-100098216D01*
X163606941Y-100023425D01*
X163515342Y-99970540D01*
X163515341Y-99970539D01*
X163515340Y-99970539D01*
X163413177Y-99943165D01*
X163307407Y-99943165D01*
X163205243Y-99970539D01*
X163113645Y-100023423D01*
X163038850Y-100098218D01*
X162985966Y-100189816D01*
X162958592Y-100291980D01*
X162958592Y-100397750D01*
X159725330Y-100397750D01*
X159717631Y-100365681D01*
X159644785Y-100189816D01*
X159625621Y-100143550D01*
X159499994Y-99938547D01*
X159499990Y-99938542D01*
X159343849Y-99755724D01*
X159343840Y-99755715D01*
X159161022Y-99599574D01*
X159161020Y-99599572D01*
X159161018Y-99599571D01*
X158956015Y-99473944D01*
X158956009Y-99473941D01*
X158956006Y-99473940D01*
X158733883Y-99381933D01*
X158665292Y-99365466D01*
X158665292Y-97328226D01*
X158673325Y-97352950D01*
X158766815Y-97514880D01*
X158891930Y-97653834D01*
X159043200Y-97763738D01*
X159214015Y-97839790D01*
X159360331Y-97870890D01*
X159396909Y-97878665D01*
X159396910Y-97878665D01*
X159583891Y-97878665D01*
X159614372Y-97872185D01*
X159766785Y-97839790D01*
X159937600Y-97763738D01*
X160088870Y-97653834D01*
X160213985Y-97514880D01*
X160307475Y-97352950D01*
X160365255Y-97175121D01*
X160384800Y-96989165D01*
X160384800Y-96989160D01*
X160365256Y-96803216D01*
X160365255Y-96803211D01*
X160365255Y-96803209D01*
X160307475Y-96625380D01*
X160213985Y-96463450D01*
X160088870Y-96324496D01*
X160020559Y-96274865D01*
X160665291Y-96274865D01*
X160739191Y-96274865D01*
X160795692Y-96295430D01*
G37*
%TD.AperFunction*%
%TD*%
%TA.AperFunction,Conductor*%
%TO.N,GND*%
G36*
X167484399Y-108835472D02*
G01*
X167484399Y-108835473D01*
X167538686Y-108942016D01*
X167538687Y-108942017D01*
X167538689Y-108942020D01*
X167623245Y-109026576D01*
X167623247Y-109026577D01*
X167623248Y-109026578D01*
X167729791Y-109080865D01*
X167744459Y-109083188D01*
X167847900Y-109099571D01*
X167966008Y-109080865D01*
X168072555Y-109026576D01*
X168110746Y-108988384D01*
X168165239Y-108962974D01*
X168223317Y-108978537D01*
X168235048Y-108988379D01*
X168273245Y-109026576D01*
X168273247Y-109026577D01*
X168273248Y-109026578D01*
X168379791Y-109080865D01*
X168394459Y-109083188D01*
X168497900Y-109099571D01*
X168616008Y-109080865D01*
X168722555Y-109026576D01*
X168807111Y-108942020D01*
X168861400Y-108835473D01*
X168870999Y-108774865D01*
X169983998Y-108774865D01*
X169983998Y-108885904D01*
X169963433Y-108942405D01*
X169911362Y-108972469D01*
X169852148Y-108962028D01*
X169844434Y-108957019D01*
X169842551Y-108955651D01*
X169736008Y-108901364D01*
X169617900Y-108882659D01*
X169499792Y-108901364D01*
X169499791Y-108901364D01*
X169393248Y-108955651D01*
X169308686Y-109040213D01*
X169254399Y-109146756D01*
X169254399Y-109146757D01*
X169235694Y-109264865D01*
X169254399Y-109382972D01*
X169254399Y-109382973D01*
X169308686Y-109489516D01*
X169308687Y-109489517D01*
X169308689Y-109489520D01*
X169393245Y-109574076D01*
X169393247Y-109574077D01*
X169393248Y-109574078D01*
X169499791Y-109628365D01*
X169515939Y-109630922D01*
X169617900Y-109647071D01*
X169736008Y-109628365D01*
X169842555Y-109574076D01*
X169842558Y-109574072D01*
X169844428Y-109572715D01*
X169846257Y-109572190D01*
X169848719Y-109570936D01*
X169848962Y-109571414D01*
X169902225Y-109556139D01*
X169957155Y-109580592D01*
X169983516Y-109634633D01*
X169983998Y-109643825D01*
X169983998Y-124118208D01*
X169983994Y-124118254D01*
X169983997Y-124162565D01*
X169983726Y-124169462D01*
X169968875Y-124358317D01*
X169966718Y-124371942D01*
X169923310Y-124552789D01*
X169919048Y-124565908D01*
X169847884Y-124737733D01*
X169841622Y-124750023D01*
X169744451Y-124908602D01*
X169736344Y-124919762D01*
X169615560Y-125061187D01*
X169605806Y-125070941D01*
X169464386Y-125191727D01*
X169453226Y-125199835D01*
X169294654Y-125297007D01*
X169282363Y-125303270D01*
X169110533Y-125374440D01*
X169097414Y-125378702D01*
X168916568Y-125422113D01*
X168902944Y-125424270D01*
X168714507Y-125439093D01*
X168707612Y-125439364D01*
X168677362Y-125439363D01*
X168670759Y-125439363D01*
X168670758Y-125439363D01*
X168662385Y-125439363D01*
X168662365Y-125439365D01*
X153758747Y-125439365D01*
X153758739Y-125439364D01*
X153712077Y-125439364D01*
X153705182Y-125439093D01*
X153516324Y-125424234D01*
X153502701Y-125422077D01*
X153341988Y-125383496D01*
X153321851Y-125378662D01*
X153308746Y-125374405D01*
X153136903Y-125303228D01*
X153124626Y-125296972D01*
X152966043Y-125199794D01*
X152954884Y-125191687D01*
X152813463Y-125070905D01*
X152803710Y-125061152D01*
X152682926Y-124919736D01*
X152674818Y-124908577D01*
X152577642Y-124750001D01*
X152571380Y-124737711D01*
X152500205Y-124565882D01*
X152495943Y-124552764D01*
X152476210Y-124470570D01*
X152452527Y-124371925D01*
X152450370Y-124358305D01*
X152435537Y-124169835D01*
X152435266Y-124162938D01*
X152435266Y-122896865D01*
X160271694Y-122896865D01*
X160290399Y-123014972D01*
X160290399Y-123014973D01*
X160344686Y-123121516D01*
X160344687Y-123121517D01*
X160344689Y-123121520D01*
X160429245Y-123206076D01*
X160429247Y-123206077D01*
X160429248Y-123206078D01*
X160535791Y-123260365D01*
X160551939Y-123262922D01*
X160653900Y-123279071D01*
X160772008Y-123260365D01*
X160878555Y-123206076D01*
X160963111Y-123121520D01*
X161017400Y-123014973D01*
X161036106Y-122896865D01*
X161017400Y-122778757D01*
X161017400Y-122778756D01*
X160963113Y-122672213D01*
X160963112Y-122672212D01*
X160963111Y-122672210D01*
X160878555Y-122587654D01*
X160878552Y-122587652D01*
X160878551Y-122587651D01*
X160772008Y-122533364D01*
X160653900Y-122514659D01*
X160535792Y-122533364D01*
X160535791Y-122533364D01*
X160429248Y-122587651D01*
X160344686Y-122672213D01*
X160290399Y-122778756D01*
X160290399Y-122778757D01*
X160271694Y-122896865D01*
X152435266Y-122896865D01*
X152435266Y-122113263D01*
X158921694Y-122113263D01*
X158940399Y-122231370D01*
X158940399Y-122231371D01*
X158994686Y-122337914D01*
X158994687Y-122337915D01*
X158994689Y-122337918D01*
X159079245Y-122422474D01*
X159079247Y-122422475D01*
X159079248Y-122422476D01*
X159185791Y-122476763D01*
X159201939Y-122479320D01*
X159303900Y-122495469D01*
X159422008Y-122476763D01*
X159528555Y-122422474D01*
X159604164Y-122346865D01*
X162021694Y-122346865D01*
X162040399Y-122464972D01*
X162040399Y-122464973D01*
X162094686Y-122571516D01*
X162094687Y-122571517D01*
X162094689Y-122571520D01*
X162179245Y-122656076D01*
X162179247Y-122656077D01*
X162179248Y-122656078D01*
X162285791Y-122710365D01*
X162301939Y-122712922D01*
X162403900Y-122729071D01*
X162522008Y-122710365D01*
X162628555Y-122656076D01*
X162713111Y-122571520D01*
X162767400Y-122464973D01*
X162786106Y-122346865D01*
X162767400Y-122228757D01*
X162767400Y-122228756D01*
X162713113Y-122122213D01*
X162713112Y-122122212D01*
X162713111Y-122122210D01*
X162628555Y-122037654D01*
X162628552Y-122037652D01*
X162628551Y-122037651D01*
X162522008Y-121983364D01*
X162403900Y-121964659D01*
X162285792Y-121983364D01*
X162285791Y-121983364D01*
X162179248Y-122037651D01*
X162094686Y-122122213D01*
X162040399Y-122228756D01*
X162040399Y-122228757D01*
X162021694Y-122346865D01*
X159604164Y-122346865D01*
X159613111Y-122337918D01*
X159667400Y-122231371D01*
X159686106Y-122113263D01*
X159667400Y-121995155D01*
X159667400Y-121995154D01*
X159613113Y-121888611D01*
X159613112Y-121888610D01*
X159613111Y-121888608D01*
X159528555Y-121804052D01*
X159528552Y-121804050D01*
X159528551Y-121804049D01*
X159422008Y-121749762D01*
X159303900Y-121731057D01*
X159185792Y-121749762D01*
X159185791Y-121749762D01*
X159079248Y-121804049D01*
X158994686Y-121888611D01*
X158940399Y-121995154D01*
X158940399Y-121995155D01*
X158921694Y-122113263D01*
X152435266Y-122113263D01*
X152435266Y-121698163D01*
X157971694Y-121698163D01*
X157990399Y-121816270D01*
X157990399Y-121816271D01*
X158044686Y-121922814D01*
X158044687Y-121922815D01*
X158044689Y-121922818D01*
X158129245Y-122007374D01*
X158129247Y-122007375D01*
X158129248Y-122007376D01*
X158235791Y-122061663D01*
X158251939Y-122064220D01*
X158353900Y-122080369D01*
X158472008Y-122061663D01*
X158578555Y-122007374D01*
X158663111Y-121922818D01*
X158717400Y-121816271D01*
X158736106Y-121698163D01*
X158717400Y-121580055D01*
X158717400Y-121580054D01*
X158663113Y-121473511D01*
X158663112Y-121473510D01*
X158663111Y-121473508D01*
X158578555Y-121388952D01*
X158578552Y-121388950D01*
X158578551Y-121388949D01*
X158472008Y-121334662D01*
X158353900Y-121315957D01*
X158235792Y-121334662D01*
X158235791Y-121334662D01*
X158129248Y-121388949D01*
X158044686Y-121473511D01*
X157990399Y-121580054D01*
X157990399Y-121580055D01*
X157971694Y-121698163D01*
X152435266Y-121698163D01*
X152435266Y-121283063D01*
X159471694Y-121283063D01*
X159490399Y-121401170D01*
X159490399Y-121401171D01*
X159544686Y-121507714D01*
X159544687Y-121507715D01*
X159544689Y-121507718D01*
X159629245Y-121592274D01*
X159629247Y-121592275D01*
X159629248Y-121592276D01*
X159735791Y-121646563D01*
X159751939Y-121649120D01*
X159853900Y-121665269D01*
X159972008Y-121646563D01*
X160078555Y-121592274D01*
X160163111Y-121507718D01*
X160217400Y-121401171D01*
X160236106Y-121283063D01*
X160217400Y-121164955D01*
X160217400Y-121164954D01*
X160163113Y-121058411D01*
X160163112Y-121058410D01*
X160163111Y-121058408D01*
X160078555Y-120973852D01*
X160078552Y-120973850D01*
X160078551Y-120973849D01*
X159972008Y-120919562D01*
X159853900Y-120900857D01*
X159735792Y-120919562D01*
X159735791Y-120919562D01*
X159629248Y-120973849D01*
X159544686Y-121058411D01*
X159490399Y-121164954D01*
X159490399Y-121164955D01*
X159471694Y-121283063D01*
X152435266Y-121283063D01*
X152435266Y-119889265D01*
X153260694Y-119889265D01*
X153279399Y-120007372D01*
X153279399Y-120007373D01*
X153333686Y-120113916D01*
X153333687Y-120113917D01*
X153333689Y-120113920D01*
X153418245Y-120198476D01*
X153418247Y-120198477D01*
X153418248Y-120198478D01*
X153524791Y-120252765D01*
X153540939Y-120255322D01*
X153642900Y-120271471D01*
X153761008Y-120252765D01*
X153867555Y-120198476D01*
X153890705Y-120175325D01*
X153945195Y-120149916D01*
X154003274Y-120165477D01*
X154031177Y-120197575D01*
X154059007Y-120252195D01*
X154059008Y-120252196D01*
X154059010Y-120252199D01*
X154143566Y-120336755D01*
X154143568Y-120336756D01*
X154143569Y-120336757D01*
X154250112Y-120391044D01*
X154266260Y-120393601D01*
X154368221Y-120409750D01*
X154438198Y-120398667D01*
X161073496Y-120398667D01*
X161092201Y-120516774D01*
X161092201Y-120516775D01*
X161146488Y-120623318D01*
X161146489Y-120623319D01*
X161146491Y-120623322D01*
X161231047Y-120707878D01*
X161231049Y-120707879D01*
X161231050Y-120707880D01*
X161337593Y-120762167D01*
X161353741Y-120764724D01*
X161455702Y-120780873D01*
X161573810Y-120762167D01*
X161680357Y-120707878D01*
X161764913Y-120623322D01*
X161819202Y-120516775D01*
X161837908Y-120398667D01*
X161831872Y-120360559D01*
X162144070Y-120360559D01*
X162162775Y-120478666D01*
X162162775Y-120478667D01*
X162217062Y-120585210D01*
X162217063Y-120585211D01*
X162217065Y-120585214D01*
X162301621Y-120669770D01*
X162301623Y-120669771D01*
X162301624Y-120669772D01*
X162408167Y-120724059D01*
X162453934Y-120731307D01*
X162503004Y-120739079D01*
X162555593Y-120768229D01*
X162576072Y-120812147D01*
X162591623Y-120910339D01*
X162591623Y-120910340D01*
X162645910Y-121016883D01*
X162645911Y-121016884D01*
X162645913Y-121016887D01*
X162730469Y-121101443D01*
X162730471Y-121101444D01*
X162730472Y-121101445D01*
X162837015Y-121155732D01*
X162853163Y-121158289D01*
X162955124Y-121174438D01*
X163073232Y-121155732D01*
X163179779Y-121101443D01*
X163264335Y-121016887D01*
X163318624Y-120910340D01*
X163337330Y-120792232D01*
X163334619Y-120775114D01*
X163346092Y-120716093D01*
X163392820Y-120678254D01*
X163407683Y-120674548D01*
X163488332Y-120661775D01*
X163594879Y-120607486D01*
X163679435Y-120522930D01*
X163733724Y-120416383D01*
X163752430Y-120298275D01*
X163752430Y-120298274D01*
X163752430Y-120296487D01*
X163752931Y-120295109D01*
X163753512Y-120291443D01*
X163754224Y-120291555D01*
X163772995Y-120239986D01*
X163825066Y-120209922D01*
X163826500Y-120209682D01*
X163903432Y-120197498D01*
X164009979Y-120143209D01*
X164094535Y-120058653D01*
X164130518Y-119988033D01*
X164174490Y-119947028D01*
X164234535Y-119943881D01*
X164248742Y-119949621D01*
X164345191Y-119998765D01*
X164361339Y-120001322D01*
X164463300Y-120017471D01*
X164581408Y-119998765D01*
X164687955Y-119944476D01*
X164772511Y-119859920D01*
X164826800Y-119753373D01*
X164845506Y-119635265D01*
X164826800Y-119517157D01*
X164826800Y-119517156D01*
X164791541Y-119447957D01*
X164784213Y-119388278D01*
X164816960Y-119337851D01*
X164829942Y-119329738D01*
X164932091Y-119277691D01*
X165016647Y-119193135D01*
X165070936Y-119086588D01*
X165089642Y-118968480D01*
X165070936Y-118850372D01*
X165070936Y-118850371D01*
X165016649Y-118743828D01*
X165016648Y-118743827D01*
X165016647Y-118743825D01*
X164932091Y-118659269D01*
X164932088Y-118659267D01*
X164932087Y-118659266D01*
X164825544Y-118604979D01*
X164707436Y-118586274D01*
X164589328Y-118604979D01*
X164589327Y-118604979D01*
X164482784Y-118659266D01*
X164398222Y-118743828D01*
X164343935Y-118850371D01*
X164343935Y-118850372D01*
X164325230Y-118968480D01*
X164343935Y-119086586D01*
X164379195Y-119155788D01*
X164386522Y-119215467D01*
X164353774Y-119265893D01*
X164340781Y-119274012D01*
X164238648Y-119326051D01*
X164154086Y-119410613D01*
X164118106Y-119481228D01*
X164074132Y-119522235D01*
X164014087Y-119525381D01*
X163999881Y-119519641D01*
X163903432Y-119470497D01*
X163785324Y-119451792D01*
X163667216Y-119470497D01*
X163667215Y-119470497D01*
X163560672Y-119524784D01*
X163476110Y-119609346D01*
X163421823Y-119715889D01*
X163421823Y-119715890D01*
X163403118Y-119833998D01*
X163403118Y-119835785D01*
X163402617Y-119837161D01*
X163402036Y-119840830D01*
X163401322Y-119840717D01*
X163382553Y-119892286D01*
X163330482Y-119922350D01*
X163328968Y-119922603D01*
X163252116Y-119934774D01*
X163252115Y-119934774D01*
X163145572Y-119989061D01*
X163061010Y-120073623D01*
X163010701Y-120172360D01*
X162966727Y-120213367D01*
X162906682Y-120216513D01*
X162858663Y-120180327D01*
X162854063Y-120172360D01*
X162835489Y-120135907D01*
X162835488Y-120135906D01*
X162835487Y-120135904D01*
X162750931Y-120051348D01*
X162750928Y-120051346D01*
X162750927Y-120051345D01*
X162644384Y-119997058D01*
X162526276Y-119978353D01*
X162408168Y-119997058D01*
X162408167Y-119997058D01*
X162301624Y-120051345D01*
X162217062Y-120135907D01*
X162162775Y-120242450D01*
X162162775Y-120242451D01*
X162144070Y-120360559D01*
X161831872Y-120360559D01*
X161819202Y-120280559D01*
X161819202Y-120280558D01*
X161764915Y-120174015D01*
X161764914Y-120174014D01*
X161764913Y-120174012D01*
X161680357Y-120089456D01*
X161680354Y-120089454D01*
X161680353Y-120089453D01*
X161573810Y-120035166D01*
X161455702Y-120016461D01*
X161337594Y-120035166D01*
X161337593Y-120035166D01*
X161231050Y-120089453D01*
X161146488Y-120174015D01*
X161092201Y-120280558D01*
X161092201Y-120280559D01*
X161073496Y-120398667D01*
X154438198Y-120398667D01*
X154486329Y-120391044D01*
X154592876Y-120336755D01*
X154677432Y-120252199D01*
X154731721Y-120145652D01*
X154750427Y-120027544D01*
X154731721Y-119909436D01*
X154731721Y-119909435D01*
X154695560Y-119838465D01*
X158239587Y-119838465D01*
X158258292Y-119956572D01*
X158258292Y-119956573D01*
X158312579Y-120063116D01*
X158312580Y-120063117D01*
X158312582Y-120063120D01*
X158397138Y-120147676D01*
X158397140Y-120147677D01*
X158397141Y-120147678D01*
X158503684Y-120201965D01*
X158519832Y-120204522D01*
X158621793Y-120220671D01*
X158739901Y-120201965D01*
X158846448Y-120147676D01*
X158931004Y-120063120D01*
X158985293Y-119956573D01*
X159003999Y-119838465D01*
X158985293Y-119720357D01*
X158985293Y-119720356D01*
X158931006Y-119613813D01*
X158931005Y-119613812D01*
X158931004Y-119613810D01*
X158846448Y-119529254D01*
X158846445Y-119529252D01*
X158846444Y-119529251D01*
X158739901Y-119474964D01*
X158621793Y-119456259D01*
X158503685Y-119474964D01*
X158503684Y-119474964D01*
X158397141Y-119529251D01*
X158312579Y-119613813D01*
X158258292Y-119720356D01*
X158258292Y-119720357D01*
X158239587Y-119838465D01*
X154695560Y-119838465D01*
X154677434Y-119802892D01*
X154677433Y-119802891D01*
X154677432Y-119802889D01*
X154592876Y-119718333D01*
X154592873Y-119718331D01*
X154592872Y-119718330D01*
X154486329Y-119664043D01*
X154368221Y-119645338D01*
X154250113Y-119664043D01*
X154250112Y-119664043D01*
X154143569Y-119718330D01*
X154143568Y-119718330D01*
X154120416Y-119741483D01*
X154065921Y-119766893D01*
X154007843Y-119751330D01*
X153979943Y-119719233D01*
X153952111Y-119664610D01*
X153867555Y-119580054D01*
X153867552Y-119580052D01*
X153867551Y-119580051D01*
X153761008Y-119525764D01*
X153642900Y-119507059D01*
X153524792Y-119525764D01*
X153524791Y-119525764D01*
X153418248Y-119580051D01*
X153333686Y-119664613D01*
X153279399Y-119771156D01*
X153279399Y-119771157D01*
X153260694Y-119889265D01*
X152435266Y-119889265D01*
X152435266Y-118811388D01*
X157569609Y-118811388D01*
X157588314Y-118929495D01*
X157588314Y-118929496D01*
X157642601Y-119036039D01*
X157642602Y-119036040D01*
X157642604Y-119036043D01*
X157727160Y-119120599D01*
X157727162Y-119120600D01*
X157727163Y-119120601D01*
X157833706Y-119174888D01*
X157849854Y-119177445D01*
X157951815Y-119193594D01*
X158069923Y-119174888D01*
X158176470Y-119120599D01*
X158261026Y-119036043D01*
X158266314Y-119025665D01*
X159938894Y-119025665D01*
X159957599Y-119143772D01*
X159957599Y-119143773D01*
X160011886Y-119250316D01*
X160011887Y-119250317D01*
X160011889Y-119250320D01*
X160096445Y-119334876D01*
X160096447Y-119334877D01*
X160096448Y-119334878D01*
X160202991Y-119389165D01*
X160219139Y-119391722D01*
X160321100Y-119407871D01*
X160439208Y-119389165D01*
X160545755Y-119334876D01*
X160630311Y-119250320D01*
X160632071Y-119246865D01*
X160971694Y-119246865D01*
X160990399Y-119364972D01*
X160990399Y-119364973D01*
X161044686Y-119471516D01*
X161044687Y-119471517D01*
X161044689Y-119471520D01*
X161129245Y-119556076D01*
X161129247Y-119556077D01*
X161129248Y-119556078D01*
X161235791Y-119610365D01*
X161251939Y-119612922D01*
X161353900Y-119629071D01*
X161472008Y-119610365D01*
X161578555Y-119556076D01*
X161663111Y-119471520D01*
X161717400Y-119364973D01*
X161736106Y-119246865D01*
X161717400Y-119128757D01*
X161717400Y-119128756D01*
X161663113Y-119022213D01*
X161663112Y-119022212D01*
X161663111Y-119022210D01*
X161578555Y-118937654D01*
X161578552Y-118937652D01*
X161578551Y-118937651D01*
X161472008Y-118883364D01*
X161353900Y-118864659D01*
X161235792Y-118883364D01*
X161235791Y-118883364D01*
X161129248Y-118937651D01*
X161044686Y-119022213D01*
X160990399Y-119128756D01*
X160990399Y-119128757D01*
X160971694Y-119246865D01*
X160632071Y-119246865D01*
X160684600Y-119143773D01*
X160703306Y-119025665D01*
X160684600Y-118907557D01*
X160684600Y-118907556D01*
X160630313Y-118801013D01*
X160630312Y-118801012D01*
X160630311Y-118801010D01*
X160545755Y-118716454D01*
X160545752Y-118716452D01*
X160545751Y-118716451D01*
X160439208Y-118662164D01*
X160321100Y-118643459D01*
X160202992Y-118662164D01*
X160202991Y-118662164D01*
X160096448Y-118716451D01*
X160011886Y-118801013D01*
X159957599Y-118907556D01*
X159957599Y-118907557D01*
X159938894Y-119025665D01*
X158266314Y-119025665D01*
X158315315Y-118929496D01*
X158334021Y-118811388D01*
X158315315Y-118693280D01*
X158315315Y-118693279D01*
X158261028Y-118586736D01*
X158261027Y-118586735D01*
X158261026Y-118586733D01*
X158176470Y-118502177D01*
X158176467Y-118502175D01*
X158176466Y-118502174D01*
X158069923Y-118447887D01*
X157951815Y-118429182D01*
X157833707Y-118447887D01*
X157833706Y-118447887D01*
X157727163Y-118502174D01*
X157642601Y-118586736D01*
X157588314Y-118693279D01*
X157588314Y-118693280D01*
X157569609Y-118811388D01*
X152435266Y-118811388D01*
X152435266Y-118326857D01*
X152445198Y-118299569D01*
X159212798Y-118299569D01*
X159231503Y-118417676D01*
X159231503Y-118417677D01*
X159285790Y-118524220D01*
X159285791Y-118524221D01*
X159285793Y-118524224D01*
X159370349Y-118608780D01*
X159370351Y-118608781D01*
X159370352Y-118608782D01*
X159476895Y-118663069D01*
X159493043Y-118665626D01*
X159595004Y-118681775D01*
X159713112Y-118663069D01*
X159819659Y-118608780D01*
X159904215Y-118524224D01*
X159958504Y-118417677D01*
X159977210Y-118299569D01*
X159958504Y-118181461D01*
X159958504Y-118181460D01*
X159904217Y-118074917D01*
X159904216Y-118074916D01*
X159904215Y-118074914D01*
X159819659Y-117990358D01*
X159819656Y-117990356D01*
X159819655Y-117990355D01*
X159713112Y-117936068D01*
X159595004Y-117917363D01*
X159476896Y-117936068D01*
X159476895Y-117936068D01*
X159370352Y-117990355D01*
X159285790Y-118074917D01*
X159231503Y-118181460D01*
X159231503Y-118181461D01*
X159212798Y-118299569D01*
X152445198Y-118299569D01*
X152455831Y-118270356D01*
X152507902Y-118240292D01*
X152563072Y-118248537D01*
X152566658Y-118250365D01*
X152684766Y-118269071D01*
X152802874Y-118250365D01*
X152909421Y-118196076D01*
X152993977Y-118111520D01*
X153048266Y-118004973D01*
X153066972Y-117886865D01*
X165121694Y-117886865D01*
X165140399Y-118004972D01*
X165140399Y-118004973D01*
X165194686Y-118111516D01*
X165194687Y-118111517D01*
X165194689Y-118111520D01*
X165279245Y-118196076D01*
X165279247Y-118196077D01*
X165279248Y-118196078D01*
X165385791Y-118250365D01*
X165401939Y-118252922D01*
X165503900Y-118269071D01*
X165622008Y-118250365D01*
X165728555Y-118196076D01*
X165813111Y-118111520D01*
X165867400Y-118004973D01*
X165869881Y-117989306D01*
X165899029Y-117936717D01*
X165955161Y-117915167D01*
X166012013Y-117934741D01*
X166035018Y-117963148D01*
X166074860Y-118041342D01*
X166074861Y-118041343D01*
X166074863Y-118041346D01*
X166159419Y-118125902D01*
X166159421Y-118125903D01*
X166159422Y-118125904D01*
X166265965Y-118180191D01*
X166282113Y-118182748D01*
X166384074Y-118198897D01*
X166502182Y-118180191D01*
X166608729Y-118125902D01*
X166693285Y-118041346D01*
X166747574Y-117934799D01*
X166766280Y-117816691D01*
X166747574Y-117698583D01*
X166747574Y-117698582D01*
X166693287Y-117592039D01*
X166693286Y-117592038D01*
X166693285Y-117592036D01*
X166608729Y-117507480D01*
X166608726Y-117507478D01*
X166608725Y-117507477D01*
X166502182Y-117453190D01*
X166384074Y-117434485D01*
X166265966Y-117453190D01*
X166265965Y-117453190D01*
X166159422Y-117507477D01*
X166074860Y-117592039D01*
X166020573Y-117698582D01*
X166018092Y-117714252D01*
X165988941Y-117766840D01*
X165932807Y-117788388D01*
X165875956Y-117768812D01*
X165852956Y-117740409D01*
X165813111Y-117662210D01*
X165728555Y-117577654D01*
X165728552Y-117577652D01*
X165728551Y-117577651D01*
X165622008Y-117523364D01*
X165503900Y-117504659D01*
X165385792Y-117523364D01*
X165385791Y-117523364D01*
X165279248Y-117577651D01*
X165194686Y-117662213D01*
X165140399Y-117768756D01*
X165140399Y-117768757D01*
X165121694Y-117886865D01*
X153066972Y-117886865D01*
X153048266Y-117768757D01*
X153048266Y-117768756D01*
X152993979Y-117662213D01*
X152993978Y-117662212D01*
X152993977Y-117662210D01*
X152909421Y-117577654D01*
X152909418Y-117577652D01*
X152909417Y-117577651D01*
X152802874Y-117523364D01*
X152684766Y-117504659D01*
X152566658Y-117523364D01*
X152566654Y-117523366D01*
X152563066Y-117525194D01*
X152503387Y-117532518D01*
X152452962Y-117499767D01*
X152435266Y-117446872D01*
X152435266Y-117298465D01*
X157322694Y-117298465D01*
X157341399Y-117416572D01*
X157341399Y-117416573D01*
X157395686Y-117523116D01*
X157395687Y-117523117D01*
X157395689Y-117523120D01*
X157480245Y-117607676D01*
X157480247Y-117607677D01*
X157480248Y-117607678D01*
X157586791Y-117661965D01*
X157602939Y-117664522D01*
X157704900Y-117680671D01*
X157823008Y-117661965D01*
X157929555Y-117607676D01*
X158014111Y-117523120D01*
X158068400Y-117416573D01*
X158087106Y-117298465D01*
X158068400Y-117180357D01*
X158068400Y-117180356D01*
X158014113Y-117073813D01*
X158014112Y-117073812D01*
X158014111Y-117073810D01*
X157929555Y-116989254D01*
X157929552Y-116989252D01*
X157929551Y-116989251D01*
X157823008Y-116934964D01*
X157704900Y-116916259D01*
X157586792Y-116934964D01*
X157586791Y-116934964D01*
X157480248Y-116989251D01*
X157395686Y-117073813D01*
X157341399Y-117180356D01*
X157341399Y-117180357D01*
X157322694Y-117298465D01*
X152435266Y-117298465D01*
X152435266Y-116298407D01*
X160523785Y-116298407D01*
X160542490Y-116416514D01*
X160542490Y-116416515D01*
X160596777Y-116523058D01*
X160596778Y-116523059D01*
X160596780Y-116523062D01*
X160681336Y-116607618D01*
X160681338Y-116607619D01*
X160681339Y-116607620D01*
X160787882Y-116661907D01*
X160804030Y-116664464D01*
X160905991Y-116680613D01*
X161024099Y-116661907D01*
X161130646Y-116607618D01*
X161215202Y-116523062D01*
X161269491Y-116416515D01*
X161288197Y-116298407D01*
X161269491Y-116180299D01*
X161269491Y-116180298D01*
X161215204Y-116073755D01*
X161215203Y-116073754D01*
X161215202Y-116073752D01*
X161130646Y-115989196D01*
X161105203Y-115976232D01*
X161064198Y-115932258D01*
X161061051Y-115872214D01*
X161097236Y-115824194D01*
X161105194Y-115819598D01*
X161162140Y-115790583D01*
X161246696Y-115706027D01*
X161300985Y-115599480D01*
X161319691Y-115481372D01*
X161300985Y-115363264D01*
X161300985Y-115363263D01*
X161282236Y-115326467D01*
X161274908Y-115266788D01*
X161307655Y-115216361D01*
X161365155Y-115198781D01*
X161420502Y-115222275D01*
X161422681Y-115224378D01*
X161426351Y-115228048D01*
X161426353Y-115228049D01*
X161426354Y-115228050D01*
X161532897Y-115282337D01*
X161549045Y-115284894D01*
X161651006Y-115301043D01*
X161769114Y-115282337D01*
X161875661Y-115228048D01*
X161960217Y-115143492D01*
X161961163Y-115141636D01*
X162936416Y-115141636D01*
X162955121Y-115259743D01*
X162955121Y-115259744D01*
X163009408Y-115366287D01*
X163009409Y-115366288D01*
X163009411Y-115366291D01*
X163093967Y-115450847D01*
X163093969Y-115450848D01*
X163093970Y-115450849D01*
X163200513Y-115505136D01*
X163216661Y-115507693D01*
X163318622Y-115523842D01*
X163421562Y-115507538D01*
X163443563Y-115504054D01*
X163443880Y-115506060D01*
X163494945Y-115507841D01*
X163539630Y-115548071D01*
X163548001Y-115607613D01*
X163540342Y-115629244D01*
X163534896Y-115639933D01*
X163530399Y-115648759D01*
X163511694Y-115766865D01*
X163530399Y-115884972D01*
X163530399Y-115884973D01*
X163584686Y-115991516D01*
X163584687Y-115991517D01*
X163584689Y-115991520D01*
X163669245Y-116076076D01*
X163669247Y-116076077D01*
X163669248Y-116076078D01*
X163775791Y-116130365D01*
X163791939Y-116132922D01*
X163893900Y-116149071D01*
X164012008Y-116130365D01*
X164118555Y-116076076D01*
X164203111Y-115991520D01*
X164257400Y-115884973D01*
X164276106Y-115766865D01*
X164257400Y-115648757D01*
X164257400Y-115648756D01*
X164215728Y-115566971D01*
X165905192Y-115566971D01*
X165923897Y-115685078D01*
X165923897Y-115685079D01*
X165978184Y-115791622D01*
X165978185Y-115791623D01*
X165978187Y-115791626D01*
X166062743Y-115876182D01*
X166062745Y-115876183D01*
X166062746Y-115876184D01*
X166169289Y-115930471D01*
X166180573Y-115932258D01*
X166287398Y-115949177D01*
X166405506Y-115930471D01*
X166512053Y-115876182D01*
X166596609Y-115791626D01*
X166613721Y-115758042D01*
X167334517Y-115758042D01*
X167353222Y-115876149D01*
X167353222Y-115876150D01*
X167407509Y-115982693D01*
X167407510Y-115982694D01*
X167407512Y-115982697D01*
X167492068Y-116067253D01*
X167492070Y-116067254D01*
X167492071Y-116067255D01*
X167598614Y-116121542D01*
X167617320Y-116124504D01*
X167716723Y-116140248D01*
X167830744Y-116122189D01*
X167889766Y-116133662D01*
X167927605Y-116180390D01*
X167931312Y-116222757D01*
X167915821Y-116320569D01*
X167934526Y-116438677D01*
X167934526Y-116438678D01*
X167988813Y-116545221D01*
X167988814Y-116545222D01*
X167988816Y-116545225D01*
X168073372Y-116629781D01*
X168073374Y-116629782D01*
X168073375Y-116629783D01*
X168179918Y-116684070D01*
X168196066Y-116686627D01*
X168298027Y-116702776D01*
X168416135Y-116684070D01*
X168522682Y-116629781D01*
X168607238Y-116545225D01*
X168661527Y-116438678D01*
X168680233Y-116320570D01*
X168661527Y-116202462D01*
X168661527Y-116202461D01*
X168607240Y-116095918D01*
X168607239Y-116095917D01*
X168607238Y-116095915D01*
X168522682Y-116011359D01*
X168522679Y-116011357D01*
X168522678Y-116011356D01*
X168416135Y-115957069D01*
X168298027Y-115938364D01*
X168184005Y-115956422D01*
X168124982Y-115944948D01*
X168087144Y-115898221D01*
X168083437Y-115855855D01*
X168098929Y-115758042D01*
X168080223Y-115639934D01*
X168080223Y-115639933D01*
X168025936Y-115533390D01*
X168025935Y-115533389D01*
X168025934Y-115533387D01*
X167941378Y-115448831D01*
X167941375Y-115448829D01*
X167941374Y-115448828D01*
X167834831Y-115394541D01*
X167716723Y-115375836D01*
X167598615Y-115394541D01*
X167598614Y-115394541D01*
X167492071Y-115448828D01*
X167407509Y-115533390D01*
X167353222Y-115639933D01*
X167353222Y-115639934D01*
X167334517Y-115758042D01*
X166613721Y-115758042D01*
X166650898Y-115685079D01*
X166669604Y-115566971D01*
X166650898Y-115448863D01*
X166650898Y-115448862D01*
X166596611Y-115342319D01*
X166596610Y-115342318D01*
X166596609Y-115342316D01*
X166512053Y-115257760D01*
X166512050Y-115257758D01*
X166512049Y-115257757D01*
X166405506Y-115203470D01*
X166287398Y-115184765D01*
X166169290Y-115203470D01*
X166169289Y-115203470D01*
X166062746Y-115257757D01*
X165978184Y-115342319D01*
X165923897Y-115448862D01*
X165923897Y-115448863D01*
X165905192Y-115566971D01*
X164215728Y-115566971D01*
X164203113Y-115542213D01*
X164203112Y-115542212D01*
X164203111Y-115542210D01*
X164118555Y-115457654D01*
X164118552Y-115457652D01*
X164118551Y-115457651D01*
X164012008Y-115403364D01*
X163893900Y-115384659D01*
X163768959Y-115404447D01*
X163768641Y-115402444D01*
X163717556Y-115400651D01*
X163672881Y-115360409D01*
X163664525Y-115300865D01*
X163672178Y-115279259D01*
X163682122Y-115259744D01*
X163700828Y-115141636D01*
X163682122Y-115023528D01*
X163682122Y-115023527D01*
X163627835Y-114916984D01*
X163627834Y-114916983D01*
X163627833Y-114916981D01*
X163600264Y-114889412D01*
X163574854Y-114834920D01*
X163590417Y-114776842D01*
X163600259Y-114765110D01*
X163641564Y-114723806D01*
X163695853Y-114617259D01*
X163714559Y-114499151D01*
X163695853Y-114381043D01*
X163695853Y-114381042D01*
X163641566Y-114274499D01*
X163641565Y-114274498D01*
X163641564Y-114274496D01*
X163557008Y-114189940D01*
X163557005Y-114189938D01*
X163557004Y-114189937D01*
X163450461Y-114135650D01*
X163332353Y-114116945D01*
X163214245Y-114135650D01*
X163214244Y-114135650D01*
X163107701Y-114189937D01*
X163023139Y-114274499D01*
X162968852Y-114381042D01*
X162968852Y-114381043D01*
X162950147Y-114499151D01*
X162968852Y-114617258D01*
X162968852Y-114617259D01*
X163023139Y-114723802D01*
X163023140Y-114723803D01*
X163023142Y-114723806D01*
X163050710Y-114751374D01*
X163076121Y-114805867D01*
X163060558Y-114863945D01*
X163050715Y-114875676D01*
X163009411Y-114916981D01*
X163009408Y-114916984D01*
X162955121Y-115023527D01*
X162955121Y-115023528D01*
X162936416Y-115141636D01*
X161961163Y-115141636D01*
X162014506Y-115036945D01*
X162033212Y-114918837D01*
X162014506Y-114800729D01*
X162014506Y-114800728D01*
X161960219Y-114694185D01*
X161960218Y-114694184D01*
X161960217Y-114694182D01*
X161875661Y-114609626D01*
X161875658Y-114609624D01*
X161875657Y-114609623D01*
X161769114Y-114555336D01*
X161651006Y-114536631D01*
X161532898Y-114555336D01*
X161532897Y-114555336D01*
X161426354Y-114609623D01*
X161341792Y-114694185D01*
X161287505Y-114800728D01*
X161287505Y-114800729D01*
X161268800Y-114918837D01*
X161287505Y-115036943D01*
X161306255Y-115073742D01*
X161313582Y-115133421D01*
X161280834Y-115183847D01*
X161223334Y-115201427D01*
X161167987Y-115177933D01*
X161165809Y-115175830D01*
X161162140Y-115172161D01*
X161162137Y-115172159D01*
X161162136Y-115172158D01*
X161055593Y-115117871D01*
X160937485Y-115099166D01*
X160819377Y-115117871D01*
X160819376Y-115117871D01*
X160712833Y-115172158D01*
X160628271Y-115256720D01*
X160573984Y-115363263D01*
X160573984Y-115363264D01*
X160555279Y-115481372D01*
X160573984Y-115599479D01*
X160573984Y-115599480D01*
X160628271Y-115706023D01*
X160628272Y-115706024D01*
X160628274Y-115706027D01*
X160712830Y-115790583D01*
X160738270Y-115803545D01*
X160779277Y-115847519D01*
X160782425Y-115907563D01*
X160746240Y-115955583D01*
X160738272Y-115960184D01*
X160681338Y-115989194D01*
X160596777Y-116073755D01*
X160542490Y-116180298D01*
X160542490Y-116180299D01*
X160523785Y-116298407D01*
X152435266Y-116298407D01*
X152435266Y-115041300D01*
X152455831Y-114984799D01*
X152461000Y-114979156D01*
X153285761Y-114154395D01*
X160076829Y-114154395D01*
X160095534Y-114272502D01*
X160095534Y-114272503D01*
X160149821Y-114379046D01*
X160149822Y-114379047D01*
X160149824Y-114379050D01*
X160234380Y-114463606D01*
X160234382Y-114463607D01*
X160234383Y-114463608D01*
X160340926Y-114517895D01*
X160357074Y-114520452D01*
X160459035Y-114536601D01*
X160577143Y-114517895D01*
X160683690Y-114463606D01*
X160768246Y-114379050D01*
X160822535Y-114272503D01*
X160841241Y-114154395D01*
X160822535Y-114036287D01*
X160822535Y-114036286D01*
X160802449Y-113996865D01*
X164615694Y-113996865D01*
X164634399Y-114114972D01*
X164634399Y-114114973D01*
X164688686Y-114221516D01*
X164688687Y-114221517D01*
X164688689Y-114221520D01*
X164773245Y-114306076D01*
X164773247Y-114306077D01*
X164773248Y-114306078D01*
X164879791Y-114360365D01*
X164895939Y-114362922D01*
X164997900Y-114379071D01*
X165116008Y-114360365D01*
X165222555Y-114306076D01*
X165307111Y-114221520D01*
X165352049Y-114133325D01*
X165396022Y-114092321D01*
X165456066Y-114089174D01*
X165504086Y-114125359D01*
X165517185Y-114159483D01*
X165531991Y-114252972D01*
X165531991Y-114252973D01*
X165586278Y-114359516D01*
X165586279Y-114359517D01*
X165586281Y-114359520D01*
X165670837Y-114444076D01*
X165670839Y-114444077D01*
X165670840Y-114444078D01*
X165777383Y-114498365D01*
X165793531Y-114500922D01*
X165895492Y-114517071D01*
X166013600Y-114498365D01*
X166120147Y-114444076D01*
X166204703Y-114359520D01*
X166258992Y-114252973D01*
X166277698Y-114134865D01*
X166258992Y-114016757D01*
X166258992Y-114016756D01*
X166206056Y-113912865D01*
X168270694Y-113912865D01*
X168289399Y-114030972D01*
X168289399Y-114030973D01*
X168343686Y-114137516D01*
X168343687Y-114137517D01*
X168343689Y-114137520D01*
X168428245Y-114222076D01*
X168428247Y-114222077D01*
X168428248Y-114222078D01*
X168534791Y-114276365D01*
X168550939Y-114278922D01*
X168652900Y-114295071D01*
X168771008Y-114276365D01*
X168877555Y-114222076D01*
X168962111Y-114137520D01*
X169016400Y-114030973D01*
X169035106Y-113912865D01*
X169016400Y-113794757D01*
X169016400Y-113794756D01*
X168962113Y-113688213D01*
X168962112Y-113688212D01*
X168962111Y-113688210D01*
X168877555Y-113603654D01*
X168877552Y-113603652D01*
X168877551Y-113603651D01*
X168771008Y-113549364D01*
X168652900Y-113530659D01*
X168534792Y-113549364D01*
X168534791Y-113549364D01*
X168428248Y-113603651D01*
X168343686Y-113688213D01*
X168289399Y-113794756D01*
X168289399Y-113794757D01*
X168270694Y-113912865D01*
X166206056Y-113912865D01*
X166204705Y-113910213D01*
X166204704Y-113910212D01*
X166204703Y-113910210D01*
X166120147Y-113825654D01*
X166120144Y-113825652D01*
X166120143Y-113825651D01*
X166013600Y-113771364D01*
X165919639Y-113756483D01*
X165867050Y-113727333D01*
X165845502Y-113671199D01*
X165846571Y-113655915D01*
X165862598Y-113554724D01*
X165843892Y-113436616D01*
X165843892Y-113436615D01*
X165789605Y-113330072D01*
X165789604Y-113330071D01*
X165789603Y-113330069D01*
X165705047Y-113245513D01*
X165705044Y-113245511D01*
X165705043Y-113245510D01*
X165598500Y-113191223D01*
X165480392Y-113172518D01*
X165362284Y-113191223D01*
X165362283Y-113191223D01*
X165255740Y-113245510D01*
X165171178Y-113330072D01*
X165116891Y-113436615D01*
X165116891Y-113436616D01*
X165100222Y-113541868D01*
X165071072Y-113594457D01*
X165014938Y-113616005D01*
X164999662Y-113614937D01*
X164997906Y-113614659D01*
X164997900Y-113614659D01*
X164879792Y-113633364D01*
X164879791Y-113633364D01*
X164773248Y-113687651D01*
X164688686Y-113772213D01*
X164634399Y-113878756D01*
X164634399Y-113878757D01*
X164615694Y-113996865D01*
X160802449Y-113996865D01*
X160768248Y-113929743D01*
X160768247Y-113929742D01*
X160768246Y-113929740D01*
X160683690Y-113845184D01*
X160683687Y-113845182D01*
X160683686Y-113845181D01*
X160577143Y-113790894D01*
X160459035Y-113772189D01*
X160340927Y-113790894D01*
X160340926Y-113790894D01*
X160234383Y-113845181D01*
X160149821Y-113929743D01*
X160095534Y-114036286D01*
X160095534Y-114036287D01*
X160076829Y-114154395D01*
X153285761Y-114154395D01*
X154513291Y-112926865D01*
X158000772Y-112926865D01*
X158019477Y-113044972D01*
X158019477Y-113044973D01*
X158073764Y-113151516D01*
X158073765Y-113151517D01*
X158073767Y-113151520D01*
X158158323Y-113236076D01*
X158158325Y-113236077D01*
X158158326Y-113236078D01*
X158264869Y-113290365D01*
X158281017Y-113292922D01*
X158382978Y-113309071D01*
X158501086Y-113290365D01*
X158607633Y-113236076D01*
X158692189Y-113151520D01*
X158746478Y-113044973D01*
X158751515Y-113013169D01*
X160915502Y-113013169D01*
X160934207Y-113131276D01*
X160934207Y-113131277D01*
X160988494Y-113237820D01*
X160988495Y-113237821D01*
X160988497Y-113237824D01*
X161073053Y-113322380D01*
X161073055Y-113322381D01*
X161073056Y-113322382D01*
X161179599Y-113376669D01*
X161195747Y-113379226D01*
X161297708Y-113395375D01*
X161415816Y-113376669D01*
X161522363Y-113322380D01*
X161606919Y-113237824D01*
X161661208Y-113131277D01*
X161679914Y-113013169D01*
X163367828Y-113013169D01*
X163386533Y-113131276D01*
X163386533Y-113131277D01*
X163440820Y-113237820D01*
X163440821Y-113237821D01*
X163440823Y-113237824D01*
X163525379Y-113322380D01*
X163525381Y-113322381D01*
X163525382Y-113322382D01*
X163631925Y-113376669D01*
X163648073Y-113379226D01*
X163750034Y-113395375D01*
X163868142Y-113376669D01*
X163974689Y-113322380D01*
X164059245Y-113237824D01*
X164113534Y-113131277D01*
X164132240Y-113013169D01*
X164113534Y-112895061D01*
X164113534Y-112895060D01*
X164059247Y-112788517D01*
X164059246Y-112788516D01*
X164059245Y-112788514D01*
X163974689Y-112703958D01*
X163974686Y-112703956D01*
X163974685Y-112703955D01*
X163868142Y-112649668D01*
X163750034Y-112630963D01*
X163631926Y-112649668D01*
X163631925Y-112649668D01*
X163525382Y-112703955D01*
X163440820Y-112788517D01*
X163386533Y-112895060D01*
X163386533Y-112895061D01*
X163367828Y-113013169D01*
X161679914Y-113013169D01*
X161661208Y-112895061D01*
X161661208Y-112895060D01*
X161606921Y-112788517D01*
X161606920Y-112788516D01*
X161606919Y-112788514D01*
X161522363Y-112703958D01*
X161522360Y-112703956D01*
X161522359Y-112703955D01*
X161415816Y-112649668D01*
X161297708Y-112630963D01*
X161179600Y-112649668D01*
X161179599Y-112649668D01*
X161073056Y-112703955D01*
X160988494Y-112788517D01*
X160934207Y-112895060D01*
X160934207Y-112895061D01*
X160915502Y-113013169D01*
X158751515Y-113013169D01*
X158765184Y-112926865D01*
X158746478Y-112808757D01*
X158746478Y-112808756D01*
X158692191Y-112702213D01*
X158692190Y-112702212D01*
X158692189Y-112702210D01*
X158607633Y-112617654D01*
X158607630Y-112617652D01*
X158607629Y-112617651D01*
X158501086Y-112563364D01*
X158382978Y-112544659D01*
X158264870Y-112563364D01*
X158264869Y-112563364D01*
X158158326Y-112617651D01*
X158073764Y-112702213D01*
X158019477Y-112808756D01*
X158019477Y-112808757D01*
X158000772Y-112926865D01*
X154513291Y-112926865D01*
X155683628Y-111756528D01*
X162253752Y-111756528D01*
X162272457Y-111874635D01*
X162272457Y-111874636D01*
X162326744Y-111981179D01*
X162326745Y-111981180D01*
X162326747Y-111981183D01*
X162411303Y-112065739D01*
X162411305Y-112065740D01*
X162411306Y-112065741D01*
X162517849Y-112120028D01*
X162635958Y-112138734D01*
X162642876Y-112138734D01*
X162642876Y-112141548D01*
X162690803Y-112150850D01*
X162728656Y-112197566D01*
X162731404Y-112228889D01*
X162733030Y-112228889D01*
X162733030Y-112235805D01*
X162751735Y-112353913D01*
X162751735Y-112353914D01*
X162806022Y-112460457D01*
X162806023Y-112460458D01*
X162806025Y-112460461D01*
X162890581Y-112545017D01*
X162890583Y-112545018D01*
X162890584Y-112545019D01*
X162997127Y-112599306D01*
X163013275Y-112601863D01*
X163115236Y-112618012D01*
X163233344Y-112599306D01*
X163339891Y-112545017D01*
X163424447Y-112460461D01*
X163478736Y-112353914D01*
X163497442Y-112235806D01*
X163478736Y-112117698D01*
X163478736Y-112117697D01*
X163424449Y-112011154D01*
X163424448Y-112011153D01*
X163424447Y-112011151D01*
X163339891Y-111926595D01*
X163339888Y-111926593D01*
X163339887Y-111926592D01*
X163233344Y-111872305D01*
X163115236Y-111853600D01*
X163108319Y-111853600D01*
X163108319Y-111850792D01*
X163060354Y-111841461D01*
X163022523Y-111794727D01*
X163019793Y-111763446D01*
X163018164Y-111763446D01*
X163018164Y-111756528D01*
X162999458Y-111638420D01*
X162999458Y-111638419D01*
X162945171Y-111531876D01*
X162945170Y-111531875D01*
X162945169Y-111531873D01*
X162860613Y-111447317D01*
X162860610Y-111447315D01*
X162860609Y-111447314D01*
X162754066Y-111393027D01*
X162635958Y-111374322D01*
X162517850Y-111393027D01*
X162517849Y-111393027D01*
X162411306Y-111447314D01*
X162326744Y-111531876D01*
X162272457Y-111638419D01*
X162272457Y-111638420D01*
X162253752Y-111756528D01*
X155683628Y-111756528D01*
X156586022Y-110854134D01*
X158734424Y-110854134D01*
X158753129Y-110972241D01*
X158753129Y-110972242D01*
X158807416Y-111078785D01*
X158807417Y-111078786D01*
X158807419Y-111078789D01*
X158891975Y-111163345D01*
X158891977Y-111163346D01*
X158891978Y-111163347D01*
X158998521Y-111217634D01*
X159014669Y-111220191D01*
X159116630Y-111236340D01*
X159234738Y-111217634D01*
X159341285Y-111163345D01*
X159425841Y-111078789D01*
X159480130Y-110972242D01*
X159498836Y-110854134D01*
X159493250Y-110818865D01*
X161114194Y-110818865D01*
X161132899Y-110936972D01*
X161132899Y-110936973D01*
X161187186Y-111043516D01*
X161187187Y-111043517D01*
X161187189Y-111043520D01*
X161271745Y-111128076D01*
X161271747Y-111128077D01*
X161271748Y-111128078D01*
X161378291Y-111182365D01*
X161394439Y-111184922D01*
X161496400Y-111201071D01*
X161614508Y-111182365D01*
X161721055Y-111128076D01*
X161805611Y-111043520D01*
X161859900Y-110936973D01*
X161878606Y-110818865D01*
X161859900Y-110700757D01*
X161859900Y-110700756D01*
X161805613Y-110594213D01*
X161805612Y-110594212D01*
X161805611Y-110594210D01*
X161721055Y-110509654D01*
X161721052Y-110509652D01*
X161721051Y-110509651D01*
X161614508Y-110455364D01*
X161496400Y-110436659D01*
X161378292Y-110455364D01*
X161378291Y-110455364D01*
X161271748Y-110509651D01*
X161187186Y-110594213D01*
X161132899Y-110700756D01*
X161132899Y-110700757D01*
X161114194Y-110818865D01*
X159493250Y-110818865D01*
X159480130Y-110736026D01*
X159480130Y-110736025D01*
X159425843Y-110629482D01*
X159425842Y-110629481D01*
X159425841Y-110629479D01*
X159341285Y-110544923D01*
X159341282Y-110544921D01*
X159341281Y-110544920D01*
X159234738Y-110490633D01*
X159116630Y-110471928D01*
X158998522Y-110490633D01*
X158998521Y-110490633D01*
X158891978Y-110544920D01*
X158807416Y-110629482D01*
X158753129Y-110736025D01*
X158753129Y-110736026D01*
X158734424Y-110854134D01*
X156586022Y-110854134D01*
X158101509Y-109338647D01*
X158156002Y-109313237D01*
X158214080Y-109328800D01*
X158225811Y-109338642D01*
X158279568Y-109392399D01*
X158279570Y-109392400D01*
X158279571Y-109392401D01*
X158386114Y-109446688D01*
X158402262Y-109449245D01*
X158504223Y-109465394D01*
X158622331Y-109446688D01*
X158661235Y-109426865D01*
X162131694Y-109426865D01*
X162150399Y-109544972D01*
X162150399Y-109544973D01*
X162204686Y-109651516D01*
X162204687Y-109651517D01*
X162204689Y-109651520D01*
X162289245Y-109736076D01*
X162289247Y-109736077D01*
X162289248Y-109736078D01*
X162395791Y-109790365D01*
X162411939Y-109792922D01*
X162513900Y-109809071D01*
X162632008Y-109790365D01*
X162738555Y-109736076D01*
X162823111Y-109651520D01*
X162877400Y-109544973D01*
X162896106Y-109426865D01*
X162877400Y-109308757D01*
X162877400Y-109308756D01*
X162823113Y-109202213D01*
X162823112Y-109202212D01*
X162823111Y-109202210D01*
X162738555Y-109117654D01*
X162738552Y-109117652D01*
X162738551Y-109117651D01*
X162632008Y-109063364D01*
X162513900Y-109044659D01*
X162395792Y-109063364D01*
X162395791Y-109063364D01*
X162289248Y-109117651D01*
X162204686Y-109202213D01*
X162150399Y-109308756D01*
X162150399Y-109308757D01*
X162131694Y-109426865D01*
X158661235Y-109426865D01*
X158728878Y-109392399D01*
X158813434Y-109307843D01*
X158867723Y-109201296D01*
X158886429Y-109083188D01*
X158867723Y-108965080D01*
X158867723Y-108965079D01*
X158813436Y-108858536D01*
X158813435Y-108858535D01*
X158813434Y-108858533D01*
X158729766Y-108774865D01*
X167474800Y-108774865D01*
X167484399Y-108835472D01*
G37*
%TD.AperFunction*%
%TD*%
%TA.AperFunction,Conductor*%
%TO.N,GND*%
G36*
X126843900Y-95098865D02*
G01*
X126843900Y-95946866D01*
X126843900Y-97446380D01*
X126823335Y-97502881D01*
X126771264Y-97532945D01*
X126733802Y-97530325D01*
X126733783Y-97530447D01*
X126732390Y-97530226D01*
X126728838Y-97529978D01*
X126726951Y-97529365D01*
X126608842Y-97510659D01*
X126490734Y-97529364D01*
X126490733Y-97529364D01*
X126384190Y-97583651D01*
X126299628Y-97668213D01*
X126245341Y-97774756D01*
X126245341Y-97774757D01*
X126226636Y-97892865D01*
X126245341Y-98010972D01*
X126245341Y-98010973D01*
X126299628Y-98117516D01*
X126299629Y-98117517D01*
X126299631Y-98117520D01*
X126384187Y-98202076D01*
X126384189Y-98202077D01*
X126384190Y-98202078D01*
X126490733Y-98256365D01*
X126506881Y-98258922D01*
X126608842Y-98275071D01*
X126726950Y-98256365D01*
X126726955Y-98256362D01*
X126728829Y-98255754D01*
X126730452Y-98255810D01*
X126733783Y-98255283D01*
X126733885Y-98255930D01*
X126788920Y-98257846D01*
X126833607Y-98298075D01*
X126843900Y-98339349D01*
X126843900Y-102272482D01*
X126823335Y-102328983D01*
X126771264Y-102359047D01*
X126716094Y-102350802D01*
X126625350Y-102304565D01*
X126625348Y-102304564D01*
X126625347Y-102304564D01*
X126507242Y-102285859D01*
X126389134Y-102304564D01*
X126389133Y-102304564D01*
X126282590Y-102358851D01*
X126198028Y-102443413D01*
X126143741Y-102549956D01*
X126143741Y-102549957D01*
X126125036Y-102668065D01*
X126143741Y-102786172D01*
X126143741Y-102786173D01*
X126198028Y-102892716D01*
X126198029Y-102892717D01*
X126198031Y-102892720D01*
X126282587Y-102977276D01*
X126282589Y-102977277D01*
X126282590Y-102977278D01*
X126389133Y-103031565D01*
X126405281Y-103034122D01*
X126507242Y-103050271D01*
X126625350Y-103031565D01*
X126716094Y-102985327D01*
X126775773Y-102978000D01*
X126826200Y-103010747D01*
X126843900Y-103063647D01*
X126843900Y-113385455D01*
X126823335Y-113441956D01*
X126818155Y-113447610D01*
X126414645Y-113851120D01*
X126360151Y-113876531D01*
X126352490Y-113876865D01*
X117472898Y-113876865D01*
X117416397Y-113856300D01*
X117386333Y-113804229D01*
X117384998Y-113788965D01*
X117384998Y-111966665D01*
X123106694Y-111966665D01*
X123125399Y-112084772D01*
X123125399Y-112084773D01*
X123179686Y-112191316D01*
X123179687Y-112191317D01*
X123179689Y-112191320D01*
X123264245Y-112275876D01*
X123264247Y-112275877D01*
X123264248Y-112275878D01*
X123370791Y-112330165D01*
X123386939Y-112332722D01*
X123488900Y-112348871D01*
X123607008Y-112330165D01*
X123713555Y-112275876D01*
X123798111Y-112191320D01*
X123852400Y-112084773D01*
X123871106Y-111966665D01*
X124356694Y-111966665D01*
X124375399Y-112084772D01*
X124375399Y-112084773D01*
X124429686Y-112191316D01*
X124429687Y-112191317D01*
X124429689Y-112191320D01*
X124514245Y-112275876D01*
X124514247Y-112275877D01*
X124514248Y-112275878D01*
X124620791Y-112330165D01*
X124636939Y-112332722D01*
X124738900Y-112348871D01*
X124857008Y-112330165D01*
X124963555Y-112275876D01*
X125048111Y-112191320D01*
X125102400Y-112084773D01*
X125121106Y-111966665D01*
X125102400Y-111848557D01*
X125102400Y-111848556D01*
X125048113Y-111742013D01*
X125048112Y-111742012D01*
X125048111Y-111742010D01*
X124963555Y-111657454D01*
X124963552Y-111657452D01*
X124963551Y-111657451D01*
X124857008Y-111603164D01*
X124738900Y-111584459D01*
X124620792Y-111603164D01*
X124620791Y-111603164D01*
X124514248Y-111657451D01*
X124429686Y-111742013D01*
X124375399Y-111848556D01*
X124375399Y-111848557D01*
X124356694Y-111966665D01*
X123871106Y-111966665D01*
X123852400Y-111848557D01*
X123852400Y-111848556D01*
X123798113Y-111742013D01*
X123798112Y-111742012D01*
X123798111Y-111742010D01*
X123713555Y-111657454D01*
X123713552Y-111657452D01*
X123713551Y-111657451D01*
X123607008Y-111603164D01*
X123488900Y-111584459D01*
X123370792Y-111603164D01*
X123370791Y-111603164D01*
X123264248Y-111657451D01*
X123179686Y-111742013D01*
X123125399Y-111848556D01*
X123125399Y-111848557D01*
X123106694Y-111966665D01*
X117384998Y-111966665D01*
X117384998Y-109696865D01*
X117940694Y-109696865D01*
X117959399Y-109814972D01*
X117959399Y-109814973D01*
X118013686Y-109921516D01*
X118013687Y-109921517D01*
X118013689Y-109921520D01*
X118098245Y-110006076D01*
X118098247Y-110006077D01*
X118098248Y-110006078D01*
X118204791Y-110060365D01*
X118220939Y-110062922D01*
X118322900Y-110079071D01*
X118441008Y-110060365D01*
X118547555Y-110006076D01*
X118632111Y-109921520D01*
X118680341Y-109826865D01*
X120215694Y-109826865D01*
X120234399Y-109944972D01*
X120234399Y-109944973D01*
X120288686Y-110051516D01*
X120288687Y-110051517D01*
X120288689Y-110051520D01*
X120373245Y-110136076D01*
X120373247Y-110136077D01*
X120373248Y-110136078D01*
X120479791Y-110190365D01*
X120495939Y-110192922D01*
X120597900Y-110209071D01*
X120716008Y-110190365D01*
X120822555Y-110136076D01*
X120907111Y-110051520D01*
X120961400Y-109944973D01*
X120980106Y-109826865D01*
X120961400Y-109708757D01*
X120961400Y-109708756D01*
X120907113Y-109602213D01*
X120907112Y-109602212D01*
X120907111Y-109602210D01*
X120822555Y-109517654D01*
X120822552Y-109517652D01*
X120822551Y-109517651D01*
X120716008Y-109463364D01*
X120597900Y-109444659D01*
X120479792Y-109463364D01*
X120479791Y-109463364D01*
X120373248Y-109517651D01*
X120288686Y-109602213D01*
X120234399Y-109708756D01*
X120234399Y-109708757D01*
X120215694Y-109826865D01*
X118680341Y-109826865D01*
X118686400Y-109814973D01*
X118705106Y-109696865D01*
X118686400Y-109578757D01*
X118686400Y-109578756D01*
X118632113Y-109472213D01*
X118632112Y-109472212D01*
X118632111Y-109472210D01*
X118547555Y-109387654D01*
X118547552Y-109387652D01*
X118547551Y-109387651D01*
X118441008Y-109333364D01*
X118322900Y-109314659D01*
X118204792Y-109333364D01*
X118204791Y-109333364D01*
X118098248Y-109387651D01*
X118013686Y-109472213D01*
X117959399Y-109578756D01*
X117959399Y-109578757D01*
X117940694Y-109696865D01*
X117384998Y-109696865D01*
X117384998Y-107981765D01*
X120215694Y-107981765D01*
X120234399Y-108099872D01*
X120234399Y-108099873D01*
X120288686Y-108206416D01*
X120288687Y-108206417D01*
X120288689Y-108206420D01*
X120373245Y-108290976D01*
X120373247Y-108290977D01*
X120373248Y-108290978D01*
X120479791Y-108345265D01*
X120495939Y-108347822D01*
X120597900Y-108363971D01*
X120716008Y-108345265D01*
X120822555Y-108290976D01*
X120907111Y-108206420D01*
X120961400Y-108099873D01*
X120980106Y-107981765D01*
X120961400Y-107863657D01*
X120961400Y-107863656D01*
X120907113Y-107757113D01*
X120907112Y-107757112D01*
X120907111Y-107757110D01*
X120822555Y-107672554D01*
X120822552Y-107672552D01*
X120822551Y-107672551D01*
X120716008Y-107618264D01*
X120597900Y-107599559D01*
X120479792Y-107618264D01*
X120479791Y-107618264D01*
X120373248Y-107672551D01*
X120288686Y-107757113D01*
X120234399Y-107863656D01*
X120234399Y-107863657D01*
X120215694Y-107981765D01*
X117384998Y-107981765D01*
X117384998Y-106447867D01*
X122126464Y-106447867D01*
X122146710Y-106627563D01*
X122146712Y-106627572D01*
X122206436Y-106798253D01*
X122206438Y-106798258D01*
X122206439Y-106798260D01*
X122302652Y-106951382D01*
X122430525Y-107079255D01*
X122583647Y-107175468D01*
X122583653Y-107175470D01*
X122754334Y-107235194D01*
X122754343Y-107235196D01*
X122934040Y-107255443D01*
X122934042Y-107255443D01*
X122934044Y-107255443D01*
X123113740Y-107235196D01*
X123113743Y-107235195D01*
X123113745Y-107235195D01*
X123113745Y-107235194D01*
X123113749Y-107235194D01*
X123194090Y-107207081D01*
X123284437Y-107175468D01*
X123348168Y-107135423D01*
X124131542Y-107135423D01*
X124134699Y-107151298D01*
X124138939Y-107172612D01*
X124140849Y-107175470D01*
X124167120Y-107214787D01*
X124209294Y-107242967D01*
X124246484Y-107250365D01*
X124246486Y-107250365D01*
X125621598Y-107250365D01*
X125621600Y-107250365D01*
X125658790Y-107242967D01*
X125700964Y-107214787D01*
X125729144Y-107172613D01*
X125736542Y-107135423D01*
X125736542Y-105760307D01*
X125729144Y-105723117D01*
X125700964Y-105680943D01*
X125658790Y-105652763D01*
X125658789Y-105652762D01*
X125633939Y-105647819D01*
X125621600Y-105645365D01*
X124246484Y-105645365D01*
X124235900Y-105647470D01*
X124209294Y-105652762D01*
X124167120Y-105680943D01*
X124138939Y-105723117D01*
X124133647Y-105749723D01*
X124131542Y-105760307D01*
X124131542Y-107135423D01*
X123348168Y-107135423D01*
X123437559Y-107079255D01*
X123565432Y-106951382D01*
X123661645Y-106798260D01*
X123721372Y-106627568D01*
X123741620Y-106447865D01*
X123741620Y-106447862D01*
X123721373Y-106268166D01*
X123721371Y-106268157D01*
X123661647Y-106097476D01*
X123661645Y-106097471D01*
X123661645Y-106097470D01*
X123565432Y-105944348D01*
X123437559Y-105816475D01*
X123284437Y-105720262D01*
X123284436Y-105720261D01*
X123284435Y-105720261D01*
X123284430Y-105720259D01*
X123113749Y-105660535D01*
X123113740Y-105660533D01*
X122934044Y-105640287D01*
X122934040Y-105640287D01*
X122754343Y-105660533D01*
X122754334Y-105660535D01*
X122583653Y-105720259D01*
X122583648Y-105720261D01*
X122430527Y-105816473D01*
X122302650Y-105944350D01*
X122206438Y-106097471D01*
X122206436Y-106097476D01*
X122146712Y-106268157D01*
X122146710Y-106268166D01*
X122126464Y-106447862D01*
X122126464Y-106447867D01*
X117384998Y-106447867D01*
X117384998Y-105194865D01*
X118523836Y-105194865D01*
X118542541Y-105312972D01*
X118542541Y-105312973D01*
X118596828Y-105419516D01*
X118596829Y-105419517D01*
X118596831Y-105419520D01*
X118681387Y-105504076D01*
X118681389Y-105504077D01*
X118681390Y-105504078D01*
X118787933Y-105558365D01*
X118804081Y-105560922D01*
X118906042Y-105577071D01*
X119024150Y-105558365D01*
X119130697Y-105504076D01*
X119215253Y-105419520D01*
X119269542Y-105312973D01*
X119288248Y-105194865D01*
X119523836Y-105194865D01*
X119542541Y-105312972D01*
X119542541Y-105312973D01*
X119596828Y-105419516D01*
X119596829Y-105419517D01*
X119596831Y-105419520D01*
X119681387Y-105504076D01*
X119681389Y-105504077D01*
X119681390Y-105504078D01*
X119787933Y-105558365D01*
X119804081Y-105560922D01*
X119906042Y-105577071D01*
X120024150Y-105558365D01*
X120130697Y-105504076D01*
X120215253Y-105419520D01*
X120269542Y-105312973D01*
X120288248Y-105194865D01*
X120269542Y-105076757D01*
X120269542Y-105076756D01*
X120215255Y-104970213D01*
X120215254Y-104970212D01*
X120215253Y-104970210D01*
X120130697Y-104885654D01*
X120130694Y-104885652D01*
X120130693Y-104885651D01*
X120024150Y-104831364D01*
X119906042Y-104812659D01*
X119787934Y-104831364D01*
X119787933Y-104831364D01*
X119681390Y-104885651D01*
X119596828Y-104970213D01*
X119542541Y-105076756D01*
X119542541Y-105076757D01*
X119523836Y-105194865D01*
X119288248Y-105194865D01*
X119269542Y-105076757D01*
X119269542Y-105076756D01*
X119215255Y-104970213D01*
X119215254Y-104970212D01*
X119215253Y-104970210D01*
X119130697Y-104885654D01*
X119130694Y-104885652D01*
X119130693Y-104885651D01*
X119024150Y-104831364D01*
X118906042Y-104812659D01*
X118787934Y-104831364D01*
X118787933Y-104831364D01*
X118681390Y-104885651D01*
X118596828Y-104970213D01*
X118542541Y-105076756D01*
X118542541Y-105076757D01*
X118523836Y-105194865D01*
X117384998Y-105194865D01*
X117384998Y-104447867D01*
X122126464Y-104447867D01*
X122146710Y-104627563D01*
X122146712Y-104627572D01*
X122206436Y-104798253D01*
X122206438Y-104798258D01*
X122206439Y-104798260D01*
X122302652Y-104951382D01*
X122430525Y-105079255D01*
X122583647Y-105175468D01*
X122583653Y-105175470D01*
X122754334Y-105235194D01*
X122754343Y-105235196D01*
X122934040Y-105255443D01*
X122934042Y-105255443D01*
X122934044Y-105255443D01*
X123113740Y-105235196D01*
X123113743Y-105235195D01*
X123113745Y-105235195D01*
X123113745Y-105235194D01*
X123113749Y-105235194D01*
X123194090Y-105207081D01*
X123284437Y-105175468D01*
X123437559Y-105079255D01*
X123565432Y-104951382D01*
X123661645Y-104798260D01*
X123721372Y-104627568D01*
X123741620Y-104447867D01*
X124126464Y-104447867D01*
X124146710Y-104627563D01*
X124146712Y-104627572D01*
X124206436Y-104798253D01*
X124206438Y-104798258D01*
X124206439Y-104798260D01*
X124302652Y-104951382D01*
X124430525Y-105079255D01*
X124583647Y-105175468D01*
X124583653Y-105175470D01*
X124754334Y-105235194D01*
X124754343Y-105235196D01*
X124934040Y-105255443D01*
X124934042Y-105255443D01*
X124934044Y-105255443D01*
X125113740Y-105235196D01*
X125113743Y-105235195D01*
X125113745Y-105235195D01*
X125113745Y-105235194D01*
X125113749Y-105235194D01*
X125194090Y-105207081D01*
X125284437Y-105175468D01*
X125437559Y-105079255D01*
X125565432Y-104951382D01*
X125661645Y-104798260D01*
X125721372Y-104627568D01*
X125741620Y-104447865D01*
X125741620Y-104447862D01*
X125721373Y-104268166D01*
X125721371Y-104268157D01*
X125661647Y-104097476D01*
X125661645Y-104097471D01*
X125661645Y-104097470D01*
X125565432Y-103944348D01*
X125437559Y-103816475D01*
X125284437Y-103720262D01*
X125284436Y-103720261D01*
X125284435Y-103720261D01*
X125284430Y-103720259D01*
X125113749Y-103660535D01*
X125113740Y-103660533D01*
X124934044Y-103640287D01*
X124934040Y-103640287D01*
X124754343Y-103660533D01*
X124754334Y-103660535D01*
X124583653Y-103720259D01*
X124583648Y-103720261D01*
X124430527Y-103816473D01*
X124302650Y-103944350D01*
X124206438Y-104097471D01*
X124206436Y-104097476D01*
X124146712Y-104268157D01*
X124146710Y-104268166D01*
X124126464Y-104447862D01*
X124126464Y-104447867D01*
X123741620Y-104447867D01*
X123741620Y-104447865D01*
X123741620Y-104447862D01*
X123721373Y-104268166D01*
X123721371Y-104268157D01*
X123661647Y-104097476D01*
X123661645Y-104097471D01*
X123661645Y-104097470D01*
X123565432Y-103944348D01*
X123437559Y-103816475D01*
X123284437Y-103720262D01*
X123284436Y-103720261D01*
X123284435Y-103720261D01*
X123284430Y-103720259D01*
X123113749Y-103660535D01*
X123113740Y-103660533D01*
X122934044Y-103640287D01*
X122934040Y-103640287D01*
X122754343Y-103660533D01*
X122754334Y-103660535D01*
X122583653Y-103720259D01*
X122583648Y-103720261D01*
X122430527Y-103816473D01*
X122302650Y-103944350D01*
X122206438Y-104097471D01*
X122206436Y-104097476D01*
X122146712Y-104268157D01*
X122146710Y-104268166D01*
X122126464Y-104447862D01*
X122126464Y-104447867D01*
X117384998Y-104447867D01*
X117384998Y-102447867D01*
X122126464Y-102447867D01*
X122146710Y-102627563D01*
X122146712Y-102627572D01*
X122206436Y-102798253D01*
X122206438Y-102798258D01*
X122206439Y-102798260D01*
X122302652Y-102951382D01*
X122430525Y-103079255D01*
X122583647Y-103175468D01*
X122583653Y-103175470D01*
X122754334Y-103235194D01*
X122754343Y-103235196D01*
X122934040Y-103255443D01*
X122934042Y-103255443D01*
X122934044Y-103255443D01*
X123113740Y-103235196D01*
X123113743Y-103235195D01*
X123113745Y-103235195D01*
X123113745Y-103235194D01*
X123113749Y-103235194D01*
X123194090Y-103207081D01*
X123284437Y-103175468D01*
X123437559Y-103079255D01*
X123565432Y-102951382D01*
X123661645Y-102798260D01*
X123721372Y-102627568D01*
X123741620Y-102447867D01*
X124126464Y-102447867D01*
X124146710Y-102627563D01*
X124146712Y-102627572D01*
X124206436Y-102798253D01*
X124206438Y-102798258D01*
X124206439Y-102798260D01*
X124302652Y-102951382D01*
X124430525Y-103079255D01*
X124583647Y-103175468D01*
X124583653Y-103175470D01*
X124754334Y-103235194D01*
X124754343Y-103235196D01*
X124934040Y-103255443D01*
X124934042Y-103255443D01*
X124934044Y-103255443D01*
X125113740Y-103235196D01*
X125113743Y-103235195D01*
X125113745Y-103235195D01*
X125113745Y-103235194D01*
X125113749Y-103235194D01*
X125194090Y-103207081D01*
X125284437Y-103175468D01*
X125437559Y-103079255D01*
X125565432Y-102951382D01*
X125661645Y-102798260D01*
X125721372Y-102627568D01*
X125741620Y-102447865D01*
X125741620Y-102447862D01*
X125721373Y-102268166D01*
X125721371Y-102268157D01*
X125661647Y-102097476D01*
X125661645Y-102097471D01*
X125661645Y-102097470D01*
X125565432Y-101944348D01*
X125437559Y-101816475D01*
X125429426Y-101811365D01*
X125284435Y-101720261D01*
X125284430Y-101720259D01*
X125113749Y-101660535D01*
X125113740Y-101660533D01*
X124934044Y-101640287D01*
X124934040Y-101640287D01*
X124754343Y-101660533D01*
X124754334Y-101660535D01*
X124583653Y-101720259D01*
X124583648Y-101720261D01*
X124430527Y-101816473D01*
X124302650Y-101944350D01*
X124206438Y-102097471D01*
X124206436Y-102097476D01*
X124146712Y-102268157D01*
X124146710Y-102268166D01*
X124126464Y-102447862D01*
X124126464Y-102447867D01*
X123741620Y-102447867D01*
X123741620Y-102447865D01*
X123741620Y-102447862D01*
X123721373Y-102268166D01*
X123721371Y-102268157D01*
X123661647Y-102097476D01*
X123661645Y-102097471D01*
X123661645Y-102097470D01*
X123565432Y-101944348D01*
X123437559Y-101816475D01*
X123429426Y-101811365D01*
X123284435Y-101720261D01*
X123284430Y-101720259D01*
X123113749Y-101660535D01*
X123113740Y-101660533D01*
X122934044Y-101640287D01*
X122934040Y-101640287D01*
X122754343Y-101660533D01*
X122754334Y-101660535D01*
X122583653Y-101720259D01*
X122583648Y-101720261D01*
X122430527Y-101816473D01*
X122302650Y-101944350D01*
X122245329Y-102035576D01*
X122207276Y-102065152D01*
X122206023Y-102098656D01*
X122146712Y-102268156D01*
X122146710Y-102268166D01*
X122126464Y-102447862D01*
X122126464Y-102447867D01*
X117384998Y-102447867D01*
X117384998Y-101447865D01*
X119523836Y-101447865D01*
X119542541Y-101565972D01*
X119542541Y-101565973D01*
X119596828Y-101672516D01*
X119596829Y-101672517D01*
X119596831Y-101672520D01*
X119681387Y-101757076D01*
X119681389Y-101757077D01*
X119681390Y-101757078D01*
X119787933Y-101811365D01*
X119804081Y-101813922D01*
X119906042Y-101830071D01*
X120024150Y-101811365D01*
X120087542Y-101779065D01*
X121373236Y-101779065D01*
X121391941Y-101897172D01*
X121391941Y-101897173D01*
X121446228Y-102003716D01*
X121446229Y-102003717D01*
X121446231Y-102003720D01*
X121530787Y-102088276D01*
X121530789Y-102088277D01*
X121530790Y-102088278D01*
X121637333Y-102142565D01*
X121653481Y-102145122D01*
X121755442Y-102161271D01*
X121873550Y-102142565D01*
X121980097Y-102088276D01*
X122060902Y-102007470D01*
X122088330Y-101994680D01*
X122084969Y-101970320D01*
X122092580Y-101948909D01*
X122118942Y-101897173D01*
X122137648Y-101779065D01*
X122118942Y-101660957D01*
X122118942Y-101660956D01*
X122064655Y-101554413D01*
X122064654Y-101554412D01*
X122064653Y-101554410D01*
X121980097Y-101469854D01*
X121980094Y-101469852D01*
X121980092Y-101469850D01*
X121978995Y-101469053D01*
X121978373Y-101468131D01*
X121975205Y-101464963D01*
X121975821Y-101464346D01*
X121945377Y-101419202D01*
X121951668Y-101359405D01*
X121990761Y-101319626D01*
X122030897Y-101299176D01*
X122115453Y-101214620D01*
X122169742Y-101108073D01*
X122182351Y-101028456D01*
X122211501Y-100975870D01*
X122267634Y-100954321D01*
X122324485Y-100973896D01*
X122331313Y-100980043D01*
X122430525Y-101079255D01*
X122583647Y-101175468D01*
X122583653Y-101175470D01*
X122754334Y-101235194D01*
X122754343Y-101235196D01*
X122934040Y-101255443D01*
X122934042Y-101255443D01*
X122934044Y-101255443D01*
X123113740Y-101235196D01*
X123113743Y-101235195D01*
X123113745Y-101235195D01*
X123113745Y-101235194D01*
X123113749Y-101235194D01*
X123194090Y-101207081D01*
X123284437Y-101175468D01*
X123437559Y-101079255D01*
X123565432Y-100951382D01*
X123661645Y-100798260D01*
X123702763Y-100680751D01*
X123721371Y-100627572D01*
X123721373Y-100627563D01*
X123741620Y-100447867D01*
X124126464Y-100447867D01*
X124146710Y-100627563D01*
X124146712Y-100627572D01*
X124206436Y-100798253D01*
X124206438Y-100798258D01*
X124206439Y-100798260D01*
X124302652Y-100951382D01*
X124430525Y-101079255D01*
X124583647Y-101175468D01*
X124583653Y-101175470D01*
X124754334Y-101235194D01*
X124754343Y-101235196D01*
X124934040Y-101255443D01*
X124934042Y-101255443D01*
X124934044Y-101255443D01*
X125113740Y-101235196D01*
X125113743Y-101235195D01*
X125113745Y-101235195D01*
X125113745Y-101235194D01*
X125113749Y-101235194D01*
X125194090Y-101207081D01*
X125284437Y-101175468D01*
X125437559Y-101079255D01*
X125565432Y-100951382D01*
X125661645Y-100798260D01*
X125702763Y-100680751D01*
X125721371Y-100627572D01*
X125721373Y-100627563D01*
X125741620Y-100447867D01*
X125741620Y-100447862D01*
X125721373Y-100268166D01*
X125721371Y-100268157D01*
X125661647Y-100097476D01*
X125661645Y-100097471D01*
X125661645Y-100097470D01*
X125565432Y-99944348D01*
X125437559Y-99816475D01*
X125284437Y-99720262D01*
X125284436Y-99720261D01*
X125284435Y-99720261D01*
X125284430Y-99720259D01*
X125113749Y-99660535D01*
X125113740Y-99660533D01*
X124934044Y-99640287D01*
X124934040Y-99640287D01*
X124754343Y-99660533D01*
X124754334Y-99660535D01*
X124583653Y-99720259D01*
X124583648Y-99720261D01*
X124430527Y-99816473D01*
X124302650Y-99944350D01*
X124206438Y-100097471D01*
X124206436Y-100097476D01*
X124146712Y-100268157D01*
X124146710Y-100268166D01*
X124126464Y-100447862D01*
X124126464Y-100447867D01*
X123741620Y-100447867D01*
X123741620Y-100447862D01*
X123721373Y-100268166D01*
X123721371Y-100268157D01*
X123661647Y-100097476D01*
X123661645Y-100097471D01*
X123661645Y-100097470D01*
X123565432Y-99944348D01*
X123437559Y-99816475D01*
X123284437Y-99720262D01*
X123284436Y-99720261D01*
X123284435Y-99720261D01*
X123284430Y-99720259D01*
X123113749Y-99660535D01*
X123113740Y-99660533D01*
X122934044Y-99640287D01*
X122934040Y-99640287D01*
X122754343Y-99660533D01*
X122754334Y-99660535D01*
X122583653Y-99720259D01*
X122583648Y-99720261D01*
X122430527Y-99816473D01*
X122302650Y-99944350D01*
X122206438Y-100097471D01*
X122206436Y-100097476D01*
X122146712Y-100268157D01*
X122146710Y-100268166D01*
X122126464Y-100447862D01*
X122126464Y-100447868D01*
X122141833Y-100584279D01*
X122127724Y-100642727D01*
X122079345Y-100678431D01*
X122019335Y-100674686D01*
X122014580Y-100672440D01*
X121924350Y-100626465D01*
X121924348Y-100626464D01*
X121924347Y-100626464D01*
X121806242Y-100607759D01*
X121688134Y-100626464D01*
X121688133Y-100626464D01*
X121581590Y-100680751D01*
X121497028Y-100765313D01*
X121442741Y-100871856D01*
X121442741Y-100871857D01*
X121424036Y-100989965D01*
X121442741Y-101108072D01*
X121442741Y-101108073D01*
X121497028Y-101214616D01*
X121497029Y-101214617D01*
X121497031Y-101214620D01*
X121581587Y-101299176D01*
X121581589Y-101299177D01*
X121581592Y-101299180D01*
X121582686Y-101299975D01*
X121583305Y-101300893D01*
X121586479Y-101304067D01*
X121585861Y-101304684D01*
X121616305Y-101349825D01*
X121610016Y-101409622D01*
X121570922Y-101449403D01*
X121530789Y-101469852D01*
X121446228Y-101554413D01*
X121391941Y-101660956D01*
X121391941Y-101660957D01*
X121373236Y-101779065D01*
X120087542Y-101779065D01*
X120130697Y-101757076D01*
X120215253Y-101672520D01*
X120269542Y-101565973D01*
X120288248Y-101447865D01*
X120269542Y-101329757D01*
X120269542Y-101329756D01*
X120215255Y-101223213D01*
X120215254Y-101223212D01*
X120215253Y-101223210D01*
X120130697Y-101138654D01*
X120130694Y-101138652D01*
X120130693Y-101138651D01*
X120024150Y-101084364D01*
X119906042Y-101065659D01*
X119787934Y-101084364D01*
X119787933Y-101084364D01*
X119681390Y-101138651D01*
X119596828Y-101223213D01*
X119542541Y-101329756D01*
X119542541Y-101329757D01*
X119523836Y-101447865D01*
X117384998Y-101447865D01*
X117384998Y-100447865D01*
X117765694Y-100447865D01*
X117784399Y-100565972D01*
X117784399Y-100565973D01*
X117838686Y-100672516D01*
X117838687Y-100672517D01*
X117838689Y-100672520D01*
X117923245Y-100757076D01*
X117923247Y-100757077D01*
X117923248Y-100757078D01*
X118029791Y-100811365D01*
X118045939Y-100813922D01*
X118147900Y-100830071D01*
X118266008Y-100811365D01*
X118372555Y-100757076D01*
X118457111Y-100672520D01*
X118511400Y-100565973D01*
X118530106Y-100447865D01*
X118511400Y-100329757D01*
X118511400Y-100329756D01*
X118457113Y-100223213D01*
X118457112Y-100223212D01*
X118457111Y-100223210D01*
X118372555Y-100138654D01*
X118372552Y-100138652D01*
X118372551Y-100138651D01*
X118266008Y-100084364D01*
X118147900Y-100065659D01*
X118029792Y-100084364D01*
X118029791Y-100084364D01*
X117923248Y-100138651D01*
X117838686Y-100223213D01*
X117784399Y-100329756D01*
X117784399Y-100329757D01*
X117765694Y-100447865D01*
X117384998Y-100447865D01*
X117384998Y-98447867D01*
X122126464Y-98447867D01*
X122146710Y-98627563D01*
X122146712Y-98627572D01*
X122206436Y-98798253D01*
X122206438Y-98798258D01*
X122206439Y-98798260D01*
X122302652Y-98951382D01*
X122430525Y-99079255D01*
X122583647Y-99175468D01*
X122583653Y-99175470D01*
X122754334Y-99235194D01*
X122754343Y-99235196D01*
X122934040Y-99255443D01*
X122934042Y-99255443D01*
X122934044Y-99255443D01*
X123113740Y-99235196D01*
X123113743Y-99235195D01*
X123113745Y-99235195D01*
X123113745Y-99235194D01*
X123113749Y-99235194D01*
X123194090Y-99207081D01*
X123284437Y-99175468D01*
X123437559Y-99079255D01*
X123565432Y-98951382D01*
X123661645Y-98798260D01*
X123721372Y-98627568D01*
X123741620Y-98447865D01*
X123729393Y-98339349D01*
X123721373Y-98268166D01*
X123721371Y-98268157D01*
X123661647Y-98097476D01*
X123661645Y-98097471D01*
X123661645Y-98097470D01*
X123565432Y-97944348D01*
X123437559Y-97816475D01*
X123284437Y-97720262D01*
X123284436Y-97720261D01*
X123284435Y-97720261D01*
X123284430Y-97720259D01*
X123113749Y-97660535D01*
X123113740Y-97660533D01*
X122934044Y-97640287D01*
X122934040Y-97640287D01*
X122754343Y-97660533D01*
X122754334Y-97660535D01*
X122583653Y-97720259D01*
X122583648Y-97720261D01*
X122430527Y-97816473D01*
X122302650Y-97944350D01*
X122206438Y-98097471D01*
X122206436Y-98097476D01*
X122146712Y-98268157D01*
X122146710Y-98268166D01*
X122126464Y-98447862D01*
X122126464Y-98447867D01*
X117384998Y-98447867D01*
X117384998Y-96447867D01*
X122126464Y-96447867D01*
X122146710Y-96627563D01*
X122146712Y-96627572D01*
X122206436Y-96798253D01*
X122206438Y-96798258D01*
X122206439Y-96798260D01*
X122302652Y-96951382D01*
X122430525Y-97079255D01*
X122583647Y-97175468D01*
X122583653Y-97175470D01*
X122754334Y-97235194D01*
X122754343Y-97235196D01*
X122934040Y-97255443D01*
X122934042Y-97255443D01*
X122934044Y-97255443D01*
X123113740Y-97235196D01*
X123113743Y-97235195D01*
X123113745Y-97235195D01*
X123113745Y-97235194D01*
X123113749Y-97235194D01*
X123194090Y-97207081D01*
X123284437Y-97175468D01*
X123437559Y-97079255D01*
X123565432Y-96951382D01*
X123661645Y-96798260D01*
X123721372Y-96627568D01*
X123741620Y-96447867D01*
X124126464Y-96447867D01*
X124146710Y-96627563D01*
X124146712Y-96627572D01*
X124206436Y-96798253D01*
X124206438Y-96798258D01*
X124206439Y-96798260D01*
X124302652Y-96951382D01*
X124430525Y-97079255D01*
X124583647Y-97175468D01*
X124583653Y-97175470D01*
X124754334Y-97235194D01*
X124754343Y-97235196D01*
X124934040Y-97255443D01*
X124934042Y-97255443D01*
X124934044Y-97255443D01*
X125113740Y-97235196D01*
X125113743Y-97235195D01*
X125113745Y-97235195D01*
X125113745Y-97235194D01*
X125113749Y-97235194D01*
X125194090Y-97207081D01*
X125284437Y-97175468D01*
X125437559Y-97079255D01*
X125565432Y-96951382D01*
X125661645Y-96798260D01*
X125721372Y-96627568D01*
X125741620Y-96447865D01*
X125741620Y-96447862D01*
X125721373Y-96268166D01*
X125721371Y-96268157D01*
X125661647Y-96097476D01*
X125661645Y-96097471D01*
X125661645Y-96097470D01*
X125565432Y-95944348D01*
X125437559Y-95816475D01*
X125284437Y-95720262D01*
X125284436Y-95720261D01*
X125284435Y-95720261D01*
X125284430Y-95720259D01*
X125113749Y-95660535D01*
X125113740Y-95660533D01*
X124934044Y-95640287D01*
X124934040Y-95640287D01*
X124754343Y-95660533D01*
X124754334Y-95660535D01*
X124583653Y-95720259D01*
X124583648Y-95720261D01*
X124430527Y-95816473D01*
X124302650Y-95944350D01*
X124206438Y-96097471D01*
X124206436Y-96097476D01*
X124146712Y-96268157D01*
X124146710Y-96268166D01*
X124126464Y-96447862D01*
X124126464Y-96447867D01*
X123741620Y-96447867D01*
X123741620Y-96447865D01*
X123741620Y-96447862D01*
X123721373Y-96268166D01*
X123721371Y-96268157D01*
X123661647Y-96097476D01*
X123661645Y-96097471D01*
X123661645Y-96097470D01*
X123565432Y-95944348D01*
X123437559Y-95816475D01*
X123284437Y-95720262D01*
X123284436Y-95720261D01*
X123284435Y-95720261D01*
X123284430Y-95720259D01*
X123113749Y-95660535D01*
X123113740Y-95660533D01*
X122934044Y-95640287D01*
X122934040Y-95640287D01*
X122754343Y-95660533D01*
X122754334Y-95660535D01*
X122583653Y-95720259D01*
X122583648Y-95720261D01*
X122430527Y-95816473D01*
X122302650Y-95944350D01*
X122206438Y-96097471D01*
X122206436Y-96097476D01*
X122146712Y-96268157D01*
X122146710Y-96268166D01*
X122126464Y-96447862D01*
X122126464Y-96447867D01*
X117384998Y-96447867D01*
X117384998Y-93916765D01*
X117405563Y-93860264D01*
X117457634Y-93830200D01*
X117472898Y-93828865D01*
X125047899Y-93828865D01*
X125047900Y-93828865D01*
X125573900Y-93828865D01*
X126843900Y-95098865D01*
G37*
%TD.AperFunction*%
%TD*%
%TA.AperFunction,Conductor*%
%TO.N,GND*%
G36*
X140910412Y-100277430D02*
G01*
X141126663Y-100458885D01*
X141126668Y-100458889D01*
X141406701Y-100643071D01*
X141406705Y-100643073D01*
X141406711Y-100643077D01*
X141706249Y-100793510D01*
X142021225Y-100908152D01*
X142347380Y-100985452D01*
X142680305Y-101024365D01*
X142680307Y-101024365D01*
X143015493Y-101024365D01*
X143015495Y-101024365D01*
X143348420Y-100985452D01*
X143674575Y-100908152D01*
X143989551Y-100793510D01*
X144289089Y-100643077D01*
X144569136Y-100458886D01*
X144717747Y-100334186D01*
X144774247Y-100313622D01*
X144830748Y-100334187D01*
X144836402Y-100339367D01*
X145608155Y-101111120D01*
X145633566Y-101165614D01*
X145633900Y-101173275D01*
X145633900Y-108650455D01*
X145613335Y-108706956D01*
X145608155Y-108712610D01*
X144979645Y-109341120D01*
X144925151Y-109366531D01*
X144917490Y-109366865D01*
X135600310Y-109366865D01*
X135543809Y-109346300D01*
X135538155Y-109341120D01*
X134909645Y-108712610D01*
X134884234Y-108658116D01*
X134883900Y-108650455D01*
X134883900Y-107953365D01*
X137864194Y-107953365D01*
X137882899Y-108071472D01*
X137882899Y-108071473D01*
X137937186Y-108178016D01*
X137937187Y-108178017D01*
X137937189Y-108178020D01*
X138021745Y-108262576D01*
X138021747Y-108262577D01*
X138021748Y-108262578D01*
X138128291Y-108316865D01*
X138144439Y-108319422D01*
X138246400Y-108335571D01*
X138364508Y-108316865D01*
X138471055Y-108262576D01*
X138545163Y-108188468D01*
X139651694Y-108188468D01*
X139670399Y-108306575D01*
X139670399Y-108306576D01*
X139724686Y-108413119D01*
X139724687Y-108413120D01*
X139724689Y-108413123D01*
X139809245Y-108497679D01*
X139809247Y-108497680D01*
X139809248Y-108497681D01*
X139915791Y-108551968D01*
X139931939Y-108554525D01*
X140033900Y-108570674D01*
X140152008Y-108551968D01*
X140258555Y-108497679D01*
X140343111Y-108413123D01*
X140397400Y-108306576D01*
X140416106Y-108188468D01*
X140951694Y-108188468D01*
X140970399Y-108306575D01*
X140970399Y-108306576D01*
X141024686Y-108413119D01*
X141024687Y-108413120D01*
X141024689Y-108413123D01*
X141109245Y-108497679D01*
X141109247Y-108497680D01*
X141109248Y-108497681D01*
X141215791Y-108551968D01*
X141231939Y-108554525D01*
X141333900Y-108570674D01*
X141452008Y-108551968D01*
X141558555Y-108497679D01*
X141596746Y-108459487D01*
X141651239Y-108434077D01*
X141709317Y-108449640D01*
X141721048Y-108459482D01*
X141759245Y-108497679D01*
X141759247Y-108497680D01*
X141759248Y-108497681D01*
X141865791Y-108551968D01*
X141881939Y-108554525D01*
X141983900Y-108570674D01*
X142102008Y-108551968D01*
X142208555Y-108497679D01*
X142293111Y-108413123D01*
X142347400Y-108306576D01*
X142366106Y-108188468D01*
X142347400Y-108070360D01*
X142347400Y-108070359D01*
X142293113Y-107963816D01*
X142293112Y-107963815D01*
X142293111Y-107963813D01*
X142208555Y-107879257D01*
X142208552Y-107879255D01*
X142208551Y-107879254D01*
X142102008Y-107824967D01*
X141983900Y-107806262D01*
X141865792Y-107824967D01*
X141865791Y-107824967D01*
X141759248Y-107879254D01*
X141759245Y-107879256D01*
X141759245Y-107879257D01*
X141721053Y-107917448D01*
X141666561Y-107942859D01*
X141608483Y-107927296D01*
X141596751Y-107917453D01*
X141558555Y-107879257D01*
X141558552Y-107879255D01*
X141558551Y-107879254D01*
X141452008Y-107824967D01*
X141333900Y-107806262D01*
X141215792Y-107824967D01*
X141215791Y-107824967D01*
X141109248Y-107879254D01*
X141024686Y-107963816D01*
X140970399Y-108070359D01*
X140970399Y-108070360D01*
X140951694Y-108188468D01*
X140416106Y-108188468D01*
X140397400Y-108070360D01*
X140397400Y-108070359D01*
X140343113Y-107963816D01*
X140343112Y-107963815D01*
X140343111Y-107963813D01*
X140258555Y-107879257D01*
X140258552Y-107879255D01*
X140258551Y-107879254D01*
X140152008Y-107824967D01*
X140033900Y-107806262D01*
X139915792Y-107824967D01*
X139915791Y-107824967D01*
X139809248Y-107879254D01*
X139724686Y-107963816D01*
X139670399Y-108070359D01*
X139670399Y-108070360D01*
X139651694Y-108188468D01*
X138545163Y-108188468D01*
X138555611Y-108178020D01*
X138609900Y-108071473D01*
X138628606Y-107953365D01*
X138609900Y-107835257D01*
X138609900Y-107835256D01*
X138555613Y-107728713D01*
X138555612Y-107728712D01*
X138555611Y-107728710D01*
X138471055Y-107644154D01*
X138471052Y-107644152D01*
X138471051Y-107644151D01*
X138364508Y-107589864D01*
X138246400Y-107571159D01*
X138128292Y-107589864D01*
X138128291Y-107589864D01*
X138021748Y-107644151D01*
X137937186Y-107728713D01*
X137882899Y-107835256D01*
X137882899Y-107835257D01*
X137864194Y-107953365D01*
X134883900Y-107953365D01*
X134883900Y-106575272D01*
X134904465Y-106518771D01*
X134956536Y-106488707D01*
X135015750Y-106499148D01*
X135033950Y-106513113D01*
X135041914Y-106521077D01*
X135041916Y-106521078D01*
X135041917Y-106521079D01*
X135148460Y-106575366D01*
X135164608Y-106577923D01*
X135266569Y-106594072D01*
X135384677Y-106575366D01*
X135491224Y-106521077D01*
X135575780Y-106436521D01*
X135630069Y-106329974D01*
X135648775Y-106211866D01*
X135630069Y-106093758D01*
X135630069Y-106093757D01*
X135575782Y-105987214D01*
X135575781Y-105987213D01*
X135575780Y-105987211D01*
X135491224Y-105902655D01*
X135491221Y-105902653D01*
X135491220Y-105902652D01*
X135384677Y-105848365D01*
X135266569Y-105829660D01*
X135148461Y-105848365D01*
X135148460Y-105848365D01*
X135041917Y-105902652D01*
X135041914Y-105902654D01*
X135041914Y-105902655D01*
X135033953Y-105910615D01*
X134979461Y-105936026D01*
X134921383Y-105920463D01*
X134886895Y-105871210D01*
X134883900Y-105848460D01*
X134883900Y-105626365D01*
X137129694Y-105626365D01*
X137148399Y-105744472D01*
X137148399Y-105744473D01*
X137202686Y-105851016D01*
X137202687Y-105851017D01*
X137202689Y-105851020D01*
X137287245Y-105935576D01*
X137287247Y-105935577D01*
X137287248Y-105935578D01*
X137393791Y-105989865D01*
X137409939Y-105992422D01*
X137511900Y-106008571D01*
X137630008Y-105989865D01*
X137736555Y-105935576D01*
X137821111Y-105851020D01*
X137875400Y-105744473D01*
X137894106Y-105626365D01*
X137875400Y-105508257D01*
X137875400Y-105508256D01*
X137821113Y-105401713D01*
X137821112Y-105401712D01*
X137821111Y-105401710D01*
X137736555Y-105317154D01*
X137736552Y-105317152D01*
X137736551Y-105317151D01*
X137630008Y-105262864D01*
X137511900Y-105244159D01*
X137393792Y-105262864D01*
X137393791Y-105262864D01*
X137287248Y-105317151D01*
X137202686Y-105401713D01*
X137148399Y-105508256D01*
X137148399Y-105508257D01*
X137129694Y-105626365D01*
X134883900Y-105626365D01*
X134883900Y-102141866D01*
X140331694Y-102141866D01*
X140350399Y-102259973D01*
X140350399Y-102259974D01*
X140404686Y-102366517D01*
X140404687Y-102366518D01*
X140404689Y-102366521D01*
X140489245Y-102451077D01*
X140489247Y-102451078D01*
X140489248Y-102451079D01*
X140595791Y-102505366D01*
X140611939Y-102507923D01*
X140713900Y-102524072D01*
X140832008Y-102505366D01*
X140938555Y-102451077D01*
X141023111Y-102366521D01*
X141077400Y-102259974D01*
X141096106Y-102141866D01*
X141077400Y-102023758D01*
X141077400Y-102023757D01*
X141023113Y-101917214D01*
X141023112Y-101917213D01*
X141023111Y-101917211D01*
X140938555Y-101832655D01*
X140938552Y-101832653D01*
X140938551Y-101832652D01*
X140832008Y-101778365D01*
X140713900Y-101759660D01*
X140595792Y-101778365D01*
X140595791Y-101778365D01*
X140489248Y-101832652D01*
X140404686Y-101917214D01*
X140350399Y-102023757D01*
X140350399Y-102023758D01*
X140331694Y-102141866D01*
X134883900Y-102141866D01*
X134883900Y-101573275D01*
X134904465Y-101516774D01*
X134909645Y-101511120D01*
X136138155Y-100282610D01*
X136192649Y-100257199D01*
X136200310Y-100256865D01*
X140853911Y-100256865D01*
X140910412Y-100277430D01*
G37*
%TD.AperFunction*%
%TD*%
%TA.AperFunction,Conductor*%
%TO.N,PGND*%
G36*
X146013107Y-93499930D02*
G01*
X146018761Y-93505110D01*
X146037716Y-93524065D01*
X146037715Y-93524065D01*
X146119043Y-93605391D01*
X146119044Y-93605393D01*
X146119045Y-93605393D01*
X146131408Y-93617756D01*
X146131408Y-93617757D01*
X146594130Y-94080479D01*
X147038517Y-94524866D01*
X148981474Y-96467823D01*
X148985657Y-96471826D01*
X148990172Y-96475962D01*
X148991303Y-96476998D01*
X149035492Y-96503810D01*
X149091993Y-96524375D01*
X149137311Y-96532366D01*
X152961716Y-96532366D01*
X153018217Y-96552931D01*
X153048281Y-96605002D01*
X153037840Y-96664216D01*
X153023874Y-96682416D01*
X152975237Y-96731054D01*
X152943577Y-96762714D01*
X152889290Y-96869257D01*
X152889290Y-96869258D01*
X152870585Y-96987366D01*
X152889290Y-97105473D01*
X152889290Y-97105474D01*
X152943577Y-97212017D01*
X152943578Y-97212018D01*
X152943580Y-97212021D01*
X153028136Y-97296577D01*
X153028138Y-97296578D01*
X153028139Y-97296579D01*
X153134682Y-97350866D01*
X153150830Y-97353423D01*
X153252791Y-97369572D01*
X153370899Y-97350866D01*
X153477446Y-97296577D01*
X153562002Y-97212021D01*
X153616291Y-97105474D01*
X153616291Y-97105473D01*
X153618430Y-97098892D01*
X153621206Y-97099794D01*
X153644716Y-97057351D01*
X153700843Y-97035786D01*
X153757700Y-97055344D01*
X153764559Y-97061517D01*
X156257239Y-99554197D01*
X156269355Y-99564916D01*
X156286236Y-99578105D01*
X156286237Y-99578105D01*
X156286238Y-99578106D01*
X156286242Y-99578108D01*
X156342522Y-99603757D01*
X156342527Y-99603759D01*
X156401549Y-99615233D01*
X156440385Y-99615910D01*
X156452582Y-99616978D01*
X156510005Y-99626072D01*
X156536158Y-99634570D01*
X156580494Y-99657160D01*
X156602737Y-99673320D01*
X156637937Y-99708519D01*
X156654099Y-99730765D01*
X156676691Y-99775104D01*
X156685190Y-99801259D01*
X156693422Y-99853234D01*
X156694101Y-99875392D01*
X156693677Y-99879804D01*
X156693675Y-99879822D01*
X156692929Y-99901222D01*
X156705260Y-99961831D01*
X156705260Y-99961832D01*
X156730672Y-100016329D01*
X156757070Y-100054029D01*
X156769167Y-100066125D01*
X156775381Y-100072339D01*
X156796422Y-100089454D01*
X156796425Y-100089456D01*
X156796430Y-100089460D01*
X156816980Y-100102933D01*
X156826357Y-100109081D01*
X156826359Y-100109082D01*
X156875199Y-100124365D01*
X156895533Y-100130728D01*
X156955640Y-100132305D01*
X156972434Y-100131680D01*
X157041592Y-100103552D01*
X157088650Y-100066125D01*
X157119145Y-100031660D01*
X157124726Y-100022551D01*
X157132812Y-100011421D01*
X157266441Y-99854961D01*
X157276180Y-99845221D01*
X157432655Y-99711578D01*
X157443789Y-99703490D01*
X157619224Y-99595982D01*
X157631502Y-99589725D01*
X157821612Y-99510978D01*
X157834708Y-99506723D01*
X158034766Y-99458694D01*
X158048380Y-99456537D01*
X158253512Y-99440394D01*
X158267286Y-99440394D01*
X158472416Y-99456537D01*
X158486034Y-99458694D01*
X158622538Y-99491465D01*
X158622541Y-99491467D01*
X158634360Y-99494304D01*
X158634361Y-99494305D01*
X158658916Y-99500200D01*
X158686090Y-99506723D01*
X158699193Y-99510981D01*
X158829403Y-99564916D01*
X158829402Y-99564916D01*
X158889273Y-99589715D01*
X158901561Y-99595975D01*
X159077000Y-99703485D01*
X159088153Y-99711588D01*
X159180573Y-99790521D01*
X159244594Y-99845200D01*
X159254347Y-99854952D01*
X159387977Y-100011412D01*
X159396078Y-100022563D01*
X159437070Y-100089454D01*
X159463329Y-100132305D01*
X159466276Y-100137113D01*
X159498142Y-100189114D01*
X159503582Y-100197991D01*
X159509841Y-100210275D01*
X159512207Y-100215986D01*
X159512209Y-100215991D01*
X159579487Y-100378413D01*
X159580274Y-100380312D01*
X159580269Y-100380313D01*
X159580279Y-100380325D01*
X159588581Y-100400367D01*
X159592840Y-100413477D01*
X159608880Y-100480286D01*
X159608880Y-100480288D01*
X159640868Y-100613532D01*
X159643026Y-100627154D01*
X159659170Y-100832263D01*
X159659170Y-100846057D01*
X159643026Y-101051174D01*
X159640868Y-101064797D01*
X159592841Y-101264846D01*
X159588579Y-101277964D01*
X159509844Y-101468048D01*
X159503582Y-101480338D01*
X159396081Y-101655761D01*
X159387974Y-101666919D01*
X159254356Y-101823367D01*
X159244602Y-101833121D01*
X159088154Y-101966739D01*
X159076996Y-101974846D01*
X158901572Y-102082347D01*
X158889282Y-102088609D01*
X158684063Y-102173615D01*
X158679116Y-102174014D01*
X158677093Y-102175267D01*
X158664486Y-102181724D01*
X158663305Y-102182213D01*
X158660460Y-102185558D01*
X158616132Y-102212985D01*
X158616128Y-102212987D01*
X158605614Y-102220216D01*
X158605609Y-102220221D01*
X158561349Y-102280334D01*
X158561347Y-102280338D01*
X158540784Y-102336834D01*
X158540783Y-102336838D01*
X158540783Y-102336839D01*
X158532792Y-102382157D01*
X158532792Y-102382160D01*
X158532792Y-104313289D01*
X158512227Y-104369790D01*
X158460156Y-104399854D01*
X158437996Y-104400918D01*
X158260402Y-104386942D01*
X158260400Y-104386942D01*
X158020702Y-104405806D01*
X157786916Y-104461933D01*
X157564793Y-104553940D01*
X157564781Y-104553946D01*
X157359777Y-104679574D01*
X157176959Y-104835715D01*
X157176950Y-104835724D01*
X157020809Y-105018542D01*
X156895181Y-105223546D01*
X156895175Y-105223558D01*
X156803168Y-105445681D01*
X156747041Y-105679467D01*
X156728177Y-105919164D01*
X156728177Y-105919165D01*
X156747041Y-106158862D01*
X156803168Y-106392648D01*
X156889335Y-106600672D01*
X156895179Y-106614780D01*
X157020806Y-106819783D01*
X157020807Y-106819785D01*
X157020809Y-106819787D01*
X157176950Y-107002605D01*
X157176959Y-107002614D01*
X157350565Y-107150887D01*
X157359782Y-107158759D01*
X157564785Y-107284386D01*
X157617524Y-107306231D01*
X157786916Y-107376396D01*
X158020702Y-107432523D01*
X158020704Y-107432523D01*
X158020708Y-107432524D01*
X158226652Y-107448732D01*
X158260399Y-107451388D01*
X158260399Y-107451387D01*
X158260400Y-107451388D01*
X158437995Y-107437411D01*
X158495936Y-107453479D01*
X158529992Y-107503032D01*
X158532792Y-107525040D01*
X158532792Y-108621383D01*
X158512227Y-108677884D01*
X158460156Y-108707948D01*
X158458642Y-108708201D01*
X158386115Y-108719687D01*
X158386114Y-108719687D01*
X158279571Y-108773974D01*
X158195009Y-108858536D01*
X158140722Y-108965079D01*
X158140722Y-108965080D01*
X158122017Y-109083188D01*
X158122017Y-109083189D01*
X158126359Y-109110610D01*
X158114885Y-109169632D01*
X158076690Y-109204022D01*
X158045518Y-109218558D01*
X158045516Y-109218559D01*
X158007818Y-109244953D01*
X158007815Y-109244956D01*
X152585321Y-114667451D01*
X152530827Y-114692862D01*
X152472749Y-114677299D01*
X152438261Y-114628046D01*
X152435266Y-114605296D01*
X152435266Y-114323352D01*
X152435334Y-114323162D01*
X152435334Y-114286874D01*
X152435335Y-114286874D01*
X152435334Y-114098912D01*
X152400646Y-113724593D01*
X152331567Y-113355071D01*
X152294021Y-113223113D01*
X152228694Y-112993518D01*
X152228686Y-112993494D01*
X152186466Y-112884514D01*
X152092887Y-112642962D01*
X151925321Y-112306450D01*
X151850325Y-112185330D01*
X151727419Y-111986833D01*
X151500872Y-111686843D01*
X151500868Y-111686838D01*
X151288745Y-111454155D01*
X151247613Y-111409036D01*
X151247598Y-111409022D01*
X150969810Y-111155789D01*
X150969796Y-111155778D01*
X150969789Y-111155773D01*
X150669804Y-110929239D01*
X150548503Y-110854134D01*
X150350189Y-110731345D01*
X150013680Y-110563788D01*
X150013672Y-110563784D01*
X149663132Y-110427988D01*
X149663129Y-110427987D01*
X149588231Y-110406677D01*
X149301559Y-110325116D01*
X149301553Y-110325114D01*
X149301552Y-110325114D01*
X148932039Y-110256044D01*
X148932036Y-110256043D01*
X148652517Y-110230146D01*
X148557715Y-110221363D01*
X148557711Y-110221363D01*
X148369754Y-110221365D01*
X137346879Y-110221365D01*
X137158918Y-110221361D01*
X137158917Y-110221361D01*
X137158915Y-110221361D01*
X137158904Y-110221361D01*
X136784609Y-110256038D01*
X136784597Y-110256040D01*
X136415065Y-110325112D01*
X136053507Y-110427981D01*
X136053500Y-110427983D01*
X135702972Y-110563774D01*
X135702956Y-110563781D01*
X135366456Y-110731334D01*
X135046833Y-110929234D01*
X134746844Y-111155773D01*
X134469035Y-111409028D01*
X134469028Y-111409035D01*
X134215773Y-111686844D01*
X133989234Y-111986833D01*
X133791334Y-112306456D01*
X133623781Y-112642956D01*
X133623774Y-112642972D01*
X133487983Y-112993500D01*
X133487981Y-112993507D01*
X133385112Y-113355065D01*
X133316040Y-113724597D01*
X133316038Y-113724609D01*
X133281361Y-114098904D01*
X133281361Y-114098915D01*
X133281365Y-114272503D01*
X133281365Y-116989233D01*
X133281094Y-116996129D01*
X133266232Y-117184992D01*
X133264074Y-117198615D01*
X133220660Y-117379453D01*
X133216398Y-117392571D01*
X133145228Y-117564396D01*
X133138966Y-117576686D01*
X133041794Y-117735258D01*
X133033687Y-117746417D01*
X132912902Y-117887839D01*
X132903149Y-117897592D01*
X132761731Y-118018376D01*
X132750572Y-118026484D01*
X132591997Y-118123660D01*
X132579707Y-118129922D01*
X132407882Y-118201094D01*
X132394764Y-118205356D01*
X132213926Y-118248772D01*
X132200303Y-118250930D01*
X132022257Y-118264942D01*
X132011632Y-118265779D01*
X132004737Y-118266050D01*
X118661826Y-118266050D01*
X118654927Y-118265779D01*
X118466062Y-118250910D01*
X118452441Y-118248752D01*
X118271602Y-118205335D01*
X118258484Y-118201073D01*
X118086652Y-118129897D01*
X118074363Y-118123635D01*
X117915792Y-118026464D01*
X117904633Y-118018357D01*
X117763212Y-117897574D01*
X117753459Y-117887822D01*
X117632668Y-117746399D01*
X117624561Y-117735241D01*
X117527381Y-117576668D01*
X117521119Y-117564379D01*
X117449939Y-117392554D01*
X117445677Y-117379437D01*
X117402254Y-117198603D01*
X117400095Y-117184980D01*
X117385269Y-116996723D01*
X117384998Y-116989822D01*
X117384998Y-114097265D01*
X117405563Y-114040764D01*
X117457634Y-114010700D01*
X117472898Y-114009365D01*
X126352489Y-114009365D01*
X126352490Y-114009365D01*
X126358261Y-114009239D01*
X126365922Y-114008905D01*
X126416148Y-113996617D01*
X126416153Y-113996614D01*
X126416155Y-113996614D01*
X126470634Y-113971210D01*
X126470634Y-113971209D01*
X126470642Y-113971206D01*
X126508337Y-113944812D01*
X126911847Y-113541302D01*
X126915852Y-113537117D01*
X126921032Y-113531463D01*
X126947844Y-113487274D01*
X126968409Y-113430773D01*
X126976400Y-113385455D01*
X126976400Y-108650453D01*
X134751400Y-108650453D01*
X134751526Y-108656245D01*
X134751859Y-108663881D01*
X134751859Y-108663885D01*
X134751860Y-108663887D01*
X134760935Y-108700982D01*
X134764150Y-108714120D01*
X134789554Y-108768599D01*
X134789557Y-108768603D01*
X134789559Y-108768607D01*
X134815953Y-108806302D01*
X134815954Y-108806303D01*
X135444473Y-109434822D01*
X135448656Y-109438825D01*
X135453171Y-109442961D01*
X135454302Y-109443997D01*
X135498491Y-109470809D01*
X135554992Y-109491374D01*
X135600310Y-109499365D01*
X135600313Y-109499365D01*
X144917489Y-109499365D01*
X144917490Y-109499365D01*
X144923261Y-109499239D01*
X144930922Y-109498905D01*
X144981148Y-109486617D01*
X144981153Y-109486614D01*
X144981155Y-109486614D01*
X145035634Y-109461210D01*
X145035634Y-109461209D01*
X145035642Y-109461206D01*
X145073337Y-109434812D01*
X145701847Y-108806302D01*
X145705852Y-108802117D01*
X145711032Y-108796463D01*
X145737844Y-108752274D01*
X145758409Y-108695773D01*
X145766400Y-108650455D01*
X145766400Y-106997020D01*
X145958581Y-106997020D01*
X145977286Y-107115127D01*
X145977286Y-107115128D01*
X146031573Y-107221671D01*
X146031574Y-107221672D01*
X146031576Y-107221675D01*
X146116132Y-107306231D01*
X146153907Y-107325479D01*
X146194913Y-107369453D01*
X146198060Y-107429497D01*
X146192321Y-107443702D01*
X146174100Y-107479463D01*
X146174099Y-107479465D01*
X146155394Y-107597573D01*
X146174099Y-107715680D01*
X146174099Y-107715681D01*
X146228386Y-107822224D01*
X146228387Y-107822225D01*
X146228389Y-107822228D01*
X146312945Y-107906784D01*
X146312947Y-107906785D01*
X146312948Y-107906786D01*
X146419491Y-107961073D01*
X146424972Y-107961941D01*
X146537600Y-107979779D01*
X146630999Y-107964986D01*
X146690020Y-107976459D01*
X146727859Y-108023186D01*
X146731566Y-108065554D01*
X146712396Y-108186595D01*
X146731101Y-108304703D01*
X146731101Y-108304704D01*
X146785388Y-108411247D01*
X146785389Y-108411248D01*
X146785391Y-108411251D01*
X146869947Y-108495807D01*
X146869949Y-108495808D01*
X146869950Y-108495809D01*
X146976493Y-108550096D01*
X146992641Y-108552653D01*
X147094602Y-108568802D01*
X147212710Y-108550096D01*
X147212718Y-108550091D01*
X147213625Y-108549798D01*
X147214418Y-108549825D01*
X147219543Y-108549014D01*
X147219700Y-108550009D01*
X147273716Y-108551888D01*
X147318404Y-108592115D01*
X147319118Y-108593486D01*
X147348686Y-108651516D01*
X147348687Y-108651517D01*
X147348689Y-108651520D01*
X147433245Y-108736076D01*
X147433247Y-108736077D01*
X147433248Y-108736078D01*
X147539791Y-108790365D01*
X147555939Y-108792922D01*
X147657900Y-108809071D01*
X147776008Y-108790365D01*
X147882555Y-108736076D01*
X147967111Y-108651520D01*
X148003839Y-108579436D01*
X148047811Y-108538432D01*
X148107855Y-108535284D01*
X148155875Y-108571469D01*
X148165755Y-108592181D01*
X148221714Y-108764406D01*
X148221716Y-108764410D01*
X148323962Y-108965079D01*
X148334386Y-108985536D01*
X148480261Y-109186316D01*
X148655749Y-109361804D01*
X148856529Y-109507679D01*
X149077657Y-109620350D01*
X149313689Y-109697041D01*
X149558811Y-109735865D01*
X149558813Y-109735865D01*
X149806987Y-109735865D01*
X149806989Y-109735865D01*
X150052111Y-109697041D01*
X150288143Y-109620350D01*
X150509271Y-109507679D01*
X150710051Y-109361804D01*
X150885539Y-109186316D01*
X151031414Y-108985536D01*
X151144085Y-108764408D01*
X151220776Y-108528376D01*
X151259600Y-108283254D01*
X151259600Y-108074393D01*
X151280165Y-108017892D01*
X151332236Y-107987828D01*
X151391450Y-107998269D01*
X151425819Y-108034487D01*
X151444686Y-108071516D01*
X151444687Y-108071517D01*
X151444689Y-108071520D01*
X151529245Y-108156076D01*
X151529247Y-108156077D01*
X151529248Y-108156078D01*
X151635791Y-108210365D01*
X151759141Y-108229901D01*
X151811730Y-108259051D01*
X151833278Y-108315184D01*
X151832209Y-108330468D01*
X151821694Y-108396863D01*
X151821694Y-108396864D01*
X151840399Y-108514972D01*
X151840399Y-108514973D01*
X151894686Y-108621516D01*
X151894687Y-108621517D01*
X151894689Y-108621520D01*
X151979245Y-108706076D01*
X151979247Y-108706077D01*
X151979248Y-108706078D01*
X152085791Y-108760365D01*
X152101939Y-108762922D01*
X152203900Y-108779071D01*
X152322008Y-108760365D01*
X152428555Y-108706076D01*
X152513111Y-108621520D01*
X152547821Y-108553397D01*
X152591793Y-108512393D01*
X152651837Y-108509246D01*
X152699858Y-108545430D01*
X152704458Y-108553398D01*
X152724887Y-108593491D01*
X152724889Y-108593494D01*
X152809445Y-108678050D01*
X152809447Y-108678051D01*
X152809448Y-108678052D01*
X152915991Y-108732339D01*
X152932139Y-108734896D01*
X153034100Y-108751045D01*
X153152208Y-108732339D01*
X153258755Y-108678050D01*
X153343311Y-108593494D01*
X153397600Y-108486947D01*
X153416306Y-108368839D01*
X153397600Y-108250731D01*
X153397599Y-108250730D01*
X153396821Y-108245813D01*
X153408294Y-108186791D01*
X153455022Y-108148952D01*
X153515140Y-108150001D01*
X153523545Y-108153744D01*
X153575791Y-108180365D01*
X153591939Y-108182922D01*
X153693900Y-108199071D01*
X153812008Y-108180365D01*
X153918555Y-108126076D01*
X154003111Y-108041520D01*
X154057400Y-107934973D01*
X154073877Y-107830938D01*
X155905436Y-107830938D01*
X155924141Y-107949045D01*
X155924141Y-107949046D01*
X155978428Y-108055589D01*
X155978429Y-108055590D01*
X155978431Y-108055593D01*
X156062987Y-108140149D01*
X156062989Y-108140150D01*
X156062990Y-108140151D01*
X156169533Y-108194438D01*
X156183803Y-108196698D01*
X156287642Y-108213144D01*
X156391481Y-108196698D01*
X156450503Y-108208171D01*
X156483550Y-108243610D01*
X156523686Y-108322381D01*
X156523687Y-108322382D01*
X156523689Y-108322385D01*
X156608245Y-108406941D01*
X156608247Y-108406942D01*
X156608248Y-108406943D01*
X156714791Y-108461230D01*
X156730939Y-108463787D01*
X156832900Y-108479936D01*
X156951008Y-108461230D01*
X157057555Y-108406941D01*
X157142111Y-108322385D01*
X157196400Y-108215838D01*
X157215106Y-108097730D01*
X157196400Y-107979622D01*
X157196400Y-107979621D01*
X157142113Y-107873078D01*
X157142112Y-107873077D01*
X157142111Y-107873075D01*
X157057555Y-107788519D01*
X157057552Y-107788517D01*
X157057551Y-107788516D01*
X156951008Y-107734229D01*
X156832900Y-107715524D01*
X156832899Y-107715524D01*
X156729059Y-107731969D01*
X156670037Y-107720495D01*
X156636991Y-107685058D01*
X156596853Y-107606283D01*
X156512297Y-107521727D01*
X156512294Y-107521725D01*
X156512293Y-107521724D01*
X156405750Y-107467437D01*
X156287642Y-107448732D01*
X156169534Y-107467437D01*
X156169533Y-107467437D01*
X156062990Y-107521724D01*
X155978428Y-107606286D01*
X155924141Y-107712829D01*
X155924141Y-107712830D01*
X155905436Y-107830938D01*
X154073877Y-107830938D01*
X154076106Y-107816865D01*
X154057400Y-107698757D01*
X154057400Y-107698756D01*
X154003113Y-107592213D01*
X154003112Y-107592212D01*
X154003111Y-107592210D01*
X153918555Y-107507654D01*
X153918552Y-107507652D01*
X153918551Y-107507651D01*
X153812008Y-107453364D01*
X153693900Y-107434659D01*
X153575792Y-107453364D01*
X153575791Y-107453364D01*
X153469248Y-107507651D01*
X153384686Y-107592213D01*
X153330399Y-107698756D01*
X153330399Y-107698757D01*
X153311694Y-107816865D01*
X153331178Y-107939890D01*
X153319705Y-107998913D01*
X153272977Y-108036751D01*
X153212859Y-108035701D01*
X153204455Y-108031960D01*
X153152206Y-108005338D01*
X153152208Y-108005338D01*
X153072708Y-107992747D01*
X153020120Y-107963596D01*
X152998572Y-107907463D01*
X152999640Y-107892184D01*
X153001206Y-107882300D01*
X152982500Y-107764192D01*
X152982500Y-107764191D01*
X152928213Y-107657648D01*
X152928212Y-107657647D01*
X152928211Y-107657645D01*
X152843655Y-107573089D01*
X152843652Y-107573087D01*
X152843651Y-107573086D01*
X152737108Y-107518799D01*
X152619000Y-107500094D01*
X152500892Y-107518799D01*
X152500891Y-107518799D01*
X152394348Y-107573086D01*
X152309787Y-107657647D01*
X152273796Y-107728283D01*
X152229821Y-107769289D01*
X152169777Y-107772435D01*
X152121757Y-107736249D01*
X152117158Y-107728283D01*
X152063111Y-107622210D01*
X151978555Y-107537654D01*
X151978552Y-107537652D01*
X151978551Y-107537651D01*
X151872008Y-107483364D01*
X151753900Y-107464659D01*
X151635792Y-107483364D01*
X151635791Y-107483364D01*
X151529248Y-107537651D01*
X151444686Y-107622213D01*
X151390399Y-107728756D01*
X151385571Y-107759244D01*
X151356420Y-107811832D01*
X151300286Y-107833380D01*
X151243435Y-107813804D01*
X151215155Y-107772655D01*
X151215084Y-107772435D01*
X151144085Y-107553922D01*
X151031414Y-107332794D01*
X150885539Y-107132014D01*
X150710051Y-106956526D01*
X150509271Y-106810651D01*
X150509262Y-106810646D01*
X150288145Y-106697981D01*
X150288138Y-106697978D01*
X150052109Y-106621288D01*
X149884635Y-106594763D01*
X149806989Y-106582465D01*
X149558811Y-106582465D01*
X149491781Y-106593081D01*
X149313690Y-106621288D01*
X149077661Y-106697978D01*
X149077654Y-106697981D01*
X148856537Y-106810646D01*
X148856528Y-106810651D01*
X148655748Y-106956526D01*
X148480261Y-107132013D01*
X148334386Y-107332793D01*
X148334381Y-107332802D01*
X148221716Y-107553919D01*
X148221713Y-107553926D01*
X148145023Y-107789955D01*
X148106200Y-108035077D01*
X148106200Y-108129090D01*
X148085635Y-108185591D01*
X148033564Y-108215655D01*
X147974350Y-108205214D01*
X147956149Y-108191248D01*
X147882555Y-108117654D01*
X147882552Y-108117652D01*
X147882551Y-108117651D01*
X147776008Y-108063364D01*
X147657900Y-108044659D01*
X147539788Y-108063365D01*
X147538863Y-108063666D01*
X147538066Y-108063638D01*
X147532959Y-108064447D01*
X147532801Y-108063454D01*
X147478772Y-108061567D01*
X147434090Y-108021333D01*
X147433383Y-108019974D01*
X147403815Y-107961944D01*
X147403814Y-107961943D01*
X147403813Y-107961941D01*
X147319257Y-107877385D01*
X147319254Y-107877383D01*
X147319253Y-107877382D01*
X147212710Y-107823095D01*
X147094602Y-107804390D01*
X147001203Y-107819182D01*
X146942180Y-107807709D01*
X146904342Y-107760981D01*
X146900635Y-107718613D01*
X146901099Y-107715682D01*
X146901100Y-107715681D01*
X146919806Y-107597573D01*
X146901100Y-107479465D01*
X146901100Y-107479464D01*
X146846813Y-107372921D01*
X146846812Y-107372920D01*
X146846811Y-107372918D01*
X146762255Y-107288362D01*
X146762252Y-107288360D01*
X146762251Y-107288359D01*
X146724479Y-107269113D01*
X146683472Y-107225139D01*
X146680326Y-107165094D01*
X146686063Y-107150893D01*
X146704287Y-107115128D01*
X146722993Y-106997020D01*
X146704287Y-106878912D01*
X146704287Y-106878911D01*
X146650000Y-106772368D01*
X146649999Y-106772367D01*
X146649998Y-106772365D01*
X146618778Y-106741145D01*
X146593368Y-106686653D01*
X146608931Y-106628575D01*
X146641025Y-106600674D01*
X146728555Y-106556076D01*
X146813111Y-106471520D01*
X146867400Y-106364973D01*
X146886106Y-106246865D01*
X146867400Y-106128757D01*
X146867400Y-106128756D01*
X146813113Y-106022213D01*
X146813112Y-106022212D01*
X146813111Y-106022210D01*
X146728555Y-105937654D01*
X146728552Y-105937652D01*
X146728551Y-105937651D01*
X146622008Y-105883364D01*
X146503900Y-105864659D01*
X146385792Y-105883364D01*
X146385791Y-105883364D01*
X146279248Y-105937651D01*
X146194686Y-106022213D01*
X146140399Y-106128756D01*
X146140399Y-106128757D01*
X146121694Y-106246865D01*
X146140399Y-106364972D01*
X146140399Y-106364973D01*
X146194686Y-106471516D01*
X146194687Y-106471517D01*
X146194689Y-106471520D01*
X146225907Y-106502738D01*
X146251318Y-106557231D01*
X146235755Y-106615309D01*
X146203658Y-106643211D01*
X146116135Y-106687806D01*
X146031573Y-106772368D01*
X145977286Y-106878911D01*
X145977286Y-106878912D01*
X145958581Y-106997020D01*
X145766400Y-106997020D01*
X145766400Y-104374991D01*
X148805400Y-104374991D01*
X148816091Y-104448368D01*
X148822723Y-104461934D01*
X148871422Y-104561551D01*
X148871423Y-104561552D01*
X148871424Y-104561554D01*
X148960511Y-104650641D01*
X149073697Y-104705974D01*
X149147074Y-104716665D01*
X149147078Y-104716665D01*
X150218722Y-104716665D01*
X150218726Y-104716665D01*
X150292103Y-104705974D01*
X150405289Y-104650641D01*
X150494376Y-104561554D01*
X150549709Y-104448368D01*
X150560400Y-104374991D01*
X150560400Y-103303339D01*
X150549709Y-103229962D01*
X150494376Y-103116776D01*
X150405289Y-103027689D01*
X150405287Y-103027688D01*
X150405286Y-103027687D01*
X150314747Y-102983426D01*
X150292103Y-102972356D01*
X150218726Y-102961665D01*
X149147074Y-102961665D01*
X149073697Y-102972356D01*
X149073695Y-102972357D01*
X148960513Y-103027687D01*
X148871422Y-103116778D01*
X148817271Y-103227547D01*
X148816091Y-103229962D01*
X148805400Y-103303339D01*
X148805400Y-104374991D01*
X145766400Y-104374991D01*
X145766400Y-101173275D01*
X145766274Y-101167504D01*
X145765940Y-101159843D01*
X145753652Y-101109617D01*
X145753649Y-101109612D01*
X145753649Y-101109609D01*
X145728245Y-101055130D01*
X145728242Y-101055126D01*
X145728241Y-101055123D01*
X145701847Y-101017428D01*
X145523588Y-100839169D01*
X148800566Y-100839169D01*
X148819845Y-101022603D01*
X148819847Y-101022613D01*
X148868800Y-101173275D01*
X148876850Y-101198048D01*
X148969074Y-101357783D01*
X148969079Y-101357791D01*
X149079421Y-101480338D01*
X149092503Y-101494867D01*
X149241733Y-101603289D01*
X149410244Y-101678315D01*
X149590671Y-101716665D01*
X149590673Y-101716665D01*
X149595252Y-101717147D01*
X149594982Y-101719713D01*
X149643107Y-101737230D01*
X149648761Y-101742410D01*
X149938473Y-102032122D01*
X149942656Y-102036125D01*
X149944925Y-102038203D01*
X149948302Y-102041297D01*
X149992491Y-102068109D01*
X150048992Y-102088674D01*
X150094310Y-102096665D01*
X150094313Y-102096665D01*
X154760010Y-102096665D01*
X154771530Y-102096162D01*
X154771538Y-102096161D01*
X154771544Y-102096161D01*
X154786808Y-102094826D01*
X154841515Y-102077578D01*
X154893586Y-102047514D01*
X154907578Y-102038205D01*
X154951844Y-101978084D01*
X154972409Y-101921583D01*
X154980400Y-101876265D01*
X154980400Y-99802065D01*
X154979896Y-99790521D01*
X154978561Y-99775257D01*
X154961313Y-99720550D01*
X154931249Y-99668479D01*
X154921940Y-99654487D01*
X154870998Y-99616979D01*
X154861818Y-99610220D01*
X154805322Y-99589657D01*
X154805319Y-99589656D01*
X154805318Y-99589656D01*
X154760000Y-99581665D01*
X150094310Y-99581665D01*
X150094035Y-99581671D01*
X150088519Y-99581791D01*
X150080883Y-99582124D01*
X150080878Y-99582125D01*
X150030644Y-99594415D01*
X149976165Y-99619819D01*
X149976161Y-99619822D01*
X149938461Y-99646219D01*
X149648761Y-99935920D01*
X149595220Y-99960886D01*
X149595252Y-99961183D01*
X149594390Y-99961273D01*
X149594267Y-99961331D01*
X149593544Y-99961362D01*
X149590673Y-99961664D01*
X149410248Y-100000014D01*
X149410246Y-100000014D01*
X149410244Y-100000015D01*
X149410242Y-100000016D01*
X149241735Y-100075039D01*
X149092502Y-100183463D01*
X148969079Y-100320538D01*
X148969074Y-100320546D01*
X148876850Y-100480281D01*
X148819847Y-100655716D01*
X148819845Y-100655726D01*
X148800566Y-100839160D01*
X148800566Y-100839169D01*
X145523588Y-100839169D01*
X144930094Y-100245675D01*
X144925909Y-100241670D01*
X144925900Y-100241661D01*
X144920256Y-100236491D01*
X144920255Y-100236490D01*
X144876066Y-100209678D01*
X144819565Y-100189113D01*
X144803439Y-100184378D01*
X144803436Y-100184377D01*
X144728930Y-100189113D01*
X144728926Y-100189114D01*
X144672437Y-100209673D01*
X144672430Y-100209677D01*
X144632577Y-100232684D01*
X144632569Y-100232690D01*
X144493795Y-100349136D01*
X144485596Y-100355240D01*
X144227000Y-100525322D01*
X144218147Y-100530434D01*
X143941561Y-100669339D01*
X143932176Y-100673387D01*
X143641319Y-100779251D01*
X143631526Y-100782183D01*
X143330356Y-100853562D01*
X143320290Y-100855337D01*
X143012861Y-100891271D01*
X143002656Y-100891865D01*
X142693146Y-100891865D01*
X142682941Y-100891271D01*
X142375508Y-100855337D01*
X142365442Y-100853562D01*
X142064272Y-100782183D01*
X142054479Y-100779251D01*
X141763622Y-100673387D01*
X141754237Y-100669339D01*
X141670239Y-100627154D01*
X141477646Y-100530431D01*
X141468798Y-100525322D01*
X141210200Y-100355239D01*
X141202001Y-100349135D01*
X141073928Y-100241670D01*
X140995581Y-100175929D01*
X140955730Y-100152921D01*
X140899229Y-100132356D01*
X140853911Y-100124365D01*
X136200310Y-100124365D01*
X136200035Y-100124371D01*
X136194519Y-100124491D01*
X136186883Y-100124824D01*
X136186878Y-100124825D01*
X136136644Y-100137115D01*
X136082165Y-100162519D01*
X136082161Y-100162522D01*
X136044461Y-100188919D01*
X134815942Y-101417438D01*
X134811939Y-101421621D01*
X134806769Y-101427265D01*
X134806768Y-101427267D01*
X134779956Y-101471456D01*
X134759391Y-101527957D01*
X134751400Y-101573275D01*
X134751400Y-101573278D01*
X134751400Y-105848460D01*
X134752532Y-105865754D01*
X134752533Y-105865755D01*
X134755527Y-105888500D01*
X134755530Y-105888511D01*
X134778354Y-105947204D01*
X134778359Y-105947213D01*
X134812844Y-105996460D01*
X134823339Y-106009590D01*
X134837731Y-106018362D01*
X134857926Y-106030673D01*
X134895468Y-106077639D01*
X134898995Y-106119478D01*
X134884363Y-106211866D01*
X134898930Y-106303844D01*
X134887457Y-106362867D01*
X134856063Y-106393717D01*
X134838232Y-106404011D01*
X134838223Y-106404017D01*
X134838214Y-106404023D01*
X134824222Y-106413332D01*
X134824221Y-106413332D01*
X134824221Y-106413333D01*
X134779955Y-106473453D01*
X134759392Y-106529949D01*
X134759391Y-106529953D01*
X134759391Y-106529954D01*
X134751400Y-106575272D01*
X134751400Y-106575275D01*
X134751400Y-108650453D01*
X126976400Y-108650453D01*
X126976400Y-106446865D01*
X128771694Y-106446865D01*
X128790399Y-106564972D01*
X128790399Y-106564973D01*
X128844686Y-106671516D01*
X128844687Y-106671517D01*
X128844689Y-106671520D01*
X128929245Y-106756076D01*
X128929247Y-106756077D01*
X128929248Y-106756078D01*
X129035791Y-106810365D01*
X129051939Y-106812922D01*
X129153900Y-106829071D01*
X129272008Y-106810365D01*
X129298503Y-106796865D01*
X129821694Y-106796865D01*
X129840399Y-106914972D01*
X129840399Y-106914973D01*
X129894686Y-107021516D01*
X129894687Y-107021517D01*
X129894689Y-107021520D01*
X129979245Y-107106076D01*
X129979247Y-107106077D01*
X129979248Y-107106078D01*
X130085791Y-107160365D01*
X130101939Y-107162922D01*
X130203900Y-107179071D01*
X130322008Y-107160365D01*
X130428555Y-107106076D01*
X130513111Y-107021520D01*
X130567400Y-106914973D01*
X130586106Y-106796865D01*
X130567400Y-106678757D01*
X130567400Y-106678756D01*
X130513113Y-106572213D01*
X130513112Y-106572212D01*
X130513111Y-106572210D01*
X130428555Y-106487654D01*
X130428552Y-106487652D01*
X130423663Y-106482763D01*
X130425548Y-106480877D01*
X130398001Y-106440027D01*
X130404294Y-106380230D01*
X130443388Y-106340453D01*
X130459829Y-106332076D01*
X130507383Y-106284521D01*
X130561876Y-106259111D01*
X130619954Y-106274674D01*
X130631685Y-106284516D01*
X130679245Y-106332076D01*
X130679247Y-106332077D01*
X130679248Y-106332078D01*
X130785791Y-106386365D01*
X130801939Y-106388922D01*
X130903900Y-106405071D01*
X131022008Y-106386365D01*
X131128555Y-106332076D01*
X131213111Y-106247520D01*
X131267400Y-106140973D01*
X131286106Y-106022865D01*
X131267400Y-105904757D01*
X131267400Y-105904756D01*
X131213113Y-105798213D01*
X131213112Y-105798212D01*
X131213111Y-105798210D01*
X131128555Y-105713654D01*
X131128552Y-105713652D01*
X131128551Y-105713651D01*
X131022008Y-105659364D01*
X130903900Y-105640659D01*
X130785792Y-105659364D01*
X130785791Y-105659364D01*
X130679248Y-105713651D01*
X130679245Y-105713653D01*
X130679245Y-105713654D01*
X130631690Y-105761208D01*
X130577198Y-105786619D01*
X130519120Y-105771056D01*
X130507388Y-105761213D01*
X130459829Y-105713654D01*
X130459826Y-105713652D01*
X130459825Y-105713651D01*
X130353282Y-105659364D01*
X130235174Y-105640659D01*
X130117066Y-105659364D01*
X130117065Y-105659364D01*
X130010522Y-105713651D01*
X129925960Y-105798213D01*
X129871673Y-105904756D01*
X129871673Y-105904757D01*
X129852968Y-106022865D01*
X129871673Y-106140972D01*
X129871673Y-106140973D01*
X129925960Y-106247516D01*
X129925961Y-106247517D01*
X129925963Y-106247520D01*
X130010519Y-106332076D01*
X130010521Y-106332077D01*
X130015411Y-106336967D01*
X130013524Y-106338853D01*
X130041070Y-106379696D01*
X130034782Y-106439493D01*
X129995689Y-106479274D01*
X129979248Y-106487651D01*
X129894686Y-106572213D01*
X129840399Y-106678756D01*
X129840399Y-106678757D01*
X129821694Y-106796865D01*
X129298503Y-106796865D01*
X129378555Y-106756076D01*
X129463111Y-106671520D01*
X129517400Y-106564973D01*
X129536106Y-106446865D01*
X129517400Y-106328757D01*
X129517400Y-106328756D01*
X129463113Y-106222213D01*
X129463112Y-106222212D01*
X129463111Y-106222210D01*
X129378555Y-106137654D01*
X129378552Y-106137652D01*
X129378551Y-106137651D01*
X129272008Y-106083364D01*
X129153900Y-106064659D01*
X129035792Y-106083364D01*
X129035791Y-106083364D01*
X128929248Y-106137651D01*
X128844686Y-106222213D01*
X128790399Y-106328756D01*
X128790399Y-106328757D01*
X128771694Y-106446865D01*
X126976400Y-106446865D01*
X126976400Y-105397765D01*
X133497494Y-105397765D01*
X133516199Y-105515872D01*
X133516199Y-105515873D01*
X133570486Y-105622416D01*
X133570487Y-105622417D01*
X133570489Y-105622420D01*
X133655045Y-105706976D01*
X133655047Y-105706977D01*
X133655048Y-105706978D01*
X133761591Y-105761265D01*
X133777739Y-105763822D01*
X133879700Y-105779971D01*
X133997808Y-105761265D01*
X134104355Y-105706976D01*
X134188911Y-105622420D01*
X134243200Y-105515873D01*
X134261906Y-105397765D01*
X134243200Y-105279657D01*
X134243200Y-105279656D01*
X134188913Y-105173113D01*
X134188912Y-105173112D01*
X134188911Y-105173110D01*
X134104355Y-105088554D01*
X134104352Y-105088552D01*
X134104351Y-105088551D01*
X133997808Y-105034264D01*
X133879700Y-105015559D01*
X133761592Y-105034264D01*
X133761591Y-105034264D01*
X133655048Y-105088551D01*
X133570486Y-105173113D01*
X133516199Y-105279656D01*
X133516199Y-105279657D01*
X133497494Y-105397765D01*
X126976400Y-105397765D01*
X126976400Y-103063647D01*
X126969553Y-103021604D01*
X126951853Y-102968704D01*
X126946986Y-102956278D01*
X126898364Y-102899622D01*
X126847937Y-102866875D01*
X126847935Y-102866874D01*
X126847926Y-102866868D01*
X126833292Y-102858635D01*
X126833287Y-102858634D01*
X126759629Y-102846486D01*
X126699948Y-102853814D01*
X126699943Y-102853815D01*
X126655936Y-102867269D01*
X126596298Y-102897657D01*
X126570143Y-102906156D01*
X126520992Y-102913941D01*
X126493490Y-102913941D01*
X126444334Y-102906155D01*
X126418179Y-102897656D01*
X126373848Y-102875068D01*
X126351599Y-102858904D01*
X126316403Y-102823708D01*
X126300242Y-102801464D01*
X126277645Y-102757119D01*
X126269148Y-102730965D01*
X126261364Y-102681814D01*
X126261364Y-102654318D01*
X126269149Y-102605161D01*
X126277647Y-102579007D01*
X126300236Y-102534672D01*
X126316398Y-102512425D01*
X126351604Y-102477219D01*
X126373846Y-102461060D01*
X126418183Y-102438469D01*
X126444331Y-102429973D01*
X126493495Y-102422187D01*
X126520987Y-102422187D01*
X126570144Y-102429972D01*
X126596296Y-102438469D01*
X126655940Y-102468860D01*
X126682062Y-102477222D01*
X126696506Y-102481846D01*
X126696507Y-102481846D01*
X126696510Y-102481847D01*
X126751680Y-102490092D01*
X126764961Y-102491397D01*
X126837515Y-102473795D01*
X126889586Y-102443731D01*
X126903578Y-102434422D01*
X126947844Y-102374301D01*
X126968409Y-102317800D01*
X126976400Y-102272482D01*
X126976400Y-98339349D01*
X126972463Y-98307288D01*
X126962170Y-98266014D01*
X126962163Y-98265989D01*
X126962153Y-98265947D01*
X126961425Y-98263163D01*
X126922259Y-98199600D01*
X126877577Y-98159376D01*
X126877572Y-98159372D01*
X126864390Y-98148940D01*
X126864389Y-98148939D01*
X126793530Y-98125426D01*
X126771392Y-98124655D01*
X126771363Y-98124643D01*
X126733808Y-98123347D01*
X126733787Y-98123346D01*
X126728609Y-98123166D01*
X126725118Y-98121963D01*
X126719338Y-98122317D01*
X126715998Y-98123947D01*
X126709102Y-98125040D01*
X126709077Y-98125044D01*
X126674407Y-98130528D01*
X126674398Y-98130534D01*
X126673797Y-98130631D01*
X126669524Y-98131308D01*
X126622592Y-98138741D01*
X126595091Y-98138741D01*
X126545934Y-98130955D01*
X126519779Y-98122456D01*
X126475448Y-98099868D01*
X126453199Y-98083704D01*
X126418003Y-98048508D01*
X126401842Y-98026264D01*
X126379245Y-97981919D01*
X126370748Y-97955765D01*
X126365198Y-97920719D01*
X126362964Y-97906611D01*
X126362964Y-97879118D01*
X126370749Y-97829961D01*
X126379247Y-97803807D01*
X126390834Y-97781065D01*
X126401837Y-97759470D01*
X126417998Y-97737225D01*
X126453204Y-97702019D01*
X126475446Y-97685860D01*
X126519783Y-97663269D01*
X126545931Y-97654773D01*
X126595094Y-97646987D01*
X126622585Y-97646987D01*
X126693613Y-97658236D01*
X126697952Y-97660641D01*
X126713540Y-97661731D01*
X126721164Y-97662600D01*
X126733005Y-97664476D01*
X126736878Y-97663364D01*
X126736896Y-97663364D01*
X126762020Y-97665122D01*
X126762056Y-97665124D01*
X126762083Y-97665126D01*
X126764955Y-97665295D01*
X126764956Y-97665294D01*
X126764961Y-97665295D01*
X126837515Y-97647693D01*
X126889586Y-97617629D01*
X126903578Y-97608320D01*
X126947844Y-97548199D01*
X126968409Y-97491698D01*
X126976400Y-97446380D01*
X126976400Y-96167265D01*
X126996965Y-96110764D01*
X127049036Y-96080700D01*
X127064300Y-96079365D01*
X129411489Y-96079365D01*
X129411490Y-96079365D01*
X129417261Y-96079239D01*
X129424922Y-96078905D01*
X129475148Y-96066617D01*
X129475153Y-96066614D01*
X129475155Y-96066614D01*
X129529634Y-96041210D01*
X129529634Y-96041209D01*
X129529642Y-96041206D01*
X129567337Y-96014812D01*
X129915847Y-95666302D01*
X129919852Y-95662117D01*
X129925032Y-95656463D01*
X129951844Y-95612274D01*
X129972409Y-95555773D01*
X129980400Y-95510455D01*
X129980400Y-95426866D01*
X136261791Y-95426866D01*
X136271940Y-95510455D01*
X136280159Y-95578139D01*
X136280161Y-95578143D01*
X136334194Y-95720620D01*
X136420757Y-95846027D01*
X136420760Y-95846031D01*
X136534821Y-95947081D01*
X136669751Y-96017897D01*
X136817708Y-96054365D01*
X136817710Y-96054365D01*
X136970089Y-96054365D01*
X136970092Y-96054365D01*
X137118049Y-96017897D01*
X137252979Y-95947081D01*
X137367040Y-95846031D01*
X137453605Y-95720621D01*
X137507641Y-95578139D01*
X137526009Y-95426865D01*
X137507641Y-95275591D01*
X137453605Y-95133109D01*
X137367040Y-95007699D01*
X137252979Y-94906649D01*
X137252977Y-94906648D01*
X137252976Y-94906647D01*
X137118051Y-94835834D01*
X137118050Y-94835833D01*
X137118049Y-94835833D01*
X136970092Y-94799365D01*
X136817708Y-94799365D01*
X136669751Y-94835833D01*
X136669750Y-94835833D01*
X136669748Y-94835834D01*
X136534823Y-94906647D01*
X136534818Y-94906651D01*
X136420757Y-95007702D01*
X136334194Y-95133109D01*
X136285240Y-95262192D01*
X136280159Y-95275591D01*
X136280158Y-95275593D01*
X136280158Y-95275596D01*
X136261791Y-95426863D01*
X136261791Y-95426866D01*
X129980400Y-95426866D01*
X129980400Y-93838159D01*
X130000965Y-93781658D01*
X130006145Y-93776004D01*
X130277039Y-93505110D01*
X130331533Y-93479699D01*
X130339194Y-93479365D01*
X145956606Y-93479365D01*
X146013107Y-93499930D01*
G37*
%TD.AperFunction*%
%TA.AperFunction,Conductor*%
G36*
X123074229Y-97789419D02*
G01*
X123093413Y-97793798D01*
X123217233Y-97837124D01*
X123234967Y-97845664D01*
X123346031Y-97915449D01*
X123361421Y-97927721D01*
X123454182Y-98020482D01*
X123466454Y-98035871D01*
X123536242Y-98146937D01*
X123544779Y-98164664D01*
X123580243Y-98266014D01*
X123588104Y-98288479D01*
X123592483Y-98307667D01*
X123607172Y-98438022D01*
X123607172Y-98457708D01*
X123592484Y-98588056D01*
X123588104Y-98607244D01*
X123544780Y-98731059D01*
X123536240Y-98748793D01*
X123466456Y-98859854D01*
X123454184Y-98875244D01*
X123361423Y-98968005D01*
X123346034Y-98980277D01*
X123234968Y-99050065D01*
X123217237Y-99058603D01*
X123100644Y-99099400D01*
X123093425Y-99101927D01*
X123074237Y-99106306D01*
X122943884Y-99120995D01*
X122924199Y-99120995D01*
X122793853Y-99106308D01*
X122774664Y-99101928D01*
X122650858Y-99058607D01*
X122633124Y-99050068D01*
X122522046Y-98980275D01*
X122506656Y-98968002D01*
X122413900Y-98875246D01*
X122401628Y-98859856D01*
X122331839Y-98748787D01*
X122323299Y-98731054D01*
X122279978Y-98607251D01*
X122275598Y-98588061D01*
X122260910Y-98457698D01*
X122260910Y-98438030D01*
X122275596Y-98307674D01*
X122279972Y-98288497D01*
X122323305Y-98164657D01*
X122331835Y-98146947D01*
X122401627Y-98035871D01*
X122413891Y-98020491D01*
X122506665Y-97927717D01*
X122522045Y-97915452D01*
X122633121Y-97845658D01*
X122650849Y-97837122D01*
X122774654Y-97793800D01*
X122793841Y-97789421D01*
X122924206Y-97774733D01*
X122943874Y-97774733D01*
X123074229Y-97789419D01*
G37*
%TD.AperFunction*%
%TA.AperFunction,Conductor*%
G36*
X123074229Y-95789419D02*
G01*
X123093413Y-95793798D01*
X123217233Y-95837124D01*
X123234967Y-95845664D01*
X123346031Y-95915449D01*
X123361421Y-95927721D01*
X123454182Y-96020482D01*
X123466454Y-96035871D01*
X123536242Y-96146937D01*
X123544779Y-96164664D01*
X123588104Y-96288479D01*
X123592483Y-96307667D01*
X123607172Y-96438022D01*
X123607172Y-96457708D01*
X123592484Y-96588056D01*
X123588104Y-96607244D01*
X123544780Y-96731059D01*
X123536240Y-96748793D01*
X123466456Y-96859854D01*
X123454184Y-96875244D01*
X123361423Y-96968005D01*
X123346034Y-96980277D01*
X123234968Y-97050065D01*
X123217237Y-97058603D01*
X123102099Y-97098892D01*
X123093425Y-97101927D01*
X123074237Y-97106306D01*
X122943884Y-97120995D01*
X122924199Y-97120995D01*
X122793853Y-97106308D01*
X122774664Y-97101928D01*
X122650858Y-97058607D01*
X122633124Y-97050068D01*
X122522046Y-96980275D01*
X122506656Y-96968002D01*
X122413900Y-96875246D01*
X122401628Y-96859856D01*
X122331839Y-96748787D01*
X122323299Y-96731054D01*
X122306281Y-96682421D01*
X122279976Y-96607244D01*
X122275598Y-96588061D01*
X122260910Y-96457698D01*
X122260910Y-96438030D01*
X122275596Y-96307674D01*
X122279972Y-96288497D01*
X122323305Y-96164657D01*
X122331835Y-96146947D01*
X122401627Y-96035871D01*
X122413891Y-96020491D01*
X122506665Y-95927717D01*
X122522045Y-95915452D01*
X122633121Y-95845658D01*
X122650849Y-95837122D01*
X122774654Y-95793800D01*
X122793841Y-95789421D01*
X122924206Y-95774733D01*
X122943874Y-95774733D01*
X123074229Y-95789419D01*
G37*
%TD.AperFunction*%
%TA.AperFunction,Conductor*%
G36*
X168714063Y-85840635D02*
G01*
X168902921Y-85855502D01*
X168916540Y-85857659D01*
X169097382Y-85901079D01*
X169110493Y-85905340D01*
X169282312Y-85976513D01*
X169294595Y-85982771D01*
X169453164Y-86079947D01*
X169464323Y-86088054D01*
X169605742Y-86208841D01*
X169615495Y-86218595D01*
X169736271Y-86360012D01*
X169744378Y-86371171D01*
X169841545Y-86529740D01*
X169847807Y-86542030D01*
X169918973Y-86713850D01*
X169923235Y-86726968D01*
X169966647Y-86907807D01*
X169968804Y-86921430D01*
X169983718Y-87110987D01*
X169983989Y-87117882D01*
X169983989Y-87162491D01*
X169983998Y-87162578D01*
X169983998Y-96054465D01*
X169963433Y-96110966D01*
X169911362Y-96141030D01*
X169896098Y-96142365D01*
X162241595Y-96142365D01*
X162227765Y-96143090D01*
X162227725Y-96143093D01*
X162209488Y-96145010D01*
X162209481Y-96145011D01*
X162153120Y-96164419D01*
X162102124Y-96196284D01*
X162102115Y-96196291D01*
X162088467Y-96206074D01*
X162088466Y-96206075D01*
X162085550Y-96210340D01*
X162036681Y-96245369D01*
X161976728Y-96240790D01*
X161961335Y-96231836D01*
X161937600Y-96214592D01*
X161937599Y-96214591D01*
X161937597Y-96214590D01*
X161824910Y-96164419D01*
X161766785Y-96138540D01*
X161637058Y-96110966D01*
X161583891Y-96099665D01*
X161583890Y-96099665D01*
X161396910Y-96099665D01*
X161396909Y-96099665D01*
X161214019Y-96138539D01*
X161214017Y-96138539D01*
X161214015Y-96138540D01*
X161203789Y-96143093D01*
X161043195Y-96214594D01*
X161021148Y-96230612D01*
X160963350Y-96247184D01*
X160908422Y-96222726D01*
X160905864Y-96220152D01*
X160901133Y-96215190D01*
X160901131Y-96215187D01*
X160841010Y-96170921D01*
X160841009Y-96170920D01*
X160784513Y-96150357D01*
X160784498Y-96150353D01*
X160743397Y-96143106D01*
X160696507Y-96118697D01*
X158738070Y-94160260D01*
X158729548Y-94152452D01*
X158717809Y-94142602D01*
X158666932Y-94116118D01*
X158662644Y-94114969D01*
X158613392Y-94080479D01*
X158597498Y-94030065D01*
X158597498Y-94024866D01*
X158578792Y-93906758D01*
X158578792Y-93906757D01*
X158524505Y-93800214D01*
X158524504Y-93800213D01*
X158524503Y-93800211D01*
X158479659Y-93755367D01*
X159222290Y-93755367D01*
X159240658Y-93906641D01*
X159264304Y-93968993D01*
X159294693Y-94049122D01*
X159381256Y-94174529D01*
X159381259Y-94174533D01*
X159495320Y-94275583D01*
X159630250Y-94346399D01*
X159778207Y-94382867D01*
X159778209Y-94382867D01*
X159930588Y-94382867D01*
X159930591Y-94382867D01*
X160078548Y-94346399D01*
X160213478Y-94275583D01*
X160327539Y-94174533D01*
X160414104Y-94049123D01*
X160468140Y-93906641D01*
X160486508Y-93755367D01*
X160468140Y-93604093D01*
X160414104Y-93461611D01*
X160327539Y-93336201D01*
X160213478Y-93235151D01*
X160213476Y-93235150D01*
X160213475Y-93235149D01*
X160078550Y-93164336D01*
X160078549Y-93164335D01*
X160078548Y-93164335D01*
X159930591Y-93127867D01*
X159778207Y-93127867D01*
X159630250Y-93164335D01*
X159630249Y-93164335D01*
X159630247Y-93164336D01*
X159495322Y-93235149D01*
X159495317Y-93235153D01*
X159381256Y-93336204D01*
X159294693Y-93461611D01*
X159271008Y-93524065D01*
X159240658Y-93604093D01*
X159240657Y-93604095D01*
X159240657Y-93604098D01*
X159227112Y-93715652D01*
X159222290Y-93755367D01*
X158479659Y-93755367D01*
X158439947Y-93715655D01*
X158439944Y-93715653D01*
X158439943Y-93715652D01*
X158333400Y-93661365D01*
X158215292Y-93642660D01*
X158210261Y-93642660D01*
X158153760Y-93622095D01*
X158130597Y-93591909D01*
X158106290Y-93539781D01*
X158079896Y-93502086D01*
X157159729Y-92581919D01*
X157155544Y-92577914D01*
X157155535Y-92577905D01*
X157152985Y-92575569D01*
X157149890Y-92572734D01*
X157149887Y-92572732D01*
X157146402Y-92570617D01*
X157108769Y-92523724D01*
X157110083Y-92463611D01*
X157149729Y-92418406D01*
X157152047Y-92417179D01*
X157241547Y-92371577D01*
X157326103Y-92287021D01*
X157380392Y-92180474D01*
X157399098Y-92062366D01*
X157380392Y-91944258D01*
X157380392Y-91944257D01*
X157326105Y-91837714D01*
X157326104Y-91837713D01*
X157326103Y-91837711D01*
X157241547Y-91753155D01*
X157241544Y-91753153D01*
X157241543Y-91753152D01*
X157135000Y-91698865D01*
X157016892Y-91680160D01*
X156898784Y-91698865D01*
X156898783Y-91698865D01*
X156792240Y-91753152D01*
X156707678Y-91837714D01*
X156653391Y-91944257D01*
X156653391Y-91944258D01*
X156634686Y-92062366D01*
X156653391Y-92180473D01*
X156653391Y-92180474D01*
X156707678Y-92287017D01*
X156707679Y-92287018D01*
X156707681Y-92287021D01*
X156787972Y-92367312D01*
X156813383Y-92421805D01*
X156797820Y-92479883D01*
X156748567Y-92514371D01*
X156725817Y-92517366D01*
X153881586Y-92517366D01*
X153825085Y-92496801D01*
X153819432Y-92491621D01*
X153665337Y-92337527D01*
X153639926Y-92283033D01*
X153649172Y-92235466D01*
X153677192Y-92180474D01*
X153677192Y-92180473D01*
X153695898Y-92062366D01*
X153677192Y-91944258D01*
X153677192Y-91944257D01*
X153622905Y-91837714D01*
X153622904Y-91837713D01*
X153622903Y-91837711D01*
X153538347Y-91753155D01*
X153538344Y-91753153D01*
X153538343Y-91753152D01*
X153431800Y-91698865D01*
X153313692Y-91680160D01*
X153195584Y-91698865D01*
X153140591Y-91726886D01*
X153080912Y-91734213D01*
X153038531Y-91710721D01*
X150040717Y-88712907D01*
X150036534Y-88708904D01*
X150030890Y-88703734D01*
X150030889Y-88703733D01*
X149986700Y-88676921D01*
X149930199Y-88656356D01*
X149884881Y-88648365D01*
X128232881Y-88648365D01*
X128229302Y-88648413D01*
X128224597Y-88648539D01*
X128176232Y-88659093D01*
X128176226Y-88659095D01*
X128120906Y-88682665D01*
X128120894Y-88682671D01*
X128105905Y-88690213D01*
X128105900Y-88690217D01*
X128054708Y-88744563D01*
X128027483Y-88798172D01*
X128014087Y-88842197D01*
X128014087Y-88842200D01*
X128008332Y-88889599D01*
X128003261Y-88910174D01*
X127968203Y-89002614D01*
X127958355Y-89021377D01*
X127902196Y-89102736D01*
X127888145Y-89118596D01*
X127814146Y-89184155D01*
X127796705Y-89196194D01*
X127709168Y-89242136D01*
X127689357Y-89249650D01*
X127641361Y-89261480D01*
X127593363Y-89273311D01*
X127572329Y-89275865D01*
X127473473Y-89275865D01*
X127452437Y-89273311D01*
X127356440Y-89249650D01*
X127336628Y-89242136D01*
X127249090Y-89196192D01*
X127231654Y-89184157D01*
X127157651Y-89118596D01*
X127143601Y-89102736D01*
X127087440Y-89021373D01*
X127077595Y-89002614D01*
X127042538Y-88910174D01*
X127037468Y-88889605D01*
X127037467Y-88889599D01*
X127031709Y-88842178D01*
X127031236Y-88838680D01*
X127030545Y-88834029D01*
X127014232Y-88787250D01*
X126984168Y-88735179D01*
X126974859Y-88721187D01*
X126922548Y-88682671D01*
X126914737Y-88676920D01*
X126858241Y-88656357D01*
X126858238Y-88656356D01*
X126858237Y-88656356D01*
X126812919Y-88648365D01*
X125450310Y-88648365D01*
X125450035Y-88648371D01*
X125444519Y-88648491D01*
X125436883Y-88648824D01*
X125436878Y-88648825D01*
X125394901Y-88659095D01*
X125386644Y-88661115D01*
X125332165Y-88686519D01*
X125332161Y-88686522D01*
X125332158Y-88686523D01*
X125332158Y-88686524D01*
X125326884Y-88690217D01*
X125294461Y-88712919D01*
X124979942Y-89027438D01*
X124975939Y-89031621D01*
X124970769Y-89037265D01*
X124943956Y-89081456D01*
X124930438Y-89118597D01*
X124923391Y-89137957D01*
X124915400Y-89183275D01*
X124915400Y-89183278D01*
X124915400Y-93608465D01*
X124894835Y-93664966D01*
X124842764Y-93695030D01*
X124827500Y-93696365D01*
X117472898Y-93696365D01*
X117416397Y-93675800D01*
X117386333Y-93623729D01*
X117384998Y-93608465D01*
X117384998Y-88046865D01*
X158471694Y-88046865D01*
X158490399Y-88164972D01*
X158490399Y-88164973D01*
X158544686Y-88271516D01*
X158544687Y-88271517D01*
X158544689Y-88271520D01*
X158629245Y-88356076D01*
X158629247Y-88356077D01*
X158629248Y-88356078D01*
X158735791Y-88410365D01*
X158751939Y-88412922D01*
X158853900Y-88429071D01*
X158972008Y-88410365D01*
X159078555Y-88356076D01*
X159163111Y-88271520D01*
X159217400Y-88164973D01*
X159236106Y-88046865D01*
X159217400Y-87928757D01*
X159217400Y-87928756D01*
X159175674Y-87846865D01*
X160471694Y-87846865D01*
X160490399Y-87964972D01*
X160490399Y-87964973D01*
X160544686Y-88071516D01*
X160544687Y-88071517D01*
X160544689Y-88071520D01*
X160629245Y-88156076D01*
X160629247Y-88156077D01*
X160629248Y-88156078D01*
X160735791Y-88210365D01*
X160751939Y-88212922D01*
X160853900Y-88229071D01*
X160972008Y-88210365D01*
X161078555Y-88156076D01*
X161163111Y-88071520D01*
X161217400Y-87964973D01*
X161236106Y-87846865D01*
X162471694Y-87846865D01*
X162490399Y-87964972D01*
X162490399Y-87964973D01*
X162544686Y-88071516D01*
X162544687Y-88071517D01*
X162544689Y-88071520D01*
X162629245Y-88156076D01*
X162629247Y-88156077D01*
X162629248Y-88156078D01*
X162735791Y-88210365D01*
X162751939Y-88212922D01*
X162853900Y-88229071D01*
X162972008Y-88210365D01*
X163078555Y-88156076D01*
X163163111Y-88071520D01*
X163217400Y-87964973D01*
X163236106Y-87846865D01*
X164471694Y-87846865D01*
X164490399Y-87964972D01*
X164490399Y-87964973D01*
X164544686Y-88071516D01*
X164544687Y-88071517D01*
X164544689Y-88071520D01*
X164629245Y-88156076D01*
X164629247Y-88156077D01*
X164629248Y-88156078D01*
X164735791Y-88210365D01*
X164751939Y-88212922D01*
X164853900Y-88229071D01*
X164972008Y-88210365D01*
X165078555Y-88156076D01*
X165163111Y-88071520D01*
X165217400Y-87964973D01*
X165236106Y-87846865D01*
X165217400Y-87728757D01*
X165217400Y-87728756D01*
X165163113Y-87622213D01*
X165163112Y-87622212D01*
X165163111Y-87622210D01*
X165078555Y-87537654D01*
X165078552Y-87537652D01*
X165078551Y-87537651D01*
X164972008Y-87483364D01*
X164853900Y-87464659D01*
X164735792Y-87483364D01*
X164735791Y-87483364D01*
X164629248Y-87537651D01*
X164544686Y-87622213D01*
X164490399Y-87728756D01*
X164490399Y-87728757D01*
X164471694Y-87846865D01*
X163236106Y-87846865D01*
X163217400Y-87728757D01*
X163217400Y-87728756D01*
X163163113Y-87622213D01*
X163163112Y-87622212D01*
X163163111Y-87622210D01*
X163078555Y-87537654D01*
X163078552Y-87537652D01*
X163078551Y-87537651D01*
X162972008Y-87483364D01*
X162853900Y-87464659D01*
X162735792Y-87483364D01*
X162735791Y-87483364D01*
X162629248Y-87537651D01*
X162544686Y-87622213D01*
X162490399Y-87728756D01*
X162490399Y-87728757D01*
X162471694Y-87846865D01*
X161236106Y-87846865D01*
X161217400Y-87728757D01*
X161217400Y-87728756D01*
X161163113Y-87622213D01*
X161163112Y-87622212D01*
X161163111Y-87622210D01*
X161078555Y-87537654D01*
X161078552Y-87537652D01*
X161078551Y-87537651D01*
X160972008Y-87483364D01*
X160853900Y-87464659D01*
X160735792Y-87483364D01*
X160735791Y-87483364D01*
X160629248Y-87537651D01*
X160544686Y-87622213D01*
X160490399Y-87728756D01*
X160490399Y-87728757D01*
X160471694Y-87846865D01*
X159175674Y-87846865D01*
X159163113Y-87822213D01*
X159163112Y-87822212D01*
X159163111Y-87822210D01*
X159078555Y-87737654D01*
X159078552Y-87737652D01*
X159078551Y-87737651D01*
X158972008Y-87683364D01*
X158853900Y-87664659D01*
X158735792Y-87683364D01*
X158735791Y-87683364D01*
X158629248Y-87737651D01*
X158544686Y-87822213D01*
X158490399Y-87928756D01*
X158490399Y-87928757D01*
X158471694Y-88046865D01*
X117384998Y-88046865D01*
X117384998Y-87117194D01*
X117385269Y-87110294D01*
X117394429Y-86993971D01*
X117400142Y-86921430D01*
X117402295Y-86907832D01*
X117445725Y-86726968D01*
X117449980Y-86713875D01*
X117521162Y-86542038D01*
X117527413Y-86529770D01*
X117624597Y-86371188D01*
X117632694Y-86360043D01*
X117753494Y-86218609D01*
X117763235Y-86208869D01*
X117904663Y-86088079D01*
X117915804Y-86079984D01*
X118074393Y-85982801D01*
X118086667Y-85976547D01*
X118258508Y-85905368D01*
X118271597Y-85901115D01*
X118452450Y-85857693D01*
X118466066Y-85855536D01*
X118655346Y-85840635D01*
X118662243Y-85840365D01*
X168707166Y-85840365D01*
X168714063Y-85840635D01*
G37*
%TD.AperFunction*%
%TD*%
%TA.AperFunction,Conductor*%
%TO.N,GND*%
G36*
X157060383Y-92670431D02*
G01*
X157066037Y-92675611D01*
X157986204Y-93595778D01*
X158011615Y-93650272D01*
X157996052Y-93708350D01*
X157986204Y-93720087D01*
X157906081Y-93800210D01*
X157906078Y-93800214D01*
X157851791Y-93906757D01*
X157851791Y-93906758D01*
X157833086Y-94024866D01*
X157851791Y-94142973D01*
X157851791Y-94142974D01*
X157906078Y-94249517D01*
X157906079Y-94249518D01*
X157906081Y-94249521D01*
X157990637Y-94334077D01*
X157990639Y-94334078D01*
X157990640Y-94334079D01*
X158097183Y-94388366D01*
X158113331Y-94390923D01*
X158215292Y-94407072D01*
X158333400Y-94388366D01*
X158439947Y-94334077D01*
X158520070Y-94253953D01*
X158574562Y-94228543D01*
X158632641Y-94244104D01*
X158644379Y-94253953D01*
X160807667Y-96417241D01*
X160804517Y-96421577D01*
X160766819Y-96463446D01*
X160766815Y-96463450D01*
X160673325Y-96625380D01*
X160673324Y-96625382D01*
X160615544Y-96803211D01*
X160615543Y-96803216D01*
X160596000Y-96989160D01*
X160596000Y-96989169D01*
X160615543Y-97175113D01*
X160615544Y-97175118D01*
X160627535Y-97212021D01*
X160673325Y-97352950D01*
X160766815Y-97514880D01*
X160766817Y-97514882D01*
X160766818Y-97514883D01*
X160887292Y-97648683D01*
X160887292Y-99486865D01*
X159773826Y-100600328D01*
X159773759Y-100599473D01*
X159753278Y-100514165D01*
X159717631Y-100365681D01*
X159651055Y-100204954D01*
X159625621Y-100143550D01*
X159499994Y-99938547D01*
X159462762Y-99894954D01*
X159343849Y-99755724D01*
X159343840Y-99755715D01*
X159161022Y-99599574D01*
X159161020Y-99599572D01*
X159161018Y-99599571D01*
X158956015Y-99473944D01*
X158956009Y-99473941D01*
X158956006Y-99473940D01*
X158733883Y-99381933D01*
X158500097Y-99325806D01*
X158260400Y-99306942D01*
X158020702Y-99325806D01*
X157786916Y-99381933D01*
X157564793Y-99473940D01*
X157564781Y-99473946D01*
X157359777Y-99599574D01*
X157176959Y-99755715D01*
X157176950Y-99755724D01*
X157020808Y-99938544D01*
X157006173Y-99962424D01*
X156959115Y-99999851D01*
X156899008Y-99998274D01*
X156869073Y-99978647D01*
X156850759Y-99960333D01*
X156825348Y-99905839D01*
X156826095Y-99884434D01*
X156829306Y-99864165D01*
X156810600Y-99746057D01*
X156810600Y-99746056D01*
X156756313Y-99639513D01*
X156756312Y-99639512D01*
X156756311Y-99639510D01*
X156671755Y-99554954D01*
X156671752Y-99554952D01*
X156671751Y-99554951D01*
X156565208Y-99500664D01*
X156447100Y-99481959D01*
X156447098Y-99481959D01*
X156426834Y-99485168D01*
X156367812Y-99473694D01*
X156350931Y-99460505D01*
X155961292Y-99070866D01*
X154626954Y-97736528D01*
X153877792Y-96987366D01*
X157030585Y-96987366D01*
X157049290Y-97105473D01*
X157049290Y-97105474D01*
X157103577Y-97212017D01*
X157103578Y-97212018D01*
X157103580Y-97212021D01*
X157188136Y-97296577D01*
X157188138Y-97296578D01*
X157188139Y-97296579D01*
X157294682Y-97350866D01*
X157412791Y-97369572D01*
X157412793Y-97369572D01*
X157423845Y-97367821D01*
X157434212Y-97366179D01*
X157493235Y-97377650D01*
X157531075Y-97424377D01*
X157534783Y-97439246D01*
X157540038Y-97472430D01*
X157540038Y-97472431D01*
X157594325Y-97578974D01*
X157594326Y-97578975D01*
X157594328Y-97578978D01*
X157678884Y-97663534D01*
X157678886Y-97663535D01*
X157678887Y-97663536D01*
X157785430Y-97717823D01*
X157801578Y-97720380D01*
X157903539Y-97736529D01*
X158021647Y-97717823D01*
X158128194Y-97663534D01*
X158212750Y-97578978D01*
X158267039Y-97472431D01*
X158285745Y-97354323D01*
X158267039Y-97236215D01*
X158267039Y-97236214D01*
X158212752Y-97129671D01*
X158212751Y-97129670D01*
X158212750Y-97129668D01*
X158128194Y-97045112D01*
X158128191Y-97045110D01*
X158128190Y-97045109D01*
X158021647Y-96990822D01*
X158011210Y-96989169D01*
X158596000Y-96989169D01*
X158615543Y-97175113D01*
X158615544Y-97175118D01*
X158627535Y-97212021D01*
X158673325Y-97352950D01*
X158766815Y-97514880D01*
X158891930Y-97653834D01*
X159043200Y-97763738D01*
X159214015Y-97839790D01*
X159360331Y-97870890D01*
X159396909Y-97878665D01*
X159396910Y-97878665D01*
X159583891Y-97878665D01*
X159614372Y-97872185D01*
X159766785Y-97839790D01*
X159937600Y-97763738D01*
X160088870Y-97653834D01*
X160213985Y-97514880D01*
X160307475Y-97352950D01*
X160365255Y-97175121D01*
X160370032Y-97129671D01*
X160384800Y-96989169D01*
X160384800Y-96989160D01*
X160365256Y-96803216D01*
X160365255Y-96803211D01*
X160365255Y-96803209D01*
X160307475Y-96625380D01*
X160213985Y-96463450D01*
X160088870Y-96324496D01*
X159937600Y-96214592D01*
X159937599Y-96214591D01*
X159937597Y-96214590D01*
X159844517Y-96173148D01*
X159766785Y-96138540D01*
X159725084Y-96129676D01*
X159583891Y-96099665D01*
X159583890Y-96099665D01*
X159396910Y-96099665D01*
X159396909Y-96099665D01*
X159214019Y-96138539D01*
X159214017Y-96138539D01*
X159214015Y-96138540D01*
X159214013Y-96138541D01*
X159043202Y-96214590D01*
X158891929Y-96324496D01*
X158766818Y-96463446D01*
X158766817Y-96463447D01*
X158673325Y-96625380D01*
X158673324Y-96625382D01*
X158615544Y-96803211D01*
X158615543Y-96803216D01*
X158596000Y-96989160D01*
X158596000Y-96989169D01*
X158011210Y-96989169D01*
X157903539Y-96972117D01*
X157882113Y-96975510D01*
X157823091Y-96964036D01*
X157785252Y-96917308D01*
X157781546Y-96902440D01*
X157776291Y-96869259D01*
X157776291Y-96869257D01*
X157722004Y-96762714D01*
X157722003Y-96762713D01*
X157722002Y-96762711D01*
X157637446Y-96678155D01*
X157637443Y-96678153D01*
X157637442Y-96678152D01*
X157530899Y-96623865D01*
X157412791Y-96605160D01*
X157294683Y-96623865D01*
X157294682Y-96623865D01*
X157188139Y-96678152D01*
X157103577Y-96762714D01*
X157049290Y-96869257D01*
X157049290Y-96869258D01*
X157030585Y-96987366D01*
X153877792Y-96987366D01*
X153290292Y-96399866D01*
X153290292Y-95524866D01*
X157783085Y-95524866D01*
X157801790Y-95642973D01*
X157801790Y-95642974D01*
X157856077Y-95749517D01*
X157856078Y-95749518D01*
X157856080Y-95749521D01*
X157940636Y-95834077D01*
X157940638Y-95834078D01*
X157940639Y-95834079D01*
X158047182Y-95888366D01*
X158063330Y-95890923D01*
X158165291Y-95907072D01*
X158283399Y-95888366D01*
X158389946Y-95834077D01*
X158474502Y-95749521D01*
X158528791Y-95642974D01*
X158547497Y-95524866D01*
X158528791Y-95406758D01*
X158528791Y-95406757D01*
X158474504Y-95300214D01*
X158474503Y-95300213D01*
X158474502Y-95300211D01*
X158389946Y-95215655D01*
X158389943Y-95215653D01*
X158389942Y-95215652D01*
X158283399Y-95161365D01*
X158165291Y-95142660D01*
X158047183Y-95161365D01*
X158047182Y-95161365D01*
X157940639Y-95215652D01*
X157856077Y-95300214D01*
X157801790Y-95406757D01*
X157801790Y-95406758D01*
X157783085Y-95524866D01*
X153290292Y-95524866D01*
X153290292Y-92649866D01*
X153790292Y-92649866D01*
X157003882Y-92649866D01*
X157060383Y-92670431D01*
G37*
%TD.AperFunction*%
%TD*%
M02*
