%TF.GenerationSoftware,KiCad,Pcbnew,8.0.7*%
%TF.CreationDate,2024-12-18T08:34:55+08:00*%
%TF.ProjectId,SB-main-board,53422d6d-6169-46e2-9d62-6f6172642e6b,B1*%
%TF.SameCoordinates,Original*%
%TF.FileFunction,Copper,L2,Inr*%
%TF.FilePolarity,Positive*%
%FSLAX46Y46*%
G04 Gerber Fmt 4.6, Leading zero omitted, Abs format (unit mm)*
G04 Created by KiCad (PCBNEW 8.0.7) date 2024-12-18 08:34:55*
%MOMM*%
%LPD*%
G01*
G04 APERTURE LIST*
G04 Aperture macros list*
%AMRoundRect*
0 Rectangle with rounded corners*
0 $1 Rounding radius*
0 $2 $3 $4 $5 $6 $7 $8 $9 X,Y pos of 4 corners*
0 Add a 4 corners polygon primitive as box body*
4,1,4,$2,$3,$4,$5,$6,$7,$8,$9,$2,$3,0*
0 Add four circle primitives for the rounded corners*
1,1,$1+$1,$2,$3*
1,1,$1+$1,$4,$5*
1,1,$1+$1,$6,$7*
1,1,$1+$1,$8,$9*
0 Add four rect primitives between the rounded corners*
20,1,$1+$1,$2,$3,$4,$5,0*
20,1,$1+$1,$4,$5,$6,$7,0*
20,1,$1+$1,$6,$7,$8,$9,0*
20,1,$1+$1,$8,$9,$2,$3,0*%
G04 Aperture macros list end*
%ADD10C,0.101600*%
%TA.AperFunction,NonConductor*%
%ADD11C,0.101600*%
%TD*%
%TA.AperFunction,ComponentPad*%
%ADD12C,2.800000*%
%TD*%
%TA.AperFunction,ComponentPad*%
%ADD13C,1.524000*%
%TD*%
%TA.AperFunction,ComponentPad*%
%ADD14RoundRect,0.250001X0.499999X0.499999X-0.499999X0.499999X-0.499999X-0.499999X0.499999X-0.499999X0*%
%TD*%
%TA.AperFunction,ComponentPad*%
%ADD15C,1.500000*%
%TD*%
%TA.AperFunction,ComponentPad*%
%ADD16C,5.500000*%
%TD*%
%TA.AperFunction,ComponentPad*%
%ADD17R,1.350000X1.350000*%
%TD*%
%TA.AperFunction,ComponentPad*%
%ADD18O,1.350000X1.350000*%
%TD*%
%TA.AperFunction,ComponentPad*%
%ADD19O,1.800000X1.000000*%
%TD*%
%TA.AperFunction,ComponentPad*%
%ADD20O,2.100000X1.000000*%
%TD*%
%TA.AperFunction,ViaPad*%
%ADD21C,0.500000*%
%TD*%
G04 APERTURE END LIST*
D10*
D11*
X75082410Y-91378665D02*
X75106219Y-91340570D01*
X75106219Y-91340570D02*
X75153838Y-91302475D01*
X75153838Y-91302475D02*
X75272886Y-91302475D01*
X75272886Y-91302475D02*
X75320505Y-91340570D01*
X75320505Y-91340570D02*
X75344314Y-91378665D01*
X75344314Y-91378665D02*
X75368124Y-91454856D01*
X75368124Y-91454856D02*
X75368124Y-91531046D01*
X75368124Y-91531046D02*
X75344314Y-91645332D01*
X75344314Y-91645332D02*
X75058600Y-92102475D01*
X75058600Y-92102475D02*
X75368124Y-92102475D01*
D12*
%TO.N,+24V*%
%TO.C,J1*%
X113482830Y-87877964D03*
%TO.N,GND*%
X113482830Y-82797964D03*
D13*
%TO.N,/CAN_H*%
X114712830Y-78947964D03*
%TO.N,/CAN_L*%
X116712830Y-78947964D03*
%TD*%
D14*
%TO.N,+24V*%
%TO.C,J5*%
X104905330Y-85797964D03*
D15*
%TO.N,Net-(D4-K)*%
X104905330Y-82797964D03*
%TD*%
D16*
%TO.N,GND*%
%TO.C,H2*%
X86086330Y-92876664D03*
%TD*%
%TO.N,GND*%
%TO.C,H1*%
X98070330Y-80105664D03*
%TD*%
D17*
%TO.N,/FAN0_DET*%
%TO.C,J9*%
X80156472Y-88406664D03*
D18*
%TO.N,/NEO*%
X78156472Y-88406664D03*
%TO.N,/FAN0_PWM*%
X80156472Y-86406664D03*
%TO.N,/FAN1_PWM*%
X78156472Y-86406664D03*
%TO.N,/ADC0*%
X80156472Y-84406664D03*
%TO.N,/FAN1_DET*%
X78156472Y-84406664D03*
%TO.N,/ADC1*%
X80156472Y-82406664D03*
%TO.N,+3V3*%
X78156472Y-82406664D03*
%TO.N,GND*%
X80156472Y-80406664D03*
X78156472Y-80406664D03*
%TO.N,+24V*%
X80156472Y-78406664D03*
%TO.N,GND*%
X78156472Y-78406664D03*
%TD*%
D19*
%TO.N,GND*%
%TO.C,J2*%
X122262722Y-80873664D03*
D20*
X118082722Y-80873664D03*
D19*
X122262722Y-89513664D03*
D20*
X118082722Y-89513664D03*
%TD*%
D21*
%TO.N,GND*%
X75990330Y-86925664D03*
X87800330Y-85965664D03*
X82530330Y-78505664D03*
X109066922Y-77804465D03*
X87330330Y-98285664D03*
X110540330Y-106585664D03*
X94020330Y-68455664D03*
X120540330Y-100535664D03*
X79980330Y-69045664D03*
X112140330Y-99765664D03*
X84010330Y-87315664D03*
X119090330Y-106275664D03*
X101620330Y-75465664D03*
X115480330Y-98665664D03*
X82340330Y-84755664D03*
X113910330Y-90595664D03*
X110824330Y-82147964D03*
X93910330Y-78955664D03*
X107780330Y-69645664D03*
X110387722Y-76483665D03*
X89230330Y-76530664D03*
X100660330Y-78125664D03*
X80110330Y-91695664D03*
X107920330Y-93195664D03*
X73880330Y-82685664D03*
X110210330Y-84935664D03*
X123036922Y-95965664D03*
X74820330Y-71135664D03*
X117940330Y-105865664D03*
X124580330Y-75245664D03*
X117887722Y-99733664D03*
X110824330Y-82797964D03*
X101190330Y-71345664D03*
X111923530Y-82472964D03*
X121880330Y-75525664D03*
X95840330Y-76975664D03*
X88900330Y-71555664D03*
X110260330Y-103925664D03*
X74120330Y-69325664D03*
X77000330Y-75075664D03*
X112330330Y-96835664D03*
X124650330Y-97855664D03*
X86100330Y-99065664D03*
X112976330Y-70255664D03*
X82270330Y-75415664D03*
X73390330Y-98065664D03*
X76650330Y-89495664D03*
X73570330Y-75255664D03*
X89150330Y-68425664D03*
X124550330Y-69365664D03*
X112980130Y-71012464D03*
X108490330Y-103825664D03*
X108837722Y-69405664D03*
X109610330Y-79505664D03*
X73580330Y-72105664D03*
X89230330Y-77220664D03*
X112670330Y-100305664D03*
X73860330Y-79965664D03*
X93770330Y-73825664D03*
X108720330Y-96145664D03*
X86300330Y-80555664D03*
X75550330Y-94105664D03*
X115400330Y-104305664D03*
X112780330Y-103015664D03*
X106060330Y-78055664D03*
X87610330Y-87345664D03*
X111708522Y-77804465D03*
X90042828Y-76875664D03*
X82700330Y-80785664D03*
X122270330Y-82135664D03*
X123100330Y-74425664D03*
X110387722Y-77804465D03*
X84170330Y-75045664D03*
X124570330Y-77025664D03*
X77520330Y-91655664D03*
X91950330Y-80275664D03*
X111900330Y-96385664D03*
X119050330Y-101945664D03*
X114370330Y-85905664D03*
X77640330Y-97145664D03*
X92060330Y-89605664D03*
X124520330Y-83405664D03*
X82220330Y-82355664D03*
X83460330Y-95385664D03*
X78490330Y-98635664D03*
X86370330Y-71605664D03*
X104620330Y-81085664D03*
X105140330Y-73025664D03*
X76890330Y-99645664D03*
X83930330Y-82455664D03*
X117076330Y-71012464D03*
X115410330Y-93095664D03*
X119076330Y-74605664D03*
X117360330Y-106855664D03*
X76160330Y-81305664D03*
X111708522Y-75162865D03*
X99380330Y-76895664D03*
X99350330Y-84245664D03*
X124640330Y-88635664D03*
X110430330Y-102195664D03*
X111923530Y-83122964D03*
X76010330Y-84175664D03*
X113180330Y-105925664D03*
X108330330Y-98225664D03*
X100970330Y-68335664D03*
X111923530Y-81822964D03*
X110387722Y-75162865D03*
X109066922Y-75162865D03*
X98020330Y-71245664D03*
X123800330Y-102145664D03*
X83400330Y-77015664D03*
X81000330Y-98875664D03*
X122920330Y-78205664D03*
X82430330Y-73315664D03*
X104550330Y-75175664D03*
X113510330Y-76605664D03*
X73670330Y-92905664D03*
X121780330Y-92915664D03*
X73990330Y-86185664D03*
X115076330Y-71012464D03*
X115220330Y-81315664D03*
X119720330Y-98115664D03*
X119990330Y-104215664D03*
X90720330Y-84635664D03*
X101900330Y-91295664D03*
X115800330Y-106255664D03*
X94510330Y-82105664D03*
X109110330Y-99705664D03*
X91270330Y-78545664D03*
X78540330Y-90765664D03*
X95380330Y-73865664D03*
X93020330Y-82395664D03*
X108910330Y-95125664D03*
X106080330Y-80775664D03*
X112870330Y-78965664D03*
X119076330Y-71012464D03*
X93500330Y-84915664D03*
X104470330Y-68725664D03*
X122370330Y-88205664D03*
X102070330Y-76245664D03*
X115076330Y-74305664D03*
X121140330Y-68685664D03*
X78870330Y-92725664D03*
X124660330Y-79415664D03*
X87660330Y-96755664D03*
X118810330Y-78585664D03*
X74520330Y-89465664D03*
X122409450Y-104821078D03*
X73990330Y-77755664D03*
X75990330Y-78955664D03*
X123580330Y-99825664D03*
X107590330Y-70675664D03*
%TO.N,+24V*%
X109779730Y-87242964D03*
X112319730Y-88512964D03*
X107874730Y-85337964D03*
X109144730Y-86607964D03*
X107239730Y-85972964D03*
X109779730Y-85972964D03*
X109144730Y-85337964D03*
X106604730Y-85337964D03*
X111684730Y-87877964D03*
X105969730Y-85972964D03*
X110414730Y-86607964D03*
X112319730Y-87242964D03*
X111049730Y-87242964D03*
X108509730Y-85972964D03*
X110414730Y-87877964D03*
X111049730Y-88512964D03*
%TO.N,Net-(D4-K)*%
X106605330Y-82797964D03*
X109780330Y-82162964D03*
X107875330Y-82797964D03*
X109145330Y-82797964D03*
X107240330Y-82162964D03*
X105970330Y-82162964D03*
X108510330Y-83432964D03*
X107240330Y-83432964D03*
X109780330Y-83432964D03*
X108510330Y-82162964D03*
X105970330Y-83432964D03*
%TD*%
%TA.AperFunction,Conductor*%
%TO.N,+24V*%
G36*
X109330936Y-85066270D02*
G01*
X110742630Y-86477964D01*
X113420330Y-86477964D01*
X113464524Y-86496270D01*
X113482830Y-86540464D01*
X113482830Y-89215464D01*
X113464524Y-89259658D01*
X113420330Y-89277964D01*
X106911218Y-89277964D01*
X106867024Y-89259658D01*
X104173636Y-86566270D01*
X104155330Y-86522076D01*
X104155330Y-85110464D01*
X104173636Y-85066270D01*
X104217830Y-85047964D01*
X109286742Y-85047964D01*
X109330936Y-85066270D01*
G37*
%TD.AperFunction*%
%TD*%
%TA.AperFunction,Conductor*%
%TO.N,Net-(D4-K)*%
G36*
X110052024Y-81691270D02*
G01*
X110070330Y-81735464D01*
X110070330Y-83860464D01*
X110052024Y-83904658D01*
X110007830Y-83922964D01*
X105306218Y-83922964D01*
X105262024Y-83904658D01*
X104923636Y-83566270D01*
X104905330Y-83522076D01*
X104905330Y-82073852D01*
X104923636Y-82029658D01*
X105262024Y-81691270D01*
X105306218Y-81672964D01*
X110007830Y-81672964D01*
X110052024Y-81691270D01*
G37*
%TD.AperFunction*%
%TD*%
%TA.AperFunction,Conductor*%
%TO.N,GND*%
G36*
X123935498Y-67799357D02*
G01*
X124127348Y-67814462D01*
X124137016Y-67815993D01*
X124285193Y-67851571D01*
X124321755Y-67860350D01*
X124331081Y-67863381D01*
X124491174Y-67929696D01*
X124506549Y-67936065D01*
X124506593Y-67936083D01*
X124515331Y-67940535D01*
X124677321Y-68039804D01*
X124685245Y-68045561D01*
X124829715Y-68168950D01*
X124836641Y-68175876D01*
X124960028Y-68320341D01*
X124965792Y-68328275D01*
X125065055Y-68490250D01*
X125069508Y-68498988D01*
X125142215Y-68674503D01*
X125145246Y-68683830D01*
X125189602Y-68868562D01*
X125191136Y-68878248D01*
X125206227Y-69069887D01*
X125206420Y-69074790D01*
X125206421Y-69118741D01*
X125206428Y-69118800D01*
X125206428Y-106079296D01*
X125206425Y-106079330D01*
X125206427Y-106122352D01*
X125206235Y-106127255D01*
X125191148Y-106319106D01*
X125189614Y-106328794D01*
X125145273Y-106513524D01*
X125142242Y-106522852D01*
X125069548Y-106698364D01*
X125065095Y-106707103D01*
X124965836Y-106869084D01*
X124960071Y-106877020D01*
X124836689Y-107021481D01*
X124829753Y-107028416D01*
X124685296Y-107151788D01*
X124677361Y-107157553D01*
X124515380Y-107256807D01*
X124506641Y-107261260D01*
X124331117Y-107333954D01*
X124321788Y-107336984D01*
X124137064Y-107381319D01*
X124127376Y-107382853D01*
X123935076Y-107397971D01*
X123930172Y-107398163D01*
X123887266Y-107398159D01*
X123887214Y-107398164D01*
X108976906Y-107398164D01*
X108976885Y-107398162D01*
X108970935Y-107398162D01*
X108965871Y-107398162D01*
X108933513Y-107398163D01*
X108928611Y-107397971D01*
X108736762Y-107382879D01*
X108727074Y-107381345D01*
X108542345Y-107337001D01*
X108533017Y-107333970D01*
X108357503Y-107261273D01*
X108348764Y-107256820D01*
X108186787Y-107157560D01*
X108178852Y-107151795D01*
X108106623Y-107090105D01*
X108034389Y-107028411D01*
X108027459Y-107021480D01*
X107904082Y-106877017D01*
X107898317Y-106869082D01*
X107799065Y-106707106D01*
X107794613Y-106698367D01*
X107721918Y-106522845D01*
X107718887Y-106513517D01*
X107711229Y-106481611D01*
X107674547Y-106328789D01*
X107673014Y-106319106D01*
X107667150Y-106244540D01*
X107657887Y-106126739D01*
X107657696Y-106121846D01*
X107657699Y-106084930D01*
X107657697Y-106084926D01*
X107657698Y-106079330D01*
X107657696Y-106079296D01*
X107657696Y-105548164D01*
X111561049Y-105548164D01*
X111578042Y-105644541D01*
X111578043Y-105644542D01*
X111618435Y-105714501D01*
X111626973Y-105729289D01*
X111701939Y-105792194D01*
X111793899Y-105825664D01*
X111793902Y-105825664D01*
X111891758Y-105825664D01*
X111891761Y-105825664D01*
X111983721Y-105792194D01*
X112058687Y-105729289D01*
X112107618Y-105644539D01*
X112124611Y-105548164D01*
X112107618Y-105451789D01*
X112107617Y-105451787D01*
X112107617Y-105451786D01*
X112107616Y-105451785D01*
X112084668Y-105412039D01*
X112058687Y-105367039D01*
X111997462Y-105315664D01*
X116648549Y-105315664D01*
X116665542Y-105412041D01*
X116665543Y-105412042D01*
X116688490Y-105451786D01*
X116714473Y-105496789D01*
X116789439Y-105559694D01*
X116881399Y-105593164D01*
X116881402Y-105593164D01*
X116979258Y-105593164D01*
X116979261Y-105593164D01*
X117071221Y-105559694D01*
X117146187Y-105496789D01*
X117195118Y-105412039D01*
X117212111Y-105315664D01*
X117195118Y-105219289D01*
X117195117Y-105219287D01*
X117195117Y-105219286D01*
X117195116Y-105219285D01*
X117171591Y-105178539D01*
X117146187Y-105134539D01*
X117083770Y-105082164D01*
X118258549Y-105082164D01*
X118275542Y-105178541D01*
X118275543Y-105178542D01*
X118299069Y-105219289D01*
X118324473Y-105263289D01*
X118399439Y-105326194D01*
X118491399Y-105359664D01*
X118491402Y-105359664D01*
X118589258Y-105359664D01*
X118589261Y-105359664D01*
X118681221Y-105326194D01*
X118756187Y-105263289D01*
X118805118Y-105178539D01*
X118822111Y-105082164D01*
X118805118Y-104985789D01*
X118805117Y-104985787D01*
X118805117Y-104985786D01*
X118805116Y-104985785D01*
X118779859Y-104942040D01*
X118756187Y-104901039D01*
X118681221Y-104838134D01*
X118670911Y-104834381D01*
X118589263Y-104804664D01*
X118589261Y-104804664D01*
X118491399Y-104804664D01*
X118491396Y-104804664D01*
X118399441Y-104838133D01*
X118399438Y-104838134D01*
X118324473Y-104901038D01*
X118275543Y-104985785D01*
X118275542Y-104985786D01*
X118258549Y-105082164D01*
X117083770Y-105082164D01*
X117071221Y-105071634D01*
X117060911Y-105067881D01*
X116979263Y-105038164D01*
X116979261Y-105038164D01*
X116881399Y-105038164D01*
X116881396Y-105038164D01*
X116789441Y-105071633D01*
X116789438Y-105071634D01*
X116714473Y-105134538D01*
X116665543Y-105219285D01*
X116665542Y-105219286D01*
X116648549Y-105315664D01*
X111997462Y-105315664D01*
X111983721Y-105304134D01*
X111973411Y-105300381D01*
X111891763Y-105270664D01*
X111891761Y-105270664D01*
X111793899Y-105270664D01*
X111793896Y-105270664D01*
X111701941Y-105304133D01*
X111701938Y-105304134D01*
X111626973Y-105367038D01*
X111578043Y-105451785D01*
X111578042Y-105451786D01*
X111561049Y-105548164D01*
X107657696Y-105548164D01*
X107657696Y-104845664D01*
X115578549Y-104845664D01*
X115595542Y-104942041D01*
X115595543Y-104942042D01*
X115620801Y-104985789D01*
X115644473Y-105026789D01*
X115719439Y-105089694D01*
X115811399Y-105123164D01*
X115811402Y-105123164D01*
X115909258Y-105123164D01*
X115909261Y-105123164D01*
X116001221Y-105089694D01*
X116076187Y-105026789D01*
X116125118Y-104942039D01*
X116126926Y-104931779D01*
X116152626Y-104891436D01*
X116199328Y-104881081D01*
X116239673Y-104906781D01*
X116242603Y-104911381D01*
X116260304Y-104942039D01*
X116269573Y-104958093D01*
X116344539Y-105020998D01*
X116436499Y-105054468D01*
X116436502Y-105054468D01*
X116534358Y-105054468D01*
X116534361Y-105054468D01*
X116626321Y-105020998D01*
X116701287Y-104958093D01*
X116750218Y-104873343D01*
X116767211Y-104776968D01*
X116750218Y-104680593D01*
X116750217Y-104680591D01*
X116750217Y-104680590D01*
X116750216Y-104680589D01*
X116742407Y-104667064D01*
X119119949Y-104667064D01*
X119136942Y-104763441D01*
X119136943Y-104763442D01*
X119177335Y-104833401D01*
X119185873Y-104848189D01*
X119260839Y-104911094D01*
X119352799Y-104944564D01*
X119352802Y-104944564D01*
X119450658Y-104944564D01*
X119450661Y-104944564D01*
X119542621Y-104911094D01*
X119617587Y-104848189D01*
X119666518Y-104763439D01*
X119683511Y-104667064D01*
X119666518Y-104570689D01*
X119666517Y-104570687D01*
X119666517Y-104570686D01*
X119666516Y-104570685D01*
X119626884Y-104502042D01*
X119617587Y-104485939D01*
X119542621Y-104423034D01*
X119532311Y-104419281D01*
X119450663Y-104389564D01*
X119450661Y-104389564D01*
X119352799Y-104389564D01*
X119352796Y-104389564D01*
X119260841Y-104423033D01*
X119260838Y-104423034D01*
X119185873Y-104485938D01*
X119136943Y-104570685D01*
X119136942Y-104570686D01*
X119119949Y-104667064D01*
X116742407Y-104667064D01*
X116704630Y-104601634D01*
X116701287Y-104595843D01*
X116626321Y-104532938D01*
X116616011Y-104529185D01*
X116534363Y-104499468D01*
X116534361Y-104499468D01*
X116436499Y-104499468D01*
X116436496Y-104499468D01*
X116344541Y-104532937D01*
X116344538Y-104532938D01*
X116269573Y-104595842D01*
X116220643Y-104680589D01*
X116220641Y-104680595D01*
X116218832Y-104690854D01*
X116193129Y-104731197D01*
X116146427Y-104741549D01*
X116106084Y-104715846D01*
X116103156Y-104711250D01*
X116086940Y-104683164D01*
X116076187Y-104664539D01*
X116001221Y-104601634D01*
X115985307Y-104595842D01*
X115909263Y-104568164D01*
X115909261Y-104568164D01*
X115811399Y-104568164D01*
X115811396Y-104568164D01*
X115719441Y-104601633D01*
X115719438Y-104601634D01*
X115644473Y-104664538D01*
X115595543Y-104749285D01*
X115595542Y-104749286D01*
X115578549Y-104845664D01*
X107657696Y-104845664D01*
X107657696Y-104405664D01*
X112758549Y-104405664D01*
X112775542Y-104502041D01*
X112775543Y-104502042D01*
X112813720Y-104568164D01*
X112824473Y-104586789D01*
X112899439Y-104649694D01*
X112991399Y-104683164D01*
X112991402Y-104683164D01*
X113089258Y-104683164D01*
X113089261Y-104683164D01*
X113181221Y-104649694D01*
X113256187Y-104586789D01*
X113305118Y-104502039D01*
X113322111Y-104405664D01*
X113305118Y-104309289D01*
X113305117Y-104309287D01*
X113305117Y-104309286D01*
X113305116Y-104309285D01*
X113288043Y-104279714D01*
X113256187Y-104224539D01*
X113181221Y-104161634D01*
X113170911Y-104157881D01*
X113089263Y-104128164D01*
X113089261Y-104128164D01*
X112991399Y-104128164D01*
X112991396Y-104128164D01*
X112899441Y-104161633D01*
X112899438Y-104161634D01*
X112824473Y-104224538D01*
X112775543Y-104309285D01*
X112775542Y-104309286D01*
X112758549Y-104405664D01*
X107657696Y-104405664D01*
X107657696Y-103447857D01*
X114196660Y-103447857D01*
X114213653Y-103544234D01*
X114213654Y-103544235D01*
X114218447Y-103552536D01*
X114262584Y-103628982D01*
X114337550Y-103691887D01*
X114429510Y-103725357D01*
X114429513Y-103725357D01*
X114527369Y-103725357D01*
X114527372Y-103725357D01*
X114619332Y-103691887D01*
X114619334Y-103691885D01*
X114621810Y-103690984D01*
X114669599Y-103693071D01*
X114701917Y-103728339D01*
X114704737Y-103760567D01*
X114698549Y-103795663D01*
X114715542Y-103892041D01*
X114715543Y-103892042D01*
X114755935Y-103962001D01*
X114764473Y-103976789D01*
X114839439Y-104039694D01*
X114931399Y-104073164D01*
X114931402Y-104073164D01*
X115029258Y-104073164D01*
X115029261Y-104073164D01*
X115121221Y-104039694D01*
X115196187Y-103976789D01*
X115245118Y-103892039D01*
X115262111Y-103795664D01*
X115245118Y-103699289D01*
X115245117Y-103699287D01*
X115245117Y-103699286D01*
X115245116Y-103699285D01*
X115228043Y-103669714D01*
X115196187Y-103614539D01*
X115121221Y-103551634D01*
X115100884Y-103544232D01*
X115029263Y-103518164D01*
X115029261Y-103518164D01*
X114931399Y-103518164D01*
X114931396Y-103518164D01*
X114836960Y-103552536D01*
X114789170Y-103550449D01*
X114756853Y-103515181D01*
X114754034Y-103482952D01*
X114760222Y-103447859D01*
X114758589Y-103438595D01*
X114743229Y-103351482D01*
X114743228Y-103351480D01*
X114743228Y-103351479D01*
X114743227Y-103351478D01*
X114710384Y-103294594D01*
X114694298Y-103266732D01*
X114619332Y-103203827D01*
X114609022Y-103200074D01*
X114527374Y-103170357D01*
X114527372Y-103170357D01*
X114429510Y-103170357D01*
X114429507Y-103170357D01*
X114337552Y-103203826D01*
X114337549Y-103203827D01*
X114262584Y-103266731D01*
X114213654Y-103351478D01*
X114213653Y-103351479D01*
X114196660Y-103447857D01*
X107657696Y-103447857D01*
X107657696Y-103050564D01*
X113338549Y-103050564D01*
X113355542Y-103146941D01*
X113355543Y-103146942D01*
X113388386Y-103203826D01*
X113404473Y-103231689D01*
X113479439Y-103294594D01*
X113571399Y-103328064D01*
X113571402Y-103328064D01*
X113669258Y-103328064D01*
X113669261Y-103328064D01*
X113761221Y-103294594D01*
X113836187Y-103231689D01*
X113876945Y-103161095D01*
X117782401Y-103161095D01*
X117799394Y-103257472D01*
X117799395Y-103257473D01*
X117839787Y-103327432D01*
X117848325Y-103342220D01*
X117923291Y-103405125D01*
X118015251Y-103438595D01*
X118015254Y-103438595D01*
X118113110Y-103438595D01*
X118113113Y-103438595D01*
X118205073Y-103405125D01*
X118280039Y-103342220D01*
X118328970Y-103257470D01*
X118345963Y-103161095D01*
X118330731Y-103074709D01*
X118341085Y-103028009D01*
X118381429Y-103002307D01*
X118413657Y-103005126D01*
X118443375Y-103015943D01*
X118443378Y-103015943D01*
X118541234Y-103015943D01*
X118541237Y-103015943D01*
X118633197Y-102982473D01*
X118708163Y-102919568D01*
X118757094Y-102834818D01*
X118774087Y-102738443D01*
X118757094Y-102642068D01*
X118757093Y-102642066D01*
X118757093Y-102642065D01*
X118757092Y-102642064D01*
X118718066Y-102574471D01*
X118708163Y-102557318D01*
X118633197Y-102494413D01*
X118622887Y-102490660D01*
X118541239Y-102460943D01*
X118541237Y-102460943D01*
X118443375Y-102460943D01*
X118443372Y-102460943D01*
X118351417Y-102494412D01*
X118351414Y-102494413D01*
X118276449Y-102557317D01*
X118227519Y-102642064D01*
X118227518Y-102642065D01*
X118210525Y-102738443D01*
X118225756Y-102824827D01*
X118215402Y-102871528D01*
X118175057Y-102897230D01*
X118142830Y-102894410D01*
X118113117Y-102883596D01*
X118113114Y-102883595D01*
X118113113Y-102883595D01*
X118015251Y-102883595D01*
X118015248Y-102883595D01*
X117923293Y-102917064D01*
X117923290Y-102917065D01*
X117848325Y-102979969D01*
X117799395Y-103064716D01*
X117799394Y-103064717D01*
X117782401Y-103161095D01*
X113876945Y-103161095D01*
X113885118Y-103146939D01*
X113902111Y-103050564D01*
X113885118Y-102954189D01*
X113885117Y-102954187D01*
X113885117Y-102954186D01*
X113885116Y-102954185D01*
X113850604Y-102894410D01*
X113836187Y-102869439D01*
X113761221Y-102806534D01*
X113750911Y-102802781D01*
X113669263Y-102773064D01*
X113669261Y-102773064D01*
X113571399Y-102773064D01*
X113571396Y-102773064D01*
X113479441Y-102806533D01*
X113479438Y-102806534D01*
X113404473Y-102869438D01*
X113355543Y-102954185D01*
X113355542Y-102954186D01*
X113338549Y-103050564D01*
X107657696Y-103050564D01*
X107657696Y-102574471D01*
X111390323Y-102574471D01*
X111407316Y-102670848D01*
X111407317Y-102670849D01*
X111446344Y-102738443D01*
X111456247Y-102755596D01*
X111531213Y-102818501D01*
X111623173Y-102851971D01*
X111623176Y-102851971D01*
X111721032Y-102851971D01*
X111721035Y-102851971D01*
X111812995Y-102818501D01*
X111887961Y-102755596D01*
X111936892Y-102670846D01*
X111953885Y-102574471D01*
X111936892Y-102478096D01*
X111934855Y-102474569D01*
X111928611Y-102427144D01*
X111957730Y-102389192D01*
X112005156Y-102382947D01*
X112010358Y-102384587D01*
X112061399Y-102403164D01*
X112061402Y-102403164D01*
X112159258Y-102403164D01*
X112159261Y-102403164D01*
X112251221Y-102369694D01*
X112326187Y-102306789D01*
X112375118Y-102222039D01*
X112392111Y-102125664D01*
X112375118Y-102029289D01*
X112375117Y-102029287D01*
X112375117Y-102029286D01*
X112375116Y-102029285D01*
X112342776Y-101973272D01*
X112326187Y-101944539D01*
X112251221Y-101881634D01*
X112240911Y-101877881D01*
X112159263Y-101848164D01*
X112159261Y-101848164D01*
X112061399Y-101848164D01*
X112061396Y-101848164D01*
X111969441Y-101881633D01*
X111969438Y-101881634D01*
X111894473Y-101944538D01*
X111845543Y-102029285D01*
X111845542Y-102029286D01*
X111828549Y-102125664D01*
X111845542Y-102222040D01*
X111847578Y-102225566D01*
X111853821Y-102272993D01*
X111824701Y-102310943D01*
X111777274Y-102317186D01*
X111772076Y-102315547D01*
X111721039Y-102296972D01*
X111721036Y-102296971D01*
X111721035Y-102296971D01*
X111623173Y-102296971D01*
X111623170Y-102296971D01*
X111531215Y-102330440D01*
X111531212Y-102330441D01*
X111456247Y-102393345D01*
X111407317Y-102478092D01*
X111407316Y-102478093D01*
X111390323Y-102574471D01*
X107657696Y-102574471D01*
X107657696Y-101715664D01*
X109008549Y-101715664D01*
X109025542Y-101812041D01*
X109025543Y-101812042D01*
X109032344Y-101823821D01*
X109074473Y-101896789D01*
X109149439Y-101959694D01*
X109241399Y-101993164D01*
X109241402Y-101993164D01*
X109339258Y-101993164D01*
X109339261Y-101993164D01*
X109431221Y-101959694D01*
X109506187Y-101896789D01*
X109555118Y-101812039D01*
X109572111Y-101715664D01*
X109555118Y-101619289D01*
X109555117Y-101619287D01*
X109555117Y-101619286D01*
X109555116Y-101619285D01*
X109512988Y-101546319D01*
X109506187Y-101534539D01*
X109431221Y-101471634D01*
X109408172Y-101463245D01*
X109339263Y-101438164D01*
X109339261Y-101438164D01*
X109241399Y-101438164D01*
X109241396Y-101438164D01*
X109149441Y-101471633D01*
X109149438Y-101471634D01*
X109074473Y-101534538D01*
X109025543Y-101619285D01*
X109025542Y-101619286D01*
X109008549Y-101715664D01*
X107657696Y-101715664D01*
X107657696Y-100381484D01*
X110586755Y-100381484D01*
X110603748Y-100477861D01*
X110603749Y-100477862D01*
X110610229Y-100489085D01*
X110652679Y-100562609D01*
X110727645Y-100625514D01*
X110794314Y-100649779D01*
X110814755Y-100657219D01*
X110819605Y-100658984D01*
X110819608Y-100658984D01*
X110914668Y-100658984D01*
X110958862Y-100677290D01*
X110977168Y-100721484D01*
X110968794Y-100752735D01*
X110955308Y-100776092D01*
X110955307Y-100776092D01*
X110938314Y-100872470D01*
X110955307Y-100968847D01*
X110955308Y-100968848D01*
X110986953Y-101023657D01*
X111004238Y-101053595D01*
X111079204Y-101116500D01*
X111171164Y-101149970D01*
X111171167Y-101149970D01*
X111269023Y-101149970D01*
X111269026Y-101149970D01*
X111360986Y-101116500D01*
X111435952Y-101053595D01*
X111484883Y-100968845D01*
X111501876Y-100872470D01*
X111493485Y-100824883D01*
X112837768Y-100824883D01*
X112854761Y-100921260D01*
X112854762Y-100921261D01*
X112882237Y-100968847D01*
X112903692Y-101006008D01*
X112978658Y-101068913D01*
X113070618Y-101102383D01*
X113070621Y-101102383D01*
X113168477Y-101102383D01*
X113168480Y-101102383D01*
X113260440Y-101068913D01*
X113335406Y-101006008D01*
X113384337Y-100921258D01*
X113401330Y-100824883D01*
X113384337Y-100728508D01*
X113384336Y-100728506D01*
X113384336Y-100728505D01*
X113384335Y-100728504D01*
X113349614Y-100668367D01*
X113335406Y-100643758D01*
X113260440Y-100580853D01*
X113248931Y-100576664D01*
X113236087Y-100571989D01*
X114794370Y-100571989D01*
X114811363Y-100668366D01*
X114811364Y-100668367D01*
X114851756Y-100738326D01*
X114860294Y-100753114D01*
X114935260Y-100816019D01*
X115027220Y-100849489D01*
X115027223Y-100849489D01*
X115125079Y-100849489D01*
X115125082Y-100849489D01*
X115190069Y-100825836D01*
X115237856Y-100827923D01*
X115270174Y-100863191D01*
X115272994Y-100895419D01*
X115268438Y-100921260D01*
X115263649Y-100948423D01*
X115267250Y-100968845D01*
X115280642Y-101044800D01*
X115280643Y-101044801D01*
X115313889Y-101102383D01*
X115329573Y-101129548D01*
X115404539Y-101192453D01*
X115496499Y-101225923D01*
X115496502Y-101225923D01*
X115594358Y-101225923D01*
X115594361Y-101225923D01*
X115662598Y-101201087D01*
X115710388Y-101203174D01*
X115742705Y-101238442D01*
X115745525Y-101270670D01*
X115736841Y-101319921D01*
X115737854Y-101325666D01*
X115753834Y-101416298D01*
X115753835Y-101416299D01*
X115767107Y-101439286D01*
X115802765Y-101501046D01*
X115877731Y-101563951D01*
X115969691Y-101597421D01*
X115969694Y-101597421D01*
X116067550Y-101597421D01*
X116067553Y-101597421D01*
X116109837Y-101582031D01*
X116157624Y-101584118D01*
X116189942Y-101619385D01*
X116192762Y-101651614D01*
X116179392Y-101727442D01*
X116196385Y-101823820D01*
X116196386Y-101823821D01*
X116213328Y-101853164D01*
X116245316Y-101908568D01*
X116320282Y-101971473D01*
X116412242Y-102004943D01*
X116412245Y-102004943D01*
X116494822Y-102004943D01*
X116539016Y-102023249D01*
X116557322Y-102067443D01*
X116539016Y-102111637D01*
X116534996Y-102115321D01*
X116462275Y-102176340D01*
X116413345Y-102261087D01*
X116413344Y-102261088D01*
X116396351Y-102357466D01*
X116413344Y-102453843D01*
X116413345Y-102453844D01*
X116453737Y-102523803D01*
X116462275Y-102538591D01*
X116537241Y-102601496D01*
X116629201Y-102634966D01*
X116629204Y-102634966D01*
X116727060Y-102634966D01*
X116727063Y-102634966D01*
X116819023Y-102601496D01*
X116893989Y-102538591D01*
X116942920Y-102453841D01*
X116959913Y-102357466D01*
X116942920Y-102261091D01*
X116942919Y-102261089D01*
X116942919Y-102261088D01*
X116942918Y-102261087D01*
X116920373Y-102222039D01*
X116893989Y-102176341D01*
X116819023Y-102113436D01*
X116808713Y-102109683D01*
X116727065Y-102079966D01*
X116727063Y-102079966D01*
X116644484Y-102079966D01*
X116600290Y-102061660D01*
X116581984Y-102017466D01*
X116600290Y-101973272D01*
X116604310Y-101969588D01*
X116616101Y-101959694D01*
X116677030Y-101908568D01*
X116725961Y-101823818D01*
X116742954Y-101727443D01*
X116725961Y-101631068D01*
X116725960Y-101631066D01*
X116725960Y-101631065D01*
X116725959Y-101631064D01*
X116693973Y-101575664D01*
X119558549Y-101575664D01*
X119575542Y-101672041D01*
X119575543Y-101672042D01*
X119607529Y-101727442D01*
X119624473Y-101756789D01*
X119699439Y-101819694D01*
X119791399Y-101853164D01*
X119791402Y-101853164D01*
X119889258Y-101853164D01*
X119889261Y-101853164D01*
X119981221Y-101819694D01*
X120056187Y-101756789D01*
X120105118Y-101672039D01*
X120122111Y-101575664D01*
X120115058Y-101535664D01*
X122868861Y-101535664D01*
X122885854Y-101632041D01*
X122885855Y-101632042D01*
X122908948Y-101672039D01*
X122934785Y-101716789D01*
X123009751Y-101779694D01*
X123091401Y-101809411D01*
X123098625Y-101812041D01*
X123101711Y-101813164D01*
X123101714Y-101813164D01*
X123199570Y-101813164D01*
X123199573Y-101813164D01*
X123291533Y-101779694D01*
X123366499Y-101716789D01*
X123415430Y-101632039D01*
X123432423Y-101535664D01*
X123415430Y-101439289D01*
X123415429Y-101439287D01*
X123415429Y-101439286D01*
X123415428Y-101439285D01*
X123389593Y-101394538D01*
X123366499Y-101354539D01*
X123291533Y-101291634D01*
X123281223Y-101287881D01*
X123199575Y-101258164D01*
X123199573Y-101258164D01*
X123101711Y-101258164D01*
X123101708Y-101258164D01*
X123009753Y-101291633D01*
X123009750Y-101291634D01*
X122934785Y-101354538D01*
X122885855Y-101439285D01*
X122885854Y-101439286D01*
X122868861Y-101535664D01*
X120115058Y-101535664D01*
X120105118Y-101479289D01*
X120105117Y-101479287D01*
X120105117Y-101479286D01*
X120105116Y-101479285D01*
X120068750Y-101416299D01*
X120056187Y-101394539D01*
X119981221Y-101331634D01*
X119981218Y-101331632D01*
X119981217Y-101331632D01*
X119964827Y-101325666D01*
X119929560Y-101293348D01*
X119927475Y-101245558D01*
X119959793Y-101210291D01*
X119975359Y-101205384D01*
X119978790Y-101204779D01*
X119978797Y-101204779D01*
X120070757Y-101171309D01*
X120145723Y-101108404D01*
X120194654Y-101023654D01*
X120211647Y-100927279D01*
X120194654Y-100830904D01*
X120194653Y-100830902D01*
X120194653Y-100830901D01*
X120194652Y-100830900D01*
X120177579Y-100801329D01*
X120145723Y-100746154D01*
X120070757Y-100683249D01*
X120060447Y-100679496D01*
X119978799Y-100649779D01*
X119978797Y-100649779D01*
X119880935Y-100649779D01*
X119880932Y-100649779D01*
X119788977Y-100683248D01*
X119788974Y-100683249D01*
X119714009Y-100746153D01*
X119665079Y-100830900D01*
X119665078Y-100830901D01*
X119648085Y-100927279D01*
X119665078Y-101023656D01*
X119665079Y-101023657D01*
X119695237Y-101075890D01*
X119714009Y-101108404D01*
X119788975Y-101171309D01*
X119800706Y-101175578D01*
X119805366Y-101177275D01*
X119840634Y-101209593D01*
X119842721Y-101257382D01*
X119810403Y-101292650D01*
X119794844Y-101297556D01*
X119791401Y-101298163D01*
X119699441Y-101331633D01*
X119699438Y-101331634D01*
X119624473Y-101394538D01*
X119575543Y-101479285D01*
X119575542Y-101479286D01*
X119558549Y-101575664D01*
X116693973Y-101575664D01*
X116677030Y-101546318D01*
X116602064Y-101483413D01*
X116569701Y-101471634D01*
X116510106Y-101449943D01*
X116510104Y-101449943D01*
X116412242Y-101449943D01*
X116412240Y-101449943D01*
X116412237Y-101449944D01*
X116369958Y-101465332D01*
X116322168Y-101463245D01*
X116289852Y-101427976D01*
X116287033Y-101395748D01*
X116300403Y-101319923D01*
X116300403Y-101319921D01*
X116283410Y-101223546D01*
X116283409Y-101223544D01*
X116283409Y-101223543D01*
X116283408Y-101223542D01*
X116256695Y-101177275D01*
X116234479Y-101138796D01*
X116159513Y-101075891D01*
X116130057Y-101065170D01*
X116067555Y-101042421D01*
X116067553Y-101042421D01*
X115969691Y-101042421D01*
X115969688Y-101042421D01*
X115901453Y-101067257D01*
X115853663Y-101065170D01*
X115821346Y-101029902D01*
X115818527Y-100997673D01*
X115827211Y-100948425D01*
X115827211Y-100948423D01*
X115810218Y-100852048D01*
X115810217Y-100852046D01*
X115810217Y-100852045D01*
X115810216Y-100852044D01*
X115766364Y-100776092D01*
X115761287Y-100767298D01*
X115686321Y-100704393D01*
X115653612Y-100692488D01*
X115594363Y-100670923D01*
X115594361Y-100670923D01*
X115496499Y-100670923D01*
X115496497Y-100670923D01*
X115496494Y-100670924D01*
X115431511Y-100694575D01*
X115383721Y-100692488D01*
X115351405Y-100657219D01*
X115348586Y-100624992D01*
X115357932Y-100571989D01*
X115340939Y-100475614D01*
X115340938Y-100475612D01*
X115340938Y-100475611D01*
X115340937Y-100475610D01*
X115311584Y-100424771D01*
X115292008Y-100390864D01*
X115217042Y-100327959D01*
X115206732Y-100324206D01*
X115125084Y-100294489D01*
X115125082Y-100294489D01*
X115027220Y-100294489D01*
X115027217Y-100294489D01*
X114935262Y-100327958D01*
X114935259Y-100327959D01*
X114860294Y-100390863D01*
X114811364Y-100475610D01*
X114811363Y-100475611D01*
X114794370Y-100571989D01*
X113236087Y-100571989D01*
X113168482Y-100547383D01*
X113168480Y-100547383D01*
X113070618Y-100547383D01*
X113070615Y-100547383D01*
X112978660Y-100580852D01*
X112978657Y-100580853D01*
X112903692Y-100643757D01*
X112854762Y-100728504D01*
X112854761Y-100728505D01*
X112837768Y-100824883D01*
X111493485Y-100824883D01*
X111484883Y-100776095D01*
X111484882Y-100776093D01*
X111484882Y-100776092D01*
X111484881Y-100776091D01*
X111457408Y-100728508D01*
X111435952Y-100691345D01*
X111360986Y-100628440D01*
X111350676Y-100624687D01*
X111269028Y-100594970D01*
X111269026Y-100594970D01*
X111173963Y-100594970D01*
X111129769Y-100576664D01*
X111111463Y-100532470D01*
X111119837Y-100501219D01*
X111120701Y-100499720D01*
X111133324Y-100477859D01*
X111150317Y-100381484D01*
X111133324Y-100285109D01*
X111133323Y-100285107D01*
X111133323Y-100285106D01*
X111133322Y-100285105D01*
X111090874Y-100211585D01*
X120913538Y-100211585D01*
X120930531Y-100307962D01*
X120930532Y-100307963D01*
X120970924Y-100377922D01*
X120979462Y-100392710D01*
X121054428Y-100455615D01*
X121146388Y-100489085D01*
X121146391Y-100489085D01*
X121244247Y-100489085D01*
X121244250Y-100489085D01*
X121336210Y-100455615D01*
X121411176Y-100392710D01*
X121460107Y-100307960D01*
X121477100Y-100211585D01*
X121460107Y-100115210D01*
X121460106Y-100115208D01*
X121460106Y-100115207D01*
X121458236Y-100110069D01*
X121460939Y-100109085D01*
X121455976Y-100071467D01*
X121485086Y-100033509D01*
X121527209Y-100026077D01*
X121531394Y-100026815D01*
X121531399Y-100026817D01*
X121531404Y-100026817D01*
X121629258Y-100026817D01*
X121629261Y-100026817D01*
X121721221Y-99993347D01*
X121796187Y-99930442D01*
X121845118Y-99845692D01*
X121862111Y-99749317D01*
X121845118Y-99652942D01*
X121845117Y-99652940D01*
X121845117Y-99652939D01*
X121845116Y-99652938D01*
X121828043Y-99623367D01*
X121796187Y-99568192D01*
X121721221Y-99505287D01*
X121710911Y-99501534D01*
X121629263Y-99471817D01*
X121629261Y-99471817D01*
X121531399Y-99471817D01*
X121531396Y-99471817D01*
X121439441Y-99505286D01*
X121439438Y-99505287D01*
X121364473Y-99568191D01*
X121315543Y-99652938D01*
X121315542Y-99652939D01*
X121298549Y-99749317D01*
X121315542Y-99845694D01*
X121317413Y-99850833D01*
X121314712Y-99851815D01*
X121319667Y-99889452D01*
X121290546Y-99927401D01*
X121248444Y-99934825D01*
X121244252Y-99934086D01*
X121244250Y-99934085D01*
X121146388Y-99934085D01*
X121146385Y-99934085D01*
X121054430Y-99967554D01*
X121054427Y-99967555D01*
X120979462Y-100030459D01*
X120930532Y-100115206D01*
X120930531Y-100115207D01*
X120913538Y-100211585D01*
X111090874Y-100211585D01*
X111084393Y-100200359D01*
X111009427Y-100137454D01*
X110999117Y-100133701D01*
X110917469Y-100103984D01*
X110917467Y-100103984D01*
X110819605Y-100103984D01*
X110819602Y-100103984D01*
X110727647Y-100137453D01*
X110727644Y-100137454D01*
X110652679Y-100200358D01*
X110603749Y-100285105D01*
X110603748Y-100285106D01*
X110586755Y-100381484D01*
X107657696Y-100381484D01*
X107657696Y-98247389D01*
X115836824Y-98247389D01*
X115853817Y-98343766D01*
X115853818Y-98343767D01*
X115894210Y-98413726D01*
X115902748Y-98428514D01*
X115977714Y-98491419D01*
X116069674Y-98524889D01*
X116069677Y-98524889D01*
X116167533Y-98524889D01*
X116167536Y-98524889D01*
X116259496Y-98491419D01*
X116334462Y-98428514D01*
X116383393Y-98343764D01*
X116400386Y-98247389D01*
X116383393Y-98151014D01*
X116383392Y-98151012D01*
X116383392Y-98151011D01*
X116383391Y-98151010D01*
X116366318Y-98121439D01*
X116334462Y-98066264D01*
X116259496Y-98003359D01*
X116249186Y-97999606D01*
X116167538Y-97969889D01*
X116167536Y-97969889D01*
X116069674Y-97969889D01*
X116069671Y-97969889D01*
X115977716Y-98003358D01*
X115977713Y-98003359D01*
X115902748Y-98066263D01*
X115853818Y-98151010D01*
X115853817Y-98151011D01*
X115836824Y-98247389D01*
X107657696Y-98247389D01*
X107657696Y-97009918D01*
X116296409Y-97009918D01*
X116313402Y-97106295D01*
X116313403Y-97106296D01*
X116341077Y-97154227D01*
X116362333Y-97191043D01*
X116437299Y-97253948D01*
X116529259Y-97287418D01*
X116529262Y-97287418D01*
X116627118Y-97287418D01*
X116627121Y-97287418D01*
X116719081Y-97253948D01*
X116794047Y-97191043D01*
X116842978Y-97106293D01*
X116859971Y-97009918D01*
X116842978Y-96913543D01*
X116842977Y-96913541D01*
X116842977Y-96913540D01*
X116842976Y-96913539D01*
X116825903Y-96883968D01*
X116794047Y-96828793D01*
X116719081Y-96765888D01*
X116708771Y-96762135D01*
X116627123Y-96732418D01*
X116627121Y-96732418D01*
X116529259Y-96732418D01*
X116529256Y-96732418D01*
X116437301Y-96765887D01*
X116437298Y-96765888D01*
X116362333Y-96828792D01*
X116313403Y-96913539D01*
X116313402Y-96913540D01*
X116296409Y-97009918D01*
X107657696Y-97009918D01*
X107657696Y-96498125D01*
X114936088Y-96498125D01*
X114953081Y-96594502D01*
X114953082Y-96594503D01*
X114960523Y-96607390D01*
X115002012Y-96679250D01*
X115076978Y-96742155D01*
X115168938Y-96775625D01*
X115168941Y-96775625D01*
X115266797Y-96775625D01*
X115266800Y-96775625D01*
X115358760Y-96742155D01*
X115433726Y-96679250D01*
X115482657Y-96594500D01*
X115499650Y-96498125D01*
X115486980Y-96426267D01*
X118082675Y-96426267D01*
X118099668Y-96522644D01*
X118099669Y-96522645D01*
X118127420Y-96570710D01*
X118148599Y-96607392D01*
X118223565Y-96670297D01*
X118315525Y-96703767D01*
X118315528Y-96703767D01*
X118413384Y-96703767D01*
X118413387Y-96703767D01*
X118443716Y-96692728D01*
X118491504Y-96694814D01*
X118523822Y-96730082D01*
X118526641Y-96762310D01*
X118516854Y-96817818D01*
X118511496Y-96848209D01*
X118528489Y-96944587D01*
X118528490Y-96944588D01*
X118566209Y-97009918D01*
X118577420Y-97029335D01*
X118652386Y-97092240D01*
X118720072Y-97116875D01*
X118744340Y-97125708D01*
X118744346Y-97125710D01*
X118744349Y-97125710D01*
X118842205Y-97125710D01*
X118842208Y-97125710D01*
X118866482Y-97116875D01*
X118914270Y-97118960D01*
X118946588Y-97154227D01*
X118949409Y-97186457D01*
X118933439Y-97277032D01*
X118950432Y-97373410D01*
X118950433Y-97373411D01*
X118982754Y-97429391D01*
X118999363Y-97458158D01*
X119074329Y-97521063D01*
X119166289Y-97554533D01*
X119166292Y-97554533D01*
X119264148Y-97554533D01*
X119264151Y-97554533D01*
X119343178Y-97525770D01*
X121228047Y-97525770D01*
X121245040Y-97622147D01*
X121245041Y-97622148D01*
X121285433Y-97692107D01*
X121293971Y-97706895D01*
X121368937Y-97769800D01*
X121460897Y-97803270D01*
X121460900Y-97803270D01*
X121558756Y-97803270D01*
X121558759Y-97803270D01*
X121650719Y-97769800D01*
X121725685Y-97706895D01*
X121774616Y-97622145D01*
X121791609Y-97525770D01*
X121774616Y-97429395D01*
X121774615Y-97429393D01*
X121774615Y-97429392D01*
X121774614Y-97429391D01*
X121742293Y-97373411D01*
X121725685Y-97344645D01*
X121650719Y-97281740D01*
X121637784Y-97277032D01*
X121558761Y-97248270D01*
X121558759Y-97248270D01*
X121460897Y-97248270D01*
X121460894Y-97248270D01*
X121368939Y-97281739D01*
X121368936Y-97281740D01*
X121293971Y-97344644D01*
X121245041Y-97429391D01*
X121245040Y-97429392D01*
X121228047Y-97525770D01*
X119343178Y-97525770D01*
X119356111Y-97521063D01*
X119431077Y-97458158D01*
X119480008Y-97373408D01*
X119497001Y-97277033D01*
X119480008Y-97180658D01*
X119480007Y-97180656D01*
X119480007Y-97180655D01*
X119480006Y-97180654D01*
X119443182Y-97116875D01*
X119431077Y-97095908D01*
X119356111Y-97033003D01*
X119345801Y-97029250D01*
X119264153Y-96999533D01*
X119264151Y-96999533D01*
X119166289Y-96999533D01*
X119166287Y-96999533D01*
X119166284Y-96999534D01*
X119142013Y-97008368D01*
X119094224Y-97006281D01*
X119061907Y-96971012D01*
X119059087Y-96938787D01*
X119075058Y-96848210D01*
X119058065Y-96751835D01*
X119058064Y-96751833D01*
X119058064Y-96751832D01*
X119058063Y-96751831D01*
X119040990Y-96722260D01*
X119009134Y-96667085D01*
X118934168Y-96604180D01*
X118923858Y-96600427D01*
X118842210Y-96570710D01*
X118842208Y-96570710D01*
X118744346Y-96570710D01*
X118744344Y-96570710D01*
X118744341Y-96570711D01*
X118714016Y-96581748D01*
X118666226Y-96579661D01*
X118633910Y-96544392D01*
X118631091Y-96512164D01*
X118646237Y-96426269D01*
X118641914Y-96401750D01*
X118629244Y-96329892D01*
X118629243Y-96329890D01*
X118629243Y-96329889D01*
X118629242Y-96329888D01*
X118580622Y-96245678D01*
X118580313Y-96245142D01*
X118505347Y-96182237D01*
X118492013Y-96177384D01*
X118413389Y-96148767D01*
X118413387Y-96148767D01*
X118315525Y-96148767D01*
X118315522Y-96148767D01*
X118223567Y-96182236D01*
X118223564Y-96182237D01*
X118148599Y-96245141D01*
X118099669Y-96329888D01*
X118099668Y-96329889D01*
X118082675Y-96426267D01*
X115486980Y-96426267D01*
X115482657Y-96401750D01*
X115482656Y-96401748D01*
X115482656Y-96401747D01*
X115482655Y-96401746D01*
X115441169Y-96329892D01*
X115433726Y-96317000D01*
X115358760Y-96254095D01*
X115334164Y-96245143D01*
X115266802Y-96220625D01*
X115266800Y-96220625D01*
X115168938Y-96220625D01*
X115168935Y-96220625D01*
X115076980Y-96254094D01*
X115076977Y-96254095D01*
X115002012Y-96316999D01*
X114953082Y-96401746D01*
X114953081Y-96401747D01*
X114936088Y-96498125D01*
X107657696Y-96498125D01*
X107657696Y-96271606D01*
X107657735Y-96271511D01*
X107657735Y-96245678D01*
X107657736Y-96245678D01*
X107657740Y-96057716D01*
X107630682Y-95765664D01*
X111148549Y-95765664D01*
X111165542Y-95862041D01*
X111165543Y-95862042D01*
X111196196Y-95915133D01*
X111214473Y-95946789D01*
X111289439Y-96009694D01*
X111381399Y-96043164D01*
X111381402Y-96043164D01*
X111479258Y-96043164D01*
X111479261Y-96043164D01*
X111571221Y-96009694D01*
X111646187Y-95946789D01*
X111682199Y-95884415D01*
X115625434Y-95884415D01*
X115642427Y-95980792D01*
X115642428Y-95980793D01*
X115670428Y-96029289D01*
X115691358Y-96065540D01*
X115766324Y-96128445D01*
X115858284Y-96161915D01*
X115858287Y-96161915D01*
X115956143Y-96161915D01*
X115956146Y-96161915D01*
X116048106Y-96128445D01*
X116051420Y-96125664D01*
X117392053Y-96125664D01*
X117409046Y-96222041D01*
X117409047Y-96222042D01*
X117437609Y-96271511D01*
X117457977Y-96306789D01*
X117532943Y-96369694D01*
X117624903Y-96403164D01*
X117624906Y-96403164D01*
X117722762Y-96403164D01*
X117722765Y-96403164D01*
X117814725Y-96369694D01*
X117889691Y-96306789D01*
X117938622Y-96222039D01*
X117955615Y-96125664D01*
X117938622Y-96029289D01*
X117938621Y-96029287D01*
X117938621Y-96029286D01*
X117938620Y-96029285D01*
X117894089Y-95952157D01*
X117889691Y-95944539D01*
X117814725Y-95881634D01*
X117804415Y-95877881D01*
X117722767Y-95848164D01*
X117722765Y-95848164D01*
X117624903Y-95848164D01*
X117624900Y-95848164D01*
X117532945Y-95881633D01*
X117532942Y-95881634D01*
X117457977Y-95944538D01*
X117409047Y-96029285D01*
X117409046Y-96029286D01*
X117392053Y-96125664D01*
X116051420Y-96125664D01*
X116123072Y-96065540D01*
X116172003Y-95980790D01*
X116188996Y-95884415D01*
X116172003Y-95788040D01*
X116172002Y-95788038D01*
X116172002Y-95788037D01*
X116172001Y-95788036D01*
X116154928Y-95758465D01*
X116123072Y-95703290D01*
X116048106Y-95640385D01*
X116037796Y-95636632D01*
X115956148Y-95606915D01*
X115956146Y-95606915D01*
X115858284Y-95606915D01*
X115858281Y-95606915D01*
X115766326Y-95640384D01*
X115766323Y-95640385D01*
X115691358Y-95703289D01*
X115642428Y-95788036D01*
X115642427Y-95788037D01*
X115625434Y-95884415D01*
X111682199Y-95884415D01*
X111695118Y-95862039D01*
X111712111Y-95765664D01*
X111695118Y-95669289D01*
X111695117Y-95669287D01*
X111695117Y-95669286D01*
X111695116Y-95669285D01*
X111669166Y-95624339D01*
X111646187Y-95584539D01*
X111571221Y-95521634D01*
X111559896Y-95517512D01*
X111479263Y-95488164D01*
X111479261Y-95488164D01*
X111381399Y-95488164D01*
X111381396Y-95488164D01*
X111289441Y-95521633D01*
X111289438Y-95521634D01*
X111214473Y-95584538D01*
X111165543Y-95669285D01*
X111165542Y-95669286D01*
X111148549Y-95765664D01*
X107630682Y-95765664D01*
X107626437Y-95719849D01*
X107623062Y-95683415D01*
X107623060Y-95683399D01*
X107623060Y-95683394D01*
X107574643Y-95424364D01*
X119600920Y-95424364D01*
X119617913Y-95520741D01*
X119617914Y-95520742D01*
X119654748Y-95584538D01*
X119666844Y-95605489D01*
X119741810Y-95668394D01*
X119833770Y-95701864D01*
X119833773Y-95701864D01*
X119931629Y-95701864D01*
X119931632Y-95701864D01*
X120023592Y-95668394D01*
X120023594Y-95668392D01*
X120028327Y-95665660D01*
X120029394Y-95667508D01*
X120067407Y-95655517D01*
X120109840Y-95677599D01*
X120124468Y-95717780D01*
X120124468Y-95720711D01*
X120124468Y-95720712D01*
X120124468Y-95720714D01*
X120132394Y-95765664D01*
X120141461Y-95817091D01*
X120141462Y-95817092D01*
X120180332Y-95884415D01*
X120190392Y-95901839D01*
X120265358Y-95964744D01*
X120347008Y-95994461D01*
X120351946Y-95996259D01*
X120357318Y-95998214D01*
X120357321Y-95998214D01*
X120455177Y-95998214D01*
X120455180Y-95998214D01*
X120547140Y-95964744D01*
X120606263Y-95915132D01*
X120651883Y-95900748D01*
X120694314Y-95922835D01*
X120707987Y-95952157D01*
X120715762Y-95996255D01*
X120715765Y-95996262D01*
X120734832Y-96029286D01*
X120764695Y-96081009D01*
X120839661Y-96143914D01*
X120931621Y-96177384D01*
X120931624Y-96177384D01*
X121029480Y-96177384D01*
X121029483Y-96177384D01*
X121121443Y-96143914D01*
X121196409Y-96081009D01*
X121245340Y-95996259D01*
X121262333Y-95899884D01*
X121262332Y-95899882D01*
X121263282Y-95894499D01*
X121265486Y-95894887D01*
X121280639Y-95858307D01*
X121324833Y-95840001D01*
X121365007Y-95854623D01*
X121368937Y-95857921D01*
X121447417Y-95886485D01*
X121460897Y-95891391D01*
X121460900Y-95891391D01*
X121558756Y-95891391D01*
X121558759Y-95891391D01*
X121650719Y-95857921D01*
X121725685Y-95795016D01*
X121774616Y-95710266D01*
X121791609Y-95613891D01*
X121774616Y-95517516D01*
X121774615Y-95517514D01*
X121774615Y-95517513D01*
X121774614Y-95517512D01*
X121725684Y-95432765D01*
X121690857Y-95403541D01*
X121668770Y-95361111D01*
X121683155Y-95315489D01*
X121725585Y-95293402D01*
X121731032Y-95293164D01*
X121769258Y-95293164D01*
X121769261Y-95293164D01*
X121861221Y-95259694D01*
X121936187Y-95196789D01*
X121985118Y-95112039D01*
X122002111Y-95015664D01*
X121985118Y-94919289D01*
X121985117Y-94919287D01*
X121985117Y-94919286D01*
X121985116Y-94919285D01*
X121954157Y-94865664D01*
X123465141Y-94865664D01*
X123482134Y-94962041D01*
X123482135Y-94962042D01*
X123513095Y-95015664D01*
X123531065Y-95046789D01*
X123606031Y-95109694D01*
X123697991Y-95143164D01*
X123697994Y-95143164D01*
X123795850Y-95143164D01*
X123795853Y-95143164D01*
X123887813Y-95109694D01*
X123962779Y-95046789D01*
X124011710Y-94962039D01*
X124028703Y-94865664D01*
X124011710Y-94769289D01*
X124011709Y-94769287D01*
X124011709Y-94769286D01*
X124011708Y-94769285D01*
X123993740Y-94738164D01*
X123962779Y-94684539D01*
X123887813Y-94621634D01*
X123877503Y-94617881D01*
X123795855Y-94588164D01*
X123795853Y-94588164D01*
X123697991Y-94588164D01*
X123697988Y-94588164D01*
X123606033Y-94621633D01*
X123606030Y-94621634D01*
X123531065Y-94684538D01*
X123482135Y-94769285D01*
X123482134Y-94769286D01*
X123465141Y-94865664D01*
X121954157Y-94865664D01*
X121941248Y-94843305D01*
X121936187Y-94834539D01*
X121861221Y-94771634D01*
X121850911Y-94767881D01*
X121769263Y-94738164D01*
X121769261Y-94738164D01*
X121671399Y-94738164D01*
X121671396Y-94738164D01*
X121579441Y-94771633D01*
X121579438Y-94771634D01*
X121504473Y-94834538D01*
X121455543Y-94919285D01*
X121455542Y-94919286D01*
X121438549Y-95015664D01*
X121455542Y-95112041D01*
X121455543Y-95112042D01*
X121504473Y-95196789D01*
X121539301Y-95226014D01*
X121561388Y-95268444D01*
X121547003Y-95314066D01*
X121504573Y-95336153D01*
X121499126Y-95336391D01*
X121460894Y-95336391D01*
X121368939Y-95369860D01*
X121368936Y-95369861D01*
X121293971Y-95432765D01*
X121245041Y-95517512D01*
X121245040Y-95517513D01*
X121242706Y-95530751D01*
X121229529Y-95605489D01*
X121227098Y-95619276D01*
X121224893Y-95618887D01*
X121209741Y-95655467D01*
X121165547Y-95673773D01*
X121125376Y-95659153D01*
X121121446Y-95655855D01*
X121121442Y-95655853D01*
X121029485Y-95622384D01*
X121029483Y-95622384D01*
X120931621Y-95622384D01*
X120931618Y-95622384D01*
X120839663Y-95655853D01*
X120839660Y-95655855D01*
X120780537Y-95705465D01*
X120734915Y-95719849D01*
X120692485Y-95697761D01*
X120678813Y-95668441D01*
X120671037Y-95624339D01*
X120669908Y-95622384D01*
X120648058Y-95584538D01*
X120622106Y-95539589D01*
X120547140Y-95476684D01*
X120521827Y-95467471D01*
X120455182Y-95443214D01*
X120455180Y-95443214D01*
X120357318Y-95443214D01*
X120357315Y-95443214D01*
X120265360Y-95476683D01*
X120260624Y-95479418D01*
X120259558Y-95477571D01*
X120221533Y-95489560D01*
X120179103Y-95467471D01*
X120164482Y-95427298D01*
X120164482Y-95424366D01*
X120154872Y-95369861D01*
X120147489Y-95327989D01*
X120147488Y-95327987D01*
X120147488Y-95327986D01*
X120147487Y-95327985D01*
X120127520Y-95293402D01*
X120098558Y-95243239D01*
X120023592Y-95180334D01*
X120013282Y-95176581D01*
X119931634Y-95146864D01*
X119931632Y-95146864D01*
X119833770Y-95146864D01*
X119833767Y-95146864D01*
X119741812Y-95180333D01*
X119741809Y-95180334D01*
X119666844Y-95243238D01*
X119617914Y-95327985D01*
X119617913Y-95327986D01*
X119600920Y-95424364D01*
X107574643Y-95424364D01*
X107553989Y-95313869D01*
X107451116Y-94952294D01*
X107315319Y-94601754D01*
X107147757Y-94265239D01*
X106949859Y-93945622D01*
X106934787Y-93925664D01*
X111998549Y-93925664D01*
X112015542Y-94022041D01*
X112015543Y-94022042D01*
X112016249Y-94023264D01*
X112064473Y-94106789D01*
X112139439Y-94169694D01*
X112231399Y-94203164D01*
X112231402Y-94203164D01*
X112329258Y-94203164D01*
X112329261Y-94203164D01*
X112421221Y-94169694D01*
X112496187Y-94106789D01*
X112531204Y-94046139D01*
X112569154Y-94017019D01*
X112616581Y-94023264D01*
X112639456Y-94046139D01*
X112674473Y-94106789D01*
X112749439Y-94169694D01*
X112841399Y-94203164D01*
X112841402Y-94203164D01*
X112939258Y-94203164D01*
X112939261Y-94203164D01*
X113031221Y-94169694D01*
X113106187Y-94106789D01*
X113155118Y-94022039D01*
X113172111Y-93925664D01*
X113155118Y-93829289D01*
X113155117Y-93829287D01*
X113155117Y-93829286D01*
X113155116Y-93829285D01*
X113116292Y-93762041D01*
X113106187Y-93744539D01*
X113031221Y-93681634D01*
X113020911Y-93677881D01*
X112987345Y-93665664D01*
X116908549Y-93665664D01*
X116925542Y-93762041D01*
X116925543Y-93762042D01*
X116964369Y-93829289D01*
X116974473Y-93846789D01*
X117049439Y-93909694D01*
X117141399Y-93943164D01*
X117141402Y-93943164D01*
X117239258Y-93943164D01*
X117239261Y-93943164D01*
X117331221Y-93909694D01*
X117406187Y-93846789D01*
X117455118Y-93762039D01*
X117472111Y-93665664D01*
X117455118Y-93569289D01*
X117455117Y-93569287D01*
X117455117Y-93569286D01*
X117455116Y-93569285D01*
X117438043Y-93539714D01*
X117406187Y-93484539D01*
X117331221Y-93421634D01*
X117307392Y-93412961D01*
X117239263Y-93388164D01*
X117239261Y-93388164D01*
X117141399Y-93388164D01*
X117141396Y-93388164D01*
X117049441Y-93421633D01*
X117049438Y-93421634D01*
X116974473Y-93484538D01*
X116925543Y-93569285D01*
X116925542Y-93569286D01*
X116908549Y-93665664D01*
X112987345Y-93665664D01*
X112939263Y-93648164D01*
X112939261Y-93648164D01*
X112841399Y-93648164D01*
X112841396Y-93648164D01*
X112749441Y-93681633D01*
X112749438Y-93681634D01*
X112674473Y-93744538D01*
X112639456Y-93805188D01*
X112601505Y-93834308D01*
X112554079Y-93828063D01*
X112531204Y-93805188D01*
X112506291Y-93762039D01*
X112496187Y-93744539D01*
X112421221Y-93681634D01*
X112410911Y-93677881D01*
X112329263Y-93648164D01*
X112329261Y-93648164D01*
X112231399Y-93648164D01*
X112231396Y-93648164D01*
X112139441Y-93681633D01*
X112139438Y-93681634D01*
X112064473Y-93744538D01*
X112015543Y-93829285D01*
X112015542Y-93829286D01*
X111998549Y-93925664D01*
X106934787Y-93925664D01*
X106738444Y-93665664D01*
X106723311Y-93645624D01*
X106519113Y-93421633D01*
X106470053Y-93367817D01*
X106469446Y-93367264D01*
X113922021Y-93367264D01*
X113939014Y-93463641D01*
X113939015Y-93463642D01*
X113957127Y-93495012D01*
X113987945Y-93548389D01*
X114062911Y-93611294D01*
X114144561Y-93641011D01*
X114154865Y-93644762D01*
X114154871Y-93644764D01*
X114154874Y-93644764D01*
X114252730Y-93644764D01*
X114252733Y-93644764D01*
X114344693Y-93611294D01*
X114419659Y-93548389D01*
X114450477Y-93495012D01*
X114488427Y-93465892D01*
X114535853Y-93472136D01*
X114558729Y-93495011D01*
X114589547Y-93548388D01*
X114664513Y-93611293D01*
X114756473Y-93644763D01*
X114756476Y-93644763D01*
X114854332Y-93644763D01*
X114854335Y-93644763D01*
X114946295Y-93611293D01*
X115021261Y-93548388D01*
X115070192Y-93463638D01*
X115087185Y-93367263D01*
X115070192Y-93270888D01*
X115070191Y-93270886D01*
X115070191Y-93270885D01*
X115070190Y-93270884D01*
X115028536Y-93198739D01*
X115021261Y-93186138D01*
X114946295Y-93123233D01*
X114922521Y-93114580D01*
X114854337Y-93089763D01*
X114854335Y-93089763D01*
X114756473Y-93089763D01*
X114756470Y-93089763D01*
X114664515Y-93123232D01*
X114664512Y-93123233D01*
X114589547Y-93186137D01*
X114558728Y-93239515D01*
X114520777Y-93268635D01*
X114473351Y-93262390D01*
X114450476Y-93239514D01*
X114423067Y-93192042D01*
X114419659Y-93186139D01*
X114344693Y-93123234D01*
X114320842Y-93114553D01*
X114252735Y-93089764D01*
X114252733Y-93089764D01*
X114154871Y-93089764D01*
X114154868Y-93089764D01*
X114062913Y-93123233D01*
X114062910Y-93123234D01*
X113987945Y-93186138D01*
X113939015Y-93270885D01*
X113939014Y-93270886D01*
X113922021Y-93367264D01*
X106469446Y-93367264D01*
X106192240Y-93114560D01*
X106192239Y-93114559D01*
X106192232Y-93114553D01*
X105892249Y-92888021D01*
X105572632Y-92690128D01*
X105572631Y-92690127D01*
X105572628Y-92690125D01*
X105572624Y-92690123D01*
X105519887Y-92663864D01*
X118676749Y-92663864D01*
X118693742Y-92760241D01*
X118693743Y-92760242D01*
X118694442Y-92761452D01*
X118742673Y-92844989D01*
X118817639Y-92907894D01*
X118909599Y-92941364D01*
X118909602Y-92941364D01*
X119007458Y-92941364D01*
X119007461Y-92941364D01*
X119042829Y-92928491D01*
X119090619Y-92930578D01*
X119122936Y-92965846D01*
X119125756Y-92998074D01*
X119108549Y-93095663D01*
X119125542Y-93192041D01*
X119125543Y-93192042D01*
X119165935Y-93262001D01*
X119174473Y-93276789D01*
X119249439Y-93339694D01*
X119341399Y-93373164D01*
X119341402Y-93373164D01*
X119439258Y-93373164D01*
X119439261Y-93373164D01*
X119531221Y-93339694D01*
X119606187Y-93276789D01*
X119655118Y-93192039D01*
X119672111Y-93095664D01*
X119655118Y-92999289D01*
X119655117Y-92999287D01*
X119655117Y-92999286D01*
X119655116Y-92999285D01*
X119635809Y-92965846D01*
X119606187Y-92914539D01*
X119531221Y-92851634D01*
X119512958Y-92844987D01*
X119439263Y-92818164D01*
X119439261Y-92818164D01*
X119341399Y-92818164D01*
X119341397Y-92818164D01*
X119341393Y-92818165D01*
X119306029Y-92831036D01*
X119258239Y-92828948D01*
X119225923Y-92793680D01*
X119223104Y-92761452D01*
X119240311Y-92663866D01*
X119240311Y-92663864D01*
X119223318Y-92567489D01*
X119223317Y-92567487D01*
X119223317Y-92567486D01*
X119223316Y-92567485D01*
X119197380Y-92522564D01*
X119174387Y-92482739D01*
X119099421Y-92419834D01*
X119089111Y-92416081D01*
X119007463Y-92386364D01*
X119007461Y-92386364D01*
X118909599Y-92386364D01*
X118909596Y-92386364D01*
X118817641Y-92419833D01*
X118817638Y-92419834D01*
X118742673Y-92482738D01*
X118693743Y-92567485D01*
X118693742Y-92567486D01*
X118676749Y-92663864D01*
X105519887Y-92663864D01*
X105236107Y-92522564D01*
X105057253Y-92453279D01*
X104885578Y-92386775D01*
X104885569Y-92386772D01*
X104885566Y-92386771D01*
X104885552Y-92386767D01*
X104524008Y-92283905D01*
X104523983Y-92283899D01*
X104213288Y-92225828D01*
X104154464Y-92214834D01*
X103780142Y-92180158D01*
X103780140Y-92180158D01*
X103592180Y-92180164D01*
X92523649Y-92180164D01*
X92523345Y-92180192D01*
X92381354Y-92180190D01*
X92381349Y-92180190D01*
X92316751Y-92186174D01*
X92007031Y-92214866D01*
X92007026Y-92214866D01*
X92007025Y-92214867D01*
X91637516Y-92283931D01*
X91637491Y-92283937D01*
X91275947Y-92386798D01*
X91275945Y-92386799D01*
X91275937Y-92386801D01*
X91275937Y-92386802D01*
X90925399Y-92522595D01*
X90925396Y-92522596D01*
X90925392Y-92522598D01*
X90588882Y-92690154D01*
X90588881Y-92690155D01*
X90269263Y-92888049D01*
X89969283Y-93114580D01*
X89969274Y-93114588D01*
X89691465Y-93367842D01*
X89438209Y-93645647D01*
X89211665Y-93945642D01*
X89013768Y-94265258D01*
X88846211Y-94601761D01*
X88710411Y-94952310D01*
X88710410Y-94952313D01*
X88607542Y-95313874D01*
X88607537Y-95313893D01*
X88538473Y-95683387D01*
X88538468Y-95683420D01*
X88503792Y-96057697D01*
X88503791Y-96057719D01*
X88503795Y-96245142D01*
X88503795Y-98949034D01*
X88503602Y-98953937D01*
X88488506Y-99145774D01*
X88486972Y-99155461D01*
X88442623Y-99340187D01*
X88439592Y-99349515D01*
X88366894Y-99525022D01*
X88362442Y-99533761D01*
X88263176Y-99695745D01*
X88257411Y-99703679D01*
X88134031Y-99848133D01*
X88127095Y-99855068D01*
X87982642Y-99978437D01*
X87974708Y-99984202D01*
X87812722Y-100083463D01*
X87803983Y-100087915D01*
X87628473Y-100160606D01*
X87619145Y-100163637D01*
X87434417Y-100207978D01*
X87424730Y-100209512D01*
X87232204Y-100224656D01*
X87227302Y-100224848D01*
X87195772Y-100224847D01*
X87190557Y-100224847D01*
X87190556Y-100224847D01*
X87184606Y-100224847D01*
X87184586Y-100224849D01*
X73883247Y-100224849D01*
X73878343Y-100224656D01*
X73686503Y-100209557D01*
X73676816Y-100208023D01*
X73492087Y-100163672D01*
X73482760Y-100160641D01*
X73307252Y-100087943D01*
X73298513Y-100083491D01*
X73298467Y-100083463D01*
X73136528Y-99984224D01*
X73128594Y-99978459D01*
X72984139Y-99855081D01*
X72977204Y-99848146D01*
X72853826Y-99703685D01*
X72848062Y-99695751D01*
X72769894Y-99568191D01*
X72748801Y-99533771D01*
X72744350Y-99525035D01*
X72736170Y-99505287D01*
X72671650Y-99349515D01*
X72668620Y-99340188D01*
X72624274Y-99155464D01*
X72622740Y-99145777D01*
X72607621Y-98953644D01*
X72607428Y-98948741D01*
X72607428Y-94045664D01*
X78429549Y-94045664D01*
X78446542Y-94142041D01*
X78446543Y-94142042D01*
X78481832Y-94203163D01*
X78495473Y-94226789D01*
X78570439Y-94289694D01*
X78662399Y-94323164D01*
X78662402Y-94323164D01*
X78760258Y-94323164D01*
X78760261Y-94323164D01*
X78852221Y-94289694D01*
X78927187Y-94226789D01*
X78976118Y-94142039D01*
X78993111Y-94045664D01*
X79679549Y-94045664D01*
X79696542Y-94142041D01*
X79696543Y-94142042D01*
X79731832Y-94203163D01*
X79745473Y-94226789D01*
X79820439Y-94289694D01*
X79912399Y-94323164D01*
X79912402Y-94323164D01*
X80010258Y-94323164D01*
X80010261Y-94323164D01*
X80102221Y-94289694D01*
X80177187Y-94226789D01*
X80226118Y-94142039D01*
X80243111Y-94045664D01*
X80226118Y-93949289D01*
X80226117Y-93949287D01*
X80226117Y-93949286D01*
X80226116Y-93949285D01*
X80209043Y-93919714D01*
X80177187Y-93864539D01*
X80102221Y-93801634D01*
X80091911Y-93797881D01*
X80010263Y-93768164D01*
X80010261Y-93768164D01*
X79912399Y-93768164D01*
X79912396Y-93768164D01*
X79820441Y-93801633D01*
X79820438Y-93801634D01*
X79745473Y-93864538D01*
X79696543Y-93949285D01*
X79696542Y-93949286D01*
X79679549Y-94045664D01*
X78993111Y-94045664D01*
X78976118Y-93949289D01*
X78976117Y-93949287D01*
X78976117Y-93949286D01*
X78976116Y-93949285D01*
X78959043Y-93919714D01*
X78927187Y-93864539D01*
X78852221Y-93801634D01*
X78841911Y-93797881D01*
X78760263Y-93768164D01*
X78760261Y-93768164D01*
X78662399Y-93768164D01*
X78662396Y-93768164D01*
X78570441Y-93801633D01*
X78570438Y-93801634D01*
X78495473Y-93864538D01*
X78446543Y-93949285D01*
X78446542Y-93949286D01*
X78429549Y-94045664D01*
X72607428Y-94045664D01*
X72607428Y-92405664D01*
X74270330Y-92405664D01*
X76770330Y-92405664D01*
X76770330Y-92115664D01*
X116088549Y-92115664D01*
X116105542Y-92212041D01*
X116105543Y-92212042D01*
X116145935Y-92282001D01*
X116154473Y-92296789D01*
X116229439Y-92359694D01*
X116321399Y-92393164D01*
X116321402Y-92393164D01*
X116419258Y-92393164D01*
X116419261Y-92393164D01*
X116511221Y-92359694D01*
X116586187Y-92296789D01*
X116635118Y-92212039D01*
X116652111Y-92115664D01*
X116635118Y-92019289D01*
X116635117Y-92019287D01*
X116635117Y-92019286D01*
X116635116Y-92019285D01*
X116618043Y-91989714D01*
X116586187Y-91934539D01*
X116511221Y-91871634D01*
X116500911Y-91867881D01*
X116419263Y-91838164D01*
X116419261Y-91838164D01*
X116321399Y-91838164D01*
X116321396Y-91838164D01*
X116229441Y-91871633D01*
X116229438Y-91871634D01*
X116154473Y-91934538D01*
X116105543Y-92019285D01*
X116105542Y-92019286D01*
X116088549Y-92115664D01*
X76770330Y-92115664D01*
X76770330Y-91005664D01*
X74270330Y-91005664D01*
X74270330Y-92405664D01*
X72607428Y-92405664D01*
X72607428Y-90865664D01*
X95601051Y-90865664D01*
X95618044Y-90962041D01*
X95618045Y-90962042D01*
X95626887Y-90977356D01*
X95666975Y-91046789D01*
X95741941Y-91109694D01*
X95833901Y-91143164D01*
X95833904Y-91143164D01*
X95931760Y-91143164D01*
X95931763Y-91143164D01*
X96023723Y-91109694D01*
X96098689Y-91046789D01*
X96147620Y-90962039D01*
X96164613Y-90865664D01*
X96147620Y-90769289D01*
X96147619Y-90769287D01*
X96147619Y-90769286D01*
X96147618Y-90769285D01*
X96121089Y-90723337D01*
X96098689Y-90684539D01*
X96023723Y-90621634D01*
X96013413Y-90617881D01*
X95931765Y-90588164D01*
X95931763Y-90588164D01*
X95833901Y-90588164D01*
X95833898Y-90588164D01*
X95741943Y-90621633D01*
X95741940Y-90621634D01*
X95666975Y-90684538D01*
X95618045Y-90769285D01*
X95618044Y-90769286D01*
X95601051Y-90865664D01*
X72607428Y-90865664D01*
X72607428Y-88406664D01*
X77348894Y-88406664D01*
X77369141Y-88586363D01*
X77369142Y-88586367D01*
X77428869Y-88757060D01*
X77525080Y-88910179D01*
X77652956Y-89038055D01*
X77806075Y-89134266D01*
X77806077Y-89134267D01*
X77976769Y-89193994D01*
X78156472Y-89214242D01*
X78336175Y-89193994D01*
X78506867Y-89134267D01*
X78659989Y-89038054D01*
X78787862Y-88910181D01*
X78884075Y-88757059D01*
X78943802Y-88586367D01*
X78964050Y-88406664D01*
X78943802Y-88226961D01*
X78884075Y-88056269D01*
X78884074Y-88056267D01*
X78787863Y-87903148D01*
X78659987Y-87775272D01*
X78570599Y-87719106D01*
X79353972Y-87719106D01*
X79353972Y-89094221D01*
X79361370Y-89131412D01*
X79361370Y-89131413D01*
X79389549Y-89173586D01*
X79417729Y-89192414D01*
X79431724Y-89201766D01*
X79468914Y-89209164D01*
X79468915Y-89209164D01*
X80844029Y-89209164D01*
X80844030Y-89209164D01*
X80881220Y-89201766D01*
X80923394Y-89173586D01*
X80951574Y-89131412D01*
X80958972Y-89094222D01*
X80958972Y-88225583D01*
X100462552Y-88225583D01*
X100479545Y-88321960D01*
X100479546Y-88321961D01*
X100500034Y-88357446D01*
X100528476Y-88406708D01*
X100603442Y-88469613D01*
X100695402Y-88503083D01*
X100695405Y-88503083D01*
X100775761Y-88503083D01*
X100819955Y-88521389D01*
X100838261Y-88565583D01*
X100829887Y-88596833D01*
X100809401Y-88632314D01*
X100809399Y-88632318D01*
X100792406Y-88728696D01*
X100809399Y-88825073D01*
X100809400Y-88825074D01*
X100849792Y-88895033D01*
X100858330Y-88909821D01*
X100933296Y-88972726D01*
X100933297Y-88972726D01*
X100933298Y-88972727D01*
X100966406Y-88984776D01*
X101006766Y-88999466D01*
X101042035Y-89031783D01*
X101044122Y-89079572D01*
X101025566Y-89106074D01*
X100977050Y-89146783D01*
X100977050Y-89146784D01*
X100928120Y-89231531D01*
X100928119Y-89231532D01*
X100911126Y-89327910D01*
X100928119Y-89424287D01*
X100928120Y-89424288D01*
X100949469Y-89461264D01*
X100977050Y-89509035D01*
X101052016Y-89571940D01*
X101143976Y-89605410D01*
X101143979Y-89605410D01*
X101156359Y-89605410D01*
X101200553Y-89623716D01*
X101218859Y-89667910D01*
X101210485Y-89699161D01*
X101208893Y-89701917D01*
X101208893Y-89701918D01*
X101203022Y-89712086D01*
X101159963Y-89786664D01*
X101159962Y-89786665D01*
X101142969Y-89883043D01*
X101159962Y-89979420D01*
X101159963Y-89979421D01*
X101208893Y-90064168D01*
X101266680Y-90112658D01*
X101288767Y-90155088D01*
X101274382Y-90200710D01*
X101247882Y-90219266D01*
X101203893Y-90235277D01*
X101203891Y-90235277D01*
X101128926Y-90298181D01*
X101079996Y-90382928D01*
X101079995Y-90382929D01*
X101063002Y-90479307D01*
X101079995Y-90575684D01*
X101079996Y-90575685D01*
X101118956Y-90643163D01*
X101128926Y-90660432D01*
X101203892Y-90723337D01*
X101295852Y-90756807D01*
X101295855Y-90756807D01*
X101393711Y-90756807D01*
X101393714Y-90756807D01*
X101485674Y-90723337D01*
X101560640Y-90660432D01*
X101609571Y-90575682D01*
X101626564Y-90479307D01*
X101609571Y-90382932D01*
X101609570Y-90382930D01*
X101609570Y-90382929D01*
X101609569Y-90382928D01*
X101560639Y-90298181D01*
X101502852Y-90249691D01*
X101480765Y-90207261D01*
X101495150Y-90161639D01*
X101521650Y-90143083D01*
X101565641Y-90127073D01*
X101640607Y-90064168D01*
X101660742Y-90029293D01*
X103378630Y-90029293D01*
X103378630Y-90206634D01*
X103378631Y-90206650D01*
X103406372Y-90381797D01*
X103406372Y-90381798D01*
X103461175Y-90550465D01*
X103461176Y-90550468D01*
X103517205Y-90660430D01*
X103541690Y-90708484D01*
X103645931Y-90851960D01*
X103645934Y-90851963D01*
X103645937Y-90851967D01*
X103771326Y-90977356D01*
X103771329Y-90977358D01*
X103771334Y-90977363D01*
X103914810Y-91081604D01*
X104072827Y-91162118D01*
X104241494Y-91216921D01*
X104315320Y-91228613D01*
X104416643Y-91244662D01*
X104416649Y-91244662D01*
X104416657Y-91244664D01*
X104416659Y-91244664D01*
X105394001Y-91244664D01*
X105394003Y-91244664D01*
X105569166Y-91216921D01*
X105737833Y-91162118D01*
X105895850Y-91081604D01*
X106039326Y-90977363D01*
X106164729Y-90851960D01*
X106268970Y-90708484D01*
X106285438Y-90676164D01*
X122815141Y-90676164D01*
X122832134Y-90772541D01*
X122832135Y-90772542D01*
X122872527Y-90842501D01*
X122881065Y-90857289D01*
X122956031Y-90920194D01*
X123047991Y-90953664D01*
X123047994Y-90953664D01*
X123145850Y-90953664D01*
X123145853Y-90953664D01*
X123237813Y-90920194D01*
X123312779Y-90857289D01*
X123361710Y-90772539D01*
X123363190Y-90768473D01*
X123395504Y-90733203D01*
X123443294Y-90731113D01*
X123478564Y-90763427D01*
X123480654Y-90768473D01*
X123482133Y-90772539D01*
X123524508Y-90845932D01*
X123531065Y-90857289D01*
X123606031Y-90920194D01*
X123697991Y-90953664D01*
X123697994Y-90953664D01*
X123795850Y-90953664D01*
X123795853Y-90953664D01*
X123887813Y-90920194D01*
X123962779Y-90857289D01*
X124011710Y-90772539D01*
X124028703Y-90676164D01*
X124011710Y-90579789D01*
X124011709Y-90579787D01*
X124011709Y-90579786D01*
X124011708Y-90579785D01*
X123992656Y-90546787D01*
X123962779Y-90495039D01*
X123887813Y-90432134D01*
X123877503Y-90428381D01*
X123795855Y-90398664D01*
X123795853Y-90398664D01*
X123697991Y-90398664D01*
X123697988Y-90398664D01*
X123606033Y-90432133D01*
X123606030Y-90432134D01*
X123531065Y-90495038D01*
X123482135Y-90579785D01*
X123480654Y-90583856D01*
X123448338Y-90619125D01*
X123400548Y-90621214D01*
X123365279Y-90588898D01*
X123363190Y-90583856D01*
X123361710Y-90579791D01*
X123361710Y-90579789D01*
X123312779Y-90495039D01*
X123237813Y-90432134D01*
X123227503Y-90428381D01*
X123145855Y-90398664D01*
X123145853Y-90398664D01*
X123047991Y-90398664D01*
X123047988Y-90398664D01*
X122956033Y-90432133D01*
X122956030Y-90432134D01*
X122881065Y-90495038D01*
X122832135Y-90579785D01*
X122832134Y-90579786D01*
X122815141Y-90676164D01*
X106285438Y-90676164D01*
X106349484Y-90550467D01*
X106404287Y-90381800D01*
X106406843Y-90365664D01*
X124478549Y-90365664D01*
X124495542Y-90462041D01*
X124495543Y-90462042D01*
X124514595Y-90495040D01*
X124544473Y-90546789D01*
X124619439Y-90609694D01*
X124711399Y-90643164D01*
X124711402Y-90643164D01*
X124809258Y-90643164D01*
X124809261Y-90643164D01*
X124901221Y-90609694D01*
X124976187Y-90546789D01*
X125025118Y-90462039D01*
X125042111Y-90365664D01*
X125025118Y-90269289D01*
X125025117Y-90269287D01*
X125025117Y-90269286D01*
X125025116Y-90269285D01*
X124996237Y-90219266D01*
X124976187Y-90184539D01*
X124901221Y-90121634D01*
X124876559Y-90112658D01*
X124809263Y-90088164D01*
X124809261Y-90088164D01*
X124711399Y-90088164D01*
X124711396Y-90088164D01*
X124619441Y-90121633D01*
X124619438Y-90121634D01*
X124544473Y-90184538D01*
X124495543Y-90269285D01*
X124495542Y-90269286D01*
X124478549Y-90365664D01*
X106406843Y-90365664D01*
X106432030Y-90206637D01*
X106432030Y-90029291D01*
X106404287Y-89854128D01*
X106349484Y-89685461D01*
X106268970Y-89527444D01*
X106164729Y-89383968D01*
X106164724Y-89383963D01*
X106164722Y-89383960D01*
X106039333Y-89258571D01*
X106039329Y-89258568D01*
X106039326Y-89258565D01*
X105895850Y-89154324D01*
X105823693Y-89117558D01*
X105737834Y-89073810D01*
X105737831Y-89073809D01*
X105569164Y-89019006D01*
X105394016Y-88991265D01*
X105394004Y-88991264D01*
X105394003Y-88991264D01*
X104416657Y-88991264D01*
X104416655Y-88991264D01*
X104416643Y-88991265D01*
X104241496Y-89019006D01*
X104241495Y-89019006D01*
X104072828Y-89073809D01*
X104072825Y-89073810D01*
X103914809Y-89154324D01*
X103771326Y-89258571D01*
X103645937Y-89383960D01*
X103541690Y-89527443D01*
X103461176Y-89685459D01*
X103461175Y-89685462D01*
X103406372Y-89854129D01*
X103406372Y-89854130D01*
X103378631Y-90029277D01*
X103378630Y-90029293D01*
X101660742Y-90029293D01*
X101689538Y-89979418D01*
X101706531Y-89883043D01*
X101689538Y-89786668D01*
X101689537Y-89786666D01*
X101689537Y-89786665D01*
X101689536Y-89786664D01*
X101672463Y-89757093D01*
X101640607Y-89701918D01*
X101565641Y-89639013D01*
X101555331Y-89635260D01*
X101473683Y-89605543D01*
X101473681Y-89605543D01*
X101461298Y-89605543D01*
X101417104Y-89587237D01*
X101398798Y-89543043D01*
X101407172Y-89511792D01*
X101457693Y-89424288D01*
X101457694Y-89424287D01*
X101457694Y-89424286D01*
X101457695Y-89424285D01*
X101474688Y-89327910D01*
X101457695Y-89231535D01*
X101457694Y-89231533D01*
X101457694Y-89231532D01*
X101457693Y-89231531D01*
X101436020Y-89193993D01*
X101408764Y-89146785D01*
X101333798Y-89083880D01*
X101306128Y-89073809D01*
X101260327Y-89057139D01*
X101225059Y-89024822D01*
X101222972Y-88977032D01*
X101241527Y-88950531D01*
X101290044Y-88909821D01*
X101338975Y-88825071D01*
X101355968Y-88728696D01*
X101338975Y-88632321D01*
X101338974Y-88632319D01*
X101338974Y-88632318D01*
X101338973Y-88632317D01*
X101300443Y-88565583D01*
X101290044Y-88547571D01*
X101215078Y-88484666D01*
X101204768Y-88480913D01*
X101123120Y-88451196D01*
X101123118Y-88451196D01*
X101042759Y-88451196D01*
X100998565Y-88432890D01*
X100980259Y-88388696D01*
X100988633Y-88357446D01*
X101009118Y-88321964D01*
X101009120Y-88321960D01*
X101009120Y-88321959D01*
X101009121Y-88321958D01*
X101026114Y-88225583D01*
X101009121Y-88129208D01*
X101009120Y-88129206D01*
X101009120Y-88129205D01*
X101009119Y-88129204D01*
X100967008Y-88056267D01*
X100960190Y-88044458D01*
X100885224Y-87981553D01*
X100874914Y-87977800D01*
X100793266Y-87948083D01*
X100793264Y-87948083D01*
X100695402Y-87948083D01*
X100695399Y-87948083D01*
X100603444Y-87981552D01*
X100603441Y-87981553D01*
X100528476Y-88044457D01*
X100479546Y-88129204D01*
X100479545Y-88129205D01*
X100462552Y-88225583D01*
X80958972Y-88225583D01*
X80958972Y-87719106D01*
X80951574Y-87681916D01*
X80951573Y-87681914D01*
X80923394Y-87639741D01*
X80881220Y-87611562D01*
X80844030Y-87604164D01*
X79468914Y-87604164D01*
X79450319Y-87607863D01*
X79431723Y-87611562D01*
X79431722Y-87611562D01*
X79389549Y-87639741D01*
X79361370Y-87681914D01*
X79361370Y-87681915D01*
X79353972Y-87719106D01*
X78570599Y-87719106D01*
X78506868Y-87679061D01*
X78336175Y-87619334D01*
X78336171Y-87619333D01*
X78156472Y-87599086D01*
X77976772Y-87619333D01*
X77976768Y-87619334D01*
X77806075Y-87679061D01*
X77652956Y-87775272D01*
X77525080Y-87903148D01*
X77428869Y-88056267D01*
X77369142Y-88226960D01*
X77369141Y-88226964D01*
X77348894Y-88406664D01*
X72607428Y-88406664D01*
X72607428Y-86406664D01*
X77348894Y-86406664D01*
X77369141Y-86586365D01*
X77428869Y-86757060D01*
X77525080Y-86910179D01*
X77652956Y-87038055D01*
X77806075Y-87134266D01*
X77806077Y-87134267D01*
X77976769Y-87193994D01*
X78156472Y-87214242D01*
X78336175Y-87193994D01*
X78506867Y-87134267D01*
X78659989Y-87038054D01*
X78787862Y-86910181D01*
X78884075Y-86757059D01*
X78943802Y-86586367D01*
X78964050Y-86406664D01*
X79348894Y-86406664D01*
X79369141Y-86586365D01*
X79428869Y-86757060D01*
X79525080Y-86910179D01*
X79652956Y-87038055D01*
X79806075Y-87134266D01*
X79806077Y-87134267D01*
X79976769Y-87193994D01*
X80156472Y-87214242D01*
X80336175Y-87193994D01*
X80506867Y-87134267D01*
X80659989Y-87038054D01*
X80787862Y-86910181D01*
X80884075Y-86757059D01*
X80943802Y-86586367D01*
X80964050Y-86406664D01*
X80943802Y-86226961D01*
X80884075Y-86056269D01*
X80873879Y-86040042D01*
X80787863Y-85903148D01*
X80659987Y-85775272D01*
X80506868Y-85679061D01*
X80455969Y-85661251D01*
X93171948Y-85661251D01*
X93188941Y-85757628D01*
X93188942Y-85757629D01*
X93199130Y-85775274D01*
X93237872Y-85842376D01*
X93312838Y-85905281D01*
X93404798Y-85938751D01*
X93404801Y-85938751D01*
X93502657Y-85938751D01*
X93502660Y-85938751D01*
X93594620Y-85905281D01*
X93669586Y-85842376D01*
X93718517Y-85757626D01*
X93735510Y-85661251D01*
X93718517Y-85564876D01*
X93718516Y-85564874D01*
X93718516Y-85564873D01*
X93718515Y-85564872D01*
X93701442Y-85535301D01*
X93669586Y-85480126D01*
X93594620Y-85417221D01*
X93584310Y-85413468D01*
X93502662Y-85383751D01*
X93502660Y-85383751D01*
X93404798Y-85383751D01*
X93404795Y-85383751D01*
X93312840Y-85417220D01*
X93312837Y-85417221D01*
X93237872Y-85480125D01*
X93188942Y-85564872D01*
X93188941Y-85564873D01*
X93171948Y-85661251D01*
X80455969Y-85661251D01*
X80336175Y-85619334D01*
X80336171Y-85619333D01*
X80156472Y-85599086D01*
X79976772Y-85619333D01*
X79976768Y-85619334D01*
X79806075Y-85679061D01*
X79652956Y-85775272D01*
X79525080Y-85903148D01*
X79428869Y-86056267D01*
X79369142Y-86226960D01*
X79369141Y-86226964D01*
X79348894Y-86406664D01*
X78964050Y-86406664D01*
X78943802Y-86226961D01*
X78884075Y-86056269D01*
X78873879Y-86040042D01*
X78787863Y-85903148D01*
X78659987Y-85775272D01*
X78506868Y-85679061D01*
X78336175Y-85619334D01*
X78336171Y-85619333D01*
X78156472Y-85599086D01*
X77976772Y-85619333D01*
X77976768Y-85619334D01*
X77806075Y-85679061D01*
X77652956Y-85775272D01*
X77525080Y-85903148D01*
X77428869Y-86056267D01*
X77369142Y-86226960D01*
X77369141Y-86226964D01*
X77348894Y-86406664D01*
X72607428Y-86406664D01*
X72607428Y-84406664D01*
X77348894Y-84406664D01*
X77369141Y-84586363D01*
X77369142Y-84586367D01*
X77428869Y-84757060D01*
X77525080Y-84910179D01*
X77652956Y-85038055D01*
X77806075Y-85134266D01*
X77806077Y-85134267D01*
X77976769Y-85193994D01*
X78156472Y-85214242D01*
X78336175Y-85193994D01*
X78506867Y-85134267D01*
X78659989Y-85038054D01*
X78787862Y-84910181D01*
X78884075Y-84757059D01*
X78943802Y-84586367D01*
X78964050Y-84406664D01*
X79348894Y-84406664D01*
X79369141Y-84586363D01*
X79369142Y-84586367D01*
X79428869Y-84757060D01*
X79525080Y-84910179D01*
X79652956Y-85038055D01*
X79806075Y-85134266D01*
X79806077Y-85134267D01*
X79976769Y-85193994D01*
X80156472Y-85214242D01*
X80336175Y-85193994D01*
X80506867Y-85134267D01*
X80544751Y-85110463D01*
X103972030Y-85110463D01*
X103972030Y-86522076D01*
X103985982Y-86592221D01*
X103985982Y-86592222D01*
X103998926Y-86623469D01*
X104004289Y-86636417D01*
X104044023Y-86695883D01*
X106737411Y-89389271D01*
X106796877Y-89429005D01*
X106841071Y-89447311D01*
X106911218Y-89461264D01*
X113420330Y-89461264D01*
X113490477Y-89447311D01*
X113534671Y-89429005D01*
X113558894Y-89414360D01*
X115908549Y-89414360D01*
X115925542Y-89510737D01*
X115925543Y-89510738D01*
X115944195Y-89543043D01*
X115974473Y-89595485D01*
X116049439Y-89658390D01*
X116141399Y-89691860D01*
X116141402Y-89691860D01*
X116239258Y-89691860D01*
X116239261Y-89691860D01*
X116331221Y-89658390D01*
X116406187Y-89595485D01*
X116455118Y-89510735D01*
X116472111Y-89414360D01*
X116455118Y-89317985D01*
X116455117Y-89317983D01*
X116455117Y-89317982D01*
X116455116Y-89317981D01*
X116420811Y-89258565D01*
X116406187Y-89233235D01*
X116331221Y-89170330D01*
X116320911Y-89166577D01*
X116239263Y-89136860D01*
X116239261Y-89136860D01*
X116141399Y-89136860D01*
X116141396Y-89136860D01*
X116049441Y-89170329D01*
X116049438Y-89170330D01*
X115974473Y-89233234D01*
X115925543Y-89317981D01*
X115925542Y-89317982D01*
X115908549Y-89414360D01*
X113558894Y-89414360D01*
X113565546Y-89410338D01*
X113592976Y-89401517D01*
X113653098Y-89396786D01*
X113722514Y-89391324D01*
X113722516Y-89391323D01*
X113722522Y-89391323D01*
X113956313Y-89335195D01*
X114178445Y-89243185D01*
X114383448Y-89117558D01*
X114492028Y-89024822D01*
X114566272Y-88961412D01*
X114566278Y-88961406D01*
X114682717Y-88825073D01*
X114722424Y-88778582D01*
X114848051Y-88573579D01*
X114940061Y-88351447D01*
X114996189Y-88117656D01*
X115003026Y-88030780D01*
X118181022Y-88030780D01*
X118181022Y-88136547D01*
X118181023Y-88136555D01*
X118208395Y-88238710D01*
X118208399Y-88238719D01*
X118261279Y-88330309D01*
X118261286Y-88330318D01*
X118336067Y-88405099D01*
X118336076Y-88405106D01*
X118427666Y-88457986D01*
X118427669Y-88457987D01*
X118427672Y-88457989D01*
X118427673Y-88457989D01*
X118427675Y-88457990D01*
X118471053Y-88469613D01*
X118529837Y-88485364D01*
X118529838Y-88485364D01*
X118635606Y-88485364D01*
X118635607Y-88485364D01*
X118737772Y-88457989D01*
X118829371Y-88405104D01*
X118904162Y-88330313D01*
X118957047Y-88238714D01*
X118984422Y-88136549D01*
X118984422Y-88030779D01*
X118957047Y-87928614D01*
X118942344Y-87903148D01*
X118904164Y-87837018D01*
X118904157Y-87837009D01*
X118829376Y-87762228D01*
X118829367Y-87762221D01*
X118737777Y-87709341D01*
X118737768Y-87709337D01*
X118635613Y-87681965D01*
X118635608Y-87681964D01*
X118635607Y-87681964D01*
X118529837Y-87681964D01*
X118529836Y-87681964D01*
X118529830Y-87681965D01*
X118427675Y-87709337D01*
X118427666Y-87709341D01*
X118336076Y-87762221D01*
X118336067Y-87762228D01*
X118261286Y-87837009D01*
X118261279Y-87837018D01*
X118208399Y-87928608D01*
X118208395Y-87928617D01*
X118181023Y-88030772D01*
X118181022Y-88030780D01*
X115003026Y-88030780D01*
X115003027Y-88030772D01*
X115015053Y-87877968D01*
X115015053Y-87877959D01*
X114996190Y-87638283D01*
X114996189Y-87638281D01*
X114996189Y-87638272D01*
X114985480Y-87593664D01*
X116558549Y-87593664D01*
X116575542Y-87690041D01*
X116575543Y-87690042D01*
X116586686Y-87709341D01*
X116624473Y-87774789D01*
X116699439Y-87837694D01*
X116791399Y-87871164D01*
X116791402Y-87871164D01*
X116889258Y-87871164D01*
X116889261Y-87871164D01*
X116981221Y-87837694D01*
X117056187Y-87774789D01*
X117105118Y-87690039D01*
X117122111Y-87593664D01*
X117105118Y-87497289D01*
X117105117Y-87497287D01*
X117105117Y-87497286D01*
X117105116Y-87497285D01*
X117088043Y-87467714D01*
X117056187Y-87412539D01*
X116981221Y-87349634D01*
X116970911Y-87345881D01*
X116889263Y-87316164D01*
X116889261Y-87316164D01*
X116791399Y-87316164D01*
X116791396Y-87316164D01*
X116699441Y-87349633D01*
X116699438Y-87349634D01*
X116624473Y-87412538D01*
X116575543Y-87497285D01*
X116575542Y-87497286D01*
X116558549Y-87593664D01*
X114985480Y-87593664D01*
X114940061Y-87404481D01*
X114848051Y-87182349D01*
X114722424Y-86977346D01*
X114665060Y-86910181D01*
X114566278Y-86794521D01*
X114566272Y-86794515D01*
X114383451Y-86638372D01*
X114383445Y-86638368D01*
X114178449Y-86512745D01*
X114178446Y-86512744D01*
X114178445Y-86512743D01*
X113956313Y-86420733D01*
X113956307Y-86420731D01*
X113956306Y-86420731D01*
X113722519Y-86364604D01*
X113722515Y-86364603D01*
X113587292Y-86353961D01*
X113555155Y-86341995D01*
X113534671Y-86326922D01*
X113507995Y-86315873D01*
X113490477Y-86308617D01*
X113490473Y-86308616D01*
X113420330Y-86294664D01*
X110844444Y-86294664D01*
X110800250Y-86276358D01*
X110467556Y-85943664D01*
X118078549Y-85943664D01*
X118095542Y-86040041D01*
X118095543Y-86040042D01*
X118135935Y-86110001D01*
X118144473Y-86124789D01*
X118219439Y-86187694D01*
X118311399Y-86221164D01*
X118311402Y-86221164D01*
X118409258Y-86221164D01*
X118409261Y-86221164D01*
X118501221Y-86187694D01*
X118576187Y-86124789D01*
X118625118Y-86040039D01*
X118642111Y-85943664D01*
X118625118Y-85847289D01*
X118625117Y-85847287D01*
X118625117Y-85847286D01*
X118625116Y-85847285D01*
X118608043Y-85817714D01*
X118576187Y-85762539D01*
X118501221Y-85699634D01*
X118490911Y-85695881D01*
X118409263Y-85666164D01*
X118409261Y-85666164D01*
X118311399Y-85666164D01*
X118311396Y-85666164D01*
X118219441Y-85699633D01*
X118219438Y-85699634D01*
X118144473Y-85762538D01*
X118095543Y-85847285D01*
X118095542Y-85847286D01*
X118078549Y-85943664D01*
X110467556Y-85943664D01*
X109967556Y-85443664D01*
X118548549Y-85443664D01*
X118565542Y-85540041D01*
X118565543Y-85540042D01*
X118599633Y-85599086D01*
X118614473Y-85624789D01*
X118689439Y-85687694D01*
X118781399Y-85721164D01*
X118781402Y-85721164D01*
X118879258Y-85721164D01*
X118879261Y-85721164D01*
X118971221Y-85687694D01*
X119046187Y-85624789D01*
X119095118Y-85540039D01*
X119112111Y-85443664D01*
X119095118Y-85347289D01*
X119095117Y-85347287D01*
X119095117Y-85347286D01*
X119095116Y-85347285D01*
X119078043Y-85317714D01*
X119046187Y-85262539D01*
X118971221Y-85199634D01*
X118955722Y-85193993D01*
X118879263Y-85166164D01*
X118879261Y-85166164D01*
X118781399Y-85166164D01*
X118781396Y-85166164D01*
X118689441Y-85199633D01*
X118689438Y-85199634D01*
X118614473Y-85262538D01*
X118565543Y-85347285D01*
X118565542Y-85347286D01*
X118548549Y-85443664D01*
X109967556Y-85443664D01*
X109467556Y-84943664D01*
X118078549Y-84943664D01*
X118095542Y-85040041D01*
X118095543Y-85040042D01*
X118128175Y-85096561D01*
X118144473Y-85124789D01*
X118219439Y-85187694D01*
X118311399Y-85221164D01*
X118311402Y-85221164D01*
X118409258Y-85221164D01*
X118409261Y-85221164D01*
X118501221Y-85187694D01*
X118576187Y-85124789D01*
X118625118Y-85040039D01*
X118642111Y-84943664D01*
X118625118Y-84847289D01*
X118625117Y-84847287D01*
X118625117Y-84847286D01*
X118625116Y-84847285D01*
X118608043Y-84817714D01*
X118576187Y-84762539D01*
X118501221Y-84699634D01*
X118490911Y-84695881D01*
X118409263Y-84666164D01*
X118409261Y-84666164D01*
X118311399Y-84666164D01*
X118311396Y-84666164D01*
X118219441Y-84699633D01*
X118219438Y-84699634D01*
X118144473Y-84762538D01*
X118095543Y-84847285D01*
X118095542Y-84847286D01*
X118078549Y-84943664D01*
X109467556Y-84943664D01*
X109460548Y-84936656D01*
X109420922Y-84910179D01*
X109401083Y-84896923D01*
X109356889Y-84878617D01*
X109356887Y-84878616D01*
X109286742Y-84864664D01*
X104217830Y-84864664D01*
X104147686Y-84878616D01*
X104147684Y-84878616D01*
X104147683Y-84878617D01*
X104132951Y-84884719D01*
X104103483Y-84896925D01*
X104103479Y-84896927D01*
X104056288Y-84925457D01*
X104056283Y-84925461D01*
X104004289Y-84996122D01*
X103992744Y-85023992D01*
X103986098Y-85040041D01*
X103985982Y-85040320D01*
X103972030Y-85110463D01*
X80544751Y-85110463D01*
X80659989Y-85038054D01*
X80787862Y-84910181D01*
X80857336Y-84799614D01*
X94337774Y-84799614D01*
X94354767Y-84895991D01*
X94354768Y-84895992D01*
X94378246Y-84936656D01*
X94403698Y-84980739D01*
X94478664Y-85043644D01*
X94570624Y-85077114D01*
X94570627Y-85077114D01*
X94668483Y-85077114D01*
X94668486Y-85077114D01*
X94760446Y-85043644D01*
X94835412Y-84980739D01*
X94884343Y-84895989D01*
X94901336Y-84799614D01*
X95309324Y-84799614D01*
X95326317Y-84895991D01*
X95326318Y-84895992D01*
X95349796Y-84936656D01*
X95375248Y-84980739D01*
X95450214Y-85043644D01*
X95542174Y-85077114D01*
X95542177Y-85077114D01*
X95640033Y-85077114D01*
X95640036Y-85077114D01*
X95731996Y-85043644D01*
X95806962Y-84980739D01*
X95855893Y-84895989D01*
X95855893Y-84895984D01*
X95857762Y-84890853D01*
X95860277Y-84891768D01*
X95880931Y-84859326D01*
X95927629Y-84848957D01*
X95967981Y-84874646D01*
X95978346Y-84899657D01*
X95981128Y-84915434D01*
X95981130Y-84915440D01*
X95997426Y-84943664D01*
X96030060Y-85000187D01*
X96105026Y-85063092D01*
X96196986Y-85096562D01*
X96196989Y-85096562D01*
X96294845Y-85096562D01*
X96294848Y-85096562D01*
X96386808Y-85063092D01*
X96461774Y-85000187D01*
X96510705Y-84915437D01*
X96527698Y-84819062D01*
X96510705Y-84722687D01*
X96510704Y-84722685D01*
X96510704Y-84722684D01*
X96510703Y-84722683D01*
X96493630Y-84693112D01*
X96461774Y-84637937D01*
X96386808Y-84575032D01*
X96376498Y-84571279D01*
X96294850Y-84541562D01*
X96294848Y-84541562D01*
X96196986Y-84541562D01*
X96196983Y-84541562D01*
X96105028Y-84575031D01*
X96105025Y-84575032D01*
X96030060Y-84637936D01*
X95981130Y-84722683D01*
X95979260Y-84727823D01*
X95976752Y-84726910D01*
X95956056Y-84759373D01*
X95909351Y-84769711D01*
X95869016Y-84743995D01*
X95858675Y-84719017D01*
X95855893Y-84703239D01*
X95855892Y-84703237D01*
X95855891Y-84703235D01*
X95818190Y-84637937D01*
X95806962Y-84618489D01*
X95731996Y-84555584D01*
X95721686Y-84551831D01*
X95640038Y-84522114D01*
X95640036Y-84522114D01*
X95542174Y-84522114D01*
X95542171Y-84522114D01*
X95450216Y-84555583D01*
X95450213Y-84555584D01*
X95375248Y-84618488D01*
X95326318Y-84703235D01*
X95326317Y-84703236D01*
X95309324Y-84799614D01*
X94901336Y-84799614D01*
X94884343Y-84703239D01*
X94884342Y-84703237D01*
X94884342Y-84703236D01*
X94884341Y-84703235D01*
X94846640Y-84637937D01*
X94835412Y-84618489D01*
X94760446Y-84555584D01*
X94750136Y-84551831D01*
X94668488Y-84522114D01*
X94668486Y-84522114D01*
X94570624Y-84522114D01*
X94570621Y-84522114D01*
X94478666Y-84555583D01*
X94478663Y-84555584D01*
X94403698Y-84618488D01*
X94354768Y-84703235D01*
X94354767Y-84703236D01*
X94337774Y-84799614D01*
X80857336Y-84799614D01*
X80884075Y-84757059D01*
X80943802Y-84586367D01*
X80964050Y-84406664D01*
X80958304Y-84355664D01*
X86288549Y-84355664D01*
X86305542Y-84452041D01*
X86305543Y-84452042D01*
X86345935Y-84522001D01*
X86354473Y-84536789D01*
X86429439Y-84599694D01*
X86521399Y-84633164D01*
X86521402Y-84633164D01*
X86619258Y-84633164D01*
X86619261Y-84633164D01*
X86711221Y-84599694D01*
X86786187Y-84536789D01*
X86835118Y-84452039D01*
X86836595Y-84443664D01*
X118548549Y-84443664D01*
X118565542Y-84540041D01*
X118565543Y-84540042D01*
X118585745Y-84575031D01*
X118614473Y-84624789D01*
X118689439Y-84687694D01*
X118771089Y-84717411D01*
X118775494Y-84719015D01*
X118781399Y-84721164D01*
X118781402Y-84721164D01*
X118879258Y-84721164D01*
X118879261Y-84721164D01*
X118971221Y-84687694D01*
X119046187Y-84624789D01*
X119095118Y-84540039D01*
X119112111Y-84443664D01*
X119095118Y-84347289D01*
X119095117Y-84347287D01*
X119095117Y-84347286D01*
X119095116Y-84347285D01*
X119078043Y-84317714D01*
X119046187Y-84262539D01*
X118971221Y-84199634D01*
X118960911Y-84195881D01*
X118879263Y-84166164D01*
X118879261Y-84166164D01*
X118781399Y-84166164D01*
X118781396Y-84166164D01*
X118689441Y-84199633D01*
X118689438Y-84199634D01*
X118614473Y-84262538D01*
X118565543Y-84347285D01*
X118565542Y-84347286D01*
X118548549Y-84443664D01*
X86836595Y-84443664D01*
X86852111Y-84355664D01*
X86835118Y-84259289D01*
X86835117Y-84259287D01*
X86835117Y-84259286D01*
X86835116Y-84259285D01*
X86816453Y-84226960D01*
X86786187Y-84174539D01*
X86711221Y-84111634D01*
X86696464Y-84106263D01*
X86619263Y-84078164D01*
X86619261Y-84078164D01*
X86521399Y-84078164D01*
X86521396Y-84078164D01*
X86429441Y-84111633D01*
X86429438Y-84111634D01*
X86354473Y-84174538D01*
X86305543Y-84259285D01*
X86305542Y-84259286D01*
X86288549Y-84355664D01*
X80958304Y-84355664D01*
X80943802Y-84226961D01*
X80884075Y-84056269D01*
X80805119Y-83930611D01*
X80787863Y-83903148D01*
X80659987Y-83775272D01*
X80506868Y-83679061D01*
X80336175Y-83619334D01*
X80336171Y-83619333D01*
X80156472Y-83599086D01*
X79976772Y-83619333D01*
X79976768Y-83619334D01*
X79806075Y-83679061D01*
X79652956Y-83775272D01*
X79525080Y-83903148D01*
X79428869Y-84056267D01*
X79369142Y-84226960D01*
X79369141Y-84226964D01*
X79348894Y-84406664D01*
X78964050Y-84406664D01*
X78943802Y-84226961D01*
X78884075Y-84056269D01*
X78805119Y-83930611D01*
X78787863Y-83903148D01*
X78659987Y-83775272D01*
X78506868Y-83679061D01*
X78336175Y-83619334D01*
X78336171Y-83619333D01*
X78156472Y-83599086D01*
X77976772Y-83619333D01*
X77976768Y-83619334D01*
X77806075Y-83679061D01*
X77652956Y-83775272D01*
X77525080Y-83903148D01*
X77428869Y-84056267D01*
X77369142Y-84226960D01*
X77369141Y-84226964D01*
X77348894Y-84406664D01*
X72607428Y-84406664D01*
X72607428Y-82406664D01*
X77348894Y-82406664D01*
X77369141Y-82586363D01*
X77369142Y-82586367D01*
X77428869Y-82757060D01*
X77525080Y-82910179D01*
X77652956Y-83038055D01*
X77705649Y-83071164D01*
X77806077Y-83134267D01*
X77976769Y-83193994D01*
X78156472Y-83214242D01*
X78336175Y-83193994D01*
X78506867Y-83134267D01*
X78659989Y-83038054D01*
X78787862Y-82910181D01*
X78884075Y-82757059D01*
X78943802Y-82586367D01*
X78964050Y-82406664D01*
X79348894Y-82406664D01*
X79369141Y-82586363D01*
X79369142Y-82586367D01*
X79428869Y-82757060D01*
X79525080Y-82910179D01*
X79652956Y-83038055D01*
X79705649Y-83071164D01*
X79806077Y-83134267D01*
X79976769Y-83193994D01*
X80156472Y-83214242D01*
X80336175Y-83193994D01*
X80506867Y-83134267D01*
X80659989Y-83038054D01*
X80787862Y-82910181D01*
X80858373Y-82797964D01*
X104022996Y-82797964D01*
X104042277Y-82981414D01*
X104099275Y-83156836D01*
X104099277Y-83156840D01*
X104099278Y-83156842D01*
X104132418Y-83214242D01*
X104191506Y-83316585D01*
X104191505Y-83316585D01*
X104314929Y-83453663D01*
X104314932Y-83453665D01*
X104314933Y-83453666D01*
X104464163Y-83562088D01*
X104547262Y-83599086D01*
X104632662Y-83637109D01*
X104632664Y-83637109D01*
X104632674Y-83637114D01*
X104750107Y-83662074D01*
X104789079Y-83688484D01*
X104794023Y-83695883D01*
X105132411Y-84034271D01*
X105191877Y-84074005D01*
X105236071Y-84092311D01*
X105306218Y-84106264D01*
X110007830Y-84106264D01*
X110077977Y-84092311D01*
X110122171Y-84074005D01*
X110122176Y-84074002D01*
X110122180Y-84074000D01*
X110151512Y-84056267D01*
X110169374Y-84045469D01*
X110221371Y-83974805D01*
X110239677Y-83930611D01*
X110253630Y-83860464D01*
X110253630Y-82793664D01*
X116558549Y-82793664D01*
X116575542Y-82890041D01*
X116575543Y-82890042D01*
X116587171Y-82910181D01*
X116624473Y-82974789D01*
X116699439Y-83037694D01*
X116791399Y-83071164D01*
X116791402Y-83071164D01*
X116889258Y-83071164D01*
X116889261Y-83071164D01*
X116981221Y-83037694D01*
X117056187Y-82974789D01*
X117105118Y-82890039D01*
X117122111Y-82793664D01*
X117105118Y-82697289D01*
X117105117Y-82697287D01*
X117105117Y-82697286D01*
X117105116Y-82697285D01*
X117088043Y-82667714D01*
X117056187Y-82612539D01*
X116981221Y-82549634D01*
X116970911Y-82545881D01*
X116889263Y-82516164D01*
X116889261Y-82516164D01*
X116791399Y-82516164D01*
X116791396Y-82516164D01*
X116699441Y-82549633D01*
X116699438Y-82549634D01*
X116624473Y-82612538D01*
X116575543Y-82697285D01*
X116575542Y-82697286D01*
X116558549Y-82793664D01*
X110253630Y-82793664D01*
X110253630Y-82250780D01*
X118181022Y-82250780D01*
X118181022Y-82356547D01*
X118181023Y-82356555D01*
X118208395Y-82458710D01*
X118208399Y-82458719D01*
X118261279Y-82550309D01*
X118261286Y-82550318D01*
X118336067Y-82625099D01*
X118336076Y-82625106D01*
X118427666Y-82677986D01*
X118427669Y-82677987D01*
X118427672Y-82677989D01*
X118427673Y-82677989D01*
X118427675Y-82677990D01*
X118490194Y-82694741D01*
X118529837Y-82705364D01*
X118529838Y-82705364D01*
X118635606Y-82705364D01*
X118635607Y-82705364D01*
X118737772Y-82677989D01*
X118829371Y-82625104D01*
X118904162Y-82550313D01*
X118957047Y-82458714D01*
X118984422Y-82356549D01*
X118984422Y-82250779D01*
X118957047Y-82148614D01*
X118904162Y-82057015D01*
X118904160Y-82057013D01*
X118904157Y-82057009D01*
X118829376Y-81982228D01*
X118829367Y-81982221D01*
X118737777Y-81929341D01*
X118737768Y-81929337D01*
X118635613Y-81901965D01*
X118635608Y-81901964D01*
X118635607Y-81901964D01*
X118529837Y-81901964D01*
X118529836Y-81901964D01*
X118529830Y-81901965D01*
X118427675Y-81929337D01*
X118427666Y-81929341D01*
X118336076Y-81982221D01*
X118336067Y-81982228D01*
X118261286Y-82057009D01*
X118261279Y-82057018D01*
X118208399Y-82148608D01*
X118208395Y-82148617D01*
X118181023Y-82250772D01*
X118181022Y-82250780D01*
X110253630Y-82250780D01*
X110253630Y-81735464D01*
X110239677Y-81665317D01*
X110221371Y-81621123D01*
X110221369Y-81621120D01*
X110221368Y-81621117D01*
X110221366Y-81621113D01*
X110192836Y-81573922D01*
X110192835Y-81573920D01*
X110192833Y-81573918D01*
X110192832Y-81573917D01*
X110122171Y-81521923D01*
X110122169Y-81521922D01*
X110077977Y-81503617D01*
X110077973Y-81503616D01*
X110007830Y-81489664D01*
X105306218Y-81489664D01*
X105236072Y-81503616D01*
X105236071Y-81503616D01*
X105191879Y-81521922D01*
X105191875Y-81521924D01*
X105132411Y-81561656D01*
X104794025Y-81900042D01*
X104794021Y-81900047D01*
X104789076Y-81907447D01*
X104750108Y-81933852D01*
X104632677Y-81958813D01*
X104632662Y-81958818D01*
X104464164Y-82033839D01*
X104314929Y-82142264D01*
X104191506Y-82279342D01*
X104099275Y-82439091D01*
X104042277Y-82614513D01*
X104022996Y-82797964D01*
X80858373Y-82797964D01*
X80884075Y-82757059D01*
X80943802Y-82586367D01*
X80964050Y-82406664D01*
X80943802Y-82226961D01*
X80884075Y-82056269D01*
X80869982Y-82033840D01*
X80787863Y-81903148D01*
X80659987Y-81775272D01*
X80506868Y-81679061D01*
X80336175Y-81619334D01*
X80336171Y-81619333D01*
X80156472Y-81599086D01*
X79976772Y-81619333D01*
X79976768Y-81619334D01*
X79806075Y-81679061D01*
X79652956Y-81775272D01*
X79525080Y-81903148D01*
X79428869Y-82056267D01*
X79369142Y-82226960D01*
X79369141Y-82226964D01*
X79348894Y-82406664D01*
X78964050Y-82406664D01*
X78943802Y-82226961D01*
X78884075Y-82056269D01*
X78869982Y-82033840D01*
X78787863Y-81903148D01*
X78659987Y-81775272D01*
X78506868Y-81679061D01*
X78336175Y-81619334D01*
X78336171Y-81619333D01*
X78156472Y-81599086D01*
X77976772Y-81619333D01*
X77976768Y-81619334D01*
X77806075Y-81679061D01*
X77652956Y-81775272D01*
X77525080Y-81903148D01*
X77428869Y-82056267D01*
X77369142Y-82226960D01*
X77369141Y-82226964D01*
X77348894Y-82406664D01*
X72607428Y-82406664D01*
X72607428Y-80205664D01*
X108478549Y-80205664D01*
X108495542Y-80302041D01*
X108495543Y-80302042D01*
X108535935Y-80372001D01*
X108544473Y-80386789D01*
X108619439Y-80449694D01*
X108711399Y-80483164D01*
X108711402Y-80483164D01*
X108809258Y-80483164D01*
X108809261Y-80483164D01*
X108901221Y-80449694D01*
X108976187Y-80386789D01*
X109025118Y-80302039D01*
X109042111Y-80205664D01*
X109025118Y-80109289D01*
X109025117Y-80109287D01*
X109025117Y-80109286D01*
X109025116Y-80109285D01*
X109008043Y-80079714D01*
X108976187Y-80024539D01*
X108901221Y-79961634D01*
X108890911Y-79957881D01*
X108809263Y-79928164D01*
X108809261Y-79928164D01*
X108711399Y-79928164D01*
X108711396Y-79928164D01*
X108619441Y-79961633D01*
X108619438Y-79961634D01*
X108544473Y-80024538D01*
X108495543Y-80109285D01*
X108495542Y-80109286D01*
X108478549Y-80205664D01*
X72607428Y-80205664D01*
X72607428Y-79727064D01*
X110388549Y-79727064D01*
X110405542Y-79823441D01*
X110405543Y-79823442D01*
X110413639Y-79837464D01*
X110454473Y-79908189D01*
X110529439Y-79971094D01*
X110621399Y-80004564D01*
X110621402Y-80004564D01*
X110719258Y-80004564D01*
X110719261Y-80004564D01*
X110811221Y-79971094D01*
X110886187Y-79908189D01*
X110935118Y-79823439D01*
X110952111Y-79727064D01*
X111605941Y-79727064D01*
X111622934Y-79823441D01*
X111622935Y-79823442D01*
X111631031Y-79837464D01*
X111671865Y-79908189D01*
X111746831Y-79971094D01*
X111838791Y-80004564D01*
X111838794Y-80004564D01*
X111936650Y-80004564D01*
X111936653Y-80004564D01*
X112028613Y-79971094D01*
X112103579Y-79908189D01*
X112152510Y-79823439D01*
X112169503Y-79727064D01*
X112152510Y-79630689D01*
X112152509Y-79630687D01*
X112152509Y-79630686D01*
X112152508Y-79630685D01*
X112135435Y-79601114D01*
X112103579Y-79545939D01*
X112028613Y-79483034D01*
X112002910Y-79473679D01*
X111936655Y-79449564D01*
X111936653Y-79449564D01*
X111838791Y-79449564D01*
X111838788Y-79449564D01*
X111746833Y-79483033D01*
X111746830Y-79483034D01*
X111671865Y-79545938D01*
X111622935Y-79630685D01*
X111622934Y-79630686D01*
X111605941Y-79727064D01*
X110952111Y-79727064D01*
X110935118Y-79630689D01*
X110935117Y-79630687D01*
X110935117Y-79630686D01*
X110935116Y-79630685D01*
X110918043Y-79601114D01*
X110886187Y-79545939D01*
X110811221Y-79483034D01*
X110785518Y-79473679D01*
X110719263Y-79449564D01*
X110719261Y-79449564D01*
X110621399Y-79449564D01*
X110621396Y-79449564D01*
X110529441Y-79483033D01*
X110529438Y-79483034D01*
X110454473Y-79545938D01*
X110405543Y-79630685D01*
X110405542Y-79630686D01*
X110388549Y-79727064D01*
X72607428Y-79727064D01*
X72607428Y-78406664D01*
X79348894Y-78406664D01*
X79369141Y-78586363D01*
X79369142Y-78586367D01*
X79428869Y-78757060D01*
X79525080Y-78910179D01*
X79652956Y-79038055D01*
X79805528Y-79133922D01*
X79806077Y-79134267D01*
X79976769Y-79193994D01*
X80156472Y-79214242D01*
X80336175Y-79193994D01*
X80506867Y-79134267D01*
X80659989Y-79038054D01*
X80751878Y-78946165D01*
X108193440Y-78946165D01*
X108210433Y-79042542D01*
X108210434Y-79042543D01*
X108250826Y-79112502D01*
X108259364Y-79127290D01*
X108334330Y-79190195D01*
X108426290Y-79223665D01*
X108426293Y-79223665D01*
X108524149Y-79223665D01*
X108524152Y-79223665D01*
X108616112Y-79190195D01*
X108691078Y-79127290D01*
X108740009Y-79042540D01*
X108756685Y-78947964D01*
X113818430Y-78947964D01*
X113837975Y-79133922D01*
X113895752Y-79311743D01*
X113895754Y-79311747D01*
X113895755Y-79311749D01*
X113989245Y-79473679D01*
X114114360Y-79612633D01*
X114195214Y-79671376D01*
X114265625Y-79722534D01*
X114265627Y-79722535D01*
X114265630Y-79722537D01*
X114362137Y-79765504D01*
X114436433Y-79798584D01*
X114436437Y-79798585D01*
X114436445Y-79798589D01*
X114436448Y-79798589D01*
X114436449Y-79798590D01*
X114619340Y-79837464D01*
X114806320Y-79837464D01*
X114989210Y-79798590D01*
X114989209Y-79798590D01*
X114989215Y-79798589D01*
X115160030Y-79722537D01*
X115311300Y-79612633D01*
X115436415Y-79473679D01*
X115529905Y-79311749D01*
X115587685Y-79133920D01*
X115607230Y-78947964D01*
X115818430Y-78947964D01*
X115837975Y-79133922D01*
X115895752Y-79311743D01*
X115895754Y-79311747D01*
X115895755Y-79311749D01*
X115989245Y-79473679D01*
X116114360Y-79612633D01*
X116195214Y-79671376D01*
X116265625Y-79722534D01*
X116265627Y-79722535D01*
X116265630Y-79722537D01*
X116362137Y-79765504D01*
X116436433Y-79798584D01*
X116436437Y-79798585D01*
X116436445Y-79798589D01*
X116436448Y-79798589D01*
X116436449Y-79798590D01*
X116619340Y-79837464D01*
X116806320Y-79837464D01*
X116989210Y-79798590D01*
X116989209Y-79798590D01*
X116989215Y-79798589D01*
X117160030Y-79722537D01*
X117311300Y-79612633D01*
X117436415Y-79473679D01*
X117529905Y-79311749D01*
X117587685Y-79133920D01*
X117607230Y-78947964D01*
X117587685Y-78762008D01*
X117529905Y-78584179D01*
X117436415Y-78422249D01*
X117311300Y-78283295D01*
X117233763Y-78226961D01*
X117160034Y-78173393D01*
X117160028Y-78173390D01*
X116989226Y-78097343D01*
X116989210Y-78097337D01*
X116806320Y-78058464D01*
X116619340Y-78058464D01*
X116436449Y-78097337D01*
X116436433Y-78097343D01*
X116265631Y-78173390D01*
X116265625Y-78173393D01*
X116114361Y-78283294D01*
X116114359Y-78283295D01*
X115989244Y-78422250D01*
X115895752Y-78584184D01*
X115837975Y-78762005D01*
X115818430Y-78947964D01*
X115607230Y-78947964D01*
X115587685Y-78762008D01*
X115529905Y-78584179D01*
X115436415Y-78422249D01*
X115311300Y-78283295D01*
X115233763Y-78226961D01*
X115160034Y-78173393D01*
X115160028Y-78173390D01*
X114989226Y-78097343D01*
X114989210Y-78097337D01*
X114806320Y-78058464D01*
X114619340Y-78058464D01*
X114436449Y-78097337D01*
X114436433Y-78097343D01*
X114265631Y-78173390D01*
X114265625Y-78173393D01*
X114114361Y-78283294D01*
X114114359Y-78283295D01*
X113989244Y-78422250D01*
X113895752Y-78584184D01*
X113837975Y-78762005D01*
X113818430Y-78947964D01*
X108756685Y-78947964D01*
X108757002Y-78946165D01*
X108740009Y-78849790D01*
X108740008Y-78849788D01*
X108740008Y-78849787D01*
X108740007Y-78849786D01*
X108722934Y-78820215D01*
X108691078Y-78765040D01*
X108616112Y-78702135D01*
X108605802Y-78698382D01*
X108524154Y-78668665D01*
X108524152Y-78668665D01*
X108426290Y-78668665D01*
X108426287Y-78668665D01*
X108334332Y-78702134D01*
X108334329Y-78702135D01*
X108259364Y-78765039D01*
X108210434Y-78849786D01*
X108210433Y-78849787D01*
X108193440Y-78946165D01*
X80751878Y-78946165D01*
X80787862Y-78910181D01*
X80884075Y-78757059D01*
X80943802Y-78586367D01*
X80964050Y-78406664D01*
X80943802Y-78226961D01*
X80884075Y-78056269D01*
X80787862Y-77903147D01*
X80659989Y-77775274D01*
X80659987Y-77775272D01*
X80506868Y-77679061D01*
X80336175Y-77619334D01*
X80336171Y-77619333D01*
X80156472Y-77599086D01*
X79976772Y-77619333D01*
X79976768Y-77619334D01*
X79806075Y-77679061D01*
X79652956Y-77775272D01*
X79525080Y-77903148D01*
X79428869Y-78056267D01*
X79369142Y-78226960D01*
X79369141Y-78226964D01*
X79348894Y-78406664D01*
X72607428Y-78406664D01*
X72607428Y-77483665D01*
X113105940Y-77483665D01*
X113122933Y-77580042D01*
X113122934Y-77580043D01*
X113163326Y-77650002D01*
X113171864Y-77664790D01*
X113246830Y-77727695D01*
X113338790Y-77761165D01*
X113338793Y-77761165D01*
X113436649Y-77761165D01*
X113436652Y-77761165D01*
X113528612Y-77727695D01*
X113603578Y-77664790D01*
X113652509Y-77580040D01*
X113669502Y-77483665D01*
X113652509Y-77387290D01*
X113652508Y-77387288D01*
X113652508Y-77387287D01*
X113652507Y-77387286D01*
X113635434Y-77357715D01*
X113603578Y-77302540D01*
X113528612Y-77239635D01*
X113518302Y-77235882D01*
X113436654Y-77206165D01*
X113436652Y-77206165D01*
X113338790Y-77206165D01*
X113338787Y-77206165D01*
X113246832Y-77239634D01*
X113246829Y-77239635D01*
X113171864Y-77302539D01*
X113122934Y-77387286D01*
X113122933Y-77387287D01*
X113105940Y-77483665D01*
X72607428Y-77483665D01*
X72607428Y-76983665D01*
X106805941Y-76983665D01*
X106822934Y-77080042D01*
X106822935Y-77080043D01*
X106863327Y-77150002D01*
X106871865Y-77164790D01*
X106946831Y-77227695D01*
X107038791Y-77261165D01*
X107038794Y-77261165D01*
X107136650Y-77261165D01*
X107136653Y-77261165D01*
X107228613Y-77227695D01*
X107303579Y-77164790D01*
X107352510Y-77080040D01*
X107369503Y-76983665D01*
X107352510Y-76887290D01*
X107352509Y-76887288D01*
X107352509Y-76887287D01*
X107352508Y-76887286D01*
X107335435Y-76857715D01*
X107303579Y-76802540D01*
X107228613Y-76739635D01*
X107218303Y-76735882D01*
X107136655Y-76706165D01*
X107136653Y-76706165D01*
X107038791Y-76706165D01*
X107038788Y-76706165D01*
X106946833Y-76739634D01*
X106946830Y-76739635D01*
X106871865Y-76802539D01*
X106822935Y-76887286D01*
X106822934Y-76887287D01*
X106805941Y-76983665D01*
X72607428Y-76983665D01*
X72607428Y-76483665D01*
X105395941Y-76483665D01*
X105412934Y-76580042D01*
X105412935Y-76580043D01*
X105453327Y-76650002D01*
X105461865Y-76664790D01*
X105536831Y-76727695D01*
X105628791Y-76761165D01*
X105628794Y-76761165D01*
X105726650Y-76761165D01*
X105726653Y-76761165D01*
X105818613Y-76727695D01*
X105893579Y-76664790D01*
X105942510Y-76580040D01*
X105959503Y-76483665D01*
X105942510Y-76387290D01*
X105942509Y-76387288D01*
X105942509Y-76387287D01*
X105942508Y-76387286D01*
X105925435Y-76357715D01*
X105893579Y-76302540D01*
X105818613Y-76239635D01*
X105808303Y-76235882D01*
X105726655Y-76206165D01*
X105726653Y-76206165D01*
X105628791Y-76206165D01*
X105628788Y-76206165D01*
X105536833Y-76239634D01*
X105536830Y-76239635D01*
X105461865Y-76302539D01*
X105412935Y-76387286D01*
X105412934Y-76387287D01*
X105395941Y-76483665D01*
X72607428Y-76483665D01*
X72607428Y-76143664D01*
X104100549Y-76143664D01*
X104117542Y-76240041D01*
X104117543Y-76240042D01*
X104129739Y-76261165D01*
X104166473Y-76324789D01*
X104241439Y-76387694D01*
X104333399Y-76421164D01*
X104333402Y-76421164D01*
X104431258Y-76421164D01*
X104431261Y-76421164D01*
X104523221Y-76387694D01*
X104598187Y-76324789D01*
X104647118Y-76240039D01*
X104664111Y-76143664D01*
X104647118Y-76047289D01*
X104647117Y-76047287D01*
X104647117Y-76047286D01*
X104647116Y-76047285D01*
X104610384Y-75983665D01*
X113155941Y-75983665D01*
X113172934Y-76080042D01*
X113172935Y-76080043D01*
X113182363Y-76096372D01*
X113221865Y-76164790D01*
X113296831Y-76227695D01*
X113388791Y-76261165D01*
X113388794Y-76261165D01*
X113486650Y-76261165D01*
X113486653Y-76261165D01*
X113578613Y-76227695D01*
X113653579Y-76164790D01*
X113702510Y-76080040D01*
X113719503Y-75983665D01*
X113702510Y-75887290D01*
X113702509Y-75887288D01*
X113702509Y-75887287D01*
X113702508Y-75887286D01*
X113685435Y-75857715D01*
X113653579Y-75802540D01*
X113578613Y-75739635D01*
X113568303Y-75735882D01*
X113508638Y-75714166D01*
X114694623Y-75714166D01*
X114713329Y-75832274D01*
X114713329Y-75832275D01*
X114730597Y-75866164D01*
X114767618Y-75938821D01*
X114852174Y-76023377D01*
X114958721Y-76077666D01*
X115076829Y-76096372D01*
X115194937Y-76077666D01*
X115301484Y-76023377D01*
X115386040Y-75938821D01*
X115440329Y-75832274D01*
X115459035Y-75714166D01*
X115440329Y-75596058D01*
X115386040Y-75489511D01*
X115301484Y-75404955D01*
X115194937Y-75350666D01*
X115076829Y-75331960D01*
X114958720Y-75350666D01*
X114958719Y-75350666D01*
X114852173Y-75404955D01*
X114767618Y-75489510D01*
X114713329Y-75596056D01*
X114713329Y-75596057D01*
X114694623Y-75714166D01*
X113508638Y-75714166D01*
X113486655Y-75706165D01*
X113486653Y-75706165D01*
X113388791Y-75706165D01*
X113388788Y-75706165D01*
X113296833Y-75739634D01*
X113296830Y-75739635D01*
X113221865Y-75802539D01*
X113172935Y-75887286D01*
X113172934Y-75887287D01*
X113155941Y-75983665D01*
X104610384Y-75983665D01*
X104598187Y-75962539D01*
X104523221Y-75899634D01*
X104512911Y-75895881D01*
X104431263Y-75866164D01*
X104431261Y-75866164D01*
X104333399Y-75866164D01*
X104333396Y-75866164D01*
X104241441Y-75899633D01*
X104241438Y-75899634D01*
X104166473Y-75962538D01*
X104117543Y-76047285D01*
X104117542Y-76047286D01*
X104100549Y-76143664D01*
X72607428Y-76143664D01*
X72607428Y-75483665D01*
X106904721Y-75483665D01*
X106921714Y-75580042D01*
X106921715Y-75580043D01*
X106930962Y-75596058D01*
X106970645Y-75664790D01*
X107045611Y-75727695D01*
X107137571Y-75761165D01*
X107137574Y-75761165D01*
X107235430Y-75761165D01*
X107235433Y-75761165D01*
X107327393Y-75727695D01*
X107402359Y-75664790D01*
X107451290Y-75580040D01*
X107468283Y-75483665D01*
X107451290Y-75387290D01*
X107451289Y-75387288D01*
X107451289Y-75387287D01*
X107451288Y-75387286D01*
X107419345Y-75331960D01*
X107402359Y-75302540D01*
X107327393Y-75239635D01*
X107317083Y-75235882D01*
X107235435Y-75206165D01*
X107235433Y-75206165D01*
X107137571Y-75206165D01*
X107137568Y-75206165D01*
X107045613Y-75239634D01*
X107045610Y-75239635D01*
X106970645Y-75302539D01*
X106921715Y-75387286D01*
X106921714Y-75387287D01*
X106904721Y-75483665D01*
X72607428Y-75483665D01*
X72607428Y-74155664D01*
X86263549Y-74155664D01*
X86280542Y-74252041D01*
X86280543Y-74252042D01*
X86307461Y-74298664D01*
X86329473Y-74336789D01*
X86404439Y-74399694D01*
X86496399Y-74433164D01*
X86496402Y-74433164D01*
X86594258Y-74433164D01*
X86594261Y-74433164D01*
X86686221Y-74399694D01*
X86761187Y-74336789D01*
X86810118Y-74252039D01*
X86827111Y-74155664D01*
X87513549Y-74155664D01*
X87530542Y-74252041D01*
X87530543Y-74252042D01*
X87557461Y-74298664D01*
X87579473Y-74336789D01*
X87654439Y-74399694D01*
X87746399Y-74433164D01*
X87746402Y-74433164D01*
X87844258Y-74433164D01*
X87844261Y-74433164D01*
X87936221Y-74399694D01*
X88011187Y-74336789D01*
X88060118Y-74252039D01*
X88077111Y-74155664D01*
X97387549Y-74155664D01*
X97404542Y-74252041D01*
X97404543Y-74252042D01*
X97431461Y-74298664D01*
X97453473Y-74336789D01*
X97528439Y-74399694D01*
X97620399Y-74433164D01*
X97620402Y-74433164D01*
X97718258Y-74433164D01*
X97718261Y-74433164D01*
X97810221Y-74399694D01*
X97885187Y-74336789D01*
X97934118Y-74252039D01*
X97951111Y-74155664D01*
X98637549Y-74155664D01*
X98654542Y-74252041D01*
X98654543Y-74252042D01*
X98681461Y-74298664D01*
X98703473Y-74336789D01*
X98778439Y-74399694D01*
X98870399Y-74433164D01*
X98870402Y-74433164D01*
X98968258Y-74433164D01*
X98968261Y-74433164D01*
X99060221Y-74399694D01*
X99135187Y-74336789D01*
X99184118Y-74252039D01*
X99201111Y-74155664D01*
X99887549Y-74155664D01*
X99904542Y-74252041D01*
X99904543Y-74252042D01*
X99931461Y-74298664D01*
X99953473Y-74336789D01*
X100028439Y-74399694D01*
X100120399Y-74433164D01*
X100120402Y-74433164D01*
X100218258Y-74433164D01*
X100218261Y-74433164D01*
X100310221Y-74399694D01*
X100385187Y-74336789D01*
X100434118Y-74252039D01*
X100451111Y-74155664D01*
X100434118Y-74059289D01*
X100434117Y-74059287D01*
X100434117Y-74059286D01*
X100434116Y-74059285D01*
X100412107Y-74021165D01*
X108254341Y-74021165D01*
X108271334Y-74117542D01*
X108271335Y-74117543D01*
X108293345Y-74155664D01*
X108320265Y-74202290D01*
X108395231Y-74265195D01*
X108487191Y-74298665D01*
X108487194Y-74298665D01*
X108585050Y-74298665D01*
X108585053Y-74298665D01*
X108677013Y-74265195D01*
X108751979Y-74202290D01*
X108800910Y-74117540D01*
X108817903Y-74021165D01*
X111957541Y-74021165D01*
X111974534Y-74117542D01*
X111974535Y-74117543D01*
X111996545Y-74155664D01*
X112023465Y-74202290D01*
X112098431Y-74265195D01*
X112190391Y-74298665D01*
X112190394Y-74298665D01*
X112288250Y-74298665D01*
X112288253Y-74298665D01*
X112380213Y-74265195D01*
X112455179Y-74202290D01*
X112504110Y-74117540D01*
X112521103Y-74021165D01*
X112504110Y-73924790D01*
X112504109Y-73924788D01*
X112504109Y-73924787D01*
X112504108Y-73924786D01*
X112477190Y-73878164D01*
X112455179Y-73840040D01*
X112380213Y-73777135D01*
X112369903Y-73773382D01*
X112288255Y-73743665D01*
X112288253Y-73743665D01*
X112190391Y-73743665D01*
X112190388Y-73743665D01*
X112098433Y-73777134D01*
X112098430Y-73777135D01*
X112023465Y-73840039D01*
X111974535Y-73924786D01*
X111974534Y-73924787D01*
X111957541Y-74021165D01*
X108817903Y-74021165D01*
X108800910Y-73924790D01*
X108800909Y-73924788D01*
X108800909Y-73924787D01*
X108800908Y-73924786D01*
X108773990Y-73878164D01*
X108751979Y-73840040D01*
X108677013Y-73777135D01*
X108666703Y-73773382D01*
X108585055Y-73743665D01*
X108585053Y-73743665D01*
X108487191Y-73743665D01*
X108487188Y-73743665D01*
X108395233Y-73777134D01*
X108395230Y-73777135D01*
X108320265Y-73840039D01*
X108271335Y-73924786D01*
X108271334Y-73924787D01*
X108254341Y-74021165D01*
X100412107Y-74021165D01*
X100385187Y-73974539D01*
X100310221Y-73911634D01*
X100299911Y-73907881D01*
X100218263Y-73878164D01*
X100218261Y-73878164D01*
X100120399Y-73878164D01*
X100120396Y-73878164D01*
X100028441Y-73911633D01*
X100028438Y-73911634D01*
X99953473Y-73974538D01*
X99904543Y-74059285D01*
X99904542Y-74059286D01*
X99887549Y-74155664D01*
X99201111Y-74155664D01*
X99184118Y-74059289D01*
X99184117Y-74059287D01*
X99184117Y-74059286D01*
X99184116Y-74059285D01*
X99162107Y-74021165D01*
X99135187Y-73974539D01*
X99060221Y-73911634D01*
X99049911Y-73907881D01*
X98968263Y-73878164D01*
X98968261Y-73878164D01*
X98870399Y-73878164D01*
X98870396Y-73878164D01*
X98778441Y-73911633D01*
X98778438Y-73911634D01*
X98703473Y-73974538D01*
X98654543Y-74059285D01*
X98654542Y-74059286D01*
X98637549Y-74155664D01*
X97951111Y-74155664D01*
X97934118Y-74059289D01*
X97934117Y-74059287D01*
X97934117Y-74059286D01*
X97934116Y-74059285D01*
X97912107Y-74021165D01*
X97885187Y-73974539D01*
X97810221Y-73911634D01*
X97799911Y-73907881D01*
X97718263Y-73878164D01*
X97718261Y-73878164D01*
X97620399Y-73878164D01*
X97620396Y-73878164D01*
X97528441Y-73911633D01*
X97528438Y-73911634D01*
X97453473Y-73974538D01*
X97404543Y-74059285D01*
X97404542Y-74059286D01*
X97387549Y-74155664D01*
X88077111Y-74155664D01*
X88060118Y-74059289D01*
X88060117Y-74059287D01*
X88060117Y-74059286D01*
X88060116Y-74059285D01*
X88038107Y-74021165D01*
X88011187Y-73974539D01*
X87936221Y-73911634D01*
X87925911Y-73907881D01*
X87844263Y-73878164D01*
X87844261Y-73878164D01*
X87746399Y-73878164D01*
X87746396Y-73878164D01*
X87654441Y-73911633D01*
X87654438Y-73911634D01*
X87579473Y-73974538D01*
X87530543Y-74059285D01*
X87530542Y-74059286D01*
X87513549Y-74155664D01*
X86827111Y-74155664D01*
X86810118Y-74059289D01*
X86810117Y-74059287D01*
X86810117Y-74059286D01*
X86810116Y-74059285D01*
X86788107Y-74021165D01*
X86761187Y-73974539D01*
X86686221Y-73911634D01*
X86675911Y-73907881D01*
X86594263Y-73878164D01*
X86594261Y-73878164D01*
X86496399Y-73878164D01*
X86496396Y-73878164D01*
X86404441Y-73911633D01*
X86404438Y-73911634D01*
X86329473Y-73974538D01*
X86280543Y-74059285D01*
X86280542Y-74059286D01*
X86263549Y-74155664D01*
X72607428Y-74155664D01*
X72607428Y-70005664D01*
X113794549Y-70005664D01*
X113811542Y-70102041D01*
X113811543Y-70102042D01*
X113851935Y-70172001D01*
X113860473Y-70186789D01*
X113935439Y-70249694D01*
X114027399Y-70283164D01*
X114027402Y-70283164D01*
X114125258Y-70283164D01*
X114125261Y-70283164D01*
X114217221Y-70249694D01*
X114292187Y-70186789D01*
X114341118Y-70102039D01*
X114358111Y-70005664D01*
X114341118Y-69909289D01*
X114341117Y-69909287D01*
X114341117Y-69909286D01*
X114341116Y-69909285D01*
X114315475Y-69864874D01*
X114292187Y-69824539D01*
X114269693Y-69805664D01*
X115794549Y-69805664D01*
X115811542Y-69902041D01*
X115811543Y-69902042D01*
X115832229Y-69937870D01*
X115860473Y-69986789D01*
X115935439Y-70049694D01*
X116027399Y-70083164D01*
X116027402Y-70083164D01*
X116125258Y-70083164D01*
X116125261Y-70083164D01*
X116217221Y-70049694D01*
X116292187Y-69986789D01*
X116341118Y-69902039D01*
X116358111Y-69805664D01*
X117794549Y-69805664D01*
X117811542Y-69902041D01*
X117811543Y-69902042D01*
X117832229Y-69937870D01*
X117860473Y-69986789D01*
X117935439Y-70049694D01*
X118027399Y-70083164D01*
X118027402Y-70083164D01*
X118125258Y-70083164D01*
X118125261Y-70083164D01*
X118217221Y-70049694D01*
X118292187Y-69986789D01*
X118341118Y-69902039D01*
X118358111Y-69805664D01*
X119794549Y-69805664D01*
X119811542Y-69902041D01*
X119811543Y-69902042D01*
X119832229Y-69937870D01*
X119860473Y-69986789D01*
X119935439Y-70049694D01*
X120027399Y-70083164D01*
X120027402Y-70083164D01*
X120125258Y-70083164D01*
X120125261Y-70083164D01*
X120217221Y-70049694D01*
X120292187Y-69986789D01*
X120341118Y-69902039D01*
X120358111Y-69805664D01*
X120341118Y-69709289D01*
X120341117Y-69709287D01*
X120341117Y-69709286D01*
X120341116Y-69709285D01*
X120320612Y-69673772D01*
X120292187Y-69624539D01*
X120217221Y-69561634D01*
X120200818Y-69555664D01*
X120125263Y-69528164D01*
X120125261Y-69528164D01*
X120027399Y-69528164D01*
X120027396Y-69528164D01*
X119935441Y-69561633D01*
X119935438Y-69561634D01*
X119860473Y-69624538D01*
X119811543Y-69709285D01*
X119811542Y-69709286D01*
X119794549Y-69805664D01*
X118358111Y-69805664D01*
X118341118Y-69709289D01*
X118341117Y-69709287D01*
X118341117Y-69709286D01*
X118341116Y-69709285D01*
X118320612Y-69673772D01*
X118292187Y-69624539D01*
X118217221Y-69561634D01*
X118200818Y-69555664D01*
X118125263Y-69528164D01*
X118125261Y-69528164D01*
X118027399Y-69528164D01*
X118027396Y-69528164D01*
X117935441Y-69561633D01*
X117935438Y-69561634D01*
X117860473Y-69624538D01*
X117811543Y-69709285D01*
X117811542Y-69709286D01*
X117794549Y-69805664D01*
X116358111Y-69805664D01*
X116341118Y-69709289D01*
X116341117Y-69709287D01*
X116341117Y-69709286D01*
X116341116Y-69709285D01*
X116320612Y-69673772D01*
X116292187Y-69624539D01*
X116217221Y-69561634D01*
X116200818Y-69555664D01*
X116125263Y-69528164D01*
X116125261Y-69528164D01*
X116027399Y-69528164D01*
X116027396Y-69528164D01*
X115935441Y-69561633D01*
X115935438Y-69561634D01*
X115860473Y-69624538D01*
X115811543Y-69709285D01*
X115811542Y-69709286D01*
X115794549Y-69805664D01*
X114269693Y-69805664D01*
X114217221Y-69761634D01*
X114206911Y-69757881D01*
X114125263Y-69728164D01*
X114125261Y-69728164D01*
X114027399Y-69728164D01*
X114027396Y-69728164D01*
X113935441Y-69761633D01*
X113935438Y-69761634D01*
X113860473Y-69824538D01*
X113811543Y-69909285D01*
X113811542Y-69909286D01*
X113794549Y-70005664D01*
X72607428Y-70005664D01*
X72607428Y-69555664D01*
X84913124Y-69555664D01*
X84931830Y-69673772D01*
X84931830Y-69673773D01*
X84949925Y-69709285D01*
X84986119Y-69780319D01*
X85070675Y-69864875D01*
X85177222Y-69919164D01*
X85295330Y-69937870D01*
X85413438Y-69919164D01*
X85519985Y-69864875D01*
X85604541Y-69780319D01*
X85658830Y-69673772D01*
X85677536Y-69555664D01*
X85658830Y-69437556D01*
X85604541Y-69331009D01*
X85519985Y-69246453D01*
X85413438Y-69192164D01*
X85295330Y-69173458D01*
X85177221Y-69192164D01*
X85177220Y-69192164D01*
X85070674Y-69246453D01*
X84986119Y-69331008D01*
X84931830Y-69437554D01*
X84931830Y-69437555D01*
X84913124Y-69555664D01*
X72607428Y-69555664D01*
X72607428Y-69074995D01*
X72607621Y-69070089D01*
X72616859Y-68952769D01*
X72622728Y-68878237D01*
X72624261Y-68868562D01*
X72668620Y-68683815D01*
X72671642Y-68674513D01*
X72744355Y-68498979D01*
X72748804Y-68490250D01*
X72848069Y-68328264D01*
X72853832Y-68320333D01*
X72898487Y-68268048D01*
X72977224Y-68175857D01*
X72984136Y-68168945D01*
X73128609Y-68045549D01*
X73136536Y-68039790D01*
X73298528Y-67940514D01*
X73307258Y-67936066D01*
X73482781Y-67863353D01*
X73492090Y-67860328D01*
X73676825Y-67815967D01*
X73686510Y-67814433D01*
X73877901Y-67799357D01*
X73882809Y-67799164D01*
X123930592Y-67799164D01*
X123935498Y-67799357D01*
G37*
%TD.AperFunction*%
%TD*%
M02*
