%TF.GenerationSoftware,KiCad,Pcbnew,8.0.3*%
%TF.CreationDate,2024-06-25T22:30:56+08:00*%
%TF.ProjectId,SB-main-board,53422d6d-6169-46e2-9d62-6f6172642e6b,A0*%
%TF.SameCoordinates,Original*%
%TF.FileFunction,Legend,Bot*%
%TF.FilePolarity,Positive*%
%FSLAX46Y46*%
G04 Gerber Fmt 4.6, Leading zero omitted, Abs format (unit mm)*
G04 Created by KiCad (PCBNEW 8.0.3) date 2024-06-25 22:30:56*
%MOMM*%
%LPD*%
G01*
G04 APERTURE LIST*
%ADD10C,0.100000*%
%ADD11C,0.150000*%
%ADD12C,0.076200*%
%ADD13C,0.120000*%
%ADD14C,0.010000*%
G04 APERTURE END LIST*
D10*
X118987722Y-82693664D02*
X123987722Y-82693664D01*
X123987722Y-87693664D01*
X118987722Y-87693664D01*
X118987722Y-82693664D01*
G36*
X118987722Y-82693664D02*
G01*
X123987722Y-82693664D01*
X123987722Y-87693664D01*
X118987722Y-87693664D01*
X118987722Y-82693664D01*
G37*
D11*
X123649332Y-92221464D02*
X123141330Y-92221464D01*
X123395331Y-91967464D01*
X123649332Y-92221464D01*
G36*
X123649332Y-92221464D02*
G01*
X123141330Y-92221464D01*
X123395331Y-91967464D01*
X123649332Y-92221464D01*
G37*
D12*
X99249330Y-90011664D02*
X100011330Y-90011664D01*
X100011330Y-91383264D01*
X99249330Y-91383264D01*
X99249330Y-90011664D01*
D11*
X100457930Y-90951465D02*
X100203930Y-90697464D01*
X100457930Y-90443463D01*
X100457930Y-90951465D01*
G36*
X100457930Y-90951465D02*
G01*
X100203930Y-90697464D01*
X100457930Y-90443463D01*
X100457930Y-90951465D01*
G37*
X121718930Y-74492264D02*
X121464930Y-74238264D01*
X121718930Y-73984264D01*
X121718930Y-74492264D01*
G36*
X121718930Y-74492264D02*
G01*
X121464930Y-74238264D01*
X121718930Y-73984264D01*
X121718930Y-74492264D01*
G37*
X99870330Y-86134379D02*
X99616329Y-85880379D01*
X100124331Y-85880379D01*
X99870330Y-86134379D01*
G36*
X99870330Y-86134379D02*
G01*
X99616329Y-85880379D01*
X100124331Y-85880379D01*
X99870330Y-86134379D01*
G37*
D10*
X125252474Y-92371835D02*
X124909617Y-92371835D01*
X125081045Y-92971835D02*
X125081045Y-92371835D01*
X124481045Y-92943264D02*
X124538188Y-92971835D01*
X124538188Y-92971835D02*
X124652474Y-92971835D01*
X124652474Y-92971835D02*
X124709616Y-92943264D01*
X124709616Y-92943264D02*
X124738188Y-92886121D01*
X124738188Y-92886121D02*
X124738188Y-92657549D01*
X124738188Y-92657549D02*
X124709616Y-92600406D01*
X124709616Y-92600406D02*
X124652474Y-92571835D01*
X124652474Y-92571835D02*
X124538188Y-92571835D01*
X124538188Y-92571835D02*
X124481045Y-92600406D01*
X124481045Y-92600406D02*
X124452474Y-92657549D01*
X124452474Y-92657549D02*
X124452474Y-92714692D01*
X124452474Y-92714692D02*
X124738188Y-92771835D01*
X124195330Y-92971835D02*
X124195330Y-92571835D01*
X124195330Y-92686121D02*
X124166759Y-92628978D01*
X124166759Y-92628978D02*
X124138188Y-92600406D01*
X124138188Y-92600406D02*
X124081045Y-92571835D01*
X124081045Y-92571835D02*
X124023902Y-92571835D01*
X123823901Y-92971835D02*
X123823901Y-92571835D01*
X123823901Y-92628978D02*
X123795330Y-92600406D01*
X123795330Y-92600406D02*
X123738187Y-92571835D01*
X123738187Y-92571835D02*
X123652473Y-92571835D01*
X123652473Y-92571835D02*
X123595330Y-92600406D01*
X123595330Y-92600406D02*
X123566759Y-92657549D01*
X123566759Y-92657549D02*
X123566759Y-92971835D01*
X123566759Y-92657549D02*
X123538187Y-92600406D01*
X123538187Y-92600406D02*
X123481044Y-92571835D01*
X123481044Y-92571835D02*
X123395330Y-92571835D01*
X123395330Y-92571835D02*
X123338187Y-92600406D01*
X123338187Y-92600406D02*
X123309616Y-92657549D01*
X123309616Y-92657549D02*
X123309616Y-92971835D01*
X123023901Y-92971835D02*
X123023901Y-92571835D01*
X123023901Y-92371835D02*
X123052473Y-92400406D01*
X123052473Y-92400406D02*
X123023901Y-92428978D01*
X123023901Y-92428978D02*
X122995330Y-92400406D01*
X122995330Y-92400406D02*
X123023901Y-92371835D01*
X123023901Y-92371835D02*
X123023901Y-92428978D01*
X122738187Y-92571835D02*
X122738187Y-92971835D01*
X122738187Y-92628978D02*
X122709616Y-92600406D01*
X122709616Y-92600406D02*
X122652473Y-92571835D01*
X122652473Y-92571835D02*
X122566759Y-92571835D01*
X122566759Y-92571835D02*
X122509616Y-92600406D01*
X122509616Y-92600406D02*
X122481045Y-92657549D01*
X122481045Y-92657549D02*
X122481045Y-92971835D01*
X121938188Y-92971835D02*
X121938188Y-92657549D01*
X121938188Y-92657549D02*
X121966759Y-92600406D01*
X121966759Y-92600406D02*
X122023902Y-92571835D01*
X122023902Y-92571835D02*
X122138188Y-92571835D01*
X122138188Y-92571835D02*
X122195330Y-92600406D01*
X121938188Y-92943264D02*
X121995330Y-92971835D01*
X121995330Y-92971835D02*
X122138188Y-92971835D01*
X122138188Y-92971835D02*
X122195330Y-92943264D01*
X122195330Y-92943264D02*
X122223902Y-92886121D01*
X122223902Y-92886121D02*
X122223902Y-92828978D01*
X122223902Y-92828978D02*
X122195330Y-92771835D01*
X122195330Y-92771835D02*
X122138188Y-92743264D01*
X122138188Y-92743264D02*
X121995330Y-92743264D01*
X121995330Y-92743264D02*
X121938188Y-92714692D01*
X121566759Y-92971835D02*
X121623902Y-92943264D01*
X121623902Y-92943264D02*
X121652473Y-92886121D01*
X121652473Y-92886121D02*
X121652473Y-92371835D01*
X124723901Y-93937801D02*
X124923901Y-93652087D01*
X125066758Y-93937801D02*
X125066758Y-93337801D01*
X125066758Y-93337801D02*
X124838187Y-93337801D01*
X124838187Y-93337801D02*
X124781044Y-93366372D01*
X124781044Y-93366372D02*
X124752473Y-93394944D01*
X124752473Y-93394944D02*
X124723901Y-93452087D01*
X124723901Y-93452087D02*
X124723901Y-93537801D01*
X124723901Y-93537801D02*
X124752473Y-93594944D01*
X124752473Y-93594944D02*
X124781044Y-93623515D01*
X124781044Y-93623515D02*
X124838187Y-93652087D01*
X124838187Y-93652087D02*
X125066758Y-93652087D01*
X124238187Y-93909230D02*
X124295330Y-93937801D01*
X124295330Y-93937801D02*
X124409616Y-93937801D01*
X124409616Y-93937801D02*
X124466758Y-93909230D01*
X124466758Y-93909230D02*
X124495330Y-93852087D01*
X124495330Y-93852087D02*
X124495330Y-93623515D01*
X124495330Y-93623515D02*
X124466758Y-93566372D01*
X124466758Y-93566372D02*
X124409616Y-93537801D01*
X124409616Y-93537801D02*
X124295330Y-93537801D01*
X124295330Y-93537801D02*
X124238187Y-93566372D01*
X124238187Y-93566372D02*
X124209616Y-93623515D01*
X124209616Y-93623515D02*
X124209616Y-93680658D01*
X124209616Y-93680658D02*
X124495330Y-93737801D01*
X123981044Y-93909230D02*
X123923901Y-93937801D01*
X123923901Y-93937801D02*
X123809615Y-93937801D01*
X123809615Y-93937801D02*
X123752472Y-93909230D01*
X123752472Y-93909230D02*
X123723901Y-93852087D01*
X123723901Y-93852087D02*
X123723901Y-93823515D01*
X123723901Y-93823515D02*
X123752472Y-93766372D01*
X123752472Y-93766372D02*
X123809615Y-93737801D01*
X123809615Y-93737801D02*
X123895330Y-93737801D01*
X123895330Y-93737801D02*
X123952472Y-93709230D01*
X123952472Y-93709230D02*
X123981044Y-93652087D01*
X123981044Y-93652087D02*
X123981044Y-93623515D01*
X123981044Y-93623515D02*
X123952472Y-93566372D01*
X123952472Y-93566372D02*
X123895330Y-93537801D01*
X123895330Y-93537801D02*
X123809615Y-93537801D01*
X123809615Y-93537801D02*
X123752472Y-93566372D01*
X123466758Y-93937801D02*
X123466758Y-93537801D01*
X123466758Y-93337801D02*
X123495330Y-93366372D01*
X123495330Y-93366372D02*
X123466758Y-93394944D01*
X123466758Y-93394944D02*
X123438187Y-93366372D01*
X123438187Y-93366372D02*
X123466758Y-93337801D01*
X123466758Y-93337801D02*
X123466758Y-93394944D01*
X123209616Y-93909230D02*
X123152473Y-93937801D01*
X123152473Y-93937801D02*
X123038187Y-93937801D01*
X123038187Y-93937801D02*
X122981044Y-93909230D01*
X122981044Y-93909230D02*
X122952473Y-93852087D01*
X122952473Y-93852087D02*
X122952473Y-93823515D01*
X122952473Y-93823515D02*
X122981044Y-93766372D01*
X122981044Y-93766372D02*
X123038187Y-93737801D01*
X123038187Y-93737801D02*
X123123902Y-93737801D01*
X123123902Y-93737801D02*
X123181044Y-93709230D01*
X123181044Y-93709230D02*
X123209616Y-93652087D01*
X123209616Y-93652087D02*
X123209616Y-93623515D01*
X123209616Y-93623515D02*
X123181044Y-93566372D01*
X123181044Y-93566372D02*
X123123902Y-93537801D01*
X123123902Y-93537801D02*
X123038187Y-93537801D01*
X123038187Y-93537801D02*
X122981044Y-93566372D01*
X122781045Y-93537801D02*
X122552473Y-93537801D01*
X122695330Y-93337801D02*
X122695330Y-93852087D01*
X122695330Y-93852087D02*
X122666759Y-93909230D01*
X122666759Y-93909230D02*
X122609616Y-93937801D01*
X122609616Y-93937801D02*
X122552473Y-93937801D01*
X122266759Y-93937801D02*
X122323902Y-93909230D01*
X122323902Y-93909230D02*
X122352473Y-93880658D01*
X122352473Y-93880658D02*
X122381045Y-93823515D01*
X122381045Y-93823515D02*
X122381045Y-93652087D01*
X122381045Y-93652087D02*
X122352473Y-93594944D01*
X122352473Y-93594944D02*
X122323902Y-93566372D01*
X122323902Y-93566372D02*
X122266759Y-93537801D01*
X122266759Y-93537801D02*
X122181045Y-93537801D01*
X122181045Y-93537801D02*
X122123902Y-93566372D01*
X122123902Y-93566372D02*
X122095331Y-93594944D01*
X122095331Y-93594944D02*
X122066759Y-93652087D01*
X122066759Y-93652087D02*
X122066759Y-93823515D01*
X122066759Y-93823515D02*
X122095331Y-93880658D01*
X122095331Y-93880658D02*
X122123902Y-93909230D01*
X122123902Y-93909230D02*
X122181045Y-93937801D01*
X122181045Y-93937801D02*
X122266759Y-93937801D01*
X121809616Y-93937801D02*
X121809616Y-93537801D01*
X121809616Y-93652087D02*
X121781045Y-93594944D01*
X121781045Y-93594944D02*
X121752474Y-93566372D01*
X121752474Y-93566372D02*
X121695331Y-93537801D01*
X121695331Y-93537801D02*
X121638188Y-93537801D01*
X123916862Y-74482064D02*
X123831148Y-74510635D01*
X123831148Y-74510635D02*
X123688290Y-74510635D01*
X123688290Y-74510635D02*
X123631148Y-74482064D01*
X123631148Y-74482064D02*
X123602576Y-74453492D01*
X123602576Y-74453492D02*
X123574005Y-74396349D01*
X123574005Y-74396349D02*
X123574005Y-74339206D01*
X123574005Y-74339206D02*
X123602576Y-74282064D01*
X123602576Y-74282064D02*
X123631148Y-74253492D01*
X123631148Y-74253492D02*
X123688290Y-74224921D01*
X123688290Y-74224921D02*
X123802576Y-74196349D01*
X123802576Y-74196349D02*
X123859719Y-74167778D01*
X123859719Y-74167778D02*
X123888290Y-74139206D01*
X123888290Y-74139206D02*
X123916862Y-74082064D01*
X123916862Y-74082064D02*
X123916862Y-74024921D01*
X123916862Y-74024921D02*
X123888290Y-73967778D01*
X123888290Y-73967778D02*
X123859719Y-73939206D01*
X123859719Y-73939206D02*
X123802576Y-73910635D01*
X123802576Y-73910635D02*
X123659719Y-73910635D01*
X123659719Y-73910635D02*
X123574005Y-73939206D01*
X123402576Y-73910635D02*
X123059719Y-73910635D01*
X123231147Y-74510635D02*
X123231147Y-73910635D01*
X122859718Y-74196349D02*
X122659718Y-74196349D01*
X122574004Y-74510635D02*
X122859718Y-74510635D01*
X122859718Y-74510635D02*
X122859718Y-73910635D01*
X122859718Y-73910635D02*
X122574004Y-73910635D01*
X122316861Y-74510635D02*
X122316861Y-73910635D01*
X122316861Y-73910635D02*
X122088290Y-73910635D01*
X122088290Y-73910635D02*
X122031147Y-73939206D01*
X122031147Y-73939206D02*
X122002576Y-73967778D01*
X122002576Y-73967778D02*
X121974004Y-74024921D01*
X121974004Y-74024921D02*
X121974004Y-74110635D01*
X121974004Y-74110635D02*
X122002576Y-74167778D01*
X122002576Y-74167778D02*
X122031147Y-74196349D01*
X122031147Y-74196349D02*
X122088290Y-74224921D01*
X122088290Y-74224921D02*
X122316861Y-74224921D01*
X101507862Y-90569835D02*
X101507862Y-90969835D01*
X101650719Y-90341264D02*
X101793576Y-90769835D01*
X101793576Y-90769835D02*
X101422147Y-90769835D01*
X101250718Y-90369835D02*
X101107861Y-90969835D01*
X101107861Y-90969835D02*
X100993575Y-90541264D01*
X100993575Y-90541264D02*
X100879290Y-90969835D01*
X100879290Y-90969835D02*
X100736433Y-90369835D01*
X100213186Y-85674750D02*
X100413186Y-85389036D01*
X100556043Y-85674750D02*
X100556043Y-85074750D01*
X100556043Y-85074750D02*
X100327472Y-85074750D01*
X100327472Y-85074750D02*
X100270329Y-85103321D01*
X100270329Y-85103321D02*
X100241758Y-85131893D01*
X100241758Y-85131893D02*
X100213186Y-85189036D01*
X100213186Y-85189036D02*
X100213186Y-85274750D01*
X100213186Y-85274750D02*
X100241758Y-85331893D01*
X100241758Y-85331893D02*
X100270329Y-85360464D01*
X100270329Y-85360464D02*
X100327472Y-85389036D01*
X100327472Y-85389036D02*
X100556043Y-85389036D01*
X99956043Y-85360464D02*
X99756043Y-85360464D01*
X99670329Y-85674750D02*
X99956043Y-85674750D01*
X99956043Y-85674750D02*
X99956043Y-85074750D01*
X99956043Y-85074750D02*
X99670329Y-85074750D01*
X99213186Y-85360464D02*
X99413186Y-85360464D01*
X99413186Y-85674750D02*
X99413186Y-85074750D01*
X99413186Y-85074750D02*
X99127472Y-85074750D01*
D13*
%TO.C,C5*%
X116619725Y-99257627D02*
X116467222Y-99105124D01*
X117128842Y-98748510D02*
X116976339Y-98596007D01*
%TO.C,U9*%
X93296330Y-85560665D02*
X94196330Y-85560665D01*
X93296330Y-86460665D02*
X93296330Y-85560665D01*
X93296330Y-89880665D02*
X93296330Y-90780665D01*
X93296330Y-90780665D02*
X94196330Y-90780665D01*
X98216330Y-85560665D02*
X97616330Y-85560665D01*
X98516330Y-85800665D02*
X98516330Y-86460665D01*
X98516330Y-89880665D02*
X98516330Y-90780665D01*
X98516330Y-90780665D02*
X97616330Y-90780665D01*
X98516330Y-85560665D02*
X98276330Y-85230665D01*
X98756330Y-85230665D01*
X98516330Y-85560665D01*
G36*
X98516330Y-85560665D02*
G01*
X98276330Y-85230665D01*
X98756330Y-85230665D01*
X98516330Y-85560665D01*
G37*
%TO.C,R17*%
X99347830Y-87608407D02*
X99347830Y-88082923D01*
X100392830Y-87608407D02*
X100392830Y-88082923D01*
%TO.C,C30*%
X77010330Y-90567828D02*
X77010330Y-90783500D01*
X77730330Y-90567828D02*
X77730330Y-90783500D01*
%TO.C,C31*%
X94788494Y-84200665D02*
X95004166Y-84200665D01*
X94788494Y-84920665D02*
X95004166Y-84920665D01*
%TO.C,C23*%
X109123958Y-76201165D02*
X108908286Y-76201165D01*
X109123958Y-76921165D02*
X108908286Y-76921165D01*
%TO.C,R9*%
X115486722Y-83587306D02*
X115486722Y-83280024D01*
X116246722Y-83587306D02*
X116246722Y-83280024D01*
%TO.C,R7*%
X123548971Y-90846164D02*
X123241689Y-90846164D01*
X123548971Y-91606164D02*
X123241689Y-91606164D01*
%TO.C,C9*%
X117468253Y-101058229D02*
X117315750Y-101210732D01*
X117977370Y-101567346D02*
X117824867Y-101719849D01*
%TO.C,C4*%
X118929445Y-100435975D02*
X119081948Y-100588478D01*
X119438562Y-99926858D02*
X119591065Y-100079361D01*
%TO.C,C32*%
X94788494Y-83280665D02*
X95004166Y-83280665D01*
X94788494Y-84000665D02*
X95004166Y-84000665D01*
%TO.C,J3*%
X110991330Y-67945664D02*
X123161330Y-67945664D01*
X110991330Y-68795664D02*
X110991330Y-67945664D01*
X110991330Y-73165664D02*
X110991330Y-72315664D01*
X113316330Y-73165664D02*
X110991330Y-73165664D01*
X120836330Y-73165664D02*
X123161330Y-73165664D01*
X123161330Y-67945664D02*
X123161330Y-68795664D01*
X123161330Y-73165664D02*
X123161330Y-72315664D01*
%TO.C,C26*%
X108948975Y-78211165D02*
X108426471Y-78211165D01*
X108948975Y-79681165D02*
X108426471Y-79681165D01*
%TO.C,FB2*%
X123517722Y-78010885D02*
X123517722Y-78336443D01*
X124537722Y-78010885D02*
X124537722Y-78336443D01*
%TO.C,U10*%
X117006330Y-90775664D02*
X117656330Y-90775664D01*
X117006330Y-93895664D02*
X117656330Y-93895664D01*
X118306330Y-90775664D02*
X117656330Y-90775664D01*
X118306330Y-93895664D02*
X117656330Y-93895664D01*
X116733830Y-94175664D02*
X116253830Y-94175664D01*
X116493830Y-93845664D01*
X116733830Y-94175664D01*
G36*
X116733830Y-94175664D02*
G01*
X116253830Y-94175664D01*
X116493830Y-93845664D01*
X116733830Y-94175664D01*
G37*
%TO.C,FB3*%
X73710330Y-75574085D02*
X73710330Y-75899643D01*
X74730330Y-75574085D02*
X74730330Y-75899643D01*
%TO.C,C18*%
X109012218Y-98521365D02*
X108813407Y-98720176D01*
X109733467Y-99242614D02*
X109534656Y-99441425D01*
%TO.C,C29*%
X73540636Y-87395664D02*
X73756308Y-87395664D01*
X73540636Y-88115664D02*
X73756308Y-88115664D01*
%TO.C,FB5*%
X97506611Y-83590665D02*
X97181051Y-83590665D01*
X97506611Y-84610665D02*
X97181051Y-84610665D01*
%TO.C,C24*%
X111651486Y-76201165D02*
X111867158Y-76201165D01*
X111651486Y-76921165D02*
X111867158Y-76921165D01*
%TO.C,C8*%
X121459127Y-103531343D02*
X121306624Y-103378840D01*
X121968244Y-103022226D02*
X121815741Y-102869723D01*
D14*
%TO.C,REF\u002A\u002A*%
X74903159Y-73725561D02*
X74963083Y-73747819D01*
X74988003Y-73764544D01*
X75013240Y-73788507D01*
X75031242Y-73818990D01*
X75043188Y-73860487D01*
X75050260Y-73917496D01*
X75053638Y-73994511D01*
X75054501Y-74096029D01*
X75054332Y-74148491D01*
X75053483Y-74220179D01*
X75052041Y-74277389D01*
X75050144Y-74315273D01*
X75047927Y-74328978D01*
X75033502Y-74324445D01*
X75004384Y-74312134D01*
X75003511Y-74311736D01*
X74988390Y-74303820D01*
X74978221Y-74292959D01*
X74972021Y-74273935D01*
X74968808Y-74241533D01*
X74967600Y-74190535D01*
X74967416Y-74115725D01*
X74967044Y-74068268D01*
X74963080Y-73979079D01*
X74954003Y-73913751D01*
X74938854Y-73868857D01*
X74916675Y-73840971D01*
X74886505Y-73826667D01*
X74882320Y-73825670D01*
X74825810Y-73824891D01*
X74781740Y-73850208D01*
X74751302Y-73900966D01*
X74745874Y-73915639D01*
X74733501Y-73948113D01*
X74727235Y-73963036D01*
X74714366Y-73960980D01*
X74686263Y-73949821D01*
X74660051Y-73931391D01*
X74648101Y-73896562D01*
X74651666Y-73871615D01*
X74673565Y-73821011D01*
X74708974Y-73773592D01*
X74750382Y-73740798D01*
X74767730Y-73733216D01*
X74833419Y-73720540D01*
X74903159Y-73725561D01*
G36*
X74903159Y-73725561D02*
G01*
X74963083Y-73747819D01*
X74988003Y-73764544D01*
X75013240Y-73788507D01*
X75031242Y-73818990D01*
X75043188Y-73860487D01*
X75050260Y-73917496D01*
X75053638Y-73994511D01*
X75054501Y-74096029D01*
X75054332Y-74148491D01*
X75053483Y-74220179D01*
X75052041Y-74277389D01*
X75050144Y-74315273D01*
X75047927Y-74328978D01*
X75033502Y-74324445D01*
X75004384Y-74312134D01*
X75003511Y-74311736D01*
X74988390Y-74303820D01*
X74978221Y-74292959D01*
X74972021Y-74273935D01*
X74968808Y-74241533D01*
X74967600Y-74190535D01*
X74967416Y-74115725D01*
X74967044Y-74068268D01*
X74963080Y-73979079D01*
X74954003Y-73913751D01*
X74938854Y-73868857D01*
X74916675Y-73840971D01*
X74886505Y-73826667D01*
X74882320Y-73825670D01*
X74825810Y-73824891D01*
X74781740Y-73850208D01*
X74751302Y-73900966D01*
X74745874Y-73915639D01*
X74733501Y-73948113D01*
X74727235Y-73963036D01*
X74714366Y-73960980D01*
X74686263Y-73949821D01*
X74660051Y-73931391D01*
X74648101Y-73896562D01*
X74651666Y-73871615D01*
X74673565Y-73821011D01*
X74708974Y-73773592D01*
X74750382Y-73740798D01*
X74767730Y-73733216D01*
X74833419Y-73720540D01*
X74903159Y-73725561D01*
G37*
X78851350Y-73692286D02*
X78919140Y-73724144D01*
X78974696Y-73779234D01*
X78986211Y-73796480D01*
X78995762Y-73816026D01*
X79002536Y-73840662D01*
X79007149Y-73875175D01*
X79010218Y-73924353D01*
X79012359Y-73992983D01*
X79014189Y-74085853D01*
X79018734Y-74343471D01*
X78980555Y-74328955D01*
X78945598Y-74315620D01*
X78919427Y-74302787D01*
X78902343Y-74286244D01*
X78892416Y-74260929D01*
X78887716Y-74221780D01*
X78886312Y-74163732D01*
X78886273Y-74081725D01*
X78886074Y-74016359D01*
X78884889Y-73953637D01*
X78882059Y-73910798D01*
X78876939Y-73882684D01*
X78868883Y-73864139D01*
X78857244Y-73850007D01*
X78828633Y-73830064D01*
X78780569Y-73822547D01*
X78733018Y-73841543D01*
X78729880Y-73843975D01*
X78720099Y-73855212D01*
X78712883Y-73873234D01*
X78707629Y-73902490D01*
X78703732Y-73947426D01*
X78700586Y-74012492D01*
X78697587Y-74102134D01*
X78690330Y-74342161D01*
X78628644Y-74314508D01*
X78566959Y-74286855D01*
X78566959Y-74067710D01*
X78567214Y-74008175D01*
X78569416Y-73925356D01*
X78574991Y-73863691D01*
X78585271Y-73818212D01*
X78601588Y-73783948D01*
X78625273Y-73755930D01*
X78657658Y-73729187D01*
X78704237Y-73702244D01*
X78777617Y-73684655D01*
X78851350Y-73692286D01*
G36*
X78851350Y-73692286D02*
G01*
X78919140Y-73724144D01*
X78974696Y-73779234D01*
X78986211Y-73796480D01*
X78995762Y-73816026D01*
X79002536Y-73840662D01*
X79007149Y-73875175D01*
X79010218Y-73924353D01*
X79012359Y-73992983D01*
X79014189Y-74085853D01*
X79018734Y-74343471D01*
X78980555Y-74328955D01*
X78945598Y-74315620D01*
X78919427Y-74302787D01*
X78902343Y-74286244D01*
X78892416Y-74260929D01*
X78887716Y-74221780D01*
X78886312Y-74163732D01*
X78886273Y-74081725D01*
X78886074Y-74016359D01*
X78884889Y-73953637D01*
X78882059Y-73910798D01*
X78876939Y-73882684D01*
X78868883Y-73864139D01*
X78857244Y-73850007D01*
X78828633Y-73830064D01*
X78780569Y-73822547D01*
X78733018Y-73841543D01*
X78729880Y-73843975D01*
X78720099Y-73855212D01*
X78712883Y-73873234D01*
X78707629Y-73902490D01*
X78703732Y-73947426D01*
X78700586Y-74012492D01*
X78697587Y-74102134D01*
X78690330Y-74342161D01*
X78628644Y-74314508D01*
X78566959Y-74286855D01*
X78566959Y-74067710D01*
X78567214Y-74008175D01*
X78569416Y-73925356D01*
X78574991Y-73863691D01*
X78585271Y-73818212D01*
X78601588Y-73783948D01*
X78625273Y-73755930D01*
X78657658Y-73729187D01*
X78704237Y-73702244D01*
X78777617Y-73684655D01*
X78851350Y-73692286D01*
G37*
X77028021Y-73740931D02*
X77032603Y-73743467D01*
X77070034Y-73772521D01*
X77103500Y-73809874D01*
X77109337Y-73818316D01*
X77120495Y-73838017D01*
X77128466Y-73861399D01*
X77133948Y-73893531D01*
X77137637Y-73939483D01*
X77140229Y-74004323D01*
X77142422Y-74093121D01*
X77142732Y-74108133D01*
X77143730Y-74205463D01*
X77142324Y-74274398D01*
X77138494Y-74315412D01*
X77132219Y-74328978D01*
X77113228Y-74324916D01*
X77080968Y-74312608D01*
X77073371Y-74309009D01*
X77061506Y-74300862D01*
X77053324Y-74287468D01*
X77047973Y-74264072D01*
X77044599Y-74225919D01*
X77042349Y-74168254D01*
X77040370Y-74086321D01*
X77039828Y-74062371D01*
X77037733Y-73986730D01*
X77035013Y-73933792D01*
X77030845Y-73898539D01*
X77024409Y-73875951D01*
X77014880Y-73861008D01*
X77001436Y-73848691D01*
X76961635Y-73827098D01*
X76912671Y-73822940D01*
X76868859Y-73839463D01*
X76837338Y-73873674D01*
X76825244Y-73922578D01*
X76824908Y-73935871D01*
X76818302Y-73959936D01*
X76798800Y-73963608D01*
X76760613Y-73949277D01*
X76751768Y-73944681D01*
X76727864Y-73917650D01*
X76727391Y-73877458D01*
X76750166Y-73821873D01*
X76771057Y-73791581D01*
X76824472Y-73748548D01*
X76890404Y-73724219D01*
X76960904Y-73720907D01*
X77028021Y-73740931D01*
G36*
X77028021Y-73740931D02*
G01*
X77032603Y-73743467D01*
X77070034Y-73772521D01*
X77103500Y-73809874D01*
X77109337Y-73818316D01*
X77120495Y-73838017D01*
X77128466Y-73861399D01*
X77133948Y-73893531D01*
X77137637Y-73939483D01*
X77140229Y-74004323D01*
X77142422Y-74093121D01*
X77142732Y-74108133D01*
X77143730Y-74205463D01*
X77142324Y-74274398D01*
X77138494Y-74315412D01*
X77132219Y-74328978D01*
X77113228Y-74324916D01*
X77080968Y-74312608D01*
X77073371Y-74309009D01*
X77061506Y-74300862D01*
X77053324Y-74287468D01*
X77047973Y-74264072D01*
X77044599Y-74225919D01*
X77042349Y-74168254D01*
X77040370Y-74086321D01*
X77039828Y-74062371D01*
X77037733Y-73986730D01*
X77035013Y-73933792D01*
X77030845Y-73898539D01*
X77024409Y-73875951D01*
X77014880Y-73861008D01*
X77001436Y-73848691D01*
X76961635Y-73827098D01*
X76912671Y-73822940D01*
X76868859Y-73839463D01*
X76837338Y-73873674D01*
X76825244Y-73922578D01*
X76824908Y-73935871D01*
X76818302Y-73959936D01*
X76798800Y-73963608D01*
X76760613Y-73949277D01*
X76751768Y-73944681D01*
X76727864Y-73917650D01*
X76727391Y-73877458D01*
X76750166Y-73821873D01*
X76771057Y-73791581D01*
X76824472Y-73748548D01*
X76890404Y-73724219D01*
X76960904Y-73720907D01*
X77028021Y-73740931D01*
G37*
X76074271Y-73723746D02*
X76106104Y-73736222D01*
X76143073Y-73753066D01*
X76143073Y-74239660D01*
X76097142Y-74285591D01*
X76086650Y-74295891D01*
X76057585Y-74318784D01*
X76028273Y-74326199D01*
X75984656Y-74322785D01*
X75966898Y-74320578D01*
X75921097Y-74315909D01*
X75889073Y-74314049D01*
X75879574Y-74314333D01*
X75840604Y-74317412D01*
X75793490Y-74322785D01*
X75778415Y-74324632D01*
X75740440Y-74325357D01*
X75712655Y-74313893D01*
X75681004Y-74285591D01*
X75635073Y-74239660D01*
X75635073Y-73979519D01*
X75635431Y-73902644D01*
X75636546Y-73829350D01*
X75638282Y-73771314D01*
X75640497Y-73733127D01*
X75643051Y-73719378D01*
X75643586Y-73719415D01*
X75662138Y-73726257D01*
X75693483Y-73741332D01*
X75735938Y-73763286D01*
X75739934Y-73991704D01*
X75743930Y-74220121D01*
X75831016Y-74220121D01*
X75834987Y-73969750D01*
X75836246Y-73901691D01*
X75838048Y-73828946D01*
X75840001Y-73771194D01*
X75841942Y-73733112D01*
X75843707Y-73719378D01*
X75844215Y-73719426D01*
X75861812Y-73724479D01*
X75894164Y-73735313D01*
X75939873Y-73751247D01*
X75940095Y-73971170D01*
X75940318Y-74009373D01*
X75941861Y-74083610D01*
X75944622Y-74145609D01*
X75948307Y-74189772D01*
X75952622Y-74210505D01*
X75968062Y-74221595D01*
X75999571Y-74225020D01*
X76034216Y-74220121D01*
X76038187Y-73969750D01*
X76039608Y-73906127D01*
X76042555Y-73830820D01*
X76046409Y-73771750D01*
X76050872Y-73733182D01*
X76055647Y-73719378D01*
X76074271Y-73723746D01*
G36*
X76074271Y-73723746D02*
G01*
X76106104Y-73736222D01*
X76143073Y-73753066D01*
X76143073Y-74239660D01*
X76097142Y-74285591D01*
X76086650Y-74295891D01*
X76057585Y-74318784D01*
X76028273Y-74326199D01*
X75984656Y-74322785D01*
X75966898Y-74320578D01*
X75921097Y-74315909D01*
X75889073Y-74314049D01*
X75879574Y-74314333D01*
X75840604Y-74317412D01*
X75793490Y-74322785D01*
X75778415Y-74324632D01*
X75740440Y-74325357D01*
X75712655Y-74313893D01*
X75681004Y-74285591D01*
X75635073Y-74239660D01*
X75635073Y-73979519D01*
X75635431Y-73902644D01*
X75636546Y-73829350D01*
X75638282Y-73771314D01*
X75640497Y-73733127D01*
X75643051Y-73719378D01*
X75643586Y-73719415D01*
X75662138Y-73726257D01*
X75693483Y-73741332D01*
X75735938Y-73763286D01*
X75739934Y-73991704D01*
X75743930Y-74220121D01*
X75831016Y-74220121D01*
X75834987Y-73969750D01*
X75836246Y-73901691D01*
X75838048Y-73828946D01*
X75840001Y-73771194D01*
X75841942Y-73733112D01*
X75843707Y-73719378D01*
X75844215Y-73719426D01*
X75861812Y-73724479D01*
X75894164Y-73735313D01*
X75939873Y-73751247D01*
X75940095Y-73971170D01*
X75940318Y-74009373D01*
X75941861Y-74083610D01*
X75944622Y-74145609D01*
X75948307Y-74189772D01*
X75952622Y-74210505D01*
X75968062Y-74221595D01*
X75999571Y-74225020D01*
X76034216Y-74220121D01*
X76038187Y-73969750D01*
X76039608Y-73906127D01*
X76042555Y-73830820D01*
X76046409Y-73771750D01*
X76050872Y-73733182D01*
X76055647Y-73719378D01*
X76074271Y-73723746D01*
G37*
X78098873Y-73523908D02*
X78146044Y-73543806D01*
X78146044Y-73940973D01*
X78145849Y-74043962D01*
X78145328Y-74136605D01*
X78144529Y-74215164D01*
X78143502Y-74275903D01*
X78142293Y-74315087D01*
X78140953Y-74328978D01*
X78140429Y-74328932D01*
X78122617Y-74323884D01*
X78090153Y-74313044D01*
X78044444Y-74297110D01*
X78044444Y-74092637D01*
X78044154Y-74012296D01*
X78042804Y-73954026D01*
X78039699Y-73914373D01*
X78034142Y-73888082D01*
X78025437Y-73869900D01*
X78012886Y-73854571D01*
X78004329Y-73846419D01*
X77958058Y-73823839D01*
X77907058Y-73825839D01*
X77860323Y-73852537D01*
X77853519Y-73859162D01*
X77842623Y-73872920D01*
X77835166Y-73891106D01*
X77830499Y-73918641D01*
X77827972Y-73960445D01*
X77826932Y-74021437D01*
X77826730Y-74106537D01*
X77826633Y-74149698D01*
X77826004Y-74220688D01*
X77824886Y-74277540D01*
X77823393Y-74315292D01*
X77821639Y-74328978D01*
X77821115Y-74328932D01*
X77803303Y-74323884D01*
X77770839Y-74313044D01*
X77725130Y-74297110D01*
X77725153Y-74091701D01*
X77725187Y-74073415D01*
X77727108Y-73978090D01*
X77733008Y-73906007D01*
X77744331Y-73852277D01*
X77762517Y-73812013D01*
X77789009Y-73780325D01*
X77825248Y-73752325D01*
X77860593Y-73734797D01*
X77917103Y-73721249D01*
X77972686Y-73720479D01*
X78015416Y-73733659D01*
X78018628Y-73735479D01*
X78028535Y-73735284D01*
X78035305Y-73720036D01*
X78040191Y-73685077D01*
X78044444Y-73625753D01*
X78051701Y-73504011D01*
X78098873Y-73523908D01*
G36*
X78098873Y-73523908D02*
G01*
X78146044Y-73543806D01*
X78146044Y-73940973D01*
X78145849Y-74043962D01*
X78145328Y-74136605D01*
X78144529Y-74215164D01*
X78143502Y-74275903D01*
X78142293Y-74315087D01*
X78140953Y-74328978D01*
X78140429Y-74328932D01*
X78122617Y-74323884D01*
X78090153Y-74313044D01*
X78044444Y-74297110D01*
X78044444Y-74092637D01*
X78044154Y-74012296D01*
X78042804Y-73954026D01*
X78039699Y-73914373D01*
X78034142Y-73888082D01*
X78025437Y-73869900D01*
X78012886Y-73854571D01*
X78004329Y-73846419D01*
X77958058Y-73823839D01*
X77907058Y-73825839D01*
X77860323Y-73852537D01*
X77853519Y-73859162D01*
X77842623Y-73872920D01*
X77835166Y-73891106D01*
X77830499Y-73918641D01*
X77827972Y-73960445D01*
X77826932Y-74021437D01*
X77826730Y-74106537D01*
X77826633Y-74149698D01*
X77826004Y-74220688D01*
X77824886Y-74277540D01*
X77823393Y-74315292D01*
X77821639Y-74328978D01*
X77821115Y-74328932D01*
X77803303Y-74323884D01*
X77770839Y-74313044D01*
X77725130Y-74297110D01*
X77725153Y-74091701D01*
X77725187Y-74073415D01*
X77727108Y-73978090D01*
X77733008Y-73906007D01*
X77744331Y-73852277D01*
X77762517Y-73812013D01*
X77789009Y-73780325D01*
X77825248Y-73752325D01*
X77860593Y-73734797D01*
X77917103Y-73721249D01*
X77972686Y-73720479D01*
X78015416Y-73733659D01*
X78018628Y-73735479D01*
X78028535Y-73735284D01*
X78035305Y-73720036D01*
X78040191Y-73685077D01*
X78044444Y-73625753D01*
X78051701Y-73504011D01*
X78098873Y-73523908D01*
G37*
X80686044Y-74009664D02*
X80686031Y-74025399D01*
X80685244Y-74095583D01*
X80682540Y-74144486D01*
X80676936Y-74178642D01*
X80667449Y-74204588D01*
X80653098Y-74228861D01*
X80649567Y-74233897D01*
X80612208Y-74273607D01*
X80569641Y-74303556D01*
X80547782Y-74313274D01*
X80469238Y-74329484D01*
X80391561Y-74318999D01*
X80319975Y-74283171D01*
X80259704Y-74223351D01*
X80254616Y-74215337D01*
X80238060Y-74168806D01*
X80226903Y-74104016D01*
X80221490Y-74029191D01*
X80222098Y-73959977D01*
X80368578Y-73959977D01*
X80369732Y-74055863D01*
X80370196Y-74062033D01*
X80376959Y-74114942D01*
X80389001Y-74148493D01*
X80409335Y-74171480D01*
X80443427Y-74193012D01*
X80477144Y-74194144D01*
X80511873Y-74169321D01*
X80517914Y-74162789D01*
X80529747Y-74143243D01*
X80536734Y-74114850D01*
X80540057Y-74070894D01*
X80540901Y-74004656D01*
X80539455Y-73942614D01*
X80532237Y-73883506D01*
X80517336Y-73846150D01*
X80492966Y-73826616D01*
X80457338Y-73820978D01*
X80443770Y-73822099D01*
X80405760Y-73842658D01*
X80380642Y-73888763D01*
X80368578Y-73959977D01*
X80222098Y-73959977D01*
X80222163Y-73952560D01*
X80229267Y-73882346D01*
X80243145Y-73826776D01*
X80260979Y-73789765D01*
X80311185Y-73732197D01*
X80379215Y-73696426D01*
X80462488Y-73684129D01*
X80484728Y-73684795D01*
X80550221Y-73698411D01*
X80604017Y-73732713D01*
X80653387Y-73791802D01*
X80656325Y-73796186D01*
X80669617Y-73819763D01*
X80678262Y-73846413D01*
X80683234Y-73882623D01*
X80685504Y-73934877D01*
X80686008Y-74004656D01*
X80686044Y-74009664D01*
G36*
X80686044Y-74009664D02*
G01*
X80686031Y-74025399D01*
X80685244Y-74095583D01*
X80682540Y-74144486D01*
X80676936Y-74178642D01*
X80667449Y-74204588D01*
X80653098Y-74228861D01*
X80649567Y-74233897D01*
X80612208Y-74273607D01*
X80569641Y-74303556D01*
X80547782Y-74313274D01*
X80469238Y-74329484D01*
X80391561Y-74318999D01*
X80319975Y-74283171D01*
X80259704Y-74223351D01*
X80254616Y-74215337D01*
X80238060Y-74168806D01*
X80226903Y-74104016D01*
X80221490Y-74029191D01*
X80222098Y-73959977D01*
X80368578Y-73959977D01*
X80369732Y-74055863D01*
X80370196Y-74062033D01*
X80376959Y-74114942D01*
X80389001Y-74148493D01*
X80409335Y-74171480D01*
X80443427Y-74193012D01*
X80477144Y-74194144D01*
X80511873Y-74169321D01*
X80517914Y-74162789D01*
X80529747Y-74143243D01*
X80536734Y-74114850D01*
X80540057Y-74070894D01*
X80540901Y-74004656D01*
X80539455Y-73942614D01*
X80532237Y-73883506D01*
X80517336Y-73846150D01*
X80492966Y-73826616D01*
X80457338Y-73820978D01*
X80443770Y-73822099D01*
X80405760Y-73842658D01*
X80380642Y-73888763D01*
X80368578Y-73959977D01*
X80222098Y-73959977D01*
X80222163Y-73952560D01*
X80229267Y-73882346D01*
X80243145Y-73826776D01*
X80260979Y-73789765D01*
X80311185Y-73732197D01*
X80379215Y-73696426D01*
X80462488Y-73684129D01*
X80484728Y-73684795D01*
X80550221Y-73698411D01*
X80604017Y-73732713D01*
X80653387Y-73791802D01*
X80656325Y-73796186D01*
X80669617Y-73819763D01*
X80678262Y-73846413D01*
X80683234Y-73882623D01*
X80685504Y-73934877D01*
X80686008Y-74004656D01*
X80686044Y-74009664D01*
G37*
X74560920Y-74027086D02*
X74560637Y-74065769D01*
X74557092Y-74141985D01*
X74547813Y-74197758D01*
X74530705Y-74239077D01*
X74503674Y-74271931D01*
X74464622Y-74302310D01*
X74439775Y-74316124D01*
X74399945Y-74325429D01*
X74343995Y-74324694D01*
X74312715Y-74321747D01*
X74274983Y-74312747D01*
X74244824Y-74293184D01*
X74209738Y-74256731D01*
X74205050Y-74251407D01*
X74173507Y-74210433D01*
X74158458Y-74174747D01*
X74154616Y-74132430D01*
X74154616Y-74070243D01*
X74198072Y-74086646D01*
X74229754Y-74105820D01*
X74257292Y-74150811D01*
X74263041Y-74165216D01*
X74295185Y-74206010D01*
X74338941Y-74226545D01*
X74386584Y-74224699D01*
X74430387Y-74198350D01*
X74445441Y-74181919D01*
X74459093Y-74157131D01*
X74454823Y-74134608D01*
X74430246Y-74111428D01*
X74382981Y-74084666D01*
X74310644Y-74051398D01*
X74161873Y-73986280D01*
X74157925Y-73921772D01*
X74159409Y-73880684D01*
X74256340Y-73880684D01*
X74263698Y-73906121D01*
X74297178Y-73933278D01*
X74357944Y-73964178D01*
X74367999Y-73968654D01*
X74416081Y-73989481D01*
X74452056Y-74004129D01*
X74468774Y-74009664D01*
X74471307Y-74005590D01*
X74472323Y-73980711D01*
X74468699Y-73940721D01*
X74459572Y-73901616D01*
X74431103Y-73852348D01*
X74390008Y-73824586D01*
X74340920Y-73820828D01*
X74288474Y-73843573D01*
X74273939Y-73854945D01*
X74256340Y-73880684D01*
X74159409Y-73880684D01*
X74159668Y-73873528D01*
X74181611Y-73812560D01*
X74209309Y-73778961D01*
X74266735Y-73741430D01*
X74334857Y-73722470D01*
X74405277Y-73723971D01*
X74469597Y-73747819D01*
X74483756Y-73756977D01*
X74516234Y-73785313D01*
X74538446Y-73821159D01*
X74552134Y-73869848D01*
X74559045Y-73936713D01*
X74559958Y-73980711D01*
X74560920Y-74027086D01*
G36*
X74560920Y-74027086D02*
G01*
X74560637Y-74065769D01*
X74557092Y-74141985D01*
X74547813Y-74197758D01*
X74530705Y-74239077D01*
X74503674Y-74271931D01*
X74464622Y-74302310D01*
X74439775Y-74316124D01*
X74399945Y-74325429D01*
X74343995Y-74324694D01*
X74312715Y-74321747D01*
X74274983Y-74312747D01*
X74244824Y-74293184D01*
X74209738Y-74256731D01*
X74205050Y-74251407D01*
X74173507Y-74210433D01*
X74158458Y-74174747D01*
X74154616Y-74132430D01*
X74154616Y-74070243D01*
X74198072Y-74086646D01*
X74229754Y-74105820D01*
X74257292Y-74150811D01*
X74263041Y-74165216D01*
X74295185Y-74206010D01*
X74338941Y-74226545D01*
X74386584Y-74224699D01*
X74430387Y-74198350D01*
X74445441Y-74181919D01*
X74459093Y-74157131D01*
X74454823Y-74134608D01*
X74430246Y-74111428D01*
X74382981Y-74084666D01*
X74310644Y-74051398D01*
X74161873Y-73986280D01*
X74157925Y-73921772D01*
X74159409Y-73880684D01*
X74256340Y-73880684D01*
X74263698Y-73906121D01*
X74297178Y-73933278D01*
X74357944Y-73964178D01*
X74367999Y-73968654D01*
X74416081Y-73989481D01*
X74452056Y-74004129D01*
X74468774Y-74009664D01*
X74471307Y-74005590D01*
X74472323Y-73980711D01*
X74468699Y-73940721D01*
X74459572Y-73901616D01*
X74431103Y-73852348D01*
X74390008Y-73824586D01*
X74340920Y-73820828D01*
X74288474Y-73843573D01*
X74273939Y-73854945D01*
X74256340Y-73880684D01*
X74159409Y-73880684D01*
X74159668Y-73873528D01*
X74181611Y-73812560D01*
X74209309Y-73778961D01*
X74266735Y-73741430D01*
X74334857Y-73722470D01*
X74405277Y-73723971D01*
X74469597Y-73747819D01*
X74483756Y-73756977D01*
X74516234Y-73785313D01*
X74538446Y-73821159D01*
X74552134Y-73869848D01*
X74559045Y-73936713D01*
X74559958Y-73980711D01*
X74560920Y-74027086D01*
G37*
X76651028Y-74024178D02*
X76649867Y-74080777D01*
X76641675Y-74157926D01*
X76623849Y-74215740D01*
X76594305Y-74259886D01*
X76550955Y-74296032D01*
X76509662Y-74316927D01*
X76440317Y-74328554D01*
X76371066Y-74315841D01*
X76308475Y-74280409D01*
X76259109Y-74223882D01*
X76253148Y-74213459D01*
X76245275Y-74195197D01*
X76239436Y-74171893D01*
X76235329Y-74139549D01*
X76232655Y-74094168D01*
X76231111Y-74031751D01*
X76231064Y-74026212D01*
X76331759Y-74026212D01*
X76332102Y-74079041D01*
X76334272Y-74126826D01*
X76339637Y-74157673D01*
X76349547Y-74178399D01*
X76365351Y-74195820D01*
X76369054Y-74199169D01*
X76416629Y-74223883D01*
X76466965Y-74221354D01*
X76513847Y-74191752D01*
X76527807Y-74176417D01*
X76539490Y-74156086D01*
X76546016Y-74127978D01*
X76548854Y-74085014D01*
X76549473Y-74020111D01*
X76549167Y-73970586D01*
X76547052Y-73922246D01*
X76541720Y-73891051D01*
X76531790Y-73870111D01*
X76515880Y-73852537D01*
X76506534Y-73844623D01*
X76458106Y-73823307D01*
X76407370Y-73826662D01*
X76363317Y-73854571D01*
X76353834Y-73865637D01*
X76342269Y-73886473D01*
X76335582Y-73915570D01*
X76332503Y-73959845D01*
X76331759Y-74026212D01*
X76231064Y-74026212D01*
X76230397Y-73948301D01*
X76230213Y-73839822D01*
X76230159Y-73503065D01*
X76277330Y-73522826D01*
X76289802Y-73528234D01*
X76309654Y-73540449D01*
X76321017Y-73558946D01*
X76327263Y-73591293D01*
X76331759Y-73645057D01*
X76335865Y-73693330D01*
X76341293Y-73725021D01*
X76349069Y-73736847D01*
X76360787Y-73733676D01*
X76390648Y-73722531D01*
X76444014Y-73719768D01*
X76501423Y-73730089D01*
X76550955Y-73752325D01*
X76578206Y-73772907D01*
X76613195Y-73813064D01*
X76635604Y-73864550D01*
X76647520Y-73933032D01*
X76650872Y-74020111D01*
X76651028Y-74024178D01*
G36*
X76651028Y-74024178D02*
G01*
X76649867Y-74080777D01*
X76641675Y-74157926D01*
X76623849Y-74215740D01*
X76594305Y-74259886D01*
X76550955Y-74296032D01*
X76509662Y-74316927D01*
X76440317Y-74328554D01*
X76371066Y-74315841D01*
X76308475Y-74280409D01*
X76259109Y-74223882D01*
X76253148Y-74213459D01*
X76245275Y-74195197D01*
X76239436Y-74171893D01*
X76235329Y-74139549D01*
X76232655Y-74094168D01*
X76231111Y-74031751D01*
X76231064Y-74026212D01*
X76331759Y-74026212D01*
X76332102Y-74079041D01*
X76334272Y-74126826D01*
X76339637Y-74157673D01*
X76349547Y-74178399D01*
X76365351Y-74195820D01*
X76369054Y-74199169D01*
X76416629Y-74223883D01*
X76466965Y-74221354D01*
X76513847Y-74191752D01*
X76527807Y-74176417D01*
X76539490Y-74156086D01*
X76546016Y-74127978D01*
X76548854Y-74085014D01*
X76549473Y-74020111D01*
X76549167Y-73970586D01*
X76547052Y-73922246D01*
X76541720Y-73891051D01*
X76531790Y-73870111D01*
X76515880Y-73852537D01*
X76506534Y-73844623D01*
X76458106Y-73823307D01*
X76407370Y-73826662D01*
X76363317Y-73854571D01*
X76353834Y-73865637D01*
X76342269Y-73886473D01*
X76335582Y-73915570D01*
X76332503Y-73959845D01*
X76331759Y-74026212D01*
X76231064Y-74026212D01*
X76230397Y-73948301D01*
X76230213Y-73839822D01*
X76230159Y-73503065D01*
X76277330Y-73522826D01*
X76289802Y-73528234D01*
X76309654Y-73540449D01*
X76321017Y-73558946D01*
X76327263Y-73591293D01*
X76331759Y-73645057D01*
X76335865Y-73693330D01*
X76341293Y-73725021D01*
X76349069Y-73736847D01*
X76360787Y-73733676D01*
X76390648Y-73722531D01*
X76444014Y-73719768D01*
X76501423Y-73730089D01*
X76550955Y-73752325D01*
X76578206Y-73772907D01*
X76613195Y-73813064D01*
X76635604Y-73864550D01*
X76647520Y-73933032D01*
X76650872Y-74020111D01*
X76651028Y-74024178D01*
G37*
X79582629Y-73968519D02*
X79578014Y-74078542D01*
X79575408Y-74101851D01*
X79555990Y-74184816D01*
X79520903Y-74247912D01*
X79467542Y-74296272D01*
X79464526Y-74298268D01*
X79396692Y-74326649D01*
X79325865Y-74329175D01*
X79257619Y-74307561D01*
X79197526Y-74263526D01*
X79151159Y-74198786D01*
X79150380Y-74197225D01*
X79134973Y-74157022D01*
X79123687Y-74111330D01*
X79117700Y-74068436D01*
X79118191Y-74036624D01*
X79126337Y-74024178D01*
X79133574Y-74024935D01*
X79168181Y-74038699D01*
X79207408Y-74064010D01*
X79240778Y-74093309D01*
X79257813Y-74119036D01*
X79275522Y-74153935D01*
X79311815Y-74185676D01*
X79353960Y-74198350D01*
X79369407Y-74194685D01*
X79399899Y-74176238D01*
X79426458Y-74150630D01*
X79437816Y-74127398D01*
X79437812Y-74127312D01*
X79424926Y-74116643D01*
X79390571Y-74097397D01*
X79339923Y-74072277D01*
X79278159Y-74043988D01*
X79277819Y-74043838D01*
X79210718Y-74013962D01*
X79165741Y-73992437D01*
X79138475Y-73975901D01*
X79124508Y-73960995D01*
X79119427Y-73944357D01*
X79118820Y-73922626D01*
X79123042Y-73881477D01*
X79266330Y-73881477D01*
X79281121Y-73894413D01*
X79317974Y-73913797D01*
X79319055Y-73914345D01*
X79362535Y-73935051D01*
X79401432Y-73951569D01*
X79426108Y-73958557D01*
X79436006Y-73949217D01*
X79437816Y-73917212D01*
X79430296Y-73877379D01*
X79404227Y-73841181D01*
X79366484Y-73822414D01*
X79324407Y-73824309D01*
X79285335Y-73850096D01*
X79269977Y-73867915D01*
X79266330Y-73881477D01*
X79123042Y-73881477D01*
X79124163Y-73870550D01*
X79150581Y-73799799D01*
X79194803Y-73744199D01*
X79252027Y-73705703D01*
X79317450Y-73686261D01*
X79386267Y-73687823D01*
X79453677Y-73712342D01*
X79514874Y-73761766D01*
X79548780Y-73810676D01*
X79573136Y-73880491D01*
X79577097Y-73917212D01*
X79582629Y-73968519D01*
G36*
X79582629Y-73968519D02*
G01*
X79578014Y-74078542D01*
X79575408Y-74101851D01*
X79555990Y-74184816D01*
X79520903Y-74247912D01*
X79467542Y-74296272D01*
X79464526Y-74298268D01*
X79396692Y-74326649D01*
X79325865Y-74329175D01*
X79257619Y-74307561D01*
X79197526Y-74263526D01*
X79151159Y-74198786D01*
X79150380Y-74197225D01*
X79134973Y-74157022D01*
X79123687Y-74111330D01*
X79117700Y-74068436D01*
X79118191Y-74036624D01*
X79126337Y-74024178D01*
X79133574Y-74024935D01*
X79168181Y-74038699D01*
X79207408Y-74064010D01*
X79240778Y-74093309D01*
X79257813Y-74119036D01*
X79275522Y-74153935D01*
X79311815Y-74185676D01*
X79353960Y-74198350D01*
X79369407Y-74194685D01*
X79399899Y-74176238D01*
X79426458Y-74150630D01*
X79437816Y-74127398D01*
X79437812Y-74127312D01*
X79424926Y-74116643D01*
X79390571Y-74097397D01*
X79339923Y-74072277D01*
X79278159Y-74043988D01*
X79277819Y-74043838D01*
X79210718Y-74013962D01*
X79165741Y-73992437D01*
X79138475Y-73975901D01*
X79124508Y-73960995D01*
X79119427Y-73944357D01*
X79118820Y-73922626D01*
X79123042Y-73881477D01*
X79266330Y-73881477D01*
X79281121Y-73894413D01*
X79317974Y-73913797D01*
X79319055Y-73914345D01*
X79362535Y-73935051D01*
X79401432Y-73951569D01*
X79426108Y-73958557D01*
X79436006Y-73949217D01*
X79437816Y-73917212D01*
X79430296Y-73877379D01*
X79404227Y-73841181D01*
X79366484Y-73822414D01*
X79324407Y-73824309D01*
X79285335Y-73850096D01*
X79269977Y-73867915D01*
X79266330Y-73881477D01*
X79123042Y-73881477D01*
X79124163Y-73870550D01*
X79150581Y-73799799D01*
X79194803Y-73744199D01*
X79252027Y-73705703D01*
X79317450Y-73686261D01*
X79386267Y-73687823D01*
X79453677Y-73712342D01*
X79514874Y-73761766D01*
X79548780Y-73810676D01*
X79573136Y-73880491D01*
X79577097Y-73917212D01*
X79582629Y-73968519D01*
G37*
X77509813Y-73735033D02*
X77559706Y-73764125D01*
X77581655Y-73786791D01*
X77623834Y-73854546D01*
X77638044Y-73928414D01*
X77638044Y-73979234D01*
X77591329Y-73959592D01*
X77559022Y-73939772D01*
X77533561Y-73898624D01*
X77530946Y-73890139D01*
X77502808Y-73846915D01*
X77460397Y-73823567D01*
X77411700Y-73822564D01*
X77364703Y-73846378D01*
X77357687Y-73852520D01*
X77334223Y-73879209D01*
X77330349Y-73902478D01*
X77348098Y-73925326D01*
X77389509Y-73950751D01*
X77456616Y-73981752D01*
X77461154Y-73983716D01*
X77535652Y-74018454D01*
X77586533Y-74049227D01*
X77617855Y-74079952D01*
X77633673Y-74114546D01*
X77638044Y-74156926D01*
X77632316Y-74203910D01*
X77603392Y-74264049D01*
X77552508Y-74307252D01*
X77515704Y-74320223D01*
X77463764Y-74327320D01*
X77413329Y-74325804D01*
X77377313Y-74315096D01*
X77373488Y-74312430D01*
X77363328Y-74293801D01*
X77370378Y-74260969D01*
X77382627Y-74235199D01*
X77402269Y-74224470D01*
X77439521Y-74225003D01*
X77491238Y-74221926D01*
X77525031Y-74200676D01*
X77536444Y-74161341D01*
X77536434Y-74160211D01*
X77529517Y-74137377D01*
X77505989Y-74116427D01*
X77460244Y-74092279D01*
X77398034Y-74063205D01*
X77356829Y-74047389D01*
X77333042Y-74048408D01*
X77321927Y-74069301D01*
X77318738Y-74113105D01*
X77318730Y-74182857D01*
X77318374Y-74225916D01*
X77316743Y-74279090D01*
X77314091Y-74315486D01*
X77310752Y-74328978D01*
X77309860Y-74328887D01*
X77290567Y-74321574D01*
X77258614Y-74306142D01*
X77214454Y-74283306D01*
X77219701Y-74077542D01*
X77220066Y-74063896D01*
X77224234Y-73968115D01*
X77231598Y-73895926D01*
X77243660Y-73842522D01*
X77261923Y-73803097D01*
X77287890Y-73772844D01*
X77323063Y-73746957D01*
X77323714Y-73746551D01*
X77380586Y-73725432D01*
X77446363Y-73721864D01*
X77509813Y-73735033D01*
G36*
X77509813Y-73735033D02*
G01*
X77559706Y-73764125D01*
X77581655Y-73786791D01*
X77623834Y-73854546D01*
X77638044Y-73928414D01*
X77638044Y-73979234D01*
X77591329Y-73959592D01*
X77559022Y-73939772D01*
X77533561Y-73898624D01*
X77530946Y-73890139D01*
X77502808Y-73846915D01*
X77460397Y-73823567D01*
X77411700Y-73822564D01*
X77364703Y-73846378D01*
X77357687Y-73852520D01*
X77334223Y-73879209D01*
X77330349Y-73902478D01*
X77348098Y-73925326D01*
X77389509Y-73950751D01*
X77456616Y-73981752D01*
X77461154Y-73983716D01*
X77535652Y-74018454D01*
X77586533Y-74049227D01*
X77617855Y-74079952D01*
X77633673Y-74114546D01*
X77638044Y-74156926D01*
X77632316Y-74203910D01*
X77603392Y-74264049D01*
X77552508Y-74307252D01*
X77515704Y-74320223D01*
X77463764Y-74327320D01*
X77413329Y-74325804D01*
X77377313Y-74315096D01*
X77373488Y-74312430D01*
X77363328Y-74293801D01*
X77370378Y-74260969D01*
X77382627Y-74235199D01*
X77402269Y-74224470D01*
X77439521Y-74225003D01*
X77491238Y-74221926D01*
X77525031Y-74200676D01*
X77536444Y-74161341D01*
X77536434Y-74160211D01*
X77529517Y-74137377D01*
X77505989Y-74116427D01*
X77460244Y-74092279D01*
X77398034Y-74063205D01*
X77356829Y-74047389D01*
X77333042Y-74048408D01*
X77321927Y-74069301D01*
X77318738Y-74113105D01*
X77318730Y-74182857D01*
X77318374Y-74225916D01*
X77316743Y-74279090D01*
X77314091Y-74315486D01*
X77310752Y-74328978D01*
X77309860Y-74328887D01*
X77290567Y-74321574D01*
X77258614Y-74306142D01*
X77214454Y-74283306D01*
X77219701Y-74077542D01*
X77220066Y-74063896D01*
X77224234Y-73968115D01*
X77231598Y-73895926D01*
X77243660Y-73842522D01*
X77261923Y-73803097D01*
X77287890Y-73772844D01*
X77323063Y-73746957D01*
X77323714Y-73746551D01*
X77380586Y-73725432D01*
X77446363Y-73721864D01*
X77509813Y-73735033D01*
G37*
X75387825Y-73720684D02*
X75418929Y-73728585D01*
X75447889Y-73748281D01*
X75485161Y-73784948D01*
X75509131Y-73810842D01*
X75534100Y-73844461D01*
X75545361Y-73875970D01*
X75547987Y-73915949D01*
X75547987Y-73981381D01*
X75503365Y-73958306D01*
X75468003Y-73930188D01*
X75443781Y-73892312D01*
X75439621Y-73882015D01*
X75407924Y-73842101D01*
X75363884Y-73822088D01*
X75315861Y-73824036D01*
X75272216Y-73850007D01*
X75253750Y-73871099D01*
X75242993Y-73898083D01*
X75254508Y-73922098D01*
X75290311Y-73946255D01*
X75352420Y-73973663D01*
X75361845Y-73977449D01*
X75418388Y-74002223D01*
X75466910Y-74026653D01*
X75497781Y-74045950D01*
X75528701Y-74080417D01*
X75549257Y-74135421D01*
X75547074Y-74194447D01*
X75522754Y-74250309D01*
X75476898Y-74295819D01*
X75439768Y-74315191D01*
X75368041Y-74328756D01*
X75328182Y-74326926D01*
X75291283Y-74317032D01*
X75277127Y-74296270D01*
X75282421Y-74262077D01*
X75283961Y-74257556D01*
X75296172Y-74233580D01*
X75316504Y-74224506D01*
X75355238Y-74225113D01*
X75382587Y-74225938D01*
X75414587Y-74218856D01*
X75436512Y-74197683D01*
X75449000Y-74171616D01*
X75450392Y-74144309D01*
X75450328Y-74144149D01*
X75434137Y-74129394D01*
X75399485Y-74107921D01*
X75354651Y-74083922D01*
X75307912Y-74061589D01*
X75267547Y-74045116D01*
X75241834Y-74038693D01*
X75238009Y-74044982D01*
X75233194Y-74074579D01*
X75229896Y-74122911D01*
X75228673Y-74183836D01*
X75228388Y-74226006D01*
X75227048Y-74279117D01*
X75224858Y-74315489D01*
X75222099Y-74328978D01*
X75207674Y-74324445D01*
X75178556Y-74312134D01*
X75141587Y-74295290D01*
X75141587Y-74079185D01*
X75141823Y-74023791D01*
X75144059Y-73939671D01*
X75149753Y-73877264D01*
X75160233Y-73831822D01*
X75176827Y-73798597D01*
X75200861Y-73772842D01*
X75233663Y-73749808D01*
X75275454Y-73730799D01*
X75352617Y-73719378D01*
X75387825Y-73720684D01*
G36*
X75387825Y-73720684D02*
G01*
X75418929Y-73728585D01*
X75447889Y-73748281D01*
X75485161Y-73784948D01*
X75509131Y-73810842D01*
X75534100Y-73844461D01*
X75545361Y-73875970D01*
X75547987Y-73915949D01*
X75547987Y-73981381D01*
X75503365Y-73958306D01*
X75468003Y-73930188D01*
X75443781Y-73892312D01*
X75439621Y-73882015D01*
X75407924Y-73842101D01*
X75363884Y-73822088D01*
X75315861Y-73824036D01*
X75272216Y-73850007D01*
X75253750Y-73871099D01*
X75242993Y-73898083D01*
X75254508Y-73922098D01*
X75290311Y-73946255D01*
X75352420Y-73973663D01*
X75361845Y-73977449D01*
X75418388Y-74002223D01*
X75466910Y-74026653D01*
X75497781Y-74045950D01*
X75528701Y-74080417D01*
X75549257Y-74135421D01*
X75547074Y-74194447D01*
X75522754Y-74250309D01*
X75476898Y-74295819D01*
X75439768Y-74315191D01*
X75368041Y-74328756D01*
X75328182Y-74326926D01*
X75291283Y-74317032D01*
X75277127Y-74296270D01*
X75282421Y-74262077D01*
X75283961Y-74257556D01*
X75296172Y-74233580D01*
X75316504Y-74224506D01*
X75355238Y-74225113D01*
X75382587Y-74225938D01*
X75414587Y-74218856D01*
X75436512Y-74197683D01*
X75449000Y-74171616D01*
X75450392Y-74144309D01*
X75450328Y-74144149D01*
X75434137Y-74129394D01*
X75399485Y-74107921D01*
X75354651Y-74083922D01*
X75307912Y-74061589D01*
X75267547Y-74045116D01*
X75241834Y-74038693D01*
X75238009Y-74044982D01*
X75233194Y-74074579D01*
X75229896Y-74122911D01*
X75228673Y-74183836D01*
X75228388Y-74226006D01*
X75227048Y-74279117D01*
X75224858Y-74315489D01*
X75222099Y-74328978D01*
X75207674Y-74324445D01*
X75178556Y-74312134D01*
X75141587Y-74295290D01*
X75141587Y-74079185D01*
X75141823Y-74023791D01*
X75144059Y-73939671D01*
X75149753Y-73877264D01*
X75160233Y-73831822D01*
X75176827Y-73798597D01*
X75200861Y-73772842D01*
X75233663Y-73749808D01*
X75275454Y-73730799D01*
X75352617Y-73719378D01*
X75387825Y-73720684D01*
G37*
X80130145Y-74075988D02*
X80131582Y-74187464D01*
X80131981Y-74219803D01*
X80133259Y-74327919D01*
X80133515Y-74410650D01*
X80131964Y-74470890D01*
X80127820Y-74511537D01*
X80120294Y-74535487D01*
X80108601Y-74545635D01*
X80091954Y-74544878D01*
X80069566Y-74536112D01*
X80040651Y-74522233D01*
X80034472Y-74519272D01*
X80008743Y-74504775D01*
X79995306Y-74487529D01*
X79990164Y-74458772D01*
X79989320Y-74409747D01*
X79989282Y-74321721D01*
X79898606Y-74321721D01*
X79842828Y-74319279D01*
X79798970Y-74309372D01*
X79762548Y-74289350D01*
X79759833Y-74287393D01*
X79722876Y-74254333D01*
X79697156Y-74214395D01*
X79680936Y-74162121D01*
X79672478Y-74092052D01*
X79670413Y-74012894D01*
X79815187Y-74012894D01*
X79815212Y-74026161D01*
X79816591Y-74086048D01*
X79821017Y-74125196D01*
X79829791Y-74150617D01*
X79844216Y-74169321D01*
X79845114Y-74170214D01*
X79880567Y-74194416D01*
X79914926Y-74192031D01*
X79953733Y-74162724D01*
X79963225Y-74152708D01*
X79977206Y-74132172D01*
X79985090Y-74105461D01*
X79988575Y-74064963D01*
X79989359Y-74003067D01*
X79988680Y-73965594D01*
X79981313Y-73897444D01*
X79964498Y-73852794D01*
X79936564Y-73828390D01*
X79895839Y-73820978D01*
X79878680Y-73822558D01*
X79848990Y-73838230D01*
X79829361Y-73873155D01*
X79818518Y-73930365D01*
X79815187Y-74012894D01*
X79670413Y-74012894D01*
X79670044Y-73998731D01*
X79670583Y-73930633D01*
X79673037Y-73879051D01*
X79678488Y-73843280D01*
X79688016Y-73816479D01*
X79702701Y-73791802D01*
X79716182Y-73772944D01*
X79765129Y-73722032D01*
X79820586Y-73694382D01*
X79890258Y-73685629D01*
X79969994Y-73694354D01*
X80038925Y-73725649D01*
X80093443Y-73780845D01*
X80097553Y-73786688D01*
X80107138Y-73802217D01*
X80114481Y-73819962D01*
X80119942Y-73843754D01*
X80123880Y-73877422D01*
X80126653Y-73924797D01*
X80128622Y-73989709D01*
X80128858Y-74003067D01*
X80130145Y-74075988D01*
G36*
X80130145Y-74075988D02*
G01*
X80131582Y-74187464D01*
X80131981Y-74219803D01*
X80133259Y-74327919D01*
X80133515Y-74410650D01*
X80131964Y-74470890D01*
X80127820Y-74511537D01*
X80120294Y-74535487D01*
X80108601Y-74545635D01*
X80091954Y-74544878D01*
X80069566Y-74536112D01*
X80040651Y-74522233D01*
X80034472Y-74519272D01*
X80008743Y-74504775D01*
X79995306Y-74487529D01*
X79990164Y-74458772D01*
X79989320Y-74409747D01*
X79989282Y-74321721D01*
X79898606Y-74321721D01*
X79842828Y-74319279D01*
X79798970Y-74309372D01*
X79762548Y-74289350D01*
X79759833Y-74287393D01*
X79722876Y-74254333D01*
X79697156Y-74214395D01*
X79680936Y-74162121D01*
X79672478Y-74092052D01*
X79670413Y-74012894D01*
X79815187Y-74012894D01*
X79815212Y-74026161D01*
X79816591Y-74086048D01*
X79821017Y-74125196D01*
X79829791Y-74150617D01*
X79844216Y-74169321D01*
X79845114Y-74170214D01*
X79880567Y-74194416D01*
X79914926Y-74192031D01*
X79953733Y-74162724D01*
X79963225Y-74152708D01*
X79977206Y-74132172D01*
X79985090Y-74105461D01*
X79988575Y-74064963D01*
X79989359Y-74003067D01*
X79988680Y-73965594D01*
X79981313Y-73897444D01*
X79964498Y-73852794D01*
X79936564Y-73828390D01*
X79895839Y-73820978D01*
X79878680Y-73822558D01*
X79848990Y-73838230D01*
X79829361Y-73873155D01*
X79818518Y-73930365D01*
X79815187Y-74012894D01*
X79670413Y-74012894D01*
X79670044Y-73998731D01*
X79670583Y-73930633D01*
X79673037Y-73879051D01*
X79678488Y-73843280D01*
X79688016Y-73816479D01*
X79702701Y-73791802D01*
X79716182Y-73772944D01*
X79765129Y-73722032D01*
X79820586Y-73694382D01*
X79890258Y-73685629D01*
X79969994Y-73694354D01*
X80038925Y-73725649D01*
X80093443Y-73780845D01*
X80097553Y-73786688D01*
X80107138Y-73802217D01*
X80114481Y-73819962D01*
X80119942Y-73843754D01*
X80123880Y-73877422D01*
X80126653Y-73924797D01*
X80128622Y-73989709D01*
X80128858Y-74003067D01*
X80130145Y-74075988D01*
G37*
X77534263Y-69016835D02*
X77610186Y-69017329D01*
X77664821Y-69018599D01*
X77701830Y-69021011D01*
X77724877Y-69024931D01*
X77737626Y-69030726D01*
X77743741Y-69038763D01*
X77746886Y-69049407D01*
X77746976Y-69049789D01*
X77752144Y-69074811D01*
X77761539Y-69123145D01*
X77774197Y-69189724D01*
X77789155Y-69269478D01*
X77805449Y-69357339D01*
X77806778Y-69364528D01*
X77823021Y-69449804D01*
X77838135Y-69524706D01*
X77851138Y-69584683D01*
X77861045Y-69625181D01*
X77866874Y-69641648D01*
X77866905Y-69641674D01*
X77885273Y-69650784D01*
X77922970Y-69665921D01*
X77971873Y-69683822D01*
X77974627Y-69684794D01*
X78037147Y-69708423D01*
X78109873Y-69738059D01*
X78177624Y-69767526D01*
X78289033Y-69818090D01*
X78535729Y-69649624D01*
X78553105Y-69637775D01*
X78627532Y-69587411D01*
X78693944Y-69543076D01*
X78748369Y-69507380D01*
X78786836Y-69482935D01*
X78805372Y-69472353D01*
X78818073Y-69474779D01*
X78846909Y-69493574D01*
X78891473Y-69530794D01*
X78953000Y-69587484D01*
X79032728Y-69664691D01*
X79039862Y-69671719D01*
X79103126Y-69734686D01*
X79159320Y-69791732D01*
X79205007Y-69839281D01*
X79236744Y-69873761D01*
X79251094Y-69891595D01*
X79251140Y-69891681D01*
X79252963Y-69905259D01*
X79246240Y-69927284D01*
X79229276Y-69960768D01*
X79200374Y-70008725D01*
X79157838Y-70074168D01*
X79099974Y-70160109D01*
X79090113Y-70174615D01*
X79040243Y-70248099D01*
X78996235Y-70313151D01*
X78960710Y-70365881D01*
X78936289Y-70402400D01*
X78925594Y-70418820D01*
X78924788Y-70422298D01*
X78929848Y-70448249D01*
X78945007Y-70490623D01*
X78967793Y-70542192D01*
X78998759Y-70609634D01*
X79033334Y-70689659D01*
X79062696Y-70762093D01*
X79069975Y-70780841D01*
X79089040Y-70828710D01*
X79103045Y-70862060D01*
X79109371Y-70874578D01*
X79116355Y-70875514D01*
X79147743Y-70880925D01*
X79199117Y-70890270D01*
X79265132Y-70902533D01*
X79340443Y-70916696D01*
X79419705Y-70931744D01*
X79497573Y-70946659D01*
X79568700Y-70960425D01*
X79627742Y-70972026D01*
X79669352Y-70980444D01*
X79688187Y-70984663D01*
X79691310Y-70985853D01*
X79698921Y-70992269D01*
X79704584Y-71005929D01*
X79708581Y-71030463D01*
X79711196Y-71069502D01*
X79712714Y-71126677D01*
X79713416Y-71205618D01*
X79713587Y-71309956D01*
X79713587Y-71627263D01*
X79637387Y-71642303D01*
X79628170Y-71644106D01*
X79579221Y-71653444D01*
X79511535Y-71666133D01*
X79432808Y-71680737D01*
X79350730Y-71695819D01*
X79318408Y-71701886D01*
X79246185Y-71716645D01*
X79185996Y-71730601D01*
X79143370Y-71742416D01*
X79123840Y-71750751D01*
X79114990Y-71764369D01*
X79098878Y-71800402D01*
X79082395Y-71847036D01*
X79076593Y-71864498D01*
X79055236Y-71921822D01*
X79027689Y-71989665D01*
X78998437Y-72056819D01*
X78982793Y-72091894D01*
X78960504Y-72144286D01*
X78945187Y-72183522D01*
X78939492Y-72203027D01*
X78939808Y-72204500D01*
X78950611Y-72225193D01*
X78974968Y-72265129D01*
X79010411Y-72320436D01*
X79054466Y-72387245D01*
X79104662Y-72461684D01*
X79269831Y-72704087D01*
X79052833Y-72921447D01*
X79031846Y-72942363D01*
X78967672Y-73004969D01*
X78910320Y-73058959D01*
X78863150Y-73101290D01*
X78829522Y-73128921D01*
X78812797Y-73138807D01*
X78794633Y-73131285D01*
X78756595Y-73109691D01*
X78703056Y-73076615D01*
X78638214Y-73034655D01*
X78566270Y-72986407D01*
X78495605Y-72938755D01*
X78431856Y-72896792D01*
X78379843Y-72863629D01*
X78343609Y-72841842D01*
X78327197Y-72834007D01*
X78326235Y-72834078D01*
X78304433Y-72841802D01*
X78265770Y-72859787D01*
X78217942Y-72884477D01*
X78217440Y-72884748D01*
X78153917Y-72916563D01*
X78110390Y-72932106D01*
X78083382Y-72932149D01*
X78069420Y-72917464D01*
X78063510Y-72903008D01*
X78047559Y-72864295D01*
X78022990Y-72804780D01*
X77991109Y-72727629D01*
X77953223Y-72636005D01*
X77910640Y-72533071D01*
X77864667Y-72421990D01*
X77822997Y-72320936D01*
X77780598Y-72217244D01*
X77743086Y-72124583D01*
X77711718Y-72046106D01*
X77687755Y-71984964D01*
X77672453Y-71944307D01*
X77667073Y-71927289D01*
X77677348Y-71911683D01*
X77705893Y-71885626D01*
X77746301Y-71855351D01*
X77843309Y-71776148D01*
X77930123Y-71674939D01*
X77993652Y-71563580D01*
X78033507Y-71445357D01*
X78049295Y-71323559D01*
X78040626Y-71201474D01*
X78007108Y-71082389D01*
X77948351Y-70969593D01*
X77863962Y-70866375D01*
X77819961Y-70826177D01*
X77714541Y-70755102D01*
X77601740Y-70708765D01*
X77484855Y-70686063D01*
X77367183Y-70685892D01*
X77252020Y-70707151D01*
X77142665Y-70748734D01*
X77042413Y-70809540D01*
X76954563Y-70888465D01*
X76882410Y-70984405D01*
X76829252Y-71096259D01*
X76798387Y-71222921D01*
X76792722Y-71283971D01*
X76800515Y-71416240D01*
X76835614Y-71541730D01*
X76896979Y-71658223D01*
X76983573Y-71763503D01*
X77094359Y-71855351D01*
X77133261Y-71884394D01*
X77162434Y-71910736D01*
X77173587Y-71927264D01*
X77169140Y-71941673D01*
X77154708Y-71980279D01*
X77131503Y-72039665D01*
X77100782Y-72116679D01*
X77063804Y-72208167D01*
X77021826Y-72310980D01*
X76976108Y-72421966D01*
X76934508Y-72522536D01*
X76891552Y-72626411D01*
X76853159Y-72719283D01*
X76820635Y-72797989D01*
X76795288Y-72859363D01*
X76778425Y-72900243D01*
X76771355Y-72917464D01*
X76771273Y-72917668D01*
X76757128Y-72932209D01*
X76729989Y-72932043D01*
X76686353Y-72916391D01*
X76622718Y-72884477D01*
X76617709Y-72881790D01*
X76570455Y-72857614D01*
X76533141Y-72840501D01*
X76513463Y-72834007D01*
X76497335Y-72841682D01*
X76461289Y-72863335D01*
X76409422Y-72896392D01*
X76345775Y-72938274D01*
X76274390Y-72986407D01*
X76204054Y-73033595D01*
X76139000Y-73075731D01*
X76085150Y-73109042D01*
X76046704Y-73130933D01*
X76027864Y-73138807D01*
X76024655Y-73137807D01*
X76002284Y-73122048D01*
X75964063Y-73089497D01*
X75913351Y-73043197D01*
X75853511Y-72986190D01*
X75787901Y-72921522D01*
X75570978Y-72704236D01*
X75739931Y-72455717D01*
X75908883Y-72207197D01*
X75857513Y-72096059D01*
X75857361Y-72095730D01*
X75826513Y-72024882D01*
X75794991Y-71945987D01*
X75769596Y-71876064D01*
X75765753Y-71864786D01*
X75746377Y-71812431D01*
X75728904Y-71771747D01*
X75716718Y-71750751D01*
X75711756Y-71747786D01*
X75681964Y-71737839D01*
X75631377Y-71724969D01*
X75565524Y-71710517D01*
X75489930Y-71695819D01*
X75467287Y-71691674D01*
X75385368Y-71676580D01*
X75308930Y-71662363D01*
X75245667Y-71650459D01*
X75203273Y-71642303D01*
X75127073Y-71627263D01*
X75127073Y-71309956D01*
X75127090Y-71270940D01*
X75127412Y-71175756D01*
X75128363Y-71104719D01*
X75130226Y-71054198D01*
X75133285Y-71020562D01*
X75137824Y-71000182D01*
X75144125Y-70989426D01*
X75152473Y-70984663D01*
X75160554Y-70982734D01*
X75193502Y-70975909D01*
X75246066Y-70965486D01*
X75312899Y-70952482D01*
X75388658Y-70937913D01*
X75467995Y-70922797D01*
X75545567Y-70908149D01*
X75616028Y-70894987D01*
X75674032Y-70884327D01*
X75714234Y-70877185D01*
X75731289Y-70874578D01*
X75732442Y-70873005D01*
X75741715Y-70852583D01*
X75757762Y-70813509D01*
X75777965Y-70762093D01*
X75806002Y-70692817D01*
X75840516Y-70612754D01*
X75872868Y-70542192D01*
X75880282Y-70526353D01*
X75901085Y-70476757D01*
X75913549Y-70438502D01*
X75915193Y-70418820D01*
X75914345Y-70417426D01*
X75900878Y-70396884D01*
X75874180Y-70356980D01*
X75836869Y-70301604D01*
X75791564Y-70234641D01*
X75740882Y-70159981D01*
X75683775Y-70075156D01*
X75640937Y-70009264D01*
X75611790Y-69960942D01*
X75594647Y-69927197D01*
X75587825Y-69905036D01*
X75589636Y-69891466D01*
X75590245Y-69890448D01*
X75606627Y-69870674D01*
X75640025Y-69834639D01*
X75687001Y-69785915D01*
X75744116Y-69728076D01*
X75807933Y-69664691D01*
X75874132Y-69600369D01*
X75938978Y-69539911D01*
X75986629Y-69499119D01*
X76018320Y-69476948D01*
X76035288Y-69472353D01*
X76037505Y-69473385D01*
X76060854Y-69487301D01*
X76103242Y-69514494D01*
X76160699Y-69552353D01*
X76229253Y-69598267D01*
X76304931Y-69649624D01*
X76551628Y-69818090D01*
X76663036Y-69767526D01*
X76666273Y-69766061D01*
X76734673Y-69736429D01*
X76807237Y-69706957D01*
X76868787Y-69683822D01*
X76869059Y-69683726D01*
X76917925Y-69665831D01*
X76955542Y-69650717D01*
X76973787Y-69641648D01*
X76974082Y-69641319D01*
X76980276Y-69622746D01*
X76990469Y-69580509D01*
X77003678Y-69519160D01*
X77018920Y-69443253D01*
X77035211Y-69357339D01*
X77035779Y-69354260D01*
X77052043Y-69266592D01*
X77066938Y-69187205D01*
X77079501Y-69121165D01*
X77088768Y-69073543D01*
X77093774Y-69049407D01*
X77094094Y-69048069D01*
X77097390Y-69037737D01*
X77104068Y-69029970D01*
X77117792Y-69024404D01*
X77142225Y-69020671D01*
X77181032Y-69018406D01*
X77237876Y-69017242D01*
X77316420Y-69016812D01*
X77420330Y-69016750D01*
X77433386Y-69016750D01*
X77534263Y-69016835D01*
G36*
X77534263Y-69016835D02*
G01*
X77610186Y-69017329D01*
X77664821Y-69018599D01*
X77701830Y-69021011D01*
X77724877Y-69024931D01*
X77737626Y-69030726D01*
X77743741Y-69038763D01*
X77746886Y-69049407D01*
X77746976Y-69049789D01*
X77752144Y-69074811D01*
X77761539Y-69123145D01*
X77774197Y-69189724D01*
X77789155Y-69269478D01*
X77805449Y-69357339D01*
X77806778Y-69364528D01*
X77823021Y-69449804D01*
X77838135Y-69524706D01*
X77851138Y-69584683D01*
X77861045Y-69625181D01*
X77866874Y-69641648D01*
X77866905Y-69641674D01*
X77885273Y-69650784D01*
X77922970Y-69665921D01*
X77971873Y-69683822D01*
X77974627Y-69684794D01*
X78037147Y-69708423D01*
X78109873Y-69738059D01*
X78177624Y-69767526D01*
X78289033Y-69818090D01*
X78535729Y-69649624D01*
X78553105Y-69637775D01*
X78627532Y-69587411D01*
X78693944Y-69543076D01*
X78748369Y-69507380D01*
X78786836Y-69482935D01*
X78805372Y-69472353D01*
X78818073Y-69474779D01*
X78846909Y-69493574D01*
X78891473Y-69530794D01*
X78953000Y-69587484D01*
X79032728Y-69664691D01*
X79039862Y-69671719D01*
X79103126Y-69734686D01*
X79159320Y-69791732D01*
X79205007Y-69839281D01*
X79236744Y-69873761D01*
X79251094Y-69891595D01*
X79251140Y-69891681D01*
X79252963Y-69905259D01*
X79246240Y-69927284D01*
X79229276Y-69960768D01*
X79200374Y-70008725D01*
X79157838Y-70074168D01*
X79099974Y-70160109D01*
X79090113Y-70174615D01*
X79040243Y-70248099D01*
X78996235Y-70313151D01*
X78960710Y-70365881D01*
X78936289Y-70402400D01*
X78925594Y-70418820D01*
X78924788Y-70422298D01*
X78929848Y-70448249D01*
X78945007Y-70490623D01*
X78967793Y-70542192D01*
X78998759Y-70609634D01*
X79033334Y-70689659D01*
X79062696Y-70762093D01*
X79069975Y-70780841D01*
X79089040Y-70828710D01*
X79103045Y-70862060D01*
X79109371Y-70874578D01*
X79116355Y-70875514D01*
X79147743Y-70880925D01*
X79199117Y-70890270D01*
X79265132Y-70902533D01*
X79340443Y-70916696D01*
X79419705Y-70931744D01*
X79497573Y-70946659D01*
X79568700Y-70960425D01*
X79627742Y-70972026D01*
X79669352Y-70980444D01*
X79688187Y-70984663D01*
X79691310Y-70985853D01*
X79698921Y-70992269D01*
X79704584Y-71005929D01*
X79708581Y-71030463D01*
X79711196Y-71069502D01*
X79712714Y-71126677D01*
X79713416Y-71205618D01*
X79713587Y-71309956D01*
X79713587Y-71627263D01*
X79637387Y-71642303D01*
X79628170Y-71644106D01*
X79579221Y-71653444D01*
X79511535Y-71666133D01*
X79432808Y-71680737D01*
X79350730Y-71695819D01*
X79318408Y-71701886D01*
X79246185Y-71716645D01*
X79185996Y-71730601D01*
X79143370Y-71742416D01*
X79123840Y-71750751D01*
X79114990Y-71764369D01*
X79098878Y-71800402D01*
X79082395Y-71847036D01*
X79076593Y-71864498D01*
X79055236Y-71921822D01*
X79027689Y-71989665D01*
X78998437Y-72056819D01*
X78982793Y-72091894D01*
X78960504Y-72144286D01*
X78945187Y-72183522D01*
X78939492Y-72203027D01*
X78939808Y-72204500D01*
X78950611Y-72225193D01*
X78974968Y-72265129D01*
X79010411Y-72320436D01*
X79054466Y-72387245D01*
X79104662Y-72461684D01*
X79269831Y-72704087D01*
X79052833Y-72921447D01*
X79031846Y-72942363D01*
X78967672Y-73004969D01*
X78910320Y-73058959D01*
X78863150Y-73101290D01*
X78829522Y-73128921D01*
X78812797Y-73138807D01*
X78794633Y-73131285D01*
X78756595Y-73109691D01*
X78703056Y-73076615D01*
X78638214Y-73034655D01*
X78566270Y-72986407D01*
X78495605Y-72938755D01*
X78431856Y-72896792D01*
X78379843Y-72863629D01*
X78343609Y-72841842D01*
X78327197Y-72834007D01*
X78326235Y-72834078D01*
X78304433Y-72841802D01*
X78265770Y-72859787D01*
X78217942Y-72884477D01*
X78217440Y-72884748D01*
X78153917Y-72916563D01*
X78110390Y-72932106D01*
X78083382Y-72932149D01*
X78069420Y-72917464D01*
X78063510Y-72903008D01*
X78047559Y-72864295D01*
X78022990Y-72804780D01*
X77991109Y-72727629D01*
X77953223Y-72636005D01*
X77910640Y-72533071D01*
X77864667Y-72421990D01*
X77822997Y-72320936D01*
X77780598Y-72217244D01*
X77743086Y-72124583D01*
X77711718Y-72046106D01*
X77687755Y-71984964D01*
X77672453Y-71944307D01*
X77667073Y-71927289D01*
X77677348Y-71911683D01*
X77705893Y-71885626D01*
X77746301Y-71855351D01*
X77843309Y-71776148D01*
X77930123Y-71674939D01*
X77993652Y-71563580D01*
X78033507Y-71445357D01*
X78049295Y-71323559D01*
X78040626Y-71201474D01*
X78007108Y-71082389D01*
X77948351Y-70969593D01*
X77863962Y-70866375D01*
X77819961Y-70826177D01*
X77714541Y-70755102D01*
X77601740Y-70708765D01*
X77484855Y-70686063D01*
X77367183Y-70685892D01*
X77252020Y-70707151D01*
X77142665Y-70748734D01*
X77042413Y-70809540D01*
X76954563Y-70888465D01*
X76882410Y-70984405D01*
X76829252Y-71096259D01*
X76798387Y-71222921D01*
X76792722Y-71283971D01*
X76800515Y-71416240D01*
X76835614Y-71541730D01*
X76896979Y-71658223D01*
X76983573Y-71763503D01*
X77094359Y-71855351D01*
X77133261Y-71884394D01*
X77162434Y-71910736D01*
X77173587Y-71927264D01*
X77169140Y-71941673D01*
X77154708Y-71980279D01*
X77131503Y-72039665D01*
X77100782Y-72116679D01*
X77063804Y-72208167D01*
X77021826Y-72310980D01*
X76976108Y-72421966D01*
X76934508Y-72522536D01*
X76891552Y-72626411D01*
X76853159Y-72719283D01*
X76820635Y-72797989D01*
X76795288Y-72859363D01*
X76778425Y-72900243D01*
X76771355Y-72917464D01*
X76771273Y-72917668D01*
X76757128Y-72932209D01*
X76729989Y-72932043D01*
X76686353Y-72916391D01*
X76622718Y-72884477D01*
X76617709Y-72881790D01*
X76570455Y-72857614D01*
X76533141Y-72840501D01*
X76513463Y-72834007D01*
X76497335Y-72841682D01*
X76461289Y-72863335D01*
X76409422Y-72896392D01*
X76345775Y-72938274D01*
X76274390Y-72986407D01*
X76204054Y-73033595D01*
X76139000Y-73075731D01*
X76085150Y-73109042D01*
X76046704Y-73130933D01*
X76027864Y-73138807D01*
X76024655Y-73137807D01*
X76002284Y-73122048D01*
X75964063Y-73089497D01*
X75913351Y-73043197D01*
X75853511Y-72986190D01*
X75787901Y-72921522D01*
X75570978Y-72704236D01*
X75739931Y-72455717D01*
X75908883Y-72207197D01*
X75857513Y-72096059D01*
X75857361Y-72095730D01*
X75826513Y-72024882D01*
X75794991Y-71945987D01*
X75769596Y-71876064D01*
X75765753Y-71864786D01*
X75746377Y-71812431D01*
X75728904Y-71771747D01*
X75716718Y-71750751D01*
X75711756Y-71747786D01*
X75681964Y-71737839D01*
X75631377Y-71724969D01*
X75565524Y-71710517D01*
X75489930Y-71695819D01*
X75467287Y-71691674D01*
X75385368Y-71676580D01*
X75308930Y-71662363D01*
X75245667Y-71650459D01*
X75203273Y-71642303D01*
X75127073Y-71627263D01*
X75127073Y-71309956D01*
X75127090Y-71270940D01*
X75127412Y-71175756D01*
X75128363Y-71104719D01*
X75130226Y-71054198D01*
X75133285Y-71020562D01*
X75137824Y-71000182D01*
X75144125Y-70989426D01*
X75152473Y-70984663D01*
X75160554Y-70982734D01*
X75193502Y-70975909D01*
X75246066Y-70965486D01*
X75312899Y-70952482D01*
X75388658Y-70937913D01*
X75467995Y-70922797D01*
X75545567Y-70908149D01*
X75616028Y-70894987D01*
X75674032Y-70884327D01*
X75714234Y-70877185D01*
X75731289Y-70874578D01*
X75732442Y-70873005D01*
X75741715Y-70852583D01*
X75757762Y-70813509D01*
X75777965Y-70762093D01*
X75806002Y-70692817D01*
X75840516Y-70612754D01*
X75872868Y-70542192D01*
X75880282Y-70526353D01*
X75901085Y-70476757D01*
X75913549Y-70438502D01*
X75915193Y-70418820D01*
X75914345Y-70417426D01*
X75900878Y-70396884D01*
X75874180Y-70356980D01*
X75836869Y-70301604D01*
X75791564Y-70234641D01*
X75740882Y-70159981D01*
X75683775Y-70075156D01*
X75640937Y-70009264D01*
X75611790Y-69960942D01*
X75594647Y-69927197D01*
X75587825Y-69905036D01*
X75589636Y-69891466D01*
X75590245Y-69890448D01*
X75606627Y-69870674D01*
X75640025Y-69834639D01*
X75687001Y-69785915D01*
X75744116Y-69728076D01*
X75807933Y-69664691D01*
X75874132Y-69600369D01*
X75938978Y-69539911D01*
X75986629Y-69499119D01*
X76018320Y-69476948D01*
X76035288Y-69472353D01*
X76037505Y-69473385D01*
X76060854Y-69487301D01*
X76103242Y-69514494D01*
X76160699Y-69552353D01*
X76229253Y-69598267D01*
X76304931Y-69649624D01*
X76551628Y-69818090D01*
X76663036Y-69767526D01*
X76666273Y-69766061D01*
X76734673Y-69736429D01*
X76807237Y-69706957D01*
X76868787Y-69683822D01*
X76869059Y-69683726D01*
X76917925Y-69665831D01*
X76955542Y-69650717D01*
X76973787Y-69641648D01*
X76974082Y-69641319D01*
X76980276Y-69622746D01*
X76990469Y-69580509D01*
X77003678Y-69519160D01*
X77018920Y-69443253D01*
X77035211Y-69357339D01*
X77035779Y-69354260D01*
X77052043Y-69266592D01*
X77066938Y-69187205D01*
X77079501Y-69121165D01*
X77088768Y-69073543D01*
X77093774Y-69049407D01*
X77094094Y-69048069D01*
X77097390Y-69037737D01*
X77104068Y-69029970D01*
X77117792Y-69024404D01*
X77142225Y-69020671D01*
X77181032Y-69018406D01*
X77237876Y-69017242D01*
X77316420Y-69016812D01*
X77420330Y-69016750D01*
X77433386Y-69016750D01*
X77534263Y-69016835D01*
G37*
D13*
%TO.C,J2*%
X119387722Y-80523664D02*
X121087722Y-80523664D01*
X119387722Y-89863664D02*
X121087722Y-89863664D01*
%TO.C,U5*%
X109203842Y-100326013D02*
X110618055Y-98911800D01*
X110773619Y-101895790D02*
X112187832Y-100481577D01*
X110858472Y-98812805D02*
X110660482Y-98614815D01*
X111056461Y-98614815D01*
X110858472Y-98812805D01*
G36*
X110858472Y-98812805D02*
G01*
X110660482Y-98614815D01*
X111056461Y-98614815D01*
X110858472Y-98812805D01*
G37*
%TO.C,R19*%
X111441689Y-84805664D02*
X111748971Y-84805664D01*
X111441689Y-85565664D02*
X111748971Y-85565664D01*
%TO.C,U7*%
X73882830Y-88645664D02*
X74682830Y-88645664D01*
X73882830Y-91765664D02*
X74682830Y-91765664D01*
X75482830Y-88645664D02*
X74682830Y-88645664D01*
X75482830Y-91765664D02*
X74682830Y-91765664D01*
X73622830Y-92045664D02*
X73142830Y-92045664D01*
X73382830Y-91715664D01*
X73622830Y-92045664D01*
G36*
X73622830Y-92045664D02*
G01*
X73142830Y-92045664D01*
X73382830Y-91715664D01*
X73622830Y-92045664D01*
G37*
%TO.C,C25*%
X106049886Y-76623665D02*
X106265558Y-76623665D01*
X106049886Y-77343665D02*
X106265558Y-77343665D01*
%TO.C,Q1*%
X107930330Y-81027964D02*
X107930330Y-81322964D01*
X107930330Y-84272964D02*
X107930330Y-84567964D01*
X107930330Y-84567964D02*
X110770330Y-84567964D01*
X110770330Y-81027964D02*
X107930330Y-81027964D01*
X110770330Y-81322964D02*
X110770330Y-81027964D01*
X110770330Y-84567964D02*
X110770330Y-84272964D01*
X111260330Y-81317964D02*
X111020330Y-80987964D01*
X111500330Y-80987964D01*
X111260330Y-81317964D01*
G36*
X111260330Y-81317964D02*
G01*
X111020330Y-80987964D01*
X111500330Y-80987964D01*
X111260330Y-81317964D01*
G37*
%TO.C,R20*%
X111441689Y-85775664D02*
X111748971Y-85775664D01*
X111441689Y-86535664D02*
X111748971Y-86535664D01*
D14*
%TO.C,REF\u002A\u002A*%
X88333515Y-74568053D02*
X88359236Y-74583751D01*
X88385887Y-74605331D01*
X88385887Y-75252788D01*
X88359236Y-75274368D01*
X88327876Y-75291843D01*
X88292075Y-75292679D01*
X88260637Y-75272186D01*
X88256761Y-75267520D01*
X88251295Y-75258053D01*
X88247088Y-75244371D01*
X88243976Y-75223851D01*
X88241796Y-75193872D01*
X88240385Y-75151808D01*
X88239580Y-75095036D01*
X88239216Y-75020934D01*
X88239131Y-74926876D01*
X88239131Y-74605331D01*
X88265782Y-74583751D01*
X88289495Y-74568981D01*
X88312509Y-74562171D01*
X88333515Y-74568053D01*
G36*
X88333515Y-74568053D02*
G01*
X88359236Y-74583751D01*
X88385887Y-74605331D01*
X88385887Y-75252788D01*
X88359236Y-75274368D01*
X88327876Y-75291843D01*
X88292075Y-75292679D01*
X88260637Y-75272186D01*
X88256761Y-75267520D01*
X88251295Y-75258053D01*
X88247088Y-75244371D01*
X88243976Y-75223851D01*
X88241796Y-75193872D01*
X88240385Y-75151808D01*
X88239580Y-75095036D01*
X88239216Y-75020934D01*
X88239131Y-74926876D01*
X88239131Y-74605331D01*
X88265782Y-74583751D01*
X88289495Y-74568981D01*
X88312509Y-74562171D01*
X88333515Y-74568053D01*
G37*
X95464246Y-74566567D02*
X95498400Y-74589880D01*
X95526109Y-74617589D01*
X95526109Y-74930641D01*
X95526068Y-75014671D01*
X95525810Y-75088893D01*
X95525139Y-75145645D01*
X95523861Y-75187616D01*
X95521782Y-75217493D01*
X95518708Y-75237965D01*
X95514443Y-75251718D01*
X95508793Y-75261441D01*
X95501564Y-75269821D01*
X95470100Y-75291285D01*
X95434934Y-75293051D01*
X95401931Y-75273371D01*
X95396625Y-75267502D01*
X95391175Y-75258418D01*
X95387009Y-75245077D01*
X95383955Y-75224860D01*
X95381841Y-75195153D01*
X95380495Y-75153336D01*
X95379747Y-75096793D01*
X95379423Y-75022906D01*
X95379354Y-74929060D01*
X95379393Y-74853398D01*
X95379648Y-74775489D01*
X95380292Y-74715479D01*
X95381496Y-74670752D01*
X95383433Y-74638689D01*
X95386273Y-74616675D01*
X95390188Y-74602091D01*
X95395351Y-74592322D01*
X95401931Y-74584749D01*
X95431115Y-74565727D01*
X95464246Y-74566567D01*
G36*
X95464246Y-74566567D02*
G01*
X95498400Y-74589880D01*
X95526109Y-74617589D01*
X95526109Y-74930641D01*
X95526068Y-75014671D01*
X95525810Y-75088893D01*
X95525139Y-75145645D01*
X95523861Y-75187616D01*
X95521782Y-75217493D01*
X95518708Y-75237965D01*
X95514443Y-75251718D01*
X95508793Y-75261441D01*
X95501564Y-75269821D01*
X95470100Y-75291285D01*
X95434934Y-75293051D01*
X95401931Y-75273371D01*
X95396625Y-75267502D01*
X95391175Y-75258418D01*
X95387009Y-75245077D01*
X95383955Y-75224860D01*
X95381841Y-75195153D01*
X95380495Y-75153336D01*
X95379747Y-75096793D01*
X95379423Y-75022906D01*
X95379354Y-74929060D01*
X95379393Y-74853398D01*
X95379648Y-74775489D01*
X95380292Y-74715479D01*
X95381496Y-74670752D01*
X95383433Y-74638689D01*
X95386273Y-74616675D01*
X95390188Y-74602091D01*
X95395351Y-74592322D01*
X95401931Y-74584749D01*
X95431115Y-74565727D01*
X95464246Y-74566567D01*
G37*
X95430829Y-67953493D02*
X95536353Y-67979348D01*
X95636377Y-68025753D01*
X95727751Y-68092715D01*
X95807322Y-68180240D01*
X95871937Y-68288337D01*
X95889260Y-68326418D01*
X95903294Y-68365015D01*
X95911169Y-68403601D01*
X95914619Y-68451327D01*
X95915385Y-68517345D01*
X95914922Y-68572293D01*
X95912136Y-68622792D01*
X95905304Y-68662192D01*
X95892721Y-68699540D01*
X95872681Y-68743885D01*
X95866883Y-68755703D01*
X95798362Y-68863913D01*
X95712183Y-68952945D01*
X95610789Y-69020708D01*
X95496628Y-69065118D01*
X95438051Y-69077510D01*
X95319216Y-69083309D01*
X95204117Y-69064545D01*
X95096129Y-69023144D01*
X94998625Y-68961027D01*
X94914985Y-68880119D01*
X94848580Y-68782344D01*
X94802786Y-68669626D01*
X94786031Y-68577384D01*
X94784522Y-68475588D01*
X94798149Y-68376572D01*
X94826262Y-68290804D01*
X94858747Y-68229486D01*
X94931064Y-68132200D01*
X95016795Y-68055419D01*
X95112790Y-67999151D01*
X95215896Y-67963402D01*
X95322959Y-67948179D01*
X95430829Y-67953493D01*
G36*
X95430829Y-67953493D02*
G01*
X95536353Y-67979348D01*
X95636377Y-68025753D01*
X95727751Y-68092715D01*
X95807322Y-68180240D01*
X95871937Y-68288337D01*
X95889260Y-68326418D01*
X95903294Y-68365015D01*
X95911169Y-68403601D01*
X95914619Y-68451327D01*
X95915385Y-68517345D01*
X95914922Y-68572293D01*
X95912136Y-68622792D01*
X95905304Y-68662192D01*
X95892721Y-68699540D01*
X95872681Y-68743885D01*
X95866883Y-68755703D01*
X95798362Y-68863913D01*
X95712183Y-68952945D01*
X95610789Y-69020708D01*
X95496628Y-69065118D01*
X95438051Y-69077510D01*
X95319216Y-69083309D01*
X95204117Y-69064545D01*
X95096129Y-69023144D01*
X94998625Y-68961027D01*
X94914985Y-68880119D01*
X94848580Y-68782344D01*
X94802786Y-68669626D01*
X94786031Y-68577384D01*
X94784522Y-68475588D01*
X94798149Y-68376572D01*
X94826262Y-68290804D01*
X94858747Y-68229486D01*
X94931064Y-68132200D01*
X95016795Y-68055419D01*
X95112790Y-67999151D01*
X95215896Y-67963402D01*
X95322959Y-67948179D01*
X95430829Y-67953493D01*
G37*
X87633876Y-74562172D02*
X87727999Y-74562262D01*
X87802514Y-74562602D01*
X87859919Y-74563343D01*
X87902720Y-74564639D01*
X87933413Y-74566641D01*
X87954500Y-74569500D01*
X87968482Y-74573370D01*
X87977859Y-74578402D01*
X87985131Y-74584749D01*
X88003937Y-74617466D01*
X88005384Y-74655043D01*
X87989026Y-74688282D01*
X87987666Y-74689735D01*
X87976463Y-74698096D01*
X87959361Y-74703651D01*
X87932191Y-74706944D01*
X87890787Y-74708522D01*
X87830982Y-74708926D01*
X87691620Y-74708926D01*
X87691620Y-74972693D01*
X87691545Y-75048521D01*
X87691137Y-75115187D01*
X87690155Y-75164971D01*
X87688359Y-75200888D01*
X87685508Y-75225954D01*
X87681362Y-75243185D01*
X87675680Y-75255596D01*
X87668223Y-75266204D01*
X87665933Y-75269010D01*
X87634755Y-75291652D01*
X87600375Y-75293216D01*
X87567443Y-75273372D01*
X87560464Y-75265295D01*
X87554992Y-75254697D01*
X87550972Y-75238853D01*
X87548181Y-75214877D01*
X87546397Y-75179878D01*
X87545398Y-75130968D01*
X87544961Y-75065258D01*
X87544865Y-74979860D01*
X87544865Y-74708926D01*
X87398929Y-74708926D01*
X87387829Y-74708925D01*
X87331310Y-74708700D01*
X87292467Y-74707561D01*
X87267074Y-74704762D01*
X87250913Y-74699554D01*
X87239761Y-74691193D01*
X87229398Y-74678929D01*
X87213550Y-74648242D01*
X87216652Y-74614462D01*
X87242296Y-74581926D01*
X87247238Y-74578209D01*
X87257447Y-74573373D01*
X87272873Y-74569610D01*
X87295995Y-74566787D01*
X87329292Y-74564774D01*
X87375246Y-74563437D01*
X87436337Y-74562646D01*
X87515044Y-74562267D01*
X87613849Y-74562171D01*
X87633876Y-74562172D01*
G36*
X87633876Y-74562172D02*
G01*
X87727999Y-74562262D01*
X87802514Y-74562602D01*
X87859919Y-74563343D01*
X87902720Y-74564639D01*
X87933413Y-74566641D01*
X87954500Y-74569500D01*
X87968482Y-74573370D01*
X87977859Y-74578402D01*
X87985131Y-74584749D01*
X88003937Y-74617466D01*
X88005384Y-74655043D01*
X87989026Y-74688282D01*
X87987666Y-74689735D01*
X87976463Y-74698096D01*
X87959361Y-74703651D01*
X87932191Y-74706944D01*
X87890787Y-74708522D01*
X87830982Y-74708926D01*
X87691620Y-74708926D01*
X87691620Y-74972693D01*
X87691545Y-75048521D01*
X87691137Y-75115187D01*
X87690155Y-75164971D01*
X87688359Y-75200888D01*
X87685508Y-75225954D01*
X87681362Y-75243185D01*
X87675680Y-75255596D01*
X87668223Y-75266204D01*
X87665933Y-75269010D01*
X87634755Y-75291652D01*
X87600375Y-75293216D01*
X87567443Y-75273372D01*
X87560464Y-75265295D01*
X87554992Y-75254697D01*
X87550972Y-75238853D01*
X87548181Y-75214877D01*
X87546397Y-75179878D01*
X87545398Y-75130968D01*
X87544961Y-75065258D01*
X87544865Y-74979860D01*
X87544865Y-74708926D01*
X87398929Y-74708926D01*
X87387829Y-74708925D01*
X87331310Y-74708700D01*
X87292467Y-74707561D01*
X87267074Y-74704762D01*
X87250913Y-74699554D01*
X87239761Y-74691193D01*
X87229398Y-74678929D01*
X87213550Y-74648242D01*
X87216652Y-74614462D01*
X87242296Y-74581926D01*
X87247238Y-74578209D01*
X87257447Y-74573373D01*
X87272873Y-74569610D01*
X87295995Y-74566787D01*
X87329292Y-74564774D01*
X87375246Y-74563437D01*
X87436337Y-74562646D01*
X87515044Y-74562267D01*
X87613849Y-74562171D01*
X87633876Y-74562172D01*
G37*
X86957843Y-74584749D02*
X86963475Y-74590939D01*
X86968565Y-74599145D01*
X86972652Y-74610921D01*
X86975830Y-74628381D01*
X86978196Y-74653634D01*
X86979847Y-74688794D01*
X86980878Y-74735973D01*
X86981386Y-74797281D01*
X86981468Y-74874831D01*
X86981218Y-74970735D01*
X86980734Y-75087104D01*
X86980666Y-75101279D01*
X86980080Y-75163041D01*
X86978757Y-75206724D01*
X86976212Y-75236105D01*
X86971957Y-75254959D01*
X86965505Y-75267063D01*
X86956371Y-75276193D01*
X86922913Y-75293610D01*
X86887965Y-75290708D01*
X86857062Y-75266204D01*
X86848053Y-75253000D01*
X86840601Y-75234465D01*
X86836233Y-75208437D01*
X86834178Y-75169891D01*
X86833665Y-75113804D01*
X86833665Y-74991149D01*
X86336954Y-74991149D01*
X86336954Y-75125975D01*
X86336881Y-75161766D01*
X86336118Y-75208096D01*
X86333942Y-75238630D01*
X86329646Y-75257661D01*
X86322521Y-75269478D01*
X86311865Y-75278375D01*
X86279614Y-75293445D01*
X86244325Y-75290777D01*
X86213595Y-75266204D01*
X86208940Y-75259949D01*
X86203004Y-75249425D01*
X86198473Y-75235495D01*
X86195157Y-75215421D01*
X86192868Y-75186464D01*
X86191417Y-75145884D01*
X86190614Y-75090944D01*
X86190271Y-75018903D01*
X86190198Y-74927024D01*
X86190198Y-74617589D01*
X86217906Y-74589880D01*
X86249286Y-74567637D01*
X86282515Y-74564948D01*
X86314376Y-74584749D01*
X86322662Y-74594519D01*
X86330074Y-74610411D01*
X86334411Y-74634379D01*
X86336447Y-74671252D01*
X86336954Y-74725860D01*
X86336954Y-74844393D01*
X86833665Y-74844393D01*
X86833665Y-74728880D01*
X86834103Y-74677182D01*
X86836067Y-74642658D01*
X86840583Y-74620082D01*
X86848675Y-74604230D01*
X86861374Y-74589880D01*
X86892752Y-74567637D01*
X86925981Y-74564948D01*
X86957843Y-74584749D01*
G36*
X86957843Y-74584749D02*
G01*
X86963475Y-74590939D01*
X86968565Y-74599145D01*
X86972652Y-74610921D01*
X86975830Y-74628381D01*
X86978196Y-74653634D01*
X86979847Y-74688794D01*
X86980878Y-74735973D01*
X86981386Y-74797281D01*
X86981468Y-74874831D01*
X86981218Y-74970735D01*
X86980734Y-75087104D01*
X86980666Y-75101279D01*
X86980080Y-75163041D01*
X86978757Y-75206724D01*
X86976212Y-75236105D01*
X86971957Y-75254959D01*
X86965505Y-75267063D01*
X86956371Y-75276193D01*
X86922913Y-75293610D01*
X86887965Y-75290708D01*
X86857062Y-75266204D01*
X86848053Y-75253000D01*
X86840601Y-75234465D01*
X86836233Y-75208437D01*
X86834178Y-75169891D01*
X86833665Y-75113804D01*
X86833665Y-74991149D01*
X86336954Y-74991149D01*
X86336954Y-75125975D01*
X86336881Y-75161766D01*
X86336118Y-75208096D01*
X86333942Y-75238630D01*
X86329646Y-75257661D01*
X86322521Y-75269478D01*
X86311865Y-75278375D01*
X86279614Y-75293445D01*
X86244325Y-75290777D01*
X86213595Y-75266204D01*
X86208940Y-75259949D01*
X86203004Y-75249425D01*
X86198473Y-75235495D01*
X86195157Y-75215421D01*
X86192868Y-75186464D01*
X86191417Y-75145884D01*
X86190614Y-75090944D01*
X86190271Y-75018903D01*
X86190198Y-74927024D01*
X86190198Y-74617589D01*
X86217906Y-74589880D01*
X86249286Y-74567637D01*
X86282515Y-74564948D01*
X86314376Y-74584749D01*
X86322662Y-74594519D01*
X86330074Y-74610411D01*
X86334411Y-74634379D01*
X86336447Y-74671252D01*
X86336954Y-74725860D01*
X86336954Y-74844393D01*
X86833665Y-74844393D01*
X86833665Y-74728880D01*
X86834103Y-74677182D01*
X86836067Y-74642658D01*
X86840583Y-74620082D01*
X86848675Y-74604230D01*
X86861374Y-74589880D01*
X86892752Y-74567637D01*
X86925981Y-74564948D01*
X86957843Y-74584749D01*
G37*
X91663242Y-75173500D02*
X91661272Y-75206279D01*
X91658344Y-75229199D01*
X91654267Y-75245001D01*
X91648852Y-75256424D01*
X91641912Y-75266204D01*
X91618515Y-75295949D01*
X91452823Y-75295355D01*
X91418027Y-75295057D01*
X91319544Y-75291626D01*
X91238582Y-75283943D01*
X91171489Y-75271386D01*
X91114605Y-75253331D01*
X91064278Y-75229156D01*
X91060919Y-75227239D01*
X91003107Y-75190521D01*
X90960753Y-75153554D01*
X90927937Y-75110069D01*
X90898737Y-75053793D01*
X90894455Y-75044177D01*
X90871878Y-74980991D01*
X90866143Y-74935437D01*
X91015388Y-74935437D01*
X91021001Y-74960165D01*
X91026727Y-74976043D01*
X91059657Y-75035951D01*
X91106995Y-75081704D01*
X91170761Y-75114840D01*
X91252970Y-75136894D01*
X91255764Y-75137396D01*
X91302049Y-75143359D01*
X91358445Y-75147587D01*
X91413383Y-75149193D01*
X91507265Y-75149193D01*
X91507265Y-74708926D01*
X91419776Y-74709374D01*
X91352856Y-74711850D01*
X91260458Y-74723102D01*
X91181143Y-74742641D01*
X91119169Y-74769615D01*
X91088230Y-74790344D01*
X91060109Y-74820110D01*
X91036769Y-74862538D01*
X91029642Y-74878504D01*
X91017818Y-74911005D01*
X91015388Y-74935437D01*
X90866143Y-74935437D01*
X90864906Y-74925613D01*
X90873508Y-74870587D01*
X90897650Y-74808454D01*
X90898446Y-74806762D01*
X90938896Y-74737340D01*
X90989582Y-74680742D01*
X91052307Y-74636174D01*
X91128883Y-74602845D01*
X91221118Y-74579965D01*
X91330821Y-74566740D01*
X91459800Y-74562378D01*
X91463372Y-74562374D01*
X91523392Y-74562514D01*
X91565323Y-74563549D01*
X91593437Y-74566144D01*
X91612006Y-74570957D01*
X91625303Y-74578648D01*
X91637600Y-74589880D01*
X91665309Y-74617589D01*
X91665309Y-74927024D01*
X91665284Y-74988630D01*
X91665059Y-75067415D01*
X91664441Y-75128125D01*
X91663884Y-75149193D01*
X91663242Y-75173500D01*
G36*
X91663242Y-75173500D02*
G01*
X91661272Y-75206279D01*
X91658344Y-75229199D01*
X91654267Y-75245001D01*
X91648852Y-75256424D01*
X91641912Y-75266204D01*
X91618515Y-75295949D01*
X91452823Y-75295355D01*
X91418027Y-75295057D01*
X91319544Y-75291626D01*
X91238582Y-75283943D01*
X91171489Y-75271386D01*
X91114605Y-75253331D01*
X91064278Y-75229156D01*
X91060919Y-75227239D01*
X91003107Y-75190521D01*
X90960753Y-75153554D01*
X90927937Y-75110069D01*
X90898737Y-75053793D01*
X90894455Y-75044177D01*
X90871878Y-74980991D01*
X90866143Y-74935437D01*
X91015388Y-74935437D01*
X91021001Y-74960165D01*
X91026727Y-74976043D01*
X91059657Y-75035951D01*
X91106995Y-75081704D01*
X91170761Y-75114840D01*
X91252970Y-75136894D01*
X91255764Y-75137396D01*
X91302049Y-75143359D01*
X91358445Y-75147587D01*
X91413383Y-75149193D01*
X91507265Y-75149193D01*
X91507265Y-74708926D01*
X91419776Y-74709374D01*
X91352856Y-74711850D01*
X91260458Y-74723102D01*
X91181143Y-74742641D01*
X91119169Y-74769615D01*
X91088230Y-74790344D01*
X91060109Y-74820110D01*
X91036769Y-74862538D01*
X91029642Y-74878504D01*
X91017818Y-74911005D01*
X91015388Y-74935437D01*
X90866143Y-74935437D01*
X90864906Y-74925613D01*
X90873508Y-74870587D01*
X90897650Y-74808454D01*
X90898446Y-74806762D01*
X90938896Y-74737340D01*
X90989582Y-74680742D01*
X91052307Y-74636174D01*
X91128883Y-74602845D01*
X91221118Y-74579965D01*
X91330821Y-74566740D01*
X91459800Y-74562378D01*
X91463372Y-74562374D01*
X91523392Y-74562514D01*
X91565323Y-74563549D01*
X91593437Y-74566144D01*
X91612006Y-74570957D01*
X91625303Y-74578648D01*
X91637600Y-74589880D01*
X91665309Y-74617589D01*
X91665309Y-74927024D01*
X91665284Y-74988630D01*
X91665059Y-75067415D01*
X91664441Y-75128125D01*
X91663884Y-75149193D01*
X91663242Y-75173500D01*
G37*
X98754926Y-74747532D02*
X98754979Y-74828145D01*
X98754731Y-74929060D01*
X98754692Y-75004721D01*
X98754437Y-75082630D01*
X98753793Y-75142640D01*
X98752589Y-75187368D01*
X98750651Y-75219430D01*
X98747812Y-75241444D01*
X98743897Y-75256028D01*
X98738735Y-75265798D01*
X98732154Y-75273371D01*
X98725186Y-75279605D01*
X98712188Y-75286905D01*
X98693041Y-75291658D01*
X98663637Y-75294397D01*
X98619871Y-75295649D01*
X98557637Y-75295949D01*
X98508691Y-75295573D01*
X98401831Y-75291145D01*
X98312603Y-75281057D01*
X98237805Y-75264469D01*
X98174234Y-75240539D01*
X98118688Y-75208425D01*
X98067963Y-75167286D01*
X98061975Y-75161434D01*
X98025108Y-75112925D01*
X97994008Y-75052117D01*
X97972526Y-74987873D01*
X97967245Y-74949130D01*
X98114462Y-74949130D01*
X98132744Y-75000065D01*
X98162414Y-75045982D01*
X98209112Y-75088391D01*
X98270501Y-75118194D01*
X98349647Y-75137331D01*
X98351138Y-75137568D01*
X98400108Y-75143360D01*
X98458802Y-75147500D01*
X98514843Y-75149108D01*
X98607976Y-75149193D01*
X98607976Y-74708926D01*
X98531776Y-74708912D01*
X98528748Y-74708921D01*
X98477628Y-74710886D01*
X98417525Y-74715611D01*
X98360817Y-74722139D01*
X98310859Y-74731435D01*
X98236108Y-74757704D01*
X98178598Y-74797003D01*
X98137097Y-74850037D01*
X98115880Y-74901304D01*
X98114462Y-74949130D01*
X97967245Y-74949130D01*
X97964509Y-74929060D01*
X97965788Y-74907843D01*
X97978100Y-74850427D01*
X98000629Y-74790517D01*
X98029859Y-74736467D01*
X98062276Y-74696636D01*
X98081817Y-74679614D01*
X98136529Y-74640426D01*
X98196832Y-74610298D01*
X98266028Y-74588336D01*
X98347420Y-74573654D01*
X98444309Y-74565363D01*
X98559998Y-74562571D01*
X98599481Y-74562170D01*
X98645191Y-74561757D01*
X98680992Y-74563561D01*
X98708083Y-74569843D01*
X98727665Y-74582863D01*
X98740939Y-74604882D01*
X98749106Y-74638159D01*
X98753369Y-74684955D01*
X98753966Y-74708926D01*
X98754926Y-74747532D01*
G36*
X98754926Y-74747532D02*
G01*
X98754979Y-74828145D01*
X98754731Y-74929060D01*
X98754692Y-75004721D01*
X98754437Y-75082630D01*
X98753793Y-75142640D01*
X98752589Y-75187368D01*
X98750651Y-75219430D01*
X98747812Y-75241444D01*
X98743897Y-75256028D01*
X98738735Y-75265798D01*
X98732154Y-75273371D01*
X98725186Y-75279605D01*
X98712188Y-75286905D01*
X98693041Y-75291658D01*
X98663637Y-75294397D01*
X98619871Y-75295649D01*
X98557637Y-75295949D01*
X98508691Y-75295573D01*
X98401831Y-75291145D01*
X98312603Y-75281057D01*
X98237805Y-75264469D01*
X98174234Y-75240539D01*
X98118688Y-75208425D01*
X98067963Y-75167286D01*
X98061975Y-75161434D01*
X98025108Y-75112925D01*
X97994008Y-75052117D01*
X97972526Y-74987873D01*
X97967245Y-74949130D01*
X98114462Y-74949130D01*
X98132744Y-75000065D01*
X98162414Y-75045982D01*
X98209112Y-75088391D01*
X98270501Y-75118194D01*
X98349647Y-75137331D01*
X98351138Y-75137568D01*
X98400108Y-75143360D01*
X98458802Y-75147500D01*
X98514843Y-75149108D01*
X98607976Y-75149193D01*
X98607976Y-74708926D01*
X98531776Y-74708912D01*
X98528748Y-74708921D01*
X98477628Y-74710886D01*
X98417525Y-74715611D01*
X98360817Y-74722139D01*
X98310859Y-74731435D01*
X98236108Y-74757704D01*
X98178598Y-74797003D01*
X98137097Y-74850037D01*
X98115880Y-74901304D01*
X98114462Y-74949130D01*
X97967245Y-74949130D01*
X97964509Y-74929060D01*
X97965788Y-74907843D01*
X97978100Y-74850427D01*
X98000629Y-74790517D01*
X98029859Y-74736467D01*
X98062276Y-74696636D01*
X98081817Y-74679614D01*
X98136529Y-74640426D01*
X98196832Y-74610298D01*
X98266028Y-74588336D01*
X98347420Y-74573654D01*
X98444309Y-74565363D01*
X98559998Y-74562571D01*
X98599481Y-74562170D01*
X98645191Y-74561757D01*
X98680992Y-74563561D01*
X98708083Y-74569843D01*
X98727665Y-74582863D01*
X98740939Y-74604882D01*
X98749106Y-74638159D01*
X98753369Y-74684955D01*
X98753966Y-74708926D01*
X98754926Y-74747532D01*
G37*
X93810002Y-74560996D02*
X93821409Y-74567133D01*
X93831959Y-74577795D01*
X93843246Y-74591915D01*
X93847697Y-74597876D01*
X93853697Y-74608372D01*
X93858277Y-74622197D01*
X93861628Y-74642102D01*
X93863942Y-74670836D01*
X93865410Y-74711150D01*
X93866222Y-74765791D01*
X93866569Y-74837511D01*
X93866643Y-74929060D01*
X93866620Y-74987590D01*
X93866401Y-75066677D01*
X93865792Y-75127620D01*
X93864601Y-75173166D01*
X93862639Y-75206067D01*
X93859713Y-75229072D01*
X93855632Y-75244930D01*
X93850206Y-75256390D01*
X93843245Y-75266204D01*
X93812817Y-75290597D01*
X93777874Y-75293476D01*
X93740893Y-75274386D01*
X93736709Y-75270911D01*
X93728533Y-75262382D01*
X93722473Y-75250832D01*
X93718090Y-75233000D01*
X93714948Y-75205629D01*
X93712611Y-75165459D01*
X93710640Y-75109232D01*
X93708598Y-75033693D01*
X93702954Y-74814562D01*
X93437665Y-75055203D01*
X93363831Y-75121979D01*
X93298651Y-75180096D01*
X93246457Y-75225053D01*
X93205382Y-75257975D01*
X93173564Y-75279983D01*
X93149135Y-75292198D01*
X93130233Y-75295744D01*
X93114992Y-75291740D01*
X93101548Y-75281311D01*
X93088036Y-75265578D01*
X93081791Y-75257095D01*
X93076158Y-75246517D01*
X93071948Y-75232359D01*
X93068995Y-75211907D01*
X93067141Y-75182446D01*
X93066221Y-75141265D01*
X93066077Y-75085648D01*
X93066544Y-75012883D01*
X93067461Y-74920255D01*
X93070776Y-74605303D01*
X93097427Y-74583737D01*
X93123492Y-74567545D01*
X93156350Y-74564774D01*
X93190881Y-74583727D01*
X93195193Y-74587312D01*
X93203325Y-74595841D01*
X93209354Y-74607433D01*
X93213715Y-74625339D01*
X93216843Y-74652810D01*
X93219172Y-74693098D01*
X93221138Y-74749455D01*
X93223177Y-74825133D01*
X93228820Y-75044982D01*
X93409443Y-74881188D01*
X93496181Y-74802555D01*
X93571952Y-74734162D01*
X93634089Y-74678811D01*
X93684187Y-74635442D01*
X93723844Y-74602985D01*
X93754657Y-74580377D01*
X93778223Y-74566553D01*
X93796139Y-74560447D01*
X93810002Y-74560996D01*
G36*
X93810002Y-74560996D02*
G01*
X93821409Y-74567133D01*
X93831959Y-74577795D01*
X93843246Y-74591915D01*
X93847697Y-74597876D01*
X93853697Y-74608372D01*
X93858277Y-74622197D01*
X93861628Y-74642102D01*
X93863942Y-74670836D01*
X93865410Y-74711150D01*
X93866222Y-74765791D01*
X93866569Y-74837511D01*
X93866643Y-74929060D01*
X93866620Y-74987590D01*
X93866401Y-75066677D01*
X93865792Y-75127620D01*
X93864601Y-75173166D01*
X93862639Y-75206067D01*
X93859713Y-75229072D01*
X93855632Y-75244930D01*
X93850206Y-75256390D01*
X93843245Y-75266204D01*
X93812817Y-75290597D01*
X93777874Y-75293476D01*
X93740893Y-75274386D01*
X93736709Y-75270911D01*
X93728533Y-75262382D01*
X93722473Y-75250832D01*
X93718090Y-75233000D01*
X93714948Y-75205629D01*
X93712611Y-75165459D01*
X93710640Y-75109232D01*
X93708598Y-75033693D01*
X93702954Y-74814562D01*
X93437665Y-75055203D01*
X93363831Y-75121979D01*
X93298651Y-75180096D01*
X93246457Y-75225053D01*
X93205382Y-75257975D01*
X93173564Y-75279983D01*
X93149135Y-75292198D01*
X93130233Y-75295744D01*
X93114992Y-75291740D01*
X93101548Y-75281311D01*
X93088036Y-75265578D01*
X93081791Y-75257095D01*
X93076158Y-75246517D01*
X93071948Y-75232359D01*
X93068995Y-75211907D01*
X93067141Y-75182446D01*
X93066221Y-75141265D01*
X93066077Y-75085648D01*
X93066544Y-75012883D01*
X93067461Y-74920255D01*
X93070776Y-74605303D01*
X93097427Y-74583737D01*
X93123492Y-74567545D01*
X93156350Y-74564774D01*
X93190881Y-74583727D01*
X93195193Y-74587312D01*
X93203325Y-74595841D01*
X93209354Y-74607433D01*
X93213715Y-74625339D01*
X93216843Y-74652810D01*
X93219172Y-74693098D01*
X93221138Y-74749455D01*
X93223177Y-74825133D01*
X93228820Y-75044982D01*
X93409443Y-74881188D01*
X93496181Y-74802555D01*
X93571952Y-74734162D01*
X93634089Y-74678811D01*
X93684187Y-74635442D01*
X93723844Y-74602985D01*
X93754657Y-74580377D01*
X93778223Y-74566553D01*
X93796139Y-74560447D01*
X93810002Y-74560996D01*
G37*
X94607260Y-74567283D02*
X94713265Y-74583598D01*
X94807077Y-74611649D01*
X94885874Y-74650556D01*
X94946828Y-74699438D01*
X94972897Y-74732299D01*
X95002406Y-74781498D01*
X95027677Y-74835356D01*
X95045327Y-74886523D01*
X95051967Y-74927648D01*
X95050407Y-74947363D01*
X95037466Y-74998696D01*
X95014303Y-75055222D01*
X94984411Y-75109139D01*
X94951283Y-75152643D01*
X94941086Y-75162991D01*
X94874001Y-75214766D01*
X94793875Y-75254659D01*
X94707665Y-75279060D01*
X94652701Y-75287171D01*
X94559248Y-75293777D01*
X94469467Y-75291690D01*
X94386978Y-75281445D01*
X94315395Y-75263575D01*
X94258337Y-75238612D01*
X94219420Y-75207092D01*
X94218045Y-75205116D01*
X94210957Y-75179890D01*
X94206718Y-75132639D01*
X94205309Y-75063176D01*
X94206169Y-75000942D01*
X94210889Y-74953560D01*
X94222579Y-74921457D01*
X94244348Y-74901904D01*
X94279307Y-74892174D01*
X94330564Y-74889537D01*
X94401232Y-74891264D01*
X94449852Y-74894277D01*
X94500048Y-74902470D01*
X94532542Y-74916523D01*
X94550001Y-74937757D01*
X94555092Y-74967498D01*
X94554986Y-74972039D01*
X94546284Y-75006834D01*
X94522274Y-75030251D01*
X94481009Y-75043451D01*
X94420540Y-75047593D01*
X94352065Y-75047593D01*
X94352065Y-75085945D01*
X94352115Y-75095079D01*
X94354336Y-75112331D01*
X94363603Y-75122625D01*
X94384983Y-75129563D01*
X94423545Y-75136745D01*
X94429019Y-75137679D01*
X94525969Y-75147581D01*
X94615961Y-75144663D01*
X94696869Y-75129933D01*
X94766568Y-75104403D01*
X94822934Y-75069082D01*
X94863838Y-75024983D01*
X94887160Y-74973116D01*
X94890772Y-74914491D01*
X94885254Y-74885598D01*
X94858570Y-74829708D01*
X94812382Y-74784049D01*
X94747400Y-74749212D01*
X94664338Y-74725794D01*
X94639664Y-74721345D01*
X94550335Y-74710846D01*
X94470528Y-74712075D01*
X94392435Y-74725010D01*
X94357292Y-74731800D01*
X94311854Y-74732817D01*
X94280539Y-74720286D01*
X94260386Y-74693499D01*
X94254002Y-74665252D01*
X94263488Y-74634028D01*
X94272816Y-74620603D01*
X94307052Y-74597071D01*
X94359674Y-74579198D01*
X94428190Y-74567703D01*
X94510109Y-74563296D01*
X94607260Y-74567283D01*
G36*
X94607260Y-74567283D02*
G01*
X94713265Y-74583598D01*
X94807077Y-74611649D01*
X94885874Y-74650556D01*
X94946828Y-74699438D01*
X94972897Y-74732299D01*
X95002406Y-74781498D01*
X95027677Y-74835356D01*
X95045327Y-74886523D01*
X95051967Y-74927648D01*
X95050407Y-74947363D01*
X95037466Y-74998696D01*
X95014303Y-75055222D01*
X94984411Y-75109139D01*
X94951283Y-75152643D01*
X94941086Y-75162991D01*
X94874001Y-75214766D01*
X94793875Y-75254659D01*
X94707665Y-75279060D01*
X94652701Y-75287171D01*
X94559248Y-75293777D01*
X94469467Y-75291690D01*
X94386978Y-75281445D01*
X94315395Y-75263575D01*
X94258337Y-75238612D01*
X94219420Y-75207092D01*
X94218045Y-75205116D01*
X94210957Y-75179890D01*
X94206718Y-75132639D01*
X94205309Y-75063176D01*
X94206169Y-75000942D01*
X94210889Y-74953560D01*
X94222579Y-74921457D01*
X94244348Y-74901904D01*
X94279307Y-74892174D01*
X94330564Y-74889537D01*
X94401232Y-74891264D01*
X94449852Y-74894277D01*
X94500048Y-74902470D01*
X94532542Y-74916523D01*
X94550001Y-74937757D01*
X94555092Y-74967498D01*
X94554986Y-74972039D01*
X94546284Y-75006834D01*
X94522274Y-75030251D01*
X94481009Y-75043451D01*
X94420540Y-75047593D01*
X94352065Y-75047593D01*
X94352065Y-75085945D01*
X94352115Y-75095079D01*
X94354336Y-75112331D01*
X94363603Y-75122625D01*
X94384983Y-75129563D01*
X94423545Y-75136745D01*
X94429019Y-75137679D01*
X94525969Y-75147581D01*
X94615961Y-75144663D01*
X94696869Y-75129933D01*
X94766568Y-75104403D01*
X94822934Y-75069082D01*
X94863838Y-75024983D01*
X94887160Y-74973116D01*
X94890772Y-74914491D01*
X94885254Y-74885598D01*
X94858570Y-74829708D01*
X94812382Y-74784049D01*
X94747400Y-74749212D01*
X94664338Y-74725794D01*
X94639664Y-74721345D01*
X94550335Y-74710846D01*
X94470528Y-74712075D01*
X94392435Y-74725010D01*
X94357292Y-74731800D01*
X94311854Y-74732817D01*
X94280539Y-74720286D01*
X94260386Y-74693499D01*
X94254002Y-74665252D01*
X94263488Y-74634028D01*
X94272816Y-74620603D01*
X94307052Y-74597071D01*
X94359674Y-74579198D01*
X94428190Y-74567703D01*
X94510109Y-74563296D01*
X94607260Y-74567283D01*
G37*
X92657913Y-74591915D02*
X92662861Y-74598599D01*
X92668705Y-74609171D01*
X92673166Y-74623257D01*
X92676430Y-74643582D01*
X92678683Y-74672869D01*
X92680111Y-74713841D01*
X92680901Y-74769221D01*
X92681238Y-74841732D01*
X92681309Y-74934098D01*
X92681280Y-75000015D01*
X92681048Y-75078332D01*
X92680428Y-75138600D01*
X92679235Y-75183497D01*
X92677288Y-75215706D01*
X92674403Y-75237904D01*
X92670397Y-75252773D01*
X92665088Y-75262993D01*
X92658292Y-75271242D01*
X92653777Y-75275899D01*
X92645547Y-75282386D01*
X92634187Y-75287299D01*
X92616919Y-75290853D01*
X92590964Y-75293271D01*
X92553545Y-75294771D01*
X92501882Y-75295571D01*
X92433198Y-75295891D01*
X92344715Y-75295949D01*
X92325040Y-75295942D01*
X92238015Y-75295676D01*
X92170363Y-75294910D01*
X92119408Y-75293496D01*
X92082475Y-75291284D01*
X92056892Y-75288126D01*
X92039980Y-75283873D01*
X92029066Y-75278375D01*
X92018573Y-75268389D01*
X92005312Y-75237272D01*
X92006495Y-75201384D01*
X92022658Y-75169837D01*
X92024848Y-75167561D01*
X92033536Y-75161293D01*
X92046878Y-75156627D01*
X92067862Y-75153331D01*
X92099472Y-75151171D01*
X92144699Y-75149918D01*
X92206529Y-75149335D01*
X92287949Y-75149193D01*
X92534554Y-75149193D01*
X92534554Y-74991149D01*
X92372116Y-74991149D01*
X92336447Y-74991068D01*
X92280677Y-74990271D01*
X92241539Y-74988266D01*
X92215086Y-74984625D01*
X92197368Y-74978916D01*
X92184438Y-74970711D01*
X92180795Y-74967527D01*
X92162387Y-74936553D01*
X92161753Y-74900216D01*
X92179292Y-74866597D01*
X92179354Y-74866528D01*
X92189025Y-74857902D01*
X92202318Y-74851846D01*
X92223026Y-74847915D01*
X92254937Y-74845660D01*
X92301843Y-74844635D01*
X92367533Y-74844393D01*
X92535680Y-74844392D01*
X92532295Y-74779482D01*
X92528909Y-74714571D01*
X92286831Y-74711518D01*
X92261816Y-74711191D01*
X92180196Y-74709710D01*
X92117877Y-74707326D01*
X92072263Y-74703331D01*
X92040761Y-74697017D01*
X92020776Y-74687678D01*
X92009713Y-74674607D01*
X92004978Y-74657095D01*
X92003976Y-74634439D01*
X92003982Y-74632074D01*
X92005136Y-74612043D01*
X92009933Y-74596250D01*
X92020741Y-74584194D01*
X92039926Y-74575371D01*
X92069854Y-74569279D01*
X92112892Y-74565415D01*
X92171408Y-74563278D01*
X92247766Y-74562364D01*
X92344335Y-74562171D01*
X92634515Y-74562171D01*
X92657913Y-74591915D01*
G36*
X92657913Y-74591915D02*
G01*
X92662861Y-74598599D01*
X92668705Y-74609171D01*
X92673166Y-74623257D01*
X92676430Y-74643582D01*
X92678683Y-74672869D01*
X92680111Y-74713841D01*
X92680901Y-74769221D01*
X92681238Y-74841732D01*
X92681309Y-74934098D01*
X92681280Y-75000015D01*
X92681048Y-75078332D01*
X92680428Y-75138600D01*
X92679235Y-75183497D01*
X92677288Y-75215706D01*
X92674403Y-75237904D01*
X92670397Y-75252773D01*
X92665088Y-75262993D01*
X92658292Y-75271242D01*
X92653777Y-75275899D01*
X92645547Y-75282386D01*
X92634187Y-75287299D01*
X92616919Y-75290853D01*
X92590964Y-75293271D01*
X92553545Y-75294771D01*
X92501882Y-75295571D01*
X92433198Y-75295891D01*
X92344715Y-75295949D01*
X92325040Y-75295942D01*
X92238015Y-75295676D01*
X92170363Y-75294910D01*
X92119408Y-75293496D01*
X92082475Y-75291284D01*
X92056892Y-75288126D01*
X92039980Y-75283873D01*
X92029066Y-75278375D01*
X92018573Y-75268389D01*
X92005312Y-75237272D01*
X92006495Y-75201384D01*
X92022658Y-75169837D01*
X92024848Y-75167561D01*
X92033536Y-75161293D01*
X92046878Y-75156627D01*
X92067862Y-75153331D01*
X92099472Y-75151171D01*
X92144699Y-75149918D01*
X92206529Y-75149335D01*
X92287949Y-75149193D01*
X92534554Y-75149193D01*
X92534554Y-74991149D01*
X92372116Y-74991149D01*
X92336447Y-74991068D01*
X92280677Y-74990271D01*
X92241539Y-74988266D01*
X92215086Y-74984625D01*
X92197368Y-74978916D01*
X92184438Y-74970711D01*
X92180795Y-74967527D01*
X92162387Y-74936553D01*
X92161753Y-74900216D01*
X92179292Y-74866597D01*
X92179354Y-74866528D01*
X92189025Y-74857902D01*
X92202318Y-74851846D01*
X92223026Y-74847915D01*
X92254937Y-74845660D01*
X92301843Y-74844635D01*
X92367533Y-74844393D01*
X92535680Y-74844392D01*
X92532295Y-74779482D01*
X92528909Y-74714571D01*
X92286831Y-74711518D01*
X92261816Y-74711191D01*
X92180196Y-74709710D01*
X92117877Y-74707326D01*
X92072263Y-74703331D01*
X92040761Y-74697017D01*
X92020776Y-74687678D01*
X92009713Y-74674607D01*
X92004978Y-74657095D01*
X92003976Y-74634439D01*
X92003982Y-74632074D01*
X92005136Y-74612043D01*
X92009933Y-74596250D01*
X92020741Y-74584194D01*
X92039926Y-74575371D01*
X92069854Y-74569279D01*
X92112892Y-74565415D01*
X92171408Y-74563278D01*
X92247766Y-74562364D01*
X92344335Y-74562171D01*
X92634515Y-74562171D01*
X92657913Y-74591915D01*
G37*
X97334843Y-74562187D02*
X97411940Y-74562379D01*
X97470886Y-74562964D01*
X97514473Y-74564155D01*
X97545492Y-74566169D01*
X97566734Y-74569215D01*
X97580991Y-74573513D01*
X97591054Y-74579276D01*
X97599715Y-74586716D01*
X97601500Y-74588397D01*
X97608744Y-74595936D01*
X97614386Y-74604954D01*
X97618626Y-74618088D01*
X97621665Y-74637976D01*
X97623704Y-74667255D01*
X97624939Y-74708562D01*
X97625574Y-74764535D01*
X97625809Y-74837811D01*
X97625843Y-74931027D01*
X97625806Y-75003817D01*
X97625558Y-75081993D01*
X97624921Y-75142207D01*
X97623724Y-75187085D01*
X97621793Y-75219257D01*
X97618955Y-75241343D01*
X97615036Y-75255974D01*
X97609864Y-75265774D01*
X97603265Y-75273371D01*
X97599931Y-75276548D01*
X97591409Y-75282658D01*
X97579407Y-75287333D01*
X97561196Y-75290763D01*
X97534049Y-75293140D01*
X97495239Y-75294656D01*
X97442033Y-75295502D01*
X97371707Y-75295870D01*
X97281531Y-75295949D01*
X97239423Y-75295937D01*
X97158277Y-75295755D01*
X97095784Y-75295202D01*
X97049218Y-75294086D01*
X97015850Y-75292217D01*
X96992953Y-75289402D01*
X96977797Y-75285450D01*
X96967655Y-75280170D01*
X96959798Y-75273372D01*
X96945072Y-75251771D01*
X96937220Y-75222571D01*
X96942719Y-75198664D01*
X96959797Y-75171771D01*
X96964777Y-75167163D01*
X96974552Y-75160876D01*
X96988668Y-75156251D01*
X97010163Y-75153034D01*
X97042077Y-75150974D01*
X97087451Y-75149816D01*
X97149322Y-75149306D01*
X97230731Y-75149193D01*
X97479087Y-75149193D01*
X97479087Y-74991149D01*
X97317910Y-74991149D01*
X97282092Y-74991003D01*
X97216468Y-74989280D01*
X97169227Y-74984844D01*
X97137492Y-74976741D01*
X97118386Y-74964010D01*
X97109032Y-74945696D01*
X97106554Y-74920842D01*
X97107351Y-74900586D01*
X97112603Y-74878760D01*
X97125397Y-74863408D01*
X97148736Y-74853413D01*
X97185626Y-74847657D01*
X97239068Y-74845022D01*
X97312067Y-74844393D01*
X97480214Y-74844393D01*
X97476828Y-74779482D01*
X97473443Y-74714571D01*
X97225726Y-74711522D01*
X97163135Y-74710643D01*
X97094674Y-74709199D01*
X97043770Y-74707267D01*
X97007517Y-74704618D01*
X96983010Y-74701014D01*
X96967344Y-74696225D01*
X96957615Y-74690017D01*
X96951600Y-74683613D01*
X96938591Y-74651932D01*
X96942152Y-74616246D01*
X96961927Y-74585188D01*
X96965178Y-74582265D01*
X96974158Y-74575914D01*
X96986262Y-74571061D01*
X97004268Y-74567506D01*
X97030956Y-74565050D01*
X97069106Y-74563489D01*
X97121495Y-74562622D01*
X97190903Y-74562250D01*
X97280110Y-74562171D01*
X97334843Y-74562187D01*
G36*
X97334843Y-74562187D02*
G01*
X97411940Y-74562379D01*
X97470886Y-74562964D01*
X97514473Y-74564155D01*
X97545492Y-74566169D01*
X97566734Y-74569215D01*
X97580991Y-74573513D01*
X97591054Y-74579276D01*
X97599715Y-74586716D01*
X97601500Y-74588397D01*
X97608744Y-74595936D01*
X97614386Y-74604954D01*
X97618626Y-74618088D01*
X97621665Y-74637976D01*
X97623704Y-74667255D01*
X97624939Y-74708562D01*
X97625574Y-74764535D01*
X97625809Y-74837811D01*
X97625843Y-74931027D01*
X97625806Y-75003817D01*
X97625558Y-75081993D01*
X97624921Y-75142207D01*
X97623724Y-75187085D01*
X97621793Y-75219257D01*
X97618955Y-75241343D01*
X97615036Y-75255974D01*
X97609864Y-75265774D01*
X97603265Y-75273371D01*
X97599931Y-75276548D01*
X97591409Y-75282658D01*
X97579407Y-75287333D01*
X97561196Y-75290763D01*
X97534049Y-75293140D01*
X97495239Y-75294656D01*
X97442033Y-75295502D01*
X97371707Y-75295870D01*
X97281531Y-75295949D01*
X97239423Y-75295937D01*
X97158277Y-75295755D01*
X97095784Y-75295202D01*
X97049218Y-75294086D01*
X97015850Y-75292217D01*
X96992953Y-75289402D01*
X96977797Y-75285450D01*
X96967655Y-75280170D01*
X96959798Y-75273372D01*
X96945072Y-75251771D01*
X96937220Y-75222571D01*
X96942719Y-75198664D01*
X96959797Y-75171771D01*
X96964777Y-75167163D01*
X96974552Y-75160876D01*
X96988668Y-75156251D01*
X97010163Y-75153034D01*
X97042077Y-75150974D01*
X97087451Y-75149816D01*
X97149322Y-75149306D01*
X97230731Y-75149193D01*
X97479087Y-75149193D01*
X97479087Y-74991149D01*
X97317910Y-74991149D01*
X97282092Y-74991003D01*
X97216468Y-74989280D01*
X97169227Y-74984844D01*
X97137492Y-74976741D01*
X97118386Y-74964010D01*
X97109032Y-74945696D01*
X97106554Y-74920842D01*
X97107351Y-74900586D01*
X97112603Y-74878760D01*
X97125397Y-74863408D01*
X97148736Y-74853413D01*
X97185626Y-74847657D01*
X97239068Y-74845022D01*
X97312067Y-74844393D01*
X97480214Y-74844393D01*
X97476828Y-74779482D01*
X97473443Y-74714571D01*
X97225726Y-74711522D01*
X97163135Y-74710643D01*
X97094674Y-74709199D01*
X97043770Y-74707267D01*
X97007517Y-74704618D01*
X96983010Y-74701014D01*
X96967344Y-74696225D01*
X96957615Y-74690017D01*
X96951600Y-74683613D01*
X96938591Y-74651932D01*
X96942152Y-74616246D01*
X96961927Y-74585188D01*
X96965178Y-74582265D01*
X96974158Y-74575914D01*
X96986262Y-74571061D01*
X97004268Y-74567506D01*
X97030956Y-74565050D01*
X97069106Y-74563489D01*
X97121495Y-74562622D01*
X97190903Y-74562250D01*
X97280110Y-74562171D01*
X97334843Y-74562187D01*
G37*
X88767811Y-74571582D02*
X88785772Y-74590093D01*
X88806372Y-74621174D01*
X88831204Y-74666861D01*
X88861859Y-74729182D01*
X88899929Y-74810175D01*
X88914563Y-74841558D01*
X88944312Y-74904742D01*
X88970406Y-74959348D01*
X88991401Y-75002394D01*
X89005848Y-75030898D01*
X89012300Y-75041874D01*
X89013659Y-75041293D01*
X89023651Y-75027346D01*
X89040942Y-74997808D01*
X89063539Y-74956191D01*
X89089447Y-74906007D01*
X89105420Y-74874518D01*
X89134370Y-74819165D01*
X89156858Y-74780148D01*
X89175074Y-74754670D01*
X89191206Y-74739935D01*
X89207439Y-74733146D01*
X89225966Y-74731504D01*
X89236469Y-74731979D01*
X89252585Y-74736186D01*
X89267898Y-74747050D01*
X89284497Y-74767323D01*
X89304466Y-74799758D01*
X89329892Y-74847108D01*
X89362861Y-74912126D01*
X89372594Y-74931381D01*
X89397052Y-74978050D01*
X89417287Y-75014213D01*
X89431420Y-75036601D01*
X89437569Y-75041949D01*
X89438935Y-75038677D01*
X89448311Y-75017769D01*
X89465171Y-74980829D01*
X89488088Y-74930978D01*
X89515629Y-74871330D01*
X89546364Y-74805002D01*
X89573079Y-74747781D01*
X89602702Y-74685792D01*
X89625773Y-74640053D01*
X89643752Y-74608012D01*
X89658099Y-74587117D01*
X89670275Y-74574822D01*
X89681740Y-74568570D01*
X89691151Y-74565678D01*
X89716256Y-74565529D01*
X89743399Y-74580872D01*
X89744699Y-74581857D01*
X89766783Y-74604492D01*
X89777832Y-74626717D01*
X89777878Y-74627357D01*
X89773337Y-74645019D01*
X89760473Y-74679585D01*
X89740714Y-74727930D01*
X89715490Y-74786929D01*
X89686228Y-74853459D01*
X89654359Y-74924395D01*
X89621310Y-74996611D01*
X89588510Y-75066984D01*
X89557389Y-75132389D01*
X89529374Y-75189701D01*
X89505895Y-75235797D01*
X89488381Y-75267550D01*
X89478261Y-75281837D01*
X89443852Y-75295206D01*
X89402155Y-75288845D01*
X89396791Y-75284148D01*
X89380961Y-75261997D01*
X89358759Y-75225236D01*
X89332342Y-75177519D01*
X89303869Y-75122497D01*
X89224095Y-74963254D01*
X89150908Y-75109846D01*
X89141212Y-75129136D01*
X89114234Y-75181484D01*
X89090205Y-75226274D01*
X89071441Y-75259258D01*
X89060255Y-75276194D01*
X89059109Y-75277436D01*
X89030988Y-75292723D01*
X88995926Y-75294407D01*
X88964885Y-75281837D01*
X88962459Y-75278988D01*
X88950199Y-75258362D01*
X88930461Y-75220812D01*
X88904557Y-75168984D01*
X88873795Y-75105527D01*
X88839484Y-75033089D01*
X88802935Y-74954320D01*
X88782694Y-74910197D01*
X88745921Y-74829469D01*
X88717464Y-74765791D01*
X88696440Y-74716857D01*
X88681963Y-74680361D01*
X88673148Y-74653999D01*
X88669113Y-74635465D01*
X88668971Y-74622456D01*
X88671839Y-74612665D01*
X88686496Y-74591781D01*
X88713100Y-74571481D01*
X88713854Y-74571140D01*
X88733444Y-74564138D01*
X88750899Y-74563608D01*
X88767811Y-74571582D01*
G36*
X88767811Y-74571582D02*
G01*
X88785772Y-74590093D01*
X88806372Y-74621174D01*
X88831204Y-74666861D01*
X88861859Y-74729182D01*
X88899929Y-74810175D01*
X88914563Y-74841558D01*
X88944312Y-74904742D01*
X88970406Y-74959348D01*
X88991401Y-75002394D01*
X89005848Y-75030898D01*
X89012300Y-75041874D01*
X89013659Y-75041293D01*
X89023651Y-75027346D01*
X89040942Y-74997808D01*
X89063539Y-74956191D01*
X89089447Y-74906007D01*
X89105420Y-74874518D01*
X89134370Y-74819165D01*
X89156858Y-74780148D01*
X89175074Y-74754670D01*
X89191206Y-74739935D01*
X89207439Y-74733146D01*
X89225966Y-74731504D01*
X89236469Y-74731979D01*
X89252585Y-74736186D01*
X89267898Y-74747050D01*
X89284497Y-74767323D01*
X89304466Y-74799758D01*
X89329892Y-74847108D01*
X89362861Y-74912126D01*
X89372594Y-74931381D01*
X89397052Y-74978050D01*
X89417287Y-75014213D01*
X89431420Y-75036601D01*
X89437569Y-75041949D01*
X89438935Y-75038677D01*
X89448311Y-75017769D01*
X89465171Y-74980829D01*
X89488088Y-74930978D01*
X89515629Y-74871330D01*
X89546364Y-74805002D01*
X89573079Y-74747781D01*
X89602702Y-74685792D01*
X89625773Y-74640053D01*
X89643752Y-74608012D01*
X89658099Y-74587117D01*
X89670275Y-74574822D01*
X89681740Y-74568570D01*
X89691151Y-74565678D01*
X89716256Y-74565529D01*
X89743399Y-74580872D01*
X89744699Y-74581857D01*
X89766783Y-74604492D01*
X89777832Y-74626717D01*
X89777878Y-74627357D01*
X89773337Y-74645019D01*
X89760473Y-74679585D01*
X89740714Y-74727930D01*
X89715490Y-74786929D01*
X89686228Y-74853459D01*
X89654359Y-74924395D01*
X89621310Y-74996611D01*
X89588510Y-75066984D01*
X89557389Y-75132389D01*
X89529374Y-75189701D01*
X89505895Y-75235797D01*
X89488381Y-75267550D01*
X89478261Y-75281837D01*
X89443852Y-75295206D01*
X89402155Y-75288845D01*
X89396791Y-75284148D01*
X89380961Y-75261997D01*
X89358759Y-75225236D01*
X89332342Y-75177519D01*
X89303869Y-75122497D01*
X89224095Y-74963254D01*
X89150908Y-75109846D01*
X89141212Y-75129136D01*
X89114234Y-75181484D01*
X89090205Y-75226274D01*
X89071441Y-75259258D01*
X89060255Y-75276194D01*
X89059109Y-75277436D01*
X89030988Y-75292723D01*
X88995926Y-75294407D01*
X88964885Y-75281837D01*
X88962459Y-75278988D01*
X88950199Y-75258362D01*
X88930461Y-75220812D01*
X88904557Y-75168984D01*
X88873795Y-75105527D01*
X88839484Y-75033089D01*
X88802935Y-74954320D01*
X88782694Y-74910197D01*
X88745921Y-74829469D01*
X88717464Y-74765791D01*
X88696440Y-74716857D01*
X88681963Y-74680361D01*
X88673148Y-74653999D01*
X88669113Y-74635465D01*
X88668971Y-74622456D01*
X88671839Y-74612665D01*
X88686496Y-74591781D01*
X88713100Y-74571481D01*
X88713854Y-74571140D01*
X88733444Y-74564138D01*
X88750899Y-74563608D01*
X88767811Y-74571582D01*
G37*
X96318962Y-74563040D02*
X96385209Y-74568469D01*
X96440509Y-74578068D01*
X96491392Y-74592929D01*
X96562704Y-74626062D01*
X96613861Y-74668744D01*
X96644684Y-74720809D01*
X96654998Y-74782087D01*
X96654061Y-74813336D01*
X96648270Y-74838133D01*
X96633462Y-74859802D01*
X96605489Y-74887153D01*
X96597511Y-74894482D01*
X96573801Y-74915385D01*
X96551407Y-74932355D01*
X96527374Y-74946309D01*
X96498746Y-74958160D01*
X96462568Y-74968824D01*
X96415889Y-74979215D01*
X96355750Y-74990249D01*
X96279199Y-75002842D01*
X96183280Y-75017908D01*
X96164918Y-75020942D01*
X96102587Y-75034562D01*
X96057369Y-75050296D01*
X96031085Y-75067367D01*
X96025556Y-75085001D01*
X96028177Y-75089272D01*
X96046109Y-75104337D01*
X96074235Y-75120971D01*
X96087035Y-75126961D01*
X96108333Y-75134154D01*
X96134719Y-75138931D01*
X96170563Y-75141750D01*
X96220237Y-75143068D01*
X96288109Y-75143342D01*
X96305894Y-75143268D01*
X96373515Y-75142157D01*
X96438454Y-75139932D01*
X96494079Y-75136866D01*
X96533760Y-75133231D01*
X96569271Y-75129163D01*
X96598524Y-75128380D01*
X96617424Y-75132980D01*
X96632539Y-75143655D01*
X96636194Y-75147248D01*
X96652536Y-75179022D01*
X96651215Y-75214676D01*
X96632259Y-75245294D01*
X96611889Y-75256900D01*
X96575905Y-75269595D01*
X96533481Y-75279645D01*
X96530031Y-75280244D01*
X96487361Y-75285460D01*
X96429975Y-75289834D01*
X96364958Y-75292922D01*
X96299398Y-75294281D01*
X96283166Y-75294322D01*
X96184853Y-75291845D01*
X96104801Y-75283839D01*
X96039622Y-75269307D01*
X95985926Y-75247253D01*
X95940326Y-75216680D01*
X95899432Y-75176590D01*
X95879311Y-75150363D01*
X95867684Y-75120816D01*
X95864776Y-75081099D01*
X95864918Y-75069130D01*
X95868790Y-75036449D01*
X95881174Y-75009923D01*
X95906339Y-74979075D01*
X95927551Y-74956936D01*
X95953947Y-74934389D01*
X95983664Y-74916021D01*
X96019894Y-74900765D01*
X96065826Y-74887553D01*
X96124653Y-74875318D01*
X96199565Y-74862994D01*
X96293754Y-74849510D01*
X96339066Y-74842500D01*
X96407020Y-74827941D01*
X96456156Y-74811441D01*
X96485723Y-74793543D01*
X96494973Y-74774789D01*
X96483157Y-74755719D01*
X96449525Y-74736875D01*
X96446479Y-74735661D01*
X96400120Y-74723583D01*
X96337470Y-74715383D01*
X96264036Y-74711223D01*
X96185326Y-74711265D01*
X96106848Y-74715673D01*
X96034109Y-74724609D01*
X96030182Y-74725258D01*
X95981366Y-74732965D01*
X95949113Y-74736577D01*
X95928117Y-74735980D01*
X95913063Y-74731058D01*
X95898643Y-74721700D01*
X95897473Y-74720829D01*
X95872956Y-74690455D01*
X95868163Y-74654954D01*
X95883969Y-74620373D01*
X95888515Y-74615917D01*
X95918129Y-74600777D01*
X95965110Y-74587654D01*
X96025415Y-74576854D01*
X96094997Y-74568685D01*
X96169812Y-74563455D01*
X96245815Y-74561471D01*
X96318962Y-74563040D01*
G36*
X96318962Y-74563040D02*
G01*
X96385209Y-74568469D01*
X96440509Y-74578068D01*
X96491392Y-74592929D01*
X96562704Y-74626062D01*
X96613861Y-74668744D01*
X96644684Y-74720809D01*
X96654998Y-74782087D01*
X96654061Y-74813336D01*
X96648270Y-74838133D01*
X96633462Y-74859802D01*
X96605489Y-74887153D01*
X96597511Y-74894482D01*
X96573801Y-74915385D01*
X96551407Y-74932355D01*
X96527374Y-74946309D01*
X96498746Y-74958160D01*
X96462568Y-74968824D01*
X96415889Y-74979215D01*
X96355750Y-74990249D01*
X96279199Y-75002842D01*
X96183280Y-75017908D01*
X96164918Y-75020942D01*
X96102587Y-75034562D01*
X96057369Y-75050296D01*
X96031085Y-75067367D01*
X96025556Y-75085001D01*
X96028177Y-75089272D01*
X96046109Y-75104337D01*
X96074235Y-75120971D01*
X96087035Y-75126961D01*
X96108333Y-75134154D01*
X96134719Y-75138931D01*
X96170563Y-75141750D01*
X96220237Y-75143068D01*
X96288109Y-75143342D01*
X96305894Y-75143268D01*
X96373515Y-75142157D01*
X96438454Y-75139932D01*
X96494079Y-75136866D01*
X96533760Y-75133231D01*
X96569271Y-75129163D01*
X96598524Y-75128380D01*
X96617424Y-75132980D01*
X96632539Y-75143655D01*
X96636194Y-75147248D01*
X96652536Y-75179022D01*
X96651215Y-75214676D01*
X96632259Y-75245294D01*
X96611889Y-75256900D01*
X96575905Y-75269595D01*
X96533481Y-75279645D01*
X96530031Y-75280244D01*
X96487361Y-75285460D01*
X96429975Y-75289834D01*
X96364958Y-75292922D01*
X96299398Y-75294281D01*
X96283166Y-75294322D01*
X96184853Y-75291845D01*
X96104801Y-75283839D01*
X96039622Y-75269307D01*
X95985926Y-75247253D01*
X95940326Y-75216680D01*
X95899432Y-75176590D01*
X95879311Y-75150363D01*
X95867684Y-75120816D01*
X95864776Y-75081099D01*
X95864918Y-75069130D01*
X95868790Y-75036449D01*
X95881174Y-75009923D01*
X95906339Y-74979075D01*
X95927551Y-74956936D01*
X95953947Y-74934389D01*
X95983664Y-74916021D01*
X96019894Y-74900765D01*
X96065826Y-74887553D01*
X96124653Y-74875318D01*
X96199565Y-74862994D01*
X96293754Y-74849510D01*
X96339066Y-74842500D01*
X96407020Y-74827941D01*
X96456156Y-74811441D01*
X96485723Y-74793543D01*
X96494973Y-74774789D01*
X96483157Y-74755719D01*
X96449525Y-74736875D01*
X96446479Y-74735661D01*
X96400120Y-74723583D01*
X96337470Y-74715383D01*
X96264036Y-74711223D01*
X96185326Y-74711265D01*
X96106848Y-74715673D01*
X96034109Y-74724609D01*
X96030182Y-74725258D01*
X95981366Y-74732965D01*
X95949113Y-74736577D01*
X95928117Y-74735980D01*
X95913063Y-74731058D01*
X95898643Y-74721700D01*
X95897473Y-74720829D01*
X95872956Y-74690455D01*
X95868163Y-74654954D01*
X95883969Y-74620373D01*
X95888515Y-74615917D01*
X95918129Y-74600777D01*
X95965110Y-74587654D01*
X96025415Y-74576854D01*
X96094997Y-74568685D01*
X96169812Y-74563455D01*
X96245815Y-74561471D01*
X96318962Y-74563040D01*
G37*
X92318664Y-69084990D02*
X92503165Y-69101927D01*
X92674566Y-69136086D01*
X92839244Y-69188903D01*
X93003573Y-69261817D01*
X93166241Y-69354913D01*
X93340816Y-69481826D01*
X93502705Y-69628562D01*
X93648345Y-69791488D01*
X93774169Y-69966971D01*
X93876614Y-70151381D01*
X93885913Y-70171108D01*
X93963790Y-70361525D01*
X94022965Y-70559389D01*
X94064204Y-70768482D01*
X94088269Y-70992582D01*
X94095928Y-71235471D01*
X94086616Y-71486555D01*
X94057061Y-71733824D01*
X94006804Y-71965295D01*
X93935394Y-72182611D01*
X93842383Y-72387413D01*
X93727321Y-72581345D01*
X93619239Y-72729505D01*
X93470001Y-72896212D01*
X93307338Y-73039001D01*
X93131322Y-73157826D01*
X92942024Y-73252641D01*
X92739514Y-73323399D01*
X92523865Y-73370054D01*
X92521403Y-73370417D01*
X92479875Y-73374061D01*
X92417206Y-73376764D01*
X92339191Y-73378399D01*
X92251625Y-73378842D01*
X92160305Y-73377964D01*
X92096301Y-73376679D01*
X92001340Y-73373702D01*
X91925245Y-73369440D01*
X91862528Y-73363438D01*
X91807702Y-73355241D01*
X91755277Y-73344394D01*
X91696294Y-73330377D01*
X91634757Y-73314415D01*
X91579103Y-73297670D01*
X91524280Y-73278180D01*
X91465239Y-73253985D01*
X91396928Y-73223122D01*
X91314295Y-73183631D01*
X91212290Y-73133550D01*
X90930169Y-72994127D01*
X91156129Y-72622979D01*
X91185713Y-72574402D01*
X91238860Y-72487201D01*
X91286431Y-72409243D01*
X91326685Y-72343371D01*
X91357885Y-72292428D01*
X91378293Y-72259259D01*
X91386169Y-72246707D01*
X91388359Y-72247082D01*
X91406005Y-72259366D01*
X91437006Y-72284859D01*
X91476464Y-72319606D01*
X91546737Y-72379641D01*
X91672188Y-72468418D01*
X91793906Y-72530306D01*
X91881862Y-72561213D01*
X92030634Y-72592797D01*
X92176806Y-72598396D01*
X92318259Y-72578389D01*
X92452876Y-72533158D01*
X92578531Y-72463085D01*
X92693110Y-72368551D01*
X92756866Y-72298923D01*
X92846684Y-72170136D01*
X92920384Y-72020685D01*
X92978318Y-71849804D01*
X93020838Y-71656729D01*
X93022768Y-71644743D01*
X93031680Y-71567054D01*
X93038314Y-71470529D01*
X93042617Y-71361761D01*
X93044537Y-71247346D01*
X93044015Y-71133880D01*
X93041002Y-71027958D01*
X93035443Y-70936175D01*
X93027284Y-70865129D01*
X92996011Y-70704192D01*
X92943391Y-70516198D01*
X92877212Y-70351612D01*
X92797564Y-70210561D01*
X92704534Y-70093172D01*
X92598211Y-69999575D01*
X92478684Y-69929894D01*
X92346041Y-69884259D01*
X92316613Y-69878595D01*
X92242861Y-69871200D01*
X92156674Y-69868786D01*
X92067701Y-69871220D01*
X91985603Y-69878372D01*
X91920034Y-69890107D01*
X91810804Y-69927473D01*
X91684044Y-69995690D01*
X91571175Y-70085462D01*
X91551254Y-70104373D01*
X91515157Y-70137830D01*
X91489646Y-70160350D01*
X91479281Y-70167840D01*
X91476730Y-70164258D01*
X91461023Y-70141635D01*
X91432649Y-70100559D01*
X91393481Y-70043748D01*
X91345395Y-69973924D01*
X91290266Y-69893805D01*
X91229966Y-69806113D01*
X90983331Y-69447314D01*
X91038428Y-69430807D01*
X91044177Y-69428936D01*
X91081602Y-69414078D01*
X91135560Y-69390120D01*
X91199719Y-69359944D01*
X91267746Y-69326429D01*
X91297389Y-69311611D01*
X91461993Y-69235113D01*
X91613707Y-69175957D01*
X91758365Y-69132630D01*
X91901803Y-69103619D01*
X92049855Y-69087410D01*
X92208358Y-69082493D01*
X92318664Y-69084990D01*
G36*
X92318664Y-69084990D02*
G01*
X92503165Y-69101927D01*
X92674566Y-69136086D01*
X92839244Y-69188903D01*
X93003573Y-69261817D01*
X93166241Y-69354913D01*
X93340816Y-69481826D01*
X93502705Y-69628562D01*
X93648345Y-69791488D01*
X93774169Y-69966971D01*
X93876614Y-70151381D01*
X93885913Y-70171108D01*
X93963790Y-70361525D01*
X94022965Y-70559389D01*
X94064204Y-70768482D01*
X94088269Y-70992582D01*
X94095928Y-71235471D01*
X94086616Y-71486555D01*
X94057061Y-71733824D01*
X94006804Y-71965295D01*
X93935394Y-72182611D01*
X93842383Y-72387413D01*
X93727321Y-72581345D01*
X93619239Y-72729505D01*
X93470001Y-72896212D01*
X93307338Y-73039001D01*
X93131322Y-73157826D01*
X92942024Y-73252641D01*
X92739514Y-73323399D01*
X92523865Y-73370054D01*
X92521403Y-73370417D01*
X92479875Y-73374061D01*
X92417206Y-73376764D01*
X92339191Y-73378399D01*
X92251625Y-73378842D01*
X92160305Y-73377964D01*
X92096301Y-73376679D01*
X92001340Y-73373702D01*
X91925245Y-73369440D01*
X91862528Y-73363438D01*
X91807702Y-73355241D01*
X91755277Y-73344394D01*
X91696294Y-73330377D01*
X91634757Y-73314415D01*
X91579103Y-73297670D01*
X91524280Y-73278180D01*
X91465239Y-73253985D01*
X91396928Y-73223122D01*
X91314295Y-73183631D01*
X91212290Y-73133550D01*
X90930169Y-72994127D01*
X91156129Y-72622979D01*
X91185713Y-72574402D01*
X91238860Y-72487201D01*
X91286431Y-72409243D01*
X91326685Y-72343371D01*
X91357885Y-72292428D01*
X91378293Y-72259259D01*
X91386169Y-72246707D01*
X91388359Y-72247082D01*
X91406005Y-72259366D01*
X91437006Y-72284859D01*
X91476464Y-72319606D01*
X91546737Y-72379641D01*
X91672188Y-72468418D01*
X91793906Y-72530306D01*
X91881862Y-72561213D01*
X92030634Y-72592797D01*
X92176806Y-72598396D01*
X92318259Y-72578389D01*
X92452876Y-72533158D01*
X92578531Y-72463085D01*
X92693110Y-72368551D01*
X92756866Y-72298923D01*
X92846684Y-72170136D01*
X92920384Y-72020685D01*
X92978318Y-71849804D01*
X93020838Y-71656729D01*
X93022768Y-71644743D01*
X93031680Y-71567054D01*
X93038314Y-71470529D01*
X93042617Y-71361761D01*
X93044537Y-71247346D01*
X93044015Y-71133880D01*
X93041002Y-71027958D01*
X93035443Y-70936175D01*
X93027284Y-70865129D01*
X92996011Y-70704192D01*
X92943391Y-70516198D01*
X92877212Y-70351612D01*
X92797564Y-70210561D01*
X92704534Y-70093172D01*
X92598211Y-69999575D01*
X92478684Y-69929894D01*
X92346041Y-69884259D01*
X92316613Y-69878595D01*
X92242861Y-69871200D01*
X92156674Y-69868786D01*
X92067701Y-69871220D01*
X91985603Y-69878372D01*
X91920034Y-69890107D01*
X91810804Y-69927473D01*
X91684044Y-69995690D01*
X91571175Y-70085462D01*
X91551254Y-70104373D01*
X91515157Y-70137830D01*
X91489646Y-70160350D01*
X91479281Y-70167840D01*
X91476730Y-70164258D01*
X91461023Y-70141635D01*
X91432649Y-70100559D01*
X91393481Y-70043748D01*
X91345395Y-69973924D01*
X91290266Y-69893805D01*
X91229966Y-69806113D01*
X90983331Y-69447314D01*
X91038428Y-69430807D01*
X91044177Y-69428936D01*
X91081602Y-69414078D01*
X91135560Y-69390120D01*
X91199719Y-69359944D01*
X91267746Y-69326429D01*
X91297389Y-69311611D01*
X91461993Y-69235113D01*
X91613707Y-69175957D01*
X91758365Y-69132630D01*
X91901803Y-69103619D01*
X92049855Y-69087410D01*
X92208358Y-69082493D01*
X92318664Y-69084990D01*
G37*
X85848275Y-68883904D02*
X85926401Y-68884510D01*
X85985815Y-68885440D01*
X86023601Y-68886671D01*
X86036844Y-68888185D01*
X86035150Y-68892981D01*
X86022511Y-68915722D01*
X86001577Y-68948793D01*
X85999490Y-68951955D01*
X85983259Y-68977489D01*
X85969650Y-69002333D01*
X85958433Y-69029046D01*
X85949376Y-69060186D01*
X85942249Y-69098314D01*
X85936820Y-69145986D01*
X85932860Y-69205765D01*
X85930137Y-69280207D01*
X85928422Y-69371872D01*
X85927482Y-69483320D01*
X85927087Y-69617108D01*
X85927006Y-69775797D01*
X85927150Y-69899693D01*
X85927591Y-70021331D01*
X85928296Y-70131623D01*
X85929234Y-70227885D01*
X85930374Y-70307431D01*
X85931682Y-70367575D01*
X85933127Y-70405630D01*
X85934676Y-70418912D01*
X85939675Y-70416851D01*
X85961648Y-70402334D01*
X85993028Y-70378493D01*
X86038521Y-70346431D01*
X86123995Y-70299191D01*
X86221689Y-70257052D01*
X86322483Y-70224282D01*
X86407169Y-70207572D01*
X86512640Y-70196921D01*
X86626788Y-70193230D01*
X86740806Y-70196506D01*
X86845884Y-70206752D01*
X86933213Y-70223972D01*
X87022134Y-70252980D01*
X87170475Y-70323301D01*
X87307827Y-70416789D01*
X87431658Y-70531289D01*
X87539432Y-70664651D01*
X87628616Y-70814720D01*
X87650757Y-70860738D01*
X87712804Y-71015960D01*
X87761313Y-71184425D01*
X87796896Y-71369104D01*
X87820169Y-71572965D01*
X87831744Y-71798978D01*
X87832282Y-71842163D01*
X87833572Y-71945913D01*
X87830659Y-72072969D01*
X87822329Y-72185021D01*
X87807936Y-72288164D01*
X87786838Y-72388493D01*
X87758387Y-72492102D01*
X87715245Y-72615945D01*
X87636007Y-72783128D01*
X87538810Y-72932873D01*
X87425142Y-73063765D01*
X87296489Y-73174387D01*
X87154338Y-73263324D01*
X87000176Y-73329162D01*
X86835491Y-73370486D01*
X86833509Y-73370818D01*
X86713154Y-73382398D01*
X86580916Y-73380853D01*
X86446221Y-73367134D01*
X86318502Y-73342195D01*
X86207182Y-73306989D01*
X86159668Y-73285565D01*
X86097787Y-73253002D01*
X86034197Y-73215758D01*
X85975538Y-73177933D01*
X85928442Y-73143626D01*
X85899547Y-73116936D01*
X85892914Y-73109608D01*
X85885006Y-73107047D01*
X85879720Y-73119763D01*
X85875825Y-73151811D01*
X85872087Y-73207243D01*
X85865223Y-73322750D01*
X85339386Y-73326346D01*
X84813549Y-73329943D01*
X84849933Y-73267858D01*
X84852102Y-73264188D01*
X84862682Y-73246956D01*
X84872280Y-73231605D01*
X84880948Y-73216801D01*
X84888737Y-73201211D01*
X84895699Y-73183501D01*
X84901886Y-73162336D01*
X84907348Y-73136385D01*
X84912139Y-73104312D01*
X84916309Y-73064784D01*
X84919911Y-73016469D01*
X84922995Y-72958031D01*
X84925614Y-72888138D01*
X84927819Y-72805456D01*
X84929661Y-72708651D01*
X84931193Y-72596389D01*
X84932466Y-72467337D01*
X84933532Y-72320162D01*
X84934442Y-72153530D01*
X84935248Y-71966106D01*
X84936002Y-71756558D01*
X84936755Y-71523552D01*
X84937559Y-71265754D01*
X84938268Y-71043894D01*
X85933871Y-71043894D01*
X85933871Y-72471117D01*
X86002520Y-72516145D01*
X86028920Y-72532365D01*
X86089369Y-72564769D01*
X86146682Y-72590573D01*
X86171783Y-72599310D01*
X86251647Y-72616753D01*
X86352628Y-72625660D01*
X86403976Y-72627513D01*
X86451640Y-72627091D01*
X86487121Y-72622331D01*
X86518946Y-72611926D01*
X86555640Y-72594571D01*
X86626159Y-72548081D01*
X86687252Y-72482318D01*
X86736154Y-72397570D01*
X86773332Y-72292509D01*
X86799249Y-72165807D01*
X86814373Y-72016134D01*
X86819167Y-71842164D01*
X86818934Y-71802612D01*
X86812042Y-71619356D01*
X86795305Y-71459897D01*
X86768318Y-71322555D01*
X86730672Y-71205646D01*
X86681961Y-71107489D01*
X86621778Y-71026400D01*
X86596810Y-71001652D01*
X86519429Y-70950093D01*
X86428593Y-70918719D01*
X86328236Y-70907707D01*
X86222293Y-70917236D01*
X86114696Y-70947484D01*
X86009385Y-70998630D01*
X85933871Y-71043894D01*
X84938268Y-71043894D01*
X84938466Y-70981831D01*
X84945331Y-68888047D01*
X85491088Y-68884457D01*
X85530776Y-68884216D01*
X85647547Y-68883738D01*
X85754352Y-68883639D01*
X85848275Y-68883904D01*
G36*
X85848275Y-68883904D02*
G01*
X85926401Y-68884510D01*
X85985815Y-68885440D01*
X86023601Y-68886671D01*
X86036844Y-68888185D01*
X86035150Y-68892981D01*
X86022511Y-68915722D01*
X86001577Y-68948793D01*
X85999490Y-68951955D01*
X85983259Y-68977489D01*
X85969650Y-69002333D01*
X85958433Y-69029046D01*
X85949376Y-69060186D01*
X85942249Y-69098314D01*
X85936820Y-69145986D01*
X85932860Y-69205765D01*
X85930137Y-69280207D01*
X85928422Y-69371872D01*
X85927482Y-69483320D01*
X85927087Y-69617108D01*
X85927006Y-69775797D01*
X85927150Y-69899693D01*
X85927591Y-70021331D01*
X85928296Y-70131623D01*
X85929234Y-70227885D01*
X85930374Y-70307431D01*
X85931682Y-70367575D01*
X85933127Y-70405630D01*
X85934676Y-70418912D01*
X85939675Y-70416851D01*
X85961648Y-70402334D01*
X85993028Y-70378493D01*
X86038521Y-70346431D01*
X86123995Y-70299191D01*
X86221689Y-70257052D01*
X86322483Y-70224282D01*
X86407169Y-70207572D01*
X86512640Y-70196921D01*
X86626788Y-70193230D01*
X86740806Y-70196506D01*
X86845884Y-70206752D01*
X86933213Y-70223972D01*
X87022134Y-70252980D01*
X87170475Y-70323301D01*
X87307827Y-70416789D01*
X87431658Y-70531289D01*
X87539432Y-70664651D01*
X87628616Y-70814720D01*
X87650757Y-70860738D01*
X87712804Y-71015960D01*
X87761313Y-71184425D01*
X87796896Y-71369104D01*
X87820169Y-71572965D01*
X87831744Y-71798978D01*
X87832282Y-71842163D01*
X87833572Y-71945913D01*
X87830659Y-72072969D01*
X87822329Y-72185021D01*
X87807936Y-72288164D01*
X87786838Y-72388493D01*
X87758387Y-72492102D01*
X87715245Y-72615945D01*
X87636007Y-72783128D01*
X87538810Y-72932873D01*
X87425142Y-73063765D01*
X87296489Y-73174387D01*
X87154338Y-73263324D01*
X87000176Y-73329162D01*
X86835491Y-73370486D01*
X86833509Y-73370818D01*
X86713154Y-73382398D01*
X86580916Y-73380853D01*
X86446221Y-73367134D01*
X86318502Y-73342195D01*
X86207182Y-73306989D01*
X86159668Y-73285565D01*
X86097787Y-73253002D01*
X86034197Y-73215758D01*
X85975538Y-73177933D01*
X85928442Y-73143626D01*
X85899547Y-73116936D01*
X85892914Y-73109608D01*
X85885006Y-73107047D01*
X85879720Y-73119763D01*
X85875825Y-73151811D01*
X85872087Y-73207243D01*
X85865223Y-73322750D01*
X85339386Y-73326346D01*
X84813549Y-73329943D01*
X84849933Y-73267858D01*
X84852102Y-73264188D01*
X84862682Y-73246956D01*
X84872280Y-73231605D01*
X84880948Y-73216801D01*
X84888737Y-73201211D01*
X84895699Y-73183501D01*
X84901886Y-73162336D01*
X84907348Y-73136385D01*
X84912139Y-73104312D01*
X84916309Y-73064784D01*
X84919911Y-73016469D01*
X84922995Y-72958031D01*
X84925614Y-72888138D01*
X84927819Y-72805456D01*
X84929661Y-72708651D01*
X84931193Y-72596389D01*
X84932466Y-72467337D01*
X84933532Y-72320162D01*
X84934442Y-72153530D01*
X84935248Y-71966106D01*
X84936002Y-71756558D01*
X84936755Y-71523552D01*
X84937559Y-71265754D01*
X84938268Y-71043894D01*
X85933871Y-71043894D01*
X85933871Y-72471117D01*
X86002520Y-72516145D01*
X86028920Y-72532365D01*
X86089369Y-72564769D01*
X86146682Y-72590573D01*
X86171783Y-72599310D01*
X86251647Y-72616753D01*
X86352628Y-72625660D01*
X86403976Y-72627513D01*
X86451640Y-72627091D01*
X86487121Y-72622331D01*
X86518946Y-72611926D01*
X86555640Y-72594571D01*
X86626159Y-72548081D01*
X86687252Y-72482318D01*
X86736154Y-72397570D01*
X86773332Y-72292509D01*
X86799249Y-72165807D01*
X86814373Y-72016134D01*
X86819167Y-71842164D01*
X86818934Y-71802612D01*
X86812042Y-71619356D01*
X86795305Y-71459897D01*
X86768318Y-71322555D01*
X86730672Y-71205646D01*
X86681961Y-71107489D01*
X86621778Y-71026400D01*
X86596810Y-71001652D01*
X86519429Y-70950093D01*
X86428593Y-70918719D01*
X86328236Y-70907707D01*
X86222293Y-70917236D01*
X86114696Y-70947484D01*
X86009385Y-70998630D01*
X85933871Y-71043894D01*
X84938268Y-71043894D01*
X84938466Y-70981831D01*
X84945331Y-68888047D01*
X85491088Y-68884457D01*
X85530776Y-68884216D01*
X85647547Y-68883738D01*
X85754352Y-68883639D01*
X85848275Y-68883904D01*
G37*
X90936945Y-72377946D02*
X90930779Y-72488648D01*
X90917452Y-72591651D01*
X90897343Y-72677453D01*
X90865257Y-72765730D01*
X90790880Y-72911211D01*
X90695811Y-73039207D01*
X90581035Y-73148845D01*
X90447536Y-73239254D01*
X90296298Y-73309560D01*
X90128304Y-73358893D01*
X90059800Y-73370020D01*
X89961910Y-73377753D01*
X89855301Y-73379492D01*
X89748882Y-73375377D01*
X89651562Y-73365549D01*
X89572250Y-73350148D01*
X89532396Y-73338022D01*
X89441880Y-73302538D01*
X89349869Y-73257487D01*
X89265855Y-73207755D01*
X89199332Y-73158228D01*
X89198514Y-73157513D01*
X89162060Y-73126605D01*
X89134013Y-73104595D01*
X89120386Y-73096210D01*
X89118896Y-73098212D01*
X89115525Y-73119838D01*
X89113182Y-73160172D01*
X89112304Y-73212912D01*
X89112304Y-73329615D01*
X88597440Y-73329615D01*
X88583733Y-73329613D01*
X88468782Y-73329412D01*
X88363281Y-73328911D01*
X88270231Y-73328149D01*
X88192634Y-73327161D01*
X88133491Y-73325986D01*
X88095802Y-73324661D01*
X88082574Y-73323223D01*
X88082881Y-73321966D01*
X88091536Y-73303413D01*
X88109679Y-73268557D01*
X88134061Y-73223682D01*
X88185547Y-73130535D01*
X88193096Y-72210893D01*
X89167223Y-72210893D01*
X89167606Y-72283552D01*
X89169461Y-72359897D01*
X89173096Y-72415080D01*
X89178775Y-72452694D01*
X89186763Y-72476333D01*
X89197039Y-72493213D01*
X89235735Y-72539229D01*
X89287581Y-72587133D01*
X89344409Y-72629816D01*
X89398042Y-72660165D01*
X89427799Y-72671301D01*
X89496317Y-72686128D01*
X89585805Y-72693708D01*
X89680155Y-72692560D01*
X89769750Y-72676968D01*
X89844535Y-72644758D01*
X89909238Y-72594479D01*
X89927439Y-72575882D01*
X89974828Y-72512458D01*
X90000469Y-72444096D01*
X90008169Y-72361837D01*
X90006083Y-72318379D01*
X89985452Y-72228917D01*
X89942112Y-72152131D01*
X89875274Y-72087155D01*
X89784148Y-72033127D01*
X89667945Y-71989182D01*
X89621098Y-71977650D01*
X89564385Y-71969754D01*
X89493012Y-71965369D01*
X89400629Y-71963894D01*
X89385621Y-71963895D01*
X89316506Y-71964739D01*
X89257137Y-71966778D01*
X89213417Y-71969745D01*
X89191250Y-71973373D01*
X89188699Y-71974552D01*
X89180452Y-71981947D01*
X89174611Y-71996811D01*
X89170772Y-72023139D01*
X89168530Y-72064930D01*
X89167481Y-72126182D01*
X89167223Y-72210893D01*
X88193096Y-72210893D01*
X88193493Y-72162588D01*
X88194674Y-72021607D01*
X88196325Y-71841805D01*
X88198060Y-71685710D01*
X88200017Y-71551117D01*
X88202336Y-71435817D01*
X88205157Y-71337601D01*
X88208621Y-71254264D01*
X88212867Y-71183597D01*
X88218037Y-71123392D01*
X88224269Y-71071443D01*
X88231703Y-71025542D01*
X88240483Y-70983481D01*
X88250744Y-70943053D01*
X88262630Y-70902049D01*
X88276278Y-70858265D01*
X88330047Y-70720998D01*
X88403682Y-70594134D01*
X88495383Y-70485520D01*
X88605992Y-70394586D01*
X88736347Y-70320765D01*
X88887288Y-70263487D01*
X89059654Y-70222185D01*
X89254286Y-70196290D01*
X89322312Y-70191141D01*
X89436879Y-70187376D01*
X89550433Y-70190766D01*
X89668290Y-70201884D01*
X89795767Y-70221300D01*
X89938180Y-70249586D01*
X90100844Y-70287316D01*
X90138444Y-70296444D01*
X90232866Y-70318908D01*
X90322360Y-70339591D01*
X90401498Y-70357273D01*
X90464853Y-70370732D01*
X90506997Y-70378745D01*
X90604231Y-70394715D01*
X90467533Y-70726030D01*
X90433340Y-70808752D01*
X90399702Y-70889808D01*
X90370840Y-70959013D01*
X90348172Y-71012980D01*
X90333114Y-71048324D01*
X90327084Y-71061658D01*
X90326136Y-71061848D01*
X90308661Y-71055896D01*
X90274300Y-71040640D01*
X90229251Y-71018796D01*
X90135619Y-70976255D01*
X90006775Y-70929742D01*
X89874904Y-70894122D01*
X89745161Y-70870290D01*
X89622706Y-70859139D01*
X89512695Y-70861566D01*
X89420282Y-70878464D01*
X89355785Y-70905276D01*
X89282537Y-70960222D01*
X89226150Y-71034764D01*
X89188238Y-71126607D01*
X89170417Y-71233459D01*
X89164140Y-71331939D01*
X89491762Y-71332837D01*
X89602249Y-71333763D01*
X89724455Y-71337053D01*
X89828852Y-71343263D01*
X89920841Y-71352996D01*
X90005821Y-71366855D01*
X90089194Y-71385445D01*
X90176358Y-71409370D01*
X90306777Y-71454908D01*
X90460177Y-71529900D01*
X90594805Y-71621759D01*
X90709333Y-71729192D01*
X90802433Y-71850907D01*
X90872778Y-71985613D01*
X90919040Y-72132017D01*
X90926285Y-72171448D01*
X90935573Y-72269045D01*
X90936743Y-72361837D01*
X90936945Y-72377946D01*
G36*
X90936945Y-72377946D02*
G01*
X90930779Y-72488648D01*
X90917452Y-72591651D01*
X90897343Y-72677453D01*
X90865257Y-72765730D01*
X90790880Y-72911211D01*
X90695811Y-73039207D01*
X90581035Y-73148845D01*
X90447536Y-73239254D01*
X90296298Y-73309560D01*
X90128304Y-73358893D01*
X90059800Y-73370020D01*
X89961910Y-73377753D01*
X89855301Y-73379492D01*
X89748882Y-73375377D01*
X89651562Y-73365549D01*
X89572250Y-73350148D01*
X89532396Y-73338022D01*
X89441880Y-73302538D01*
X89349869Y-73257487D01*
X89265855Y-73207755D01*
X89199332Y-73158228D01*
X89198514Y-73157513D01*
X89162060Y-73126605D01*
X89134013Y-73104595D01*
X89120386Y-73096210D01*
X89118896Y-73098212D01*
X89115525Y-73119838D01*
X89113182Y-73160172D01*
X89112304Y-73212912D01*
X89112304Y-73329615D01*
X88597440Y-73329615D01*
X88583733Y-73329613D01*
X88468782Y-73329412D01*
X88363281Y-73328911D01*
X88270231Y-73328149D01*
X88192634Y-73327161D01*
X88133491Y-73325986D01*
X88095802Y-73324661D01*
X88082574Y-73323223D01*
X88082881Y-73321966D01*
X88091536Y-73303413D01*
X88109679Y-73268557D01*
X88134061Y-73223682D01*
X88185547Y-73130535D01*
X88193096Y-72210893D01*
X89167223Y-72210893D01*
X89167606Y-72283552D01*
X89169461Y-72359897D01*
X89173096Y-72415080D01*
X89178775Y-72452694D01*
X89186763Y-72476333D01*
X89197039Y-72493213D01*
X89235735Y-72539229D01*
X89287581Y-72587133D01*
X89344409Y-72629816D01*
X89398042Y-72660165D01*
X89427799Y-72671301D01*
X89496317Y-72686128D01*
X89585805Y-72693708D01*
X89680155Y-72692560D01*
X89769750Y-72676968D01*
X89844535Y-72644758D01*
X89909238Y-72594479D01*
X89927439Y-72575882D01*
X89974828Y-72512458D01*
X90000469Y-72444096D01*
X90008169Y-72361837D01*
X90006083Y-72318379D01*
X89985452Y-72228917D01*
X89942112Y-72152131D01*
X89875274Y-72087155D01*
X89784148Y-72033127D01*
X89667945Y-71989182D01*
X89621098Y-71977650D01*
X89564385Y-71969754D01*
X89493012Y-71965369D01*
X89400629Y-71963894D01*
X89385621Y-71963895D01*
X89316506Y-71964739D01*
X89257137Y-71966778D01*
X89213417Y-71969745D01*
X89191250Y-71973373D01*
X89188699Y-71974552D01*
X89180452Y-71981947D01*
X89174611Y-71996811D01*
X89170772Y-72023139D01*
X89168530Y-72064930D01*
X89167481Y-72126182D01*
X89167223Y-72210893D01*
X88193096Y-72210893D01*
X88193493Y-72162588D01*
X88194674Y-72021607D01*
X88196325Y-71841805D01*
X88198060Y-71685710D01*
X88200017Y-71551117D01*
X88202336Y-71435817D01*
X88205157Y-71337601D01*
X88208621Y-71254264D01*
X88212867Y-71183597D01*
X88218037Y-71123392D01*
X88224269Y-71071443D01*
X88231703Y-71025542D01*
X88240483Y-70983481D01*
X88250744Y-70943053D01*
X88262630Y-70902049D01*
X88276278Y-70858265D01*
X88330047Y-70720998D01*
X88403682Y-70594134D01*
X88495383Y-70485520D01*
X88605992Y-70394586D01*
X88736347Y-70320765D01*
X88887288Y-70263487D01*
X89059654Y-70222185D01*
X89254286Y-70196290D01*
X89322312Y-70191141D01*
X89436879Y-70187376D01*
X89550433Y-70190766D01*
X89668290Y-70201884D01*
X89795767Y-70221300D01*
X89938180Y-70249586D01*
X90100844Y-70287316D01*
X90138444Y-70296444D01*
X90232866Y-70318908D01*
X90322360Y-70339591D01*
X90401498Y-70357273D01*
X90464853Y-70370732D01*
X90506997Y-70378745D01*
X90604231Y-70394715D01*
X90467533Y-70726030D01*
X90433340Y-70808752D01*
X90399702Y-70889808D01*
X90370840Y-70959013D01*
X90348172Y-71012980D01*
X90333114Y-71048324D01*
X90327084Y-71061658D01*
X90326136Y-71061848D01*
X90308661Y-71055896D01*
X90274300Y-71040640D01*
X90229251Y-71018796D01*
X90135619Y-70976255D01*
X90006775Y-70929742D01*
X89874904Y-70894122D01*
X89745161Y-70870290D01*
X89622706Y-70859139D01*
X89512695Y-70861566D01*
X89420282Y-70878464D01*
X89355785Y-70905276D01*
X89282537Y-70960222D01*
X89226150Y-71034764D01*
X89188238Y-71126607D01*
X89170417Y-71233459D01*
X89164140Y-71331939D01*
X89491762Y-71332837D01*
X89602249Y-71333763D01*
X89724455Y-71337053D01*
X89828852Y-71343263D01*
X89920841Y-71352996D01*
X90005821Y-71366855D01*
X90089194Y-71385445D01*
X90176358Y-71409370D01*
X90306777Y-71454908D01*
X90460177Y-71529900D01*
X90594805Y-71621759D01*
X90709333Y-71729192D01*
X90802433Y-71850907D01*
X90872778Y-71985613D01*
X90919040Y-72132017D01*
X90926285Y-72171448D01*
X90935573Y-72269045D01*
X90936743Y-72361837D01*
X90936945Y-72377946D01*
G37*
X100147762Y-73356752D02*
X100146349Y-73463222D01*
X100144594Y-73554936D01*
X100142463Y-73633029D01*
X100139919Y-73698636D01*
X100136928Y-73752893D01*
X100133452Y-73796935D01*
X100129457Y-73831897D01*
X100124906Y-73858915D01*
X100119764Y-73879124D01*
X100113996Y-73893659D01*
X100107565Y-73903656D01*
X100100436Y-73910250D01*
X100092572Y-73914577D01*
X100083939Y-73917771D01*
X100074501Y-73920968D01*
X100064221Y-73925303D01*
X100058437Y-73927475D01*
X100047828Y-73929848D01*
X100032062Y-73932022D01*
X100010027Y-73934005D01*
X99980607Y-73935808D01*
X99942686Y-73937437D01*
X99895149Y-73938903D01*
X99836881Y-73940213D01*
X99766767Y-73941377D01*
X99683691Y-73942403D01*
X99586538Y-73943300D01*
X99474193Y-73944077D01*
X99345543Y-73944742D01*
X99199467Y-73945303D01*
X99034855Y-73945772D01*
X98850590Y-73946154D01*
X98645557Y-73946459D01*
X98418641Y-73946697D01*
X98168726Y-73946875D01*
X97894698Y-73947003D01*
X97595441Y-73947088D01*
X97269838Y-73947140D01*
X97166656Y-73947150D01*
X96848120Y-73947157D01*
X96555604Y-73947117D01*
X96288005Y-73947022D01*
X96044221Y-73946865D01*
X95823149Y-73946637D01*
X95623689Y-73946331D01*
X95444738Y-73945937D01*
X95285193Y-73945450D01*
X95143953Y-73944859D01*
X95019916Y-73944159D01*
X94911980Y-73943339D01*
X94819043Y-73942394D01*
X94740002Y-73941312D01*
X94673756Y-73940089D01*
X94619202Y-73938715D01*
X94575239Y-73937183D01*
X94540764Y-73935484D01*
X94514676Y-73933610D01*
X94495873Y-73931554D01*
X94483252Y-73929308D01*
X94475711Y-73926862D01*
X94473312Y-73925774D01*
X94463490Y-73922199D01*
X94454483Y-73919588D01*
X94446253Y-73916805D01*
X94438767Y-73912712D01*
X94431985Y-73906172D01*
X94425873Y-73896049D01*
X94420392Y-73881205D01*
X94415507Y-73860504D01*
X94411181Y-73832808D01*
X94407378Y-73796980D01*
X94404060Y-73751885D01*
X94401192Y-73696384D01*
X94398739Y-73629341D01*
X94396661Y-73549619D01*
X94394924Y-73456082D01*
X94393491Y-73347591D01*
X94393020Y-73297352D01*
X94755072Y-73297352D01*
X94755469Y-73302163D01*
X94762752Y-73306062D01*
X94779206Y-73309144D01*
X94807118Y-73311506D01*
X94848774Y-73313243D01*
X94906459Y-73314448D01*
X94982459Y-73315220D01*
X95079061Y-73315653D01*
X95198551Y-73315843D01*
X95343213Y-73315885D01*
X95949190Y-73315885D01*
X95897963Y-73223210D01*
X95846736Y-73130534D01*
X95846736Y-70439507D01*
X95897963Y-70346831D01*
X95949190Y-70254156D01*
X94866028Y-70254156D01*
X94858196Y-73103074D01*
X94819797Y-73185080D01*
X94799553Y-73225727D01*
X94776630Y-73266444D01*
X94759318Y-73291486D01*
X94759275Y-73291534D01*
X94755072Y-73297352D01*
X94393020Y-73297352D01*
X94392322Y-73223010D01*
X94391387Y-73081202D01*
X94390644Y-72921031D01*
X94390060Y-72741359D01*
X94389596Y-72541049D01*
X94389217Y-72318964D01*
X94388886Y-72073969D01*
X94388566Y-71804924D01*
X94388221Y-71510694D01*
X94387815Y-71190142D01*
X94387762Y-71151336D01*
X94387309Y-70832815D01*
X94386876Y-70540484D01*
X94386494Y-70273205D01*
X94386197Y-70029841D01*
X94386015Y-69809254D01*
X94385982Y-69610307D01*
X94386127Y-69431862D01*
X94386487Y-69272783D01*
X94387091Y-69131931D01*
X94387971Y-69008169D01*
X94389159Y-68900359D01*
X94390688Y-68807365D01*
X94392589Y-68728049D01*
X94394895Y-68661272D01*
X94397638Y-68605899D01*
X94400849Y-68560791D01*
X94404562Y-68524811D01*
X94408807Y-68496821D01*
X94413618Y-68475684D01*
X94419025Y-68460263D01*
X94425061Y-68449420D01*
X94431760Y-68442019D01*
X94439152Y-68436919D01*
X94447268Y-68432985D01*
X94456142Y-68429080D01*
X94465806Y-68424066D01*
X94468634Y-68422468D01*
X94511421Y-68407001D01*
X94558260Y-68400644D01*
X94611061Y-68400646D01*
X94611941Y-68520779D01*
X94612164Y-68534604D01*
X94628946Y-68675127D01*
X94671690Y-68807347D01*
X94739800Y-68929864D01*
X94832685Y-69041275D01*
X94882529Y-69086715D01*
X94993512Y-69162032D01*
X95114605Y-69214555D01*
X95242282Y-69244254D01*
X95373014Y-69251102D01*
X95503277Y-69235071D01*
X95629542Y-69196133D01*
X95733339Y-69142047D01*
X96192724Y-69142047D01*
X96253136Y-69185511D01*
X96304227Y-69226360D01*
X96376220Y-69292988D01*
X96457878Y-69376492D01*
X96546107Y-69473690D01*
X96637817Y-69581400D01*
X96661434Y-69610202D01*
X96701644Y-69659603D01*
X96754204Y-69724418D01*
X96817373Y-69802478D01*
X96889409Y-69891623D01*
X96968571Y-69989690D01*
X97053119Y-70094516D01*
X97141310Y-70203936D01*
X97181761Y-70254156D01*
X97231404Y-70315788D01*
X97321657Y-70427909D01*
X97410332Y-70538135D01*
X97495685Y-70644304D01*
X97575975Y-70744252D01*
X97649461Y-70835815D01*
X97714402Y-70916831D01*
X97769057Y-70985136D01*
X97811684Y-71038567D01*
X97840541Y-71074960D01*
X97853888Y-71092154D01*
X97854990Y-71098615D01*
X97851325Y-71110904D01*
X97841830Y-71130237D01*
X97825556Y-71157986D01*
X97801553Y-71195521D01*
X97768877Y-71244216D01*
X97726578Y-71305441D01*
X97673708Y-71380566D01*
X97609320Y-71470964D01*
X97532466Y-71578006D01*
X97442197Y-71703064D01*
X97337566Y-71847508D01*
X97217626Y-72012710D01*
X97122059Y-72144209D01*
X97005465Y-72304517D01*
X96902905Y-72445299D01*
X96813186Y-72568116D01*
X96735117Y-72674531D01*
X96667505Y-72766107D01*
X96609155Y-72844406D01*
X96558877Y-72910991D01*
X96515478Y-72967423D01*
X96477763Y-73015266D01*
X96444542Y-73056081D01*
X96414620Y-73091432D01*
X96386806Y-73122880D01*
X96359907Y-73151988D01*
X96332730Y-73180318D01*
X96304082Y-73209434D01*
X96198509Y-73315885D01*
X97617871Y-73315943D01*
X97613412Y-73229931D01*
X97613196Y-73225609D01*
X97612349Y-73191225D01*
X97613954Y-73158279D01*
X97619083Y-73124970D01*
X97628810Y-73089490D01*
X97644208Y-73050037D01*
X97666351Y-73004805D01*
X97696312Y-72951989D01*
X97735166Y-72889786D01*
X97783983Y-72816389D01*
X97843839Y-72729996D01*
X97915807Y-72628802D01*
X98000960Y-72511000D01*
X98100371Y-72374788D01*
X98215115Y-72218361D01*
X98620141Y-71666953D01*
X98623710Y-72306294D01*
X98624026Y-72365932D01*
X98624584Y-72526569D01*
X98624330Y-72663201D01*
X98622967Y-72778415D01*
X98620194Y-72874795D01*
X98615715Y-72954928D01*
X98609229Y-73021399D01*
X98600440Y-73076795D01*
X98589047Y-73123700D01*
X98574752Y-73164700D01*
X98557257Y-73202382D01*
X98536264Y-73239329D01*
X98511473Y-73278129D01*
X98486551Y-73315885D01*
X99781702Y-73315885D01*
X99748246Y-73271264D01*
X99743007Y-73264205D01*
X99701119Y-73199506D01*
X99672244Y-73134102D01*
X99653282Y-73059160D01*
X99641138Y-72965845D01*
X99640804Y-72961777D01*
X99639042Y-72923287D01*
X99637450Y-72859068D01*
X99636037Y-72770588D01*
X99634809Y-72659315D01*
X99633773Y-72526715D01*
X99632935Y-72374257D01*
X99632303Y-72203408D01*
X99631884Y-72015634D01*
X99631685Y-71812405D01*
X99631711Y-71595186D01*
X99631972Y-71365447D01*
X99632472Y-71124653D01*
X99633002Y-70908659D01*
X99633569Y-70673546D01*
X99634128Y-70463191D01*
X99634747Y-70276118D01*
X99635498Y-70110853D01*
X99636451Y-69965925D01*
X99637674Y-69839859D01*
X99639240Y-69731180D01*
X99641218Y-69638416D01*
X99643677Y-69560092D01*
X99646688Y-69494734D01*
X99650321Y-69440871D01*
X99654646Y-69397025D01*
X99659733Y-69361725D01*
X99665652Y-69333497D01*
X99672474Y-69310867D01*
X99680268Y-69292361D01*
X99689105Y-69276506D01*
X99699053Y-69261827D01*
X99710186Y-69246852D01*
X99722571Y-69230105D01*
X99734549Y-69213324D01*
X99757702Y-69180143D01*
X99771570Y-69159210D01*
X99771905Y-69158333D01*
X99767063Y-69154373D01*
X99749974Y-69151071D01*
X99718738Y-69148373D01*
X99671452Y-69146229D01*
X99606215Y-69144588D01*
X99521127Y-69143401D01*
X99414284Y-69142615D01*
X99283786Y-69142181D01*
X99127731Y-69142047D01*
X98473539Y-69142046D01*
X98508017Y-69183023D01*
X98527999Y-69211165D01*
X98561260Y-69277520D01*
X98590408Y-69360047D01*
X98612655Y-69451591D01*
X98614073Y-69460281D01*
X98618291Y-69506095D01*
X98621486Y-69576901D01*
X98623666Y-69673187D01*
X98624838Y-69795444D01*
X98625012Y-69944164D01*
X98624195Y-70119834D01*
X98620142Y-70706324D01*
X98201385Y-70176771D01*
X98189391Y-70161603D01*
X98083198Y-70027167D01*
X97992538Y-69912036D01*
X97915968Y-69814251D01*
X97852044Y-69731855D01*
X97799324Y-69662890D01*
X97756366Y-69605398D01*
X97721726Y-69557422D01*
X97693962Y-69517005D01*
X97671631Y-69482188D01*
X97653289Y-69451015D01*
X97637495Y-69421527D01*
X97622805Y-69391767D01*
X97600207Y-69339089D01*
X97585607Y-69283518D01*
X97581725Y-69223578D01*
X97582115Y-69142046D01*
X96192724Y-69142047D01*
X95733339Y-69142047D01*
X95748283Y-69134260D01*
X95855974Y-69049423D01*
X95885911Y-69019514D01*
X95974394Y-68908774D01*
X96037181Y-68788596D01*
X96074606Y-68658203D01*
X96087006Y-68516822D01*
X96087006Y-68400642D01*
X98057905Y-68400642D01*
X98181037Y-68400637D01*
X98445560Y-68400601D01*
X98684519Y-68400575D01*
X98899234Y-68400611D01*
X99091030Y-68400761D01*
X99261224Y-68401078D01*
X99411140Y-68401614D01*
X99542099Y-68402420D01*
X99655422Y-68403551D01*
X99752431Y-68405056D01*
X99834446Y-68406988D01*
X99902791Y-68409403D01*
X99958785Y-68412348D01*
X100003750Y-68415878D01*
X100039008Y-68420045D01*
X100065880Y-68424902D01*
X100085688Y-68430498D01*
X100099752Y-68436889D01*
X100109395Y-68444124D01*
X100115937Y-68452258D01*
X100120702Y-68461343D01*
X100125009Y-68471430D01*
X100130180Y-68482570D01*
X100130272Y-68482753D01*
X100132784Y-68490046D01*
X100135085Y-68502259D01*
X100137189Y-68520517D01*
X100139103Y-68545949D01*
X100140835Y-68579681D01*
X100142395Y-68622840D01*
X100143790Y-68676553D01*
X100145030Y-68741946D01*
X100146124Y-68820150D01*
X100147080Y-68912288D01*
X100147907Y-69019488D01*
X100148614Y-69142878D01*
X100149210Y-69283583D01*
X100149702Y-69442732D01*
X100150101Y-69621452D01*
X100150415Y-69820869D01*
X100150649Y-70042110D01*
X100150819Y-70286302D01*
X100150929Y-70554573D01*
X100150989Y-70848049D01*
X100151006Y-71167858D01*
X100151006Y-71230685D01*
X100151037Y-71547161D01*
X100151084Y-71837527D01*
X100151112Y-72102919D01*
X100151084Y-72344472D01*
X100150968Y-72563322D01*
X100150722Y-72760603D01*
X100150315Y-72937451D01*
X100149710Y-73095002D01*
X100148871Y-73234391D01*
X100148131Y-73315885D01*
X100147762Y-73356752D01*
G36*
X100147762Y-73356752D02*
G01*
X100146349Y-73463222D01*
X100144594Y-73554936D01*
X100142463Y-73633029D01*
X100139919Y-73698636D01*
X100136928Y-73752893D01*
X100133452Y-73796935D01*
X100129457Y-73831897D01*
X100124906Y-73858915D01*
X100119764Y-73879124D01*
X100113996Y-73893659D01*
X100107565Y-73903656D01*
X100100436Y-73910250D01*
X100092572Y-73914577D01*
X100083939Y-73917771D01*
X100074501Y-73920968D01*
X100064221Y-73925303D01*
X100058437Y-73927475D01*
X100047828Y-73929848D01*
X100032062Y-73932022D01*
X100010027Y-73934005D01*
X99980607Y-73935808D01*
X99942686Y-73937437D01*
X99895149Y-73938903D01*
X99836881Y-73940213D01*
X99766767Y-73941377D01*
X99683691Y-73942403D01*
X99586538Y-73943300D01*
X99474193Y-73944077D01*
X99345543Y-73944742D01*
X99199467Y-73945303D01*
X99034855Y-73945772D01*
X98850590Y-73946154D01*
X98645557Y-73946459D01*
X98418641Y-73946697D01*
X98168726Y-73946875D01*
X97894698Y-73947003D01*
X97595441Y-73947088D01*
X97269838Y-73947140D01*
X97166656Y-73947150D01*
X96848120Y-73947157D01*
X96555604Y-73947117D01*
X96288005Y-73947022D01*
X96044221Y-73946865D01*
X95823149Y-73946637D01*
X95623689Y-73946331D01*
X95444738Y-73945937D01*
X95285193Y-73945450D01*
X95143953Y-73944859D01*
X95019916Y-73944159D01*
X94911980Y-73943339D01*
X94819043Y-73942394D01*
X94740002Y-73941312D01*
X94673756Y-73940089D01*
X94619202Y-73938715D01*
X94575239Y-73937183D01*
X94540764Y-73935484D01*
X94514676Y-73933610D01*
X94495873Y-73931554D01*
X94483252Y-73929308D01*
X94475711Y-73926862D01*
X94473312Y-73925774D01*
X94463490Y-73922199D01*
X94454483Y-73919588D01*
X94446253Y-73916805D01*
X94438767Y-73912712D01*
X94431985Y-73906172D01*
X94425873Y-73896049D01*
X94420392Y-73881205D01*
X94415507Y-73860504D01*
X94411181Y-73832808D01*
X94407378Y-73796980D01*
X94404060Y-73751885D01*
X94401192Y-73696384D01*
X94398739Y-73629341D01*
X94396661Y-73549619D01*
X94394924Y-73456082D01*
X94393491Y-73347591D01*
X94393020Y-73297352D01*
X94755072Y-73297352D01*
X94755469Y-73302163D01*
X94762752Y-73306062D01*
X94779206Y-73309144D01*
X94807118Y-73311506D01*
X94848774Y-73313243D01*
X94906459Y-73314448D01*
X94982459Y-73315220D01*
X95079061Y-73315653D01*
X95198551Y-73315843D01*
X95343213Y-73315885D01*
X95949190Y-73315885D01*
X95897963Y-73223210D01*
X95846736Y-73130534D01*
X95846736Y-70439507D01*
X95897963Y-70346831D01*
X95949190Y-70254156D01*
X94866028Y-70254156D01*
X94858196Y-73103074D01*
X94819797Y-73185080D01*
X94799553Y-73225727D01*
X94776630Y-73266444D01*
X94759318Y-73291486D01*
X94759275Y-73291534D01*
X94755072Y-73297352D01*
X94393020Y-73297352D01*
X94392322Y-73223010D01*
X94391387Y-73081202D01*
X94390644Y-72921031D01*
X94390060Y-72741359D01*
X94389596Y-72541049D01*
X94389217Y-72318964D01*
X94388886Y-72073969D01*
X94388566Y-71804924D01*
X94388221Y-71510694D01*
X94387815Y-71190142D01*
X94387762Y-71151336D01*
X94387309Y-70832815D01*
X94386876Y-70540484D01*
X94386494Y-70273205D01*
X94386197Y-70029841D01*
X94386015Y-69809254D01*
X94385982Y-69610307D01*
X94386127Y-69431862D01*
X94386487Y-69272783D01*
X94387091Y-69131931D01*
X94387971Y-69008169D01*
X94389159Y-68900359D01*
X94390688Y-68807365D01*
X94392589Y-68728049D01*
X94394895Y-68661272D01*
X94397638Y-68605899D01*
X94400849Y-68560791D01*
X94404562Y-68524811D01*
X94408807Y-68496821D01*
X94413618Y-68475684D01*
X94419025Y-68460263D01*
X94425061Y-68449420D01*
X94431760Y-68442019D01*
X94439152Y-68436919D01*
X94447268Y-68432985D01*
X94456142Y-68429080D01*
X94465806Y-68424066D01*
X94468634Y-68422468D01*
X94511421Y-68407001D01*
X94558260Y-68400644D01*
X94611061Y-68400646D01*
X94611941Y-68520779D01*
X94612164Y-68534604D01*
X94628946Y-68675127D01*
X94671690Y-68807347D01*
X94739800Y-68929864D01*
X94832685Y-69041275D01*
X94882529Y-69086715D01*
X94993512Y-69162032D01*
X95114605Y-69214555D01*
X95242282Y-69244254D01*
X95373014Y-69251102D01*
X95503277Y-69235071D01*
X95629542Y-69196133D01*
X95733339Y-69142047D01*
X96192724Y-69142047D01*
X96253136Y-69185511D01*
X96304227Y-69226360D01*
X96376220Y-69292988D01*
X96457878Y-69376492D01*
X96546107Y-69473690D01*
X96637817Y-69581400D01*
X96661434Y-69610202D01*
X96701644Y-69659603D01*
X96754204Y-69724418D01*
X96817373Y-69802478D01*
X96889409Y-69891623D01*
X96968571Y-69989690D01*
X97053119Y-70094516D01*
X97141310Y-70203936D01*
X97181761Y-70254156D01*
X97231404Y-70315788D01*
X97321657Y-70427909D01*
X97410332Y-70538135D01*
X97495685Y-70644304D01*
X97575975Y-70744252D01*
X97649461Y-70835815D01*
X97714402Y-70916831D01*
X97769057Y-70985136D01*
X97811684Y-71038567D01*
X97840541Y-71074960D01*
X97853888Y-71092154D01*
X97854990Y-71098615D01*
X97851325Y-71110904D01*
X97841830Y-71130237D01*
X97825556Y-71157986D01*
X97801553Y-71195521D01*
X97768877Y-71244216D01*
X97726578Y-71305441D01*
X97673708Y-71380566D01*
X97609320Y-71470964D01*
X97532466Y-71578006D01*
X97442197Y-71703064D01*
X97337566Y-71847508D01*
X97217626Y-72012710D01*
X97122059Y-72144209D01*
X97005465Y-72304517D01*
X96902905Y-72445299D01*
X96813186Y-72568116D01*
X96735117Y-72674531D01*
X96667505Y-72766107D01*
X96609155Y-72844406D01*
X96558877Y-72910991D01*
X96515478Y-72967423D01*
X96477763Y-73015266D01*
X96444542Y-73056081D01*
X96414620Y-73091432D01*
X96386806Y-73122880D01*
X96359907Y-73151988D01*
X96332730Y-73180318D01*
X96304082Y-73209434D01*
X96198509Y-73315885D01*
X97617871Y-73315943D01*
X97613412Y-73229931D01*
X97613196Y-73225609D01*
X97612349Y-73191225D01*
X97613954Y-73158279D01*
X97619083Y-73124970D01*
X97628810Y-73089490D01*
X97644208Y-73050037D01*
X97666351Y-73004805D01*
X97696312Y-72951989D01*
X97735166Y-72889786D01*
X97783983Y-72816389D01*
X97843839Y-72729996D01*
X97915807Y-72628802D01*
X98000960Y-72511000D01*
X98100371Y-72374788D01*
X98215115Y-72218361D01*
X98620141Y-71666953D01*
X98623710Y-72306294D01*
X98624026Y-72365932D01*
X98624584Y-72526569D01*
X98624330Y-72663201D01*
X98622967Y-72778415D01*
X98620194Y-72874795D01*
X98615715Y-72954928D01*
X98609229Y-73021399D01*
X98600440Y-73076795D01*
X98589047Y-73123700D01*
X98574752Y-73164700D01*
X98557257Y-73202382D01*
X98536264Y-73239329D01*
X98511473Y-73278129D01*
X98486551Y-73315885D01*
X99781702Y-73315885D01*
X99748246Y-73271264D01*
X99743007Y-73264205D01*
X99701119Y-73199506D01*
X99672244Y-73134102D01*
X99653282Y-73059160D01*
X99641138Y-72965845D01*
X99640804Y-72961777D01*
X99639042Y-72923287D01*
X99637450Y-72859068D01*
X99636037Y-72770588D01*
X99634809Y-72659315D01*
X99633773Y-72526715D01*
X99632935Y-72374257D01*
X99632303Y-72203408D01*
X99631884Y-72015634D01*
X99631685Y-71812405D01*
X99631711Y-71595186D01*
X99631972Y-71365447D01*
X99632472Y-71124653D01*
X99633002Y-70908659D01*
X99633569Y-70673546D01*
X99634128Y-70463191D01*
X99634747Y-70276118D01*
X99635498Y-70110853D01*
X99636451Y-69965925D01*
X99637674Y-69839859D01*
X99639240Y-69731180D01*
X99641218Y-69638416D01*
X99643677Y-69560092D01*
X99646688Y-69494734D01*
X99650321Y-69440871D01*
X99654646Y-69397025D01*
X99659733Y-69361725D01*
X99665652Y-69333497D01*
X99672474Y-69310867D01*
X99680268Y-69292361D01*
X99689105Y-69276506D01*
X99699053Y-69261827D01*
X99710186Y-69246852D01*
X99722571Y-69230105D01*
X99734549Y-69213324D01*
X99757702Y-69180143D01*
X99771570Y-69159210D01*
X99771905Y-69158333D01*
X99767063Y-69154373D01*
X99749974Y-69151071D01*
X99718738Y-69148373D01*
X99671452Y-69146229D01*
X99606215Y-69144588D01*
X99521127Y-69143401D01*
X99414284Y-69142615D01*
X99283786Y-69142181D01*
X99127731Y-69142047D01*
X98473539Y-69142046D01*
X98508017Y-69183023D01*
X98527999Y-69211165D01*
X98561260Y-69277520D01*
X98590408Y-69360047D01*
X98612655Y-69451591D01*
X98614073Y-69460281D01*
X98618291Y-69506095D01*
X98621486Y-69576901D01*
X98623666Y-69673187D01*
X98624838Y-69795444D01*
X98625012Y-69944164D01*
X98624195Y-70119834D01*
X98620142Y-70706324D01*
X98201385Y-70176771D01*
X98189391Y-70161603D01*
X98083198Y-70027167D01*
X97992538Y-69912036D01*
X97915968Y-69814251D01*
X97852044Y-69731855D01*
X97799324Y-69662890D01*
X97756366Y-69605398D01*
X97721726Y-69557422D01*
X97693962Y-69517005D01*
X97671631Y-69482188D01*
X97653289Y-69451015D01*
X97637495Y-69421527D01*
X97622805Y-69391767D01*
X97600207Y-69339089D01*
X97585607Y-69283518D01*
X97581725Y-69223578D01*
X97582115Y-69142046D01*
X96192724Y-69142047D01*
X95733339Y-69142047D01*
X95748283Y-69134260D01*
X95855974Y-69049423D01*
X95885911Y-69019514D01*
X95974394Y-68908774D01*
X96037181Y-68788596D01*
X96074606Y-68658203D01*
X96087006Y-68516822D01*
X96087006Y-68400642D01*
X98057905Y-68400642D01*
X98181037Y-68400637D01*
X98445560Y-68400601D01*
X98684519Y-68400575D01*
X98899234Y-68400611D01*
X99091030Y-68400761D01*
X99261224Y-68401078D01*
X99411140Y-68401614D01*
X99542099Y-68402420D01*
X99655422Y-68403551D01*
X99752431Y-68405056D01*
X99834446Y-68406988D01*
X99902791Y-68409403D01*
X99958785Y-68412348D01*
X100003750Y-68415878D01*
X100039008Y-68420045D01*
X100065880Y-68424902D01*
X100085688Y-68430498D01*
X100099752Y-68436889D01*
X100109395Y-68444124D01*
X100115937Y-68452258D01*
X100120702Y-68461343D01*
X100125009Y-68471430D01*
X100130180Y-68482570D01*
X100130272Y-68482753D01*
X100132784Y-68490046D01*
X100135085Y-68502259D01*
X100137189Y-68520517D01*
X100139103Y-68545949D01*
X100140835Y-68579681D01*
X100142395Y-68622840D01*
X100143790Y-68676553D01*
X100145030Y-68741946D01*
X100146124Y-68820150D01*
X100147080Y-68912288D01*
X100147907Y-69019488D01*
X100148614Y-69142878D01*
X100149210Y-69283583D01*
X100149702Y-69442732D01*
X100150101Y-69621452D01*
X100150415Y-69820869D01*
X100150649Y-70042110D01*
X100150819Y-70286302D01*
X100150929Y-70554573D01*
X100150989Y-70848049D01*
X100151006Y-71167858D01*
X100151006Y-71230685D01*
X100151037Y-71547161D01*
X100151084Y-71837527D01*
X100151112Y-72102919D01*
X100151084Y-72344472D01*
X100150968Y-72563322D01*
X100150722Y-72760603D01*
X100150315Y-72937451D01*
X100149710Y-73095002D01*
X100148871Y-73234391D01*
X100148131Y-73315885D01*
X100147762Y-73356752D01*
G37*
D13*
%TO.C,C19*%
X111658207Y-101564976D02*
X111857018Y-101366165D01*
X112379456Y-102286225D02*
X112578267Y-102087414D01*
%TO.C,R8*%
X115486722Y-87300022D02*
X115486722Y-87607304D01*
X116246722Y-87300022D02*
X116246722Y-87607304D01*
%TO.C,U8*%
X73518472Y-81796664D02*
X74568472Y-81796664D01*
X73818472Y-87016664D02*
X74568472Y-87016664D01*
X76738472Y-81796664D02*
X75688472Y-81796664D01*
X76738472Y-87016664D02*
X75688472Y-87016664D01*
X73658472Y-87206664D02*
X73378472Y-87206664D01*
X73518472Y-87016664D01*
X73658472Y-87206664D01*
G36*
X73658472Y-87206664D02*
G01*
X73378472Y-87206664D01*
X73518472Y-87016664D01*
X73658472Y-87206664D01*
G37*
%TD*%
M02*
