%TF.GenerationSoftware,KiCad,Pcbnew,8.0.3*%
%TF.CreationDate,2024-06-25T22:30:56+08:00*%
%TF.ProjectId,SB-main-board,53422d6d-6169-46e2-9d62-6f6172642e6b,A0*%
%TF.SameCoordinates,Original*%
%TF.FileFunction,Legend,Top*%
%TF.FilePolarity,Positive*%
%FSLAX46Y46*%
G04 Gerber Fmt 4.6, Leading zero omitted, Abs format (unit mm)*
G04 Created by KiCad (PCBNEW 8.0.3) date 2024-06-25 22:30:56*
%MOMM*%
%LPD*%
G01*
G04 APERTURE LIST*
%ADD10C,0.150000*%
%ADD11C,0.100000*%
%ADD12C,0.120000*%
%ADD13C,0.254000*%
%ADD14C,0.020000*%
%ADD15C,0.000000*%
G04 APERTURE END LIST*
D10*
X110387188Y-102900664D02*
X110133188Y-102646664D01*
X110641188Y-102646664D01*
X110387188Y-102900664D01*
G36*
X110387188Y-102900664D02*
G01*
X110133188Y-102646664D01*
X110641188Y-102646664D01*
X110387188Y-102900664D01*
G37*
X91761330Y-87030664D02*
X91507330Y-87284664D01*
X91507330Y-86776664D01*
X91761330Y-87030664D01*
G36*
X91761330Y-87030664D02*
G01*
X91507330Y-87284664D01*
X91507330Y-86776664D01*
X91761330Y-87030664D01*
G37*
X96399330Y-73985664D02*
X96145330Y-74239664D01*
X96145330Y-73731664D01*
X96399330Y-73985664D01*
G36*
X96399330Y-73985664D02*
G01*
X96145330Y-74239664D01*
X96145330Y-73731664D01*
X96399330Y-73985664D01*
G37*
X75451330Y-95035664D02*
X75197330Y-95289664D01*
X75197330Y-94781664D01*
X75451330Y-95035664D01*
G36*
X75451330Y-95035664D02*
G01*
X75197330Y-95289664D01*
X75197330Y-94781664D01*
X75451330Y-95035664D01*
G37*
X90569330Y-74239664D02*
X90315330Y-73985664D01*
X90569330Y-73731664D01*
X90569330Y-74239664D01*
G36*
X90569330Y-74239664D02*
G01*
X90315330Y-73985664D01*
X90569330Y-73731664D01*
X90569330Y-74239664D01*
G37*
X100610330Y-85312664D02*
X100356330Y-85566664D01*
X100356330Y-85058664D01*
X100610330Y-85312664D01*
G36*
X100610330Y-85312664D02*
G01*
X100356330Y-85566664D01*
X100356330Y-85058664D01*
X100610330Y-85312664D01*
G37*
X73989330Y-76832664D02*
X73735330Y-76578664D01*
X74243330Y-76578664D01*
X73989330Y-76832664D01*
G36*
X73989330Y-76832664D02*
G01*
X73735330Y-76578664D01*
X74243330Y-76578664D01*
X73989330Y-76832664D01*
G37*
D11*
X99134970Y-85585035D02*
X99134970Y-84985035D01*
X99134970Y-85270749D02*
X99477827Y-85270749D01*
X99477827Y-85585035D02*
X99477827Y-84985035D01*
X99763541Y-85270749D02*
X99963541Y-85270749D01*
X100049255Y-85585035D02*
X99763541Y-85585035D01*
X99763541Y-85585035D02*
X99763541Y-84985035D01*
X99763541Y-84985035D02*
X100049255Y-84985035D01*
X91028976Y-73943749D02*
X90828976Y-73943749D01*
X90828976Y-74258035D02*
X90828976Y-73658035D01*
X90828976Y-73658035D02*
X91114690Y-73658035D01*
X91314690Y-74086606D02*
X91600405Y-74086606D01*
X91257547Y-74258035D02*
X91457547Y-73658035D01*
X91457547Y-73658035D02*
X91657547Y-74258035D01*
X91857548Y-74258035D02*
X91857548Y-73658035D01*
X91857548Y-73658035D02*
X92200405Y-74258035D01*
X92200405Y-74258035D02*
X92200405Y-73658035D01*
X92457547Y-73715178D02*
X92486119Y-73686606D01*
X92486119Y-73686606D02*
X92543262Y-73658035D01*
X92543262Y-73658035D02*
X92686119Y-73658035D01*
X92686119Y-73658035D02*
X92743262Y-73686606D01*
X92743262Y-73686606D02*
X92771833Y-73715178D01*
X92771833Y-73715178D02*
X92800404Y-73772321D01*
X92800404Y-73772321D02*
X92800404Y-73829464D01*
X92800404Y-73829464D02*
X92771833Y-73915178D01*
X92771833Y-73915178D02*
X92428976Y-74258035D01*
X92428976Y-74258035D02*
X92800404Y-74258035D01*
X74493261Y-76378035D02*
X74836119Y-76378035D01*
X74664690Y-76978035D02*
X74664690Y-76378035D01*
X75150404Y-76378035D02*
X75264690Y-76378035D01*
X75264690Y-76378035D02*
X75321833Y-76406606D01*
X75321833Y-76406606D02*
X75378976Y-76463749D01*
X75378976Y-76463749D02*
X75407547Y-76578035D01*
X75407547Y-76578035D02*
X75407547Y-76778035D01*
X75407547Y-76778035D02*
X75378976Y-76892321D01*
X75378976Y-76892321D02*
X75321833Y-76949464D01*
X75321833Y-76949464D02*
X75264690Y-76978035D01*
X75264690Y-76978035D02*
X75150404Y-76978035D01*
X75150404Y-76978035D02*
X75093262Y-76949464D01*
X75093262Y-76949464D02*
X75036119Y-76892321D01*
X75036119Y-76892321D02*
X75007547Y-76778035D01*
X75007547Y-76778035D02*
X75007547Y-76578035D01*
X75007547Y-76578035D02*
X75036119Y-76463749D01*
X75036119Y-76463749D02*
X75093262Y-76406606D01*
X75093262Y-76406606D02*
X75150404Y-76378035D01*
X76321833Y-76663749D02*
X76121833Y-76663749D01*
X76121833Y-76978035D02*
X76121833Y-76378035D01*
X76121833Y-76378035D02*
X76407547Y-76378035D01*
X76607547Y-76806606D02*
X76893262Y-76806606D01*
X76550404Y-76978035D02*
X76750404Y-76378035D01*
X76750404Y-76378035D02*
X76950404Y-76978035D01*
X77150405Y-76978035D02*
X77150405Y-76378035D01*
X77150405Y-76378035D02*
X77493262Y-76978035D01*
X77493262Y-76978035D02*
X77493262Y-76378035D01*
X78436119Y-76663749D02*
X78521833Y-76692321D01*
X78521833Y-76692321D02*
X78550404Y-76720892D01*
X78550404Y-76720892D02*
X78578976Y-76778035D01*
X78578976Y-76778035D02*
X78578976Y-76863749D01*
X78578976Y-76863749D02*
X78550404Y-76920892D01*
X78550404Y-76920892D02*
X78521833Y-76949464D01*
X78521833Y-76949464D02*
X78464690Y-76978035D01*
X78464690Y-76978035D02*
X78236119Y-76978035D01*
X78236119Y-76978035D02*
X78236119Y-76378035D01*
X78236119Y-76378035D02*
X78436119Y-76378035D01*
X78436119Y-76378035D02*
X78493262Y-76406606D01*
X78493262Y-76406606D02*
X78521833Y-76435178D01*
X78521833Y-76435178D02*
X78550404Y-76492321D01*
X78550404Y-76492321D02*
X78550404Y-76549464D01*
X78550404Y-76549464D02*
X78521833Y-76606606D01*
X78521833Y-76606606D02*
X78493262Y-76635178D01*
X78493262Y-76635178D02*
X78436119Y-76663749D01*
X78436119Y-76663749D02*
X78236119Y-76663749D01*
X78950404Y-76378035D02*
X79064690Y-76378035D01*
X79064690Y-76378035D02*
X79121833Y-76406606D01*
X79121833Y-76406606D02*
X79178976Y-76463749D01*
X79178976Y-76463749D02*
X79207547Y-76578035D01*
X79207547Y-76578035D02*
X79207547Y-76778035D01*
X79207547Y-76778035D02*
X79178976Y-76892321D01*
X79178976Y-76892321D02*
X79121833Y-76949464D01*
X79121833Y-76949464D02*
X79064690Y-76978035D01*
X79064690Y-76978035D02*
X78950404Y-76978035D01*
X78950404Y-76978035D02*
X78893262Y-76949464D01*
X78893262Y-76949464D02*
X78836119Y-76892321D01*
X78836119Y-76892321D02*
X78807547Y-76778035D01*
X78807547Y-76778035D02*
X78807547Y-76578035D01*
X78807547Y-76578035D02*
X78836119Y-76463749D01*
X78836119Y-76463749D02*
X78893262Y-76406606D01*
X78893262Y-76406606D02*
X78950404Y-76378035D01*
X79436118Y-76806606D02*
X79721833Y-76806606D01*
X79378975Y-76978035D02*
X79578975Y-76378035D01*
X79578975Y-76378035D02*
X79778975Y-76978035D01*
X80321833Y-76978035D02*
X80121833Y-76692321D01*
X79978976Y-76978035D02*
X79978976Y-76378035D01*
X79978976Y-76378035D02*
X80207547Y-76378035D01*
X80207547Y-76378035D02*
X80264690Y-76406606D01*
X80264690Y-76406606D02*
X80293261Y-76435178D01*
X80293261Y-76435178D02*
X80321833Y-76492321D01*
X80321833Y-76492321D02*
X80321833Y-76578035D01*
X80321833Y-76578035D02*
X80293261Y-76635178D01*
X80293261Y-76635178D02*
X80264690Y-76663749D01*
X80264690Y-76663749D02*
X80207547Y-76692321D01*
X80207547Y-76692321D02*
X79978976Y-76692321D01*
X80578976Y-76978035D02*
X80578976Y-76378035D01*
X80578976Y-76378035D02*
X80721833Y-76378035D01*
X80721833Y-76378035D02*
X80807547Y-76406606D01*
X80807547Y-76406606D02*
X80864690Y-76463749D01*
X80864690Y-76463749D02*
X80893261Y-76520892D01*
X80893261Y-76520892D02*
X80921833Y-76635178D01*
X80921833Y-76635178D02*
X80921833Y-76720892D01*
X80921833Y-76720892D02*
X80893261Y-76835178D01*
X80893261Y-76835178D02*
X80864690Y-76892321D01*
X80864690Y-76892321D02*
X80807547Y-76949464D01*
X80807547Y-76949464D02*
X80721833Y-76978035D01*
X80721833Y-76978035D02*
X80578976Y-76978035D01*
X95261683Y-73943749D02*
X95061683Y-73943749D01*
X95061683Y-74258035D02*
X95061683Y-73658035D01*
X95061683Y-73658035D02*
X95347397Y-73658035D01*
X95547397Y-74229464D02*
X95633112Y-74258035D01*
X95633112Y-74258035D02*
X95775969Y-74258035D01*
X95775969Y-74258035D02*
X95833112Y-74229464D01*
X95833112Y-74229464D02*
X95861683Y-74200892D01*
X95861683Y-74200892D02*
X95890254Y-74143749D01*
X95890254Y-74143749D02*
X95890254Y-74086606D01*
X95890254Y-74086606D02*
X95861683Y-74029464D01*
X95861683Y-74029464D02*
X95833112Y-74000892D01*
X95833112Y-74000892D02*
X95775969Y-73972321D01*
X95775969Y-73972321D02*
X95661683Y-73943749D01*
X95661683Y-73943749D02*
X95604540Y-73915178D01*
X95604540Y-73915178D02*
X95575969Y-73886606D01*
X95575969Y-73886606D02*
X95547397Y-73829464D01*
X95547397Y-73829464D02*
X95547397Y-73772321D01*
X95547397Y-73772321D02*
X95575969Y-73715178D01*
X95575969Y-73715178D02*
X95604540Y-73686606D01*
X95604540Y-73686606D02*
X95661683Y-73658035D01*
X95661683Y-73658035D02*
X95804540Y-73658035D01*
X95804540Y-73658035D02*
X95890254Y-73686606D01*
X88685968Y-87303035D02*
X88685968Y-86703035D01*
X88685968Y-86703035D02*
X88914539Y-86703035D01*
X88914539Y-86703035D02*
X88971682Y-86731606D01*
X88971682Y-86731606D02*
X89000253Y-86760178D01*
X89000253Y-86760178D02*
X89028825Y-86817321D01*
X89028825Y-86817321D02*
X89028825Y-86903035D01*
X89028825Y-86903035D02*
X89000253Y-86960178D01*
X89000253Y-86960178D02*
X88971682Y-86988749D01*
X88971682Y-86988749D02*
X88914539Y-87017321D01*
X88914539Y-87017321D02*
X88685968Y-87017321D01*
X89200253Y-86703035D02*
X89543111Y-86703035D01*
X89371682Y-87303035D02*
X89371682Y-86703035D01*
X90057396Y-87303035D02*
X89714539Y-87303035D01*
X89885968Y-87303035D02*
X89885968Y-86703035D01*
X89885968Y-86703035D02*
X89828825Y-86788749D01*
X89828825Y-86788749D02*
X89771682Y-86845892D01*
X89771682Y-86845892D02*
X89714539Y-86874464D01*
X90428825Y-86703035D02*
X90485968Y-86703035D01*
X90485968Y-86703035D02*
X90543111Y-86731606D01*
X90543111Y-86731606D02*
X90571683Y-86760178D01*
X90571683Y-86760178D02*
X90600254Y-86817321D01*
X90600254Y-86817321D02*
X90628825Y-86931606D01*
X90628825Y-86931606D02*
X90628825Y-87074464D01*
X90628825Y-87074464D02*
X90600254Y-87188749D01*
X90600254Y-87188749D02*
X90571683Y-87245892D01*
X90571683Y-87245892D02*
X90543111Y-87274464D01*
X90543111Y-87274464D02*
X90485968Y-87303035D01*
X90485968Y-87303035D02*
X90428825Y-87303035D01*
X90428825Y-87303035D02*
X90371683Y-87274464D01*
X90371683Y-87274464D02*
X90343111Y-87245892D01*
X90343111Y-87245892D02*
X90314540Y-87188749D01*
X90314540Y-87188749D02*
X90285968Y-87074464D01*
X90285968Y-87074464D02*
X90285968Y-86931606D01*
X90285968Y-86931606D02*
X90314540Y-86817321D01*
X90314540Y-86817321D02*
X90343111Y-86760178D01*
X90343111Y-86760178D02*
X90371683Y-86731606D01*
X90371683Y-86731606D02*
X90428825Y-86703035D01*
X91000254Y-86703035D02*
X91057397Y-86703035D01*
X91057397Y-86703035D02*
X91114540Y-86731606D01*
X91114540Y-86731606D02*
X91143112Y-86760178D01*
X91143112Y-86760178D02*
X91171683Y-86817321D01*
X91171683Y-86817321D02*
X91200254Y-86931606D01*
X91200254Y-86931606D02*
X91200254Y-87074464D01*
X91200254Y-87074464D02*
X91171683Y-87188749D01*
X91171683Y-87188749D02*
X91143112Y-87245892D01*
X91143112Y-87245892D02*
X91114540Y-87274464D01*
X91114540Y-87274464D02*
X91057397Y-87303035D01*
X91057397Y-87303035D02*
X91000254Y-87303035D01*
X91000254Y-87303035D02*
X90943112Y-87274464D01*
X90943112Y-87274464D02*
X90914540Y-87245892D01*
X90914540Y-87245892D02*
X90885969Y-87188749D01*
X90885969Y-87188749D02*
X90857397Y-87074464D01*
X90857397Y-87074464D02*
X90857397Y-86931606D01*
X90857397Y-86931606D02*
X90885969Y-86817321D01*
X90885969Y-86817321D02*
X90914540Y-86760178D01*
X90914540Y-86760178D02*
X90943112Y-86731606D01*
X90943112Y-86731606D02*
X91000254Y-86703035D01*
X111176834Y-102731749D02*
X111262548Y-102760321D01*
X111262548Y-102760321D02*
X111291119Y-102788892D01*
X111291119Y-102788892D02*
X111319691Y-102846035D01*
X111319691Y-102846035D02*
X111319691Y-102931749D01*
X111319691Y-102931749D02*
X111291119Y-102988892D01*
X111291119Y-102988892D02*
X111262548Y-103017464D01*
X111262548Y-103017464D02*
X111205405Y-103046035D01*
X111205405Y-103046035D02*
X110976834Y-103046035D01*
X110976834Y-103046035D02*
X110976834Y-102446035D01*
X110976834Y-102446035D02*
X111176834Y-102446035D01*
X111176834Y-102446035D02*
X111233977Y-102474606D01*
X111233977Y-102474606D02*
X111262548Y-102503178D01*
X111262548Y-102503178D02*
X111291119Y-102560321D01*
X111291119Y-102560321D02*
X111291119Y-102617464D01*
X111291119Y-102617464D02*
X111262548Y-102674606D01*
X111262548Y-102674606D02*
X111233977Y-102703178D01*
X111233977Y-102703178D02*
X111176834Y-102731749D01*
X111176834Y-102731749D02*
X110976834Y-102731749D01*
X111691119Y-102446035D02*
X111805405Y-102446035D01*
X111805405Y-102446035D02*
X111862548Y-102474606D01*
X111862548Y-102474606D02*
X111919691Y-102531749D01*
X111919691Y-102531749D02*
X111948262Y-102646035D01*
X111948262Y-102646035D02*
X111948262Y-102846035D01*
X111948262Y-102846035D02*
X111919691Y-102960321D01*
X111919691Y-102960321D02*
X111862548Y-103017464D01*
X111862548Y-103017464D02*
X111805405Y-103046035D01*
X111805405Y-103046035D02*
X111691119Y-103046035D01*
X111691119Y-103046035D02*
X111633977Y-103017464D01*
X111633977Y-103017464D02*
X111576834Y-102960321D01*
X111576834Y-102960321D02*
X111548262Y-102846035D01*
X111548262Y-102846035D02*
X111548262Y-102646035D01*
X111548262Y-102646035D02*
X111576834Y-102531749D01*
X111576834Y-102531749D02*
X111633977Y-102474606D01*
X111633977Y-102474606D02*
X111691119Y-102446035D01*
X112319690Y-102446035D02*
X112433976Y-102446035D01*
X112433976Y-102446035D02*
X112491119Y-102474606D01*
X112491119Y-102474606D02*
X112548262Y-102531749D01*
X112548262Y-102531749D02*
X112576833Y-102646035D01*
X112576833Y-102646035D02*
X112576833Y-102846035D01*
X112576833Y-102846035D02*
X112548262Y-102960321D01*
X112548262Y-102960321D02*
X112491119Y-103017464D01*
X112491119Y-103017464D02*
X112433976Y-103046035D01*
X112433976Y-103046035D02*
X112319690Y-103046035D01*
X112319690Y-103046035D02*
X112262548Y-103017464D01*
X112262548Y-103017464D02*
X112205405Y-102960321D01*
X112205405Y-102960321D02*
X112176833Y-102846035D01*
X112176833Y-102846035D02*
X112176833Y-102646035D01*
X112176833Y-102646035D02*
X112205405Y-102531749D01*
X112205405Y-102531749D02*
X112262548Y-102474606D01*
X112262548Y-102474606D02*
X112319690Y-102446035D01*
X112748261Y-102446035D02*
X113091119Y-102446035D01*
X112919690Y-103046035D02*
X112919690Y-102446035D01*
X73747398Y-95308035D02*
X73461684Y-95308035D01*
X73461684Y-95308035D02*
X73461684Y-94708035D01*
X73947398Y-95308035D02*
X73947398Y-94708035D01*
X73947398Y-94708035D02*
X74090255Y-94708035D01*
X74090255Y-94708035D02*
X74175969Y-94736606D01*
X74175969Y-94736606D02*
X74233112Y-94793749D01*
X74233112Y-94793749D02*
X74261683Y-94850892D01*
X74261683Y-94850892D02*
X74290255Y-94965178D01*
X74290255Y-94965178D02*
X74290255Y-95050892D01*
X74290255Y-95050892D02*
X74261683Y-95165178D01*
X74261683Y-95165178D02*
X74233112Y-95222321D01*
X74233112Y-95222321D02*
X74175969Y-95279464D01*
X74175969Y-95279464D02*
X74090255Y-95308035D01*
X74090255Y-95308035D02*
X73947398Y-95308035D01*
X74890255Y-95250892D02*
X74861683Y-95279464D01*
X74861683Y-95279464D02*
X74775969Y-95308035D01*
X74775969Y-95308035D02*
X74718826Y-95308035D01*
X74718826Y-95308035D02*
X74633112Y-95279464D01*
X74633112Y-95279464D02*
X74575969Y-95222321D01*
X74575969Y-95222321D02*
X74547398Y-95165178D01*
X74547398Y-95165178D02*
X74518826Y-95050892D01*
X74518826Y-95050892D02*
X74518826Y-94965178D01*
X74518826Y-94965178D02*
X74547398Y-94850892D01*
X74547398Y-94850892D02*
X74575969Y-94793749D01*
X74575969Y-94793749D02*
X74633112Y-94736606D01*
X74633112Y-94736606D02*
X74718826Y-94708035D01*
X74718826Y-94708035D02*
X74775969Y-94708035D01*
X74775969Y-94708035D02*
X74861683Y-94736606D01*
X74861683Y-94736606D02*
X74890255Y-94765178D01*
D10*
X74706043Y-74410244D02*
X74658424Y-74457864D01*
X74658424Y-74457864D02*
X74515567Y-74505483D01*
X74515567Y-74505483D02*
X74420329Y-74505483D01*
X74420329Y-74505483D02*
X74277472Y-74457864D01*
X74277472Y-74457864D02*
X74182234Y-74362625D01*
X74182234Y-74362625D02*
X74134615Y-74267387D01*
X74134615Y-74267387D02*
X74086996Y-74076911D01*
X74086996Y-74076911D02*
X74086996Y-73934054D01*
X74086996Y-73934054D02*
X74134615Y-73743578D01*
X74134615Y-73743578D02*
X74182234Y-73648340D01*
X74182234Y-73648340D02*
X74277472Y-73553102D01*
X74277472Y-73553102D02*
X74420329Y-73505483D01*
X74420329Y-73505483D02*
X74515567Y-73505483D01*
X74515567Y-73505483D02*
X74658424Y-73553102D01*
X74658424Y-73553102D02*
X74706043Y-73600721D01*
X75134615Y-74505483D02*
X75134615Y-73505483D01*
X75563186Y-74505483D02*
X75563186Y-73981673D01*
X75563186Y-73981673D02*
X75515567Y-73886435D01*
X75515567Y-73886435D02*
X75420329Y-73838816D01*
X75420329Y-73838816D02*
X75277472Y-73838816D01*
X75277472Y-73838816D02*
X75182234Y-73886435D01*
X75182234Y-73886435D02*
X75134615Y-73934054D01*
X76467948Y-74505483D02*
X76467948Y-73981673D01*
X76467948Y-73981673D02*
X76420329Y-73886435D01*
X76420329Y-73886435D02*
X76325091Y-73838816D01*
X76325091Y-73838816D02*
X76134615Y-73838816D01*
X76134615Y-73838816D02*
X76039377Y-73886435D01*
X76467948Y-74457864D02*
X76372710Y-74505483D01*
X76372710Y-74505483D02*
X76134615Y-74505483D01*
X76134615Y-74505483D02*
X76039377Y-74457864D01*
X76039377Y-74457864D02*
X75991758Y-74362625D01*
X75991758Y-74362625D02*
X75991758Y-74267387D01*
X75991758Y-74267387D02*
X76039377Y-74172149D01*
X76039377Y-74172149D02*
X76134615Y-74124530D01*
X76134615Y-74124530D02*
X76372710Y-74124530D01*
X76372710Y-74124530D02*
X76467948Y-74076911D01*
X76944139Y-74505483D02*
X76944139Y-73838816D01*
X76944139Y-74029292D02*
X76991758Y-73934054D01*
X76991758Y-73934054D02*
X77039377Y-73886435D01*
X77039377Y-73886435D02*
X77134615Y-73838816D01*
X77134615Y-73838816D02*
X77229853Y-73838816D01*
X77706044Y-74505483D02*
X77610806Y-74457864D01*
X77610806Y-74457864D02*
X77563187Y-74362625D01*
X77563187Y-74362625D02*
X77563187Y-73505483D01*
X78086997Y-74505483D02*
X78086997Y-73838816D01*
X78086997Y-73505483D02*
X78039378Y-73553102D01*
X78039378Y-73553102D02*
X78086997Y-73600721D01*
X78086997Y-73600721D02*
X78134616Y-73553102D01*
X78134616Y-73553102D02*
X78086997Y-73505483D01*
X78086997Y-73505483D02*
X78086997Y-73600721D01*
X78944139Y-74457864D02*
X78848901Y-74505483D01*
X78848901Y-74505483D02*
X78658425Y-74505483D01*
X78658425Y-74505483D02*
X78563187Y-74457864D01*
X78563187Y-74457864D02*
X78515568Y-74362625D01*
X78515568Y-74362625D02*
X78515568Y-73981673D01*
X78515568Y-73981673D02*
X78563187Y-73886435D01*
X78563187Y-73886435D02*
X78658425Y-73838816D01*
X78658425Y-73838816D02*
X78848901Y-73838816D01*
X78848901Y-73838816D02*
X78944139Y-73886435D01*
X78944139Y-73886435D02*
X78991758Y-73981673D01*
X78991758Y-73981673D02*
X78991758Y-74076911D01*
X78991758Y-74076911D02*
X78515568Y-74172149D01*
X79610806Y-74029292D02*
X79610806Y-74505483D01*
X79277473Y-73505483D02*
X79610806Y-74029292D01*
X79610806Y-74029292D02*
X79944139Y-73505483D01*
X80706044Y-73838816D02*
X80706044Y-74505483D01*
X80277473Y-73838816D02*
X80277473Y-74362625D01*
X80277473Y-74362625D02*
X80325092Y-74457864D01*
X80325092Y-74457864D02*
X80420330Y-74505483D01*
X80420330Y-74505483D02*
X80563187Y-74505483D01*
X80563187Y-74505483D02*
X80658425Y-74457864D01*
X80658425Y-74457864D02*
X80706044Y-74410244D01*
D12*
%TO.C,SW1*%
X109210330Y-105498664D02*
X109210330Y-106048664D01*
X109310330Y-103923664D02*
X114010330Y-103923664D01*
X109310330Y-107623664D02*
X110235330Y-107623664D01*
X113085330Y-107623664D02*
X114010330Y-107623664D01*
X114110330Y-105498664D02*
X114110330Y-106048664D01*
%TO.C,J7*%
X75851330Y-95725664D02*
X76801330Y-95725664D01*
X75851330Y-96175664D02*
X75851330Y-95725664D01*
X75851330Y-99695664D02*
X75851330Y-100145664D01*
X75851330Y-100145664D02*
X82821330Y-100145664D01*
X82821330Y-95725664D02*
X81871330Y-95725664D01*
X82821330Y-96175664D02*
X82821330Y-95725664D01*
X82821330Y-100145664D02*
X82821330Y-99695664D01*
%TO.C,C37*%
X83924166Y-76095664D02*
X83708494Y-76095664D01*
X83924166Y-76815664D02*
X83708494Y-76815664D01*
%TO.C,R14*%
X106004081Y-75103665D02*
X106311363Y-75103665D01*
X106004081Y-75863665D02*
X106311363Y-75863665D01*
%TO.C,C36*%
X93414410Y-82985664D02*
X93133250Y-82985664D01*
X93414410Y-84005664D02*
X93133250Y-84005664D01*
%TO.C,R2*%
X109625477Y-95896117D02*
X109408196Y-96113398D01*
X110162878Y-96433518D02*
X109945597Y-96650799D01*
%TO.C,J4*%
X91600330Y-87720664D02*
X92550330Y-87720664D01*
X91600330Y-88170664D02*
X91600330Y-87720664D01*
X91600330Y-91690664D02*
X91600330Y-92140664D01*
X91600330Y-92140664D02*
X98570330Y-92140664D01*
X98570330Y-87720664D02*
X97620330Y-87720664D01*
X98570330Y-88170664D02*
X98570330Y-87720664D01*
X98570330Y-92140664D02*
X98570330Y-91690664D01*
%TO.C,C17*%
X90071330Y-82656916D02*
X90071330Y-82134412D01*
X91541330Y-82656916D02*
X91541330Y-82134412D01*
%TO.C,R6*%
X124345330Y-99610023D02*
X124345330Y-99917305D01*
X125105330Y-99610023D02*
X125105330Y-99917305D01*
D13*
%TO.C,J1*%
X116332830Y-76578964D02*
X116332830Y-78000964D01*
X116332830Y-76578964D02*
X125133830Y-76578964D01*
X116332830Y-80774964D02*
X116332830Y-80024964D01*
X116332830Y-80774964D02*
X116332830Y-90567964D01*
X125133830Y-76578964D02*
X125133830Y-90578964D01*
X125133830Y-90578964D02*
X116332830Y-90578964D01*
D12*
%TO.C,C21*%
X113727722Y-77071501D02*
X113727722Y-76855829D01*
X114447722Y-77071501D02*
X114447722Y-76855829D01*
D11*
%TO.C,U2*%
X111351777Y-98661431D02*
X111422487Y-98732142D01*
X111422487Y-98732142D02*
X113543808Y-96610821D01*
X111988173Y-95055186D02*
X109866852Y-97176507D01*
X112058883Y-95125897D02*
X111988173Y-95055186D01*
X113473097Y-96540111D02*
X113543808Y-96610821D01*
D12*
X109620496Y-97493573D02*
X109422506Y-97691563D01*
X109422506Y-97295583D01*
X109620496Y-97493573D01*
G36*
X109620496Y-97493573D02*
G01*
X109422506Y-97691563D01*
X109422506Y-97295583D01*
X109620496Y-97493573D01*
G37*
%TO.C,C11*%
X112262647Y-101155465D02*
X112110144Y-101002962D01*
X112771764Y-100646348D02*
X112619261Y-100493845D01*
%TO.C,C3*%
X123780543Y-106039668D02*
X123628040Y-106192171D01*
X124289660Y-106548785D02*
X124137157Y-106701288D01*
%TO.C,C2*%
X120389958Y-106129452D02*
X120542461Y-106281955D01*
X120899075Y-105620335D02*
X121051578Y-105772838D01*
%TO.C,C10*%
X121872309Y-96654173D02*
X122024812Y-96501670D01*
X122381426Y-97163290D02*
X122533929Y-97010787D01*
%TO.C,C7*%
X119326725Y-94108589D02*
X119479228Y-93956086D01*
X119835842Y-94617706D02*
X119988345Y-94465203D01*
%TO.C,U6*%
X107777722Y-74598665D02*
X107777722Y-74113665D01*
X107777722Y-79093665D02*
X107777722Y-78368665D01*
X108502722Y-73873665D02*
X108077722Y-73873665D01*
X108502722Y-79093665D02*
X107777722Y-79093665D01*
X112272722Y-73873665D02*
X112997722Y-73873665D01*
X112272722Y-79093665D02*
X112997722Y-79093665D01*
X112997722Y-73873665D02*
X112997722Y-74598665D01*
X112997722Y-79093665D02*
X112997722Y-78368665D01*
X107777722Y-73873665D02*
X107537722Y-73543665D01*
X108017722Y-73543665D01*
X107777722Y-73873665D01*
G36*
X107777722Y-73873665D02*
G01*
X107537722Y-73543665D01*
X108017722Y-73543665D01*
X107777722Y-73873665D01*
G37*
%TO.C,FB4*%
X92708930Y-75142284D02*
X92708930Y-75467844D01*
X93728930Y-75142284D02*
X93728930Y-75467844D01*
%TO.C,R3*%
X108491689Y-102563664D02*
X108798971Y-102563664D01*
X108491689Y-103323664D02*
X108798971Y-103323664D01*
D14*
%TO.C,REF\u002A\u002A*%
X105841143Y-77194685D02*
X105841143Y-79714842D01*
X103658330Y-80974920D01*
X101664236Y-79823784D01*
X102429407Y-79823784D01*
X103087624Y-79823784D01*
X103642852Y-79823784D01*
X104301268Y-79823784D01*
X105201777Y-78453772D01*
X104543362Y-78453772D01*
X103642852Y-79823784D01*
X103087624Y-79823784D01*
X104889039Y-77083362D01*
X104230624Y-77083362D01*
X102429407Y-79823784D01*
X101664236Y-79823784D01*
X101475518Y-79714842D01*
X101475518Y-78455056D01*
X102116867Y-78455056D01*
X102775085Y-78455358D01*
X103675793Y-77085346D01*
X103017377Y-77085346D01*
X102116867Y-78455056D01*
X101475518Y-78455056D01*
X101475518Y-78454763D01*
X101475518Y-77194685D01*
X103658330Y-75934409D01*
X105841143Y-77194685D01*
G36*
X105841143Y-77194685D02*
G01*
X105841143Y-79714842D01*
X103658330Y-80974920D01*
X101664236Y-79823784D01*
X102429407Y-79823784D01*
X103087624Y-79823784D01*
X103642852Y-79823784D01*
X104301268Y-79823784D01*
X105201777Y-78453772D01*
X104543362Y-78453772D01*
X103642852Y-79823784D01*
X103087624Y-79823784D01*
X104889039Y-77083362D01*
X104230624Y-77083362D01*
X102429407Y-79823784D01*
X101664236Y-79823784D01*
X101475518Y-79714842D01*
X101475518Y-78455056D01*
X102116867Y-78455056D01*
X102775085Y-78455358D01*
X103675793Y-77085346D01*
X103017377Y-77085346D01*
X102116867Y-78455056D01*
X101475518Y-78455056D01*
X101475518Y-78454763D01*
X101475518Y-77194685D01*
X103658330Y-75934409D01*
X105841143Y-77194685D01*
G37*
D12*
%TO.C,FB1*%
X113980501Y-84833664D02*
X113654943Y-84833664D01*
X113980501Y-85853664D02*
X113654943Y-85853664D01*
%TO.C,C6*%
X115021031Y-95353578D02*
X114868528Y-95201075D01*
X115530148Y-94844461D02*
X115377645Y-94691958D01*
%TO.C,L1*%
X84696829Y-80734165D02*
X84696829Y-85254165D01*
X84696829Y-80734165D02*
X84846829Y-80734165D01*
X84696829Y-85254165D02*
X84846829Y-85254165D01*
X89216829Y-80734165D02*
X89066829Y-80734165D01*
X89216829Y-80734165D02*
X89216829Y-85254165D01*
X89216829Y-85254165D02*
X89066829Y-85254165D01*
%TO.C,Y1*%
X120252774Y-104644301D02*
X122586227Y-106977754D01*
X122232673Y-102664402D02*
X120252774Y-104644301D01*
%TO.C,C34*%
X116648494Y-91805664D02*
X116864166Y-91805664D01*
X116648494Y-92525664D02*
X116864166Y-92525664D01*
%TO.C,R5*%
X123916859Y-104047139D02*
X123699578Y-103829858D01*
X124454260Y-103509738D02*
X124236979Y-103292457D01*
%TO.C,C33*%
X95193166Y-84870664D02*
X94977494Y-84870664D01*
X95193166Y-85590664D02*
X94977494Y-85590664D01*
%TO.C,U11*%
X94273830Y-80370664D02*
X92273830Y-80370664D01*
X94273830Y-82590664D02*
X92273830Y-82590664D01*
X94513830Y-82770664D02*
X94513830Y-82490664D01*
X94793830Y-82490664D01*
X94513830Y-82770664D01*
G36*
X94513830Y-82770664D02*
G01*
X94513830Y-82490664D01*
X94793830Y-82490664D01*
X94513830Y-82770664D01*
G37*
%TO.C,C20*%
X106427722Y-78421500D02*
X106427722Y-78205828D01*
X107147722Y-78421500D02*
X107147722Y-78205828D01*
%TO.C,C22*%
X115957830Y-70946164D02*
X116745330Y-70946164D01*
X116351580Y-70552414D02*
X116351580Y-71339914D01*
X116985330Y-70448101D02*
X116985330Y-71733664D01*
X116985330Y-70448101D02*
X118049767Y-69383664D01*
X116985330Y-75139227D02*
X116985330Y-73853664D01*
X116985330Y-75139227D02*
X118049767Y-76203664D01*
X118049767Y-69383664D02*
X123805330Y-69383664D01*
X118049767Y-76203664D02*
X123805330Y-76203664D01*
X123805330Y-69383664D02*
X123805330Y-71733664D01*
X123805330Y-76203664D02*
X123805330Y-73853664D01*
%TO.C,C13*%
X115706831Y-94667778D02*
X115554328Y-94515275D01*
X116215948Y-94158661D02*
X116063445Y-94006158D01*
%TO.C,C16*%
X89301330Y-78714411D02*
X89301330Y-79236915D01*
X90771330Y-78714411D02*
X90771330Y-79236915D01*
%TO.C,R18*%
X102547689Y-83425664D02*
X102854971Y-83425664D01*
X102547689Y-84185664D02*
X102854971Y-84185664D01*
%TO.C,U1*%
X113242030Y-99274045D02*
X112994543Y-99521532D01*
X113242030Y-100193283D02*
X112952117Y-99903370D01*
X117428103Y-95087972D02*
X117887722Y-94628353D01*
X117887722Y-94628353D02*
X118347341Y-95087972D01*
X117887722Y-104838975D02*
X117428103Y-104379356D01*
X118347341Y-104379356D02*
X117887722Y-104838975D01*
X122533414Y-100193283D02*
X122993033Y-99733664D01*
X122993033Y-99733664D02*
X122533414Y-99274045D01*
X112782411Y-99733664D02*
X112379360Y-99670024D01*
X112718771Y-99330613D01*
X112782411Y-99733664D01*
G36*
X112782411Y-99733664D02*
G01*
X112379360Y-99670024D01*
X112718771Y-99330613D01*
X112782411Y-99733664D01*
G37*
%TO.C,R12*%
X82876330Y-77702023D02*
X82876330Y-78009305D01*
X83636330Y-77702023D02*
X83636330Y-78009305D01*
%TO.C,J5*%
X101220330Y-84697964D02*
X108590330Y-84697964D01*
X101220330Y-93827964D02*
X101220330Y-84697964D01*
X102220330Y-94827964D02*
X101220330Y-93827964D01*
X107590330Y-94827964D02*
X102220330Y-94827964D01*
X108590330Y-84697964D02*
X108590330Y-93827964D01*
X108590330Y-93827964D02*
X107590330Y-94827964D01*
%TO.C,C35*%
X93133250Y-78955664D02*
X93414410Y-78955664D01*
X93133250Y-79975664D02*
X93414410Y-79975664D01*
%TO.C,J8*%
X96059330Y-72499664D02*
X96059330Y-73449664D01*
X96059330Y-73449664D02*
X97009330Y-73449664D01*
X102659330Y-69529664D02*
X96429330Y-69529664D01*
X103029330Y-72499664D02*
X103029330Y-73449664D01*
X103029330Y-73449664D02*
X102079330Y-73449664D01*
%TO.C,C12*%
X114298023Y-96036474D02*
X114145520Y-95883971D01*
X114807140Y-95527357D02*
X114654637Y-95374854D01*
%TO.C,R16*%
X108152286Y-71648664D02*
X107698158Y-71648664D01*
X108152286Y-73118664D02*
X107698158Y-73118664D01*
D15*
%TO.C,RFF\u002A\u002A*%
G36*
X76728655Y-70915000D02*
G01*
X76765673Y-70939863D01*
X76794778Y-70973806D01*
X76810106Y-71007070D01*
X76814748Y-71048535D01*
X76805162Y-71086932D01*
X76783886Y-71119449D01*
X76753459Y-71143274D01*
X76716419Y-71155595D01*
X76677402Y-71154079D01*
X76628166Y-71135882D01*
X76590379Y-71106026D01*
X76565379Y-71065810D01*
X76557092Y-71037353D01*
X76557641Y-70997579D01*
X76572244Y-70959723D01*
X76598054Y-70928075D01*
X76632220Y-70906924D01*
X76646611Y-70902573D01*
X76687657Y-70901733D01*
X76728655Y-70915000D01*
G37*
G36*
X77162357Y-70413789D02*
G01*
X77174218Y-70419844D01*
X77205077Y-70448023D01*
X77226023Y-70486353D01*
X77235967Y-70530373D01*
X77233821Y-70575623D01*
X77221231Y-70612603D01*
X77194768Y-70647286D01*
X77159482Y-70668833D01*
X77118507Y-70676289D01*
X77074974Y-70668702D01*
X77058971Y-70661953D01*
X77027072Y-70637609D01*
X77004940Y-70603335D01*
X76992763Y-70562985D01*
X76990728Y-70520408D01*
X76999025Y-70479455D01*
X77017842Y-70443977D01*
X77047043Y-70418013D01*
X77082757Y-70405722D01*
X77123771Y-70404351D01*
X77162357Y-70413789D01*
G37*
G36*
X77867789Y-70498312D02*
G01*
X77898601Y-70516198D01*
X77921883Y-70543703D01*
X77934716Y-70580411D01*
X77936306Y-70600806D01*
X77930184Y-70651915D01*
X77911233Y-70692792D01*
X77881375Y-70723300D01*
X77843466Y-70743187D01*
X77800923Y-70751135D01*
X77759759Y-70746433D01*
X77742742Y-70739724D01*
X77715450Y-70716818D01*
X77697265Y-70683135D01*
X77689165Y-70642907D01*
X77692127Y-70600365D01*
X77703039Y-70567673D01*
X77727677Y-70531245D01*
X77759392Y-70506510D01*
X77795264Y-70493053D01*
X77832370Y-70490458D01*
X77867789Y-70498312D01*
G37*
G36*
X78202147Y-70996070D02*
G01*
X78242410Y-71008467D01*
X78244365Y-71009487D01*
X78269109Y-71031620D01*
X78285958Y-71064273D01*
X78293864Y-71102329D01*
X78291776Y-71140669D01*
X78278644Y-71174176D01*
X78278268Y-71174754D01*
X78245718Y-71211025D01*
X78205784Y-71235081D01*
X78162040Y-71245680D01*
X78118063Y-71241582D01*
X78102014Y-71235905D01*
X78066692Y-71212107D01*
X78043494Y-71178771D01*
X78033916Y-71139577D01*
X78039453Y-71098205D01*
X78042628Y-71089699D01*
X78061855Y-71053111D01*
X78086734Y-71027074D01*
X78119198Y-71007199D01*
X78158528Y-70995601D01*
X78202147Y-70996070D01*
G37*
G36*
X77689667Y-71910826D02*
G01*
X77714062Y-71926297D01*
X77732367Y-71949974D01*
X77739985Y-71977569D01*
X77740003Y-71978921D01*
X77734710Y-72007465D01*
X77717698Y-72029932D01*
X77687264Y-72047717D01*
X77641707Y-72062212D01*
X77636837Y-72063395D01*
X77593334Y-72070984D01*
X77537503Y-72076632D01*
X77473983Y-72080241D01*
X77407416Y-72081715D01*
X77342443Y-72080956D01*
X77283706Y-72077868D01*
X77235845Y-72072353D01*
X77232851Y-72071844D01*
X77185298Y-72061455D01*
X77152426Y-72048669D01*
X77131860Y-72031827D01*
X77121226Y-72009268D01*
X77118599Y-71991956D01*
X77119237Y-71965190D01*
X77128155Y-71945737D01*
X77138482Y-71934131D01*
X77148469Y-71924573D01*
X77157939Y-71918471D01*
X77170099Y-71915743D01*
X77188154Y-71916306D01*
X77215309Y-71920076D01*
X77254772Y-71926971D01*
X77274848Y-71930609D01*
X77319629Y-71935941D01*
X77375334Y-71938449D01*
X77436070Y-71938232D01*
X77495943Y-71935386D01*
X77549060Y-71930008D01*
X77574954Y-71925664D01*
X77609802Y-71918573D01*
X77640670Y-71912376D01*
X77661675Y-71908251D01*
X77663784Y-71907851D01*
X77689667Y-71910826D01*
G37*
G36*
X77497141Y-70923250D02*
G01*
X77561087Y-70950986D01*
X77563022Y-70952119D01*
X77591920Y-70971995D01*
X77628404Y-71001203D01*
X77669141Y-71036628D01*
X77710800Y-71075159D01*
X77750047Y-71113682D01*
X77783549Y-71149085D01*
X77807975Y-71178255D01*
X77813595Y-71186163D01*
X77840696Y-71239947D01*
X77851301Y-71295593D01*
X77845546Y-71354511D01*
X77833673Y-71393704D01*
X77802918Y-71452868D01*
X77759484Y-71500981D01*
X77704337Y-71537250D01*
X77638440Y-71560881D01*
X77627305Y-71563366D01*
X77602923Y-71567533D01*
X77580175Y-71568763D01*
X77554202Y-71566749D01*
X77520146Y-71561189D01*
X77486478Y-71554528D01*
X77443972Y-71546192D01*
X77412717Y-71541474D01*
X77387343Y-71540104D01*
X77362480Y-71541817D01*
X77332756Y-71546345D01*
X77330325Y-71546766D01*
X77280099Y-71555357D01*
X77243128Y-71561164D01*
X77215878Y-71564490D01*
X77194815Y-71565640D01*
X77176406Y-71564915D01*
X77157117Y-71562619D01*
X77152826Y-71561996D01*
X77115187Y-71554367D01*
X77083921Y-71542132D01*
X77053066Y-71522304D01*
X77021476Y-71496160D01*
X76980377Y-71450680D01*
X76950022Y-71397833D01*
X76932575Y-71342073D01*
X76929183Y-71306325D01*
X76931922Y-71267821D01*
X76941086Y-71232003D01*
X76958097Y-71196745D01*
X76984374Y-71159920D01*
X77021339Y-71119404D01*
X77070412Y-71073070D01*
X77105896Y-71041905D01*
X77147133Y-71006695D01*
X77178845Y-70980774D01*
X77204235Y-70962053D01*
X77226504Y-70948443D01*
X77248853Y-70937857D01*
X77274485Y-70928206D01*
X77286478Y-70924104D01*
X77355340Y-70909353D01*
X77427059Y-70909221D01*
X77497141Y-70923250D01*
G37*
G36*
X77540201Y-69084503D02*
G01*
X77720945Y-69102012D01*
X77896595Y-69135250D01*
X78068558Y-69184517D01*
X78238246Y-69250116D01*
X78325940Y-69290727D01*
X78489222Y-69379928D01*
X78642541Y-69482557D01*
X78785266Y-69597748D01*
X78916763Y-69724635D01*
X79036402Y-69862352D01*
X79143549Y-70010032D01*
X79237573Y-70166810D01*
X79317841Y-70331819D01*
X79383721Y-70504193D01*
X79434582Y-70683066D01*
X79467990Y-70855429D01*
X79473078Y-70896259D01*
X79477999Y-70948564D01*
X79482310Y-71006750D01*
X79485569Y-71065223D01*
X79486574Y-71090140D01*
X79484542Y-71274327D01*
X79465940Y-71456583D01*
X79431246Y-71635817D01*
X79380941Y-71810940D01*
X79315502Y-71980859D01*
X79235410Y-72144487D01*
X79141142Y-72300731D01*
X79033178Y-72448503D01*
X78911996Y-72586711D01*
X78778077Y-72714265D01*
X78769972Y-72721275D01*
X78621666Y-72837779D01*
X78464678Y-72939666D01*
X78299491Y-73026722D01*
X78126586Y-73098735D01*
X77946442Y-73155490D01*
X77759542Y-73196773D01*
X77667456Y-73211047D01*
X77631474Y-73214714D01*
X77583128Y-73218017D01*
X77526770Y-73220817D01*
X77466754Y-73222979D01*
X77407432Y-73224367D01*
X77353157Y-73224844D01*
X77308281Y-73224274D01*
X77283383Y-73223076D01*
X77102256Y-73202548D01*
X76930096Y-73168849D01*
X76764190Y-73121251D01*
X76601822Y-73059028D01*
X76506703Y-73015219D01*
X76341883Y-72925399D01*
X76187291Y-72822431D01*
X76043566Y-72707129D01*
X75911350Y-72580307D01*
X75791283Y-72442781D01*
X75684005Y-72295365D01*
X75590157Y-72138874D01*
X75510380Y-71974122D01*
X75445314Y-71801925D01*
X75395599Y-71623096D01*
X75389065Y-71593702D01*
X75375040Y-71525571D01*
X75364340Y-71465769D01*
X75356551Y-71409998D01*
X75351256Y-71353959D01*
X75348041Y-71293354D01*
X75346490Y-71223885D01*
X75346173Y-71149885D01*
X75346656Y-71102943D01*
X75497912Y-71102943D01*
X75500920Y-71283580D01*
X75520508Y-71460948D01*
X75556373Y-71634282D01*
X75608208Y-71802814D01*
X75675710Y-71965777D01*
X75758573Y-72122405D01*
X75856493Y-72271931D01*
X75969165Y-72413587D01*
X76056085Y-72507084D01*
X76091514Y-72541420D01*
X76132380Y-72578633D01*
X76176523Y-72617002D01*
X76221785Y-72654805D01*
X76266005Y-72690321D01*
X76307025Y-72721828D01*
X76342685Y-72747603D01*
X76370825Y-72765926D01*
X76389287Y-72775076D01*
X76393114Y-72775792D01*
X76398528Y-72768362D01*
X76403521Y-72750254D01*
X76403911Y-72748054D01*
X76405747Y-72731599D01*
X76408418Y-72699785D01*
X76411816Y-72654295D01*
X76415836Y-72596812D01*
X76420368Y-72529021D01*
X76425306Y-72452605D01*
X76430542Y-72369249D01*
X76435969Y-72280635D01*
X76441480Y-72188448D01*
X76446966Y-72094371D01*
X76452320Y-72000089D01*
X76456767Y-71919604D01*
X76470626Y-71665129D01*
X76379671Y-71579467D01*
X76322278Y-71523504D01*
X76275969Y-71473559D01*
X76237789Y-71425943D01*
X76204780Y-71376969D01*
X76173986Y-71322946D01*
X76173834Y-71322660D01*
X76134354Y-71233565D01*
X76107941Y-71141180D01*
X76095214Y-71048839D01*
X76095892Y-71010644D01*
X76221190Y-71010644D01*
X76226442Y-71092072D01*
X76247129Y-71175624D01*
X76283284Y-71260200D01*
X76334939Y-71344702D01*
X76335992Y-71346189D01*
X76359861Y-71376274D01*
X76392652Y-71412851D01*
X76430793Y-71452387D01*
X76470709Y-71491346D01*
X76508827Y-71526194D01*
X76541575Y-71553396D01*
X76556020Y-71563830D01*
X76576916Y-71581025D01*
X76590878Y-71598675D01*
X76593116Y-71604055D01*
X76593823Y-71617085D01*
X76593523Y-71645442D01*
X76592308Y-71687418D01*
X76590276Y-71741305D01*
X76587522Y-71805395D01*
X76584139Y-71877982D01*
X76580225Y-71957357D01*
X76575874Y-72041812D01*
X76571181Y-72129640D01*
X76566243Y-72219134D01*
X76561153Y-72308585D01*
X76556007Y-72396286D01*
X76550902Y-72480530D01*
X76545931Y-72559608D01*
X76541190Y-72631813D01*
X76536775Y-72695438D01*
X76532781Y-72748774D01*
X76529302Y-72790115D01*
X76526435Y-72817752D01*
X76524807Y-72828191D01*
X76523827Y-72839433D01*
X76528065Y-72849424D01*
X76539755Y-72859779D01*
X76561126Y-72872116D01*
X76594411Y-72888052D01*
X76628436Y-72903295D01*
X76782042Y-72963862D01*
X76938024Y-73011189D01*
X77092927Y-73044323D01*
X77185231Y-73057138D01*
X77224504Y-73061445D01*
X77260763Y-73065473D01*
X77288291Y-73068583D01*
X77296185Y-73069500D01*
X77324415Y-73071170D01*
X77365791Y-73071475D01*
X77416456Y-73070576D01*
X77472555Y-73068637D01*
X77530233Y-73065820D01*
X77585633Y-73062288D01*
X77634899Y-73058204D01*
X77674176Y-73053730D01*
X77675991Y-73053473D01*
X77777482Y-73036951D01*
X77868301Y-73017768D01*
X77954797Y-72994567D01*
X77961911Y-72992440D01*
X78005757Y-72978476D01*
X78052303Y-72962385D01*
X78098430Y-72945389D01*
X78141023Y-72928713D01*
X78176963Y-72913579D01*
X78203135Y-72901211D01*
X78216421Y-72892831D01*
X78216796Y-72892416D01*
X78219487Y-72881498D01*
X78220115Y-72857110D01*
X78218649Y-72818387D01*
X78215056Y-72764465D01*
X78209303Y-72694481D01*
X78209290Y-72694331D01*
X78199397Y-72578635D01*
X78190062Y-72464533D01*
X78181405Y-72353761D01*
X78173542Y-72248050D01*
X78166594Y-72149133D01*
X78160677Y-72058743D01*
X78155909Y-71978613D01*
X78152411Y-71910475D01*
X78150298Y-71856063D01*
X78149680Y-71820711D01*
X78149680Y-71710082D01*
X78220093Y-71647876D01*
X78303498Y-71571872D01*
X78373217Y-71502966D01*
X78430330Y-71439685D01*
X78475913Y-71380556D01*
X78511043Y-71324104D01*
X78536798Y-71268858D01*
X78554255Y-71213342D01*
X78560750Y-71181926D01*
X78565464Y-71107249D01*
X78554246Y-71035969D01*
X78528115Y-70969460D01*
X78488089Y-70909094D01*
X78435187Y-70856244D01*
X78370426Y-70812283D01*
X78294824Y-70778585D01*
X78252099Y-70765711D01*
X78222098Y-70757149D01*
X78198104Y-70748728D01*
X78185954Y-70742667D01*
X78180792Y-70731306D01*
X78177368Y-70706397D01*
X78175557Y-70666649D01*
X78175184Y-70630342D01*
X78172052Y-70549360D01*
X78162250Y-70481826D01*
X78144907Y-70425132D01*
X78119151Y-70376672D01*
X78084113Y-70333839D01*
X78072280Y-70322273D01*
X78013311Y-70277470D01*
X77947822Y-70245965D01*
X77878777Y-70228556D01*
X77809137Y-70226042D01*
X77752359Y-70236022D01*
X77703891Y-70255202D01*
X77651263Y-70285167D01*
X77599736Y-70322469D01*
X77554570Y-70363657D01*
X77549508Y-70369043D01*
X77520029Y-70397044D01*
X77494801Y-70410672D01*
X77471812Y-70409484D01*
X77449047Y-70393035D01*
X77424493Y-70360881D01*
X77410713Y-70338429D01*
X77365974Y-70276239D01*
X77312109Y-70225285D01*
X77251383Y-70186760D01*
X77186060Y-70161860D01*
X77118404Y-70151780D01*
X77063608Y-70155271D01*
X76996491Y-70171883D01*
X76932823Y-70198145D01*
X76876789Y-70231878D01*
X76832575Y-70270902D01*
X76825381Y-70279320D01*
X76792653Y-70325798D01*
X76770165Y-70373328D01*
X76756557Y-70426278D01*
X76750468Y-70489019D01*
X76749818Y-70521982D01*
X76749138Y-70558307D01*
X76747421Y-70588473D01*
X76744966Y-70608199D01*
X76743417Y-70613039D01*
X76725657Y-70629511D01*
X76698899Y-70636955D01*
X76660531Y-70635898D01*
X76642679Y-70633427D01*
X76568842Y-70629938D01*
X76497334Y-70643226D01*
X76428790Y-70673082D01*
X76363848Y-70719296D01*
X76353899Y-70728136D01*
X76297727Y-70790085D01*
X76256864Y-70858551D01*
X76231341Y-70932437D01*
X76221190Y-71010644D01*
X76095892Y-71010644D01*
X76096794Y-70959876D01*
X76100836Y-70930188D01*
X76105962Y-70897923D01*
X76107279Y-70875992D01*
X76103870Y-70857904D01*
X76094815Y-70837168D01*
X76084987Y-70818289D01*
X76065529Y-70769244D01*
X76059834Y-70724644D01*
X76066688Y-70686336D01*
X76084877Y-70656167D01*
X76113189Y-70635983D01*
X76150409Y-70627631D01*
X76195324Y-70632956D01*
X76204940Y-70635767D01*
X76247944Y-70649519D01*
X76294519Y-70611583D01*
X76367083Y-70561727D01*
X76442940Y-70527207D01*
X76520414Y-70508674D01*
X76567997Y-70505496D01*
X76621925Y-70505496D01*
X76622051Y-70473490D01*
X76625985Y-70432382D01*
X76636353Y-70383120D01*
X76651413Y-70332535D01*
X76669424Y-70287460D01*
X76669525Y-70287246D01*
X76694297Y-70245499D01*
X76729026Y-70200819D01*
X76768866Y-70158775D01*
X76808973Y-70124935D01*
X76813633Y-70121649D01*
X76832577Y-70107562D01*
X76844155Y-70094157D01*
X76851250Y-70076031D01*
X76856746Y-70047781D01*
X76858287Y-70037995D01*
X76869065Y-69989012D01*
X76884871Y-69953811D01*
X76907313Y-69929448D01*
X76922952Y-69919661D01*
X76956863Y-69911165D01*
X76993328Y-69917752D01*
X77029855Y-69938200D01*
X77063950Y-69971286D01*
X77083181Y-69998264D01*
X77096102Y-70016323D01*
X77109861Y-70024895D01*
X77131369Y-70027435D01*
X77141703Y-70027539D01*
X77208788Y-70035533D01*
X77278053Y-70058691D01*
X77346937Y-70095782D01*
X77412874Y-70145574D01*
X77440020Y-70170916D01*
X77468309Y-70198729D01*
X77487427Y-70216071D01*
X77500176Y-70224633D01*
X77509361Y-70226108D01*
X77517786Y-70222187D01*
X77521102Y-70219833D01*
X77597902Y-70168310D01*
X77668192Y-70131479D01*
X77687116Y-70123613D01*
X77717099Y-70112935D01*
X77744413Y-70106271D01*
X77774850Y-70102744D01*
X77814200Y-70101478D01*
X77833887Y-70101409D01*
X77873569Y-70102268D01*
X77908778Y-70104502D01*
X77934789Y-70107733D01*
X77944674Y-70110249D01*
X77958757Y-70113733D01*
X77973893Y-70110626D01*
X77994925Y-70099380D01*
X78010898Y-70089073D01*
X78055001Y-70065455D01*
X78097688Y-70055149D01*
X78098337Y-70055086D01*
X78125016Y-70053672D01*
X78142852Y-70057839D01*
X78159856Y-70070462D01*
X78170805Y-70081098D01*
X78188569Y-70100732D01*
X78197533Y-70118375D01*
X78200627Y-70141559D01*
X78200890Y-70158422D01*
X78199475Y-70189101D01*
X78195857Y-70215720D01*
X78193029Y-70226337D01*
X78190395Y-70240050D01*
X78194269Y-70255805D01*
X78206207Y-70277895D01*
X78218777Y-70297306D01*
X78255396Y-70365632D01*
X78282182Y-70444969D01*
X78298016Y-70531648D01*
X78300986Y-70566752D01*
X78303401Y-70604856D01*
X78306027Y-70629281D01*
X78309866Y-70643401D01*
X78315918Y-70650589D01*
X78325184Y-70654218D01*
X78327076Y-70654705D01*
X78361257Y-70666424D01*
X78402767Y-70685183D01*
X78445279Y-70707779D01*
X78482470Y-70731006D01*
X78493491Y-70739023D01*
X78534312Y-70770394D01*
X78580517Y-70756962D01*
X78618451Y-70749139D01*
X78650973Y-70748301D01*
X78656215Y-70749063D01*
X78687121Y-70762167D01*
X78714771Y-70786195D01*
X78732664Y-70815312D01*
X78733807Y-70818736D01*
X78735072Y-70845502D01*
X78727268Y-70880215D01*
X78712014Y-70917509D01*
X78695486Y-70945672D01*
X78681137Y-70968279D01*
X78675702Y-70984823D01*
X78677595Y-71002700D01*
X78680755Y-71014321D01*
X78687295Y-71050156D01*
X78690339Y-71096828D01*
X78690013Y-71148493D01*
X78686442Y-71199306D01*
X78679751Y-71243422D01*
X78675500Y-71260393D01*
X78645791Y-71339504D01*
X78603907Y-71417583D01*
X78548884Y-71495947D01*
X78479759Y-71575909D01*
X78395565Y-71658784D01*
X78359225Y-71691485D01*
X78267534Y-71772199D01*
X78273110Y-71866452D01*
X78276163Y-71915118D01*
X78280130Y-71973187D01*
X78285084Y-72041576D01*
X78291097Y-72121203D01*
X78298240Y-72212985D01*
X78306584Y-72317840D01*
X78316202Y-72436687D01*
X78327165Y-72570442D01*
X78339545Y-72720025D01*
X78343296Y-72765123D01*
X78346524Y-72795129D01*
X78350283Y-72817117D01*
X78353823Y-72826856D01*
X78354233Y-72827002D01*
X78363080Y-72822565D01*
X78383442Y-72810375D01*
X78412607Y-72792112D01*
X78447864Y-72769454D01*
X78461822Y-72760352D01*
X78607417Y-72655181D01*
X78740713Y-72538887D01*
X78861386Y-72412466D01*
X78969116Y-72276915D01*
X79063580Y-72133233D01*
X79144458Y-71982417D01*
X79211427Y-71825464D01*
X79264166Y-71663371D01*
X79302354Y-71497135D01*
X79325668Y-71327755D01*
X79333787Y-71156228D01*
X79326390Y-70983550D01*
X79303155Y-70810720D01*
X79263761Y-70638734D01*
X79207885Y-70468590D01*
X79204037Y-70458554D01*
X79132310Y-70296165D01*
X79046377Y-70142251D01*
X78947176Y-69997609D01*
X78835644Y-69863033D01*
X78712716Y-69739319D01*
X78579331Y-69627263D01*
X78436424Y-69527659D01*
X78284934Y-69441303D01*
X78125796Y-69368991D01*
X77959948Y-69311518D01*
X77808282Y-69273660D01*
X77630140Y-69245485D01*
X77453140Y-69233867D01*
X77278179Y-69238312D01*
X77106153Y-69258326D01*
X76937957Y-69293415D01*
X76774487Y-69343085D01*
X76616639Y-69406841D01*
X76465308Y-69484190D01*
X76321391Y-69574638D01*
X76185784Y-69677691D01*
X76059381Y-69792854D01*
X75943079Y-69919633D01*
X75837773Y-70057535D01*
X75744360Y-70206066D01*
X75663736Y-70364730D01*
X75614646Y-70483531D01*
X75569711Y-70617964D01*
X75536227Y-70752906D01*
X75513409Y-70892517D01*
X75500472Y-71040958D01*
X75497912Y-71102943D01*
X75346656Y-71102943D01*
X75347119Y-71057924D01*
X75350075Y-70978429D01*
X75355553Y-70906859D01*
X75364066Y-70838675D01*
X75376129Y-70769338D01*
X75392254Y-70694309D01*
X75402646Y-70650590D01*
X75453885Y-70475832D01*
X75520439Y-70307440D01*
X75601469Y-70146257D01*
X75696139Y-69993128D01*
X75803610Y-69848899D01*
X75923044Y-69714414D01*
X76053604Y-69590517D01*
X76194452Y-69478053D01*
X76344750Y-69377868D01*
X76503659Y-69290805D01*
X76670343Y-69217709D01*
X76843964Y-69159425D01*
X76895672Y-69145367D01*
X76994309Y-69122006D01*
X77086955Y-69104792D01*
X77179809Y-69092872D01*
X77279073Y-69085392D01*
X77352952Y-69082419D01*
X77540201Y-69084503D01*
G37*
D12*
%TO.C,C27*%
X111577722Y-70591500D02*
X111577722Y-70375828D01*
X112297722Y-70591500D02*
X112297722Y-70375828D01*
%TO.C,R15*%
X112623158Y-71648664D02*
X113077286Y-71648664D01*
X112623158Y-73118664D02*
X113077286Y-73118664D01*
%TO.C,C14*%
X123503166Y-95003664D02*
X123287494Y-95003664D01*
X123503166Y-95723664D02*
X123287494Y-95723664D01*
%TO.C,C28*%
X108477722Y-70591500D02*
X108477722Y-70375828D01*
X109197722Y-70591500D02*
X109197722Y-70375828D01*
D11*
%TO.C,D1*%
X124775330Y-102784064D02*
G75*
G02*
X124675330Y-102784064I-50000J0D01*
G01*
X124675330Y-102784064D02*
G75*
G02*
X124775330Y-102784064I50000J0D01*
G01*
D12*
%TO.C,R13*%
X83916330Y-77702023D02*
X83916330Y-78009305D01*
X84676330Y-77702023D02*
X84676330Y-78009305D01*
%TO.C,U4*%
X86956829Y-77415663D02*
X86156829Y-77415663D01*
X86956829Y-77415663D02*
X87756829Y-77415663D01*
X86956829Y-80535663D02*
X86156829Y-80535663D01*
X86956829Y-80535663D02*
X87756829Y-80535663D01*
X88496829Y-80815663D02*
X88016829Y-80815663D01*
X88256829Y-80485663D01*
X88496829Y-80815663D01*
G36*
X88496829Y-80815663D02*
G01*
X88016829Y-80815663D01*
X88256829Y-80485663D01*
X88496829Y-80815663D01*
G37*
D11*
%TO.C,D2*%
X103816330Y-82797964D02*
G75*
G02*
X103716330Y-82797964I-50000J0D01*
G01*
X103716330Y-82797964D02*
G75*
G02*
X103816330Y-82797964I50000J0D01*
G01*
D12*
%TO.C,D3*%
X115077722Y-88893664D02*
X115077722Y-87483664D01*
X115077722Y-88893664D02*
X116297722Y-88893664D01*
X116297722Y-88893664D02*
X116297722Y-87483664D01*
%TO.C,R4*%
X120482709Y-103111618D02*
X120699990Y-102894337D01*
X121020110Y-103649019D02*
X121237391Y-103431738D01*
%TO.C,J9*%
X75096472Y-77346664D02*
X75096472Y-89466664D01*
X75096472Y-89466664D02*
X76716472Y-89466664D01*
X76716472Y-77346664D02*
X75096472Y-77346664D01*
X76716472Y-79406664D02*
X75096472Y-79406664D01*
X76716472Y-81406664D02*
X75096472Y-81406664D01*
X76716472Y-83406664D02*
X75096472Y-83406664D01*
X76716472Y-85406664D02*
X75096472Y-85406664D01*
X76716472Y-87406664D02*
X75096472Y-87406664D01*
X76716472Y-89466664D02*
X76716472Y-77346664D01*
X77274358Y-78096664D02*
X76716472Y-78096664D01*
X77274358Y-78716664D02*
X76716472Y-78716664D01*
X77274358Y-80096664D02*
X76716472Y-80096664D01*
X77274358Y-80716664D02*
X76716472Y-80716664D01*
X77274358Y-82096664D02*
X76716472Y-82096664D01*
X77274358Y-82716664D02*
X76716472Y-82716664D01*
X77274358Y-84096664D02*
X76716472Y-84096664D01*
X77274358Y-84716664D02*
X76716472Y-84716664D01*
X77274358Y-86096664D02*
X76716472Y-86096664D01*
X77274358Y-86716664D02*
X76716472Y-86716664D01*
X77274358Y-88096664D02*
X76716472Y-88096664D01*
X77274358Y-88716664D02*
X76716472Y-88716664D01*
X79221472Y-88096664D02*
X79038586Y-88096664D01*
X79221472Y-88716664D02*
X79038586Y-88716664D01*
X79274358Y-78096664D02*
X79038586Y-78096664D01*
X79274358Y-78716664D02*
X79038586Y-78716664D01*
X79274358Y-80096664D02*
X79038586Y-80096664D01*
X79274358Y-80716664D02*
X79038586Y-80716664D01*
X79274358Y-82096664D02*
X79038586Y-82096664D01*
X79274358Y-82716664D02*
X79038586Y-82716664D01*
X79274358Y-84096664D02*
X79038586Y-84096664D01*
X79274358Y-84716664D02*
X79038586Y-84716664D01*
X79274358Y-86096664D02*
X79038586Y-86096664D01*
X79274358Y-86716664D02*
X79038586Y-86716664D01*
X81156472Y-88406664D02*
X81156472Y-89406664D01*
X81156472Y-89406664D02*
X80156472Y-89406664D01*
%TO.C,C1*%
X110775527Y-94774351D02*
X110928030Y-94621848D01*
X111284644Y-95283468D02*
X111437147Y-95130965D01*
%TO.C,C15*%
X84036330Y-79627828D02*
X84036330Y-79843500D01*
X84756330Y-79627828D02*
X84756330Y-79843500D01*
%TO.C,R10*%
X120757722Y-91580022D02*
X120757722Y-91887304D01*
X121517722Y-91580022D02*
X121517722Y-91887304D01*
%TO.C,R11*%
X87737970Y-76415664D02*
X87430688Y-76415664D01*
X87737970Y-77175664D02*
X87430688Y-77175664D01*
%TO.C,R1*%
X122629958Y-100991786D02*
X122412677Y-101209067D01*
X123167359Y-101529187D02*
X122950078Y-101746468D01*
%TO.C,U3*%
X121785330Y-94273664D02*
X121785330Y-91273664D01*
X121835330Y-91213664D02*
X121985330Y-91213664D01*
X125005330Y-94273664D02*
X125005330Y-91273664D01*
X122055330Y-95313664D02*
X121575330Y-94833664D01*
X122055330Y-94833664D01*
X122055330Y-95313664D01*
G36*
X122055330Y-95313664D02*
G01*
X121575330Y-94833664D01*
X122055330Y-94833664D01*
X122055330Y-95313664D01*
G37*
%TO.C,J6*%
X83685330Y-72499664D02*
X83685330Y-73449664D01*
X83685330Y-73449664D02*
X84635330Y-73449664D01*
X90285330Y-69529664D02*
X84055330Y-69529664D01*
X90655330Y-72499664D02*
X90655330Y-73449664D01*
X90655330Y-73449664D02*
X89705330Y-73449664D01*
%TD*%
M02*
