M48
; DRILL file {KiCad 8.0.1} date 2024-06-02T00:59:24+0800
; FORMAT={-:-/ absolute / metric / decimal}
; #@! TF.CreationDate,2024-06-02T00:59:24+08:00
; #@! TF.GenerationSoftware,Kicad,Pcbnew,8.0.1
; #@! TF.FileFunction,Plated,1,4,PTH
FMAT,2
METRIC
; #@! TA.AperFunction,Plated,PTH,ViaDrill
T1C0.300
; #@! TA.AperFunction,Plated,PTH,ViaDrill
T2C0.500
; #@! TA.AperFunction,Plated,PTH,ComponentDrill
T3C0.600
; #@! TA.AperFunction,Plated,PTH,ComponentDrill
T4C0.800
; #@! TA.AperFunction,Plated,PTH,ComponentDrill
T5C0.914
; #@! TA.AperFunction,Plated,PTH,ComponentDrill
T6C1.020
; #@! TA.AperFunction,Plated,PTH,ComponentDrill
T7C1.900
; #@! TA.AperFunction,Plated,PTH,ComponentDrill
T8C3.200
%
G90
G05
T1
X117.998Y-93.197
X118.148Y-100.448
X118.323Y-109.697
X118.648Y-111.947
X118.906Y-105.195
X119.898Y-103.047
X119.906Y-101.448
X119.906Y-105.195
X120.598Y-107.982
X120.598Y-109.827
X121.755Y-101.779
X121.806Y-100.99
X121.806Y-105.284
X121.832Y-110.237
X123.489Y-111.967
X123.849Y-116.13
X123.914Y-101.068
X124.075Y-110.694
X124.126Y-108.789
X124.598Y-87.097
X124.739Y-111.967
X125.358Y-109.847
X126.498Y-109.657
X126.507Y-102.668
X126.59Y-111.71
X126.609Y-97.893
X127.506Y-100.534
X127.768Y-109.167
X128.573Y-97.74
X128.624Y-100.433
X129.154Y-106.447
X129.64Y-96.572
X130.204Y-106.797
X130.235Y-106.023
X130.904Y-106.023
X131.323Y-92.547
X131.977Y-116.689
X132.409Y-106.122
X132.573Y-92.547
X133.831Y-98.401
X133.88Y-105.398
X134.454Y-110.647
X135.267Y-106.212
X135.558Y-103.1
X136.521Y-103.506
X137.512Y-105.626
X137.604Y-108.197
X137.844Y-102.998
X138.246Y-107.953
X138.423Y-91.972
X138.826Y-92.947
X139.647Y-86.31
X140.034Y-108.188
X140.348Y-95.447
X140.658Y-107.322
X140.714Y-102.142
X140.798Y-102.972
X140.848Y-100.997
X140.923Y-106.172
X141.334Y-108.188
X141.984Y-108.188
X143.229Y-103.506
X143.697Y-92.547
X143.798Y-101.447
X144.947Y-92.547
X145.134Y-102.287
X145.337Y-107.545
X146.341Y-106.997
X146.504Y-106.247
X146.538Y-107.598
X147.095Y-108.187
X147.658Y-108.427
X149.048Y-92.947
X149.248Y-92.147
X150.264Y-102.497
X150.392Y-98.426
X150.448Y-91.922
X150.455Y-94.525
X151.754Y-107.847
X151.865Y-95.025
X151.964Y-93.524
X152.204Y-108.397
X152.619Y-107.882
X152.685Y-117.887
X152.898Y-99.097
X153.034Y-100.204
X153.034Y-101.474
X153.034Y-108.369
X153.055Y-121.885
X153.253Y-96.987
X153.314Y-92.062
X153.494Y-103.127
X153.615Y-87.447
X153.643Y-119.889
X153.669Y-100.839
X153.694Y-107.817
X153.744Y-109.653
X153.844Y-93.204
X153.844Y-95.846
X154.022Y-108.561
X154.076Y-115.547
X154.278Y-111.337
X154.304Y-100.204
X154.304Y-101.474
X154.368Y-120.028
X154.724Y-104.027
X154.728Y-109.897
X154.798Y-111.767
X154.862Y-117.451
X155.091Y-121.566
X155.348Y-100.189
X155.348Y-100.839
X156.284Y-122.429
X156.288Y-107.831
X156.386Y-119.28
X156.447Y-99.864
X156.447Y-100.514
X156.447Y-101.164
X156.486Y-93.204
X156.486Y-95.846
X156.505Y-124.365
X156.638Y-115.851
X156.833Y-108.098
X156.945Y-111.761
X157.017Y-92.062
X157.413Y-96.987
X157.705Y-117.298
X157.714Y-108.307
X157.754Y-88.045
X157.904Y-97.354
X157.952Y-118.811
X158.165Y-95.525
X158.215Y-94.025
X158.329Y-112.122
X158.354Y-121.698
X158.383Y-112.927
X158.504Y-109.083
X158.622Y-119.838
X158.854Y-88.047
X159.074Y-107.747
X159.117Y-110.854
X159.279Y-113.072
X159.304Y-122.113
X159.364Y-104.357
X159.383Y-102.369
X159.388Y-109.147
X159.595Y-118.3
X159.854Y-89.247
X159.854Y-92.347
X159.854Y-121.283
X160.198Y-98.997
X160.321Y-119.026
X160.459Y-114.154
X160.47Y-94.526
X160.654Y-122.897
X160.854Y-87.847
X160.906Y-116.298
X160.937Y-115.481
X160.975Y-124.055
X161.298Y-113.013
X161.354Y-119.247
X161.414Y-108.047
X161.456Y-120.399
X161.496Y-110.819
X161.651Y-114.919
X161.72Y-100.035
X161.72Y-100.835
X161.72Y-105.625
X161.72Y-106.435
X161.854Y-89.247
X162.404Y-122.347
X162.514Y-109.427
X162.526Y-120.361
X162.636Y-111.757
X162.665Y-116.175
X162.665Y-117.775
X162.854Y-87.847
X162.955Y-120.792
X163.016Y-124.563
X163.047Y-103.985
X163.048Y-102.983
X163.115Y-112.236
X163.319Y-115.142
X163.332Y-114.499
X163.37Y-120.298
X163.447Y-109.374
X163.75Y-113.013
X163.785Y-119.834
X163.854Y-89.247
X163.854Y-92.647
X163.894Y-115.767
X164.265Y-117.775
X164.463Y-119.635
X164.707Y-118.968
X164.854Y-87.847
X164.998Y-113.997
X165.48Y-113.555
X165.504Y-117.887
X165.895Y-114.135
X166.287Y-115.567
X166.384Y-117.817
X167.717Y-115.758
X167.748Y-114.037
X167.848Y-108.717
X168.298Y-116.321
X168.299Y-86.691
X168.498Y-108.717
X168.653Y-113.913
X168.778Y-115.487
X169.215Y-98.525
X169.215Y-101.725
X169.215Y-106.125
X169.289Y-93.524
X169.475Y-114.865
X169.545Y-116.235
X169.618Y-109.265
T2
X127.523Y-88.781
X128.948Y-90.781
X136.894Y-95.427
X159.854Y-93.755
T4
X122.934Y-96.448
X122.934Y-98.448
X122.934Y-100.448
X122.934Y-102.448
X122.934Y-104.448
X122.934Y-106.448
X124.934Y-96.448
X124.934Y-98.448
X124.934Y-100.448
X124.934Y-102.448
X124.934Y-104.448
X124.934Y-106.448
T5
X159.49Y-96.989
X161.49Y-96.989
T6
X149.683Y-100.839
X149.683Y-103.839
T7
X158.26Y-100.839
X158.26Y-105.919
T8
X130.864Y-110.918
X142.848Y-98.147
T3
G00X163.41Y-98.915
M15
G01X162.31Y-98.915
M16
G05
G00X163.41Y-107.555
M15
G01X162.31Y-107.555
M16
G05
G00X167.44Y-98.915
M15
G01X166.64Y-98.915
M16
G05
G00X167.44Y-107.555
M15
G01X166.64Y-107.555
M16
G05
M30
