%TF.GenerationSoftware,KiCad,Pcbnew,8.0.3*%
%TF.CreationDate,2024-06-13T13:09:18+08:00*%
%TF.ProjectId,SB-main-board,53422d6d-6169-46e2-9d62-6f6172642e6b,A0*%
%TF.SameCoordinates,Original*%
%TF.FileFunction,Copper,L3,Inr*%
%TF.FilePolarity,Positive*%
%FSLAX46Y46*%
G04 Gerber Fmt 4.6, Leading zero omitted, Abs format (unit mm)*
G04 Created by KiCad (PCBNEW 8.0.3) date 2024-06-13 13:09:18*
%MOMM*%
%LPD*%
G01*
G04 APERTURE LIST*
G04 Aperture macros list*
%AMRoundRect*
0 Rectangle with rounded corners*
0 $1 Rounding radius*
0 $2 $3 $4 $5 $6 $7 $8 $9 X,Y pos of 4 corners*
0 Add a 4 corners polygon primitive as box body*
4,1,4,$2,$3,$4,$5,$6,$7,$8,$9,$2,$3,0*
0 Add four circle primitives for the rounded corners*
1,1,$1+$1,$2,$3*
1,1,$1+$1,$4,$5*
1,1,$1+$1,$6,$7*
1,1,$1+$1,$8,$9*
0 Add four rect primitives between the rounded corners*
20,1,$1+$1,$2,$3,$4,$5,0*
20,1,$1+$1,$4,$5,$6,$7,0*
20,1,$1+$1,$6,$7,$8,$9,0*
20,1,$1+$1,$8,$9,$2,$3,0*%
G04 Aperture macros list end*
%TA.AperFunction,ComponentPad*%
%ADD10C,2.800000*%
%TD*%
%TA.AperFunction,ComponentPad*%
%ADD11C,1.524000*%
%TD*%
%TA.AperFunction,ComponentPad*%
%ADD12RoundRect,0.250001X0.499999X0.499999X-0.499999X0.499999X-0.499999X-0.499999X0.499999X-0.499999X0*%
%TD*%
%TA.AperFunction,ComponentPad*%
%ADD13C,1.500000*%
%TD*%
%TA.AperFunction,ComponentPad*%
%ADD14C,5.500000*%
%TD*%
%TA.AperFunction,ComponentPad*%
%ADD15R,1.350000X1.350000*%
%TD*%
%TA.AperFunction,ComponentPad*%
%ADD16O,1.350000X1.350000*%
%TD*%
%TA.AperFunction,ComponentPad*%
%ADD17O,1.800000X1.000000*%
%TD*%
%TA.AperFunction,ComponentPad*%
%ADD18O,2.100000X1.000000*%
%TD*%
%TA.AperFunction,ViaPad*%
%ADD19C,0.500000*%
%TD*%
%TA.AperFunction,ViaPad*%
%ADD20C,1.000000*%
%TD*%
%TA.AperFunction,Conductor*%
%ADD21C,0.177800*%
%TD*%
%TA.AperFunction,Conductor*%
%ADD22C,1.016000*%
%TD*%
%TA.AperFunction,Conductor*%
%ADD23C,0.254000*%
%TD*%
%TA.AperFunction,Conductor*%
%ADD24C,0.127000*%
%TD*%
G04 APERTURE END LIST*
D10*
%TO.N,+24V*%
%TO.C,J1*%
X158260400Y-105919165D03*
%TO.N,PGND*%
X158260400Y-100839165D03*
D11*
%TO.N,/CAN_H*%
X159490400Y-96989165D03*
%TO.N,/CAN_L*%
X161490400Y-96989165D03*
%TD*%
D12*
%TO.N,+24V*%
%TO.C,J5*%
X149682900Y-103839165D03*
D13*
%TO.N,Net-(D2-K)*%
X149682900Y-100839165D03*
%TD*%
D14*
%TO.N,PGND*%
%TO.C,H2*%
X130863900Y-110917865D03*
%TD*%
%TO.N,PGND*%
%TO.C,H1*%
X142847900Y-98146865D03*
%TD*%
D15*
%TO.N,/FAN0_DET*%
%TO.C,J9*%
X124934042Y-106447865D03*
D16*
%TO.N,/NEO*%
X122934042Y-106447865D03*
%TO.N,/FAN0_PWM*%
X124934042Y-104447865D03*
%TO.N,/FAN1_PWM*%
X122934042Y-104447865D03*
%TO.N,/ADC0*%
X124934042Y-102447865D03*
%TO.N,/FAN1_DET*%
X122934042Y-102447865D03*
%TO.N,/ADC1*%
X124934042Y-100447865D03*
%TO.N,+3V3B*%
X122934042Y-100447865D03*
%TO.N,GND*%
X124934042Y-98447865D03*
%TO.N,PGND*%
X122934042Y-98447865D03*
%TO.N,+24V*%
X124934042Y-96447865D03*
%TO.N,PGND*%
X122934042Y-96447865D03*
%TD*%
D17*
%TO.N,GND*%
%TO.C,J2*%
X167040292Y-98914865D03*
D18*
X162860292Y-98914865D03*
D17*
X167040292Y-107554865D03*
D18*
X162860292Y-107554865D03*
%TD*%
D19*
%TO.N,GND*%
X149247900Y-92146865D03*
X153055292Y-121884865D03*
X153844492Y-95845666D03*
X168777900Y-115486865D03*
X145133900Y-102287065D03*
X156486092Y-93204066D03*
X162665292Y-116174865D03*
X126589900Y-111710465D03*
X161720292Y-100034865D03*
X136377900Y-103426865D03*
X169215292Y-106124865D03*
X156284500Y-122429265D03*
X159382793Y-102368865D03*
X118647900Y-111946865D03*
X119897900Y-103046865D03*
X160975292Y-124054865D03*
X158328900Y-112121865D03*
X142047900Y-107166865D03*
X137603900Y-108196865D03*
X123914442Y-101067865D03*
X162665292Y-117774865D03*
X143228900Y-103506265D03*
X126507900Y-97716865D03*
X121806242Y-105284265D03*
X155090700Y-121565665D03*
X138422900Y-91971865D03*
X145069499Y-107694410D03*
X156638100Y-115850665D03*
X156944900Y-111761265D03*
X125357900Y-109846865D03*
X160197900Y-98996865D03*
X159073900Y-107746865D03*
X161720292Y-106434865D03*
X156505292Y-124364865D03*
X159363900Y-104356865D03*
X161413892Y-108046865D03*
X138826400Y-92946865D03*
X143797900Y-101446865D03*
X167747900Y-114036865D03*
X126527900Y-100386865D03*
X164265292Y-117774865D03*
X159278900Y-113071865D03*
X126497900Y-109656865D03*
X153844492Y-93204066D03*
X141197900Y-106166865D03*
X140847900Y-100996865D03*
X169215292Y-101724865D03*
X163447300Y-109373665D03*
X169545292Y-116234865D03*
X124126100Y-108789465D03*
X150447900Y-91921865D03*
X156486092Y-95845666D03*
X156386100Y-119279665D03*
X124075300Y-110694465D03*
X169475292Y-114864865D03*
X121831642Y-110237265D03*
X154862100Y-117450865D03*
X137844100Y-102998265D03*
X169215292Y-98524865D03*
X149047900Y-92946865D03*
X163015500Y-124562865D03*
X159387900Y-109146865D03*
X142917900Y-108126865D03*
%TO.N,+1V1*%
X160905991Y-116298407D03*
X164707436Y-118968480D03*
D20*
%TO.N,+24V*%
X128947900Y-90780865D03*
X159854399Y-93755367D03*
X136893900Y-95426865D03*
D19*
X153313692Y-92062366D03*
X157016892Y-92062366D03*
%TO.N,PGND*%
X127767900Y-109166865D03*
X153493900Y-103126865D03*
X129639900Y-96572065D03*
X155347900Y-100189165D03*
X156447100Y-100514165D03*
X155347900Y-100839165D03*
X163853900Y-92646865D03*
X128573100Y-97740465D03*
X133830900Y-98400865D03*
X139647500Y-86310465D03*
X153615292Y-87446865D03*
X124597900Y-87096865D03*
X154723900Y-104026865D03*
X128977900Y-101536865D03*
X127506300Y-100534465D03*
D20*
X127522900Y-88780865D03*
D19*
X157713900Y-108306865D03*
X150263900Y-102496865D03*
X152897900Y-99096865D03*
X156447100Y-99864165D03*
X154727900Y-109896865D03*
X157753900Y-88044865D03*
X134453900Y-110646865D03*
X117997900Y-93196865D03*
X150391700Y-98426265D03*
X132408500Y-106122465D03*
X161853900Y-89246865D03*
X134537900Y-106086865D03*
X154021900Y-108560865D03*
X131976700Y-116688865D03*
X154797900Y-111766865D03*
X159853900Y-89246865D03*
X160470499Y-94526383D03*
X134497900Y-103706865D03*
X169289300Y-93524065D03*
X123848700Y-116130065D03*
X168298700Y-86691465D03*
X159853900Y-92346865D03*
X156447100Y-101164165D03*
X163853900Y-89246865D03*
X128623900Y-100432865D03*
%TO.N,+5V*%
X168652900Y-113912865D03*
X152684766Y-117886865D03*
X158504223Y-109083188D03*
%TO.N,/USB_D+*%
X162635958Y-111756528D03*
X160459035Y-114154395D03*
X163047900Y-102983426D03*
X163046767Y-103984865D03*
%TO.N,/USB_D-*%
X163115236Y-112235806D03*
X161651006Y-114918837D03*
%TO.N,Net-(D3-A)*%
X161720292Y-100834865D03*
X161720292Y-105624865D03*
%TO.N,/FAN0_PWM*%
X158353900Y-121698163D03*
X146537600Y-107597573D03*
X130235174Y-106022865D03*
X152619000Y-107882300D03*
%TO.N,/FAN0_DET*%
X160653900Y-122896865D03*
X151753900Y-107846865D03*
X129153900Y-106446865D03*
X147657900Y-108426865D03*
%TO.N,Net-(J4-Pin_2)*%
X140683900Y-108188468D03*
%TO.N,Net-(J4-Pin_3)*%
X141499567Y-108188181D03*
%TO.N,Net-(J4-Pin_1)*%
X139868186Y-108188011D03*
%TO.N,/FAN1_PWM*%
X152203900Y-108396865D03*
X130203900Y-106796865D03*
X147094602Y-108186596D03*
X159303900Y-122113263D03*
%TO.N,/FAN1_DET*%
X153034100Y-108368839D03*
X159853900Y-121283063D03*
X130903900Y-106022865D03*
X146340787Y-106997020D03*
%TO.N,/FAN2_PWM*%
X157704900Y-117298465D03*
X131322900Y-92546865D03*
%TO.N,/FAN2_DET*%
X132572900Y-92546865D03*
X159595004Y-118299569D03*
%TO.N,/NEO*%
X160321100Y-119025665D03*
%TO.N,/LDC_SCL*%
X124738900Y-111966665D03*
X153642900Y-119889265D03*
%TO.N,/LDC_SDA*%
X123488900Y-111966665D03*
X154368221Y-120027544D03*
%TO.N,/ADC0*%
X163893900Y-115766865D03*
X156287642Y-107830938D03*
%TO.N,/ADC1*%
X163318622Y-115141636D03*
X156832900Y-108097730D03*
%TO.N,/TMC_EN*%
X151964072Y-93524065D03*
X168298027Y-116320570D03*
%TO.N,/HEAT*%
X166384074Y-117816691D03*
%TO.N,/SPI0_CLK*%
X162955124Y-120792232D03*
X119906042Y-105194865D03*
X133287900Y-105397765D03*
%TO.N,/TMC_DIAG*%
X157903539Y-97354323D03*
X164997900Y-113996865D03*
%TO.N,/ADXL_INT1*%
X121755442Y-101779065D03*
X163370224Y-120298275D03*
%TO.N,/TMC_STEP*%
X158165291Y-95524866D03*
X165895492Y-114134865D03*
%TO.N,/ADXL_INT2*%
X121806242Y-100989965D03*
X163785324Y-119833998D03*
%TO.N,/SPI0_CS1*%
X118322900Y-109696865D03*
X119906042Y-101447865D03*
X158621793Y-119838465D03*
%TO.N,/SPI0_MOSI*%
X138707298Y-107511866D03*
X120597900Y-107981765D03*
X162403900Y-122346865D03*
%TO.N,/TEMP_A*%
X162513900Y-109426865D03*
%TO.N,/SPI0_MISO*%
X136687900Y-105626365D03*
X162526276Y-120360559D03*
%TO.N,/ENDSTOP0*%
X143696900Y-92546865D03*
X165503900Y-117886865D03*
X159116630Y-110854134D03*
%TO.N,/TMC_DIR*%
X158215292Y-94024866D03*
X167716723Y-115758042D03*
%TO.N,/TMC_UART*%
X165480392Y-113554724D03*
X157412791Y-96987366D03*
%TO.N,/SPI0_CS2*%
X153693900Y-107816865D03*
X146503900Y-106246865D03*
X161353900Y-119246865D03*
X135319379Y-106065386D03*
%TO.N,/CAN_H*%
X167847900Y-108717365D03*
%TO.N,/CAN_L*%
X168497900Y-108717365D03*
%TO.N,Net-(U6-CPO)*%
X150455292Y-94524866D03*
%TO.N,Net-(U6-CPI)*%
X151865292Y-95024865D03*
%TO.N,Net-(U6-5VOUT)*%
X153252791Y-96987366D03*
%TO.N,Net-(D2-K)*%
X154303900Y-101474165D03*
X153668900Y-100839165D03*
X153033900Y-100204165D03*
X154303900Y-100204165D03*
X153033900Y-101474165D03*
%TO.N,Net-(J3-Pin_1)*%
X164853900Y-87846865D03*
%TO.N,Net-(J3-Pin_4)*%
X158853900Y-88046865D03*
%TO.N,Net-(J3-Pin_2)*%
X162853900Y-87846865D03*
%TO.N,Net-(J3-Pin_3)*%
X160853900Y-87846865D03*
%TO.N,/FS*%
X144946900Y-92546865D03*
X163332353Y-114499151D03*
%TO.N,+3V3A*%
X157951815Y-118811388D03*
X166287398Y-115566971D03*
X169617900Y-109264865D03*
X158382978Y-112926865D03*
X164463300Y-119635265D03*
X161496400Y-110818865D03*
X160937485Y-115481372D03*
X161455702Y-120398667D03*
X163750034Y-113013169D03*
X161297708Y-113013169D03*
%TO.N,+3V3B*%
X140713900Y-102141866D03*
X118147900Y-100447865D03*
X118906042Y-105194865D03*
X120597900Y-109826865D03*
%TO.N,Net-(J4-Pin_4)*%
X142660502Y-107511866D03*
%TD*%
D21*
%TO.N,+1V1*%
X160905991Y-116298407D02*
X161544449Y-116936865D01*
X162675821Y-116936865D02*
X164707436Y-118968480D01*
X161544449Y-116936865D02*
X162675821Y-116936865D01*
D22*
%TO.N,+24V*%
X126707900Y-90780865D02*
X124934042Y-92554723D01*
X146647900Y-94236600D02*
X148087900Y-95676600D01*
X158161398Y-92062366D02*
X151702134Y-92062366D01*
X159854399Y-93755367D02*
X158161398Y-92062366D01*
X151702134Y-92062366D02*
X148087900Y-95676600D01*
X148087900Y-95676600D02*
X148087900Y-102244165D01*
X128947900Y-90780865D02*
X126707900Y-90780865D01*
X145681900Y-90780865D02*
X146647900Y-91746865D01*
X124934042Y-92554723D02*
X124934042Y-96447865D01*
X148087900Y-102244165D02*
X149682900Y-103839165D01*
X136893900Y-95426865D02*
X136893900Y-90826865D01*
X128947900Y-90780865D02*
X145681900Y-90780865D01*
X146647900Y-91746865D02*
X146647900Y-94236600D01*
D23*
%TO.N,+5V*%
X168652900Y-111031865D02*
X167737900Y-110116865D01*
X168652900Y-113912865D02*
X168652900Y-111031865D01*
X159537900Y-110116865D02*
X158504223Y-109083188D01*
X167737900Y-110116865D02*
X159537900Y-110116865D01*
D24*
%TO.N,/USB_D+*%
X162126500Y-112529737D02*
X162635958Y-112020279D01*
X162126500Y-113528199D02*
X162126500Y-112529737D01*
X162635958Y-112020279D02*
X162635958Y-111756528D01*
X160459035Y-114154395D02*
X161500304Y-114154395D01*
X161500304Y-114154395D02*
X162126500Y-113528199D01*
%TO.N,/USB_D-*%
X161651006Y-114434747D02*
X162431300Y-113654453D01*
X161651006Y-114918837D02*
X161651006Y-114434747D01*
X162431300Y-112655991D02*
X162851485Y-112235806D01*
X162431300Y-113654453D02*
X162431300Y-112655991D01*
X162851485Y-112235806D02*
X163115236Y-112235806D01*
D23*
%TO.N,Net-(D3-A)*%
X162925292Y-105624865D02*
X163815292Y-104734865D01*
X163815292Y-104734865D02*
X163815292Y-101724865D01*
X161720292Y-100834865D02*
X162925292Y-100834865D01*
X161720292Y-105624865D02*
X162925292Y-105624865D01*
X162925292Y-100834865D02*
X163815292Y-101724865D01*
D24*
%TO.N,/FAN0_PWM*%
X130995174Y-106782865D02*
X130235174Y-106022865D01*
X146537600Y-108219745D02*
X145688180Y-109069165D01*
X146537600Y-107597573D02*
X146537600Y-108219745D01*
X154118300Y-112240906D02*
X154118300Y-118041993D01*
X152619000Y-107882300D02*
X152619000Y-108568806D01*
X145688180Y-109069165D02*
X137031571Y-109069165D01*
X152111100Y-110233705D02*
X154118300Y-112240906D01*
X154118300Y-118041993D02*
X157774470Y-121698163D01*
X152619000Y-108568806D02*
X152111100Y-109076706D01*
X157774470Y-121698163D02*
X158353900Y-121698163D01*
X137031571Y-109069165D02*
X134745270Y-106782865D01*
X152111100Y-109076706D02*
X152111100Y-110233705D01*
X134745270Y-106782865D02*
X130995174Y-106782865D01*
%TO.N,/FAN0_DET*%
X153661100Y-118231373D02*
X153661100Y-112430285D01*
X147657900Y-108426865D02*
X147483069Y-108601696D01*
X145877560Y-109526365D02*
X136842193Y-109526365D01*
X153661100Y-112430285D02*
X151653900Y-110423085D01*
X151653900Y-107946865D02*
X151753900Y-107846865D01*
X136842193Y-109526365D02*
X134555890Y-107240065D01*
X158326592Y-122896865D02*
X153661100Y-118231373D01*
X151653900Y-110423085D02*
X151653900Y-107946865D01*
X147483069Y-108601696D02*
X146802229Y-108601696D01*
X160653900Y-122896865D02*
X158326592Y-122896865D01*
X146802229Y-108601696D02*
X145877560Y-109526365D01*
X129947100Y-107240065D02*
X129153900Y-106446865D01*
X134555890Y-107240065D02*
X129947100Y-107240065D01*
%TO.N,/FAN1_PWM*%
X151882500Y-108718265D02*
X152203900Y-108396865D01*
X147094602Y-108186596D02*
X146987128Y-108294070D01*
X157866280Y-122113263D02*
X153889700Y-118136683D01*
X136936882Y-109297765D02*
X134650580Y-107011465D01*
X159303900Y-122113263D02*
X157866280Y-122113263D01*
X153889700Y-112335595D02*
X151882500Y-110328395D01*
X151882500Y-110328395D02*
X151882500Y-108718265D01*
X146987128Y-108294070D02*
X146786565Y-108294070D01*
X146786565Y-108294070D02*
X145782870Y-109297765D01*
X134650580Y-107011465D02*
X130418500Y-107011465D01*
X153889700Y-118136683D02*
X153889700Y-112335595D01*
X130418500Y-107011465D02*
X130203900Y-106796865D01*
X145782870Y-109297765D02*
X136936882Y-109297765D01*
%TO.N,/FAN1_DET*%
X157682660Y-121283063D02*
X159853900Y-121283063D01*
X152339700Y-110139016D02*
X154346900Y-112146217D01*
X134839960Y-106554265D02*
X137126260Y-108840565D01*
X146122500Y-108311555D02*
X146122500Y-107215307D01*
X131435300Y-106554265D02*
X134839960Y-106554265D01*
X146122500Y-107215307D02*
X146340787Y-106997020D01*
X154346900Y-117947303D02*
X157682660Y-121283063D01*
X153034100Y-108368839D02*
X153034100Y-108476996D01*
X152339700Y-109171396D02*
X152339700Y-110139016D01*
X153034100Y-108476996D02*
X152339700Y-109171396D01*
X137126260Y-108840565D02*
X145593490Y-108840565D01*
X145593490Y-108840565D02*
X146122500Y-108311555D01*
X130903900Y-106022865D02*
X131435300Y-106554265D01*
X154346900Y-112146217D02*
X154346900Y-117947303D01*
%TO.N,/LDC_SCL*%
X150224500Y-110027465D02*
X136696710Y-110027465D01*
X136696710Y-110027465D02*
X134366510Y-107697265D01*
X153642900Y-119889265D02*
X153203900Y-119450265D01*
X125751700Y-107697265D02*
X124738900Y-108710065D01*
X124738900Y-108710065D02*
X124738900Y-111966665D01*
X153203900Y-113006865D02*
X150224500Y-110027465D01*
X134366510Y-107697265D02*
X125751700Y-107697265D01*
X153203900Y-119450265D02*
X153203900Y-113006865D01*
%TO.N,/LDC_SDA*%
X124405500Y-107468665D02*
X123488900Y-108385265D01*
X150319189Y-109798865D02*
X136791400Y-109798865D01*
X153432500Y-119091823D02*
X153432500Y-112912175D01*
X154368221Y-120027544D02*
X153432500Y-119091823D01*
X123488900Y-108385265D02*
X123488900Y-111966665D01*
X136791400Y-109798865D02*
X134461200Y-107468665D01*
X134461200Y-107468665D02*
X124405500Y-107468665D01*
X153432500Y-112912175D02*
X150319189Y-109798865D01*
%TO.N,/ADC0*%
X156287642Y-107830938D02*
X156287642Y-107567187D01*
X128058610Y-103099865D02*
X125586042Y-103099865D01*
X125586042Y-103099865D02*
X124934042Y-102447865D01*
X129484210Y-104525465D02*
X128058610Y-103099865D01*
X153964520Y-105244065D02*
X148764520Y-105244065D01*
X156287642Y-107567187D02*
X153964520Y-105244065D01*
X148045921Y-104525465D02*
X129484210Y-104525465D01*
X148764520Y-105244065D02*
X148045921Y-104525465D01*
%TO.N,/ADC1*%
X156832900Y-108097730D02*
X156832900Y-107789155D01*
X148859210Y-105015465D02*
X148140610Y-104296865D01*
X154059210Y-105015465D02*
X148859210Y-105015465D01*
X148140610Y-104296865D02*
X129578900Y-104296865D01*
X156832900Y-107789155D02*
X154059210Y-105015465D01*
X129578900Y-104296865D02*
X125729900Y-100447865D01*
X125729900Y-100447865D02*
X124934042Y-100447865D01*
%TO.N,/SPI0_CLK*%
X133178100Y-105287965D02*
X122396983Y-105287965D01*
X162955124Y-119581159D02*
X162955124Y-120792232D01*
X155946700Y-112572735D02*
X162955124Y-119581159D01*
X155415342Y-108192257D02*
X155946700Y-108723616D01*
X133474400Y-105211265D02*
X147761852Y-105211265D01*
X155946700Y-108723616D02*
X155946700Y-112572735D01*
X155415342Y-107664757D02*
X155415342Y-108192257D01*
X121978183Y-104869165D02*
X120231742Y-104869165D01*
X133287900Y-105397765D02*
X133178100Y-105287965D01*
X120231742Y-104869165D02*
X119906042Y-105194865D01*
X148480452Y-105929865D02*
X153680450Y-105929865D01*
X122396983Y-105287965D02*
X121978183Y-104869165D01*
X133287900Y-105397765D02*
X133474400Y-105211265D01*
X153680450Y-105929865D02*
X155415342Y-107664757D01*
X147761852Y-105211265D02*
X148480452Y-105929865D01*
%TO.N,/ADXL_INT1*%
X121755442Y-103023665D02*
X121755442Y-101779065D01*
X156175300Y-108628927D02*
X155643942Y-108097568D01*
X153775140Y-105701265D02*
X148575141Y-105701265D01*
X155643942Y-107570067D02*
X153775140Y-105701265D01*
X122288842Y-103557065D02*
X121755442Y-103023665D01*
X148575141Y-105701265D02*
X147856541Y-104982665D01*
X156175300Y-112478046D02*
X156175300Y-108628927D01*
X129294831Y-104982665D02*
X127869230Y-103557065D01*
X155643942Y-108097568D02*
X155643942Y-107570067D01*
X163370224Y-119672971D02*
X156175300Y-112478046D01*
X163370224Y-120298275D02*
X163370224Y-119672971D01*
X127869230Y-103557065D02*
X122288842Y-103557065D01*
X147856541Y-104982665D02*
X129294831Y-104982665D01*
%TO.N,/ADXL_INT2*%
X153869830Y-105472665D02*
X155872542Y-107475377D01*
X148669831Y-105472665D02*
X153869830Y-105472665D01*
X123914442Y-101906065D02*
X123914442Y-102845865D01*
X129389520Y-104754065D02*
X147951231Y-104754065D01*
X122299242Y-101482965D02*
X123491342Y-101482965D01*
X124397042Y-103328465D02*
X127963920Y-103328465D01*
X156403900Y-112383357D02*
X163785324Y-119764781D01*
X123491342Y-101482965D02*
X123914442Y-101906065D01*
X127963920Y-103328465D02*
X129389520Y-104754065D01*
X147951231Y-104754065D02*
X148669831Y-105472665D01*
X123914442Y-102845865D02*
X124397042Y-103328465D01*
X156403900Y-108534237D02*
X156403900Y-112383357D01*
X155872542Y-108002879D02*
X156403900Y-108534237D01*
X121806242Y-100989965D02*
X122299242Y-101482965D01*
X155872542Y-107475377D02*
X155872542Y-108002879D01*
X163785324Y-119764781D02*
X163785324Y-119833998D01*
%TO.N,/SPI0_CS1*%
X119596900Y-101447865D02*
X119397900Y-101646865D01*
X119397900Y-109246865D02*
X118947900Y-109696865D01*
X119397900Y-101646865D02*
X119397900Y-109246865D01*
X118947900Y-109696865D02*
X118322900Y-109696865D01*
X119906042Y-101447865D02*
X119596900Y-101447865D01*
%TO.N,/SPI0_MOSI*%
X162111176Y-122054141D02*
X162403900Y-122346865D01*
X147572472Y-105668465D02*
X148291074Y-106387065D01*
X154958142Y-107854137D02*
X154958142Y-108381635D01*
X155489500Y-108912994D02*
X155489500Y-112762113D01*
X162111176Y-119383790D02*
X162111176Y-122054141D01*
X154958142Y-108381635D02*
X155489500Y-108912994D01*
X120597900Y-107981765D02*
X120597900Y-107079648D01*
X148291074Y-106387065D02*
X153491070Y-106387065D01*
X153491070Y-106387065D02*
X154958142Y-107854137D01*
X122069783Y-105607765D02*
X132758800Y-105607765D01*
X133027900Y-105876865D02*
X133527900Y-105876865D01*
X135437900Y-105596865D02*
X137352901Y-107511866D01*
X137352901Y-107511866D02*
X138707298Y-107511866D01*
X133807900Y-105596865D02*
X135437900Y-105596865D01*
X120597900Y-107079648D02*
X122069783Y-105607765D01*
X133527900Y-105876865D02*
X133807900Y-105596865D01*
X140550699Y-105668465D02*
X147572472Y-105668465D01*
X138707298Y-107511866D02*
X140550699Y-105668465D01*
X155489500Y-112762113D02*
X162111176Y-119383790D01*
X132758800Y-105607765D02*
X133027900Y-105876865D01*
X138707298Y-107536865D02*
X138707298Y-107511866D01*
%TO.N,/SPI0_MISO*%
X147667162Y-105439865D02*
X148385763Y-106158465D01*
X162526276Y-119475601D02*
X162526276Y-120360559D01*
X155186742Y-108286946D02*
X155718100Y-108818305D01*
X155718100Y-108818305D02*
X155718100Y-112667424D01*
X155186742Y-107759447D02*
X155186742Y-108286946D01*
X148385763Y-106158465D02*
X153585760Y-106158465D01*
X136687900Y-105626365D02*
X136874400Y-105439865D01*
X153585760Y-106158465D02*
X155186742Y-107759447D01*
X136874400Y-105439865D02*
X147667162Y-105439865D01*
X155718100Y-112667424D02*
X162526276Y-119475601D01*
%TO.N,/ENDSTOP0*%
X154243900Y-104786865D02*
X157298800Y-107841765D01*
X143696900Y-92546865D02*
X143696900Y-93562865D01*
X146993900Y-102826865D02*
X148953900Y-104786865D01*
X143696900Y-93562865D02*
X146993900Y-96859865D01*
X158511169Y-110854134D02*
X159116630Y-110854134D01*
X157298800Y-107841765D02*
X157298800Y-109641765D01*
X146993900Y-96859865D02*
X146993900Y-102826865D01*
X148953900Y-104786865D02*
X154243900Y-104786865D01*
X157298800Y-109641765D02*
X158511169Y-110854134D01*
%TO.N,/SPI0_CS2*%
X154070082Y-107816865D02*
X155260900Y-109007683D01*
X135319379Y-106710394D02*
X137220950Y-108611965D01*
X145893900Y-106856865D02*
X146503900Y-106246865D01*
X161353900Y-118949804D02*
X161353900Y-119246865D01*
X153693900Y-107816865D02*
X154070082Y-107816865D01*
X137220950Y-108611965D02*
X145498800Y-108611965D01*
X155260900Y-112856803D02*
X161353900Y-118949804D01*
X155260900Y-109007683D02*
X155260900Y-112856803D01*
X145498800Y-108611965D02*
X145893900Y-108216865D01*
X145893900Y-108216865D02*
X145893900Y-106856865D01*
X135319379Y-106065386D02*
X135319379Y-106710394D01*
D23*
%TO.N,+3V3A*%
X161496400Y-110818865D02*
X161297708Y-111017557D01*
D21*
X160018535Y-114562422D02*
X160018535Y-113956230D01*
D23*
X169617900Y-113896865D02*
X168867900Y-114646865D01*
X169617900Y-109264865D02*
X169617900Y-113896865D01*
D21*
X160937485Y-115481372D02*
X160018535Y-114562422D01*
D23*
X168867900Y-114646865D02*
X167207504Y-114646865D01*
D21*
X160961596Y-113013169D02*
X161297708Y-113013169D01*
D23*
X161297708Y-111017557D02*
X161297708Y-113013169D01*
X167207504Y-114646865D02*
X166287398Y-115566971D01*
D21*
X160018535Y-113956230D02*
X160961596Y-113013169D01*
D23*
%TO.N,+3V3B*%
X118147900Y-100447865D02*
X118147900Y-104436723D01*
X118147900Y-104436723D02*
X118906042Y-105194865D01*
%TD*%
%TA.AperFunction,Conductor*%
%TO.N,Net-(D2-K)*%
G36*
X154816501Y-99734730D02*
G01*
X154846565Y-99786801D01*
X154847900Y-99802065D01*
X154847900Y-101876265D01*
X154827335Y-101932766D01*
X154775264Y-101962830D01*
X154760000Y-101964165D01*
X150094310Y-101964165D01*
X150037809Y-101943600D01*
X150032155Y-101938420D01*
X149708645Y-101614910D01*
X149683234Y-101560416D01*
X149682900Y-101552755D01*
X149682900Y-100125575D01*
X149703465Y-100069074D01*
X149708645Y-100063420D01*
X150032155Y-99739910D01*
X150086649Y-99714499D01*
X150094310Y-99714165D01*
X154760000Y-99714165D01*
X154816501Y-99734730D01*
G37*
%TD.AperFunction*%
%TD*%
%TA.AperFunction,Conductor*%
%TO.N,GND*%
G36*
X160795692Y-96295430D02*
G01*
X160825756Y-96347501D01*
X160815315Y-96406715D01*
X160804517Y-96421577D01*
X160766815Y-96463450D01*
X160673325Y-96625380D01*
X160673324Y-96625382D01*
X160615544Y-96803211D01*
X160615543Y-96803216D01*
X160596000Y-96989160D01*
X160596000Y-96989169D01*
X160615543Y-97175113D01*
X160615544Y-97175118D01*
X160615545Y-97175121D01*
X160673325Y-97352950D01*
X160766815Y-97514880D01*
X160891930Y-97653834D01*
X161043200Y-97763738D01*
X161214015Y-97839790D01*
X161360331Y-97870890D01*
X161396909Y-97878665D01*
X161396910Y-97878665D01*
X161583891Y-97878665D01*
X161614372Y-97872185D01*
X161766785Y-97839790D01*
X161937600Y-97763738D01*
X162088870Y-97653834D01*
X162213985Y-97514880D01*
X162307475Y-97352950D01*
X162365255Y-97175121D01*
X162384800Y-96989165D01*
X162384800Y-96989160D01*
X162365256Y-96803216D01*
X162365255Y-96803211D01*
X162365255Y-96803209D01*
X162307475Y-96625380D01*
X162213985Y-96463450D01*
X162176285Y-96421580D01*
X162153763Y-96365833D01*
X162172343Y-96308648D01*
X162223334Y-96276786D01*
X162241609Y-96274865D01*
X169896098Y-96274865D01*
X169952599Y-96295430D01*
X169982663Y-96347501D01*
X169983998Y-96362765D01*
X169983998Y-108774865D01*
X168870999Y-108774865D01*
X168880106Y-108717365D01*
X168861400Y-108599257D01*
X168861400Y-108599256D01*
X168807113Y-108492713D01*
X168807112Y-108492712D01*
X168807111Y-108492710D01*
X168722555Y-108408154D01*
X168722552Y-108408152D01*
X168722551Y-108408151D01*
X168616008Y-108353864D01*
X168497900Y-108335159D01*
X168379792Y-108353864D01*
X168379791Y-108353864D01*
X168273248Y-108408151D01*
X168273245Y-108408153D01*
X168273245Y-108408154D01*
X168235053Y-108446345D01*
X168180561Y-108471756D01*
X168122483Y-108456193D01*
X168110751Y-108446350D01*
X168072555Y-108408154D01*
X168072552Y-108408152D01*
X168072551Y-108408151D01*
X167966008Y-108353864D01*
X167847900Y-108335159D01*
X167729792Y-108353864D01*
X167729791Y-108353864D01*
X167623248Y-108408151D01*
X167538686Y-108492713D01*
X167484399Y-108599256D01*
X167484399Y-108599257D01*
X167465694Y-108717365D01*
X167474800Y-108774865D01*
X158729766Y-108774865D01*
X158728878Y-108773977D01*
X158728875Y-108773975D01*
X158713283Y-108766030D01*
X158672278Y-108722054D01*
X158665292Y-108687712D01*
X158665292Y-107462157D01*
X158685857Y-107405656D01*
X158730740Y-107377886D01*
X158730603Y-107377462D01*
X158732338Y-107376898D01*
X158732685Y-107376683D01*
X158733883Y-107376396D01*
X158956015Y-107284386D01*
X159161018Y-107158759D01*
X159343845Y-107002610D01*
X159499994Y-106819783D01*
X159625621Y-106614780D01*
X159717631Y-106392648D01*
X159769223Y-106177750D01*
X159773758Y-106158862D01*
X159773758Y-106158860D01*
X159773759Y-106158857D01*
X159792623Y-105919165D01*
X159773759Y-105679473D01*
X159766810Y-105650529D01*
X159717631Y-105445681D01*
X159625624Y-105223558D01*
X159625621Y-105223550D01*
X159499994Y-105018547D01*
X159452538Y-104962983D01*
X159343849Y-104835724D01*
X159343840Y-104835715D01*
X159161022Y-104679574D01*
X159161020Y-104679572D01*
X159161018Y-104679571D01*
X158956015Y-104553944D01*
X158956009Y-104553941D01*
X158956006Y-104553940D01*
X158733881Y-104461933D01*
X158732657Y-104461639D01*
X158732349Y-104461435D01*
X158730600Y-104460867D01*
X158730757Y-104460381D01*
X158682524Y-104428444D01*
X158665292Y-104376171D01*
X158665292Y-102382157D01*
X158685857Y-102325656D01*
X158730740Y-102297886D01*
X158730603Y-102297462D01*
X158732338Y-102296898D01*
X158732685Y-102296683D01*
X158733883Y-102296396D01*
X158956015Y-102204386D01*
X159161018Y-102078759D01*
X159343845Y-101922610D01*
X159499994Y-101739783D01*
X159625621Y-101534780D01*
X159717631Y-101312648D01*
X159758101Y-101144078D01*
X159773758Y-101078862D01*
X159773758Y-101078860D01*
X159773759Y-101078857D01*
X159792623Y-100839165D01*
X159792285Y-100834865D01*
X161338086Y-100834865D01*
X161356791Y-100952972D01*
X161356791Y-100952973D01*
X161411078Y-101059516D01*
X161411079Y-101059517D01*
X161411081Y-101059520D01*
X161495637Y-101144076D01*
X161495639Y-101144077D01*
X161495640Y-101144078D01*
X161602183Y-101198365D01*
X161618331Y-101200922D01*
X161720292Y-101217071D01*
X161838400Y-101198365D01*
X161944943Y-101144078D01*
X161944944Y-101144078D01*
X161944944Y-101144077D01*
X161944947Y-101144076D01*
X161973914Y-101115109D01*
X162028408Y-101089699D01*
X162036068Y-101089365D01*
X162783464Y-101089365D01*
X162839965Y-101109930D01*
X162845619Y-101115110D01*
X163535047Y-101804537D01*
X163560458Y-101859031D01*
X163560792Y-101866692D01*
X163560792Y-102792386D01*
X163540227Y-102848887D01*
X163488156Y-102878951D01*
X163428942Y-102868510D01*
X163394573Y-102832292D01*
X163357113Y-102758774D01*
X163357112Y-102758773D01*
X163357111Y-102758771D01*
X163272555Y-102674215D01*
X163272552Y-102674213D01*
X163272551Y-102674212D01*
X163166008Y-102619925D01*
X163047900Y-102601220D01*
X162929792Y-102619925D01*
X162929791Y-102619925D01*
X162823248Y-102674212D01*
X162738686Y-102758774D01*
X162684399Y-102865317D01*
X162684399Y-102865318D01*
X162665694Y-102983426D01*
X162684399Y-103101533D01*
X162684399Y-103101534D01*
X162738686Y-103208077D01*
X162738687Y-103208078D01*
X162738689Y-103208081D01*
X162823245Y-103292637D01*
X162823247Y-103292638D01*
X162823248Y-103292639D01*
X162929791Y-103346926D01*
X162945939Y-103349483D01*
X163047900Y-103365632D01*
X163166008Y-103346926D01*
X163272555Y-103292637D01*
X163357111Y-103208081D01*
X163394573Y-103134559D01*
X163438547Y-103093553D01*
X163498591Y-103090406D01*
X163546611Y-103126591D01*
X163560792Y-103174465D01*
X163560792Y-103796049D01*
X163540227Y-103852550D01*
X163488156Y-103882614D01*
X163428942Y-103872173D01*
X163394573Y-103835955D01*
X163355980Y-103760213D01*
X163355979Y-103760212D01*
X163355978Y-103760210D01*
X163271422Y-103675654D01*
X163271419Y-103675652D01*
X163271418Y-103675651D01*
X163164875Y-103621364D01*
X163046767Y-103602659D01*
X162928659Y-103621364D01*
X162928658Y-103621364D01*
X162822115Y-103675651D01*
X162737553Y-103760213D01*
X162683266Y-103866756D01*
X162683266Y-103866757D01*
X162664561Y-103984865D01*
X162683266Y-104102972D01*
X162683266Y-104102973D01*
X162737553Y-104209516D01*
X162737554Y-104209517D01*
X162737556Y-104209520D01*
X162822112Y-104294076D01*
X162822114Y-104294077D01*
X162822115Y-104294078D01*
X162928658Y-104348365D01*
X162944806Y-104350922D01*
X163046767Y-104367071D01*
X163164875Y-104348365D01*
X163271422Y-104294076D01*
X163355978Y-104209520D01*
X163394573Y-104133772D01*
X163438547Y-104092768D01*
X163498591Y-104089621D01*
X163546611Y-104125806D01*
X163560792Y-104173680D01*
X163560792Y-104593037D01*
X163540227Y-104649538D01*
X163535047Y-104655192D01*
X162845619Y-105344620D01*
X162791125Y-105370031D01*
X162783464Y-105370365D01*
X162036068Y-105370365D01*
X161979567Y-105349800D01*
X161973914Y-105344621D01*
X161973913Y-105344620D01*
X161944947Y-105315654D01*
X161944944Y-105315652D01*
X161944943Y-105315651D01*
X161838400Y-105261364D01*
X161720292Y-105242659D01*
X161602184Y-105261364D01*
X161602183Y-105261364D01*
X161495640Y-105315651D01*
X161411078Y-105400213D01*
X161356791Y-105506756D01*
X161356791Y-105506757D01*
X161338086Y-105624865D01*
X161356791Y-105742972D01*
X161356791Y-105742973D01*
X161411078Y-105849516D01*
X161411079Y-105849517D01*
X161411081Y-105849520D01*
X161495637Y-105934076D01*
X161495639Y-105934077D01*
X161495640Y-105934078D01*
X161602183Y-105988365D01*
X161612602Y-105990015D01*
X161720292Y-106007071D01*
X161838400Y-105988365D01*
X161944943Y-105934078D01*
X161944944Y-105934078D01*
X161944944Y-105934077D01*
X161944947Y-105934076D01*
X161973914Y-105905109D01*
X162028408Y-105879699D01*
X162036068Y-105879365D01*
X162895649Y-105879365D01*
X162952150Y-105899930D01*
X162982214Y-105952001D01*
X162980554Y-105990015D01*
X162975984Y-106007071D01*
X162958592Y-106071980D01*
X162958592Y-106177750D01*
X162985967Y-106279915D01*
X163038852Y-106371514D01*
X163113643Y-106446305D01*
X163205242Y-106499190D01*
X163307407Y-106526565D01*
X163413176Y-106526565D01*
X163413177Y-106526565D01*
X163515342Y-106499190D01*
X163606941Y-106446305D01*
X163681732Y-106371514D01*
X163734617Y-106279915D01*
X163761992Y-106177750D01*
X163761992Y-106071980D01*
X163734617Y-105969815D01*
X163681732Y-105878216D01*
X163606941Y-105803425D01*
X163515342Y-105750540D01*
X163515341Y-105750539D01*
X163515340Y-105750539D01*
X163413177Y-105723165D01*
X163399119Y-105723165D01*
X163342618Y-105702600D01*
X163312554Y-105650529D01*
X163322995Y-105591315D01*
X163336964Y-105573110D01*
X163464393Y-105445681D01*
X163959453Y-104950620D01*
X163959455Y-104950620D01*
X164031047Y-104879028D01*
X164069792Y-104785488D01*
X164069792Y-101674242D01*
X164031047Y-101580702D01*
X163959455Y-101509110D01*
X163959453Y-101509109D01*
X163667414Y-101217070D01*
X163346965Y-100896620D01*
X163321554Y-100842126D01*
X163337117Y-100784048D01*
X163386370Y-100749560D01*
X163409120Y-100746565D01*
X163413176Y-100746565D01*
X163413177Y-100746565D01*
X163515342Y-100719190D01*
X163606941Y-100666305D01*
X163681732Y-100591514D01*
X163734617Y-100499915D01*
X163761992Y-100397750D01*
X163761992Y-100291980D01*
X163734617Y-100189815D01*
X163681732Y-100098216D01*
X163606941Y-100023425D01*
X163515342Y-99970540D01*
X163515341Y-99970539D01*
X163515340Y-99970539D01*
X163413177Y-99943165D01*
X163307407Y-99943165D01*
X163205243Y-99970539D01*
X163113645Y-100023423D01*
X163038850Y-100098218D01*
X162985966Y-100189816D01*
X162958592Y-100291980D01*
X162958592Y-100397749D01*
X162977875Y-100469715D01*
X162972634Y-100529613D01*
X162930118Y-100572129D01*
X162892970Y-100580365D01*
X162036068Y-100580365D01*
X161979567Y-100559800D01*
X161973914Y-100554621D01*
X161944947Y-100525654D01*
X161944944Y-100525652D01*
X161944943Y-100525651D01*
X161838400Y-100471364D01*
X161720292Y-100452659D01*
X161602184Y-100471364D01*
X161602183Y-100471364D01*
X161495640Y-100525651D01*
X161411078Y-100610213D01*
X161356791Y-100716756D01*
X161356791Y-100716757D01*
X161338086Y-100834865D01*
X159792285Y-100834865D01*
X159773759Y-100599473D01*
X159771848Y-100591514D01*
X159717631Y-100365681D01*
X159644785Y-100189816D01*
X159625621Y-100143550D01*
X159499994Y-99938547D01*
X159499990Y-99938542D01*
X159343849Y-99755724D01*
X159343840Y-99755715D01*
X159161022Y-99599574D01*
X159161020Y-99599572D01*
X159161018Y-99599571D01*
X158956015Y-99473944D01*
X158956009Y-99473941D01*
X158956006Y-99473940D01*
X158733881Y-99381933D01*
X158732657Y-99381639D01*
X158732349Y-99381435D01*
X158730600Y-99380867D01*
X158730757Y-99380381D01*
X158682524Y-99348444D01*
X158665292Y-99296171D01*
X158665292Y-97631114D01*
X158685857Y-97574613D01*
X158737928Y-97544549D01*
X158797142Y-97554990D01*
X158818513Y-97572296D01*
X158891930Y-97653834D01*
X159043200Y-97763738D01*
X159214015Y-97839790D01*
X159360331Y-97870890D01*
X159396909Y-97878665D01*
X159396910Y-97878665D01*
X159583891Y-97878665D01*
X159614372Y-97872185D01*
X159766785Y-97839790D01*
X159937600Y-97763738D01*
X160088870Y-97653834D01*
X160213985Y-97514880D01*
X160307475Y-97352950D01*
X160365255Y-97175121D01*
X160384800Y-96989165D01*
X160384800Y-96989160D01*
X160365256Y-96803216D01*
X160365255Y-96803211D01*
X160365255Y-96803209D01*
X160307475Y-96625380D01*
X160213985Y-96463450D01*
X160176285Y-96421580D01*
X160153763Y-96365833D01*
X160172343Y-96308648D01*
X160223334Y-96276786D01*
X160241609Y-96274865D01*
X160739191Y-96274865D01*
X160795692Y-96295430D01*
G37*
%TD.AperFunction*%
%TD*%
%TA.AperFunction,Conductor*%
%TO.N,GND*%
G36*
X169946515Y-114030891D02*
G01*
X169981003Y-114080144D01*
X169983998Y-114102894D01*
X169983998Y-124118208D01*
X169983994Y-124118254D01*
X169983997Y-124162565D01*
X169983726Y-124169462D01*
X169968875Y-124358317D01*
X169966718Y-124371942D01*
X169923310Y-124552789D01*
X169919048Y-124565908D01*
X169847884Y-124737733D01*
X169841622Y-124750023D01*
X169744451Y-124908602D01*
X169736344Y-124919762D01*
X169615560Y-125061187D01*
X169605806Y-125070941D01*
X169464386Y-125191727D01*
X169453226Y-125199835D01*
X169294654Y-125297007D01*
X169282363Y-125303270D01*
X169110533Y-125374440D01*
X169097414Y-125378702D01*
X168916568Y-125422113D01*
X168902944Y-125424270D01*
X168714507Y-125439093D01*
X168707612Y-125439364D01*
X168677362Y-125439363D01*
X168670759Y-125439363D01*
X168670758Y-125439363D01*
X168662385Y-125439363D01*
X168662365Y-125439365D01*
X153758747Y-125439365D01*
X153758739Y-125439364D01*
X153712077Y-125439364D01*
X153705182Y-125439093D01*
X153516324Y-125424234D01*
X153502701Y-125422077D01*
X153341988Y-125383496D01*
X153321851Y-125378662D01*
X153308746Y-125374405D01*
X153136903Y-125303228D01*
X153124626Y-125296972D01*
X152966043Y-125199794D01*
X152954884Y-125191687D01*
X152813463Y-125070905D01*
X152803710Y-125061152D01*
X152682926Y-124919736D01*
X152674818Y-124908577D01*
X152577642Y-124750001D01*
X152571380Y-124737711D01*
X152500205Y-124565882D01*
X152495943Y-124552764D01*
X152476210Y-124470570D01*
X152452527Y-124371925D01*
X152450370Y-124358305D01*
X152435537Y-124169835D01*
X152435266Y-124162938D01*
X152435266Y-118326857D01*
X152455831Y-118270356D01*
X152507902Y-118240292D01*
X152563072Y-118248537D01*
X152566658Y-118250365D01*
X152684766Y-118269071D01*
X152802874Y-118250365D01*
X152885095Y-118208470D01*
X152944772Y-118201143D01*
X152995200Y-118233890D01*
X153012900Y-118286790D01*
X153012900Y-119412273D01*
X153012900Y-119488257D01*
X153017480Y-119499314D01*
X153040427Y-119554715D01*
X153041978Y-119558458D01*
X153143794Y-119660274D01*
X153244350Y-119760830D01*
X153269761Y-119815324D01*
X153269013Y-119836734D01*
X153260694Y-119889264D01*
X153279399Y-120007372D01*
X153279399Y-120007373D01*
X153333686Y-120113916D01*
X153333687Y-120113917D01*
X153333689Y-120113920D01*
X153418245Y-120198476D01*
X153418247Y-120198477D01*
X153418248Y-120198478D01*
X153524791Y-120252765D01*
X153540939Y-120255322D01*
X153642900Y-120271471D01*
X153761008Y-120252765D01*
X153867555Y-120198476D01*
X153890705Y-120175325D01*
X153945195Y-120149916D01*
X154003274Y-120165477D01*
X154031177Y-120197575D01*
X154059007Y-120252195D01*
X154059008Y-120252196D01*
X154059010Y-120252199D01*
X154143566Y-120336755D01*
X154143568Y-120336756D01*
X154143569Y-120336757D01*
X154250112Y-120391044D01*
X154264338Y-120393297D01*
X154368221Y-120409750D01*
X154486329Y-120391044D01*
X154592876Y-120336755D01*
X154677432Y-120252199D01*
X154731721Y-120145652D01*
X154750427Y-120027544D01*
X154731721Y-119909436D01*
X154731721Y-119909435D01*
X154677434Y-119802892D01*
X154677433Y-119802891D01*
X154677432Y-119802889D01*
X154592876Y-119718333D01*
X154592873Y-119718331D01*
X154592872Y-119718330D01*
X154486329Y-119664043D01*
X154368221Y-119645338D01*
X154315690Y-119653657D01*
X154256668Y-119642183D01*
X154239786Y-119628994D01*
X153649245Y-119038453D01*
X153623834Y-118983959D01*
X153623500Y-118976298D01*
X153623500Y-118676098D01*
X153644065Y-118619597D01*
X153696136Y-118589533D01*
X153755350Y-118599974D01*
X153773555Y-118613943D01*
X158164670Y-123005058D01*
X158164669Y-123005058D01*
X158218397Y-123058785D01*
X158218399Y-123058787D01*
X158288600Y-123087865D01*
X160275450Y-123087865D01*
X160331951Y-123108430D01*
X160339693Y-123116732D01*
X160339798Y-123116628D01*
X160344687Y-123121517D01*
X160344689Y-123121520D01*
X160429245Y-123206076D01*
X160429247Y-123206077D01*
X160429248Y-123206078D01*
X160535791Y-123260365D01*
X160551939Y-123262922D01*
X160653900Y-123279071D01*
X160772008Y-123260365D01*
X160878555Y-123206076D01*
X160963111Y-123121520D01*
X161017400Y-123014973D01*
X161017841Y-123012184D01*
X161018964Y-123010158D01*
X161019539Y-123008391D01*
X161019882Y-123008502D01*
X161046985Y-122959594D01*
X161103116Y-122938041D01*
X161159970Y-122957610D01*
X161166815Y-122963772D01*
X162045865Y-123842822D01*
X162050048Y-123846825D01*
X162054563Y-123850961D01*
X162055694Y-123851997D01*
X162099883Y-123878809D01*
X162156384Y-123899374D01*
X162201702Y-123907365D01*
X162201705Y-123907365D01*
X163128881Y-123907365D01*
X163128882Y-123907365D01*
X163134653Y-123907239D01*
X163142314Y-123906905D01*
X163192540Y-123894617D01*
X163192545Y-123894614D01*
X163192547Y-123894614D01*
X163247026Y-123869210D01*
X163247026Y-123869209D01*
X163247034Y-123869206D01*
X163284729Y-123842812D01*
X168733239Y-118394302D01*
X168737244Y-118390117D01*
X168742424Y-118384463D01*
X168769236Y-118340274D01*
X168789801Y-118283773D01*
X168797792Y-118238455D01*
X168797792Y-117311275D01*
X168797666Y-117305504D01*
X168797332Y-117297843D01*
X168785044Y-117247617D01*
X168785041Y-117247612D01*
X168785041Y-117247609D01*
X168759637Y-117193130D01*
X168759634Y-117193126D01*
X168759633Y-117193123D01*
X168733239Y-117155428D01*
X168399496Y-116821685D01*
X168374085Y-116767191D01*
X168389648Y-116709113D01*
X168421743Y-116681212D01*
X168522682Y-116629781D01*
X168607238Y-116545225D01*
X168661527Y-116438678D01*
X168680233Y-116320570D01*
X168661527Y-116202462D01*
X168661527Y-116202461D01*
X168607240Y-116095918D01*
X168607239Y-116095917D01*
X168607238Y-116095915D01*
X168522682Y-116011359D01*
X168522679Y-116011357D01*
X168522678Y-116011356D01*
X168416135Y-115957069D01*
X168298027Y-115938364D01*
X168184005Y-115956422D01*
X168124982Y-115944948D01*
X168087144Y-115898221D01*
X168083437Y-115855855D01*
X168098929Y-115758042D01*
X168080223Y-115639934D01*
X168080223Y-115639933D01*
X168025936Y-115533390D01*
X168025935Y-115533389D01*
X168025934Y-115533387D01*
X167941378Y-115448831D01*
X167941375Y-115448829D01*
X167941374Y-115448828D01*
X167834831Y-115394541D01*
X167716723Y-115375836D01*
X167598615Y-115394541D01*
X167598614Y-115394541D01*
X167492071Y-115448828D01*
X167407509Y-115533390D01*
X167362419Y-115621885D01*
X167318445Y-115662891D01*
X167258400Y-115666038D01*
X167221945Y-115644134D01*
X166958203Y-115380392D01*
X166932792Y-115325898D01*
X166948355Y-115267820D01*
X166958203Y-115256082D01*
X167287176Y-114927110D01*
X167341670Y-114901699D01*
X167349331Y-114901365D01*
X168918522Y-114901365D01*
X168918523Y-114901365D01*
X169012063Y-114862620D01*
X169762061Y-114112620D01*
X169762063Y-114112620D01*
X169833655Y-114041028D01*
X169833655Y-114041026D01*
X169833943Y-114040739D01*
X169888437Y-114015328D01*
X169946515Y-114030891D01*
G37*
%TD.AperFunction*%
%TA.AperFunction,Conductor*%
G36*
X155032417Y-112510464D02*
G01*
X155066905Y-112559717D01*
X155069900Y-112582467D01*
X155069900Y-112818811D01*
X155069900Y-112894795D01*
X155098978Y-112964996D01*
X157275617Y-115141636D01*
X157881221Y-115747240D01*
X157906632Y-115801734D01*
X157891069Y-115859812D01*
X157881221Y-115871550D01*
X156597316Y-117155456D01*
X156593317Y-117159636D01*
X156588154Y-117165272D01*
X156588149Y-117165278D01*
X156561351Y-117209447D01*
X156561347Y-117209455D01*
X156546307Y-117250776D01*
X156546305Y-117250779D01*
X156546306Y-117250780D01*
X156540780Y-117265961D01*
X156535532Y-117295734D01*
X156535161Y-117297843D01*
X156535052Y-117298459D01*
X156535051Y-117298466D01*
X156532792Y-117311269D01*
X156532792Y-118238453D01*
X156532918Y-118244245D01*
X156533251Y-118251881D01*
X156533251Y-118251885D01*
X156533252Y-118251887D01*
X156544917Y-118299568D01*
X156545542Y-118302120D01*
X156570946Y-118356599D01*
X156570949Y-118356603D01*
X156570951Y-118356607D01*
X156597345Y-118394302D01*
X158029262Y-119826219D01*
X158054712Y-119846102D01*
X158091167Y-119868006D01*
X158093706Y-119869494D01*
X158093707Y-119869494D01*
X158093709Y-119869495D01*
X158119404Y-119875598D01*
X158166344Y-119886749D01*
X158167521Y-119886687D01*
X158168304Y-119886926D01*
X158172609Y-119887317D01*
X158172527Y-119888216D01*
X158225023Y-119904260D01*
X158254976Y-119950373D01*
X158256154Y-119949991D01*
X158257581Y-119954383D01*
X158257776Y-119954683D01*
X158257920Y-119955428D01*
X158258292Y-119956573D01*
X158312579Y-120063116D01*
X158312580Y-120063117D01*
X158312582Y-120063120D01*
X158397138Y-120147676D01*
X158397140Y-120147677D01*
X158397141Y-120147678D01*
X158496841Y-120198478D01*
X158503685Y-120201965D01*
X158503689Y-120201965D01*
X158510266Y-120204103D01*
X158509379Y-120206830D01*
X158551959Y-120230429D01*
X158572526Y-120274900D01*
X158582232Y-120338802D01*
X158582233Y-120338805D01*
X158607642Y-120393297D01*
X158634039Y-120430996D01*
X159145051Y-120942008D01*
X159170462Y-120996502D01*
X159154899Y-121054580D01*
X159105646Y-121089068D01*
X159082896Y-121092063D01*
X157798185Y-121092063D01*
X157741684Y-121071498D01*
X157736030Y-121066318D01*
X154563645Y-117893933D01*
X154538234Y-117839439D01*
X154537900Y-117831778D01*
X154537900Y-112938667D01*
X154558465Y-112882166D01*
X154563645Y-112876512D01*
X154919845Y-112520312D01*
X154974339Y-112494901D01*
X155032417Y-112510464D01*
G37*
%TD.AperFunction*%
%TA.AperFunction,Conductor*%
G36*
X162606277Y-117173830D02*
G01*
X162611931Y-117179010D01*
X164303975Y-118871055D01*
X164329386Y-118925549D01*
X164328638Y-118946959D01*
X164325230Y-118968479D01*
X164343935Y-119086586D01*
X164379195Y-119155788D01*
X164386522Y-119215467D01*
X164353774Y-119265893D01*
X164340781Y-119274012D01*
X164238648Y-119326051D01*
X164154086Y-119410613D01*
X164118106Y-119481228D01*
X164074132Y-119522235D01*
X164014087Y-119525381D01*
X163999881Y-119519641D01*
X163903432Y-119470497D01*
X163785324Y-119451792D01*
X163778860Y-119451792D01*
X163722359Y-119431227D01*
X163716705Y-119426047D01*
X161593978Y-117303320D01*
X161568567Y-117248826D01*
X161584130Y-117190748D01*
X161633383Y-117156260D01*
X161656133Y-117153265D01*
X162549776Y-117153265D01*
X162606277Y-117173830D01*
G37*
%TD.AperFunction*%
%TA.AperFunction,Conductor*%
G36*
X162715719Y-114514543D02*
G01*
X162725800Y-114522778D01*
X162731244Y-114527943D01*
X162738043Y-114534065D01*
X162738051Y-114534071D01*
X162783543Y-114560873D01*
X162783552Y-114560877D01*
X162815399Y-114571847D01*
X162840399Y-114580460D01*
X162856607Y-114584916D01*
X162856607Y-114584915D01*
X162856608Y-114584916D01*
X162889895Y-114582221D01*
X162947871Y-114598158D01*
X162975308Y-114629928D01*
X163023139Y-114723802D01*
X163023140Y-114723803D01*
X163023142Y-114723806D01*
X163050710Y-114751374D01*
X163076121Y-114805867D01*
X163060558Y-114863945D01*
X163050715Y-114875676D01*
X163025028Y-114901364D01*
X163009408Y-114916984D01*
X162955121Y-115023527D01*
X162955121Y-115023528D01*
X162936416Y-115141636D01*
X162955121Y-115259743D01*
X162955121Y-115259744D01*
X163009408Y-115366287D01*
X163009409Y-115366288D01*
X163009411Y-115366291D01*
X163093967Y-115450847D01*
X163093969Y-115450848D01*
X163093970Y-115450849D01*
X163200513Y-115505136D01*
X163216661Y-115507693D01*
X163318622Y-115523842D01*
X163421562Y-115507538D01*
X163443563Y-115504054D01*
X163443880Y-115506060D01*
X163494945Y-115507841D01*
X163539630Y-115548071D01*
X163548001Y-115607613D01*
X163540342Y-115629244D01*
X163534896Y-115639933D01*
X163530399Y-115648759D01*
X163511694Y-115766865D01*
X163530399Y-115884972D01*
X163530399Y-115884973D01*
X163584686Y-115991516D01*
X163584687Y-115991517D01*
X163584689Y-115991520D01*
X163669245Y-116076076D01*
X163669247Y-116076077D01*
X163669248Y-116076078D01*
X163775791Y-116130365D01*
X163791939Y-116132922D01*
X163893900Y-116149071D01*
X164012008Y-116130365D01*
X164118555Y-116076076D01*
X164136681Y-116057949D01*
X164191170Y-116032538D01*
X164249249Y-116048097D01*
X164260990Y-116057948D01*
X165557849Y-117354807D01*
X165583260Y-117409301D01*
X165567697Y-117467379D01*
X165518444Y-117501867D01*
X165509445Y-117503780D01*
X165385791Y-117523364D01*
X165279248Y-117577651D01*
X165194686Y-117662213D01*
X165140399Y-117768756D01*
X165140399Y-117768757D01*
X165121694Y-117886865D01*
X165140399Y-118004972D01*
X165140399Y-118004973D01*
X165194686Y-118111516D01*
X165194687Y-118111517D01*
X165194689Y-118111520D01*
X165279245Y-118196076D01*
X165355247Y-118234801D01*
X165396253Y-118278774D01*
X165399400Y-118338819D01*
X165377496Y-118375275D01*
X165074951Y-118677820D01*
X165020457Y-118703231D01*
X164962379Y-118687668D01*
X164950647Y-118677825D01*
X164932091Y-118659269D01*
X164932088Y-118659267D01*
X164932087Y-118659266D01*
X164825544Y-118604979D01*
X164707436Y-118586274D01*
X164707435Y-118586274D01*
X164685915Y-118589682D01*
X164626892Y-118578208D01*
X164610011Y-118565019D01*
X162859276Y-116814285D01*
X162859276Y-116814284D01*
X162798402Y-116753410D01*
X162718866Y-116720465D01*
X161670494Y-116720465D01*
X161613993Y-116699900D01*
X161608339Y-116694720D01*
X161309451Y-116395832D01*
X161284040Y-116341338D01*
X161284787Y-116319931D01*
X161288197Y-116298407D01*
X161269491Y-116180299D01*
X161269491Y-116180298D01*
X161215204Y-116073755D01*
X161215203Y-116073754D01*
X161215202Y-116073752D01*
X161196648Y-116055198D01*
X161171238Y-116000706D01*
X161186801Y-115942628D01*
X161196643Y-115930896D01*
X161623797Y-115503743D01*
X161643681Y-115478291D01*
X161665585Y-115441835D01*
X161667072Y-115439298D01*
X161684327Y-115366660D01*
X161684326Y-115366654D01*
X161684667Y-115362907D01*
X161710248Y-115308493D01*
X161758459Y-115284024D01*
X161769114Y-115282337D01*
X161875661Y-115228048D01*
X161960217Y-115143492D01*
X162014506Y-115036945D01*
X162016439Y-115024739D01*
X162045586Y-114972150D01*
X162090053Y-114951584D01*
X162143723Y-114943433D01*
X162198217Y-114918022D01*
X162235912Y-114891628D01*
X162603148Y-114524391D01*
X162657641Y-114498981D01*
X162715719Y-114514543D01*
G37*
%TD.AperFunction*%
%TA.AperFunction,Conductor*%
G36*
X167652573Y-110391930D02*
G01*
X167658227Y-110397110D01*
X168372655Y-111111537D01*
X168398066Y-111166031D01*
X168398400Y-111173692D01*
X168398400Y-113597089D01*
X168377835Y-113653590D01*
X168372656Y-113659243D01*
X168343686Y-113688212D01*
X168343686Y-113688213D01*
X168289399Y-113794756D01*
X168289399Y-113794757D01*
X168270694Y-113912865D01*
X168289399Y-114030972D01*
X168289399Y-114030973D01*
X168343686Y-114137516D01*
X168343687Y-114137517D01*
X168343689Y-114137520D01*
X168428245Y-114222076D01*
X168428247Y-114222077D01*
X168436232Y-114226146D01*
X168477238Y-114270121D01*
X168480384Y-114330165D01*
X168444198Y-114378185D01*
X168396325Y-114392365D01*
X167156879Y-114392365D01*
X167063343Y-114431108D01*
X167063339Y-114431111D01*
X166991748Y-114502701D01*
X166991749Y-114502702D01*
X166598286Y-114896165D01*
X166543792Y-114921576D01*
X166485714Y-114906013D01*
X166473976Y-114896165D01*
X166133171Y-114555360D01*
X166107760Y-114500866D01*
X166123323Y-114442788D01*
X166133166Y-114431056D01*
X166204703Y-114359520D01*
X166258992Y-114252973D01*
X166277698Y-114134865D01*
X166258992Y-114016757D01*
X166258992Y-114016756D01*
X166204705Y-113910213D01*
X166204704Y-113910212D01*
X166204703Y-113910210D01*
X166120147Y-113825654D01*
X166120144Y-113825652D01*
X166120143Y-113825651D01*
X166013600Y-113771364D01*
X165919639Y-113756483D01*
X165867050Y-113727333D01*
X165845502Y-113671199D01*
X165846571Y-113655915D01*
X165862598Y-113554724D01*
X165843892Y-113436616D01*
X165843892Y-113436615D01*
X165789605Y-113330072D01*
X165789604Y-113330071D01*
X165789603Y-113330069D01*
X165705047Y-113245513D01*
X165705044Y-113245511D01*
X165705043Y-113245510D01*
X165598500Y-113191223D01*
X165480392Y-113172518D01*
X165362284Y-113191223D01*
X165362283Y-113191223D01*
X165255740Y-113245510D01*
X165171178Y-113330072D01*
X165136221Y-113398679D01*
X165092247Y-113439686D01*
X165032202Y-113442832D01*
X164985897Y-113409187D01*
X164983328Y-113405518D01*
X163730729Y-112152919D01*
X163725690Y-112148138D01*
X163725667Y-112148117D01*
X163718858Y-112141986D01*
X163718853Y-112141983D01*
X163718851Y-112141981D01*
X163673335Y-112115173D01*
X163653156Y-112108225D01*
X163616493Y-112095601D01*
X163616490Y-112095600D01*
X163616484Y-112095598D01*
X163606593Y-112092880D01*
X163600272Y-112091143D01*
X163529258Y-112096904D01*
X163471280Y-112080975D01*
X163443832Y-112049197D01*
X163424448Y-112011153D01*
X163424447Y-112011151D01*
X163339891Y-111926595D01*
X163339888Y-111926593D01*
X163339887Y-111926592D01*
X163233344Y-111872305D01*
X163115236Y-111853600D01*
X163108319Y-111853600D01*
X163108319Y-111850792D01*
X163060354Y-111841461D01*
X163022523Y-111794727D01*
X163019793Y-111763446D01*
X163018164Y-111763446D01*
X163018164Y-111756528D01*
X162999458Y-111638420D01*
X162999458Y-111638419D01*
X162945171Y-111531876D01*
X162945170Y-111531875D01*
X162945169Y-111531873D01*
X162860613Y-111447317D01*
X162860610Y-111447315D01*
X162860609Y-111447314D01*
X162754066Y-111393027D01*
X162635958Y-111374322D01*
X162517850Y-111393027D01*
X162517849Y-111393027D01*
X162411306Y-111447314D01*
X162326744Y-111531876D01*
X162284923Y-111613954D01*
X162240949Y-111654961D01*
X162202236Y-111658908D01*
X162202176Y-111661454D01*
X162194486Y-111661270D01*
X162120676Y-111672481D01*
X162120674Y-111672482D01*
X162066183Y-111697891D01*
X162028487Y-111724284D01*
X162028484Y-111724287D01*
X161702263Y-112050509D01*
X161647769Y-112075920D01*
X161589691Y-112060357D01*
X161555203Y-112011104D01*
X161552208Y-111988354D01*
X161552208Y-111266470D01*
X161572773Y-111209969D01*
X161608522Y-111185856D01*
X161608344Y-111185506D01*
X161611203Y-111184049D01*
X161612950Y-111182871D01*
X161614505Y-111182365D01*
X161614508Y-111182365D01*
X161721055Y-111128076D01*
X161805611Y-111043520D01*
X161859900Y-110936973D01*
X161878606Y-110818865D01*
X161859900Y-110700757D01*
X161859900Y-110700756D01*
X161805613Y-110594213D01*
X161805612Y-110594212D01*
X161805611Y-110594210D01*
X161732819Y-110521418D01*
X161707409Y-110466926D01*
X161722972Y-110408848D01*
X161772225Y-110374360D01*
X161794975Y-110371365D01*
X167596072Y-110371365D01*
X167652573Y-110391930D01*
G37*
%TD.AperFunction*%
%TA.AperFunction,Conductor*%
G36*
X158214080Y-109328800D02*
G01*
X158225811Y-109338642D01*
X158279568Y-109392399D01*
X158279570Y-109392400D01*
X158279571Y-109392401D01*
X158386114Y-109446688D01*
X158424761Y-109452808D01*
X158502495Y-109465120D01*
X158550900Y-109489783D01*
X159322145Y-110261028D01*
X159322144Y-110261028D01*
X159369410Y-110308293D01*
X159393737Y-110332620D01*
X159487277Y-110371365D01*
X161197825Y-110371365D01*
X161254326Y-110391930D01*
X161284390Y-110444001D01*
X161273949Y-110503215D01*
X161259983Y-110521415D01*
X161217615Y-110563784D01*
X161187186Y-110594213D01*
X161132900Y-110700756D01*
X161114467Y-110817138D01*
X161089808Y-110865537D01*
X161081953Y-110873392D01*
X161043208Y-110966932D01*
X161043208Y-112673154D01*
X161022643Y-112729655D01*
X161017463Y-112735309D01*
X160981748Y-112771024D01*
X160927254Y-112796435D01*
X160919593Y-112796769D01*
X160918551Y-112796769D01*
X160889610Y-112808757D01*
X160889609Y-112808757D01*
X160839016Y-112829712D01*
X159895954Y-113772775D01*
X159895953Y-113772774D01*
X159835081Y-113833647D01*
X159835079Y-113833649D01*
X159802135Y-113913184D01*
X159802135Y-113914227D01*
X159801677Y-113915483D01*
X159800446Y-113921676D01*
X159799492Y-113921486D01*
X159781570Y-113970728D01*
X159776390Y-113976382D01*
X159083870Y-114668902D01*
X159029376Y-114694313D01*
X158971298Y-114678750D01*
X158959560Y-114668902D01*
X157217523Y-112926865D01*
X158000772Y-112926865D01*
X158019477Y-113044972D01*
X158019477Y-113044973D01*
X158073764Y-113151516D01*
X158073765Y-113151517D01*
X158073767Y-113151520D01*
X158158323Y-113236076D01*
X158158325Y-113236077D01*
X158158326Y-113236078D01*
X158264869Y-113290365D01*
X158281017Y-113292922D01*
X158382978Y-113309071D01*
X158501086Y-113290365D01*
X158607633Y-113236076D01*
X158692189Y-113151520D01*
X158746478Y-113044973D01*
X158765184Y-112926865D01*
X158746478Y-112808757D01*
X158746478Y-112808756D01*
X158692191Y-112702213D01*
X158692190Y-112702212D01*
X158692189Y-112702210D01*
X158607633Y-112617654D01*
X158607630Y-112617652D01*
X158607629Y-112617651D01*
X158501086Y-112563364D01*
X158382978Y-112544659D01*
X158264870Y-112563364D01*
X158264869Y-112563364D01*
X158158326Y-112617651D01*
X158073764Y-112702213D01*
X158019477Y-112808756D01*
X158019477Y-112808757D01*
X158000772Y-112926865D01*
X157217523Y-112926865D01*
X156620645Y-112329987D01*
X156595234Y-112275493D01*
X156594900Y-112267832D01*
X156594900Y-110881666D01*
X156615465Y-110825165D01*
X156620634Y-110819522D01*
X157351384Y-110088772D01*
X157405877Y-110063362D01*
X157463955Y-110078925D01*
X157475692Y-110088772D01*
X158402976Y-111016056D01*
X158473177Y-111045134D01*
X158549161Y-111045134D01*
X158738180Y-111045134D01*
X158794681Y-111065699D01*
X158802423Y-111074001D01*
X158802528Y-111073897D01*
X158807417Y-111078786D01*
X158807419Y-111078789D01*
X158891975Y-111163345D01*
X158891977Y-111163346D01*
X158891978Y-111163347D01*
X158998521Y-111217634D01*
X159014669Y-111220191D01*
X159116630Y-111236340D01*
X159234738Y-111217634D01*
X159341285Y-111163345D01*
X159425841Y-111078789D01*
X159480130Y-110972242D01*
X159498836Y-110854134D01*
X159480130Y-110736026D01*
X159480130Y-110736025D01*
X159425843Y-110629482D01*
X159425842Y-110629481D01*
X159425841Y-110629479D01*
X159341285Y-110544923D01*
X159341282Y-110544921D01*
X159341281Y-110544920D01*
X159234738Y-110490633D01*
X159116630Y-110471928D01*
X158998522Y-110490633D01*
X158998521Y-110490633D01*
X158891978Y-110544920D01*
X158891975Y-110544922D01*
X158891975Y-110544923D01*
X158807419Y-110629479D01*
X158807418Y-110629480D01*
X158802528Y-110634371D01*
X158800792Y-110632635D01*
X158759439Y-110660524D01*
X158738180Y-110663134D01*
X158626694Y-110663134D01*
X158570193Y-110642569D01*
X158564539Y-110637389D01*
X157745808Y-109818658D01*
X157720397Y-109764164D01*
X157735960Y-109706086D01*
X157745802Y-109694354D01*
X158101509Y-109338647D01*
X158156002Y-109313237D01*
X158214080Y-109328800D01*
G37*
%TD.AperFunction*%
%TA.AperFunction,Conductor*%
G36*
X167484399Y-108835472D02*
G01*
X167484399Y-108835473D01*
X167538686Y-108942016D01*
X167538687Y-108942017D01*
X167538689Y-108942020D01*
X167623245Y-109026576D01*
X167623247Y-109026577D01*
X167623248Y-109026578D01*
X167729791Y-109080865D01*
X167744459Y-109083188D01*
X167847900Y-109099571D01*
X167966008Y-109080865D01*
X168072555Y-109026576D01*
X168110746Y-108988384D01*
X168165239Y-108962974D01*
X168223317Y-108978537D01*
X168235048Y-108988379D01*
X168273245Y-109026576D01*
X168273247Y-109026577D01*
X168273248Y-109026578D01*
X168379791Y-109080865D01*
X168394459Y-109083188D01*
X168497900Y-109099571D01*
X168616008Y-109080865D01*
X168722555Y-109026576D01*
X168807111Y-108942020D01*
X168861400Y-108835473D01*
X168870999Y-108774865D01*
X169983998Y-108774865D01*
X169983998Y-108885904D01*
X169963433Y-108942405D01*
X169911362Y-108972469D01*
X169852148Y-108962028D01*
X169844434Y-108957019D01*
X169842551Y-108955651D01*
X169736008Y-108901364D01*
X169617900Y-108882659D01*
X169499792Y-108901364D01*
X169499791Y-108901364D01*
X169393248Y-108955651D01*
X169308686Y-109040213D01*
X169254399Y-109146756D01*
X169254399Y-109146757D01*
X169235694Y-109264865D01*
X169254399Y-109382972D01*
X169254399Y-109382973D01*
X169308686Y-109489516D01*
X169308687Y-109489517D01*
X169308689Y-109489520D01*
X169337655Y-109518486D01*
X169363066Y-109572979D01*
X169363400Y-109580640D01*
X169363400Y-113755037D01*
X169342835Y-113811538D01*
X169337655Y-113817192D01*
X169185161Y-113969686D01*
X169130667Y-113995097D01*
X169072589Y-113979534D01*
X169038101Y-113930281D01*
X169036697Y-113919616D01*
X169036188Y-113919697D01*
X169016400Y-113794757D01*
X169016400Y-113794756D01*
X168962113Y-113688213D01*
X168962113Y-113688212D01*
X168933144Y-113659243D01*
X168907734Y-113604749D01*
X168907400Y-113597089D01*
X168907400Y-110981243D01*
X168907399Y-110981240D01*
X168901473Y-110966934D01*
X168868655Y-110887702D01*
X168797063Y-110816110D01*
X168797061Y-110816109D01*
X167882063Y-109901110D01*
X167882061Y-109901109D01*
X167882060Y-109901108D01*
X167788524Y-109862365D01*
X167788523Y-109862365D01*
X162824475Y-109862365D01*
X162767974Y-109841800D01*
X162737910Y-109789729D01*
X162748351Y-109730515D01*
X162762316Y-109712314D01*
X162823111Y-109651520D01*
X162877400Y-109544973D01*
X162896106Y-109426865D01*
X162877400Y-109308757D01*
X162877400Y-109308756D01*
X162823113Y-109202213D01*
X162823112Y-109202212D01*
X162823111Y-109202210D01*
X162738555Y-109117654D01*
X162738552Y-109117652D01*
X162738551Y-109117651D01*
X162632008Y-109063364D01*
X162513900Y-109044659D01*
X162395792Y-109063364D01*
X162395791Y-109063364D01*
X162289248Y-109117651D01*
X162204686Y-109202213D01*
X162150399Y-109308756D01*
X162150399Y-109308757D01*
X162131694Y-109426865D01*
X162150399Y-109544972D01*
X162150399Y-109544973D01*
X162204686Y-109651516D01*
X162204687Y-109651517D01*
X162204689Y-109651520D01*
X162265480Y-109712311D01*
X162290891Y-109766804D01*
X162275328Y-109824882D01*
X162226075Y-109859370D01*
X162203325Y-109862365D01*
X159679728Y-109862365D01*
X159623227Y-109841800D01*
X159617573Y-109836620D01*
X158910818Y-109129865D01*
X158886155Y-109081460D01*
X158879622Y-109040213D01*
X158867723Y-108965080D01*
X158867723Y-108965079D01*
X158813436Y-108858536D01*
X158813435Y-108858535D01*
X158813434Y-108858533D01*
X158729766Y-108774865D01*
X167474800Y-108774865D01*
X167484399Y-108835472D01*
G37*
%TD.AperFunction*%
%TD*%
%TA.AperFunction,Conductor*%
%TO.N,+3V3A*%
G36*
X163630198Y-112240454D02*
G01*
X163637037Y-112246611D01*
X164889636Y-113499210D01*
X164915047Y-113553704D01*
X164899484Y-113611782D01*
X164867388Y-113639684D01*
X164773247Y-113687652D01*
X164688686Y-113772213D01*
X164634399Y-113878756D01*
X164634399Y-113878757D01*
X164615694Y-113996865D01*
X164634399Y-114114972D01*
X164634399Y-114114973D01*
X164688686Y-114221516D01*
X164688687Y-114221517D01*
X164688689Y-114221520D01*
X164773245Y-114306076D01*
X164773247Y-114306077D01*
X164773248Y-114306078D01*
X164879791Y-114360365D01*
X164895939Y-114362922D01*
X164997900Y-114379071D01*
X165116008Y-114360365D01*
X165222555Y-114306076D01*
X165307111Y-114221520D01*
X165352049Y-114133325D01*
X165396022Y-114092321D01*
X165456066Y-114089174D01*
X165504086Y-114125359D01*
X165517185Y-114159483D01*
X165531991Y-114252972D01*
X165531991Y-114252973D01*
X165586278Y-114359516D01*
X165586279Y-114359517D01*
X165586281Y-114359520D01*
X165670837Y-114444076D01*
X165670839Y-114444077D01*
X165670840Y-114444078D01*
X165777383Y-114498365D01*
X165807776Y-114503178D01*
X165881548Y-114514862D01*
X165929952Y-114539525D01*
X168639547Y-117249120D01*
X168664958Y-117303614D01*
X168665292Y-117311275D01*
X168665292Y-118238455D01*
X168644727Y-118294956D01*
X168639547Y-118300610D01*
X163191037Y-123749120D01*
X163136543Y-123774531D01*
X163128882Y-123774865D01*
X162201702Y-123774865D01*
X162145201Y-123754300D01*
X162139547Y-123749120D01*
X160092782Y-121702355D01*
X160067371Y-121647861D01*
X160082934Y-121589783D01*
X160092777Y-121578051D01*
X160163111Y-121507718D01*
X160217400Y-121401171D01*
X160236106Y-121283063D01*
X160217400Y-121164955D01*
X160217400Y-121164954D01*
X160163113Y-121058411D01*
X160163112Y-121058410D01*
X160163111Y-121058408D01*
X160078555Y-120973852D01*
X160078552Y-120973850D01*
X160078551Y-120973849D01*
X159972008Y-120919562D01*
X159853900Y-120900857D01*
X159735792Y-120919562D01*
X159735791Y-120919562D01*
X159629248Y-120973849D01*
X159629244Y-120973852D01*
X159558916Y-121044180D01*
X159504422Y-121069591D01*
X159446344Y-121054028D01*
X159434607Y-121044180D01*
X158727730Y-120337303D01*
X158702319Y-120282809D01*
X158717882Y-120224731D01*
X158749976Y-120196831D01*
X158846448Y-120147676D01*
X158931004Y-120063120D01*
X158985293Y-119956573D01*
X159003999Y-119838465D01*
X158985293Y-119720357D01*
X158985293Y-119720356D01*
X158931006Y-119613813D01*
X158931005Y-119613812D01*
X158931004Y-119613810D01*
X158846448Y-119529254D01*
X158846445Y-119529252D01*
X158846444Y-119529251D01*
X158739901Y-119474964D01*
X158621793Y-119456259D01*
X158503685Y-119474964D01*
X158503684Y-119474964D01*
X158397141Y-119529251D01*
X158312579Y-119613813D01*
X158263428Y-119710278D01*
X158219454Y-119751284D01*
X158159409Y-119754431D01*
X158122954Y-119732527D01*
X156691037Y-118300610D01*
X156665626Y-118246116D01*
X156665292Y-118238455D01*
X156665292Y-117311274D01*
X156669954Y-117298465D01*
X157322694Y-117298465D01*
X157341399Y-117416572D01*
X157341399Y-117416573D01*
X157395686Y-117523116D01*
X157395687Y-117523117D01*
X157395689Y-117523120D01*
X157480245Y-117607676D01*
X157480247Y-117607677D01*
X157480248Y-117607678D01*
X157586791Y-117661965D01*
X157602939Y-117664522D01*
X157704900Y-117680671D01*
X157823008Y-117661965D01*
X157929555Y-117607676D01*
X158014111Y-117523120D01*
X158068400Y-117416573D01*
X158087106Y-117298465D01*
X158068400Y-117180357D01*
X158068400Y-117180356D01*
X158014113Y-117073813D01*
X158014112Y-117073812D01*
X158014111Y-117073810D01*
X157929555Y-116989254D01*
X157929552Y-116989252D01*
X157929551Y-116989251D01*
X157823008Y-116934964D01*
X157704900Y-116916259D01*
X157586792Y-116934964D01*
X157586791Y-116934964D01*
X157480248Y-116989251D01*
X157395686Y-117073813D01*
X157341399Y-117180356D01*
X157341399Y-117180357D01*
X157322694Y-117298465D01*
X156669954Y-117298465D01*
X156685857Y-117254773D01*
X156691026Y-117249130D01*
X157974915Y-115965241D01*
X158029408Y-115939831D01*
X158087486Y-115955394D01*
X158099224Y-115965242D01*
X159474915Y-117340933D01*
X159500326Y-117395427D01*
X159484763Y-117453505D01*
X159474915Y-117465242D01*
X159415294Y-117524862D01*
X159415293Y-117524865D01*
X159415293Y-117913592D01*
X159394728Y-117970093D01*
X159375368Y-117985495D01*
X159375947Y-117986291D01*
X159370351Y-117990356D01*
X159370349Y-117990358D01*
X159320334Y-118040373D01*
X159285790Y-118074917D01*
X159231503Y-118181460D01*
X159231503Y-118181461D01*
X159212798Y-118299569D01*
X159231503Y-118417676D01*
X159231503Y-118417677D01*
X159285790Y-118524220D01*
X159285791Y-118524221D01*
X159285793Y-118524224D01*
X159370349Y-118608780D01*
X159370351Y-118608781D01*
X159370352Y-118608782D01*
X159476895Y-118663069D01*
X159493043Y-118665626D01*
X159595004Y-118681775D01*
X159713112Y-118663069D01*
X159819659Y-118608780D01*
X159847279Y-118581159D01*
X159901770Y-118555750D01*
X159959848Y-118571311D01*
X159971587Y-118581160D01*
X160039508Y-118649081D01*
X160064919Y-118703575D01*
X160049356Y-118761653D01*
X160039509Y-118773390D01*
X160011886Y-118801012D01*
X160011886Y-118801013D01*
X159957599Y-118907556D01*
X159957599Y-118907557D01*
X159938894Y-119025665D01*
X159957599Y-119143772D01*
X159957599Y-119143773D01*
X160011886Y-119250316D01*
X160011887Y-119250317D01*
X160011889Y-119250320D01*
X160096445Y-119334876D01*
X160096447Y-119334877D01*
X160096448Y-119334878D01*
X160202991Y-119389165D01*
X160219139Y-119391722D01*
X160321100Y-119407871D01*
X160439208Y-119389165D01*
X160545755Y-119334876D01*
X160573375Y-119307255D01*
X160627866Y-119281846D01*
X160685944Y-119297407D01*
X160697683Y-119307256D01*
X161894431Y-120504004D01*
X161919842Y-120558498D01*
X161920176Y-120566159D01*
X161920176Y-122016149D01*
X161920176Y-122092133D01*
X161949254Y-122162334D01*
X162005350Y-122218430D01*
X162030761Y-122272923D01*
X162030013Y-122294333D01*
X162021694Y-122346864D01*
X162040399Y-122464972D01*
X162040399Y-122464973D01*
X162094686Y-122571516D01*
X162094687Y-122571517D01*
X162094689Y-122571520D01*
X162179245Y-122656076D01*
X162179247Y-122656077D01*
X162179248Y-122656078D01*
X162285791Y-122710365D01*
X162301939Y-122712922D01*
X162403900Y-122729071D01*
X162522008Y-122710365D01*
X162628555Y-122656076D01*
X162713111Y-122571520D01*
X162767400Y-122464973D01*
X162786106Y-122346865D01*
X162767400Y-122228757D01*
X162767400Y-122228756D01*
X162713113Y-122122213D01*
X162713112Y-122122212D01*
X162713111Y-122122210D01*
X162628555Y-122037654D01*
X162628552Y-122037652D01*
X162628551Y-122037651D01*
X162522008Y-121983364D01*
X162403900Y-121964659D01*
X162403897Y-121964659D01*
X162403815Y-121964672D01*
X162403748Y-121964659D01*
X162396983Y-121964659D01*
X162396983Y-121963343D01*
X162344794Y-121953191D01*
X162306961Y-121906458D01*
X162302176Y-121877852D01*
X162302176Y-121109562D01*
X162322741Y-121053061D01*
X162374812Y-121022997D01*
X162397808Y-121025515D01*
X162397808Y-121024865D01*
X162617481Y-121024865D01*
X162673982Y-121045430D01*
X162679635Y-121050610D01*
X162730468Y-121101442D01*
X162730472Y-121101445D01*
X162837015Y-121155732D01*
X162853163Y-121158289D01*
X162955124Y-121174438D01*
X163073232Y-121155732D01*
X163179779Y-121101443D01*
X163264335Y-121016887D01*
X163318624Y-120910340D01*
X163337330Y-120792232D01*
X163334619Y-120775114D01*
X163346092Y-120716093D01*
X163392820Y-120678254D01*
X163407683Y-120674548D01*
X163488332Y-120661775D01*
X163594879Y-120607486D01*
X163679435Y-120522930D01*
X163733724Y-120416383D01*
X163752430Y-120298275D01*
X163752430Y-120298274D01*
X163752430Y-120296487D01*
X163752931Y-120295109D01*
X163753512Y-120291443D01*
X163754224Y-120291555D01*
X163772995Y-120239986D01*
X163825066Y-120209922D01*
X163826500Y-120209682D01*
X163903432Y-120197498D01*
X164009979Y-120143209D01*
X164094535Y-120058653D01*
X164148824Y-119952106D01*
X164167530Y-119833998D01*
X164166145Y-119825255D01*
X164177615Y-119766235D01*
X164190799Y-119749357D01*
X164573932Y-119366224D01*
X164628423Y-119340815D01*
X164649834Y-119341563D01*
X164707436Y-119350686D01*
X164825544Y-119331980D01*
X164932091Y-119277691D01*
X165016647Y-119193135D01*
X165070936Y-119086588D01*
X165089642Y-118968480D01*
X165080519Y-118910878D01*
X165091992Y-118851856D01*
X165105174Y-118834982D01*
X165915291Y-118024866D01*
X165915291Y-118024864D01*
X165927654Y-118012502D01*
X165930389Y-118015237D01*
X165950713Y-117993046D01*
X166010324Y-117985183D01*
X166061043Y-118017476D01*
X166069639Y-118031096D01*
X166074859Y-118041341D01*
X166074861Y-118041343D01*
X166074863Y-118041346D01*
X166159419Y-118125902D01*
X166159421Y-118125903D01*
X166159422Y-118125904D01*
X166265965Y-118180191D01*
X166282113Y-118182748D01*
X166384074Y-118198897D01*
X166502182Y-118180191D01*
X166608729Y-118125902D01*
X166693285Y-118041346D01*
X166747574Y-117934799D01*
X166766280Y-117816691D01*
X166747574Y-117698583D01*
X166747574Y-117698582D01*
X166693287Y-117592039D01*
X166693286Y-117592038D01*
X166693285Y-117592036D01*
X166608729Y-117507480D01*
X166608726Y-117507478D01*
X166608725Y-117507477D01*
X166502182Y-117453190D01*
X166384074Y-117434485D01*
X166265966Y-117453190D01*
X166265965Y-117453190D01*
X166159422Y-117507477D01*
X166074857Y-117592042D01*
X166074299Y-117592811D01*
X166073654Y-117593245D01*
X166069972Y-117596928D01*
X166069256Y-117596212D01*
X166024449Y-117626430D01*
X165964651Y-117620140D01*
X165922887Y-117576884D01*
X165915291Y-117541139D01*
X165915291Y-117524865D01*
X164291529Y-115901103D01*
X164266118Y-115846609D01*
X164266865Y-115825208D01*
X164276106Y-115766865D01*
X164257400Y-115648757D01*
X164257400Y-115648756D01*
X164203113Y-115542213D01*
X164203112Y-115542212D01*
X164203111Y-115542210D01*
X164118555Y-115457654D01*
X164118552Y-115457652D01*
X164118551Y-115457651D01*
X164012008Y-115403364D01*
X163893900Y-115384659D01*
X163893899Y-115384659D01*
X163835564Y-115393897D01*
X163776542Y-115382423D01*
X163759660Y-115369234D01*
X163709421Y-115318995D01*
X163684010Y-115264501D01*
X163684757Y-115243104D01*
X163700828Y-115141636D01*
X163682122Y-115023528D01*
X163682122Y-115023527D01*
X163627835Y-114916984D01*
X163627834Y-114916983D01*
X163627833Y-114916981D01*
X163600264Y-114889412D01*
X163574854Y-114834920D01*
X163590417Y-114776842D01*
X163600259Y-114765110D01*
X163641564Y-114723806D01*
X163695853Y-114617259D01*
X163714559Y-114499151D01*
X163695853Y-114381043D01*
X163695853Y-114381042D01*
X163641566Y-114274499D01*
X163641565Y-114274498D01*
X163641564Y-114274496D01*
X163557008Y-114189940D01*
X163557005Y-114189938D01*
X163557004Y-114189937D01*
X163450461Y-114135650D01*
X163332353Y-114116945D01*
X163214245Y-114135650D01*
X163214244Y-114135650D01*
X163107701Y-114189937D01*
X163023139Y-114274499D01*
X162968852Y-114381042D01*
X162968850Y-114381048D01*
X162968849Y-114381061D01*
X162968844Y-114381069D01*
X162966714Y-114387625D01*
X162965438Y-114387210D01*
X162939691Y-114433645D01*
X162883555Y-114455185D01*
X162826706Y-114435601D01*
X162819888Y-114429462D01*
X162665292Y-114274866D01*
X162665291Y-114274866D01*
X162142220Y-114797936D01*
X162087726Y-114823347D01*
X162029647Y-114807784D01*
X162001746Y-114775688D01*
X161960217Y-114694182D01*
X161875661Y-114609626D01*
X161875658Y-114609624D01*
X161873105Y-114607071D01*
X161847694Y-114552577D01*
X161863257Y-114494499D01*
X161873094Y-114482773D01*
X162593222Y-113762646D01*
X162622300Y-113692445D01*
X162622300Y-113616461D01*
X162622300Y-112771516D01*
X162642865Y-112715015D01*
X162648045Y-112709362D01*
X162793623Y-112563783D01*
X162848117Y-112538372D01*
X162895684Y-112547618D01*
X162997127Y-112599306D01*
X163013275Y-112601863D01*
X163115236Y-112618012D01*
X163233344Y-112599306D01*
X163339891Y-112545017D01*
X163424447Y-112460461D01*
X163478736Y-112353914D01*
X163488064Y-112295015D01*
X163517214Y-112242428D01*
X163573347Y-112220879D01*
X163630198Y-112240454D01*
G37*
%TD.AperFunction*%
%TA.AperFunction,Conductor*%
G36*
X160052883Y-113989996D02*
G01*
X160087371Y-114039249D01*
X160089284Y-114075748D01*
X160076829Y-114154393D01*
X160076829Y-114154394D01*
X160095534Y-114272502D01*
X160095534Y-114272503D01*
X160149821Y-114379046D01*
X160149822Y-114379047D01*
X160149824Y-114379050D01*
X160234380Y-114463606D01*
X160234382Y-114463607D01*
X160234383Y-114463608D01*
X160340926Y-114517895D01*
X160357074Y-114520452D01*
X160459035Y-114536601D01*
X160577143Y-114517895D01*
X160683690Y-114463606D01*
X160768246Y-114379050D01*
X160768247Y-114379047D01*
X160773137Y-114374158D01*
X160774872Y-114375893D01*
X160816226Y-114348005D01*
X160837485Y-114345395D01*
X161372106Y-114345395D01*
X161428607Y-114365960D01*
X161458671Y-114418031D01*
X161460006Y-114433295D01*
X161460006Y-114540387D01*
X161439441Y-114596888D01*
X161431138Y-114604630D01*
X161431243Y-114604735D01*
X161426352Y-114609625D01*
X161426351Y-114609626D01*
X161341795Y-114694182D01*
X161341792Y-114694185D01*
X161287505Y-114800728D01*
X161287505Y-114800729D01*
X161268800Y-114918837D01*
X161287505Y-115036944D01*
X161287505Y-115036945D01*
X161341792Y-115143488D01*
X161341793Y-115143489D01*
X161341795Y-115143492D01*
X161426351Y-115228048D01*
X161507856Y-115269577D01*
X161548862Y-115313550D01*
X161552009Y-115373595D01*
X161530105Y-115410051D01*
X161039496Y-115900660D01*
X160985002Y-115926071D01*
X160963592Y-115925323D01*
X160905991Y-115916201D01*
X160787883Y-115934906D01*
X160787882Y-115934906D01*
X160681339Y-115989193D01*
X160596778Y-116073754D01*
X160573270Y-116119890D01*
X160529295Y-116160896D01*
X160469250Y-116164042D01*
X160432796Y-116142138D01*
X159177562Y-114886904D01*
X159152151Y-114832410D01*
X159167714Y-114774332D01*
X159177556Y-114762600D01*
X159940314Y-113999842D01*
X159994805Y-113974433D01*
X160052883Y-113989996D01*
G37*
%TD.AperFunction*%
%TA.AperFunction,Conductor*%
G36*
X162234749Y-111808131D02*
G01*
X162269237Y-111857384D01*
X162271149Y-111866379D01*
X162272456Y-111874632D01*
X162272457Y-111874634D01*
X162324146Y-111976080D01*
X162331473Y-112035759D01*
X162307981Y-112078140D01*
X162018307Y-112367815D01*
X162018306Y-112367814D01*
X161964579Y-112421542D01*
X161964577Y-112421544D01*
X161935500Y-112491745D01*
X161935500Y-113412674D01*
X161914935Y-113469175D01*
X161909755Y-113474829D01*
X161446934Y-113937650D01*
X161392440Y-113963061D01*
X161384779Y-113963395D01*
X160837485Y-113963395D01*
X160780984Y-113942830D01*
X160773241Y-113934527D01*
X160773137Y-113934632D01*
X160768247Y-113929742D01*
X160768246Y-113929740D01*
X160683690Y-113845184D01*
X160683687Y-113845182D01*
X160683686Y-113845181D01*
X160577143Y-113790894D01*
X160459035Y-113772189D01*
X160459034Y-113772189D01*
X160380388Y-113784644D01*
X160321366Y-113773170D01*
X160283527Y-113726442D01*
X160284578Y-113666324D01*
X160304480Y-113635676D01*
X162122178Y-111817978D01*
X162176671Y-111792568D01*
X162234749Y-111808131D01*
G37*
%TD.AperFunction*%
%TD*%
M02*
