M48
; DRILL file {KiCad 8.0.4} date 2024-12-12T19:02:35+0800
; FORMAT={-:-/ absolute / metric / decimal}
; #@! TF.CreationDate,2024-12-12T19:02:35+08:00
; #@! TF.GenerationSoftware,Kicad,Pcbnew,8.0.4
; #@! TF.FileFunction,Plated,1,4,PTH
FMAT,2
METRIC
; #@! TA.AperFunction,Plated,PTH,ViaDrill
T1C0.300
; #@! TA.AperFunction,Plated,PTH,ViaDrill
T2C0.500
; #@! TA.AperFunction,Plated,PTH,ComponentDrill
T3C0.600
; #@! TA.AperFunction,Plated,PTH,ComponentDrill
T4C0.800
; #@! TA.AperFunction,Plated,PTH,ComponentDrill
T5C0.914
; #@! TA.AperFunction,Plated,PTH,ComponentDrill
T6C1.020
; #@! TA.AperFunction,Plated,PTH,ComponentDrill
T7C1.900
; #@! TA.AperFunction,Plated,PTH,ComponentDrill
T8C3.200
%
G90
G05
T1
X73.39Y-98.066
X73.57Y-75.256
X73.58Y-72.106
X73.86Y-79.966
X73.88Y-82.686
X73.99Y-77.756
X73.99Y-86.186
X74.12Y-69.326
X74.34Y-92.586
X74.52Y-89.466
X74.82Y-71.136
X75.55Y-94.106
X75.99Y-78.956
X75.99Y-86.926
X76.01Y-84.176
X76.16Y-81.306
X76.53Y-91.956
X76.65Y-89.496
X76.89Y-99.646
X77.0Y-75.076
X77.64Y-97.146
X78.49Y-98.636
X78.54Y-90.766
X78.711Y-94.046
X78.87Y-92.726
X79.961Y-94.046
X79.98Y-69.046
X80.11Y-91.696
X81.0Y-98.876
X82.22Y-82.356
X82.27Y-75.416
X82.34Y-84.756
X82.43Y-73.316
X82.53Y-78.506
X82.7Y-80.786
X83.4Y-77.016
X83.46Y-95.386
X83.93Y-82.456
X84.01Y-87.316
X84.17Y-75.046
X86.1Y-99.066
X86.3Y-80.556
X86.37Y-71.606
X86.545Y-74.156
X86.57Y-84.356
X87.33Y-98.286
X87.61Y-87.346
X87.66Y-96.756
X87.795Y-74.156
X87.8Y-85.966
X88.9Y-71.556
X89.15Y-68.426
X89.23Y-76.531
X89.23Y-77.221
X90.043Y-76.876
X90.72Y-84.636
X91.27Y-78.546
X91.95Y-80.276
X92.15Y-89.936
X93.02Y-82.396
X93.454Y-85.661
X93.5Y-84.916
X93.77Y-73.826
X93.91Y-78.956
X94.02Y-68.456
X94.51Y-82.106
X94.62Y-84.8
X95.38Y-73.866
X95.42Y-90.866
X95.591Y-84.8
X95.84Y-76.976
X96.246Y-84.819
X97.669Y-74.156
X98.02Y-71.246
X98.919Y-74.156
X99.35Y-84.246
X99.38Y-76.896
X100.169Y-74.156
X100.66Y-78.126
X100.744Y-88.226
X100.97Y-68.336
X101.074Y-88.729
X101.19Y-71.346
X101.193Y-89.328
X101.345Y-90.479
X101.425Y-89.883
X101.62Y-75.466
X101.9Y-91.296
X102.07Y-76.246
X104.382Y-76.144
X104.47Y-68.726
X104.55Y-75.176
X104.62Y-81.086
X105.14Y-73.026
X105.678Y-76.484
X105.97Y-82.163
X105.97Y-83.433
X106.05Y-85.346
X106.05Y-86.235
X106.06Y-78.056
X106.08Y-80.776
X106.495Y-85.79
X106.605Y-82.798
X106.939Y-85.346
X106.939Y-86.235
X107.088Y-76.984
X107.187Y-75.483
X107.24Y-82.163
X107.24Y-83.433
X107.384Y-85.79
X107.59Y-70.676
X107.78Y-69.646
X107.828Y-86.235
X107.875Y-82.798
X107.92Y-93.196
X108.33Y-98.226
X108.475Y-78.946
X108.49Y-103.826
X108.51Y-82.163
X108.51Y-83.433
X108.536Y-74.021
X108.72Y-96.146
X108.76Y-80.206
X108.838Y-69.406
X108.91Y-95.126
X109.067Y-75.163
X109.067Y-77.804
X109.11Y-99.706
X109.145Y-82.798
X109.29Y-101.716
X109.61Y-79.506
X109.74Y-85.606
X109.78Y-87.243
X109.78Y-82.163
X109.78Y-83.433
X110.26Y-103.926
X110.388Y-75.163
X110.388Y-76.484
X110.388Y-77.804
X110.415Y-87.878
X110.43Y-102.196
X110.54Y-106.586
X110.67Y-79.727
X110.824Y-82.148
X110.824Y-82.798
X110.869Y-100.381
X111.05Y-87.243
X111.05Y-88.513
X111.22Y-100.872
X111.43Y-95.766
X111.672Y-102.574
X111.685Y-87.878
X111.709Y-75.163
X111.709Y-77.804
X111.843Y-105.548
X111.888Y-79.727
X111.9Y-96.386
X111.924Y-81.823
X111.924Y-82.473
X111.924Y-83.123
X112.11Y-102.126
X112.14Y-99.766
X112.239Y-74.021
X112.28Y-93.926
X112.32Y-87.243
X112.32Y-88.513
X112.33Y-96.836
X112.67Y-100.306
X112.78Y-103.016
X112.87Y-78.966
X112.89Y-93.926
X112.976Y-70.256
X112.98Y-71.012
X113.04Y-104.406
X113.12Y-100.825
X113.18Y-105.926
X113.388Y-77.484
X113.438Y-75.984
X113.51Y-76.606
X113.62Y-103.051
X113.91Y-90.596
X114.076Y-70.006
X114.204Y-93.367
X114.37Y-85.906
X114.478Y-103.448
X114.805Y-93.367
X114.98Y-103.796
X115.076Y-100.572
X115.076Y-71.012
X115.076Y-74.306
X115.218Y-96.498
X115.22Y-81.316
X115.4Y-104.306
X115.41Y-93.096
X115.48Y-98.666
X115.545Y-100.948
X115.8Y-106.256
X115.86Y-104.846
X115.907Y-95.884
X116.019Y-101.32
X116.076Y-69.806
X116.119Y-98.247
X116.19Y-89.414
X116.37Y-92.116
X116.461Y-101.727
X116.485Y-104.777
X116.578Y-97.01
X116.678Y-102.357
X116.84Y-82.794
X116.84Y-87.594
X116.93Y-105.316
X117.076Y-71.012
X117.19Y-93.666
X117.36Y-106.856
X117.674Y-96.126
X117.888Y-99.734
X117.94Y-105.866
X118.064Y-103.161
X118.076Y-69.806
X118.36Y-84.944
X118.36Y-85.944
X118.364Y-96.426
X118.492Y-102.738
X118.54Y-105.082
X118.793Y-96.848
X118.81Y-78.586
X118.83Y-84.444
X118.83Y-85.444
X118.959Y-92.664
X119.05Y-101.946
X119.076Y-71.012
X119.076Y-74.606
X119.09Y-106.276
X119.215Y-97.277
X119.39Y-93.096
X119.402Y-104.667
X119.72Y-98.116
X119.84Y-101.576
X119.883Y-95.424
X119.93Y-100.927
X119.99Y-104.216
X120.076Y-69.806
X120.406Y-95.721
X120.54Y-100.536
X120.981Y-95.9
X121.14Y-68.686
X121.195Y-100.212
X121.51Y-95.614
X121.51Y-97.526
X121.58Y-99.749
X121.72Y-95.016
X121.78Y-92.916
X121.88Y-75.526
X122.27Y-82.136
X122.37Y-88.206
X122.409Y-104.821
X122.92Y-78.206
X123.037Y-95.966
X123.097Y-90.676
X123.1Y-74.426
X123.151Y-101.536
X123.58Y-99.826
X123.747Y-90.676
X123.747Y-94.866
X123.8Y-102.146
X124.52Y-83.406
X124.55Y-69.366
X124.57Y-77.026
X124.58Y-75.246
X124.64Y-88.636
X124.65Y-97.856
X124.66Y-79.416
X124.76Y-90.366
T2
X85.295Y-69.556
X115.077Y-75.714
T4
X78.156Y-78.407
X78.156Y-80.407
X78.156Y-82.407
X78.156Y-84.407
X78.156Y-86.407
X78.156Y-88.407
X80.156Y-78.407
X80.156Y-80.407
X80.156Y-82.407
X80.156Y-84.407
X80.156Y-86.407
X80.156Y-88.407
T5
X114.713Y-78.948
X116.713Y-78.948
T6
X104.905Y-82.798
X104.905Y-85.798
T7
X113.483Y-82.798
X113.483Y-87.878
T8
X86.086Y-92.877
X98.07Y-80.106
T3
G00X118.633Y-80.874
M15
G01X117.533Y-80.874
M16
G05
G00X118.633Y-89.514
M15
G01X117.533Y-89.514
M16
G05
G00X122.663Y-80.874
M15
G01X121.863Y-80.874
M16
G05
G00X122.663Y-89.514
M15
G01X121.863Y-89.514
M16
G05
M30
