%TF.GenerationSoftware,KiCad,Pcbnew,8.0.7*%
%TF.CreationDate,2024-12-31T14:50:50+08:00*%
%TF.ProjectId,SB-main-board,53422d6d-6169-46e2-9d62-6f6172642e6b,B1*%
%TF.SameCoordinates,Original*%
%TF.FileFunction,Soldermask,Bot*%
%TF.FilePolarity,Negative*%
%FSLAX46Y46*%
G04 Gerber Fmt 4.6, Leading zero omitted, Abs format (unit mm)*
G04 Created by KiCad (PCBNEW 8.0.7) date 2024-12-31 14:50:50*
%MOMM*%
%LPD*%
G01*
G04 APERTURE LIST*
G04 Aperture macros list*
%AMRoundRect*
0 Rectangle with rounded corners*
0 $1 Rounding radius*
0 $2 $3 $4 $5 $6 $7 $8 $9 X,Y pos of 4 corners*
0 Add a 4 corners polygon primitive as box body*
4,1,4,$2,$3,$4,$5,$6,$7,$8,$9,$2,$3,0*
0 Add four circle primitives for the rounded corners*
1,1,$1+$1,$2,$3*
1,1,$1+$1,$4,$5*
1,1,$1+$1,$6,$7*
1,1,$1+$1,$8,$9*
0 Add four rect primitives between the rounded corners*
20,1,$1+$1,$2,$3,$4,$5,0*
20,1,$1+$1,$4,$5,$6,$7,0*
20,1,$1+$1,$6,$7,$8,$9,0*
20,1,$1+$1,$8,$9,$2,$3,0*%
%AMFreePoly0*
4,1,21,1.545000,0.775000,0.925000,0.775000,0.925000,0.525000,1.545000,0.525000,1.545000,0.125000,0.925000,0.125000,0.925000,-0.125000,1.545000,-0.125000,1.545000,-0.525000,0.925000,-0.525000,0.925000,-0.775000,1.545000,-0.775000,1.545000,-1.175000,0.925000,-1.175000,0.925000,-1.125000,-0.925000,-1.125000,-0.925000,1.125000,0.925000,1.125000,0.925000,1.175000,1.545000,1.175000,
1.545000,0.775000,1.545000,0.775000,$1*%
G04 Aperture macros list end*
%ADD10C,0.050800*%
%ADD11C,2.800000*%
%ADD12C,1.524000*%
%ADD13O,2.900000X2.100000*%
%ADD14RoundRect,0.250001X0.499999X0.499999X-0.499999X0.499999X-0.499999X-0.499999X0.499999X-0.499999X0*%
%ADD15C,1.500000*%
%ADD16C,5.500000*%
%ADD17R,1.350000X1.350000*%
%ADD18O,1.350000X1.350000*%
%ADD19RoundRect,0.140000X-0.219203X-0.021213X-0.021213X-0.219203X0.219203X0.021213X0.021213X0.219203X0*%
%ADD20RoundRect,0.075000X-0.337500X-0.075000X0.337500X-0.075000X0.337500X0.075000X-0.337500X0.075000X0*%
%ADD21RoundRect,0.075000X-0.075000X-0.337500X0.075000X-0.337500X0.075000X0.337500X-0.075000X0.337500X0*%
%ADD22R,3.250000X3.250000*%
%ADD23RoundRect,0.200000X-0.275000X0.200000X-0.275000X-0.200000X0.275000X-0.200000X0.275000X0.200000X0*%
%ADD24RoundRect,0.140000X-0.170000X0.140000X-0.170000X-0.140000X0.170000X-0.140000X0.170000X0.140000X0*%
%ADD25RoundRect,0.140000X-0.140000X-0.170000X0.140000X-0.170000X0.140000X0.170000X-0.140000X0.170000X0*%
%ADD26RoundRect,0.135000X-0.185000X0.135000X-0.185000X-0.135000X0.185000X-0.135000X0.185000X0.135000X0*%
%ADD27RoundRect,0.250000X-0.262500X-0.450000X0.262500X-0.450000X0.262500X0.450000X-0.262500X0.450000X0*%
%ADD28RoundRect,0.140000X0.021213X-0.219203X0.219203X-0.021213X-0.021213X0.219203X-0.219203X0.021213X0*%
%ADD29RoundRect,0.140000X0.219203X0.021213X0.021213X0.219203X-0.219203X-0.021213X-0.021213X-0.219203X0*%
%ADD30RoundRect,0.218750X0.218750X0.256250X-0.218750X0.256250X-0.218750X-0.256250X0.218750X-0.256250X0*%
%ADD31RoundRect,0.250000X-0.250000X-2.500000X0.250000X-2.500000X0.250000X2.500000X-0.250000X2.500000X0*%
%ADD32RoundRect,0.250000X-0.550000X-1.250000X0.550000X-1.250000X0.550000X1.250000X-0.550000X1.250000X0*%
%ADD33RoundRect,0.250000X-0.250000X-0.475000X0.250000X-0.475000X0.250000X0.475000X-0.250000X0.475000X0*%
%ADD34RoundRect,0.150000X0.587500X0.150000X-0.587500X0.150000X-0.587500X-0.150000X0.587500X-0.150000X0*%
%ADD35RoundRect,0.140000X0.140000X0.170000X-0.140000X0.170000X-0.140000X-0.170000X0.140000X-0.170000X0*%
%ADD36C,0.650000*%
%ADD37RoundRect,0.150000X-0.425000X0.150000X-0.425000X-0.150000X0.425000X-0.150000X0.425000X0.150000X0*%
%ADD38RoundRect,0.075000X-0.500000X0.075000X-0.500000X-0.075000X0.500000X-0.075000X0.500000X0.075000X0*%
%ADD39O,1.800000X1.000000*%
%ADD40O,2.100000X1.000000*%
%ADD41RoundRect,0.135000X0.135000X0.185000X-0.135000X0.185000X-0.135000X-0.185000X0.135000X-0.185000X0*%
%ADD42RoundRect,0.100000X0.100000X-0.225000X0.100000X0.225000X-0.100000X0.225000X-0.100000X-0.225000X0*%
%ADD43RoundRect,0.100000X0.315000X0.100000X-0.315000X0.100000X-0.315000X-0.100000X0.315000X-0.100000X0*%
%ADD44FreePoly0,180.000000*%
%ADD45RoundRect,0.135000X0.185000X-0.135000X0.185000X0.135000X-0.185000X0.135000X-0.185000X-0.135000X0*%
%ADD46R,0.375000X0.350000*%
%ADD47R,0.350000X0.375000*%
%ADD48RoundRect,0.037500X0.087500X0.237500X-0.087500X0.237500X-0.087500X-0.237500X0.087500X-0.237500X0*%
%ADD49RoundRect,0.060000X0.140000X0.215000X-0.140000X0.215000X-0.140000X-0.215000X0.140000X-0.215000X0*%
G04 APERTURE END LIST*
%TO.C,S1*%
D10*
X91446330Y-83750664D02*
X91966330Y-83750664D01*
X91966330Y-85482264D01*
X91446330Y-85482264D01*
X91446330Y-83750664D01*
G36*
X91446330Y-83750664D02*
G01*
X91966330Y-83750664D01*
X91966330Y-85482264D01*
X91446330Y-85482264D01*
X91446330Y-83750664D01*
G37*
%TD*%
D11*
%TO.C,J1*%
X113482830Y-87877964D03*
X113482830Y-82797964D03*
D12*
X114712830Y-78947964D03*
X116712830Y-78947964D03*
%TD*%
D13*
%TO.C,J5*%
X104905330Y-90117964D03*
D14*
X104905330Y-85797964D03*
D15*
X104905330Y-82797964D03*
%TD*%
D16*
%TO.C,H2*%
X86086330Y-92876664D03*
%TD*%
%TO.C,H1*%
X98070330Y-80105664D03*
%TD*%
D17*
%TO.C,J9*%
X80156472Y-88406664D03*
D18*
X78156472Y-88406664D03*
X80156472Y-86406664D03*
X78156472Y-86406664D03*
X80156472Y-84406664D03*
X78156472Y-84406664D03*
X80156472Y-82406664D03*
X78156472Y-82406664D03*
X80156472Y-80406664D03*
X78156472Y-80406664D03*
X80156472Y-78406664D03*
X78156472Y-78406664D03*
%TD*%
D19*
%TO.C,C5*%
X116458621Y-98587406D03*
X117137443Y-99266228D03*
%TD*%
D20*
%TO.C,U9*%
X92992830Y-88095664D03*
X92992830Y-87445664D03*
X92992830Y-86795664D03*
X92992830Y-86145664D03*
X92992830Y-85495664D03*
D21*
X94130330Y-84358164D03*
X94780330Y-84358164D03*
X95430330Y-84358164D03*
X96080330Y-84358164D03*
X96730330Y-84358164D03*
D20*
X97867830Y-85495664D03*
X97867830Y-86145664D03*
X97867830Y-86795664D03*
X97867830Y-87445664D03*
X97867830Y-88095664D03*
D21*
X96730330Y-89233164D03*
X96080330Y-89233164D03*
X95430330Y-89233164D03*
X94780330Y-89233164D03*
X94130330Y-89233164D03*
D22*
X95430330Y-86795664D03*
%TD*%
D23*
%TO.C,R17*%
X91466330Y-86295664D03*
X91466330Y-87945664D03*
%TD*%
D24*
%TO.C,C30*%
X108712829Y-101715664D03*
X108712829Y-102675664D03*
%TD*%
D25*
%TO.C,C31*%
X96382832Y-91325664D03*
X97342832Y-91325664D03*
%TD*%
%TO.C,C23*%
X108536122Y-74505664D03*
X109496122Y-74505664D03*
%TD*%
D26*
%TO.C,R9*%
X115866722Y-82923665D03*
X115866722Y-83943665D03*
%TD*%
D27*
%TO.C,R7*%
X122509422Y-91485664D03*
X124334422Y-91485664D03*
%TD*%
D28*
%TO.C,C9*%
X117307149Y-101728450D03*
X117985971Y-101049628D03*
%TD*%
D19*
%TO.C,C10*%
X121869508Y-97166091D03*
X122548330Y-97844913D03*
%TD*%
D29*
%TO.C,C4*%
X119599666Y-100597079D03*
X118920844Y-99918257D03*
%TD*%
D25*
%TO.C,C32*%
X96382832Y-90405665D03*
X97342832Y-90405665D03*
%TD*%
D30*
%TO.C,FB1*%
X95242831Y-90865664D03*
X93667829Y-90865664D03*
%TD*%
D31*
%TO.C,J3*%
X120076330Y-72805664D03*
X118076330Y-72805664D03*
X116076330Y-72805664D03*
X114076330Y-72805664D03*
D32*
X122476330Y-70555664D03*
X111676330Y-70555664D03*
%TD*%
D33*
%TO.C,C26*%
X107737723Y-78946165D03*
X109637723Y-78946165D03*
%TD*%
D34*
%TO.C,U10*%
X116340330Y-91765664D03*
X116340330Y-93665664D03*
X114465330Y-92715664D03*
%TD*%
D24*
%TO.C,C29*%
X113720330Y-104405664D03*
X113720330Y-105365664D03*
%TD*%
D35*
%TO.C,C24*%
X112239322Y-74505664D03*
X111279322Y-74505664D03*
%TD*%
D19*
%TO.C,C8*%
X121298023Y-102861122D03*
X121976845Y-103539944D03*
%TD*%
D36*
%TO.C,J2*%
X118582722Y-82303664D03*
X118582722Y-88083664D03*
D37*
X117507722Y-81993664D03*
X117507722Y-82793664D03*
D38*
X117507722Y-83943664D03*
X117507722Y-84943664D03*
X117507722Y-85443664D03*
X117507722Y-86443664D03*
D37*
X117507722Y-87593664D03*
X117507722Y-88393664D03*
X117507722Y-88393664D03*
X117507722Y-87593664D03*
D38*
X117507722Y-86943664D03*
X117507722Y-85943664D03*
X117507722Y-84443664D03*
X117507722Y-83443664D03*
D37*
X117507722Y-82793664D03*
X117507722Y-81993664D03*
D39*
X122262722Y-80873664D03*
D40*
X118082722Y-80873664D03*
D39*
X122262722Y-89513664D03*
D40*
X118082722Y-89513664D03*
%TD*%
D41*
%TO.C,R19*%
X112105330Y-85185664D03*
X111085330Y-85185664D03*
%TD*%
D42*
%TO.C,U7*%
X112492830Y-106305664D03*
X111842830Y-106305663D03*
X111192830Y-106305664D03*
X111192830Y-104405664D03*
X112492830Y-104405664D03*
%TD*%
D35*
%TO.C,C25*%
X106637722Y-76983665D03*
X105677722Y-76983665D03*
%TD*%
D24*
%TO.C,S1*%
X91706330Y-83930664D03*
X91706330Y-84616464D03*
X91706330Y-85302264D03*
%TD*%
D43*
%TO.C,Q1*%
X111085330Y-81822964D03*
X111085330Y-82472964D03*
X111085330Y-83122964D03*
X111085330Y-83772964D03*
D44*
X109145330Y-82797964D03*
%TD*%
D41*
%TO.C,R20*%
X112105330Y-86155664D03*
X111085330Y-86155664D03*
%TD*%
D24*
%TO.C,C36*%
X92492832Y-90365664D03*
X92492832Y-91325664D03*
%TD*%
D45*
%TO.C,R8*%
X115866722Y-87963663D03*
X115866722Y-86943663D03*
%TD*%
D46*
%TO.C,U8*%
X111192830Y-101445664D03*
X111192830Y-101945664D03*
X111192830Y-102445664D03*
X111192830Y-102945664D03*
D47*
X110680330Y-102958164D03*
X110180330Y-102958164D03*
D46*
X109667830Y-102945664D03*
X109667830Y-102445664D03*
X109667830Y-101945664D03*
X109667830Y-101445664D03*
D47*
X110180330Y-101433164D03*
X110680330Y-101433164D03*
%TD*%
D48*
%TO.C,D3*%
X119840520Y-91815664D03*
X119340520Y-91815664D03*
D49*
X118840520Y-91815664D03*
X118840520Y-91045664D03*
D48*
X119340520Y-91045664D03*
X119840520Y-91045664D03*
%TD*%
G36*
X76752024Y-91023970D02*
G01*
X76770330Y-91068164D01*
X76770330Y-92343164D01*
X76752024Y-92387358D01*
X76707830Y-92405664D01*
X74332830Y-92405664D01*
X74288636Y-92387358D01*
X74270330Y-92343164D01*
X74270330Y-91068164D01*
X74288636Y-91023970D01*
X74332830Y-91005664D01*
X76707830Y-91005664D01*
X76752024Y-91023970D01*
G37*
M02*
