%TF.GenerationSoftware,KiCad,Pcbnew,8.0.3*%
%TF.CreationDate,2024-06-13T13:09:19+08:00*%
%TF.ProjectId,SB-main-board,53422d6d-6169-46e2-9d62-6f6172642e6b,A0*%
%TF.SameCoordinates,Original*%
%TF.FileFunction,Paste,Bot*%
%TF.FilePolarity,Positive*%
%FSLAX46Y46*%
G04 Gerber Fmt 4.6, Leading zero omitted, Abs format (unit mm)*
G04 Created by KiCad (PCBNEW 8.0.3) date 2024-06-13 13:09:19*
%MOMM*%
%LPD*%
G01*
G04 APERTURE LIST*
G04 Aperture macros list*
%AMRoundRect*
0 Rectangle with rounded corners*
0 $1 Rounding radius*
0 $2 $3 $4 $5 $6 $7 $8 $9 X,Y pos of 4 corners*
0 Add a 4 corners polygon primitive as box body*
4,1,4,$2,$3,$4,$5,$6,$7,$8,$9,$2,$3,0*
0 Add four circle primitives for the rounded corners*
1,1,$1+$1,$2,$3*
1,1,$1+$1,$4,$5*
1,1,$1+$1,$6,$7*
1,1,$1+$1,$8,$9*
0 Add four rect primitives between the rounded corners*
20,1,$1+$1,$2,$3,$4,$5,0*
20,1,$1+$1,$4,$5,$6,$7,0*
20,1,$1+$1,$6,$7,$8,$9,0*
20,1,$1+$1,$8,$9,$2,$3,0*%
G04 Aperture macros list end*
%ADD10RoundRect,0.140000X-0.219203X-0.021213X-0.021213X-0.219203X0.219203X0.021213X0.021213X0.219203X0*%
%ADD11RoundRect,0.250000X0.405000X0.405000X-0.405000X0.405000X-0.405000X-0.405000X0.405000X-0.405000X0*%
%ADD12RoundRect,0.075000X0.337500X0.075000X-0.337500X0.075000X-0.337500X-0.075000X0.337500X-0.075000X0*%
%ADD13RoundRect,0.075000X0.075000X0.337500X-0.075000X0.337500X-0.075000X-0.337500X0.075000X-0.337500X0*%
%ADD14RoundRect,0.200000X0.275000X-0.200000X0.275000X0.200000X-0.275000X0.200000X-0.275000X-0.200000X0*%
%ADD15RoundRect,0.140000X0.170000X-0.140000X0.170000X0.140000X-0.170000X0.140000X-0.170000X-0.140000X0*%
%ADD16RoundRect,0.140000X0.140000X0.170000X-0.140000X0.170000X-0.140000X-0.170000X0.140000X-0.170000X0*%
%ADD17RoundRect,0.140000X-0.140000X-0.170000X0.140000X-0.170000X0.140000X0.170000X-0.140000X0.170000X0*%
%ADD18RoundRect,0.135000X-0.185000X0.135000X-0.185000X-0.135000X0.185000X-0.135000X0.185000X0.135000X0*%
%ADD19RoundRect,0.135000X-0.135000X-0.185000X0.135000X-0.185000X0.135000X0.185000X-0.135000X0.185000X0*%
%ADD20RoundRect,0.140000X0.021213X-0.219203X0.219203X-0.021213X-0.021213X0.219203X-0.219203X0.021213X0*%
%ADD21RoundRect,0.140000X0.219203X0.021213X0.021213X0.219203X-0.219203X-0.021213X-0.021213X-0.219203X0*%
%ADD22RoundRect,0.218750X-0.218750X-0.256250X0.218750X-0.256250X0.218750X0.256250X-0.218750X0.256250X0*%
%ADD23RoundRect,0.250000X-0.250000X-2.500000X0.250000X-2.500000X0.250000X2.500000X-0.250000X2.500000X0*%
%ADD24RoundRect,0.250000X-0.550000X-1.250000X0.550000X-1.250000X0.550000X1.250000X-0.550000X1.250000X0*%
%ADD25RoundRect,0.250000X-0.250000X-0.475000X0.250000X-0.475000X0.250000X0.475000X-0.250000X0.475000X0*%
%ADD26RoundRect,0.218750X0.256250X-0.218750X0.256250X0.218750X-0.256250X0.218750X-0.256250X-0.218750X0*%
%ADD27RoundRect,0.150000X-0.587500X-0.150000X0.587500X-0.150000X0.587500X0.150000X-0.587500X0.150000X0*%
%ADD28RoundRect,0.225000X0.017678X-0.335876X0.335876X-0.017678X-0.017678X0.335876X-0.335876X0.017678X0*%
%ADD29RoundRect,0.150000X-0.425000X0.150000X-0.425000X-0.150000X0.425000X-0.150000X0.425000X0.150000X0*%
%ADD30RoundRect,0.075000X-0.500000X0.075000X-0.500000X-0.075000X0.500000X-0.075000X0.500000X0.075000X0*%
%ADD31O,1.800000X1.000000*%
%ADD32O,2.100000X1.000000*%
%ADD33RoundRect,0.160000X0.060104X0.286378X-0.286378X-0.060104X-0.060104X-0.286378X0.286378X0.060104X0*%
%ADD34RoundRect,0.093750X-0.008839X0.141421X-0.141421X0.008839X0.008839X-0.141421X0.141421X-0.008839X0*%
%ADD35RoundRect,0.135000X0.135000X0.185000X-0.135000X0.185000X-0.135000X-0.185000X0.135000X-0.185000X0*%
%ADD36RoundRect,0.150000X-0.512500X-0.150000X0.512500X-0.150000X0.512500X0.150000X-0.512500X0.150000X0*%
%ADD37RoundRect,0.075000X0.340000X0.075000X-0.340000X0.075000X-0.340000X-0.075000X0.340000X-0.075000X0*%
%ADD38RoundRect,0.127500X0.127500X0.190000X-0.127500X0.190000X-0.127500X-0.190000X0.127500X-0.190000X0*%
%ADD39RoundRect,0.225000X-0.017678X0.335876X-0.335876X0.017678X0.017678X-0.335876X0.335876X-0.017678X0*%
%ADD40RoundRect,0.135000X0.185000X-0.135000X0.185000X0.135000X-0.185000X0.135000X-0.185000X-0.135000X0*%
%ADD41RoundRect,0.150000X-0.325000X-0.150000X0.325000X-0.150000X0.325000X0.150000X-0.325000X0.150000X0*%
%ADD42RoundRect,0.150000X-0.150000X-0.325000X0.150000X-0.325000X0.150000X0.325000X-0.150000X0.325000X0*%
G04 APERTURE END LIST*
D10*
%TO.C,C5*%
X161236191Y-116628607D03*
X161915013Y-117307429D03*
%TD*%
D11*
%TO.C,U9*%
X141493900Y-107021866D03*
X141493900Y-105401866D03*
X139873900Y-107021866D03*
X139873900Y-105401866D03*
D12*
X143121400Y-104911866D03*
X143121400Y-105561866D03*
X143121400Y-106211866D03*
X143121400Y-106861866D03*
X143121400Y-107511866D03*
D13*
X141983900Y-108649366D03*
X141333900Y-108649366D03*
X140683900Y-108649366D03*
X140033900Y-108649366D03*
X139383900Y-108649366D03*
D12*
X138246400Y-107511866D03*
X138246400Y-106861866D03*
X138246400Y-106211866D03*
X138246400Y-105561866D03*
X138246400Y-104911866D03*
D13*
X139383900Y-103774366D03*
X140033900Y-103774366D03*
X140683900Y-103774366D03*
X141333900Y-103774366D03*
X141983900Y-103774366D03*
%TD*%
D14*
%TO.C,R17*%
X144647900Y-106711866D03*
X144647900Y-105061866D03*
%TD*%
D15*
%TO.C,C30*%
X122147900Y-109196865D03*
X122147900Y-108236865D03*
%TD*%
D16*
%TO.C,C31*%
X140153900Y-102601866D03*
X139193900Y-102601866D03*
%TD*%
D17*
%TO.C,C23*%
X153313692Y-94602366D03*
X154273692Y-94602366D03*
%TD*%
D18*
%TO.C,R9*%
X160644292Y-100964866D03*
X160644292Y-101984866D03*
%TD*%
D19*
%TO.C,R7*%
X167662900Y-109267365D03*
X168682900Y-109267365D03*
%TD*%
D20*
%TO.C,C9*%
X162084719Y-119769651D03*
X162763541Y-119090829D03*
%TD*%
D21*
%TO.C,C4*%
X164377236Y-118638280D03*
X163698414Y-117959458D03*
%TD*%
D16*
%TO.C,C32*%
X140153900Y-101681866D03*
X139193900Y-101681866D03*
%TD*%
D22*
%TO.C,FB4*%
X141333902Y-102141866D03*
X142908902Y-102141866D03*
%TD*%
D23*
%TO.C,J3*%
X164853900Y-90846865D03*
X162853900Y-90846865D03*
X160853900Y-90846865D03*
X158853900Y-90846865D03*
D24*
X167253900Y-88596865D03*
X156453900Y-88596865D03*
%TD*%
D25*
%TO.C,C26*%
X152515293Y-96987366D03*
X154415293Y-96987366D03*
%TD*%
D26*
%TO.C,FB2*%
X168805292Y-97002365D03*
X168805292Y-95427365D03*
%TD*%
D27*
%TO.C,U10*%
X161496400Y-111326865D03*
X161496400Y-109426865D03*
X163371400Y-110376865D03*
%TD*%
D26*
%TO.C,FB3*%
X118997900Y-94565565D03*
X118997900Y-92990565D03*
%TD*%
D28*
%TO.C,C18*%
X153502999Y-117570604D03*
X154599015Y-116474588D03*
%TD*%
D16*
%TO.C,C29*%
X118906042Y-105796865D03*
X117946042Y-105796865D03*
%TD*%
%TO.C,C24*%
X157016892Y-94602366D03*
X156056892Y-94602366D03*
%TD*%
D10*
%TO.C,C8*%
X166075593Y-120902323D03*
X166754415Y-121581145D03*
%TD*%
D29*
%TO.C,J2*%
X162285292Y-100034865D03*
X162285292Y-100834865D03*
D30*
X162285292Y-101984865D03*
X162285292Y-102984865D03*
X162285292Y-103484865D03*
X162285292Y-104484865D03*
D29*
X162285292Y-105634865D03*
X162285292Y-106434865D03*
X162285292Y-106434865D03*
X162285292Y-105634865D03*
D30*
X162285292Y-104984865D03*
X162285292Y-103984865D03*
X162285292Y-102484865D03*
X162285292Y-101484865D03*
D29*
X162285292Y-100834865D03*
X162285292Y-100034865D03*
D31*
X167040292Y-98914865D03*
D32*
X162860292Y-98914865D03*
D31*
X167040292Y-107554865D03*
D32*
X162860292Y-107554865D03*
%TD*%
D33*
%TO.C,U5*%
X155756250Y-118727839D03*
X155190564Y-118162153D03*
D34*
X155641345Y-117357819D03*
X156100964Y-117817439D03*
X156560584Y-118277058D03*
X155305469Y-119532173D03*
X154845850Y-119072553D03*
X154386230Y-118612934D03*
%TD*%
D35*
%TO.C,R19*%
X156882900Y-103226865D03*
X155862900Y-103226865D03*
%TD*%
D36*
%TO.C,U7*%
X118322900Y-109196865D03*
X118322900Y-108246865D03*
X118322900Y-107296865D03*
X120597900Y-107296865D03*
X120597900Y-109196865D03*
%TD*%
D16*
%TO.C,C25*%
X151415292Y-95024866D03*
X150455292Y-95024866D03*
%TD*%
D15*
%TO.C,S1*%
X144407900Y-109076865D03*
X144407900Y-108391065D03*
X144407900Y-107705265D03*
%TD*%
D37*
%TO.C,Q1*%
X155862900Y-101814165D03*
X155862900Y-101164165D03*
X155862900Y-100514165D03*
X155862900Y-99864165D03*
D38*
X154542900Y-101465165D03*
X154542900Y-100213165D03*
X153682900Y-101465165D03*
X153682900Y-100213165D03*
D37*
X152752900Y-101814165D03*
X152752900Y-101164165D03*
X152752900Y-100514165D03*
X152752900Y-99864165D03*
%TD*%
D35*
%TO.C,R20*%
X156882900Y-104196865D03*
X155862900Y-104196865D03*
%TD*%
D39*
%TO.C,C19*%
X157443815Y-119319388D03*
X156347799Y-120415404D03*
%TD*%
D40*
%TO.C,R8*%
X160644292Y-106004864D03*
X160644292Y-104984864D03*
%TD*%
D41*
%TO.C,U8*%
X118906042Y-104447865D03*
X118906042Y-103647865D03*
X118906042Y-102847865D03*
X118906042Y-102047865D03*
X118906042Y-101247865D03*
X118906042Y-100447865D03*
D42*
X119906042Y-100447865D03*
D41*
X120906042Y-100447865D03*
X120906042Y-101247865D03*
X120906042Y-102047865D03*
X120906042Y-102847865D03*
X120906042Y-103647865D03*
X120906042Y-104447865D03*
D42*
X119906042Y-104447865D03*
%TD*%
M02*
