%TF.GenerationSoftware,KiCad,Pcbnew,8.0.3*%
%TF.CreationDate,2024-06-13T13:09:18+08:00*%
%TF.ProjectId,SB-main-board,53422d6d-6169-46e2-9d62-6f6172642e6b,A0*%
%TF.SameCoordinates,Original*%
%TF.FileFunction,Paste,Top*%
%TF.FilePolarity,Positive*%
%FSLAX46Y46*%
G04 Gerber Fmt 4.6, Leading zero omitted, Abs format (unit mm)*
G04 Created by KiCad (PCBNEW 8.0.3) date 2024-06-13 13:09:18*
%MOMM*%
%LPD*%
G01*
G04 APERTURE LIST*
G04 Aperture macros list*
%AMRoundRect*
0 Rectangle with rounded corners*
0 $1 Rounding radius*
0 $2 $3 $4 $5 $6 $7 $8 $9 X,Y pos of 4 corners*
0 Add a 4 corners polygon primitive as box body*
4,1,4,$2,$3,$4,$5,$6,$7,$8,$9,$2,$3,0*
0 Add four circle primitives for the rounded corners*
1,1,$1+$1,$2,$3*
1,1,$1+$1,$4,$5*
1,1,$1+$1,$6,$7*
1,1,$1+$1,$8,$9*
0 Add four rect primitives between the rounded corners*
20,1,$1+$1,$2,$3,$4,$5,0*
20,1,$1+$1,$4,$5,$6,$7,0*
20,1,$1+$1,$6,$7,$8,$9,0*
20,1,$1+$1,$8,$9,$2,$3,0*%
%AMRotRect*
0 Rectangle, with rotation*
0 The origin of the aperture is its center*
0 $1 length*
0 $2 width*
0 $3 Rotation angle, in degrees counterclockwise*
0 Add horizontal line*
21,1,$1,$2,0,0,$3*%
G04 Aperture macros list end*
%ADD10R,1.550000X1.000000*%
%ADD11RoundRect,0.200000X-0.200000X-0.600000X0.200000X-0.600000X0.200000X0.600000X-0.200000X0.600000X0*%
%ADD12RoundRect,0.250001X-0.799999X-1.249999X0.799999X-1.249999X0.799999X1.249999X-0.799999X1.249999X0*%
%ADD13RoundRect,0.140000X0.140000X0.170000X-0.140000X0.170000X-0.140000X-0.170000X0.140000X-0.170000X0*%
%ADD14RoundRect,0.135000X-0.135000X-0.185000X0.135000X-0.185000X0.135000X0.185000X-0.135000X0.185000X0*%
%ADD15RoundRect,0.225000X0.225000X0.250000X-0.225000X0.250000X-0.225000X-0.250000X0.225000X-0.250000X0*%
%ADD16RoundRect,0.135000X-0.035355X0.226274X-0.226274X0.035355X0.035355X-0.226274X0.226274X-0.035355X0*%
%ADD17RoundRect,0.250000X0.475000X-0.250000X0.475000X0.250000X-0.475000X0.250000X-0.475000X-0.250000X0*%
%ADD18RoundRect,0.135000X-0.185000X0.135000X-0.185000X-0.135000X0.185000X-0.135000X0.185000X0.135000X0*%
%ADD19RoundRect,0.140000X0.170000X-0.140000X0.170000X0.140000X-0.170000X0.140000X-0.170000X-0.140000X0*%
%ADD20RoundRect,0.063500X-0.197566X-0.287368X0.287368X0.197566X0.197566X0.287368X-0.287368X-0.197566X0*%
%ADD21RotRect,0.203200X1.600200X45.000000*%
%ADD22RoundRect,0.140000X0.219203X0.021213X0.021213X0.219203X-0.219203X-0.021213X-0.021213X-0.219203X0*%
%ADD23RoundRect,0.140000X-0.021213X0.219203X-0.219203X0.021213X0.021213X-0.219203X0.219203X-0.021213X0*%
%ADD24RoundRect,0.140000X-0.219203X-0.021213X-0.021213X-0.219203X0.219203X0.021213X0.021213X0.219203X0*%
%ADD25RoundRect,0.140000X0.021213X-0.219203X0.219203X-0.021213X-0.021213X0.219203X-0.219203X0.021213X0*%
%ADD26RoundRect,0.250000X-0.255000X-0.255000X0.255000X-0.255000X0.255000X0.255000X-0.255000X0.255000X0*%
%ADD27RoundRect,0.062500X-0.325000X-0.062500X0.325000X-0.062500X0.325000X0.062500X-0.325000X0.062500X0*%
%ADD28RoundRect,0.062500X-0.062500X-0.325000X0.062500X-0.325000X0.062500X0.325000X-0.062500X0.325000X0*%
%ADD29RoundRect,0.218750X0.218750X0.256250X-0.218750X0.256250X-0.218750X-0.256250X0.218750X-0.256250X0*%
%ADD30R,3.700000X1.100000*%
%ADD31RoundRect,0.261905X-1.338095X-0.838095X1.338095X-0.838095X1.338095X0.838095X-1.338095X0.838095X0*%
%ADD32RotRect,1.150000X1.000000X315.000000*%
%ADD33RoundRect,0.140000X-0.140000X-0.170000X0.140000X-0.170000X0.140000X0.170000X-0.140000X0.170000X0*%
%ADD34RoundRect,0.135000X0.226274X0.035355X0.035355X0.226274X-0.226274X-0.035355X-0.035355X-0.226274X0*%
%ADD35RoundRect,0.160000X0.245000X0.160000X-0.245000X0.160000X-0.245000X-0.160000X0.245000X-0.160000X0*%
%ADD36RoundRect,0.093750X0.093750X0.106250X-0.093750X0.106250X-0.093750X-0.106250X0.093750X-0.106250X0*%
%ADD37RoundRect,0.250000X-1.500000X-0.550000X1.500000X-0.550000X1.500000X0.550000X-1.500000X0.550000X0*%
%ADD38RoundRect,0.250000X-0.475000X0.250000X-0.475000X-0.250000X0.475000X-0.250000X0.475000X0.250000X0*%
%ADD39RoundRect,0.249999X0.000000X-0.558616X0.558616X0.000000X0.000000X0.558616X-0.558616X0.000000X0*%
%ADD40RoundRect,0.050000X-0.238649X-0.309359X0.309359X0.238649X0.238649X0.309359X-0.309359X-0.238649X0*%
%ADD41RoundRect,0.050000X0.238649X-0.309359X0.309359X-0.238649X-0.238649X0.309359X-0.309359X0.238649X0*%
%ADD42RoundRect,0.225000X-0.225000X-0.250000X0.225000X-0.250000X0.225000X0.250000X-0.225000X0.250000X0*%
%ADD43RoundRect,0.200000X0.200000X0.450000X-0.200000X0.450000X-0.200000X-0.450000X0.200000X-0.450000X0*%
%ADD44RoundRect,0.250001X0.799999X1.249999X-0.799999X1.249999X-0.799999X-1.249999X0.799999X-1.249999X0*%
%ADD45RoundRect,0.250000X0.262500X0.450000X-0.262500X0.450000X-0.262500X-0.450000X0.262500X-0.450000X0*%
%ADD46RoundRect,0.250000X-0.262500X-0.450000X0.262500X-0.450000X0.262500X0.450000X-0.262500X0.450000X0*%
%ADD47RoundRect,0.147500X0.172500X-0.147500X0.172500X0.147500X-0.172500X0.147500X-0.172500X-0.147500X0*%
%ADD48RoundRect,0.150000X0.512500X0.150000X-0.512500X0.150000X-0.512500X-0.150000X0.512500X-0.150000X0*%
%ADD49RoundRect,0.147500X0.147500X0.172500X-0.147500X0.172500X-0.147500X-0.172500X0.147500X-0.172500X0*%
%ADD50RoundRect,0.075000X0.225000X-0.075000X0.225000X0.075000X-0.225000X0.075000X-0.225000X-0.075000X0*%
%ADD51RoundRect,0.135000X0.035355X-0.226274X0.226274X-0.035355X-0.035355X0.226274X-0.226274X0.035355X0*%
%ADD52RoundRect,0.140000X-0.170000X0.140000X-0.170000X-0.140000X0.170000X-0.140000X0.170000X0.140000X0*%
%ADD53RoundRect,0.135000X0.135000X0.185000X-0.135000X0.185000X-0.135000X-0.185000X0.135000X-0.185000X0*%
%ADD54R,1.000000X0.600000*%
%ADD55R,0.350000X0.650000*%
G04 APERTURE END LIST*
D10*
%TO.C,SW1*%
X159062900Y-124664865D03*
X153812900Y-124664865D03*
X159062900Y-122964865D03*
X153812900Y-122964865D03*
%TD*%
D11*
%TO.C,J7*%
X122238900Y-113076865D03*
X123488900Y-113076865D03*
X124738900Y-113076865D03*
X125988900Y-113076865D03*
D12*
X119688900Y-115976865D03*
X128538900Y-115976865D03*
%TD*%
D13*
%TO.C,C37*%
X129073900Y-94496865D03*
X128113900Y-94496865D03*
%TD*%
D14*
%TO.C,R14*%
X150425292Y-93524866D03*
X151445292Y-93524866D03*
%TD*%
D15*
%TO.C,C36*%
X138826400Y-101536865D03*
X137276400Y-101536865D03*
%TD*%
D16*
%TO.C,R2*%
X154923731Y-113954035D03*
X154202483Y-114675283D03*
%TD*%
D11*
%TO.C,J4*%
X137987900Y-105071865D03*
X139237900Y-105071865D03*
X140487900Y-105071865D03*
X141737900Y-105071865D03*
D12*
X135437900Y-107971865D03*
X144287900Y-107971865D03*
%TD*%
D17*
%TO.C,C17*%
X135583900Y-101386865D03*
X135583900Y-99486865D03*
%TD*%
D18*
%TO.C,R6*%
X169502900Y-117294865D03*
X169502900Y-118314865D03*
%TD*%
D19*
%TO.C,C21*%
X158865292Y-95484866D03*
X158865292Y-94524866D03*
%TD*%
D20*
%TO.C,U2*%
X154963751Y-115393352D03*
X155317305Y-115746906D03*
X155670859Y-116100460D03*
X156024413Y-116454014D03*
X158002049Y-114476378D03*
X157648495Y-114122824D03*
X157294941Y-113769270D03*
X156941387Y-113415716D03*
D21*
X156482900Y-114934865D03*
%TD*%
D22*
%TO.C,C11*%
X157557935Y-119205267D03*
X156879113Y-118526445D03*
%TD*%
D23*
%TO.C,C3*%
X169075831Y-124072268D03*
X168397009Y-124751090D03*
%TD*%
D24*
%TO.C,C2*%
X165158927Y-123652935D03*
X165837749Y-124331757D03*
%TD*%
D25*
%TO.C,C10*%
X166641278Y-115213092D03*
X167320100Y-114534270D03*
%TD*%
%TO.C,C7*%
X164095694Y-112667508D03*
X164774516Y-111988686D03*
%TD*%
D26*
%TO.C,U6*%
X153915292Y-93274866D03*
X153915292Y-94524866D03*
X153915292Y-95774866D03*
X155165292Y-93274866D03*
X155165292Y-94524866D03*
X155165292Y-95774866D03*
X156415292Y-93274866D03*
X156415292Y-94524866D03*
X156415292Y-95774866D03*
D27*
X152702792Y-93024866D03*
X152702792Y-93524866D03*
X152702792Y-94024866D03*
X152702792Y-94524866D03*
X152702792Y-95024866D03*
X152702792Y-95524866D03*
X152702792Y-96024866D03*
D28*
X153665292Y-96987366D03*
X154165292Y-96987366D03*
X154665292Y-96987366D03*
X155165292Y-96987366D03*
X155665292Y-96987366D03*
X156165292Y-96987366D03*
X156665292Y-96987366D03*
D27*
X157627792Y-96024866D03*
X157627792Y-95524866D03*
X157627792Y-95024866D03*
X157627792Y-94524866D03*
X157627792Y-94024866D03*
X157627792Y-93524866D03*
X157627792Y-93024866D03*
D28*
X156665292Y-92062366D03*
X156165292Y-92062366D03*
X155665292Y-92062366D03*
X155165292Y-92062366D03*
X154665292Y-92062366D03*
X154165292Y-92062366D03*
X153665292Y-92062366D03*
%TD*%
D14*
%TO.C,R3*%
X152912900Y-120984865D03*
X153932900Y-120984865D03*
%TD*%
D29*
%TO.C,FB1*%
X159382792Y-103384865D03*
X157807792Y-103384865D03*
%TD*%
D22*
%TO.C,C6*%
X160316319Y-113403380D03*
X159637497Y-112724558D03*
%TD*%
D30*
%TO.C,L1*%
X131734399Y-99535366D03*
X131734399Y-102535366D03*
%TD*%
D31*
%TO.C,TP1*%
X155192300Y-105919165D03*
%TD*%
D32*
%TO.C,Y1*%
X166073327Y-122738535D03*
X167310764Y-123975972D03*
X168300713Y-122986023D03*
X167063276Y-121748586D03*
%TD*%
D33*
%TO.C,C34*%
X161053900Y-110206865D03*
X162013900Y-110206865D03*
%TD*%
D34*
%TO.C,R5*%
X169215113Y-122071623D03*
X168493865Y-121350375D03*
%TD*%
D13*
%TO.C,C33*%
X140342900Y-103271865D03*
X139382900Y-103271865D03*
%TD*%
D35*
%TO.C,U11*%
X138051400Y-99921865D03*
X138051400Y-99121865D03*
D36*
X138938900Y-100171865D03*
X138938900Y-99521865D03*
X138938900Y-98871865D03*
X137163900Y-98871865D03*
X137163900Y-99521865D03*
X137163900Y-100171865D03*
%TD*%
D19*
%TO.C,C20*%
X151565292Y-96834865D03*
X151565292Y-95874865D03*
%TD*%
D37*
%TO.C,C22*%
X162472900Y-90834865D03*
X167872900Y-90834865D03*
%TD*%
D22*
%TO.C,C13*%
X161002119Y-112717580D03*
X160323297Y-112038758D03*
%TD*%
D38*
%TO.C,C16*%
X134813900Y-96066864D03*
X134813900Y-97966864D03*
%TD*%
D14*
%TO.C,R18*%
X146968900Y-101846865D03*
X147988900Y-101846865D03*
%TD*%
D39*
%TO.C,U1*%
X161533921Y-117774865D03*
X162665292Y-118906236D03*
X162665292Y-116643494D03*
X163796663Y-117774865D03*
D40*
X158396135Y-118367067D03*
X158678978Y-118649910D03*
X158961820Y-118932752D03*
X159244663Y-119215595D03*
X159527506Y-119498438D03*
X159810348Y-119781280D03*
X160093191Y-120064123D03*
X160376034Y-120346966D03*
X160658877Y-120629809D03*
X160941719Y-120912651D03*
X161224562Y-121195494D03*
X161507405Y-121478337D03*
X161790247Y-121761179D03*
X162073090Y-122044022D03*
D41*
X163257494Y-122044022D03*
X163540337Y-121761179D03*
X163823179Y-121478337D03*
X164106022Y-121195494D03*
X164388865Y-120912651D03*
X164671707Y-120629809D03*
X164954550Y-120346966D03*
X165237393Y-120064123D03*
X165520236Y-119781280D03*
X165803078Y-119498438D03*
X166085921Y-119215595D03*
X166368764Y-118932752D03*
X166651606Y-118649910D03*
X166934449Y-118367067D03*
D40*
X166934449Y-117182663D03*
X166651606Y-116899820D03*
X166368764Y-116616978D03*
X166085921Y-116334135D03*
X165803078Y-116051292D03*
X165520236Y-115768450D03*
X165237393Y-115485607D03*
X164954550Y-115202764D03*
X164671707Y-114919921D03*
X164388865Y-114637079D03*
X164106022Y-114354236D03*
X163823179Y-114071393D03*
X163540337Y-113788551D03*
X163257494Y-113505708D03*
D41*
X162073090Y-113505708D03*
X161790247Y-113788551D03*
X161507405Y-114071393D03*
X161224562Y-114354236D03*
X160941719Y-114637079D03*
X160658877Y-114919921D03*
X160376034Y-115202764D03*
X160093191Y-115485607D03*
X159810348Y-115768450D03*
X159527506Y-116051292D03*
X159244663Y-116334135D03*
X158961820Y-116616978D03*
X158678978Y-116899820D03*
X158396135Y-117182663D03*
%TD*%
D18*
%TO.C,R12*%
X128033900Y-95386865D03*
X128033900Y-96406865D03*
%TD*%
D42*
%TO.C,C35*%
X137276400Y-97506865D03*
X138826400Y-97506865D03*
%TD*%
D43*
%TO.C,J8*%
X146196900Y-91530865D03*
X144946900Y-91530865D03*
X143696900Y-91530865D03*
X142446900Y-91530865D03*
D44*
X148746900Y-88780865D03*
X139896900Y-88780865D03*
%TD*%
D22*
%TO.C,C12*%
X159593311Y-114086276D03*
X158914489Y-113407454D03*
%TD*%
D45*
%TO.C,R16*%
X153615292Y-90424865D03*
X151790292Y-90424865D03*
%TD*%
D31*
%TO.C,TP2*%
X152647900Y-100839165D03*
%TD*%
D19*
%TO.C,C27*%
X156715292Y-89004865D03*
X156715292Y-88044865D03*
%TD*%
D46*
%TO.C,R15*%
X156715292Y-90424865D03*
X158540292Y-90424865D03*
%TD*%
D13*
%TO.C,C14*%
X168652900Y-113404865D03*
X167692900Y-113404865D03*
%TD*%
D19*
%TO.C,C28*%
X153615292Y-89004865D03*
X153615292Y-88044865D03*
%TD*%
D47*
%TO.C,D1*%
X169502900Y-120220265D03*
X169502900Y-119250265D03*
%TD*%
D18*
%TO.C,R13*%
X129073900Y-95386865D03*
X129073900Y-96406865D03*
%TD*%
D48*
%TO.C,U4*%
X132871899Y-97966864D03*
X132871899Y-97016864D03*
X132871899Y-96066864D03*
X130596899Y-96066864D03*
X130596899Y-97016864D03*
X130596899Y-97966864D03*
%TD*%
D49*
%TO.C,D2*%
X147938900Y-100839165D03*
X146968900Y-100839165D03*
%TD*%
D50*
%TO.C,D3*%
X160465292Y-106374865D03*
X160465292Y-105674865D03*
%TD*%
D51*
%TO.C,R4*%
X165276996Y-121673503D03*
X165998244Y-120952255D03*
%TD*%
D25*
%TO.C,C1*%
X155544496Y-113333270D03*
X156223318Y-112654448D03*
%TD*%
D52*
%TO.C,C15*%
X129173900Y-97296865D03*
X129173900Y-98256865D03*
%TD*%
D18*
%TO.C,R10*%
X165915292Y-109264864D03*
X165915292Y-110284864D03*
%TD*%
D53*
%TO.C,R11*%
X132871899Y-94836865D03*
X131851899Y-94836865D03*
%TD*%
D16*
%TO.C,R1*%
X167928212Y-119049704D03*
X167206964Y-119770952D03*
%TD*%
D54*
%TO.C,U3*%
X167572900Y-111202365D03*
X168772900Y-111202365D03*
X167572900Y-110427365D03*
X168772900Y-110427365D03*
D55*
X167197900Y-112364865D03*
X167847900Y-112364865D03*
X168497900Y-112364865D03*
X169147900Y-112364865D03*
X169147900Y-109264865D03*
X168497900Y-109264865D03*
X167847900Y-109264865D03*
X167197900Y-109264865D03*
%TD*%
D43*
%TO.C,J6*%
X133822900Y-91530865D03*
X132572900Y-91530865D03*
X131322900Y-91530865D03*
X130072900Y-91530865D03*
D44*
X136372900Y-88780865D03*
X127522900Y-88780865D03*
%TD*%
M02*
