%TF.GenerationSoftware,KiCad,Pcbnew,8.0.3*%
%TF.CreationDate,2024-06-25T22:30:56+08:00*%
%TF.ProjectId,SB-main-board,53422d6d-6169-46e2-9d62-6f6172642e6b,A0*%
%TF.SameCoordinates,Original*%
%TF.FileFunction,Copper,L3,Inr*%
%TF.FilePolarity,Positive*%
%FSLAX46Y46*%
G04 Gerber Fmt 4.6, Leading zero omitted, Abs format (unit mm)*
G04 Created by KiCad (PCBNEW 8.0.3) date 2024-06-25 22:30:56*
%MOMM*%
%LPD*%
G01*
G04 APERTURE LIST*
G04 Aperture macros list*
%AMRoundRect*
0 Rectangle with rounded corners*
0 $1 Rounding radius*
0 $2 $3 $4 $5 $6 $7 $8 $9 X,Y pos of 4 corners*
0 Add a 4 corners polygon primitive as box body*
4,1,4,$2,$3,$4,$5,$6,$7,$8,$9,$2,$3,0*
0 Add four circle primitives for the rounded corners*
1,1,$1+$1,$2,$3*
1,1,$1+$1,$4,$5*
1,1,$1+$1,$6,$7*
1,1,$1+$1,$8,$9*
0 Add four rect primitives between the rounded corners*
20,1,$1+$1,$2,$3,$4,$5,0*
20,1,$1+$1,$4,$5,$6,$7,0*
20,1,$1+$1,$6,$7,$8,$9,0*
20,1,$1+$1,$8,$9,$2,$3,0*%
G04 Aperture macros list end*
%TA.AperFunction,ComponentPad*%
%ADD10C,2.800000*%
%TD*%
%TA.AperFunction,ComponentPad*%
%ADD11C,1.524000*%
%TD*%
%TA.AperFunction,ComponentPad*%
%ADD12RoundRect,0.250001X0.499999X0.499999X-0.499999X0.499999X-0.499999X-0.499999X0.499999X-0.499999X0*%
%TD*%
%TA.AperFunction,ComponentPad*%
%ADD13C,1.500000*%
%TD*%
%TA.AperFunction,ComponentPad*%
%ADD14C,5.500000*%
%TD*%
%TA.AperFunction,ComponentPad*%
%ADD15R,1.350000X1.350000*%
%TD*%
%TA.AperFunction,ComponentPad*%
%ADD16O,1.350000X1.350000*%
%TD*%
%TA.AperFunction,ComponentPad*%
%ADD17O,1.800000X1.000000*%
%TD*%
%TA.AperFunction,ComponentPad*%
%ADD18O,2.100000X1.000000*%
%TD*%
%TA.AperFunction,ViaPad*%
%ADD19C,0.500000*%
%TD*%
%TA.AperFunction,ViaPad*%
%ADD20C,1.000000*%
%TD*%
%TA.AperFunction,Conductor*%
%ADD21C,0.177800*%
%TD*%
%TA.AperFunction,Conductor*%
%ADD22C,1.016000*%
%TD*%
%TA.AperFunction,Conductor*%
%ADD23C,0.254000*%
%TD*%
%TA.AperFunction,Conductor*%
%ADD24C,0.127000*%
%TD*%
G04 APERTURE END LIST*
D10*
%TO.N,+24V*%
%TO.C,J1*%
X113482830Y-87877964D03*
%TO.N,PGND*%
X113482830Y-82797964D03*
D11*
%TO.N,/CAN_H*%
X114712830Y-78947964D03*
%TO.N,/CAN_L*%
X116712830Y-78947964D03*
%TD*%
D12*
%TO.N,+24V*%
%TO.C,J5*%
X104905330Y-85797964D03*
D13*
%TO.N,Net-(D2-K)*%
X104905330Y-82797964D03*
%TD*%
D14*
%TO.N,PGND*%
%TO.C,H2*%
X86086330Y-92876664D03*
%TD*%
%TO.N,PGND*%
%TO.C,H1*%
X98070330Y-80105664D03*
%TD*%
D15*
%TO.N,/FAN0_DET*%
%TO.C,J9*%
X80156472Y-88406664D03*
D16*
%TO.N,/NEO*%
X78156472Y-88406664D03*
%TO.N,/FAN0_PWM*%
X80156472Y-86406664D03*
%TO.N,/FAN1_PWM*%
X78156472Y-86406664D03*
%TO.N,/ADC0*%
X80156472Y-84406664D03*
%TO.N,/FAN1_DET*%
X78156472Y-84406664D03*
%TO.N,/ADC1*%
X80156472Y-82406664D03*
%TO.N,+3V3B*%
X78156472Y-82406664D03*
%TO.N,GND*%
X80156472Y-80406664D03*
%TO.N,PGND*%
X78156472Y-80406664D03*
%TO.N,+24V*%
X80156472Y-78406664D03*
%TO.N,PGND*%
X78156472Y-78406664D03*
%TD*%
D17*
%TO.N,GND*%
%TO.C,J2*%
X122262722Y-80873664D03*
D18*
X118082722Y-80873664D03*
D17*
X122262722Y-89513664D03*
D18*
X118082722Y-89513664D03*
%TD*%
D19*
%TO.N,GND*%
X95657330Y-74924064D03*
X108277722Y-103843664D03*
X109066922Y-77804465D03*
X124000330Y-97445664D03*
X100356330Y-84245864D03*
X111708522Y-75162865D03*
X117887722Y-98133664D03*
X81812330Y-93669264D03*
X116942722Y-81993664D03*
X91600330Y-85385664D03*
X124437722Y-88083664D03*
X111506930Y-104388064D03*
X114605223Y-84327664D03*
X73870330Y-93905664D03*
X75120330Y-85005664D03*
X116197722Y-106013664D03*
X113551330Y-94080664D03*
X97270330Y-89125664D03*
X92826330Y-90155664D03*
X79136872Y-83026664D03*
X117887722Y-99733664D03*
X98908530Y-85820664D03*
X81730330Y-79675664D03*
X77028672Y-87243064D03*
X110313130Y-103524464D03*
X93853930Y-73704864D03*
X100291929Y-89653209D03*
X111860530Y-97809464D03*
X112167330Y-93720064D03*
X80580330Y-91805664D03*
X115420330Y-80955664D03*
X114296330Y-89705664D03*
X116942722Y-88393664D03*
X111727722Y-106323664D03*
X114586330Y-86315664D03*
X116636322Y-90005664D03*
X94048830Y-74905664D03*
X99020330Y-83405664D03*
X122970330Y-95995664D03*
X81750330Y-82345664D03*
X119487722Y-99733664D03*
X114501330Y-95030664D03*
X81720330Y-91615664D03*
X109066922Y-75162865D03*
X96420330Y-88125664D03*
X96070330Y-82955664D03*
X124437722Y-83683664D03*
X118669730Y-91332464D03*
X124767722Y-98193664D03*
X79348530Y-90748264D03*
X105670330Y-73880664D03*
X111708522Y-77804465D03*
X111608530Y-101238464D03*
X79297730Y-92653264D03*
X124697722Y-96823664D03*
X77054072Y-92196064D03*
X110084530Y-99409664D03*
X93066530Y-84957064D03*
X124437722Y-80483664D03*
X104270330Y-74905664D03*
X118237930Y-106521664D03*
X114610330Y-91105664D03*
X98146530Y-90085664D03*
%TO.N,+1V1*%
X116128421Y-98257206D03*
X119929866Y-100927279D03*
D20*
%TO.N,+24V*%
X84170330Y-72739664D03*
X115076829Y-75714166D03*
X92116330Y-77385664D03*
D19*
X108536122Y-74021165D03*
X112239322Y-74021165D03*
%TO.N,PGND*%
X82990330Y-91125664D03*
X84862330Y-78530864D03*
X110570330Y-82147964D03*
X111669530Y-82472964D03*
X110570330Y-82797964D03*
X119076330Y-74605664D03*
X83795530Y-79699264D03*
X91618730Y-79572264D03*
X89053330Y-80359664D03*
X94869930Y-68269264D03*
X108837722Y-69405664D03*
X107036530Y-71012464D03*
X79820330Y-69055664D03*
X109946330Y-85985664D03*
X84200330Y-83495664D03*
X82728730Y-82493264D03*
D20*
X82745330Y-70739664D03*
D19*
X112936330Y-90265664D03*
X105486330Y-84455664D03*
X108120330Y-81055664D03*
X111669530Y-81822964D03*
X109950330Y-91855664D03*
X112976330Y-70003664D03*
X89676330Y-92605664D03*
X73220330Y-75155664D03*
X105614130Y-80385064D03*
X87630930Y-88081264D03*
X117076330Y-71205664D03*
X89760330Y-88045664D03*
X109244330Y-90519664D03*
X87199130Y-98647664D03*
X110020330Y-93725664D03*
X115076330Y-71205664D03*
X115692929Y-76485182D03*
X89720330Y-85665664D03*
X112980130Y-71012464D03*
X124511730Y-75482864D03*
X79071130Y-98088864D03*
X123521130Y-68650264D03*
X115076330Y-74305664D03*
X111669530Y-83122964D03*
X119076330Y-71205664D03*
%TO.N,+5V*%
X123875330Y-95871664D03*
X107907196Y-99845664D03*
X113726653Y-91041987D03*
%TO.N,/USB_D+*%
X117858388Y-93715327D03*
X115681465Y-96113194D03*
X118270330Y-84942225D03*
X118269197Y-85943664D03*
%TO.N,/USB_D-*%
X118337666Y-94194605D03*
X116873436Y-96877636D03*
%TO.N,Net-(D3-A)*%
X116942722Y-82793664D03*
X116942722Y-87583664D03*
%TO.N,/FAN0_PWM*%
X113576330Y-103656962D03*
X101760030Y-89556372D03*
X85457604Y-87981664D03*
X107841430Y-89841099D03*
%TO.N,/FAN0_DET*%
X115876330Y-104855664D03*
X106976330Y-89805664D03*
X84376330Y-88405664D03*
X102880330Y-90385664D03*
%TO.N,Net-(J4-Pin_2)*%
X95906330Y-90147267D03*
%TO.N,Net-(J4-Pin_3)*%
X96721997Y-90146980D03*
%TO.N,Net-(J4-Pin_1)*%
X95090616Y-90146810D03*
%TO.N,/FAN1_PWM*%
X107426330Y-90355664D03*
X85426330Y-88755664D03*
X102317032Y-90145395D03*
X114526330Y-104072062D03*
%TO.N,/FAN1_DET*%
X108256530Y-90327638D03*
X115076330Y-103241862D03*
X86126330Y-87981664D03*
X101563217Y-88955819D03*
%TO.N,/FAN2_PWM*%
X112927330Y-99257264D03*
X86545330Y-74505664D03*
%TO.N,/FAN2_DET*%
X87795330Y-74505664D03*
X114817434Y-100258368D03*
%TO.N,/NEO*%
X115543530Y-100984464D03*
%TO.N,/LDC_SCL*%
X79961330Y-93925464D03*
X108865330Y-101848064D03*
%TO.N,/LDC_SDA*%
X78711330Y-93925464D03*
X109590651Y-101986343D03*
%TO.N,/ADC0*%
X119116330Y-97725664D03*
X111510072Y-89789737D03*
%TO.N,/ADC1*%
X118541052Y-97100435D03*
X112055330Y-90056529D03*
%TO.N,/TMC_EN*%
X107186502Y-75482864D03*
X123520457Y-98279369D03*
%TO.N,/HEAT*%
X121606504Y-99775490D03*
%TO.N,/SPI0_CLK*%
X118177554Y-102751031D03*
X75128472Y-87153664D03*
X88510330Y-87356564D03*
%TO.N,/TMC_DIAG*%
X113125969Y-79313122D03*
X120220330Y-95955664D03*
%TO.N,/ADXL_INT1*%
X76977872Y-83737864D03*
X118592654Y-102257074D03*
%TO.N,/TMC_STEP*%
X113387721Y-77483665D03*
X121117922Y-96093664D03*
%TO.N,/ADXL_INT2*%
X77028672Y-82948764D03*
X119007754Y-101792797D03*
%TO.N,/SPI0_CS1*%
X73545330Y-91655664D03*
X75128472Y-83406664D03*
X113844223Y-101797264D03*
%TO.N,/SPI0_MOSI*%
X93929728Y-89470665D03*
X75820330Y-89940564D03*
X117626330Y-104305664D03*
%TO.N,/TEMP_A*%
X117736330Y-91385664D03*
%TO.N,/SPI0_MISO*%
X91910330Y-87585164D03*
X117748706Y-102319358D03*
%TO.N,/ENDSTOP0*%
X98919330Y-74505664D03*
X120726330Y-99845664D03*
X114339060Y-92812933D03*
%TO.N,/TMC_DIR*%
X113437722Y-75983665D03*
X122939153Y-97716841D03*
%TO.N,/TMC_UART*%
X120702822Y-95513523D03*
X112635221Y-78946165D03*
%TO.N,/SPI0_CS2*%
X108916330Y-89775664D03*
X101726330Y-88205664D03*
X116576330Y-101205664D03*
X90541809Y-88024185D03*
%TO.N,/CAN_H*%
X123070330Y-90676164D03*
%TO.N,/CAN_L*%
X123720330Y-90676164D03*
%TO.N,Net-(U6-CPO)*%
X105677722Y-76483665D03*
%TO.N,Net-(U6-CPI)*%
X107087722Y-76983664D03*
%TO.N,Net-(U6-5VOUT)*%
X108475221Y-78946165D03*
%TO.N,Net-(D2-K)*%
X109526330Y-83432964D03*
X108891330Y-82797964D03*
X108256330Y-82162964D03*
X109526330Y-82162964D03*
X108256330Y-83432964D03*
%TO.N,Net-(J3-Pin_1)*%
X120076330Y-69805664D03*
%TO.N,Net-(J3-Pin_4)*%
X114076330Y-70005664D03*
%TO.N,Net-(J3-Pin_2)*%
X118076330Y-69805664D03*
%TO.N,Net-(J3-Pin_3)*%
X116076330Y-69805664D03*
%TO.N,/FS*%
X100169330Y-74505664D03*
X118554783Y-96457950D03*
%TO.N,+3V3A*%
X113174245Y-100770187D03*
X121509828Y-97525770D03*
X124840330Y-91223664D03*
X113605408Y-94885664D03*
X119685730Y-101594064D03*
X116718830Y-92777664D03*
X116159915Y-97440171D03*
X116678132Y-102357466D03*
X118972464Y-94971968D03*
X116520138Y-94971968D03*
%TO.N,+3V3B*%
X95936330Y-84100665D03*
X73370330Y-82406664D03*
X74128472Y-87153664D03*
X75820330Y-91785664D03*
%TO.N,Net-(J4-Pin_4)*%
X97882932Y-89470665D03*
%TD*%
D21*
%TO.N,+1V1*%
X116128421Y-98257206D02*
X116766879Y-98895664D01*
X117898251Y-98895664D02*
X119929866Y-100927279D01*
X116766879Y-98895664D02*
X117898251Y-98895664D01*
D22*
%TO.N,+24V*%
X81930330Y-72739664D02*
X80156472Y-74513522D01*
X101870330Y-76195399D02*
X103310330Y-77635399D01*
X113383828Y-74021165D02*
X106924564Y-74021165D01*
X115076829Y-75714166D02*
X113383828Y-74021165D01*
X106924564Y-74021165D02*
X103310330Y-77635399D01*
X103310330Y-77635399D02*
X103310330Y-84202964D01*
X84170330Y-72739664D02*
X81930330Y-72739664D01*
X100904330Y-72739664D02*
X101870330Y-73705664D01*
X80156472Y-74513522D02*
X80156472Y-78406664D01*
X103310330Y-84202964D02*
X104905330Y-85797964D01*
X92116330Y-77385664D02*
X92116330Y-72785664D01*
X84170330Y-72739664D02*
X100904330Y-72739664D01*
X101870330Y-73705664D02*
X101870330Y-76195399D01*
D23*
%TO.N,+5V*%
X123875330Y-92990664D02*
X122960330Y-92075664D01*
X123875330Y-95871664D02*
X123875330Y-92990664D01*
X114760330Y-92075664D02*
X113726653Y-91041987D01*
X122960330Y-92075664D02*
X114760330Y-92075664D01*
D24*
%TO.N,/USB_D+*%
X117348930Y-94488536D02*
X117858388Y-93979078D01*
X117348930Y-95486998D02*
X117348930Y-94488536D01*
X117858388Y-93979078D02*
X117858388Y-93715327D01*
X115681465Y-96113194D02*
X116722734Y-96113194D01*
X116722734Y-96113194D02*
X117348930Y-95486998D01*
%TO.N,/USB_D-*%
X116873436Y-96393546D02*
X117653730Y-95613252D01*
X116873436Y-96877636D02*
X116873436Y-96393546D01*
X117653730Y-94614790D02*
X118073915Y-94194605D01*
X117653730Y-95613252D02*
X117653730Y-94614790D01*
X118073915Y-94194605D02*
X118337666Y-94194605D01*
D23*
%TO.N,Net-(D3-A)*%
X118147722Y-87583664D02*
X119037722Y-86693664D01*
X119037722Y-86693664D02*
X119037722Y-83683664D01*
X116942722Y-82793664D02*
X118147722Y-82793664D01*
X116942722Y-87583664D02*
X118147722Y-87583664D01*
X118147722Y-82793664D02*
X119037722Y-83683664D01*
D24*
%TO.N,/FAN0_PWM*%
X86217604Y-88741664D02*
X85457604Y-87981664D01*
X101760030Y-90178544D02*
X100910610Y-91027964D01*
X101760030Y-89556372D02*
X101760030Y-90178544D01*
X109340730Y-94199705D02*
X109340730Y-100000792D01*
X107841430Y-89841099D02*
X107841430Y-90527605D01*
X100910610Y-91027964D02*
X92254001Y-91027964D01*
X107333530Y-92192504D02*
X109340730Y-94199705D01*
X109340730Y-100000792D02*
X112996900Y-103656962D01*
X107841430Y-90527605D02*
X107333530Y-91035505D01*
X112996900Y-103656962D02*
X113576330Y-103656962D01*
X92254001Y-91027964D02*
X89967700Y-88741664D01*
X107333530Y-91035505D02*
X107333530Y-92192504D01*
X89967700Y-88741664D02*
X86217604Y-88741664D01*
%TO.N,/FAN0_DET*%
X106876330Y-90249664D02*
X106876330Y-92381884D01*
X106976330Y-89805664D02*
X106976330Y-90149664D01*
X102880330Y-90385664D02*
X102705499Y-90560495D01*
X108883530Y-100190172D02*
X113549022Y-104855664D01*
X101099990Y-91485164D02*
X92064623Y-91485164D01*
X106876330Y-92381884D02*
X108883530Y-94389084D01*
X92064623Y-91485164D02*
X89778320Y-89198864D01*
X113549022Y-104855664D02*
X115876330Y-104855664D01*
X106976330Y-90149664D02*
X106876330Y-90249664D01*
X102705499Y-90560495D02*
X102024659Y-90560495D01*
X108883530Y-94389084D02*
X108883530Y-100190172D01*
X102024659Y-90560495D02*
X101099990Y-91485164D01*
X85169530Y-89198864D02*
X84376330Y-88405664D01*
X89778320Y-89198864D02*
X85169530Y-89198864D01*
%TO.N,/FAN1_PWM*%
X107104930Y-90677064D02*
X107426330Y-90355664D01*
X102317032Y-90145395D02*
X102209558Y-90252869D01*
X113088710Y-104072062D02*
X109112130Y-100095482D01*
X92159312Y-91256564D02*
X89873010Y-88970264D01*
X114526330Y-104072062D02*
X113088710Y-104072062D01*
X109112130Y-94294394D02*
X107104930Y-92287194D01*
X107104930Y-92287194D02*
X107104930Y-90677064D01*
X102209558Y-90252869D02*
X102008995Y-90252869D01*
X102008995Y-90252869D02*
X101005300Y-91256564D01*
X89873010Y-88970264D02*
X85640930Y-88970264D01*
X109112130Y-100095482D02*
X109112130Y-94294394D01*
X85640930Y-88970264D02*
X85426330Y-88755664D01*
X101005300Y-91256564D02*
X92159312Y-91256564D01*
%TO.N,/FAN1_DET*%
X112905090Y-103241862D02*
X115076330Y-103241862D01*
X107562130Y-92097815D02*
X109569330Y-94105016D01*
X90062390Y-88513064D02*
X92348690Y-90799364D01*
X101344930Y-90270354D02*
X101344930Y-89174106D01*
X86657730Y-88513064D02*
X90062390Y-88513064D01*
X101344930Y-89174106D02*
X101563217Y-88955819D01*
X109569330Y-99906102D02*
X112905090Y-103241862D01*
X108256530Y-90327638D02*
X108256530Y-90435795D01*
X107562130Y-91130195D02*
X107562130Y-92097815D01*
X108256530Y-90435795D02*
X107562130Y-91130195D01*
X92348690Y-90799364D02*
X100815920Y-90799364D01*
X100815920Y-90799364D02*
X101344930Y-90270354D01*
X86126330Y-87981664D02*
X86657730Y-88513064D01*
X109569330Y-94105016D02*
X109569330Y-99906102D01*
%TO.N,/LDC_SCL*%
X105446930Y-91986264D02*
X91919140Y-91986264D01*
X91919140Y-91986264D02*
X89588940Y-89656064D01*
X108865330Y-101848064D02*
X108426330Y-101409064D01*
X80974130Y-89656064D02*
X79961330Y-90668864D01*
X79961330Y-90668864D02*
X79961330Y-93925464D01*
X108426330Y-94965664D02*
X105446930Y-91986264D01*
X89588940Y-89656064D02*
X80974130Y-89656064D01*
X108426330Y-101409064D02*
X108426330Y-94965664D01*
%TO.N,/LDC_SDA*%
X79627930Y-89427464D02*
X78711330Y-90344064D01*
X105541619Y-91757664D02*
X92013830Y-91757664D01*
X108654930Y-101050622D02*
X108654930Y-94870974D01*
X109590651Y-101986343D02*
X108654930Y-101050622D01*
X78711330Y-90344064D02*
X78711330Y-93925464D01*
X92013830Y-91757664D02*
X89683630Y-89427464D01*
X89683630Y-89427464D02*
X79627930Y-89427464D01*
X108654930Y-94870974D02*
X105541619Y-91757664D01*
%TO.N,/ADC0*%
X111510072Y-89789737D02*
X111510072Y-89525986D01*
X83281040Y-85058664D02*
X80808472Y-85058664D01*
X80808472Y-85058664D02*
X80156472Y-84406664D01*
X84706640Y-86484264D02*
X83281040Y-85058664D01*
X109186950Y-87202864D02*
X103986950Y-87202864D01*
X111510072Y-89525986D02*
X109186950Y-87202864D01*
X103268351Y-86484264D02*
X84706640Y-86484264D01*
X103986950Y-87202864D02*
X103268351Y-86484264D01*
%TO.N,/ADC1*%
X112055330Y-90056529D02*
X112055330Y-89747954D01*
X104081640Y-86974264D02*
X103363040Y-86255664D01*
X109281640Y-86974264D02*
X104081640Y-86974264D01*
X103363040Y-86255664D02*
X84801330Y-86255664D01*
X112055330Y-89747954D02*
X109281640Y-86974264D01*
X84801330Y-86255664D02*
X80952330Y-82406664D01*
X80952330Y-82406664D02*
X80156472Y-82406664D01*
%TO.N,/SPI0_CLK*%
X88400530Y-87246764D02*
X77619413Y-87246764D01*
X118177554Y-101539958D02*
X118177554Y-102751031D01*
X111169130Y-94531534D02*
X118177554Y-101539958D01*
X110637772Y-90151056D02*
X111169130Y-90682415D01*
X88696830Y-87170064D02*
X102984282Y-87170064D01*
X111169130Y-90682415D02*
X111169130Y-94531534D01*
X110637772Y-89623556D02*
X110637772Y-90151056D01*
X77200613Y-86827964D02*
X75454172Y-86827964D01*
X88510330Y-87356564D02*
X88400530Y-87246764D01*
X75454172Y-86827964D02*
X75128472Y-87153664D01*
X103702882Y-87888664D02*
X108902880Y-87888664D01*
X77619413Y-87246764D02*
X77200613Y-86827964D01*
X88510330Y-87356564D02*
X88696830Y-87170064D01*
X108902880Y-87888664D02*
X110637772Y-89623556D01*
X102984282Y-87170064D02*
X103702882Y-87888664D01*
%TO.N,/ADXL_INT1*%
X76977872Y-84982464D02*
X76977872Y-83737864D01*
X111397730Y-90587726D02*
X110866372Y-90056367D01*
X108997570Y-87660064D02*
X103797571Y-87660064D01*
X110866372Y-89528866D02*
X108997570Y-87660064D01*
X77511272Y-85515864D02*
X76977872Y-84982464D01*
X103797571Y-87660064D02*
X103078971Y-86941464D01*
X111397730Y-94436845D02*
X111397730Y-90587726D01*
X84517261Y-86941464D02*
X83091660Y-85515864D01*
X110866372Y-90056367D02*
X110866372Y-89528866D01*
X118592654Y-101631770D02*
X111397730Y-94436845D01*
X118592654Y-102257074D02*
X118592654Y-101631770D01*
X83091660Y-85515864D02*
X77511272Y-85515864D01*
X103078971Y-86941464D02*
X84517261Y-86941464D01*
%TO.N,/ADXL_INT2*%
X109092260Y-87431464D02*
X111094972Y-89434176D01*
X103892261Y-87431464D02*
X109092260Y-87431464D01*
X79136872Y-83864864D02*
X79136872Y-84804664D01*
X84611950Y-86712864D02*
X103173661Y-86712864D01*
X77521672Y-83441764D02*
X78713772Y-83441764D01*
X79619472Y-85287264D02*
X83186350Y-85287264D01*
X111626330Y-94342156D02*
X119007754Y-101723580D01*
X78713772Y-83441764D02*
X79136872Y-83864864D01*
X83186350Y-85287264D02*
X84611950Y-86712864D01*
X103173661Y-86712864D02*
X103892261Y-87431464D01*
X79136872Y-84804664D02*
X79619472Y-85287264D01*
X111626330Y-90493036D02*
X111626330Y-94342156D01*
X111094972Y-89961678D02*
X111626330Y-90493036D01*
X77028672Y-82948764D02*
X77521672Y-83441764D01*
X111094972Y-89434176D02*
X111094972Y-89961678D01*
X119007754Y-101723580D02*
X119007754Y-101792797D01*
%TO.N,/SPI0_CS1*%
X74819330Y-83406664D02*
X74620330Y-83605664D01*
X74620330Y-91205664D02*
X74170330Y-91655664D01*
X74620330Y-83605664D02*
X74620330Y-91205664D01*
X74170330Y-91655664D02*
X73545330Y-91655664D01*
X75128472Y-83406664D02*
X74819330Y-83406664D01*
%TO.N,/SPI0_MOSI*%
X117333606Y-104012940D02*
X117626330Y-104305664D01*
X102794902Y-87627264D02*
X103513504Y-88345864D01*
X110180572Y-89812936D02*
X110180572Y-90340434D01*
X110711930Y-90871793D02*
X110711930Y-94720912D01*
X117333606Y-101342589D02*
X117333606Y-104012940D01*
X110180572Y-90340434D02*
X110711930Y-90871793D01*
X75820330Y-89940564D02*
X75820330Y-89038447D01*
X103513504Y-88345864D02*
X108713500Y-88345864D01*
X108713500Y-88345864D02*
X110180572Y-89812936D01*
X77292213Y-87566564D02*
X87981230Y-87566564D01*
X88250330Y-87835664D02*
X88750330Y-87835664D01*
X90660330Y-87555664D02*
X92575331Y-89470665D01*
X92575331Y-89470665D02*
X93929728Y-89470665D01*
X89030330Y-87555664D02*
X90660330Y-87555664D01*
X75820330Y-89038447D02*
X77292213Y-87566564D01*
X88750330Y-87835664D02*
X89030330Y-87555664D01*
X95773129Y-87627264D02*
X102794902Y-87627264D01*
X93929728Y-89470665D02*
X95773129Y-87627264D01*
X110711930Y-94720912D02*
X117333606Y-101342589D01*
X87981230Y-87566564D02*
X88250330Y-87835664D01*
X93929728Y-89495664D02*
X93929728Y-89470665D01*
%TO.N,/SPI0_MISO*%
X102889592Y-87398664D02*
X103608193Y-88117264D01*
X117748706Y-101434400D02*
X117748706Y-102319358D01*
X110409172Y-90245745D02*
X110940530Y-90777104D01*
X110940530Y-90777104D02*
X110940530Y-94626223D01*
X110409172Y-89718246D02*
X110409172Y-90245745D01*
X103608193Y-88117264D02*
X108808190Y-88117264D01*
X91910330Y-87585164D02*
X92096830Y-87398664D01*
X108808190Y-88117264D02*
X110409172Y-89718246D01*
X92096830Y-87398664D02*
X102889592Y-87398664D01*
X110940530Y-94626223D02*
X117748706Y-101434400D01*
%TO.N,/ENDSTOP0*%
X109466330Y-86745664D02*
X112521230Y-89800564D01*
X98919330Y-74505664D02*
X98919330Y-75521664D01*
X102216330Y-84785664D02*
X104176330Y-86745664D01*
X98919330Y-75521664D02*
X102216330Y-78818664D01*
X113733599Y-92812933D02*
X114339060Y-92812933D01*
X112521230Y-89800564D02*
X112521230Y-91600564D01*
X102216330Y-78818664D02*
X102216330Y-84785664D01*
X104176330Y-86745664D02*
X109466330Y-86745664D01*
X112521230Y-91600564D02*
X113733599Y-92812933D01*
%TO.N,/SPI0_CS2*%
X109292512Y-89775664D02*
X110483330Y-90966482D01*
X90541809Y-88669193D02*
X92443380Y-90570764D01*
X101116330Y-88815664D02*
X101726330Y-88205664D01*
X116576330Y-100908603D02*
X116576330Y-101205664D01*
X108916330Y-89775664D02*
X109292512Y-89775664D01*
X92443380Y-90570764D02*
X100721230Y-90570764D01*
X110483330Y-94815602D02*
X116576330Y-100908603D01*
X110483330Y-90966482D02*
X110483330Y-94815602D01*
X100721230Y-90570764D02*
X101116330Y-90175664D01*
X101116330Y-90175664D02*
X101116330Y-88815664D01*
X90541809Y-88024185D02*
X90541809Y-88669193D01*
D23*
%TO.N,+3V3A*%
X116718830Y-92777664D02*
X116520138Y-92976356D01*
D21*
X115240965Y-96521221D02*
X115240965Y-95915029D01*
D23*
X124840330Y-95855664D02*
X124090330Y-96605664D01*
X124840330Y-91223664D02*
X124840330Y-95855664D01*
D21*
X116159915Y-97440171D02*
X115240965Y-96521221D01*
D23*
X124090330Y-96605664D02*
X122429934Y-96605664D01*
D21*
X116184026Y-94971968D02*
X116520138Y-94971968D01*
D23*
X116520138Y-92976356D02*
X116520138Y-94971968D01*
X122429934Y-96605664D02*
X121509828Y-97525770D01*
D21*
X115240965Y-95915029D02*
X116184026Y-94971968D01*
D23*
%TO.N,+3V3B*%
X73370330Y-82406664D02*
X73370330Y-86395522D01*
X73370330Y-86395522D02*
X74128472Y-87153664D01*
%TD*%
%TA.AperFunction,Conductor*%
%TO.N,Net-(D2-K)*%
G36*
X110038931Y-81693529D02*
G01*
X110068995Y-81745600D01*
X110070330Y-81760864D01*
X110070330Y-83835064D01*
X110049765Y-83891565D01*
X109997694Y-83921629D01*
X109982430Y-83922964D01*
X105316740Y-83922964D01*
X105260239Y-83902399D01*
X105254585Y-83897219D01*
X104931075Y-83573709D01*
X104905664Y-83519215D01*
X104905330Y-83511554D01*
X104905330Y-82084374D01*
X104925895Y-82027873D01*
X104931075Y-82022219D01*
X105254585Y-81698709D01*
X105309079Y-81673298D01*
X105316740Y-81672964D01*
X109982430Y-81672964D01*
X110038931Y-81693529D01*
G37*
%TD.AperFunction*%
%TD*%
%TA.AperFunction,Conductor*%
%TO.N,GND*%
G36*
X116018122Y-78254229D02*
G01*
X116048186Y-78306300D01*
X116037745Y-78365514D01*
X116026947Y-78380376D01*
X115989245Y-78422249D01*
X115895755Y-78584179D01*
X115895754Y-78584181D01*
X115837974Y-78762010D01*
X115837973Y-78762015D01*
X115818430Y-78947959D01*
X115818430Y-78947968D01*
X115837973Y-79133912D01*
X115837974Y-79133917D01*
X115837975Y-79133920D01*
X115895755Y-79311749D01*
X115989245Y-79473679D01*
X116114360Y-79612633D01*
X116265630Y-79722537D01*
X116436445Y-79798589D01*
X116582761Y-79829689D01*
X116619339Y-79837464D01*
X116619340Y-79837464D01*
X116806321Y-79837464D01*
X116836802Y-79830984D01*
X116989215Y-79798589D01*
X117160030Y-79722537D01*
X117311300Y-79612633D01*
X117436415Y-79473679D01*
X117529905Y-79311749D01*
X117587685Y-79133920D01*
X117607230Y-78947964D01*
X117607230Y-78947959D01*
X117587686Y-78762015D01*
X117587685Y-78762010D01*
X117587685Y-78762008D01*
X117529905Y-78584179D01*
X117436415Y-78422249D01*
X117398715Y-78380379D01*
X117376193Y-78324632D01*
X117394773Y-78267447D01*
X117445764Y-78235585D01*
X117464039Y-78233664D01*
X125118528Y-78233664D01*
X125175029Y-78254229D01*
X125205093Y-78306300D01*
X125206428Y-78321564D01*
X125206428Y-90733664D01*
X124093429Y-90733664D01*
X124102536Y-90676164D01*
X124083830Y-90558056D01*
X124083830Y-90558055D01*
X124029543Y-90451512D01*
X124029542Y-90451511D01*
X124029541Y-90451509D01*
X123944985Y-90366953D01*
X123944982Y-90366951D01*
X123944981Y-90366950D01*
X123838438Y-90312663D01*
X123720330Y-90293958D01*
X123602222Y-90312663D01*
X123602221Y-90312663D01*
X123495678Y-90366950D01*
X123495675Y-90366952D01*
X123495675Y-90366953D01*
X123457483Y-90405144D01*
X123402991Y-90430555D01*
X123344913Y-90414992D01*
X123333181Y-90405149D01*
X123294985Y-90366953D01*
X123294982Y-90366951D01*
X123294981Y-90366950D01*
X123188438Y-90312663D01*
X123070330Y-90293958D01*
X122952222Y-90312663D01*
X122952221Y-90312663D01*
X122845678Y-90366950D01*
X122761116Y-90451512D01*
X122706829Y-90558055D01*
X122706829Y-90558056D01*
X122688124Y-90676164D01*
X122697230Y-90733664D01*
X113952196Y-90733664D01*
X113951308Y-90732776D01*
X113951305Y-90732774D01*
X113935713Y-90724829D01*
X113894708Y-90680853D01*
X113887722Y-90646511D01*
X113887722Y-89420956D01*
X113908287Y-89364455D01*
X113953170Y-89336685D01*
X113953033Y-89336261D01*
X113954768Y-89335697D01*
X113955115Y-89335482D01*
X113956313Y-89335195D01*
X114178445Y-89243185D01*
X114383448Y-89117558D01*
X114566275Y-88961409D01*
X114722424Y-88778582D01*
X114848051Y-88573579D01*
X114940061Y-88351447D01*
X114991653Y-88136549D01*
X114996188Y-88117661D01*
X114996188Y-88117659D01*
X114996189Y-88117656D01*
X115015053Y-87877964D01*
X114996189Y-87638272D01*
X114989240Y-87609328D01*
X114940061Y-87404480D01*
X114848054Y-87182357D01*
X114848051Y-87182349D01*
X114722424Y-86977346D01*
X114674968Y-86921782D01*
X114566279Y-86794523D01*
X114566270Y-86794514D01*
X114383452Y-86638373D01*
X114383450Y-86638371D01*
X114383448Y-86638370D01*
X114178445Y-86512743D01*
X114178439Y-86512740D01*
X114178436Y-86512739D01*
X113956311Y-86420732D01*
X113955087Y-86420438D01*
X113954779Y-86420234D01*
X113953030Y-86419666D01*
X113953187Y-86419180D01*
X113904954Y-86387243D01*
X113887722Y-86334970D01*
X113887722Y-84340956D01*
X113908287Y-84284455D01*
X113953170Y-84256685D01*
X113953033Y-84256261D01*
X113954768Y-84255697D01*
X113955115Y-84255482D01*
X113956313Y-84255195D01*
X114178445Y-84163185D01*
X114383448Y-84037558D01*
X114566275Y-83881409D01*
X114722424Y-83698582D01*
X114848051Y-83493579D01*
X114940061Y-83271447D01*
X114980531Y-83102877D01*
X114996188Y-83037661D01*
X114996188Y-83037659D01*
X114996189Y-83037656D01*
X115015053Y-82797964D01*
X115014715Y-82793664D01*
X116560516Y-82793664D01*
X116579221Y-82911771D01*
X116579221Y-82911772D01*
X116633508Y-83018315D01*
X116633509Y-83018316D01*
X116633511Y-83018319D01*
X116718067Y-83102875D01*
X116718069Y-83102876D01*
X116718070Y-83102877D01*
X116824613Y-83157164D01*
X116840761Y-83159721D01*
X116942722Y-83175870D01*
X117060830Y-83157164D01*
X117167373Y-83102877D01*
X117167374Y-83102877D01*
X117167374Y-83102876D01*
X117167377Y-83102875D01*
X117196344Y-83073908D01*
X117250838Y-83048498D01*
X117258498Y-83048164D01*
X118005894Y-83048164D01*
X118062395Y-83068729D01*
X118068049Y-83073909D01*
X118757477Y-83763336D01*
X118782888Y-83817830D01*
X118783222Y-83825491D01*
X118783222Y-84751185D01*
X118762657Y-84807686D01*
X118710586Y-84837750D01*
X118651372Y-84827309D01*
X118617003Y-84791091D01*
X118579543Y-84717573D01*
X118579542Y-84717572D01*
X118579541Y-84717570D01*
X118494985Y-84633014D01*
X118494982Y-84633012D01*
X118494981Y-84633011D01*
X118388438Y-84578724D01*
X118270330Y-84560019D01*
X118152222Y-84578724D01*
X118152221Y-84578724D01*
X118045678Y-84633011D01*
X117961116Y-84717573D01*
X117906829Y-84824116D01*
X117906829Y-84824117D01*
X117888124Y-84942225D01*
X117906829Y-85060332D01*
X117906829Y-85060333D01*
X117961116Y-85166876D01*
X117961117Y-85166877D01*
X117961119Y-85166880D01*
X118045675Y-85251436D01*
X118045677Y-85251437D01*
X118045678Y-85251438D01*
X118152221Y-85305725D01*
X118168369Y-85308282D01*
X118270330Y-85324431D01*
X118388438Y-85305725D01*
X118494985Y-85251436D01*
X118579541Y-85166880D01*
X118617003Y-85093358D01*
X118660977Y-85052352D01*
X118721021Y-85049205D01*
X118769041Y-85085390D01*
X118783222Y-85133264D01*
X118783222Y-85754848D01*
X118762657Y-85811349D01*
X118710586Y-85841413D01*
X118651372Y-85830972D01*
X118617003Y-85794754D01*
X118578410Y-85719012D01*
X118578409Y-85719011D01*
X118578408Y-85719009D01*
X118493852Y-85634453D01*
X118493849Y-85634451D01*
X118493848Y-85634450D01*
X118387305Y-85580163D01*
X118269197Y-85561458D01*
X118151089Y-85580163D01*
X118151088Y-85580163D01*
X118044545Y-85634450D01*
X117959983Y-85719012D01*
X117905696Y-85825555D01*
X117905696Y-85825556D01*
X117886991Y-85943664D01*
X117905696Y-86061771D01*
X117905696Y-86061772D01*
X117959983Y-86168315D01*
X117959984Y-86168316D01*
X117959986Y-86168319D01*
X118044542Y-86252875D01*
X118044544Y-86252876D01*
X118044545Y-86252877D01*
X118151088Y-86307164D01*
X118167236Y-86309721D01*
X118269197Y-86325870D01*
X118387305Y-86307164D01*
X118493852Y-86252875D01*
X118578408Y-86168319D01*
X118617003Y-86092571D01*
X118660977Y-86051567D01*
X118721021Y-86048420D01*
X118769041Y-86084605D01*
X118783222Y-86132479D01*
X118783222Y-86551836D01*
X118762657Y-86608337D01*
X118757477Y-86613991D01*
X118068049Y-87303419D01*
X118013555Y-87328830D01*
X118005894Y-87329164D01*
X117258498Y-87329164D01*
X117201997Y-87308599D01*
X117196344Y-87303420D01*
X117196343Y-87303419D01*
X117167377Y-87274453D01*
X117167374Y-87274451D01*
X117167373Y-87274450D01*
X117060830Y-87220163D01*
X116942722Y-87201458D01*
X116824614Y-87220163D01*
X116824613Y-87220163D01*
X116718070Y-87274450D01*
X116633508Y-87359012D01*
X116579221Y-87465555D01*
X116579221Y-87465556D01*
X116560516Y-87583664D01*
X116579221Y-87701771D01*
X116579221Y-87701772D01*
X116633508Y-87808315D01*
X116633509Y-87808316D01*
X116633511Y-87808319D01*
X116718067Y-87892875D01*
X116718069Y-87892876D01*
X116718070Y-87892877D01*
X116824613Y-87947164D01*
X116835032Y-87948814D01*
X116942722Y-87965870D01*
X117060830Y-87947164D01*
X117167373Y-87892877D01*
X117167374Y-87892877D01*
X117167374Y-87892876D01*
X117167377Y-87892875D01*
X117196344Y-87863908D01*
X117250838Y-87838498D01*
X117258498Y-87838164D01*
X118118079Y-87838164D01*
X118174580Y-87858729D01*
X118204644Y-87910800D01*
X118202984Y-87948814D01*
X118198414Y-87965870D01*
X118181022Y-88030779D01*
X118181022Y-88136549D01*
X118208397Y-88238714D01*
X118261282Y-88330313D01*
X118336073Y-88405104D01*
X118427672Y-88457989D01*
X118529837Y-88485364D01*
X118635606Y-88485364D01*
X118635607Y-88485364D01*
X118737772Y-88457989D01*
X118829371Y-88405104D01*
X118904162Y-88330313D01*
X118957047Y-88238714D01*
X118984422Y-88136549D01*
X118984422Y-88030779D01*
X118957047Y-87928614D01*
X118904162Y-87837015D01*
X118829371Y-87762224D01*
X118737772Y-87709339D01*
X118737771Y-87709338D01*
X118737770Y-87709338D01*
X118635607Y-87681964D01*
X118621549Y-87681964D01*
X118565048Y-87661399D01*
X118534984Y-87609328D01*
X118545425Y-87550114D01*
X118559394Y-87531909D01*
X118686823Y-87404480D01*
X119181883Y-86909419D01*
X119181885Y-86909419D01*
X119253477Y-86837827D01*
X119292222Y-86744287D01*
X119292222Y-83633041D01*
X119253477Y-83539501D01*
X119181885Y-83467909D01*
X119181883Y-83467908D01*
X118889844Y-83175869D01*
X118569395Y-82855419D01*
X118543984Y-82800925D01*
X118559547Y-82742847D01*
X118608800Y-82708359D01*
X118631550Y-82705364D01*
X118635606Y-82705364D01*
X118635607Y-82705364D01*
X118737772Y-82677989D01*
X118829371Y-82625104D01*
X118904162Y-82550313D01*
X118957047Y-82458714D01*
X118984422Y-82356549D01*
X118984422Y-82250779D01*
X118957047Y-82148614D01*
X118904162Y-82057015D01*
X118829371Y-81982224D01*
X118737772Y-81929339D01*
X118737771Y-81929338D01*
X118737770Y-81929338D01*
X118635607Y-81901964D01*
X118529837Y-81901964D01*
X118427673Y-81929338D01*
X118336075Y-81982222D01*
X118261280Y-82057017D01*
X118208396Y-82148615D01*
X118181022Y-82250779D01*
X118181022Y-82356548D01*
X118200305Y-82428514D01*
X118195064Y-82488412D01*
X118152548Y-82530928D01*
X118115400Y-82539164D01*
X117258498Y-82539164D01*
X117201997Y-82518599D01*
X117196344Y-82513420D01*
X117167377Y-82484453D01*
X117167374Y-82484451D01*
X117167373Y-82484450D01*
X117060830Y-82430163D01*
X116942722Y-82411458D01*
X116824614Y-82430163D01*
X116824613Y-82430163D01*
X116718070Y-82484450D01*
X116633508Y-82569012D01*
X116579221Y-82675555D01*
X116579221Y-82675556D01*
X116560516Y-82793664D01*
X115014715Y-82793664D01*
X114996189Y-82558272D01*
X114994278Y-82550313D01*
X114940061Y-82324480D01*
X114867215Y-82148615D01*
X114848051Y-82102349D01*
X114722424Y-81897346D01*
X114722420Y-81897341D01*
X114566279Y-81714523D01*
X114566270Y-81714514D01*
X114383452Y-81558373D01*
X114383450Y-81558371D01*
X114383448Y-81558370D01*
X114178445Y-81432743D01*
X114178439Y-81432740D01*
X114178436Y-81432739D01*
X113956311Y-81340732D01*
X113955087Y-81340438D01*
X113954779Y-81340234D01*
X113953030Y-81339666D01*
X113953187Y-81339180D01*
X113904954Y-81307243D01*
X113887722Y-81254970D01*
X113887722Y-79589913D01*
X113908287Y-79533412D01*
X113960358Y-79503348D01*
X114019572Y-79513789D01*
X114040943Y-79531095D01*
X114114360Y-79612633D01*
X114265630Y-79722537D01*
X114436445Y-79798589D01*
X114582761Y-79829689D01*
X114619339Y-79837464D01*
X114619340Y-79837464D01*
X114806321Y-79837464D01*
X114836802Y-79830984D01*
X114989215Y-79798589D01*
X115160030Y-79722537D01*
X115311300Y-79612633D01*
X115436415Y-79473679D01*
X115529905Y-79311749D01*
X115587685Y-79133920D01*
X115607230Y-78947964D01*
X115607230Y-78947959D01*
X115587686Y-78762015D01*
X115587685Y-78762010D01*
X115587685Y-78762008D01*
X115529905Y-78584179D01*
X115436415Y-78422249D01*
X115398715Y-78380379D01*
X115376193Y-78324632D01*
X115394773Y-78267447D01*
X115445764Y-78235585D01*
X115464039Y-78233664D01*
X115961621Y-78233664D01*
X116018122Y-78254229D01*
G37*
%TD.AperFunction*%
%TD*%
%TA.AperFunction,Conductor*%
%TO.N,GND*%
G36*
X125168945Y-95989690D02*
G01*
X125203433Y-96038943D01*
X125206428Y-96061693D01*
X125206428Y-106077007D01*
X125206424Y-106077053D01*
X125206427Y-106121364D01*
X125206156Y-106128261D01*
X125191305Y-106317111D01*
X125189148Y-106330736D01*
X125145741Y-106511574D01*
X125141479Y-106524694D01*
X125070313Y-106696516D01*
X125064051Y-106708806D01*
X124966881Y-106867379D01*
X124958772Y-106878540D01*
X124837987Y-107019960D01*
X124828233Y-107029714D01*
X124686817Y-107150490D01*
X124675657Y-107158598D01*
X124517082Y-107255765D01*
X124504790Y-107262027D01*
X124332965Y-107333188D01*
X124319846Y-107337450D01*
X124139007Y-107380853D01*
X124125382Y-107383010D01*
X123936067Y-107397893D01*
X123929170Y-107398163D01*
X123884845Y-107398159D01*
X123884793Y-107398164D01*
X108979329Y-107398164D01*
X108979308Y-107398162D01*
X108970935Y-107398162D01*
X108964220Y-107398162D01*
X108934502Y-107398163D01*
X108927607Y-107397892D01*
X108738757Y-107383036D01*
X108725133Y-107380879D01*
X108544293Y-107337469D01*
X108531173Y-107333206D01*
X108359349Y-107262037D01*
X108347058Y-107255775D01*
X108188488Y-107158603D01*
X108177329Y-107150495D01*
X108035915Y-107029714D01*
X108026161Y-107019960D01*
X107905382Y-106878541D01*
X107897275Y-106867381D01*
X107800105Y-106708803D01*
X107793845Y-106696516D01*
X107722680Y-106524687D01*
X107718424Y-106511587D01*
X107675013Y-106330729D01*
X107672857Y-106317116D01*
X107657966Y-106127747D01*
X107657696Y-106120853D01*
X107657699Y-106084930D01*
X107657698Y-106084928D01*
X107657699Y-106077053D01*
X107657696Y-106077007D01*
X107657696Y-100285656D01*
X107678261Y-100229155D01*
X107730332Y-100199091D01*
X107785502Y-100207336D01*
X107789088Y-100209164D01*
X107907196Y-100227870D01*
X108025304Y-100209164D01*
X108107525Y-100167269D01*
X108167202Y-100159942D01*
X108217630Y-100192689D01*
X108235330Y-100245589D01*
X108235330Y-101371072D01*
X108235330Y-101447056D01*
X108239910Y-101458113D01*
X108262857Y-101513514D01*
X108264408Y-101517257D01*
X108366224Y-101619073D01*
X108466780Y-101719629D01*
X108492191Y-101774123D01*
X108491443Y-101795533D01*
X108483124Y-101848063D01*
X108501829Y-101966171D01*
X108501829Y-101966172D01*
X108556116Y-102072715D01*
X108556117Y-102072716D01*
X108556119Y-102072719D01*
X108640675Y-102157275D01*
X108640677Y-102157276D01*
X108640678Y-102157277D01*
X108747221Y-102211564D01*
X108763369Y-102214121D01*
X108865330Y-102230270D01*
X108983438Y-102211564D01*
X109089985Y-102157275D01*
X109113135Y-102134124D01*
X109167625Y-102108715D01*
X109225704Y-102124276D01*
X109253607Y-102156374D01*
X109281437Y-102210994D01*
X109281438Y-102210995D01*
X109281440Y-102210998D01*
X109365996Y-102295554D01*
X109365998Y-102295555D01*
X109365999Y-102295556D01*
X109472542Y-102349843D01*
X109486768Y-102352096D01*
X109590651Y-102368549D01*
X109708759Y-102349843D01*
X109815306Y-102295554D01*
X109899862Y-102210998D01*
X109954151Y-102104451D01*
X109972857Y-101986343D01*
X109954151Y-101868235D01*
X109954151Y-101868234D01*
X109899864Y-101761691D01*
X109899863Y-101761690D01*
X109899862Y-101761688D01*
X109815306Y-101677132D01*
X109815303Y-101677130D01*
X109815302Y-101677129D01*
X109708759Y-101622842D01*
X109590651Y-101604137D01*
X109538120Y-101612456D01*
X109479098Y-101600982D01*
X109462216Y-101587793D01*
X108871675Y-100997252D01*
X108846264Y-100942758D01*
X108845930Y-100935097D01*
X108845930Y-100634897D01*
X108866495Y-100578396D01*
X108918566Y-100548332D01*
X108977780Y-100558773D01*
X108995985Y-100572742D01*
X113387100Y-104963857D01*
X113387099Y-104963857D01*
X113440827Y-105017584D01*
X113440829Y-105017586D01*
X113511030Y-105046664D01*
X115497880Y-105046664D01*
X115554381Y-105067229D01*
X115562123Y-105075531D01*
X115562228Y-105075427D01*
X115567117Y-105080316D01*
X115567119Y-105080319D01*
X115651675Y-105164875D01*
X115651677Y-105164876D01*
X115651678Y-105164877D01*
X115758221Y-105219164D01*
X115774369Y-105221721D01*
X115876330Y-105237870D01*
X115994438Y-105219164D01*
X116100985Y-105164875D01*
X116185541Y-105080319D01*
X116239830Y-104973772D01*
X116240271Y-104970983D01*
X116241394Y-104968957D01*
X116241969Y-104967190D01*
X116242312Y-104967301D01*
X116269415Y-104918393D01*
X116325546Y-104896840D01*
X116382400Y-104916409D01*
X116389245Y-104922571D01*
X117268295Y-105801621D01*
X117272478Y-105805624D01*
X117276993Y-105809760D01*
X117278124Y-105810796D01*
X117322313Y-105837608D01*
X117378814Y-105858173D01*
X117424132Y-105866164D01*
X117424135Y-105866164D01*
X118351311Y-105866164D01*
X118351312Y-105866164D01*
X118357083Y-105866038D01*
X118364744Y-105865704D01*
X118414970Y-105853416D01*
X118414975Y-105853413D01*
X118414977Y-105853413D01*
X118469456Y-105828009D01*
X118469456Y-105828008D01*
X118469464Y-105828005D01*
X118507159Y-105801611D01*
X123955669Y-100353101D01*
X123959674Y-100348916D01*
X123964854Y-100343262D01*
X123991666Y-100299073D01*
X124012231Y-100242572D01*
X124020222Y-100197254D01*
X124020222Y-99270074D01*
X124020096Y-99264303D01*
X124019762Y-99256642D01*
X124007474Y-99206416D01*
X124007471Y-99206411D01*
X124007471Y-99206408D01*
X123982067Y-99151929D01*
X123982064Y-99151925D01*
X123982063Y-99151922D01*
X123955669Y-99114227D01*
X123621926Y-98780484D01*
X123596515Y-98725990D01*
X123612078Y-98667912D01*
X123644173Y-98640011D01*
X123745112Y-98588580D01*
X123829668Y-98504024D01*
X123883957Y-98397477D01*
X123902663Y-98279369D01*
X123883957Y-98161261D01*
X123883957Y-98161260D01*
X123829670Y-98054717D01*
X123829669Y-98054716D01*
X123829668Y-98054714D01*
X123745112Y-97970158D01*
X123745109Y-97970156D01*
X123745108Y-97970155D01*
X123638565Y-97915868D01*
X123520457Y-97897163D01*
X123406435Y-97915221D01*
X123347412Y-97903747D01*
X123309574Y-97857020D01*
X123305867Y-97814654D01*
X123321359Y-97716841D01*
X123302653Y-97598733D01*
X123302653Y-97598732D01*
X123248366Y-97492189D01*
X123248365Y-97492188D01*
X123248364Y-97492186D01*
X123163808Y-97407630D01*
X123163805Y-97407628D01*
X123163804Y-97407627D01*
X123057261Y-97353340D01*
X122939153Y-97334635D01*
X122821045Y-97353340D01*
X122821044Y-97353340D01*
X122714501Y-97407627D01*
X122629939Y-97492189D01*
X122584849Y-97580684D01*
X122540875Y-97621690D01*
X122480830Y-97624837D01*
X122444375Y-97602933D01*
X122180633Y-97339191D01*
X122155222Y-97284697D01*
X122170785Y-97226619D01*
X122180633Y-97214881D01*
X122509606Y-96885909D01*
X122564100Y-96860498D01*
X122571761Y-96860164D01*
X124140952Y-96860164D01*
X124140953Y-96860164D01*
X124234493Y-96821419D01*
X124984491Y-96071419D01*
X124984493Y-96071419D01*
X125056085Y-95999827D01*
X125056085Y-95999825D01*
X125056373Y-95999538D01*
X125110867Y-95974127D01*
X125168945Y-95989690D01*
G37*
%TD.AperFunction*%
%TA.AperFunction,Conductor*%
G36*
X110254847Y-94469263D02*
G01*
X110289335Y-94518516D01*
X110292330Y-94541266D01*
X110292330Y-94777610D01*
X110292330Y-94853594D01*
X110321408Y-94923795D01*
X112498047Y-97100435D01*
X113103651Y-97706039D01*
X113129062Y-97760533D01*
X113113499Y-97818611D01*
X113103651Y-97830349D01*
X111819746Y-99114255D01*
X111815747Y-99118435D01*
X111810584Y-99124071D01*
X111810579Y-99124077D01*
X111783781Y-99168246D01*
X111783777Y-99168254D01*
X111768737Y-99209575D01*
X111768735Y-99209578D01*
X111768736Y-99209579D01*
X111763210Y-99224760D01*
X111757962Y-99254533D01*
X111757591Y-99256642D01*
X111757482Y-99257258D01*
X111757481Y-99257265D01*
X111755222Y-99270068D01*
X111755222Y-100197252D01*
X111755348Y-100203044D01*
X111755681Y-100210680D01*
X111755681Y-100210684D01*
X111755682Y-100210686D01*
X111767347Y-100258367D01*
X111767972Y-100260919D01*
X111793376Y-100315398D01*
X111793379Y-100315402D01*
X111793381Y-100315406D01*
X111819775Y-100353101D01*
X113251692Y-101785018D01*
X113277142Y-101804901D01*
X113313597Y-101826805D01*
X113316136Y-101828293D01*
X113316137Y-101828293D01*
X113316139Y-101828294D01*
X113341834Y-101834397D01*
X113388774Y-101845548D01*
X113389951Y-101845486D01*
X113390734Y-101845725D01*
X113395039Y-101846116D01*
X113394957Y-101847015D01*
X113447453Y-101863059D01*
X113477406Y-101909172D01*
X113478584Y-101908790D01*
X113480011Y-101913182D01*
X113480206Y-101913482D01*
X113480350Y-101914227D01*
X113480722Y-101915372D01*
X113535009Y-102021915D01*
X113535010Y-102021916D01*
X113535012Y-102021919D01*
X113619568Y-102106475D01*
X113619570Y-102106476D01*
X113619571Y-102106477D01*
X113719271Y-102157277D01*
X113726115Y-102160764D01*
X113726119Y-102160764D01*
X113732696Y-102162902D01*
X113731809Y-102165629D01*
X113774389Y-102189228D01*
X113794956Y-102233699D01*
X113804662Y-102297601D01*
X113804663Y-102297604D01*
X113830072Y-102352096D01*
X113856469Y-102389795D01*
X114367481Y-102900807D01*
X114392892Y-102955301D01*
X114377329Y-103013379D01*
X114328076Y-103047867D01*
X114305326Y-103050862D01*
X113020615Y-103050862D01*
X112964114Y-103030297D01*
X112958460Y-103025117D01*
X109786075Y-99852732D01*
X109760664Y-99798238D01*
X109760330Y-99790577D01*
X109760330Y-94897466D01*
X109780895Y-94840965D01*
X109786075Y-94835311D01*
X110142275Y-94479111D01*
X110196769Y-94453700D01*
X110254847Y-94469263D01*
G37*
%TD.AperFunction*%
%TA.AperFunction,Conductor*%
G36*
X117828707Y-99132629D02*
G01*
X117834361Y-99137809D01*
X119526405Y-100829854D01*
X119551816Y-100884348D01*
X119551068Y-100905758D01*
X119547660Y-100927278D01*
X119566365Y-101045385D01*
X119601625Y-101114587D01*
X119608952Y-101174266D01*
X119576204Y-101224692D01*
X119563211Y-101232811D01*
X119461078Y-101284850D01*
X119376516Y-101369412D01*
X119340536Y-101440027D01*
X119296562Y-101481034D01*
X119236517Y-101484180D01*
X119222311Y-101478440D01*
X119125862Y-101429296D01*
X119007754Y-101410591D01*
X119001290Y-101410591D01*
X118944789Y-101390026D01*
X118939135Y-101384846D01*
X116816408Y-99262119D01*
X116790997Y-99207625D01*
X116806560Y-99149547D01*
X116855813Y-99115059D01*
X116878563Y-99112064D01*
X117772206Y-99112064D01*
X117828707Y-99132629D01*
G37*
%TD.AperFunction*%
%TA.AperFunction,Conductor*%
G36*
X117938149Y-96473342D02*
G01*
X117948230Y-96481577D01*
X117953674Y-96486742D01*
X117960473Y-96492864D01*
X117960481Y-96492870D01*
X118005973Y-96519672D01*
X118005982Y-96519676D01*
X118037829Y-96530646D01*
X118062829Y-96539259D01*
X118079037Y-96543715D01*
X118079037Y-96543714D01*
X118079038Y-96543715D01*
X118112325Y-96541020D01*
X118170301Y-96556957D01*
X118197738Y-96588727D01*
X118245569Y-96682601D01*
X118245570Y-96682602D01*
X118245572Y-96682605D01*
X118273140Y-96710173D01*
X118298551Y-96764666D01*
X118282988Y-96822744D01*
X118273145Y-96834475D01*
X118247458Y-96860163D01*
X118231838Y-96875783D01*
X118177551Y-96982326D01*
X118177551Y-96982327D01*
X118158846Y-97100435D01*
X118177551Y-97218542D01*
X118177551Y-97218543D01*
X118231838Y-97325086D01*
X118231839Y-97325087D01*
X118231841Y-97325090D01*
X118316397Y-97409646D01*
X118316399Y-97409647D01*
X118316400Y-97409648D01*
X118422943Y-97463935D01*
X118439091Y-97466492D01*
X118541052Y-97482641D01*
X118643992Y-97466337D01*
X118665993Y-97462853D01*
X118666310Y-97464859D01*
X118717375Y-97466640D01*
X118762060Y-97506870D01*
X118770431Y-97566412D01*
X118762772Y-97588043D01*
X118757326Y-97598732D01*
X118752829Y-97607558D01*
X118734124Y-97725664D01*
X118752829Y-97843771D01*
X118752829Y-97843772D01*
X118807116Y-97950315D01*
X118807117Y-97950316D01*
X118807119Y-97950319D01*
X118891675Y-98034875D01*
X118891677Y-98034876D01*
X118891678Y-98034877D01*
X118998221Y-98089164D01*
X119014369Y-98091721D01*
X119116330Y-98107870D01*
X119234438Y-98089164D01*
X119340985Y-98034875D01*
X119359111Y-98016748D01*
X119413600Y-97991337D01*
X119471679Y-98006896D01*
X119483420Y-98016747D01*
X120780279Y-99313606D01*
X120805690Y-99368100D01*
X120790127Y-99426178D01*
X120740874Y-99460666D01*
X120731875Y-99462579D01*
X120608221Y-99482163D01*
X120501678Y-99536450D01*
X120417116Y-99621012D01*
X120362829Y-99727555D01*
X120362829Y-99727556D01*
X120344124Y-99845664D01*
X120362829Y-99963771D01*
X120362829Y-99963772D01*
X120417116Y-100070315D01*
X120417117Y-100070316D01*
X120417119Y-100070319D01*
X120501675Y-100154875D01*
X120577677Y-100193600D01*
X120618683Y-100237573D01*
X120621830Y-100297618D01*
X120599926Y-100334074D01*
X120297381Y-100636619D01*
X120242887Y-100662030D01*
X120184809Y-100646467D01*
X120173077Y-100636624D01*
X120154521Y-100618068D01*
X120154518Y-100618066D01*
X120154517Y-100618065D01*
X120047974Y-100563778D01*
X119929866Y-100545073D01*
X119929865Y-100545073D01*
X119908345Y-100548481D01*
X119849322Y-100537007D01*
X119832441Y-100523818D01*
X118081706Y-98773084D01*
X118081706Y-98773083D01*
X118020832Y-98712209D01*
X117941296Y-98679264D01*
X116892924Y-98679264D01*
X116836423Y-98658699D01*
X116830769Y-98653519D01*
X116531881Y-98354631D01*
X116506470Y-98300137D01*
X116507217Y-98278730D01*
X116510627Y-98257206D01*
X116491921Y-98139098D01*
X116491921Y-98139097D01*
X116437634Y-98032554D01*
X116437633Y-98032553D01*
X116437632Y-98032551D01*
X116419078Y-98013997D01*
X116393668Y-97959505D01*
X116409231Y-97901427D01*
X116419073Y-97889695D01*
X116846227Y-97462542D01*
X116866111Y-97437090D01*
X116888015Y-97400634D01*
X116889502Y-97398097D01*
X116906757Y-97325459D01*
X116906756Y-97325453D01*
X116907097Y-97321706D01*
X116932678Y-97267292D01*
X116980889Y-97242823D01*
X116991544Y-97241136D01*
X117098091Y-97186847D01*
X117182647Y-97102291D01*
X117236936Y-96995744D01*
X117238869Y-96983538D01*
X117268016Y-96930949D01*
X117312483Y-96910383D01*
X117366153Y-96902232D01*
X117420647Y-96876821D01*
X117458342Y-96850427D01*
X117825578Y-96483190D01*
X117880071Y-96457780D01*
X117938149Y-96473342D01*
G37*
%TD.AperFunction*%
%TA.AperFunction,Conductor*%
G36*
X122875003Y-92350729D02*
G01*
X122880657Y-92355909D01*
X123595085Y-93070336D01*
X123620496Y-93124830D01*
X123620830Y-93132491D01*
X123620830Y-95555888D01*
X123600265Y-95612389D01*
X123595086Y-95618042D01*
X123566116Y-95647011D01*
X123566116Y-95647012D01*
X123511829Y-95753555D01*
X123511829Y-95753556D01*
X123493124Y-95871664D01*
X123511829Y-95989771D01*
X123511829Y-95989772D01*
X123566116Y-96096315D01*
X123566117Y-96096316D01*
X123566119Y-96096319D01*
X123650675Y-96180875D01*
X123650677Y-96180876D01*
X123658662Y-96184945D01*
X123699668Y-96228920D01*
X123702814Y-96288964D01*
X123666628Y-96336984D01*
X123618755Y-96351164D01*
X122379309Y-96351164D01*
X122285773Y-96389907D01*
X122285769Y-96389910D01*
X122214178Y-96461500D01*
X122214179Y-96461501D01*
X121820716Y-96854964D01*
X121766222Y-96880375D01*
X121708144Y-96864812D01*
X121696406Y-96854964D01*
X121355601Y-96514159D01*
X121330190Y-96459665D01*
X121345753Y-96401587D01*
X121355596Y-96389855D01*
X121427133Y-96318319D01*
X121481422Y-96211772D01*
X121500128Y-96093664D01*
X121481422Y-95975556D01*
X121481422Y-95975555D01*
X121427135Y-95869012D01*
X121427134Y-95869011D01*
X121427133Y-95869009D01*
X121342577Y-95784453D01*
X121342574Y-95784451D01*
X121342573Y-95784450D01*
X121236030Y-95730163D01*
X121142069Y-95715282D01*
X121089480Y-95686132D01*
X121067932Y-95629998D01*
X121069001Y-95614714D01*
X121085028Y-95513523D01*
X121066322Y-95395415D01*
X121066322Y-95395414D01*
X121012035Y-95288871D01*
X121012034Y-95288870D01*
X121012033Y-95288868D01*
X120927477Y-95204312D01*
X120927474Y-95204310D01*
X120927473Y-95204309D01*
X120820930Y-95150022D01*
X120702822Y-95131317D01*
X120584714Y-95150022D01*
X120584713Y-95150022D01*
X120478170Y-95204309D01*
X120393608Y-95288871D01*
X120358651Y-95357478D01*
X120314677Y-95398485D01*
X120254632Y-95401631D01*
X120208327Y-95367986D01*
X120205758Y-95364317D01*
X118953159Y-94111718D01*
X118948120Y-94106937D01*
X118948097Y-94106916D01*
X118941288Y-94100785D01*
X118941283Y-94100782D01*
X118941281Y-94100780D01*
X118895765Y-94073972D01*
X118875586Y-94067024D01*
X118838923Y-94054400D01*
X118838920Y-94054399D01*
X118838914Y-94054397D01*
X118829023Y-94051679D01*
X118822702Y-94049942D01*
X118751688Y-94055703D01*
X118693710Y-94039774D01*
X118666262Y-94007996D01*
X118646878Y-93969952D01*
X118646877Y-93969950D01*
X118562321Y-93885394D01*
X118562318Y-93885392D01*
X118562317Y-93885391D01*
X118455774Y-93831104D01*
X118337666Y-93812399D01*
X118330749Y-93812399D01*
X118330749Y-93809591D01*
X118282784Y-93800260D01*
X118244953Y-93753526D01*
X118242223Y-93722245D01*
X118240594Y-93722245D01*
X118240594Y-93715327D01*
X118221888Y-93597219D01*
X118221888Y-93597218D01*
X118167601Y-93490675D01*
X118167600Y-93490674D01*
X118167599Y-93490672D01*
X118083043Y-93406116D01*
X118083040Y-93406114D01*
X118083039Y-93406113D01*
X117976496Y-93351826D01*
X117858388Y-93333121D01*
X117740280Y-93351826D01*
X117740279Y-93351826D01*
X117633736Y-93406113D01*
X117549174Y-93490675D01*
X117507353Y-93572753D01*
X117463379Y-93613760D01*
X117424666Y-93617707D01*
X117424606Y-93620253D01*
X117416916Y-93620069D01*
X117343106Y-93631280D01*
X117343104Y-93631281D01*
X117288613Y-93656690D01*
X117250917Y-93683083D01*
X117250914Y-93683086D01*
X116924693Y-94009308D01*
X116870199Y-94034719D01*
X116812121Y-94019156D01*
X116777633Y-93969903D01*
X116774638Y-93947153D01*
X116774638Y-93225269D01*
X116795203Y-93168768D01*
X116830952Y-93144655D01*
X116830774Y-93144305D01*
X116833633Y-93142848D01*
X116835380Y-93141670D01*
X116836935Y-93141164D01*
X116836938Y-93141164D01*
X116943485Y-93086875D01*
X117028041Y-93002319D01*
X117082330Y-92895772D01*
X117101036Y-92777664D01*
X117082330Y-92659556D01*
X117082330Y-92659555D01*
X117028043Y-92553012D01*
X117028042Y-92553011D01*
X117028041Y-92553009D01*
X116955249Y-92480217D01*
X116929839Y-92425725D01*
X116945402Y-92367647D01*
X116994655Y-92333159D01*
X117017405Y-92330164D01*
X122818502Y-92330164D01*
X122875003Y-92350729D01*
G37*
%TD.AperFunction*%
%TA.AperFunction,Conductor*%
G36*
X113436510Y-91287599D02*
G01*
X113448241Y-91297441D01*
X113501998Y-91351198D01*
X113502000Y-91351199D01*
X113502001Y-91351200D01*
X113608544Y-91405487D01*
X113647191Y-91411607D01*
X113724925Y-91423919D01*
X113773330Y-91448582D01*
X114544575Y-92219827D01*
X114544574Y-92219827D01*
X114591843Y-92267095D01*
X114616167Y-92291419D01*
X114709707Y-92330164D01*
X116420255Y-92330164D01*
X116476756Y-92350729D01*
X116506820Y-92402800D01*
X116496379Y-92462014D01*
X116482413Y-92480214D01*
X116440064Y-92522564D01*
X116409616Y-92553012D01*
X116355330Y-92659555D01*
X116336897Y-92775937D01*
X116312238Y-92824336D01*
X116304383Y-92832191D01*
X116265638Y-92925731D01*
X116265638Y-94631953D01*
X116245073Y-94688454D01*
X116239893Y-94694108D01*
X116204178Y-94729823D01*
X116149684Y-94755234D01*
X116142023Y-94755568D01*
X116140981Y-94755568D01*
X116112040Y-94767556D01*
X116112039Y-94767556D01*
X116061446Y-94788511D01*
X115118384Y-95731574D01*
X115118383Y-95731573D01*
X115057511Y-95792446D01*
X115057509Y-95792448D01*
X115024565Y-95871983D01*
X115024565Y-95873026D01*
X115024107Y-95874282D01*
X115022876Y-95880475D01*
X115021922Y-95880285D01*
X115004000Y-95929527D01*
X114998820Y-95935181D01*
X114306300Y-96627701D01*
X114251806Y-96653112D01*
X114193728Y-96637549D01*
X114181990Y-96627701D01*
X112439953Y-94885664D01*
X113223202Y-94885664D01*
X113241907Y-95003771D01*
X113241907Y-95003772D01*
X113296194Y-95110315D01*
X113296195Y-95110316D01*
X113296197Y-95110319D01*
X113380753Y-95194875D01*
X113380755Y-95194876D01*
X113380756Y-95194877D01*
X113487299Y-95249164D01*
X113503447Y-95251721D01*
X113605408Y-95267870D01*
X113723516Y-95249164D01*
X113830063Y-95194875D01*
X113914619Y-95110319D01*
X113968908Y-95003772D01*
X113987614Y-94885664D01*
X113968908Y-94767556D01*
X113968908Y-94767555D01*
X113914621Y-94661012D01*
X113914620Y-94661011D01*
X113914619Y-94661009D01*
X113830063Y-94576453D01*
X113830060Y-94576451D01*
X113830059Y-94576450D01*
X113723516Y-94522163D01*
X113605408Y-94503458D01*
X113487300Y-94522163D01*
X113487299Y-94522163D01*
X113380756Y-94576450D01*
X113296194Y-94661012D01*
X113241907Y-94767555D01*
X113241907Y-94767556D01*
X113223202Y-94885664D01*
X112439953Y-94885664D01*
X111843075Y-94288786D01*
X111817664Y-94234292D01*
X111817330Y-94226631D01*
X111817330Y-92840465D01*
X111837895Y-92783964D01*
X111843064Y-92778321D01*
X112573814Y-92047571D01*
X112628307Y-92022161D01*
X112686385Y-92037724D01*
X112698122Y-92047571D01*
X113625406Y-92974855D01*
X113695607Y-93003933D01*
X113771591Y-93003933D01*
X113960610Y-93003933D01*
X114017111Y-93024498D01*
X114024853Y-93032800D01*
X114024958Y-93032696D01*
X114029847Y-93037585D01*
X114029849Y-93037588D01*
X114114405Y-93122144D01*
X114114407Y-93122145D01*
X114114408Y-93122146D01*
X114220951Y-93176433D01*
X114237099Y-93178990D01*
X114339060Y-93195139D01*
X114457168Y-93176433D01*
X114563715Y-93122144D01*
X114648271Y-93037588D01*
X114702560Y-92931041D01*
X114721266Y-92812933D01*
X114702560Y-92694825D01*
X114702560Y-92694824D01*
X114648273Y-92588281D01*
X114648272Y-92588280D01*
X114648271Y-92588278D01*
X114563715Y-92503722D01*
X114563712Y-92503720D01*
X114563711Y-92503719D01*
X114457168Y-92449432D01*
X114339060Y-92430727D01*
X114220952Y-92449432D01*
X114220951Y-92449432D01*
X114114408Y-92503719D01*
X114114405Y-92503721D01*
X114114405Y-92503722D01*
X114029849Y-92588278D01*
X114029848Y-92588279D01*
X114024958Y-92593170D01*
X114023222Y-92591434D01*
X113981869Y-92619323D01*
X113960610Y-92621933D01*
X113849124Y-92621933D01*
X113792623Y-92601368D01*
X113786969Y-92596188D01*
X112968238Y-91777457D01*
X112942827Y-91722963D01*
X112958390Y-91664885D01*
X112968232Y-91653153D01*
X113323939Y-91297446D01*
X113378432Y-91272036D01*
X113436510Y-91287599D01*
G37*
%TD.AperFunction*%
%TA.AperFunction,Conductor*%
G36*
X122706829Y-90794271D02*
G01*
X122706829Y-90794272D01*
X122761116Y-90900815D01*
X122761117Y-90900816D01*
X122761119Y-90900819D01*
X122845675Y-90985375D01*
X122845677Y-90985376D01*
X122845678Y-90985377D01*
X122952221Y-91039664D01*
X122966889Y-91041987D01*
X123070330Y-91058370D01*
X123188438Y-91039664D01*
X123294985Y-90985375D01*
X123333176Y-90947183D01*
X123387669Y-90921773D01*
X123445747Y-90937336D01*
X123457478Y-90947178D01*
X123495675Y-90985375D01*
X123495677Y-90985376D01*
X123495678Y-90985377D01*
X123602221Y-91039664D01*
X123616889Y-91041987D01*
X123720330Y-91058370D01*
X123838438Y-91039664D01*
X123944985Y-90985375D01*
X124029541Y-90900819D01*
X124083830Y-90794272D01*
X124093429Y-90733664D01*
X125206428Y-90733664D01*
X125206428Y-90844703D01*
X125185863Y-90901204D01*
X125133792Y-90931268D01*
X125074578Y-90920827D01*
X125066864Y-90915818D01*
X125064981Y-90914450D01*
X124958438Y-90860163D01*
X124840330Y-90841458D01*
X124722222Y-90860163D01*
X124722221Y-90860163D01*
X124615678Y-90914450D01*
X124531116Y-90999012D01*
X124476829Y-91105555D01*
X124476829Y-91105556D01*
X124458124Y-91223664D01*
X124476829Y-91341771D01*
X124476829Y-91341772D01*
X124531116Y-91448315D01*
X124531117Y-91448316D01*
X124531119Y-91448319D01*
X124560085Y-91477285D01*
X124585496Y-91531778D01*
X124585830Y-91539439D01*
X124585830Y-95713836D01*
X124565265Y-95770337D01*
X124560085Y-95775991D01*
X124407591Y-95928485D01*
X124353097Y-95953896D01*
X124295019Y-95938333D01*
X124260531Y-95889080D01*
X124259127Y-95878415D01*
X124258618Y-95878496D01*
X124238830Y-95753556D01*
X124238830Y-95753555D01*
X124184543Y-95647012D01*
X124184543Y-95647011D01*
X124155574Y-95618042D01*
X124130164Y-95563548D01*
X124129830Y-95555888D01*
X124129830Y-92940042D01*
X124129829Y-92940039D01*
X124123903Y-92925733D01*
X124091085Y-92846501D01*
X124019493Y-92774909D01*
X124019491Y-92774908D01*
X123104493Y-91859909D01*
X123104491Y-91859908D01*
X123104490Y-91859907D01*
X123010954Y-91821164D01*
X123010953Y-91821164D01*
X118046905Y-91821164D01*
X117990404Y-91800599D01*
X117960340Y-91748528D01*
X117970781Y-91689314D01*
X117984746Y-91671113D01*
X118045541Y-91610319D01*
X118099830Y-91503772D01*
X118118536Y-91385664D01*
X118099830Y-91267556D01*
X118099830Y-91267555D01*
X118045543Y-91161012D01*
X118045542Y-91161011D01*
X118045541Y-91161009D01*
X117960985Y-91076453D01*
X117960982Y-91076451D01*
X117960981Y-91076450D01*
X117854438Y-91022163D01*
X117736330Y-91003458D01*
X117618222Y-91022163D01*
X117618221Y-91022163D01*
X117511678Y-91076450D01*
X117427116Y-91161012D01*
X117372829Y-91267555D01*
X117372829Y-91267556D01*
X117354124Y-91385664D01*
X117372829Y-91503771D01*
X117372829Y-91503772D01*
X117427116Y-91610315D01*
X117427117Y-91610316D01*
X117427119Y-91610319D01*
X117487910Y-91671110D01*
X117513321Y-91725603D01*
X117497758Y-91783681D01*
X117448505Y-91818169D01*
X117425755Y-91821164D01*
X114902158Y-91821164D01*
X114845657Y-91800599D01*
X114840003Y-91795419D01*
X114133248Y-91088664D01*
X114108585Y-91040259D01*
X114102052Y-90999012D01*
X114090153Y-90923879D01*
X114090153Y-90923878D01*
X114035866Y-90817335D01*
X114035865Y-90817334D01*
X114035864Y-90817332D01*
X113952196Y-90733664D01*
X122697230Y-90733664D01*
X122706829Y-90794271D01*
G37*
%TD.AperFunction*%
%TD*%
%TA.AperFunction,Conductor*%
%TO.N,+3V3A*%
G36*
X118852628Y-94199253D02*
G01*
X118859467Y-94205410D01*
X120112066Y-95458009D01*
X120137477Y-95512503D01*
X120121914Y-95570581D01*
X120089818Y-95598483D01*
X119995677Y-95646451D01*
X119911116Y-95731012D01*
X119856829Y-95837555D01*
X119856829Y-95837556D01*
X119838124Y-95955664D01*
X119856829Y-96073771D01*
X119856829Y-96073772D01*
X119911116Y-96180315D01*
X119911117Y-96180316D01*
X119911119Y-96180319D01*
X119995675Y-96264875D01*
X119995677Y-96264876D01*
X119995678Y-96264877D01*
X120102221Y-96319164D01*
X120118369Y-96321721D01*
X120220330Y-96337870D01*
X120338438Y-96319164D01*
X120444985Y-96264875D01*
X120529541Y-96180319D01*
X120574479Y-96092124D01*
X120618452Y-96051120D01*
X120678496Y-96047973D01*
X120726516Y-96084158D01*
X120739615Y-96118282D01*
X120754421Y-96211771D01*
X120754421Y-96211772D01*
X120808708Y-96318315D01*
X120808709Y-96318316D01*
X120808711Y-96318319D01*
X120893267Y-96402875D01*
X120893269Y-96402876D01*
X120893270Y-96402877D01*
X120999813Y-96457164D01*
X121030206Y-96461977D01*
X121103978Y-96473661D01*
X121152382Y-96498324D01*
X123861977Y-99207919D01*
X123887388Y-99262413D01*
X123887722Y-99270074D01*
X123887722Y-100197254D01*
X123867157Y-100253755D01*
X123861977Y-100259409D01*
X118413467Y-105707919D01*
X118358973Y-105733330D01*
X118351312Y-105733664D01*
X117424132Y-105733664D01*
X117367631Y-105713099D01*
X117361977Y-105707919D01*
X115315212Y-103661154D01*
X115289801Y-103606660D01*
X115305364Y-103548582D01*
X115315207Y-103536850D01*
X115385541Y-103466517D01*
X115439830Y-103359970D01*
X115458536Y-103241862D01*
X115439830Y-103123754D01*
X115439830Y-103123753D01*
X115385543Y-103017210D01*
X115385542Y-103017209D01*
X115385541Y-103017207D01*
X115300985Y-102932651D01*
X115300982Y-102932649D01*
X115300981Y-102932648D01*
X115194438Y-102878361D01*
X115076330Y-102859656D01*
X114958222Y-102878361D01*
X114958221Y-102878361D01*
X114851678Y-102932648D01*
X114851674Y-102932651D01*
X114781346Y-103002979D01*
X114726852Y-103028390D01*
X114668774Y-103012827D01*
X114657037Y-103002979D01*
X113950160Y-102296102D01*
X113924749Y-102241608D01*
X113940312Y-102183530D01*
X113972406Y-102155630D01*
X114068878Y-102106475D01*
X114153434Y-102021919D01*
X114207723Y-101915372D01*
X114226429Y-101797264D01*
X114207723Y-101679156D01*
X114207723Y-101679155D01*
X114153436Y-101572612D01*
X114153435Y-101572611D01*
X114153434Y-101572609D01*
X114068878Y-101488053D01*
X114068875Y-101488051D01*
X114068874Y-101488050D01*
X113962331Y-101433763D01*
X113844223Y-101415058D01*
X113726115Y-101433763D01*
X113726114Y-101433763D01*
X113619571Y-101488050D01*
X113535009Y-101572612D01*
X113485858Y-101669077D01*
X113441884Y-101710083D01*
X113381839Y-101713230D01*
X113345384Y-101691326D01*
X111913467Y-100259409D01*
X111888056Y-100204915D01*
X111887722Y-100197254D01*
X111887722Y-99270073D01*
X111892384Y-99257264D01*
X112545124Y-99257264D01*
X112563829Y-99375371D01*
X112563829Y-99375372D01*
X112618116Y-99481915D01*
X112618117Y-99481916D01*
X112618119Y-99481919D01*
X112702675Y-99566475D01*
X112702677Y-99566476D01*
X112702678Y-99566477D01*
X112809221Y-99620764D01*
X112825369Y-99623321D01*
X112927330Y-99639470D01*
X113045438Y-99620764D01*
X113151985Y-99566475D01*
X113236541Y-99481919D01*
X113290830Y-99375372D01*
X113309536Y-99257264D01*
X113290830Y-99139156D01*
X113290830Y-99139155D01*
X113236543Y-99032612D01*
X113236542Y-99032611D01*
X113236541Y-99032609D01*
X113151985Y-98948053D01*
X113151982Y-98948051D01*
X113151981Y-98948050D01*
X113045438Y-98893763D01*
X112927330Y-98875058D01*
X112809222Y-98893763D01*
X112809221Y-98893763D01*
X112702678Y-98948050D01*
X112618116Y-99032612D01*
X112563829Y-99139155D01*
X112563829Y-99139156D01*
X112545124Y-99257264D01*
X111892384Y-99257264D01*
X111908287Y-99213572D01*
X111913456Y-99207929D01*
X113197345Y-97924040D01*
X113251838Y-97898630D01*
X113309916Y-97914193D01*
X113321654Y-97924041D01*
X114697345Y-99299732D01*
X114722756Y-99354226D01*
X114707193Y-99412304D01*
X114697345Y-99424041D01*
X114637724Y-99483661D01*
X114637723Y-99483664D01*
X114637723Y-99872391D01*
X114617158Y-99928892D01*
X114597798Y-99944294D01*
X114598377Y-99945090D01*
X114592781Y-99949155D01*
X114592779Y-99949157D01*
X114542764Y-99999172D01*
X114508220Y-100033716D01*
X114453933Y-100140259D01*
X114453933Y-100140260D01*
X114435228Y-100258368D01*
X114453933Y-100376475D01*
X114453933Y-100376476D01*
X114508220Y-100483019D01*
X114508221Y-100483020D01*
X114508223Y-100483023D01*
X114592779Y-100567579D01*
X114592781Y-100567580D01*
X114592782Y-100567581D01*
X114699325Y-100621868D01*
X114715473Y-100624425D01*
X114817434Y-100640574D01*
X114935542Y-100621868D01*
X115042089Y-100567579D01*
X115069709Y-100539958D01*
X115124200Y-100514549D01*
X115182278Y-100530110D01*
X115194017Y-100539959D01*
X115261938Y-100607880D01*
X115287349Y-100662374D01*
X115271786Y-100720452D01*
X115261939Y-100732189D01*
X115234316Y-100759811D01*
X115234316Y-100759812D01*
X115180029Y-100866355D01*
X115180029Y-100866356D01*
X115161324Y-100984464D01*
X115180029Y-101102571D01*
X115180029Y-101102572D01*
X115234316Y-101209115D01*
X115234317Y-101209116D01*
X115234319Y-101209119D01*
X115318875Y-101293675D01*
X115318877Y-101293676D01*
X115318878Y-101293677D01*
X115425421Y-101347964D01*
X115441569Y-101350521D01*
X115543530Y-101366670D01*
X115661638Y-101347964D01*
X115768185Y-101293675D01*
X115795805Y-101266054D01*
X115850296Y-101240645D01*
X115908374Y-101256206D01*
X115920113Y-101266055D01*
X117116861Y-102462803D01*
X117142272Y-102517297D01*
X117142606Y-102524958D01*
X117142606Y-103974948D01*
X117142606Y-104050932D01*
X117171684Y-104121133D01*
X117227780Y-104177229D01*
X117253191Y-104231722D01*
X117252443Y-104253132D01*
X117244124Y-104305663D01*
X117262829Y-104423771D01*
X117262829Y-104423772D01*
X117317116Y-104530315D01*
X117317117Y-104530316D01*
X117317119Y-104530319D01*
X117401675Y-104614875D01*
X117401677Y-104614876D01*
X117401678Y-104614877D01*
X117508221Y-104669164D01*
X117524369Y-104671721D01*
X117626330Y-104687870D01*
X117744438Y-104669164D01*
X117850985Y-104614875D01*
X117935541Y-104530319D01*
X117989830Y-104423772D01*
X118008536Y-104305664D01*
X117989830Y-104187556D01*
X117989830Y-104187555D01*
X117935543Y-104081012D01*
X117935542Y-104081011D01*
X117935541Y-104081009D01*
X117850985Y-103996453D01*
X117850982Y-103996451D01*
X117850981Y-103996450D01*
X117744438Y-103942163D01*
X117626330Y-103923458D01*
X117626327Y-103923458D01*
X117626245Y-103923471D01*
X117626178Y-103923458D01*
X117619413Y-103923458D01*
X117619413Y-103922142D01*
X117567224Y-103911990D01*
X117529391Y-103865257D01*
X117524606Y-103836651D01*
X117524606Y-103068361D01*
X117545171Y-103011860D01*
X117597242Y-102981796D01*
X117620238Y-102984314D01*
X117620238Y-102983664D01*
X117839911Y-102983664D01*
X117896412Y-103004229D01*
X117902065Y-103009409D01*
X117952898Y-103060241D01*
X117952902Y-103060244D01*
X118059445Y-103114531D01*
X118075593Y-103117088D01*
X118177554Y-103133237D01*
X118295662Y-103114531D01*
X118402209Y-103060242D01*
X118486765Y-102975686D01*
X118541054Y-102869139D01*
X118559760Y-102751031D01*
X118557049Y-102733913D01*
X118568522Y-102674892D01*
X118615250Y-102637053D01*
X118630113Y-102633347D01*
X118710762Y-102620574D01*
X118817309Y-102566285D01*
X118901865Y-102481729D01*
X118956154Y-102375182D01*
X118974860Y-102257074D01*
X118974860Y-102257073D01*
X118974860Y-102255286D01*
X118975361Y-102253908D01*
X118975942Y-102250242D01*
X118976654Y-102250354D01*
X118995425Y-102198785D01*
X119047496Y-102168721D01*
X119048930Y-102168481D01*
X119125862Y-102156297D01*
X119232409Y-102102008D01*
X119316965Y-102017452D01*
X119371254Y-101910905D01*
X119389960Y-101792797D01*
X119388575Y-101784054D01*
X119400045Y-101725034D01*
X119413229Y-101708156D01*
X119796362Y-101325023D01*
X119850853Y-101299614D01*
X119872264Y-101300362D01*
X119929866Y-101309485D01*
X120047974Y-101290779D01*
X120154521Y-101236490D01*
X120239077Y-101151934D01*
X120293366Y-101045387D01*
X120312072Y-100927279D01*
X120302949Y-100869677D01*
X120314422Y-100810655D01*
X120327604Y-100793781D01*
X121137721Y-99983665D01*
X121137721Y-99983663D01*
X121150084Y-99971301D01*
X121152819Y-99974036D01*
X121173143Y-99951845D01*
X121232754Y-99943982D01*
X121283473Y-99976275D01*
X121292069Y-99989895D01*
X121297289Y-100000140D01*
X121297291Y-100000142D01*
X121297293Y-100000145D01*
X121381849Y-100084701D01*
X121381851Y-100084702D01*
X121381852Y-100084703D01*
X121488395Y-100138990D01*
X121504543Y-100141547D01*
X121606504Y-100157696D01*
X121724612Y-100138990D01*
X121831159Y-100084701D01*
X121915715Y-100000145D01*
X121970004Y-99893598D01*
X121988710Y-99775490D01*
X121970004Y-99657382D01*
X121970004Y-99657381D01*
X121915717Y-99550838D01*
X121915716Y-99550837D01*
X121915715Y-99550835D01*
X121831159Y-99466279D01*
X121831156Y-99466277D01*
X121831155Y-99466276D01*
X121724612Y-99411989D01*
X121606504Y-99393284D01*
X121488396Y-99411989D01*
X121488395Y-99411989D01*
X121381852Y-99466276D01*
X121297287Y-99550841D01*
X121296729Y-99551610D01*
X121296084Y-99552044D01*
X121292402Y-99555727D01*
X121291686Y-99555011D01*
X121246879Y-99585229D01*
X121187081Y-99578939D01*
X121145317Y-99535683D01*
X121137721Y-99499938D01*
X121137721Y-99483664D01*
X119513959Y-97859902D01*
X119488548Y-97805408D01*
X119489295Y-97784007D01*
X119498536Y-97725664D01*
X119479830Y-97607556D01*
X119479830Y-97607555D01*
X119425543Y-97501012D01*
X119425542Y-97501011D01*
X119425541Y-97501009D01*
X119340985Y-97416453D01*
X119340982Y-97416451D01*
X119340981Y-97416450D01*
X119234438Y-97362163D01*
X119116330Y-97343458D01*
X119116329Y-97343458D01*
X119057994Y-97352696D01*
X118998972Y-97341222D01*
X118982090Y-97328033D01*
X118931851Y-97277794D01*
X118906440Y-97223300D01*
X118907187Y-97201903D01*
X118923258Y-97100435D01*
X118904552Y-96982327D01*
X118904552Y-96982326D01*
X118850265Y-96875783D01*
X118850264Y-96875782D01*
X118850263Y-96875780D01*
X118822694Y-96848211D01*
X118797284Y-96793719D01*
X118812847Y-96735641D01*
X118822689Y-96723909D01*
X118863994Y-96682605D01*
X118918283Y-96576058D01*
X118936989Y-96457950D01*
X118918283Y-96339842D01*
X118918283Y-96339841D01*
X118863996Y-96233298D01*
X118863995Y-96233297D01*
X118863994Y-96233295D01*
X118779438Y-96148739D01*
X118779435Y-96148737D01*
X118779434Y-96148736D01*
X118672891Y-96094449D01*
X118554783Y-96075744D01*
X118436675Y-96094449D01*
X118436674Y-96094449D01*
X118330131Y-96148736D01*
X118245569Y-96233298D01*
X118191282Y-96339841D01*
X118191280Y-96339847D01*
X118191279Y-96339860D01*
X118191274Y-96339868D01*
X118189144Y-96346424D01*
X118187868Y-96346009D01*
X118162121Y-96392444D01*
X118105985Y-96413984D01*
X118049136Y-96394400D01*
X118042318Y-96388261D01*
X117887722Y-96233665D01*
X117887721Y-96233665D01*
X117364650Y-96756735D01*
X117310156Y-96782146D01*
X117252077Y-96766583D01*
X117224176Y-96734487D01*
X117182647Y-96652981D01*
X117098091Y-96568425D01*
X117098088Y-96568423D01*
X117095535Y-96565870D01*
X117070124Y-96511376D01*
X117085687Y-96453298D01*
X117095524Y-96441572D01*
X117815652Y-95721445D01*
X117844730Y-95651244D01*
X117844730Y-95575260D01*
X117844730Y-94730315D01*
X117865295Y-94673814D01*
X117870475Y-94668161D01*
X118016053Y-94522582D01*
X118070547Y-94497171D01*
X118118114Y-94506417D01*
X118219557Y-94558105D01*
X118235705Y-94560662D01*
X118337666Y-94576811D01*
X118455774Y-94558105D01*
X118562321Y-94503816D01*
X118646877Y-94419260D01*
X118701166Y-94312713D01*
X118710494Y-94253814D01*
X118739644Y-94201227D01*
X118795777Y-94179678D01*
X118852628Y-94199253D01*
G37*
%TD.AperFunction*%
%TA.AperFunction,Conductor*%
G36*
X115275313Y-95948795D02*
G01*
X115309801Y-95998048D01*
X115311714Y-96034547D01*
X115299259Y-96113192D01*
X115299259Y-96113193D01*
X115317964Y-96231301D01*
X115317964Y-96231302D01*
X115372251Y-96337845D01*
X115372252Y-96337846D01*
X115372254Y-96337849D01*
X115456810Y-96422405D01*
X115456812Y-96422406D01*
X115456813Y-96422407D01*
X115563356Y-96476694D01*
X115579504Y-96479251D01*
X115681465Y-96495400D01*
X115799573Y-96476694D01*
X115906120Y-96422405D01*
X115990676Y-96337849D01*
X115990677Y-96337846D01*
X115995567Y-96332957D01*
X115997302Y-96334692D01*
X116038656Y-96306804D01*
X116059915Y-96304194D01*
X116594536Y-96304194D01*
X116651037Y-96324759D01*
X116681101Y-96376830D01*
X116682436Y-96392094D01*
X116682436Y-96499186D01*
X116661871Y-96555687D01*
X116653568Y-96563429D01*
X116653673Y-96563534D01*
X116648782Y-96568424D01*
X116648781Y-96568425D01*
X116564225Y-96652981D01*
X116564222Y-96652984D01*
X116509935Y-96759527D01*
X116509935Y-96759528D01*
X116491230Y-96877636D01*
X116509935Y-96995743D01*
X116509935Y-96995744D01*
X116564222Y-97102287D01*
X116564223Y-97102288D01*
X116564225Y-97102291D01*
X116648781Y-97186847D01*
X116730286Y-97228376D01*
X116771292Y-97272349D01*
X116774439Y-97332394D01*
X116752535Y-97368850D01*
X116261926Y-97859459D01*
X116207432Y-97884870D01*
X116186022Y-97884122D01*
X116128421Y-97875000D01*
X116010313Y-97893705D01*
X116010312Y-97893705D01*
X115903769Y-97947992D01*
X115819208Y-98032553D01*
X115795700Y-98078689D01*
X115751725Y-98119695D01*
X115691680Y-98122841D01*
X115655226Y-98100937D01*
X114399992Y-96845703D01*
X114374581Y-96791209D01*
X114390144Y-96733131D01*
X114399986Y-96721399D01*
X115162744Y-95958641D01*
X115217235Y-95933232D01*
X115275313Y-95948795D01*
G37*
%TD.AperFunction*%
%TA.AperFunction,Conductor*%
G36*
X117457179Y-93766930D02*
G01*
X117491667Y-93816183D01*
X117493579Y-93825178D01*
X117494886Y-93833431D01*
X117494887Y-93833433D01*
X117546576Y-93934879D01*
X117553903Y-93994558D01*
X117530411Y-94036939D01*
X117240737Y-94326614D01*
X117240736Y-94326613D01*
X117187009Y-94380341D01*
X117187007Y-94380343D01*
X117157930Y-94450544D01*
X117157930Y-95371473D01*
X117137365Y-95427974D01*
X117132185Y-95433628D01*
X116669364Y-95896449D01*
X116614870Y-95921860D01*
X116607209Y-95922194D01*
X116059915Y-95922194D01*
X116003414Y-95901629D01*
X115995671Y-95893326D01*
X115995567Y-95893431D01*
X115990677Y-95888541D01*
X115990676Y-95888539D01*
X115906120Y-95803983D01*
X115906117Y-95803981D01*
X115906116Y-95803980D01*
X115799573Y-95749693D01*
X115681465Y-95730988D01*
X115681464Y-95730988D01*
X115602818Y-95743443D01*
X115543796Y-95731969D01*
X115505957Y-95685241D01*
X115507008Y-95625123D01*
X115526910Y-95594475D01*
X117344608Y-93776777D01*
X117399101Y-93751367D01*
X117457179Y-93766930D01*
G37*
%TD.AperFunction*%
%TD*%
M02*
