%TF.GenerationSoftware,KiCad,Pcbnew,8.0.3*%
%TF.CreationDate,2024-06-25T22:30:56+08:00*%
%TF.ProjectId,SB-main-board,53422d6d-6169-46e2-9d62-6f6172642e6b,A0*%
%TF.SameCoordinates,Original*%
%TF.FileFunction,Paste,Bot*%
%TF.FilePolarity,Positive*%
%FSLAX46Y46*%
G04 Gerber Fmt 4.6, Leading zero omitted, Abs format (unit mm)*
G04 Created by KiCad (PCBNEW 8.0.3) date 2024-06-25 22:30:56*
%MOMM*%
%LPD*%
G01*
G04 APERTURE LIST*
G04 Aperture macros list*
%AMRoundRect*
0 Rectangle with rounded corners*
0 $1 Rounding radius*
0 $2 $3 $4 $5 $6 $7 $8 $9 X,Y pos of 4 corners*
0 Add a 4 corners polygon primitive as box body*
4,1,4,$2,$3,$4,$5,$6,$7,$8,$9,$2,$3,0*
0 Add four circle primitives for the rounded corners*
1,1,$1+$1,$2,$3*
1,1,$1+$1,$4,$5*
1,1,$1+$1,$6,$7*
1,1,$1+$1,$8,$9*
0 Add four rect primitives between the rounded corners*
20,1,$1+$1,$2,$3,$4,$5,0*
20,1,$1+$1,$4,$5,$6,$7,0*
20,1,$1+$1,$6,$7,$8,$9,0*
20,1,$1+$1,$8,$9,$2,$3,0*%
G04 Aperture macros list end*
%ADD10RoundRect,0.140000X-0.219203X-0.021213X-0.021213X-0.219203X0.219203X0.021213X0.021213X0.219203X0*%
%ADD11RoundRect,0.250000X0.405000X0.405000X-0.405000X0.405000X-0.405000X-0.405000X0.405000X-0.405000X0*%
%ADD12RoundRect,0.075000X0.337500X0.075000X-0.337500X0.075000X-0.337500X-0.075000X0.337500X-0.075000X0*%
%ADD13RoundRect,0.075000X0.075000X0.337500X-0.075000X0.337500X-0.075000X-0.337500X0.075000X-0.337500X0*%
%ADD14RoundRect,0.200000X0.275000X-0.200000X0.275000X0.200000X-0.275000X0.200000X-0.275000X-0.200000X0*%
%ADD15RoundRect,0.140000X0.170000X-0.140000X0.170000X0.140000X-0.170000X0.140000X-0.170000X-0.140000X0*%
%ADD16RoundRect,0.140000X0.140000X0.170000X-0.140000X0.170000X-0.140000X-0.170000X0.140000X-0.170000X0*%
%ADD17RoundRect,0.140000X-0.140000X-0.170000X0.140000X-0.170000X0.140000X0.170000X-0.140000X0.170000X0*%
%ADD18RoundRect,0.135000X-0.185000X0.135000X-0.185000X-0.135000X0.185000X-0.135000X0.185000X0.135000X0*%
%ADD19RoundRect,0.135000X-0.135000X-0.185000X0.135000X-0.185000X0.135000X0.185000X-0.135000X0.185000X0*%
%ADD20RoundRect,0.140000X0.021213X-0.219203X0.219203X-0.021213X-0.021213X0.219203X-0.219203X0.021213X0*%
%ADD21RoundRect,0.140000X0.219203X0.021213X0.021213X0.219203X-0.219203X-0.021213X-0.021213X-0.219203X0*%
%ADD22RoundRect,0.250000X-0.250000X-2.500000X0.250000X-2.500000X0.250000X2.500000X-0.250000X2.500000X0*%
%ADD23RoundRect,0.250000X-0.550000X-1.250000X0.550000X-1.250000X0.550000X1.250000X-0.550000X1.250000X0*%
%ADD24RoundRect,0.250000X-0.250000X-0.475000X0.250000X-0.475000X0.250000X0.475000X-0.250000X0.475000X0*%
%ADD25RoundRect,0.218750X0.256250X-0.218750X0.256250X0.218750X-0.256250X0.218750X-0.256250X-0.218750X0*%
%ADD26RoundRect,0.150000X-0.587500X-0.150000X0.587500X-0.150000X0.587500X0.150000X-0.587500X0.150000X0*%
%ADD27RoundRect,0.225000X0.017678X-0.335876X0.335876X-0.017678X-0.017678X0.335876X-0.335876X0.017678X0*%
%ADD28RoundRect,0.218750X-0.218750X-0.256250X0.218750X-0.256250X0.218750X0.256250X-0.218750X0.256250X0*%
%ADD29RoundRect,0.150000X-0.425000X0.150000X-0.425000X-0.150000X0.425000X-0.150000X0.425000X0.150000X0*%
%ADD30RoundRect,0.075000X-0.500000X0.075000X-0.500000X-0.075000X0.500000X-0.075000X0.500000X0.075000X0*%
%ADD31O,1.800000X1.000000*%
%ADD32O,2.100000X1.000000*%
%ADD33RoundRect,0.160000X0.060104X0.286378X-0.286378X-0.060104X-0.060104X-0.286378X0.286378X0.060104X0*%
%ADD34RoundRect,0.093750X-0.008839X0.141421X-0.141421X0.008839X0.008839X-0.141421X0.141421X-0.008839X0*%
%ADD35RoundRect,0.135000X0.135000X0.185000X-0.135000X0.185000X-0.135000X-0.185000X0.135000X-0.185000X0*%
%ADD36RoundRect,0.150000X-0.512500X-0.150000X0.512500X-0.150000X0.512500X0.150000X-0.512500X0.150000X0*%
%ADD37RoundRect,0.075000X0.340000X0.075000X-0.340000X0.075000X-0.340000X-0.075000X0.340000X-0.075000X0*%
%ADD38RoundRect,0.127500X0.127500X0.190000X-0.127500X0.190000X-0.127500X-0.190000X0.127500X-0.190000X0*%
%ADD39RoundRect,0.225000X-0.017678X0.335876X-0.335876X0.017678X0.017678X-0.335876X0.335876X-0.017678X0*%
%ADD40RoundRect,0.135000X0.185000X-0.135000X0.185000X0.135000X-0.185000X0.135000X-0.185000X-0.135000X0*%
%ADD41RoundRect,0.150000X-0.325000X-0.150000X0.325000X-0.150000X0.325000X0.150000X-0.325000X0.150000X0*%
%ADD42RoundRect,0.150000X-0.150000X-0.325000X0.150000X-0.325000X0.150000X0.325000X-0.150000X0.325000X0*%
G04 APERTURE END LIST*
D10*
%TO.C,C5*%
X116458621Y-98587406D03*
X117137443Y-99266228D03*
%TD*%
D11*
%TO.C,U9*%
X96716330Y-88980665D03*
X96716330Y-87360665D03*
X95096330Y-88980665D03*
X95096330Y-87360665D03*
D12*
X98343830Y-86870665D03*
X98343830Y-87520665D03*
X98343830Y-88170665D03*
X98343830Y-88820665D03*
X98343830Y-89470665D03*
D13*
X97206330Y-90608165D03*
X96556330Y-90608165D03*
X95906330Y-90608165D03*
X95256330Y-90608165D03*
X94606330Y-90608165D03*
D12*
X93468830Y-89470665D03*
X93468830Y-88820665D03*
X93468830Y-88170665D03*
X93468830Y-87520665D03*
X93468830Y-86870665D03*
D13*
X94606330Y-85733165D03*
X95256330Y-85733165D03*
X95906330Y-85733165D03*
X96556330Y-85733165D03*
X97206330Y-85733165D03*
%TD*%
D14*
%TO.C,R17*%
X99870330Y-88670665D03*
X99870330Y-87020665D03*
%TD*%
D15*
%TO.C,C30*%
X77370330Y-91155664D03*
X77370330Y-90195664D03*
%TD*%
D16*
%TO.C,C31*%
X95376330Y-84560665D03*
X94416330Y-84560665D03*
%TD*%
D17*
%TO.C,C23*%
X108536122Y-76561165D03*
X109496122Y-76561165D03*
%TD*%
D18*
%TO.C,R9*%
X115866722Y-82923665D03*
X115866722Y-83943665D03*
%TD*%
D19*
%TO.C,R7*%
X122885330Y-91226164D03*
X123905330Y-91226164D03*
%TD*%
D20*
%TO.C,C9*%
X117307149Y-101728450D03*
X117985971Y-101049628D03*
%TD*%
D21*
%TO.C,C4*%
X119599666Y-100597079D03*
X118920844Y-99918257D03*
%TD*%
D16*
%TO.C,C32*%
X95376330Y-83640665D03*
X94416330Y-83640665D03*
%TD*%
D22*
%TO.C,J3*%
X120076330Y-72805664D03*
X118076330Y-72805664D03*
X116076330Y-72805664D03*
X114076330Y-72805664D03*
D23*
X122476330Y-70555664D03*
X111676330Y-70555664D03*
%TD*%
D24*
%TO.C,C26*%
X107737723Y-78946165D03*
X109637723Y-78946165D03*
%TD*%
D25*
%TO.C,FB2*%
X124027722Y-78961164D03*
X124027722Y-77386164D03*
%TD*%
D26*
%TO.C,U10*%
X116718830Y-93285664D03*
X116718830Y-91385664D03*
X118593830Y-92335664D03*
%TD*%
D25*
%TO.C,FB3*%
X74220330Y-76524364D03*
X74220330Y-74949364D03*
%TD*%
D27*
%TO.C,C18*%
X108725429Y-99529403D03*
X109821445Y-98433387D03*
%TD*%
D16*
%TO.C,C29*%
X74128472Y-87755664D03*
X73168472Y-87755664D03*
%TD*%
D28*
%TO.C,FB5*%
X96556330Y-84100665D03*
X98131332Y-84100665D03*
%TD*%
D16*
%TO.C,C24*%
X112239322Y-76561165D03*
X111279322Y-76561165D03*
%TD*%
D10*
%TO.C,C8*%
X121298023Y-102861122D03*
X121976845Y-103539944D03*
%TD*%
D29*
%TO.C,J2*%
X117507722Y-81993664D03*
X117507722Y-82793664D03*
D30*
X117507722Y-83943664D03*
X117507722Y-84943664D03*
X117507722Y-85443664D03*
X117507722Y-86443664D03*
D29*
X117507722Y-87593664D03*
X117507722Y-88393664D03*
X117507722Y-88393664D03*
X117507722Y-87593664D03*
D30*
X117507722Y-86943664D03*
X117507722Y-85943664D03*
X117507722Y-84443664D03*
X117507722Y-83443664D03*
D29*
X117507722Y-82793664D03*
X117507722Y-81993664D03*
D31*
X122262722Y-80873664D03*
D32*
X118082722Y-80873664D03*
D31*
X122262722Y-89513664D03*
D32*
X118082722Y-89513664D03*
%TD*%
D33*
%TO.C,U5*%
X110978680Y-100686638D03*
X110412994Y-100120952D03*
D34*
X110863775Y-99316618D03*
X111323394Y-99776238D03*
X111783014Y-100235857D03*
X110527899Y-101490972D03*
X110068280Y-101031352D03*
X109608660Y-100571733D03*
%TD*%
D35*
%TO.C,R19*%
X112105330Y-85185664D03*
X111085330Y-85185664D03*
%TD*%
D36*
%TO.C,U7*%
X73545330Y-91155664D03*
X73545330Y-90205664D03*
X73545330Y-89255664D03*
X75820330Y-89255664D03*
X75820330Y-91155664D03*
%TD*%
D16*
%TO.C,C25*%
X106637722Y-76983665D03*
X105677722Y-76983665D03*
%TD*%
D15*
%TO.C,S1*%
X99630330Y-91035664D03*
X99630330Y-90349864D03*
X99630330Y-89664064D03*
%TD*%
D37*
%TO.C,Q1*%
X111085330Y-83772964D03*
X111085330Y-83122964D03*
X111085330Y-82472964D03*
X111085330Y-81822964D03*
D38*
X109765330Y-83423964D03*
X109765330Y-82171964D03*
X108905330Y-83423964D03*
X108905330Y-82171964D03*
D37*
X107975330Y-83772964D03*
X107975330Y-83122964D03*
X107975330Y-82472964D03*
X107975330Y-81822964D03*
%TD*%
D35*
%TO.C,R20*%
X112105330Y-86155664D03*
X111085330Y-86155664D03*
%TD*%
D39*
%TO.C,C19*%
X112666245Y-101278187D03*
X111570229Y-102374203D03*
%TD*%
D40*
%TO.C,R8*%
X115866722Y-87963663D03*
X115866722Y-86943663D03*
%TD*%
D41*
%TO.C,U8*%
X74128472Y-86406664D03*
X74128472Y-85606664D03*
X74128472Y-84806664D03*
X74128472Y-84006664D03*
X74128472Y-83206664D03*
X74128472Y-82406664D03*
D42*
X75128472Y-82406664D03*
D41*
X76128472Y-82406664D03*
X76128472Y-83206664D03*
X76128472Y-84006664D03*
X76128472Y-84806664D03*
X76128472Y-85606664D03*
X76128472Y-86406664D03*
D42*
X75128472Y-86406664D03*
%TD*%
M02*
