%TF.GenerationSoftware,KiCad,Pcbnew,8.0.7*%
%TF.CreationDate,2024-12-19T09:10:00+08:00*%
%TF.ProjectId,SB-main-board,53422d6d-6169-46e2-9d62-6f6172642e6b,B1*%
%TF.SameCoordinates,Original*%
%TF.FileFunction,Paste,Top*%
%TF.FilePolarity,Positive*%
%FSLAX46Y46*%
G04 Gerber Fmt 4.6, Leading zero omitted, Abs format (unit mm)*
G04 Created by KiCad (PCBNEW 8.0.7) date 2024-12-19 09:10:00*
%MOMM*%
%LPD*%
G01*
G04 APERTURE LIST*
G04 Aperture macros list*
%AMRoundRect*
0 Rectangle with rounded corners*
0 $1 Rounding radius*
0 $2 $3 $4 $5 $6 $7 $8 $9 X,Y pos of 4 corners*
0 Add a 4 corners polygon primitive as box body*
4,1,4,$2,$3,$4,$5,$6,$7,$8,$9,$2,$3,0*
0 Add four circle primitives for the rounded corners*
1,1,$1+$1,$2,$3*
1,1,$1+$1,$4,$5*
1,1,$1+$1,$6,$7*
1,1,$1+$1,$8,$9*
0 Add four rect primitives between the rounded corners*
20,1,$1+$1,$2,$3,$4,$5,0*
20,1,$1+$1,$4,$5,$6,$7,0*
20,1,$1+$1,$6,$7,$8,$9,0*
20,1,$1+$1,$8,$9,$2,$3,0*%
%AMRotRect*
0 Rectangle, with rotation*
0 The origin of the aperture is its center*
0 $1 length*
0 $2 width*
0 $3 Rotation angle, in degrees counterclockwise*
0 Add horizontal line*
21,1,$1,$2,0,0,$3*%
G04 Aperture macros list end*
%ADD10R,1.350000X1.000000*%
%ADD11RoundRect,0.200000X-0.200000X-0.600000X0.200000X-0.600000X0.200000X0.600000X-0.200000X0.600000X0*%
%ADD12RoundRect,0.250001X-0.799999X-1.249999X0.799999X-1.249999X0.799999X1.249999X-0.799999X1.249999X0*%
%ADD13RoundRect,0.147500X-0.147500X-0.172500X0.147500X-0.172500X0.147500X0.172500X-0.147500X0.172500X0*%
%ADD14RoundRect,0.135000X-0.135000X-0.185000X0.135000X-0.185000X0.135000X0.185000X-0.135000X0.185000X0*%
%ADD15RoundRect,0.135000X-0.035355X0.226274X-0.226274X0.035355X0.035355X-0.226274X0.226274X-0.035355X0*%
%ADD16RoundRect,0.225000X0.250000X-0.225000X0.250000X0.225000X-0.250000X0.225000X-0.250000X-0.225000X0*%
%ADD17RoundRect,0.135000X-0.185000X0.135000X-0.185000X-0.135000X0.185000X-0.135000X0.185000X0.135000X0*%
%ADD18RoundRect,0.140000X0.170000X-0.140000X0.170000X0.140000X-0.170000X0.140000X-0.170000X-0.140000X0*%
%ADD19RoundRect,0.063500X-0.197566X-0.287368X0.287368X0.197566X0.197566X0.287368X-0.287368X-0.197566X0*%
%ADD20RotRect,0.203200X1.600200X45.000000*%
%ADD21RoundRect,0.140000X0.219203X0.021213X0.021213X0.219203X-0.219203X-0.021213X-0.021213X-0.219203X0*%
%ADD22RoundRect,0.140000X-0.021213X0.219203X-0.219203X0.021213X0.021213X-0.219203X0.219203X-0.021213X0*%
%ADD23RoundRect,0.140000X-0.219203X-0.021213X-0.021213X-0.219203X0.219203X0.021213X0.021213X0.219203X0*%
%ADD24RoundRect,0.140000X0.021213X-0.219203X0.219203X-0.021213X-0.021213X0.219203X-0.219203X0.021213X0*%
%ADD25RoundRect,0.250000X-0.255000X-0.255000X0.255000X-0.255000X0.255000X0.255000X-0.255000X0.255000X0*%
%ADD26RoundRect,0.062500X-0.325000X-0.062500X0.325000X-0.062500X0.325000X0.062500X-0.325000X0.062500X0*%
%ADD27RoundRect,0.062500X-0.062500X-0.325000X0.062500X-0.325000X0.062500X0.325000X-0.062500X0.325000X0*%
%ADD28RoundRect,0.110000X-1.390000X0.440000X-1.390000X-0.440000X1.390000X-0.440000X1.390000X0.440000X0*%
%ADD29RoundRect,0.261905X-1.338095X-0.838095X1.338095X-0.838095X1.338095X0.838095X-1.338095X0.838095X0*%
%ADD30RotRect,1.150000X1.000000X315.000000*%
%ADD31RoundRect,0.250000X0.475000X-0.250000X0.475000X0.250000X-0.475000X0.250000X-0.475000X-0.250000X0*%
%ADD32RoundRect,0.140000X0.140000X0.170000X-0.140000X0.170000X-0.140000X-0.170000X0.140000X-0.170000X0*%
%ADD33RoundRect,0.135000X0.226274X0.035355X0.035355X0.226274X-0.226274X-0.035355X-0.035355X-0.226274X0*%
%ADD34RoundRect,0.140000X-0.140000X-0.170000X0.140000X-0.170000X0.140000X0.170000X-0.140000X0.170000X0*%
%ADD35RoundRect,0.250000X-1.500000X-0.550000X1.500000X-0.550000X1.500000X0.550000X-1.500000X0.550000X0*%
%ADD36RoundRect,0.250000X-0.475000X0.250000X-0.475000X-0.250000X0.475000X-0.250000X0.475000X0.250000X0*%
%ADD37RoundRect,0.135000X0.135000X0.185000X-0.135000X0.185000X-0.135000X-0.185000X0.135000X-0.185000X0*%
%ADD38RoundRect,0.249999X0.000000X-0.558616X0.558616X0.000000X0.000000X0.558616X-0.558616X0.000000X0*%
%ADD39RoundRect,0.050000X-0.238649X-0.309359X0.309359X0.238649X0.238649X0.309359X-0.309359X-0.238649X0*%
%ADD40RoundRect,0.050000X0.238649X-0.309359X0.309359X-0.238649X-0.238649X0.309359X-0.309359X0.238649X0*%
%ADD41RoundRect,0.160000X0.160000X-0.245000X0.160000X0.245000X-0.160000X0.245000X-0.160000X-0.245000X0*%
%ADD42RoundRect,0.093750X0.106250X-0.093750X0.106250X0.093750X-0.106250X0.093750X-0.106250X-0.093750X0*%
%ADD43RoundRect,0.140000X-0.170000X0.140000X-0.170000X-0.140000X0.170000X-0.140000X0.170000X0.140000X0*%
%ADD44RoundRect,0.200000X0.200000X0.450000X-0.200000X0.450000X-0.200000X-0.450000X0.200000X-0.450000X0*%
%ADD45RoundRect,0.250001X0.799999X1.249999X-0.799999X1.249999X-0.799999X-1.249999X0.799999X-1.249999X0*%
%ADD46RoundRect,0.250000X0.262500X0.450000X-0.262500X0.450000X-0.262500X-0.450000X0.262500X-0.450000X0*%
%ADD47RoundRect,0.250000X-0.262500X-0.450000X0.262500X-0.450000X0.262500X0.450000X-0.262500X0.450000X0*%
%ADD48RoundRect,0.147500X0.172500X-0.147500X0.172500X0.147500X-0.172500X0.147500X-0.172500X-0.147500X0*%
%ADD49RoundRect,0.150000X0.512500X0.150000X-0.512500X0.150000X-0.512500X-0.150000X0.512500X-0.150000X0*%
%ADD50RoundRect,0.075000X0.225000X-0.075000X0.225000X0.075000X-0.225000X0.075000X-0.225000X-0.075000X0*%
%ADD51RoundRect,0.225000X-0.250000X0.225000X-0.250000X-0.225000X0.250000X-0.225000X0.250000X0.225000X0*%
%ADD52RoundRect,0.135000X0.035355X-0.226274X0.226274X-0.035355X-0.035355X0.226274X-0.226274X0.035355X0*%
%ADD53R,1.000000X0.600000*%
%ADD54R,0.350000X0.650000*%
G04 APERTURE END LIST*
D10*
%TO.C,SW1*%
X109255330Y-106623664D03*
X109255330Y-104923664D03*
X114305330Y-104923664D03*
X114305330Y-106623664D03*
%TD*%
D11*
%TO.C,J7*%
X77461330Y-95035664D03*
X78711330Y-95035664D03*
X79961330Y-95035664D03*
X81211330Y-95035664D03*
D12*
X74911330Y-97935664D03*
X83761330Y-97935664D03*
%TD*%
D13*
%TO.C,D4*%
X102216330Y-83805664D03*
X103186330Y-83805664D03*
%TD*%
D14*
%TO.C,R14*%
X105647722Y-75483665D03*
X106667722Y-75483665D03*
%TD*%
D15*
%TO.C,R2*%
X110170829Y-95894303D03*
X109449581Y-96615551D03*
%TD*%
D11*
%TO.C,J4*%
X93230330Y-87030664D03*
X94480330Y-87030664D03*
X95730330Y-87030664D03*
X96980330Y-87030664D03*
D12*
X90680330Y-89930664D03*
X99530330Y-89930664D03*
%TD*%
D16*
%TO.C,C17*%
X85805329Y-84278165D03*
X85805329Y-82728165D03*
%TD*%
D17*
%TO.C,R6*%
X124725330Y-99253664D03*
X124725330Y-100273664D03*
%TD*%
D18*
%TO.C,C21*%
X114087722Y-77443665D03*
X114087722Y-76483665D03*
%TD*%
D19*
%TO.C,U2*%
X110186181Y-97352151D03*
X110539735Y-97705705D03*
X110893289Y-98059259D03*
X111246843Y-98412813D03*
X113224479Y-96435177D03*
X112870925Y-96081623D03*
X112517371Y-95728069D03*
X112163817Y-95374515D03*
D20*
X111705330Y-96893664D03*
%TD*%
D21*
%TO.C,C11*%
X112780365Y-101164066D03*
X112101543Y-100485244D03*
%TD*%
D22*
%TO.C,C3*%
X124298261Y-106031067D03*
X123619439Y-106709889D03*
%TD*%
D23*
%TO.C,C2*%
X120381357Y-105611734D03*
X121060179Y-106290556D03*
%TD*%
D24*
%TO.C,C7*%
X119318124Y-94626307D03*
X119996946Y-93947485D03*
%TD*%
D25*
%TO.C,U6*%
X109137722Y-75233665D03*
X109137722Y-76483665D03*
X109137722Y-77733665D03*
X110387722Y-75233665D03*
X110387722Y-76483665D03*
X110387722Y-77733665D03*
X111637722Y-75233665D03*
X111637722Y-76483665D03*
X111637722Y-77733665D03*
D26*
X107925222Y-74983665D03*
X107925222Y-75483665D03*
X107925222Y-75983665D03*
X107925222Y-76483665D03*
X107925222Y-76983665D03*
X107925222Y-77483665D03*
X107925222Y-77983665D03*
D27*
X108887722Y-78946165D03*
X109387722Y-78946165D03*
X109887722Y-78946165D03*
X110387722Y-78946165D03*
X110887722Y-78946165D03*
X111387722Y-78946165D03*
X111887722Y-78946165D03*
D26*
X112850222Y-77983665D03*
X112850222Y-77483665D03*
X112850222Y-76983665D03*
X112850222Y-76483665D03*
X112850222Y-75983665D03*
X112850222Y-75483665D03*
X112850222Y-74983665D03*
D27*
X111887722Y-74021165D03*
X111387722Y-74021165D03*
X110887722Y-74021165D03*
X110387722Y-74021165D03*
X109887722Y-74021165D03*
X109387722Y-74021165D03*
X108887722Y-74021165D03*
%TD*%
D14*
%TO.C,R3*%
X108135330Y-102943664D03*
X109155330Y-102943664D03*
%TD*%
D21*
%TO.C,C6*%
X115507192Y-95373235D03*
X114828370Y-94694413D03*
%TD*%
D28*
%TO.C,L1*%
X88435328Y-79393165D03*
X88435328Y-81293165D03*
%TD*%
D29*
%TO.C,TP1*%
X110414730Y-87877964D03*
%TD*%
D30*
%TO.C,Y1*%
X121295757Y-104697334D03*
X122533194Y-105934771D03*
X123523143Y-104944822D03*
X122285706Y-103707385D03*
%TD*%
D31*
%TO.C,C18*%
X91975328Y-81293164D03*
X91975328Y-79393166D03*
%TD*%
D32*
%TO.C,C34*%
X116370330Y-92585664D03*
X115410330Y-92585664D03*
%TD*%
D33*
%TO.C,R5*%
X124437543Y-104030422D03*
X123716295Y-103309174D03*
%TD*%
D34*
%TO.C,C33*%
X94620330Y-85265664D03*
X95580330Y-85265664D03*
%TD*%
D18*
%TO.C,C20*%
X106787722Y-78793664D03*
X106787722Y-77833664D03*
%TD*%
D35*
%TO.C,C22*%
X117695330Y-72793664D03*
X123095330Y-72793664D03*
%TD*%
D21*
%TO.C,C13*%
X116214298Y-94666129D03*
X115535476Y-93987307D03*
%TD*%
D36*
%TO.C,C16*%
X85805329Y-76875664D03*
X85805329Y-78775662D03*
%TD*%
D37*
%TO.C,R18*%
X103186330Y-82797964D03*
X102166330Y-82797964D03*
%TD*%
D38*
%TO.C,U1*%
X116756351Y-99733664D03*
X117887722Y-100865035D03*
X117887722Y-98602293D03*
X119019093Y-99733664D03*
D39*
X113618565Y-100325866D03*
X113901408Y-100608709D03*
X114184250Y-100891551D03*
X114467093Y-101174394D03*
X114749936Y-101457237D03*
X115032778Y-101740079D03*
X115315621Y-102022922D03*
X115598464Y-102305765D03*
X115881307Y-102588608D03*
X116164149Y-102871450D03*
X116446992Y-103154293D03*
X116729835Y-103437136D03*
X117012677Y-103719978D03*
X117295520Y-104002821D03*
D40*
X118479924Y-104002821D03*
X118762767Y-103719978D03*
X119045609Y-103437136D03*
X119328452Y-103154293D03*
X119611295Y-102871450D03*
X119894137Y-102588608D03*
X120176980Y-102305765D03*
X120459823Y-102022922D03*
X120742666Y-101740079D03*
X121025508Y-101457237D03*
X121308351Y-101174394D03*
X121591194Y-100891551D03*
X121874036Y-100608709D03*
X122156879Y-100325866D03*
D39*
X122156879Y-99141462D03*
X121874036Y-98858619D03*
X121591194Y-98575777D03*
X121308351Y-98292934D03*
X121025508Y-98010091D03*
X120742666Y-97727249D03*
X120459823Y-97444406D03*
X120176980Y-97161563D03*
X119894137Y-96878720D03*
X119611295Y-96595878D03*
X119328452Y-96313035D03*
X119045609Y-96030192D03*
X118762767Y-95747350D03*
X118479924Y-95464507D03*
D40*
X117295520Y-95464507D03*
X117012677Y-95747350D03*
X116729835Y-96030192D03*
X116446992Y-96313035D03*
X116164149Y-96595878D03*
X115881307Y-96878720D03*
X115598464Y-97161563D03*
X115315621Y-97444406D03*
X115032778Y-97727249D03*
X114749936Y-98010091D03*
X114467093Y-98292934D03*
X114184250Y-98575777D03*
X113901408Y-98858619D03*
X113618565Y-99141462D03*
%TD*%
D14*
%TO.C,R12*%
X91425328Y-75925665D03*
X92445326Y-75925665D03*
%TD*%
D41*
%TO.C,U5*%
X87416908Y-83503164D03*
X88216908Y-83503164D03*
D42*
X87166908Y-84390664D03*
X87816908Y-84390664D03*
X88466908Y-84390664D03*
X88466908Y-82615664D03*
X87816908Y-82615664D03*
X87166908Y-82615664D03*
%TD*%
D43*
%TO.C,C35*%
X84325329Y-76875664D03*
X84325329Y-77835664D03*
%TD*%
D44*
%TO.C,J8*%
X101419330Y-73489664D03*
X100169330Y-73489664D03*
X98919330Y-73489664D03*
X97669330Y-73489664D03*
D45*
X103969330Y-70739664D03*
X95119330Y-70739664D03*
%TD*%
D21*
%TO.C,C12*%
X114800086Y-96080341D03*
X114121264Y-95401519D03*
%TD*%
D46*
%TO.C,R16*%
X108837722Y-72383664D03*
X107012722Y-72383664D03*
%TD*%
D29*
%TO.C,TP2*%
X107870330Y-82797964D03*
%TD*%
D18*
%TO.C,C27*%
X111937722Y-70963664D03*
X111937722Y-70003664D03*
%TD*%
D47*
%TO.C,R15*%
X111937722Y-72383664D03*
X113762722Y-72383664D03*
%TD*%
D43*
%TO.C,C14*%
X123746922Y-95345664D03*
X123746922Y-96305664D03*
%TD*%
D18*
%TO.C,C28*%
X108837722Y-70963664D03*
X108837722Y-70003664D03*
%TD*%
D48*
%TO.C,D1*%
X124725330Y-102179064D03*
X124725330Y-101209064D03*
%TD*%
D17*
%TO.C,R13*%
X91425328Y-76883167D03*
X91425328Y-77903165D03*
%TD*%
D49*
%TO.C,U4*%
X90042828Y-77825664D03*
X90042828Y-76875664D03*
X90042828Y-75925664D03*
X87767828Y-75925664D03*
X87767828Y-76875664D03*
X87767828Y-77825664D03*
%TD*%
D50*
%TO.C,D2*%
X115687722Y-88343664D03*
X115687722Y-87643664D03*
%TD*%
D51*
%TO.C,C19*%
X89828484Y-82728164D03*
X89828484Y-84278164D03*
%TD*%
D52*
%TO.C,R4*%
X120499426Y-103632302D03*
X121220674Y-102911054D03*
%TD*%
D24*
%TO.C,C1*%
X110772809Y-95292323D03*
X111451631Y-94613501D03*
%TD*%
D43*
%TO.C,C15*%
X90495327Y-79043165D03*
X90495327Y-80003165D03*
%TD*%
D17*
%TO.C,R10*%
X121164314Y-91223663D03*
X121164314Y-92243663D03*
%TD*%
D14*
%TO.C,R11*%
X85295330Y-75653166D03*
X86315328Y-75653166D03*
%TD*%
D15*
%TO.C,R1*%
X123150642Y-101008503D03*
X122429394Y-101729751D03*
%TD*%
D53*
%TO.C,U3*%
X122821922Y-93161164D03*
X124021922Y-93161164D03*
X122821922Y-92386164D03*
X124021922Y-92386164D03*
D54*
X122446922Y-94323664D03*
X123096922Y-94323664D03*
X123746922Y-94323664D03*
X124396922Y-94323664D03*
X124396922Y-91223664D03*
X123746922Y-91223664D03*
X123096922Y-91223664D03*
X122446922Y-91223664D03*
%TD*%
D44*
%TO.C,J6*%
X89045330Y-73489664D03*
X87795330Y-73489664D03*
X86545330Y-73489664D03*
X85295330Y-73489664D03*
D45*
X91595330Y-70739664D03*
X82745330Y-70739664D03*
%TD*%
M02*
