%TF.GenerationSoftware,KiCad,Pcbnew,8.0.3*%
%TF.CreationDate,2024-06-25T22:30:56+08:00*%
%TF.ProjectId,SB-main-board,53422d6d-6169-46e2-9d62-6f6172642e6b,A0*%
%TF.SameCoordinates,Original*%
%TF.FileFunction,Copper,L2,Inr*%
%TF.FilePolarity,Positive*%
%FSLAX46Y46*%
G04 Gerber Fmt 4.6, Leading zero omitted, Abs format (unit mm)*
G04 Created by KiCad (PCBNEW 8.0.3) date 2024-06-25 22:30:56*
%MOMM*%
%LPD*%
G01*
G04 APERTURE LIST*
G04 Aperture macros list*
%AMRoundRect*
0 Rectangle with rounded corners*
0 $1 Rounding radius*
0 $2 $3 $4 $5 $6 $7 $8 $9 X,Y pos of 4 corners*
0 Add a 4 corners polygon primitive as box body*
4,1,4,$2,$3,$4,$5,$6,$7,$8,$9,$2,$3,0*
0 Add four circle primitives for the rounded corners*
1,1,$1+$1,$2,$3*
1,1,$1+$1,$4,$5*
1,1,$1+$1,$6,$7*
1,1,$1+$1,$8,$9*
0 Add four rect primitives between the rounded corners*
20,1,$1+$1,$2,$3,$4,$5,0*
20,1,$1+$1,$4,$5,$6,$7,0*
20,1,$1+$1,$6,$7,$8,$9,0*
20,1,$1+$1,$8,$9,$2,$3,0*%
G04 Aperture macros list end*
%TA.AperFunction,ComponentPad*%
%ADD10C,2.800000*%
%TD*%
%TA.AperFunction,ComponentPad*%
%ADD11C,1.524000*%
%TD*%
%TA.AperFunction,ComponentPad*%
%ADD12RoundRect,0.250001X0.499999X0.499999X-0.499999X0.499999X-0.499999X-0.499999X0.499999X-0.499999X0*%
%TD*%
%TA.AperFunction,ComponentPad*%
%ADD13C,1.500000*%
%TD*%
%TA.AperFunction,ComponentPad*%
%ADD14C,5.500000*%
%TD*%
%TA.AperFunction,ComponentPad*%
%ADD15R,1.350000X1.350000*%
%TD*%
%TA.AperFunction,ComponentPad*%
%ADD16O,1.350000X1.350000*%
%TD*%
%TA.AperFunction,ComponentPad*%
%ADD17O,1.800000X1.000000*%
%TD*%
%TA.AperFunction,ComponentPad*%
%ADD18O,2.100000X1.000000*%
%TD*%
%TA.AperFunction,ViaPad*%
%ADD19C,0.500000*%
%TD*%
%TA.AperFunction,ViaPad*%
%ADD20C,1.000000*%
%TD*%
G04 APERTURE END LIST*
D10*
%TO.N,+24V*%
%TO.C,J1*%
X113482830Y-87877964D03*
%TO.N,PGND*%
X113482830Y-82797964D03*
D11*
%TO.N,/CAN_H*%
X114712830Y-78947964D03*
%TO.N,/CAN_L*%
X116712830Y-78947964D03*
%TD*%
D12*
%TO.N,+24V*%
%TO.C,J5*%
X104905330Y-85797964D03*
D13*
%TO.N,Net-(D2-K)*%
X104905330Y-82797964D03*
%TD*%
D14*
%TO.N,PGND*%
%TO.C,H2*%
X86086330Y-92876664D03*
%TD*%
%TO.N,PGND*%
%TO.C,H1*%
X98070330Y-80105664D03*
%TD*%
D15*
%TO.N,/FAN0_DET*%
%TO.C,J9*%
X80156472Y-88406664D03*
D16*
%TO.N,/NEO*%
X78156472Y-88406664D03*
%TO.N,/FAN0_PWM*%
X80156472Y-86406664D03*
%TO.N,/FAN1_PWM*%
X78156472Y-86406664D03*
%TO.N,/ADC0*%
X80156472Y-84406664D03*
%TO.N,/FAN1_DET*%
X78156472Y-84406664D03*
%TO.N,/ADC1*%
X80156472Y-82406664D03*
%TO.N,+3V3B*%
X78156472Y-82406664D03*
%TO.N,GND*%
X80156472Y-80406664D03*
%TO.N,PGND*%
X78156472Y-80406664D03*
%TO.N,+24V*%
X80156472Y-78406664D03*
%TO.N,PGND*%
X78156472Y-78406664D03*
%TD*%
D17*
%TO.N,GND*%
%TO.C,J2*%
X122262722Y-80873664D03*
D18*
X118082722Y-80873664D03*
D17*
X122262722Y-89513664D03*
D18*
X118082722Y-89513664D03*
%TD*%
D19*
%TO.N,GND*%
X95657330Y-74924064D03*
X108277722Y-103843664D03*
X109066922Y-77804465D03*
X124000330Y-97445664D03*
X100356330Y-84245864D03*
X111708522Y-75162865D03*
X117887722Y-98133664D03*
X81812330Y-93669264D03*
X116942722Y-81993664D03*
X91600330Y-85385664D03*
X124437722Y-88083664D03*
X111506930Y-104388064D03*
X114605223Y-84327664D03*
X73870330Y-93905664D03*
X75120330Y-85005664D03*
X116197722Y-106013664D03*
X113551330Y-94080664D03*
X97270330Y-89125664D03*
X92826330Y-90155664D03*
X79136872Y-83026664D03*
X117887722Y-99733664D03*
X98908530Y-85820664D03*
X81730330Y-79675664D03*
X77028672Y-87243064D03*
X110313130Y-103524464D03*
X93853930Y-73704864D03*
X100291929Y-89653209D03*
X111860530Y-97809464D03*
X112167330Y-93720064D03*
X80580330Y-91805664D03*
X115420330Y-80955664D03*
X114296330Y-89705664D03*
X116942722Y-88393664D03*
X111727722Y-106323664D03*
X114586330Y-86315664D03*
X116636322Y-90005664D03*
X94048830Y-74905664D03*
X99020330Y-83405664D03*
X122970330Y-95995664D03*
X81750330Y-82345664D03*
X119487722Y-99733664D03*
X114501330Y-95030664D03*
X81720330Y-91615664D03*
X109066922Y-75162865D03*
X96420330Y-88125664D03*
X96070330Y-82955664D03*
X124437722Y-83683664D03*
X118669730Y-91332464D03*
X124767722Y-98193664D03*
X79348530Y-90748264D03*
X105670330Y-73880664D03*
X111708522Y-77804465D03*
X111608530Y-101238464D03*
X79297730Y-92653264D03*
X124697722Y-96823664D03*
X77054072Y-92196064D03*
X110084530Y-99409664D03*
X93066530Y-84957064D03*
X124437722Y-80483664D03*
X104270330Y-74905664D03*
X118237930Y-106521664D03*
X114610330Y-91105664D03*
X98146530Y-90085664D03*
%TO.N,+1V1*%
X116128421Y-98257206D03*
X119929866Y-100927279D03*
D20*
%TO.N,+24V*%
X84170330Y-72739664D03*
X115076829Y-75714166D03*
X92116330Y-77385664D03*
D19*
X108536122Y-74021165D03*
X112239322Y-74021165D03*
%TO.N,PGND*%
X82990330Y-91125664D03*
X84862330Y-78530864D03*
X110570330Y-82147964D03*
X111669530Y-82472964D03*
X110570330Y-82797964D03*
X119076330Y-74605664D03*
X83795530Y-79699264D03*
X91618730Y-79572264D03*
X89053330Y-80359664D03*
X94869930Y-68269264D03*
X108837722Y-69405664D03*
X107036530Y-71012464D03*
X79820330Y-69055664D03*
X109946330Y-85985664D03*
X84200330Y-83495664D03*
X82728730Y-82493264D03*
D20*
X82745330Y-70739664D03*
D19*
X112936330Y-90265664D03*
X105486330Y-84455664D03*
X108120330Y-81055664D03*
X111669530Y-81822964D03*
X109950330Y-91855664D03*
X112976330Y-70003664D03*
X89676330Y-92605664D03*
X73220330Y-75155664D03*
X105614130Y-80385064D03*
X87630930Y-88081264D03*
X117076330Y-71205664D03*
X89760330Y-88045664D03*
X109244330Y-90519664D03*
X87199130Y-98647664D03*
X110020330Y-93725664D03*
X115076330Y-71205664D03*
X115692929Y-76485182D03*
X89720330Y-85665664D03*
X112980130Y-71012464D03*
X124511730Y-75482864D03*
X79071130Y-98088864D03*
X123521130Y-68650264D03*
X115076330Y-74305664D03*
X111669530Y-83122964D03*
X119076330Y-71205664D03*
%TO.N,+5V*%
X123875330Y-95871664D03*
X107907196Y-99845664D03*
X113726653Y-91041987D03*
%TO.N,/USB_D+*%
X117858388Y-93715327D03*
X115681465Y-96113194D03*
X118270330Y-84942225D03*
X118269197Y-85943664D03*
%TO.N,/USB_D-*%
X118337666Y-94194605D03*
X116873436Y-96877636D03*
%TO.N,Net-(D3-A)*%
X116942722Y-82793664D03*
X116942722Y-87583664D03*
%TO.N,/FAN0_PWM*%
X113576330Y-103656962D03*
X101760030Y-89556372D03*
X85457604Y-87981664D03*
X107841430Y-89841099D03*
%TO.N,/FAN0_DET*%
X115876330Y-104855664D03*
X106976330Y-89805664D03*
X84376330Y-88405664D03*
X102880330Y-90385664D03*
%TO.N,Net-(J4-Pin_2)*%
X95906330Y-90147267D03*
%TO.N,Net-(J4-Pin_3)*%
X96721997Y-90146980D03*
%TO.N,Net-(J4-Pin_1)*%
X95090616Y-90146810D03*
%TO.N,/FAN1_PWM*%
X107426330Y-90355664D03*
X85426330Y-88755664D03*
X102317032Y-90145395D03*
X114526330Y-104072062D03*
%TO.N,/FAN1_DET*%
X108256530Y-90327638D03*
X115076330Y-103241862D03*
X86126330Y-87981664D03*
X101563217Y-88955819D03*
%TO.N,/FAN2_PWM*%
X112927330Y-99257264D03*
X86545330Y-74505664D03*
%TO.N,/FAN2_DET*%
X87795330Y-74505664D03*
X114817434Y-100258368D03*
%TO.N,/NEO*%
X115543530Y-100984464D03*
%TO.N,/LDC_SCL*%
X79961330Y-93925464D03*
X108865330Y-101848064D03*
%TO.N,/LDC_SDA*%
X78711330Y-93925464D03*
X109590651Y-101986343D03*
%TO.N,/ADC0*%
X119116330Y-97725664D03*
X111510072Y-89789737D03*
%TO.N,/ADC1*%
X118541052Y-97100435D03*
X112055330Y-90056529D03*
%TO.N,/TMC_EN*%
X107186502Y-75482864D03*
X123520457Y-98279369D03*
%TO.N,/HEAT*%
X121606504Y-99775490D03*
%TO.N,/SPI0_CLK*%
X118177554Y-102751031D03*
X75128472Y-87153664D03*
X88510330Y-87356564D03*
%TO.N,/TMC_DIAG*%
X113125969Y-79313122D03*
X120220330Y-95955664D03*
%TO.N,/ADXL_INT1*%
X76977872Y-83737864D03*
X118592654Y-102257074D03*
%TO.N,/TMC_STEP*%
X113387721Y-77483665D03*
X121117922Y-96093664D03*
%TO.N,/ADXL_INT2*%
X77028672Y-82948764D03*
X119007754Y-101792797D03*
%TO.N,/SPI0_CS1*%
X73545330Y-91655664D03*
X75128472Y-83406664D03*
X113844223Y-101797264D03*
%TO.N,/SPI0_MOSI*%
X93929728Y-89470665D03*
X75820330Y-89940564D03*
X117626330Y-104305664D03*
%TO.N,/TEMP_A*%
X117736330Y-91385664D03*
%TO.N,/SPI0_MISO*%
X91910330Y-87585164D03*
X117748706Y-102319358D03*
%TO.N,/ENDSTOP0*%
X98919330Y-74505664D03*
X120726330Y-99845664D03*
X114339060Y-92812933D03*
%TO.N,/TMC_DIR*%
X113437722Y-75983665D03*
X122939153Y-97716841D03*
%TO.N,/TMC_UART*%
X120702822Y-95513523D03*
X112635221Y-78946165D03*
%TO.N,/SPI0_CS2*%
X108916330Y-89775664D03*
X101726330Y-88205664D03*
X116576330Y-101205664D03*
X90541809Y-88024185D03*
%TO.N,/CAN_H*%
X123070330Y-90676164D03*
%TO.N,/CAN_L*%
X123720330Y-90676164D03*
%TO.N,Net-(U6-CPO)*%
X105677722Y-76483665D03*
%TO.N,Net-(U6-CPI)*%
X107087722Y-76983664D03*
%TO.N,Net-(U6-5VOUT)*%
X108475221Y-78946165D03*
%TO.N,Net-(D2-K)*%
X109526330Y-83432964D03*
X108891330Y-82797964D03*
X108256330Y-82162964D03*
X109526330Y-82162964D03*
X108256330Y-83432964D03*
%TO.N,Net-(J3-Pin_1)*%
X120076330Y-69805664D03*
%TO.N,Net-(J3-Pin_4)*%
X114076330Y-70005664D03*
%TO.N,Net-(J3-Pin_2)*%
X118076330Y-69805664D03*
%TO.N,Net-(J3-Pin_3)*%
X116076330Y-69805664D03*
%TO.N,/FS*%
X100169330Y-74505664D03*
X118554783Y-96457950D03*
%TO.N,+3V3A*%
X113174245Y-100770187D03*
X121509828Y-97525770D03*
X124840330Y-91223664D03*
X113605408Y-94885664D03*
X119685730Y-101594064D03*
X116718830Y-92777664D03*
X116159915Y-97440171D03*
X116678132Y-102357466D03*
X118972464Y-94971968D03*
X116520138Y-94971968D03*
%TO.N,+3V3B*%
X95936330Y-84100665D03*
X73370330Y-82406664D03*
X74128472Y-87153664D03*
X75820330Y-91785664D03*
%TO.N,Net-(J4-Pin_4)*%
X97882932Y-89470665D03*
%TD*%
%TA.AperFunction,Conductor*%
%TO.N,GND*%
G36*
X82091850Y-70760229D02*
G01*
X82121914Y-70812300D01*
X82122605Y-70816951D01*
X82131589Y-70890938D01*
X82155235Y-70953290D01*
X82185624Y-71033419D01*
X82260624Y-71142074D01*
X82272190Y-71158830D01*
X82386251Y-71259880D01*
X82521181Y-71330696D01*
X82669138Y-71367164D01*
X82669140Y-71367164D01*
X82821519Y-71367164D01*
X82821522Y-71367164D01*
X82969479Y-71330696D01*
X83104409Y-71259880D01*
X83218470Y-71158830D01*
X83305035Y-71033420D01*
X83359071Y-70890938D01*
X83368052Y-70816967D01*
X83395277Y-70763359D01*
X83450592Y-70739791D01*
X83455311Y-70739664D01*
X105107311Y-70739664D01*
X105163812Y-70760229D01*
X105169466Y-70765409D01*
X108172860Y-73768803D01*
X108198271Y-73823297D01*
X108189026Y-73870862D01*
X108172621Y-73903058D01*
X108172621Y-73903061D01*
X108153916Y-74021165D01*
X108172621Y-74139272D01*
X108172621Y-74139273D01*
X108226908Y-74245816D01*
X108226909Y-74245817D01*
X108226911Y-74245820D01*
X108311467Y-74330376D01*
X108311469Y-74330377D01*
X108311470Y-74330378D01*
X108418013Y-74384665D01*
X108434161Y-74387222D01*
X108536122Y-74403371D01*
X108654230Y-74384665D01*
X108686422Y-74368261D01*
X108746100Y-74360934D01*
X108788483Y-74384426D01*
X109012722Y-74608665D01*
X108512722Y-74608665D01*
X108512722Y-78358665D01*
X104359741Y-78358665D01*
X104303240Y-78338100D01*
X104297586Y-78332920D01*
X102948330Y-76983664D01*
X106705516Y-76983664D01*
X106724221Y-77101771D01*
X106724221Y-77101772D01*
X106778508Y-77208315D01*
X106778509Y-77208316D01*
X106778511Y-77208319D01*
X106863067Y-77292875D01*
X106863069Y-77292876D01*
X106863070Y-77292877D01*
X106969613Y-77347164D01*
X106985761Y-77349721D01*
X107087722Y-77365870D01*
X107205830Y-77347164D01*
X107312377Y-77292875D01*
X107396933Y-77208319D01*
X107451222Y-77101772D01*
X107469928Y-76983664D01*
X107451222Y-76865556D01*
X107451222Y-76865555D01*
X107396935Y-76759012D01*
X107396934Y-76759011D01*
X107396933Y-76759009D01*
X107312377Y-76674453D01*
X107312374Y-76674451D01*
X107312373Y-76674450D01*
X107205830Y-76620163D01*
X107087722Y-76601458D01*
X106969614Y-76620163D01*
X106969613Y-76620163D01*
X106863070Y-76674450D01*
X106778508Y-76759012D01*
X106724221Y-76865555D01*
X106724221Y-76865556D01*
X106705516Y-76983664D01*
X102948330Y-76983664D01*
X102811831Y-76847165D01*
X102448331Y-76483665D01*
X105295516Y-76483665D01*
X105314221Y-76601772D01*
X105314221Y-76601773D01*
X105368508Y-76708316D01*
X105368509Y-76708317D01*
X105368511Y-76708320D01*
X105453067Y-76792876D01*
X105453069Y-76792877D01*
X105453070Y-76792878D01*
X105559613Y-76847165D01*
X105575761Y-76849722D01*
X105677722Y-76865871D01*
X105795830Y-76847165D01*
X105902377Y-76792876D01*
X105986933Y-76708320D01*
X106041222Y-76601773D01*
X106059928Y-76483665D01*
X106041222Y-76365557D01*
X106041222Y-76365556D01*
X105986935Y-76259013D01*
X105986934Y-76259012D01*
X105986933Y-76259010D01*
X105902377Y-76174454D01*
X105902374Y-76174452D01*
X105902373Y-76174451D01*
X105795830Y-76120164D01*
X105677722Y-76101459D01*
X105559614Y-76120164D01*
X105559613Y-76120164D01*
X105453070Y-76174451D01*
X105368508Y-76259013D01*
X105314221Y-76365556D01*
X105314221Y-76365557D01*
X105295516Y-76483665D01*
X102448331Y-76483665D01*
X101447530Y-75482864D01*
X106804296Y-75482864D01*
X106823001Y-75600971D01*
X106823001Y-75600972D01*
X106877288Y-75707515D01*
X106877289Y-75707516D01*
X106877291Y-75707519D01*
X106961847Y-75792075D01*
X106961849Y-75792076D01*
X106961850Y-75792077D01*
X107068393Y-75846364D01*
X107084541Y-75848921D01*
X107186502Y-75865070D01*
X107304610Y-75846364D01*
X107411157Y-75792075D01*
X107495713Y-75707519D01*
X107550002Y-75600972D01*
X107568708Y-75482864D01*
X107550002Y-75364756D01*
X107550002Y-75364755D01*
X107495715Y-75258212D01*
X107495714Y-75258211D01*
X107495713Y-75258209D01*
X107411157Y-75173653D01*
X107411154Y-75173651D01*
X107411153Y-75173650D01*
X107304610Y-75119363D01*
X107186502Y-75100658D01*
X107068394Y-75119363D01*
X107068393Y-75119363D01*
X106961850Y-75173650D01*
X106877288Y-75258212D01*
X106823001Y-75364755D01*
X106823001Y-75364756D01*
X106804296Y-75482864D01*
X101447530Y-75482864D01*
X101270330Y-75305664D01*
X101270329Y-75305664D01*
X85470331Y-75305664D01*
X85470330Y-75305664D01*
X85070330Y-75705664D01*
X85070330Y-75705665D01*
X85070330Y-77469254D01*
X85049765Y-77525755D01*
X85044585Y-77531409D01*
X84696075Y-77879919D01*
X84641581Y-77905330D01*
X84633920Y-77905664D01*
X80789444Y-77905664D01*
X80787862Y-77903147D01*
X80659989Y-77775274D01*
X80506867Y-77679061D01*
X80506866Y-77679060D01*
X80506865Y-77679060D01*
X80506860Y-77679058D01*
X80409740Y-77645074D01*
X80270330Y-77505664D01*
X80270330Y-74505664D01*
X86163124Y-74505664D01*
X86181829Y-74623771D01*
X86181829Y-74623772D01*
X86236116Y-74730315D01*
X86236117Y-74730316D01*
X86236119Y-74730319D01*
X86320675Y-74814875D01*
X86320677Y-74814876D01*
X86320678Y-74814877D01*
X86427221Y-74869164D01*
X86443369Y-74871721D01*
X86545330Y-74887870D01*
X86663438Y-74869164D01*
X86769985Y-74814875D01*
X86854541Y-74730319D01*
X86908830Y-74623772D01*
X86927536Y-74505664D01*
X87413124Y-74505664D01*
X87431829Y-74623771D01*
X87431829Y-74623772D01*
X87486116Y-74730315D01*
X87486117Y-74730316D01*
X87486119Y-74730319D01*
X87570675Y-74814875D01*
X87570677Y-74814876D01*
X87570678Y-74814877D01*
X87677221Y-74869164D01*
X87693369Y-74871721D01*
X87795330Y-74887870D01*
X87913438Y-74869164D01*
X88019985Y-74814875D01*
X88104541Y-74730319D01*
X88158830Y-74623772D01*
X88177536Y-74505664D01*
X98537124Y-74505664D01*
X98555829Y-74623771D01*
X98555829Y-74623772D01*
X98610116Y-74730315D01*
X98610117Y-74730316D01*
X98610119Y-74730319D01*
X98694675Y-74814875D01*
X98694677Y-74814876D01*
X98694678Y-74814877D01*
X98801221Y-74869164D01*
X98817369Y-74871721D01*
X98919330Y-74887870D01*
X99037438Y-74869164D01*
X99143985Y-74814875D01*
X99228541Y-74730319D01*
X99282830Y-74623772D01*
X99301536Y-74505664D01*
X99787124Y-74505664D01*
X99805829Y-74623771D01*
X99805829Y-74623772D01*
X99860116Y-74730315D01*
X99860117Y-74730316D01*
X99860119Y-74730319D01*
X99944675Y-74814875D01*
X99944677Y-74814876D01*
X99944678Y-74814877D01*
X100051221Y-74869164D01*
X100067369Y-74871721D01*
X100169330Y-74887870D01*
X100287438Y-74869164D01*
X100393985Y-74814875D01*
X100478541Y-74730319D01*
X100532830Y-74623772D01*
X100551536Y-74505664D01*
X100532830Y-74387556D01*
X100532830Y-74387555D01*
X100478543Y-74281012D01*
X100478542Y-74281011D01*
X100478541Y-74281009D01*
X100393985Y-74196453D01*
X100393982Y-74196451D01*
X100393981Y-74196450D01*
X100287438Y-74142163D01*
X100169330Y-74123458D01*
X100051222Y-74142163D01*
X100051221Y-74142163D01*
X99944678Y-74196450D01*
X99860116Y-74281012D01*
X99805829Y-74387555D01*
X99805829Y-74387556D01*
X99787124Y-74505664D01*
X99301536Y-74505664D01*
X99282830Y-74387556D01*
X99282830Y-74387555D01*
X99228543Y-74281012D01*
X99228542Y-74281011D01*
X99228541Y-74281009D01*
X99143985Y-74196453D01*
X99143982Y-74196451D01*
X99143981Y-74196450D01*
X99037438Y-74142163D01*
X98919330Y-74123458D01*
X98801222Y-74142163D01*
X98801221Y-74142163D01*
X98694678Y-74196450D01*
X98610116Y-74281012D01*
X98555829Y-74387555D01*
X98555829Y-74387556D01*
X98537124Y-74505664D01*
X88177536Y-74505664D01*
X88158830Y-74387556D01*
X88158830Y-74387555D01*
X88104543Y-74281012D01*
X88104542Y-74281011D01*
X88104541Y-74281009D01*
X88019985Y-74196453D01*
X88019982Y-74196451D01*
X88019981Y-74196450D01*
X87913438Y-74142163D01*
X87795330Y-74123458D01*
X87677222Y-74142163D01*
X87677221Y-74142163D01*
X87570678Y-74196450D01*
X87486116Y-74281012D01*
X87431829Y-74387555D01*
X87431829Y-74387556D01*
X87413124Y-74505664D01*
X86927536Y-74505664D01*
X86908830Y-74387556D01*
X86908830Y-74387555D01*
X86854543Y-74281012D01*
X86854542Y-74281011D01*
X86854541Y-74281009D01*
X86769985Y-74196453D01*
X86769982Y-74196451D01*
X86769981Y-74196450D01*
X86663438Y-74142163D01*
X86545330Y-74123458D01*
X86427222Y-74142163D01*
X86427221Y-74142163D01*
X86320678Y-74196450D01*
X86236116Y-74281012D01*
X86181829Y-74387555D01*
X86181829Y-74387556D01*
X86163124Y-74505664D01*
X80270330Y-74505664D01*
X80270330Y-72739664D01*
X83538221Y-72739664D01*
X83556589Y-72890938D01*
X83556591Y-72890942D01*
X83610624Y-73033419D01*
X83610625Y-73033420D01*
X83697190Y-73158830D01*
X83811251Y-73259880D01*
X83946181Y-73330696D01*
X84094138Y-73367164D01*
X84094140Y-73367164D01*
X84246519Y-73367164D01*
X84246522Y-73367164D01*
X84394479Y-73330696D01*
X84529409Y-73259880D01*
X84643470Y-73158830D01*
X84730035Y-73033420D01*
X84784071Y-72890938D01*
X84802439Y-72739664D01*
X84784071Y-72588390D01*
X84730035Y-72445908D01*
X84643470Y-72320498D01*
X84529409Y-72219448D01*
X84529407Y-72219447D01*
X84529406Y-72219446D01*
X84394481Y-72148633D01*
X84394480Y-72148632D01*
X84394479Y-72148632D01*
X84246522Y-72112164D01*
X84094138Y-72112164D01*
X83946181Y-72148632D01*
X83946180Y-72148632D01*
X83946178Y-72148633D01*
X83811253Y-72219446D01*
X83811248Y-72219450D01*
X83697187Y-72320501D01*
X83610624Y-72445908D01*
X83561670Y-72574991D01*
X83556589Y-72588390D01*
X83538221Y-72739664D01*
X80270330Y-72739664D01*
X80270330Y-71142074D01*
X80290895Y-71085573D01*
X80296075Y-71079919D01*
X80610585Y-70765409D01*
X80665079Y-70739998D01*
X80672740Y-70739664D01*
X82035349Y-70739664D01*
X82091850Y-70760229D01*
G37*
%TD.AperFunction*%
%TD*%
%TA.AperFunction,Conductor*%
%TO.N,Net-(D2-K)*%
G36*
X110038931Y-81693529D02*
G01*
X110068995Y-81745600D01*
X110070330Y-81760864D01*
X110070330Y-83835064D01*
X110049765Y-83891565D01*
X109997694Y-83921629D01*
X109982430Y-83922964D01*
X105316740Y-83922964D01*
X105260239Y-83902399D01*
X105254585Y-83897219D01*
X104931075Y-83573709D01*
X104905664Y-83519215D01*
X104905330Y-83511554D01*
X104905330Y-82084374D01*
X104925895Y-82027873D01*
X104931075Y-82022219D01*
X105254585Y-81698709D01*
X105309079Y-81673298D01*
X105316740Y-81672964D01*
X109982430Y-81672964D01*
X110038931Y-81693529D01*
G37*
%TD.AperFunction*%
%TD*%
%TA.AperFunction,Conductor*%
%TO.N,GND*%
G36*
X116018122Y-78254229D02*
G01*
X116048186Y-78306300D01*
X116037745Y-78365514D01*
X116026947Y-78380376D01*
X115989249Y-78422245D01*
X115989245Y-78422249D01*
X115895755Y-78584179D01*
X115895754Y-78584181D01*
X115837974Y-78762010D01*
X115837973Y-78762015D01*
X115818430Y-78947959D01*
X115818430Y-78947968D01*
X115837973Y-79133912D01*
X115837974Y-79133917D01*
X115837975Y-79133920D01*
X115895755Y-79311749D01*
X115989245Y-79473679D01*
X116114360Y-79612633D01*
X116265630Y-79722537D01*
X116436445Y-79798589D01*
X116582761Y-79829689D01*
X116619339Y-79837464D01*
X116619340Y-79837464D01*
X116806321Y-79837464D01*
X116836802Y-79830984D01*
X116989215Y-79798589D01*
X117160030Y-79722537D01*
X117311300Y-79612633D01*
X117436415Y-79473679D01*
X117529905Y-79311749D01*
X117587685Y-79133920D01*
X117607230Y-78947964D01*
X117607230Y-78947959D01*
X117587686Y-78762015D01*
X117587685Y-78762010D01*
X117587685Y-78762008D01*
X117529905Y-78584179D01*
X117436415Y-78422249D01*
X117398715Y-78380379D01*
X117376193Y-78324632D01*
X117394773Y-78267447D01*
X117445764Y-78235585D01*
X117464039Y-78233664D01*
X125118528Y-78233664D01*
X125175029Y-78254229D01*
X125205093Y-78306300D01*
X125206428Y-78321564D01*
X125206428Y-90733664D01*
X124093429Y-90733664D01*
X124102536Y-90676164D01*
X124083830Y-90558056D01*
X124083830Y-90558055D01*
X124029543Y-90451512D01*
X124029542Y-90451511D01*
X124029541Y-90451509D01*
X123944985Y-90366953D01*
X123944982Y-90366951D01*
X123944981Y-90366950D01*
X123838438Y-90312663D01*
X123720330Y-90293958D01*
X123602222Y-90312663D01*
X123602221Y-90312663D01*
X123495678Y-90366950D01*
X123495675Y-90366952D01*
X123495675Y-90366953D01*
X123457483Y-90405144D01*
X123402991Y-90430555D01*
X123344913Y-90414992D01*
X123333181Y-90405149D01*
X123294985Y-90366953D01*
X123294982Y-90366951D01*
X123294981Y-90366950D01*
X123188438Y-90312663D01*
X123070330Y-90293958D01*
X122952222Y-90312663D01*
X122952221Y-90312663D01*
X122845678Y-90366950D01*
X122761116Y-90451512D01*
X122706829Y-90558055D01*
X122706829Y-90558056D01*
X122688124Y-90676164D01*
X122697230Y-90733664D01*
X113952196Y-90733664D01*
X113951308Y-90732776D01*
X113951305Y-90732774D01*
X113935713Y-90724829D01*
X113894708Y-90680853D01*
X113887722Y-90646511D01*
X113887722Y-89420956D01*
X113908287Y-89364455D01*
X113953170Y-89336685D01*
X113953033Y-89336261D01*
X113954768Y-89335697D01*
X113955115Y-89335482D01*
X113956313Y-89335195D01*
X114178445Y-89243185D01*
X114383448Y-89117558D01*
X114566275Y-88961409D01*
X114722424Y-88778582D01*
X114848051Y-88573579D01*
X114940061Y-88351447D01*
X114991653Y-88136549D01*
X114996188Y-88117661D01*
X114996188Y-88117659D01*
X114996189Y-88117656D01*
X115003026Y-88030779D01*
X118181022Y-88030779D01*
X118181022Y-88136549D01*
X118208397Y-88238714D01*
X118261282Y-88330313D01*
X118336073Y-88405104D01*
X118427672Y-88457989D01*
X118529837Y-88485364D01*
X118635606Y-88485364D01*
X118635607Y-88485364D01*
X118737772Y-88457989D01*
X118829371Y-88405104D01*
X118904162Y-88330313D01*
X118957047Y-88238714D01*
X118984422Y-88136549D01*
X118984422Y-88030779D01*
X118957047Y-87928614D01*
X118904162Y-87837015D01*
X118829371Y-87762224D01*
X118737772Y-87709339D01*
X118737771Y-87709338D01*
X118737770Y-87709338D01*
X118635607Y-87681964D01*
X118529837Y-87681964D01*
X118427673Y-87709338D01*
X118336075Y-87762222D01*
X118261280Y-87837017D01*
X118208396Y-87928615D01*
X118198414Y-87965870D01*
X118181022Y-88030779D01*
X115003026Y-88030779D01*
X115015053Y-87877964D01*
X114996189Y-87638272D01*
X114983079Y-87583664D01*
X116560516Y-87583664D01*
X116579221Y-87701771D01*
X116579221Y-87701772D01*
X116633508Y-87808315D01*
X116633509Y-87808316D01*
X116633511Y-87808319D01*
X116718067Y-87892875D01*
X116718069Y-87892876D01*
X116718070Y-87892877D01*
X116824613Y-87947164D01*
X116840761Y-87949721D01*
X116942722Y-87965870D01*
X117060830Y-87947164D01*
X117167377Y-87892875D01*
X117251933Y-87808319D01*
X117306222Y-87701772D01*
X117324928Y-87583664D01*
X117306222Y-87465556D01*
X117306222Y-87465555D01*
X117251935Y-87359012D01*
X117251934Y-87359011D01*
X117251933Y-87359009D01*
X117167377Y-87274453D01*
X117167374Y-87274451D01*
X117167373Y-87274450D01*
X117060830Y-87220163D01*
X116942722Y-87201458D01*
X116824614Y-87220163D01*
X116824613Y-87220163D01*
X116718070Y-87274450D01*
X116633508Y-87359012D01*
X116579221Y-87465555D01*
X116579221Y-87465556D01*
X116560516Y-87583664D01*
X114983079Y-87583664D01*
X114940061Y-87404481D01*
X114848051Y-87182349D01*
X114722424Y-86977346D01*
X114722420Y-86977341D01*
X114566279Y-86794523D01*
X114566270Y-86794514D01*
X114383452Y-86638373D01*
X114383450Y-86638371D01*
X114383448Y-86638370D01*
X114178445Y-86512743D01*
X114178439Y-86512740D01*
X114178436Y-86512739D01*
X113956311Y-86420732D01*
X113955087Y-86420438D01*
X113954779Y-86420234D01*
X113953030Y-86419666D01*
X113953187Y-86419180D01*
X113904954Y-86387243D01*
X113887722Y-86334970D01*
X113887722Y-85943664D01*
X117886991Y-85943664D01*
X117905696Y-86061771D01*
X117905696Y-86061772D01*
X117959983Y-86168315D01*
X117959984Y-86168316D01*
X117959986Y-86168319D01*
X118044542Y-86252875D01*
X118044544Y-86252876D01*
X118044545Y-86252877D01*
X118151088Y-86307164D01*
X118167236Y-86309721D01*
X118269197Y-86325870D01*
X118387305Y-86307164D01*
X118493852Y-86252875D01*
X118578408Y-86168319D01*
X118632697Y-86061772D01*
X118651403Y-85943664D01*
X118632697Y-85825556D01*
X118632697Y-85825555D01*
X118578410Y-85719012D01*
X118578409Y-85719011D01*
X118578408Y-85719009D01*
X118493852Y-85634453D01*
X118493849Y-85634451D01*
X118493848Y-85634450D01*
X118387305Y-85580163D01*
X118269197Y-85561458D01*
X118151089Y-85580163D01*
X118151088Y-85580163D01*
X118044545Y-85634450D01*
X117959983Y-85719012D01*
X117905696Y-85825555D01*
X117905696Y-85825556D01*
X117886991Y-85943664D01*
X113887722Y-85943664D01*
X113887722Y-84942225D01*
X117888124Y-84942225D01*
X117906829Y-85060332D01*
X117906829Y-85060333D01*
X117961116Y-85166876D01*
X117961117Y-85166877D01*
X117961119Y-85166880D01*
X118045675Y-85251436D01*
X118045677Y-85251437D01*
X118045678Y-85251438D01*
X118152221Y-85305725D01*
X118168369Y-85308282D01*
X118270330Y-85324431D01*
X118388438Y-85305725D01*
X118494985Y-85251436D01*
X118579541Y-85166880D01*
X118633830Y-85060333D01*
X118652536Y-84942225D01*
X118633830Y-84824117D01*
X118633830Y-84824116D01*
X118579543Y-84717573D01*
X118579542Y-84717572D01*
X118579541Y-84717570D01*
X118494985Y-84633014D01*
X118494982Y-84633012D01*
X118494981Y-84633011D01*
X118388438Y-84578724D01*
X118270330Y-84560019D01*
X118152222Y-84578724D01*
X118152221Y-84578724D01*
X118045678Y-84633011D01*
X117961116Y-84717573D01*
X117906829Y-84824116D01*
X117906829Y-84824117D01*
X117888124Y-84942225D01*
X113887722Y-84942225D01*
X113887722Y-84340956D01*
X113908287Y-84284455D01*
X113953170Y-84256685D01*
X113953033Y-84256261D01*
X113954768Y-84255697D01*
X113955115Y-84255482D01*
X113956313Y-84255195D01*
X114178445Y-84163185D01*
X114383448Y-84037558D01*
X114566275Y-83881409D01*
X114722424Y-83698582D01*
X114848051Y-83493579D01*
X114940061Y-83271447D01*
X114980531Y-83102877D01*
X114996188Y-83037661D01*
X114996188Y-83037659D01*
X114996189Y-83037656D01*
X115015053Y-82797964D01*
X115014715Y-82793664D01*
X116560516Y-82793664D01*
X116579221Y-82911771D01*
X116579221Y-82911772D01*
X116633508Y-83018315D01*
X116633509Y-83018316D01*
X116633511Y-83018319D01*
X116718067Y-83102875D01*
X116718069Y-83102876D01*
X116718070Y-83102877D01*
X116824613Y-83157164D01*
X116840761Y-83159721D01*
X116942722Y-83175870D01*
X117060830Y-83157164D01*
X117167377Y-83102875D01*
X117251933Y-83018319D01*
X117306222Y-82911772D01*
X117324928Y-82793664D01*
X117306222Y-82675556D01*
X117306222Y-82675555D01*
X117251935Y-82569012D01*
X117251934Y-82569011D01*
X117251933Y-82569009D01*
X117167377Y-82484453D01*
X117167374Y-82484451D01*
X117167373Y-82484450D01*
X117060830Y-82430163D01*
X116942722Y-82411458D01*
X116824614Y-82430163D01*
X116824613Y-82430163D01*
X116718070Y-82484450D01*
X116633508Y-82569012D01*
X116579221Y-82675555D01*
X116579221Y-82675556D01*
X116560516Y-82793664D01*
X115014715Y-82793664D01*
X114996189Y-82558272D01*
X114994278Y-82550313D01*
X114940061Y-82324480D01*
X114909533Y-82250779D01*
X118181022Y-82250779D01*
X118181022Y-82356549D01*
X118208397Y-82458714D01*
X118261282Y-82550313D01*
X118336073Y-82625104D01*
X118427672Y-82677989D01*
X118529837Y-82705364D01*
X118635606Y-82705364D01*
X118635607Y-82705364D01*
X118737772Y-82677989D01*
X118829371Y-82625104D01*
X118904162Y-82550313D01*
X118957047Y-82458714D01*
X118984422Y-82356549D01*
X118984422Y-82250779D01*
X118957047Y-82148614D01*
X118904162Y-82057015D01*
X118829371Y-81982224D01*
X118737772Y-81929339D01*
X118737771Y-81929338D01*
X118737770Y-81929338D01*
X118635607Y-81901964D01*
X118529837Y-81901964D01*
X118427673Y-81929338D01*
X118336075Y-81982222D01*
X118261280Y-82057017D01*
X118208396Y-82148615D01*
X118181022Y-82250779D01*
X114909533Y-82250779D01*
X114867215Y-82148615D01*
X114848051Y-82102349D01*
X114722424Y-81897346D01*
X114722420Y-81897341D01*
X114566279Y-81714523D01*
X114566270Y-81714514D01*
X114383452Y-81558373D01*
X114383450Y-81558371D01*
X114383448Y-81558370D01*
X114178445Y-81432743D01*
X114178439Y-81432740D01*
X114178436Y-81432739D01*
X113956313Y-81340732D01*
X113887722Y-81324265D01*
X113887722Y-79287025D01*
X113895755Y-79311749D01*
X113989245Y-79473679D01*
X114114360Y-79612633D01*
X114265630Y-79722537D01*
X114436445Y-79798589D01*
X114582761Y-79829689D01*
X114619339Y-79837464D01*
X114619340Y-79837464D01*
X114806321Y-79837464D01*
X114836802Y-79830984D01*
X114989215Y-79798589D01*
X115160030Y-79722537D01*
X115311300Y-79612633D01*
X115436415Y-79473679D01*
X115529905Y-79311749D01*
X115587685Y-79133920D01*
X115607230Y-78947964D01*
X115607230Y-78947959D01*
X115587686Y-78762015D01*
X115587685Y-78762010D01*
X115587685Y-78762008D01*
X115529905Y-78584179D01*
X115436415Y-78422249D01*
X115311300Y-78283295D01*
X115242989Y-78233664D01*
X115887721Y-78233664D01*
X115961621Y-78233664D01*
X116018122Y-78254229D01*
G37*
%TD.AperFunction*%
%TD*%
%TA.AperFunction,Conductor*%
%TO.N,GND*%
G36*
X122706829Y-90794271D02*
G01*
X122706829Y-90794272D01*
X122761116Y-90900815D01*
X122761117Y-90900816D01*
X122761119Y-90900819D01*
X122845675Y-90985375D01*
X122845677Y-90985376D01*
X122845678Y-90985377D01*
X122952221Y-91039664D01*
X122966889Y-91041987D01*
X123070330Y-91058370D01*
X123188438Y-91039664D01*
X123294985Y-90985375D01*
X123333176Y-90947183D01*
X123387669Y-90921773D01*
X123445747Y-90937336D01*
X123457478Y-90947178D01*
X123495675Y-90985375D01*
X123495677Y-90985376D01*
X123495678Y-90985377D01*
X123602221Y-91039664D01*
X123616889Y-91041987D01*
X123720330Y-91058370D01*
X123838438Y-91039664D01*
X123944985Y-90985375D01*
X124029541Y-90900819D01*
X124083830Y-90794272D01*
X124093429Y-90733664D01*
X125206428Y-90733664D01*
X125206428Y-90844703D01*
X125185863Y-90901204D01*
X125133792Y-90931268D01*
X125074578Y-90920827D01*
X125066864Y-90915818D01*
X125064981Y-90914450D01*
X124958438Y-90860163D01*
X124840330Y-90841458D01*
X124722222Y-90860163D01*
X124722221Y-90860163D01*
X124615678Y-90914450D01*
X124531116Y-90999012D01*
X124476829Y-91105555D01*
X124476829Y-91105556D01*
X124458124Y-91223664D01*
X124476829Y-91341771D01*
X124476829Y-91341772D01*
X124531116Y-91448315D01*
X124531117Y-91448316D01*
X124531119Y-91448319D01*
X124615675Y-91532875D01*
X124615677Y-91532876D01*
X124615678Y-91532877D01*
X124722221Y-91587164D01*
X124738369Y-91589721D01*
X124840330Y-91605870D01*
X124958438Y-91587164D01*
X125064985Y-91532875D01*
X125064988Y-91532871D01*
X125066858Y-91531514D01*
X125068687Y-91530989D01*
X125071149Y-91529735D01*
X125071392Y-91530213D01*
X125124655Y-91514938D01*
X125179585Y-91539391D01*
X125205946Y-91593432D01*
X125206428Y-91602624D01*
X125206428Y-106077007D01*
X125206424Y-106077053D01*
X125206427Y-106121364D01*
X125206156Y-106128261D01*
X125191305Y-106317111D01*
X125189148Y-106330736D01*
X125145741Y-106511574D01*
X125141479Y-106524694D01*
X125070313Y-106696516D01*
X125064051Y-106708806D01*
X124966881Y-106867379D01*
X124958772Y-106878540D01*
X124837987Y-107019960D01*
X124828233Y-107029714D01*
X124686817Y-107150490D01*
X124675657Y-107158598D01*
X124517082Y-107255765D01*
X124504790Y-107262027D01*
X124332965Y-107333188D01*
X124319846Y-107337450D01*
X124139007Y-107380853D01*
X124125382Y-107383010D01*
X123936067Y-107397893D01*
X123929170Y-107398163D01*
X123884845Y-107398159D01*
X123884793Y-107398164D01*
X108979329Y-107398164D01*
X108979308Y-107398162D01*
X108970935Y-107398162D01*
X108964220Y-107398162D01*
X108934502Y-107398163D01*
X108927607Y-107397892D01*
X108738757Y-107383036D01*
X108725133Y-107380879D01*
X108544293Y-107337469D01*
X108531173Y-107333206D01*
X108359349Y-107262037D01*
X108347058Y-107255775D01*
X108188488Y-107158603D01*
X108177329Y-107150495D01*
X108035915Y-107029714D01*
X108026161Y-107019960D01*
X107905382Y-106878541D01*
X107897275Y-106867381D01*
X107800105Y-106708803D01*
X107793845Y-106696516D01*
X107722680Y-106524687D01*
X107718424Y-106511587D01*
X107675013Y-106330729D01*
X107672857Y-106317116D01*
X107657966Y-106127747D01*
X107657696Y-106120853D01*
X107657699Y-106084930D01*
X107657698Y-106084928D01*
X107657699Y-106077053D01*
X107657696Y-106077007D01*
X107657696Y-104855664D01*
X115494124Y-104855664D01*
X115512829Y-104973771D01*
X115512829Y-104973772D01*
X115567116Y-105080315D01*
X115567117Y-105080316D01*
X115567119Y-105080319D01*
X115651675Y-105164875D01*
X115651677Y-105164876D01*
X115651678Y-105164877D01*
X115758221Y-105219164D01*
X115774369Y-105221721D01*
X115876330Y-105237870D01*
X115994438Y-105219164D01*
X116100985Y-105164875D01*
X116185541Y-105080319D01*
X116239830Y-104973772D01*
X116258536Y-104855664D01*
X116239830Y-104737556D01*
X116239830Y-104737555D01*
X116185543Y-104631012D01*
X116185542Y-104631011D01*
X116185541Y-104631009D01*
X116100985Y-104546453D01*
X116100982Y-104546451D01*
X116100981Y-104546450D01*
X115994438Y-104492163D01*
X115876330Y-104473458D01*
X115758222Y-104492163D01*
X115758221Y-104492163D01*
X115651678Y-104546450D01*
X115567116Y-104631012D01*
X115512829Y-104737555D01*
X115512829Y-104737556D01*
X115494124Y-104855664D01*
X107657696Y-104855664D01*
X107657696Y-104072062D01*
X114144124Y-104072062D01*
X114162829Y-104190169D01*
X114162829Y-104190170D01*
X114217116Y-104296713D01*
X114217117Y-104296714D01*
X114217119Y-104296717D01*
X114301675Y-104381273D01*
X114301677Y-104381274D01*
X114301678Y-104381275D01*
X114408221Y-104435562D01*
X114424369Y-104438119D01*
X114526330Y-104454268D01*
X114644438Y-104435562D01*
X114750985Y-104381273D01*
X114826594Y-104305664D01*
X117244124Y-104305664D01*
X117262829Y-104423771D01*
X117262829Y-104423772D01*
X117317116Y-104530315D01*
X117317117Y-104530316D01*
X117317119Y-104530319D01*
X117401675Y-104614875D01*
X117401677Y-104614876D01*
X117401678Y-104614877D01*
X117508221Y-104669164D01*
X117524369Y-104671721D01*
X117626330Y-104687870D01*
X117744438Y-104669164D01*
X117850985Y-104614875D01*
X117935541Y-104530319D01*
X117989830Y-104423772D01*
X118008536Y-104305664D01*
X117989830Y-104187556D01*
X117989830Y-104187555D01*
X117935543Y-104081012D01*
X117935542Y-104081011D01*
X117935541Y-104081009D01*
X117850985Y-103996453D01*
X117850982Y-103996451D01*
X117850981Y-103996450D01*
X117744438Y-103942163D01*
X117626330Y-103923458D01*
X117508222Y-103942163D01*
X117508221Y-103942163D01*
X117401678Y-103996450D01*
X117317116Y-104081012D01*
X117262829Y-104187555D01*
X117262829Y-104187556D01*
X117244124Y-104305664D01*
X114826594Y-104305664D01*
X114835541Y-104296717D01*
X114889830Y-104190170D01*
X114908536Y-104072062D01*
X114889830Y-103953954D01*
X114889830Y-103953953D01*
X114835543Y-103847410D01*
X114835542Y-103847409D01*
X114835541Y-103847407D01*
X114750985Y-103762851D01*
X114750982Y-103762849D01*
X114750981Y-103762848D01*
X114644438Y-103708561D01*
X114526330Y-103689856D01*
X114408222Y-103708561D01*
X114408221Y-103708561D01*
X114301678Y-103762848D01*
X114217116Y-103847410D01*
X114162829Y-103953953D01*
X114162829Y-103953954D01*
X114144124Y-104072062D01*
X107657696Y-104072062D01*
X107657696Y-103656962D01*
X113194124Y-103656962D01*
X113212829Y-103775069D01*
X113212829Y-103775070D01*
X113267116Y-103881613D01*
X113267117Y-103881614D01*
X113267119Y-103881617D01*
X113351675Y-103966173D01*
X113351677Y-103966174D01*
X113351678Y-103966175D01*
X113458221Y-104020462D01*
X113474369Y-104023019D01*
X113576330Y-104039168D01*
X113694438Y-104020462D01*
X113800985Y-103966173D01*
X113885541Y-103881617D01*
X113939830Y-103775070D01*
X113958536Y-103656962D01*
X113939830Y-103538854D01*
X113939830Y-103538853D01*
X113885543Y-103432310D01*
X113885542Y-103432309D01*
X113885541Y-103432307D01*
X113800985Y-103347751D01*
X113800982Y-103347749D01*
X113800981Y-103347748D01*
X113694438Y-103293461D01*
X113576330Y-103274756D01*
X113458222Y-103293461D01*
X113458221Y-103293461D01*
X113351678Y-103347748D01*
X113267116Y-103432310D01*
X113212829Y-103538853D01*
X113212829Y-103538854D01*
X113194124Y-103656962D01*
X107657696Y-103656962D01*
X107657696Y-103241862D01*
X114694124Y-103241862D01*
X114712829Y-103359969D01*
X114712829Y-103359970D01*
X114767116Y-103466513D01*
X114767117Y-103466514D01*
X114767119Y-103466517D01*
X114851675Y-103551073D01*
X114851677Y-103551074D01*
X114851678Y-103551075D01*
X114958221Y-103605362D01*
X114974369Y-103607919D01*
X115076330Y-103624068D01*
X115194438Y-103605362D01*
X115300985Y-103551073D01*
X115385541Y-103466517D01*
X115439830Y-103359970D01*
X115458536Y-103241862D01*
X115439830Y-103123754D01*
X115439830Y-103123753D01*
X115385543Y-103017210D01*
X115385542Y-103017209D01*
X115385541Y-103017207D01*
X115300985Y-102932651D01*
X115300982Y-102932649D01*
X115300981Y-102932648D01*
X115194438Y-102878361D01*
X115076330Y-102859656D01*
X114958222Y-102878361D01*
X114958221Y-102878361D01*
X114851678Y-102932648D01*
X114767116Y-103017210D01*
X114712829Y-103123753D01*
X114712829Y-103123754D01*
X114694124Y-103241862D01*
X107657696Y-103241862D01*
X107657696Y-101848064D01*
X108483124Y-101848064D01*
X108501829Y-101966171D01*
X108501829Y-101966172D01*
X108556116Y-102072715D01*
X108556117Y-102072716D01*
X108556119Y-102072719D01*
X108640675Y-102157275D01*
X108640677Y-102157276D01*
X108640678Y-102157277D01*
X108747221Y-102211564D01*
X108763369Y-102214121D01*
X108865330Y-102230270D01*
X108983438Y-102211564D01*
X109089985Y-102157275D01*
X109113135Y-102134124D01*
X109167625Y-102108715D01*
X109225704Y-102124276D01*
X109253607Y-102156374D01*
X109281437Y-102210994D01*
X109281438Y-102210995D01*
X109281440Y-102210998D01*
X109365996Y-102295554D01*
X109365998Y-102295555D01*
X109365999Y-102295556D01*
X109472542Y-102349843D01*
X109488690Y-102352400D01*
X109590651Y-102368549D01*
X109660628Y-102357466D01*
X116295926Y-102357466D01*
X116314631Y-102475573D01*
X116314631Y-102475574D01*
X116368918Y-102582117D01*
X116368919Y-102582118D01*
X116368921Y-102582121D01*
X116453477Y-102666677D01*
X116453479Y-102666678D01*
X116453480Y-102666679D01*
X116560023Y-102720966D01*
X116576171Y-102723523D01*
X116678132Y-102739672D01*
X116796240Y-102720966D01*
X116902787Y-102666677D01*
X116987343Y-102582121D01*
X117041632Y-102475574D01*
X117060338Y-102357466D01*
X117054302Y-102319358D01*
X117366500Y-102319358D01*
X117385205Y-102437465D01*
X117385205Y-102437466D01*
X117439492Y-102544009D01*
X117439493Y-102544010D01*
X117439495Y-102544013D01*
X117524051Y-102628569D01*
X117524053Y-102628570D01*
X117524054Y-102628571D01*
X117630597Y-102682858D01*
X117676364Y-102690106D01*
X117725434Y-102697878D01*
X117778023Y-102727028D01*
X117798502Y-102770946D01*
X117814053Y-102869138D01*
X117814053Y-102869139D01*
X117868340Y-102975682D01*
X117868341Y-102975683D01*
X117868343Y-102975686D01*
X117952899Y-103060242D01*
X117952901Y-103060243D01*
X117952902Y-103060244D01*
X118059445Y-103114531D01*
X118075593Y-103117088D01*
X118177554Y-103133237D01*
X118295662Y-103114531D01*
X118402209Y-103060242D01*
X118486765Y-102975686D01*
X118541054Y-102869139D01*
X118559760Y-102751031D01*
X118557049Y-102733913D01*
X118568522Y-102674892D01*
X118615250Y-102637053D01*
X118630113Y-102633347D01*
X118710762Y-102620574D01*
X118817309Y-102566285D01*
X118901865Y-102481729D01*
X118956154Y-102375182D01*
X118974860Y-102257074D01*
X118974860Y-102257073D01*
X118974860Y-102255286D01*
X118975361Y-102253908D01*
X118975942Y-102250242D01*
X118976654Y-102250354D01*
X118995425Y-102198785D01*
X119047496Y-102168721D01*
X119048930Y-102168481D01*
X119125862Y-102156297D01*
X119232409Y-102102008D01*
X119316965Y-102017452D01*
X119352948Y-101946832D01*
X119396920Y-101905827D01*
X119456965Y-101902680D01*
X119471172Y-101908420D01*
X119567621Y-101957564D01*
X119583769Y-101960121D01*
X119685730Y-101976270D01*
X119803838Y-101957564D01*
X119910385Y-101903275D01*
X119994941Y-101818719D01*
X120049230Y-101712172D01*
X120067936Y-101594064D01*
X120049230Y-101475956D01*
X120049230Y-101475955D01*
X120013971Y-101406756D01*
X120006643Y-101347077D01*
X120039390Y-101296650D01*
X120052372Y-101288537D01*
X120154521Y-101236490D01*
X120239077Y-101151934D01*
X120293366Y-101045387D01*
X120312072Y-100927279D01*
X120293366Y-100809171D01*
X120293366Y-100809170D01*
X120239079Y-100702627D01*
X120239078Y-100702626D01*
X120239077Y-100702624D01*
X120154521Y-100618068D01*
X120154518Y-100618066D01*
X120154517Y-100618065D01*
X120047974Y-100563778D01*
X119929866Y-100545073D01*
X119811758Y-100563778D01*
X119811757Y-100563778D01*
X119705214Y-100618065D01*
X119620652Y-100702627D01*
X119566365Y-100809170D01*
X119566365Y-100809171D01*
X119547660Y-100927279D01*
X119566365Y-101045385D01*
X119601625Y-101114587D01*
X119608952Y-101174266D01*
X119576204Y-101224692D01*
X119563211Y-101232811D01*
X119461078Y-101284850D01*
X119376516Y-101369412D01*
X119340536Y-101440027D01*
X119296562Y-101481034D01*
X119236517Y-101484180D01*
X119222311Y-101478440D01*
X119125862Y-101429296D01*
X119007754Y-101410591D01*
X118889646Y-101429296D01*
X118889645Y-101429296D01*
X118783102Y-101483583D01*
X118698540Y-101568145D01*
X118644253Y-101674688D01*
X118644253Y-101674689D01*
X118625548Y-101792797D01*
X118625548Y-101794584D01*
X118625047Y-101795960D01*
X118624466Y-101799629D01*
X118623752Y-101799516D01*
X118604983Y-101851085D01*
X118552912Y-101881149D01*
X118551398Y-101881402D01*
X118474546Y-101893573D01*
X118474545Y-101893573D01*
X118368002Y-101947860D01*
X118283440Y-102032422D01*
X118233131Y-102131159D01*
X118189157Y-102172166D01*
X118129112Y-102175312D01*
X118081093Y-102139126D01*
X118076493Y-102131159D01*
X118057919Y-102094706D01*
X118057918Y-102094705D01*
X118057917Y-102094703D01*
X117973361Y-102010147D01*
X117973358Y-102010145D01*
X117973357Y-102010144D01*
X117866814Y-101955857D01*
X117748706Y-101937152D01*
X117630598Y-101955857D01*
X117630597Y-101955857D01*
X117524054Y-102010144D01*
X117439492Y-102094706D01*
X117385205Y-102201249D01*
X117385205Y-102201250D01*
X117366500Y-102319358D01*
X117054302Y-102319358D01*
X117041632Y-102239358D01*
X117041632Y-102239357D01*
X116987345Y-102132814D01*
X116987344Y-102132813D01*
X116987343Y-102132811D01*
X116902787Y-102048255D01*
X116902784Y-102048253D01*
X116902783Y-102048252D01*
X116796240Y-101993965D01*
X116678132Y-101975260D01*
X116560024Y-101993965D01*
X116560023Y-101993965D01*
X116453480Y-102048252D01*
X116368918Y-102132814D01*
X116314631Y-102239357D01*
X116314631Y-102239358D01*
X116295926Y-102357466D01*
X109660628Y-102357466D01*
X109708759Y-102349843D01*
X109815306Y-102295554D01*
X109899862Y-102210998D01*
X109954151Y-102104451D01*
X109972857Y-101986343D01*
X109954151Y-101868235D01*
X109954151Y-101868234D01*
X109917990Y-101797264D01*
X113462017Y-101797264D01*
X113480722Y-101915371D01*
X113480722Y-101915372D01*
X113535009Y-102021915D01*
X113535010Y-102021916D01*
X113535012Y-102021919D01*
X113619568Y-102106475D01*
X113619570Y-102106476D01*
X113619571Y-102106477D01*
X113726114Y-102160764D01*
X113742262Y-102163321D01*
X113844223Y-102179470D01*
X113962331Y-102160764D01*
X114068878Y-102106475D01*
X114153434Y-102021919D01*
X114207723Y-101915372D01*
X114226429Y-101797264D01*
X114207723Y-101679156D01*
X114207723Y-101679155D01*
X114153436Y-101572612D01*
X114153435Y-101572611D01*
X114153434Y-101572609D01*
X114068878Y-101488053D01*
X114068875Y-101488051D01*
X114068874Y-101488050D01*
X113962331Y-101433763D01*
X113844223Y-101415058D01*
X113726115Y-101433763D01*
X113726114Y-101433763D01*
X113619571Y-101488050D01*
X113535009Y-101572612D01*
X113480722Y-101679155D01*
X113480722Y-101679156D01*
X113462017Y-101797264D01*
X109917990Y-101797264D01*
X109899864Y-101761691D01*
X109899863Y-101761690D01*
X109899862Y-101761688D01*
X109815306Y-101677132D01*
X109815303Y-101677130D01*
X109815302Y-101677129D01*
X109708759Y-101622842D01*
X109590651Y-101604137D01*
X109472543Y-101622842D01*
X109472542Y-101622842D01*
X109365999Y-101677129D01*
X109365998Y-101677129D01*
X109342846Y-101700282D01*
X109288351Y-101725692D01*
X109230273Y-101710129D01*
X109202373Y-101678032D01*
X109174541Y-101623409D01*
X109089985Y-101538853D01*
X109089982Y-101538851D01*
X109089981Y-101538850D01*
X108983438Y-101484563D01*
X108865330Y-101465858D01*
X108747222Y-101484563D01*
X108747221Y-101484563D01*
X108640678Y-101538850D01*
X108556116Y-101623412D01*
X108501829Y-101729955D01*
X108501829Y-101729956D01*
X108483124Y-101848064D01*
X107657696Y-101848064D01*
X107657696Y-100770187D01*
X112792039Y-100770187D01*
X112810744Y-100888294D01*
X112810744Y-100888295D01*
X112865031Y-100994838D01*
X112865032Y-100994839D01*
X112865034Y-100994842D01*
X112949590Y-101079398D01*
X112949592Y-101079399D01*
X112949593Y-101079400D01*
X113056136Y-101133687D01*
X113072284Y-101136244D01*
X113174245Y-101152393D01*
X113292353Y-101133687D01*
X113398900Y-101079398D01*
X113483456Y-100994842D01*
X113488744Y-100984464D01*
X115161324Y-100984464D01*
X115180029Y-101102571D01*
X115180029Y-101102572D01*
X115234316Y-101209115D01*
X115234317Y-101209116D01*
X115234319Y-101209119D01*
X115318875Y-101293675D01*
X115318877Y-101293676D01*
X115318878Y-101293677D01*
X115425421Y-101347964D01*
X115441569Y-101350521D01*
X115543530Y-101366670D01*
X115661638Y-101347964D01*
X115768185Y-101293675D01*
X115852741Y-101209119D01*
X115854501Y-101205664D01*
X116194124Y-101205664D01*
X116212829Y-101323771D01*
X116212829Y-101323772D01*
X116267116Y-101430315D01*
X116267117Y-101430316D01*
X116267119Y-101430319D01*
X116351675Y-101514875D01*
X116351677Y-101514876D01*
X116351678Y-101514877D01*
X116458221Y-101569164D01*
X116474369Y-101571721D01*
X116576330Y-101587870D01*
X116694438Y-101569164D01*
X116800985Y-101514875D01*
X116885541Y-101430319D01*
X116939830Y-101323772D01*
X116958536Y-101205664D01*
X116939830Y-101087556D01*
X116939830Y-101087555D01*
X116885543Y-100981012D01*
X116885542Y-100981011D01*
X116885541Y-100981009D01*
X116800985Y-100896453D01*
X116800982Y-100896451D01*
X116800981Y-100896450D01*
X116694438Y-100842163D01*
X116576330Y-100823458D01*
X116458222Y-100842163D01*
X116458221Y-100842163D01*
X116351678Y-100896450D01*
X116267116Y-100981012D01*
X116212829Y-101087555D01*
X116212829Y-101087556D01*
X116194124Y-101205664D01*
X115854501Y-101205664D01*
X115907030Y-101102572D01*
X115925736Y-100984464D01*
X115907030Y-100866356D01*
X115907030Y-100866355D01*
X115852743Y-100759812D01*
X115852742Y-100759811D01*
X115852741Y-100759809D01*
X115768185Y-100675253D01*
X115768182Y-100675251D01*
X115768181Y-100675250D01*
X115661638Y-100620963D01*
X115543530Y-100602258D01*
X115425422Y-100620963D01*
X115425421Y-100620963D01*
X115318878Y-100675250D01*
X115234316Y-100759812D01*
X115180029Y-100866355D01*
X115180029Y-100866356D01*
X115161324Y-100984464D01*
X113488744Y-100984464D01*
X113537745Y-100888295D01*
X113556451Y-100770187D01*
X113537745Y-100652079D01*
X113537745Y-100652078D01*
X113483458Y-100545535D01*
X113483457Y-100545534D01*
X113483456Y-100545532D01*
X113398900Y-100460976D01*
X113398897Y-100460974D01*
X113398896Y-100460973D01*
X113292353Y-100406686D01*
X113174245Y-100387981D01*
X113056137Y-100406686D01*
X113056136Y-100406686D01*
X112949593Y-100460973D01*
X112865031Y-100545535D01*
X112810744Y-100652078D01*
X112810744Y-100652079D01*
X112792039Y-100770187D01*
X107657696Y-100770187D01*
X107657696Y-100285656D01*
X107667628Y-100258368D01*
X114435228Y-100258368D01*
X114453933Y-100376475D01*
X114453933Y-100376476D01*
X114508220Y-100483019D01*
X114508221Y-100483020D01*
X114508223Y-100483023D01*
X114592779Y-100567579D01*
X114592781Y-100567580D01*
X114592782Y-100567581D01*
X114699325Y-100621868D01*
X114715473Y-100624425D01*
X114817434Y-100640574D01*
X114935542Y-100621868D01*
X115042089Y-100567579D01*
X115126645Y-100483023D01*
X115180934Y-100376476D01*
X115199640Y-100258368D01*
X115180934Y-100140260D01*
X115180934Y-100140259D01*
X115126647Y-100033716D01*
X115126646Y-100033715D01*
X115126645Y-100033713D01*
X115042089Y-99949157D01*
X115042086Y-99949155D01*
X115042085Y-99949154D01*
X114935542Y-99894867D01*
X114817434Y-99876162D01*
X114699326Y-99894867D01*
X114699325Y-99894867D01*
X114592782Y-99949154D01*
X114508220Y-100033716D01*
X114453933Y-100140259D01*
X114453933Y-100140260D01*
X114435228Y-100258368D01*
X107667628Y-100258368D01*
X107678261Y-100229155D01*
X107730332Y-100199091D01*
X107785502Y-100207336D01*
X107789088Y-100209164D01*
X107907196Y-100227870D01*
X108025304Y-100209164D01*
X108131851Y-100154875D01*
X108216407Y-100070319D01*
X108270696Y-99963772D01*
X108289402Y-99845664D01*
X120344124Y-99845664D01*
X120362829Y-99963771D01*
X120362829Y-99963772D01*
X120417116Y-100070315D01*
X120417117Y-100070316D01*
X120417119Y-100070319D01*
X120501675Y-100154875D01*
X120501677Y-100154876D01*
X120501678Y-100154877D01*
X120608221Y-100209164D01*
X120624369Y-100211721D01*
X120726330Y-100227870D01*
X120844438Y-100209164D01*
X120950985Y-100154875D01*
X121035541Y-100070319D01*
X121089830Y-99963772D01*
X121092311Y-99948105D01*
X121121459Y-99895516D01*
X121177591Y-99873966D01*
X121234443Y-99893540D01*
X121257448Y-99921947D01*
X121297290Y-100000141D01*
X121297291Y-100000142D01*
X121297293Y-100000145D01*
X121381849Y-100084701D01*
X121381851Y-100084702D01*
X121381852Y-100084703D01*
X121488395Y-100138990D01*
X121504543Y-100141547D01*
X121606504Y-100157696D01*
X121724612Y-100138990D01*
X121831159Y-100084701D01*
X121915715Y-100000145D01*
X121970004Y-99893598D01*
X121988710Y-99775490D01*
X121970004Y-99657382D01*
X121970004Y-99657381D01*
X121915717Y-99550838D01*
X121915716Y-99550837D01*
X121915715Y-99550835D01*
X121831159Y-99466279D01*
X121831156Y-99466277D01*
X121831155Y-99466276D01*
X121724612Y-99411989D01*
X121606504Y-99393284D01*
X121488396Y-99411989D01*
X121488395Y-99411989D01*
X121381852Y-99466276D01*
X121297290Y-99550838D01*
X121243003Y-99657381D01*
X121240522Y-99673051D01*
X121211371Y-99725639D01*
X121155237Y-99747187D01*
X121098386Y-99727611D01*
X121075386Y-99699208D01*
X121035541Y-99621009D01*
X120950985Y-99536453D01*
X120950982Y-99536451D01*
X120950981Y-99536450D01*
X120844438Y-99482163D01*
X120726330Y-99463458D01*
X120608222Y-99482163D01*
X120608221Y-99482163D01*
X120501678Y-99536450D01*
X120417116Y-99621012D01*
X120362829Y-99727555D01*
X120362829Y-99727556D01*
X120344124Y-99845664D01*
X108289402Y-99845664D01*
X108270696Y-99727556D01*
X108270696Y-99727555D01*
X108216409Y-99621012D01*
X108216408Y-99621011D01*
X108216407Y-99621009D01*
X108131851Y-99536453D01*
X108131848Y-99536451D01*
X108131847Y-99536450D01*
X108025304Y-99482163D01*
X107907196Y-99463458D01*
X107789088Y-99482163D01*
X107789084Y-99482165D01*
X107785496Y-99483993D01*
X107725817Y-99491317D01*
X107675392Y-99458566D01*
X107657696Y-99405671D01*
X107657696Y-99257264D01*
X112545124Y-99257264D01*
X112563829Y-99375371D01*
X112563829Y-99375372D01*
X112618116Y-99481915D01*
X112618117Y-99481916D01*
X112618119Y-99481919D01*
X112702675Y-99566475D01*
X112702677Y-99566476D01*
X112702678Y-99566477D01*
X112809221Y-99620764D01*
X112825369Y-99623321D01*
X112927330Y-99639470D01*
X113045438Y-99620764D01*
X113151985Y-99566475D01*
X113236541Y-99481919D01*
X113290830Y-99375372D01*
X113309536Y-99257264D01*
X113290830Y-99139156D01*
X113290830Y-99139155D01*
X113236543Y-99032612D01*
X113236542Y-99032611D01*
X113236541Y-99032609D01*
X113151985Y-98948053D01*
X113151982Y-98948051D01*
X113151981Y-98948050D01*
X113045438Y-98893763D01*
X112927330Y-98875058D01*
X112809222Y-98893763D01*
X112809221Y-98893763D01*
X112702678Y-98948050D01*
X112618116Y-99032612D01*
X112563829Y-99139155D01*
X112563829Y-99139156D01*
X112545124Y-99257264D01*
X107657696Y-99257264D01*
X107657696Y-98257206D01*
X115746215Y-98257206D01*
X115764920Y-98375313D01*
X115764920Y-98375314D01*
X115819207Y-98481857D01*
X115819208Y-98481858D01*
X115819210Y-98481861D01*
X115903766Y-98566417D01*
X115903768Y-98566418D01*
X115903769Y-98566419D01*
X116010312Y-98620706D01*
X116026460Y-98623263D01*
X116128421Y-98639412D01*
X116246529Y-98620706D01*
X116353076Y-98566417D01*
X116437632Y-98481861D01*
X116491921Y-98375314D01*
X116510627Y-98257206D01*
X116491921Y-98139098D01*
X116491921Y-98139097D01*
X116437634Y-98032554D01*
X116437633Y-98032553D01*
X116437632Y-98032551D01*
X116353076Y-97947995D01*
X116327633Y-97935031D01*
X116286628Y-97891057D01*
X116283481Y-97831013D01*
X116319666Y-97782993D01*
X116327624Y-97778397D01*
X116384570Y-97749382D01*
X116469126Y-97664826D01*
X116523415Y-97558279D01*
X116542121Y-97440171D01*
X116523415Y-97322063D01*
X116523415Y-97322062D01*
X116504666Y-97285266D01*
X116497338Y-97225587D01*
X116530085Y-97175160D01*
X116587585Y-97157580D01*
X116642932Y-97181074D01*
X116645111Y-97183177D01*
X116648781Y-97186847D01*
X116648783Y-97186848D01*
X116648784Y-97186849D01*
X116755327Y-97241136D01*
X116771475Y-97243693D01*
X116873436Y-97259842D01*
X116991544Y-97241136D01*
X117098091Y-97186847D01*
X117182647Y-97102291D01*
X117183593Y-97100435D01*
X118158846Y-97100435D01*
X118177551Y-97218542D01*
X118177551Y-97218543D01*
X118231838Y-97325086D01*
X118231839Y-97325087D01*
X118231841Y-97325090D01*
X118316397Y-97409646D01*
X118316399Y-97409647D01*
X118316400Y-97409648D01*
X118422943Y-97463935D01*
X118439091Y-97466492D01*
X118541052Y-97482641D01*
X118643992Y-97466337D01*
X118665993Y-97462853D01*
X118666310Y-97464859D01*
X118717375Y-97466640D01*
X118762060Y-97506870D01*
X118770431Y-97566412D01*
X118762772Y-97588043D01*
X118757326Y-97598732D01*
X118752829Y-97607558D01*
X118734124Y-97725664D01*
X118752829Y-97843771D01*
X118752829Y-97843772D01*
X118807116Y-97950315D01*
X118807117Y-97950316D01*
X118807119Y-97950319D01*
X118891675Y-98034875D01*
X118891677Y-98034876D01*
X118891678Y-98034877D01*
X118998221Y-98089164D01*
X119014369Y-98091721D01*
X119116330Y-98107870D01*
X119234438Y-98089164D01*
X119340985Y-98034875D01*
X119425541Y-97950319D01*
X119479830Y-97843772D01*
X119498536Y-97725664D01*
X119479830Y-97607556D01*
X119479830Y-97607555D01*
X119438158Y-97525770D01*
X121127622Y-97525770D01*
X121146327Y-97643877D01*
X121146327Y-97643878D01*
X121200614Y-97750421D01*
X121200615Y-97750422D01*
X121200617Y-97750425D01*
X121285173Y-97834981D01*
X121285175Y-97834982D01*
X121285176Y-97834983D01*
X121391719Y-97889270D01*
X121403003Y-97891057D01*
X121509828Y-97907976D01*
X121627936Y-97889270D01*
X121734483Y-97834981D01*
X121819039Y-97750425D01*
X121836151Y-97716841D01*
X122556947Y-97716841D01*
X122575652Y-97834948D01*
X122575652Y-97834949D01*
X122629939Y-97941492D01*
X122629940Y-97941493D01*
X122629942Y-97941496D01*
X122714498Y-98026052D01*
X122714500Y-98026053D01*
X122714501Y-98026054D01*
X122821044Y-98080341D01*
X122839750Y-98083303D01*
X122939153Y-98099047D01*
X123053174Y-98080988D01*
X123112196Y-98092461D01*
X123150035Y-98139189D01*
X123153742Y-98181556D01*
X123138251Y-98279368D01*
X123156956Y-98397476D01*
X123156956Y-98397477D01*
X123211243Y-98504020D01*
X123211244Y-98504021D01*
X123211246Y-98504024D01*
X123295802Y-98588580D01*
X123295804Y-98588581D01*
X123295805Y-98588582D01*
X123402348Y-98642869D01*
X123418496Y-98645426D01*
X123520457Y-98661575D01*
X123638565Y-98642869D01*
X123745112Y-98588580D01*
X123829668Y-98504024D01*
X123883957Y-98397477D01*
X123902663Y-98279369D01*
X123883957Y-98161261D01*
X123883957Y-98161260D01*
X123829670Y-98054717D01*
X123829669Y-98054716D01*
X123829668Y-98054714D01*
X123745112Y-97970158D01*
X123745109Y-97970156D01*
X123745108Y-97970155D01*
X123638565Y-97915868D01*
X123520457Y-97897163D01*
X123406435Y-97915221D01*
X123347412Y-97903747D01*
X123309574Y-97857020D01*
X123305867Y-97814654D01*
X123321359Y-97716841D01*
X123302653Y-97598733D01*
X123302653Y-97598732D01*
X123248366Y-97492189D01*
X123248365Y-97492188D01*
X123248364Y-97492186D01*
X123163808Y-97407630D01*
X123163805Y-97407628D01*
X123163804Y-97407627D01*
X123057261Y-97353340D01*
X122939153Y-97334635D01*
X122821045Y-97353340D01*
X122821044Y-97353340D01*
X122714501Y-97407627D01*
X122629939Y-97492189D01*
X122575652Y-97598732D01*
X122575652Y-97598733D01*
X122556947Y-97716841D01*
X121836151Y-97716841D01*
X121873328Y-97643878D01*
X121892034Y-97525770D01*
X121873328Y-97407662D01*
X121873328Y-97407661D01*
X121819041Y-97301118D01*
X121819040Y-97301117D01*
X121819039Y-97301115D01*
X121734483Y-97216559D01*
X121734480Y-97216557D01*
X121734479Y-97216556D01*
X121627936Y-97162269D01*
X121509828Y-97143564D01*
X121391720Y-97162269D01*
X121391719Y-97162269D01*
X121285176Y-97216556D01*
X121200614Y-97301118D01*
X121146327Y-97407661D01*
X121146327Y-97407662D01*
X121127622Y-97525770D01*
X119438158Y-97525770D01*
X119425543Y-97501012D01*
X119425542Y-97501011D01*
X119425541Y-97501009D01*
X119340985Y-97416453D01*
X119340982Y-97416451D01*
X119340981Y-97416450D01*
X119234438Y-97362163D01*
X119116330Y-97343458D01*
X118991389Y-97363246D01*
X118991071Y-97361243D01*
X118939986Y-97359450D01*
X118895311Y-97319208D01*
X118886955Y-97259664D01*
X118894608Y-97238058D01*
X118904552Y-97218543D01*
X118923258Y-97100435D01*
X118904552Y-96982327D01*
X118904552Y-96982326D01*
X118850265Y-96875783D01*
X118850264Y-96875782D01*
X118850263Y-96875780D01*
X118822694Y-96848211D01*
X118797284Y-96793719D01*
X118812847Y-96735641D01*
X118822689Y-96723909D01*
X118863994Y-96682605D01*
X118918283Y-96576058D01*
X118936989Y-96457950D01*
X118918283Y-96339842D01*
X118918283Y-96339841D01*
X118863996Y-96233298D01*
X118863995Y-96233297D01*
X118863994Y-96233295D01*
X118779438Y-96148739D01*
X118779435Y-96148737D01*
X118779434Y-96148736D01*
X118672891Y-96094449D01*
X118554783Y-96075744D01*
X118436675Y-96094449D01*
X118436674Y-96094449D01*
X118330131Y-96148736D01*
X118245569Y-96233298D01*
X118191282Y-96339841D01*
X118191282Y-96339842D01*
X118172577Y-96457950D01*
X118191282Y-96576057D01*
X118191282Y-96576058D01*
X118245569Y-96682601D01*
X118245570Y-96682602D01*
X118245572Y-96682605D01*
X118273140Y-96710173D01*
X118298551Y-96764666D01*
X118282988Y-96822744D01*
X118273145Y-96834475D01*
X118231841Y-96875780D01*
X118231838Y-96875783D01*
X118177551Y-96982326D01*
X118177551Y-96982327D01*
X118158846Y-97100435D01*
X117183593Y-97100435D01*
X117236936Y-96995744D01*
X117255642Y-96877636D01*
X117236936Y-96759528D01*
X117236936Y-96759527D01*
X117182649Y-96652984D01*
X117182648Y-96652983D01*
X117182647Y-96652981D01*
X117098091Y-96568425D01*
X117098088Y-96568423D01*
X117098087Y-96568422D01*
X116991544Y-96514135D01*
X116873436Y-96495430D01*
X116755328Y-96514135D01*
X116755327Y-96514135D01*
X116648784Y-96568422D01*
X116564222Y-96652984D01*
X116509935Y-96759527D01*
X116509935Y-96759528D01*
X116491230Y-96877636D01*
X116509935Y-96995742D01*
X116528685Y-97032541D01*
X116536012Y-97092220D01*
X116503264Y-97142646D01*
X116445764Y-97160226D01*
X116390417Y-97136732D01*
X116388239Y-97134629D01*
X116384570Y-97130960D01*
X116384567Y-97130958D01*
X116384566Y-97130957D01*
X116278023Y-97076670D01*
X116159915Y-97057965D01*
X116041807Y-97076670D01*
X116041806Y-97076670D01*
X115935263Y-97130957D01*
X115850701Y-97215519D01*
X115796414Y-97322062D01*
X115796414Y-97322063D01*
X115777709Y-97440171D01*
X115796414Y-97558278D01*
X115796414Y-97558279D01*
X115850701Y-97664822D01*
X115850702Y-97664823D01*
X115850704Y-97664826D01*
X115935260Y-97749382D01*
X115960700Y-97762344D01*
X116001707Y-97806318D01*
X116004855Y-97866362D01*
X115968670Y-97914382D01*
X115960702Y-97918983D01*
X115903768Y-97947993D01*
X115819207Y-98032554D01*
X115764920Y-98139097D01*
X115764920Y-98139098D01*
X115746215Y-98257206D01*
X107657696Y-98257206D01*
X107657696Y-97000099D01*
X107678261Y-96943598D01*
X107683430Y-96937955D01*
X108508191Y-96113194D01*
X115299259Y-96113194D01*
X115317964Y-96231301D01*
X115317964Y-96231302D01*
X115372251Y-96337845D01*
X115372252Y-96337846D01*
X115372254Y-96337849D01*
X115456810Y-96422405D01*
X115456812Y-96422406D01*
X115456813Y-96422407D01*
X115563356Y-96476694D01*
X115579504Y-96479251D01*
X115681465Y-96495400D01*
X115799573Y-96476694D01*
X115906120Y-96422405D01*
X115990676Y-96337849D01*
X116044965Y-96231302D01*
X116063671Y-96113194D01*
X116044965Y-95995086D01*
X116044965Y-95995085D01*
X116024879Y-95955664D01*
X119838124Y-95955664D01*
X119856829Y-96073771D01*
X119856829Y-96073772D01*
X119911116Y-96180315D01*
X119911117Y-96180316D01*
X119911119Y-96180319D01*
X119995675Y-96264875D01*
X119995677Y-96264876D01*
X119995678Y-96264877D01*
X120102221Y-96319164D01*
X120118369Y-96321721D01*
X120220330Y-96337870D01*
X120338438Y-96319164D01*
X120444985Y-96264875D01*
X120529541Y-96180319D01*
X120574479Y-96092124D01*
X120618452Y-96051120D01*
X120678496Y-96047973D01*
X120726516Y-96084158D01*
X120739615Y-96118282D01*
X120754421Y-96211771D01*
X120754421Y-96211772D01*
X120808708Y-96318315D01*
X120808709Y-96318316D01*
X120808711Y-96318319D01*
X120893267Y-96402875D01*
X120893269Y-96402876D01*
X120893270Y-96402877D01*
X120999813Y-96457164D01*
X121015961Y-96459721D01*
X121117922Y-96475870D01*
X121236030Y-96457164D01*
X121342577Y-96402875D01*
X121427133Y-96318319D01*
X121481422Y-96211772D01*
X121500128Y-96093664D01*
X121481422Y-95975556D01*
X121481422Y-95975555D01*
X121428486Y-95871664D01*
X123493124Y-95871664D01*
X123511829Y-95989771D01*
X123511829Y-95989772D01*
X123566116Y-96096315D01*
X123566117Y-96096316D01*
X123566119Y-96096319D01*
X123650675Y-96180875D01*
X123650677Y-96180876D01*
X123650678Y-96180877D01*
X123757221Y-96235164D01*
X123773369Y-96237721D01*
X123875330Y-96253870D01*
X123993438Y-96235164D01*
X124099985Y-96180875D01*
X124184541Y-96096319D01*
X124238830Y-95989772D01*
X124257536Y-95871664D01*
X124238830Y-95753556D01*
X124238830Y-95753555D01*
X124184543Y-95647012D01*
X124184542Y-95647011D01*
X124184541Y-95647009D01*
X124099985Y-95562453D01*
X124099982Y-95562451D01*
X124099981Y-95562450D01*
X123993438Y-95508163D01*
X123875330Y-95489458D01*
X123757222Y-95508163D01*
X123757221Y-95508163D01*
X123650678Y-95562450D01*
X123566116Y-95647012D01*
X123511829Y-95753555D01*
X123511829Y-95753556D01*
X123493124Y-95871664D01*
X121428486Y-95871664D01*
X121427135Y-95869012D01*
X121427134Y-95869011D01*
X121427133Y-95869009D01*
X121342577Y-95784453D01*
X121342574Y-95784451D01*
X121342573Y-95784450D01*
X121236030Y-95730163D01*
X121142069Y-95715282D01*
X121089480Y-95686132D01*
X121067932Y-95629998D01*
X121069001Y-95614714D01*
X121085028Y-95513523D01*
X121066322Y-95395415D01*
X121066322Y-95395414D01*
X121012035Y-95288871D01*
X121012034Y-95288870D01*
X121012033Y-95288868D01*
X120927477Y-95204312D01*
X120927474Y-95204310D01*
X120927473Y-95204309D01*
X120820930Y-95150022D01*
X120702822Y-95131317D01*
X120584714Y-95150022D01*
X120584713Y-95150022D01*
X120478170Y-95204309D01*
X120393608Y-95288871D01*
X120339321Y-95395414D01*
X120339321Y-95395415D01*
X120322652Y-95500667D01*
X120293502Y-95553256D01*
X120237368Y-95574804D01*
X120222092Y-95573736D01*
X120220336Y-95573458D01*
X120220330Y-95573458D01*
X120102222Y-95592163D01*
X120102221Y-95592163D01*
X119995678Y-95646450D01*
X119911116Y-95731012D01*
X119856829Y-95837555D01*
X119856829Y-95837556D01*
X119838124Y-95955664D01*
X116024879Y-95955664D01*
X115990678Y-95888542D01*
X115990677Y-95888541D01*
X115990676Y-95888539D01*
X115906120Y-95803983D01*
X115906117Y-95803981D01*
X115906116Y-95803980D01*
X115799573Y-95749693D01*
X115681465Y-95730988D01*
X115563357Y-95749693D01*
X115563356Y-95749693D01*
X115456813Y-95803980D01*
X115372251Y-95888542D01*
X115317964Y-95995085D01*
X115317964Y-95995086D01*
X115299259Y-96113194D01*
X108508191Y-96113194D01*
X109735721Y-94885664D01*
X113223202Y-94885664D01*
X113241907Y-95003771D01*
X113241907Y-95003772D01*
X113296194Y-95110315D01*
X113296195Y-95110316D01*
X113296197Y-95110319D01*
X113380753Y-95194875D01*
X113380755Y-95194876D01*
X113380756Y-95194877D01*
X113487299Y-95249164D01*
X113503447Y-95251721D01*
X113605408Y-95267870D01*
X113723516Y-95249164D01*
X113830063Y-95194875D01*
X113914619Y-95110319D01*
X113968908Y-95003772D01*
X113973945Y-94971968D01*
X116137932Y-94971968D01*
X116156637Y-95090075D01*
X116156637Y-95090076D01*
X116210924Y-95196619D01*
X116210925Y-95196620D01*
X116210927Y-95196623D01*
X116295483Y-95281179D01*
X116295485Y-95281180D01*
X116295486Y-95281181D01*
X116402029Y-95335468D01*
X116418177Y-95338025D01*
X116520138Y-95354174D01*
X116638246Y-95335468D01*
X116744793Y-95281179D01*
X116829349Y-95196623D01*
X116883638Y-95090076D01*
X116902344Y-94971968D01*
X118590258Y-94971968D01*
X118608963Y-95090075D01*
X118608963Y-95090076D01*
X118663250Y-95196619D01*
X118663251Y-95196620D01*
X118663253Y-95196623D01*
X118747809Y-95281179D01*
X118747811Y-95281180D01*
X118747812Y-95281181D01*
X118854355Y-95335468D01*
X118870503Y-95338025D01*
X118972464Y-95354174D01*
X119090572Y-95335468D01*
X119197119Y-95281179D01*
X119281675Y-95196623D01*
X119335964Y-95090076D01*
X119354670Y-94971968D01*
X119335964Y-94853860D01*
X119335964Y-94853859D01*
X119281677Y-94747316D01*
X119281676Y-94747315D01*
X119281675Y-94747313D01*
X119197119Y-94662757D01*
X119197116Y-94662755D01*
X119197115Y-94662754D01*
X119090572Y-94608467D01*
X118972464Y-94589762D01*
X118854356Y-94608467D01*
X118854355Y-94608467D01*
X118747812Y-94662754D01*
X118663250Y-94747316D01*
X118608963Y-94853859D01*
X118608963Y-94853860D01*
X118590258Y-94971968D01*
X116902344Y-94971968D01*
X116883638Y-94853860D01*
X116883638Y-94853859D01*
X116829351Y-94747316D01*
X116829350Y-94747315D01*
X116829349Y-94747313D01*
X116744793Y-94662757D01*
X116744790Y-94662755D01*
X116744789Y-94662754D01*
X116638246Y-94608467D01*
X116520138Y-94589762D01*
X116402030Y-94608467D01*
X116402029Y-94608467D01*
X116295486Y-94662754D01*
X116210924Y-94747316D01*
X116156637Y-94853859D01*
X116156637Y-94853860D01*
X116137932Y-94971968D01*
X113973945Y-94971968D01*
X113987614Y-94885664D01*
X113968908Y-94767556D01*
X113968908Y-94767555D01*
X113914621Y-94661012D01*
X113914620Y-94661011D01*
X113914619Y-94661009D01*
X113830063Y-94576453D01*
X113830060Y-94576451D01*
X113830059Y-94576450D01*
X113723516Y-94522163D01*
X113605408Y-94503458D01*
X113487300Y-94522163D01*
X113487299Y-94522163D01*
X113380756Y-94576450D01*
X113296194Y-94661012D01*
X113241907Y-94767555D01*
X113241907Y-94767556D01*
X113223202Y-94885664D01*
X109735721Y-94885664D01*
X110906058Y-93715327D01*
X117476182Y-93715327D01*
X117494887Y-93833434D01*
X117494887Y-93833435D01*
X117549174Y-93939978D01*
X117549175Y-93939979D01*
X117549177Y-93939982D01*
X117633733Y-94024538D01*
X117633735Y-94024539D01*
X117633736Y-94024540D01*
X117740279Y-94078827D01*
X117858388Y-94097533D01*
X117865306Y-94097533D01*
X117865306Y-94100347D01*
X117913233Y-94109649D01*
X117951086Y-94156365D01*
X117953834Y-94187688D01*
X117955460Y-94187688D01*
X117955460Y-94194604D01*
X117974165Y-94312712D01*
X117974165Y-94312713D01*
X118028452Y-94419256D01*
X118028453Y-94419257D01*
X118028455Y-94419260D01*
X118113011Y-94503816D01*
X118113013Y-94503817D01*
X118113014Y-94503818D01*
X118219557Y-94558105D01*
X118235705Y-94560662D01*
X118337666Y-94576811D01*
X118455774Y-94558105D01*
X118562321Y-94503816D01*
X118646877Y-94419260D01*
X118701166Y-94312713D01*
X118719872Y-94194605D01*
X118701166Y-94076497D01*
X118701166Y-94076496D01*
X118646879Y-93969953D01*
X118646878Y-93969952D01*
X118646877Y-93969950D01*
X118562321Y-93885394D01*
X118562318Y-93885392D01*
X118562317Y-93885391D01*
X118455774Y-93831104D01*
X118337666Y-93812399D01*
X118330749Y-93812399D01*
X118330749Y-93809591D01*
X118282784Y-93800260D01*
X118244953Y-93753526D01*
X118242223Y-93722245D01*
X118240594Y-93722245D01*
X118240594Y-93715327D01*
X118221888Y-93597219D01*
X118221888Y-93597218D01*
X118167601Y-93490675D01*
X118167600Y-93490674D01*
X118167599Y-93490672D01*
X118083043Y-93406116D01*
X118083040Y-93406114D01*
X118083039Y-93406113D01*
X117976496Y-93351826D01*
X117858388Y-93333121D01*
X117740280Y-93351826D01*
X117740279Y-93351826D01*
X117633736Y-93406113D01*
X117549174Y-93490675D01*
X117494887Y-93597218D01*
X117494887Y-93597219D01*
X117476182Y-93715327D01*
X110906058Y-93715327D01*
X111808452Y-92812933D01*
X113956854Y-92812933D01*
X113975559Y-92931040D01*
X113975559Y-92931041D01*
X114029846Y-93037584D01*
X114029847Y-93037585D01*
X114029849Y-93037588D01*
X114114405Y-93122144D01*
X114114407Y-93122145D01*
X114114408Y-93122146D01*
X114220951Y-93176433D01*
X114237099Y-93178990D01*
X114339060Y-93195139D01*
X114457168Y-93176433D01*
X114563715Y-93122144D01*
X114648271Y-93037588D01*
X114702560Y-92931041D01*
X114721266Y-92812933D01*
X114715680Y-92777664D01*
X116336624Y-92777664D01*
X116355329Y-92895771D01*
X116355329Y-92895772D01*
X116409616Y-93002315D01*
X116409617Y-93002316D01*
X116409619Y-93002319D01*
X116494175Y-93086875D01*
X116494177Y-93086876D01*
X116494178Y-93086877D01*
X116600721Y-93141164D01*
X116616869Y-93143721D01*
X116718830Y-93159870D01*
X116836938Y-93141164D01*
X116943485Y-93086875D01*
X117028041Y-93002319D01*
X117082330Y-92895772D01*
X117101036Y-92777664D01*
X117082330Y-92659556D01*
X117082330Y-92659555D01*
X117028043Y-92553012D01*
X117028042Y-92553011D01*
X117028041Y-92553009D01*
X116943485Y-92468453D01*
X116943482Y-92468451D01*
X116943481Y-92468450D01*
X116836938Y-92414163D01*
X116718830Y-92395458D01*
X116600722Y-92414163D01*
X116600721Y-92414163D01*
X116494178Y-92468450D01*
X116409616Y-92553012D01*
X116355329Y-92659555D01*
X116355329Y-92659556D01*
X116336624Y-92777664D01*
X114715680Y-92777664D01*
X114702560Y-92694825D01*
X114702560Y-92694824D01*
X114648273Y-92588281D01*
X114648272Y-92588280D01*
X114648271Y-92588278D01*
X114563715Y-92503722D01*
X114563712Y-92503720D01*
X114563711Y-92503719D01*
X114457168Y-92449432D01*
X114339060Y-92430727D01*
X114220952Y-92449432D01*
X114220951Y-92449432D01*
X114114408Y-92503719D01*
X114029846Y-92588281D01*
X113975559Y-92694824D01*
X113975559Y-92694825D01*
X113956854Y-92812933D01*
X111808452Y-92812933D01*
X113323939Y-91297446D01*
X113378432Y-91272036D01*
X113436510Y-91287599D01*
X113448241Y-91297441D01*
X113501998Y-91351198D01*
X113502000Y-91351199D01*
X113502001Y-91351200D01*
X113608544Y-91405487D01*
X113624692Y-91408044D01*
X113726653Y-91424193D01*
X113844761Y-91405487D01*
X113883665Y-91385664D01*
X117354124Y-91385664D01*
X117372829Y-91503771D01*
X117372829Y-91503772D01*
X117427116Y-91610315D01*
X117427117Y-91610316D01*
X117427119Y-91610319D01*
X117511675Y-91694875D01*
X117511677Y-91694876D01*
X117511678Y-91694877D01*
X117618221Y-91749164D01*
X117634369Y-91751721D01*
X117736330Y-91767870D01*
X117854438Y-91749164D01*
X117960985Y-91694875D01*
X118045541Y-91610319D01*
X118099830Y-91503772D01*
X118118536Y-91385664D01*
X118099830Y-91267556D01*
X118099830Y-91267555D01*
X118045543Y-91161012D01*
X118045542Y-91161011D01*
X118045541Y-91161009D01*
X117960985Y-91076453D01*
X117960982Y-91076451D01*
X117960981Y-91076450D01*
X117854438Y-91022163D01*
X117736330Y-91003458D01*
X117618222Y-91022163D01*
X117618221Y-91022163D01*
X117511678Y-91076450D01*
X117427116Y-91161012D01*
X117372829Y-91267555D01*
X117372829Y-91267556D01*
X117354124Y-91385664D01*
X113883665Y-91385664D01*
X113951308Y-91351198D01*
X114035864Y-91266642D01*
X114090153Y-91160095D01*
X114108859Y-91041987D01*
X114090153Y-90923879D01*
X114090153Y-90923878D01*
X114035866Y-90817335D01*
X114035865Y-90817334D01*
X114035864Y-90817332D01*
X113952196Y-90733664D01*
X122697230Y-90733664D01*
X122706829Y-90794271D01*
G37*
%TD.AperFunction*%
%TD*%
%TA.AperFunction,Conductor*%
%TO.N,GND*%
G36*
X82066330Y-77057664D02*
G01*
X82066330Y-77905665D01*
X82066330Y-95344254D01*
X82045765Y-95400755D01*
X82040585Y-95406409D01*
X81637075Y-95809919D01*
X81582581Y-95835330D01*
X81574920Y-95835664D01*
X72695328Y-95835664D01*
X72638827Y-95815099D01*
X72608763Y-95763028D01*
X72607428Y-95747764D01*
X72607428Y-93925464D01*
X78329124Y-93925464D01*
X78347829Y-94043571D01*
X78347829Y-94043572D01*
X78402116Y-94150115D01*
X78402117Y-94150116D01*
X78402119Y-94150119D01*
X78486675Y-94234675D01*
X78486677Y-94234676D01*
X78486678Y-94234677D01*
X78593221Y-94288964D01*
X78609369Y-94291521D01*
X78711330Y-94307670D01*
X78829438Y-94288964D01*
X78935985Y-94234675D01*
X79020541Y-94150119D01*
X79074830Y-94043572D01*
X79093536Y-93925464D01*
X79579124Y-93925464D01*
X79597829Y-94043571D01*
X79597829Y-94043572D01*
X79652116Y-94150115D01*
X79652117Y-94150116D01*
X79652119Y-94150119D01*
X79736675Y-94234675D01*
X79736677Y-94234676D01*
X79736678Y-94234677D01*
X79843221Y-94288964D01*
X79859369Y-94291521D01*
X79961330Y-94307670D01*
X80079438Y-94288964D01*
X80185985Y-94234675D01*
X80270541Y-94150119D01*
X80324830Y-94043572D01*
X80343536Y-93925464D01*
X80324830Y-93807356D01*
X80324830Y-93807355D01*
X80270543Y-93700812D01*
X80270542Y-93700811D01*
X80270541Y-93700809D01*
X80185985Y-93616253D01*
X80185982Y-93616251D01*
X80185981Y-93616250D01*
X80079438Y-93561963D01*
X79961330Y-93543258D01*
X79843222Y-93561963D01*
X79843221Y-93561963D01*
X79736678Y-93616250D01*
X79652116Y-93700812D01*
X79597829Y-93807355D01*
X79597829Y-93807356D01*
X79579124Y-93925464D01*
X79093536Y-93925464D01*
X79074830Y-93807356D01*
X79074830Y-93807355D01*
X79020543Y-93700812D01*
X79020542Y-93700811D01*
X79020541Y-93700809D01*
X78935985Y-93616253D01*
X78935982Y-93616251D01*
X78935981Y-93616250D01*
X78829438Y-93561963D01*
X78711330Y-93543258D01*
X78593222Y-93561963D01*
X78593221Y-93561963D01*
X78486678Y-93616250D01*
X78402116Y-93700812D01*
X78347829Y-93807355D01*
X78347829Y-93807356D01*
X78329124Y-93925464D01*
X72607428Y-93925464D01*
X72607428Y-91655664D01*
X73163124Y-91655664D01*
X73181829Y-91773771D01*
X73181829Y-91773772D01*
X73236116Y-91880315D01*
X73236117Y-91880316D01*
X73236119Y-91880319D01*
X73320675Y-91964875D01*
X73320677Y-91964876D01*
X73320678Y-91964877D01*
X73427221Y-92019164D01*
X73443369Y-92021721D01*
X73545330Y-92037870D01*
X73663438Y-92019164D01*
X73769985Y-91964875D01*
X73854541Y-91880319D01*
X73902771Y-91785664D01*
X75438124Y-91785664D01*
X75456829Y-91903771D01*
X75456829Y-91903772D01*
X75511116Y-92010315D01*
X75511117Y-92010316D01*
X75511119Y-92010319D01*
X75595675Y-92094875D01*
X75595677Y-92094876D01*
X75595678Y-92094877D01*
X75702221Y-92149164D01*
X75718369Y-92151721D01*
X75820330Y-92167870D01*
X75938438Y-92149164D01*
X76044985Y-92094875D01*
X76129541Y-92010319D01*
X76183830Y-91903772D01*
X76202536Y-91785664D01*
X76183830Y-91667556D01*
X76183830Y-91667555D01*
X76129543Y-91561012D01*
X76129542Y-91561011D01*
X76129541Y-91561009D01*
X76044985Y-91476453D01*
X76044982Y-91476451D01*
X76044981Y-91476450D01*
X75938438Y-91422163D01*
X75820330Y-91403458D01*
X75702222Y-91422163D01*
X75702221Y-91422163D01*
X75595678Y-91476450D01*
X75511116Y-91561012D01*
X75456829Y-91667555D01*
X75456829Y-91667556D01*
X75438124Y-91785664D01*
X73902771Y-91785664D01*
X73908830Y-91773772D01*
X73927536Y-91655664D01*
X73908830Y-91537556D01*
X73908830Y-91537555D01*
X73854543Y-91431012D01*
X73854542Y-91431011D01*
X73854541Y-91431009D01*
X73769985Y-91346453D01*
X73769982Y-91346451D01*
X73769981Y-91346450D01*
X73663438Y-91292163D01*
X73545330Y-91273458D01*
X73427222Y-91292163D01*
X73427221Y-91292163D01*
X73320678Y-91346450D01*
X73236116Y-91431012D01*
X73181829Y-91537555D01*
X73181829Y-91537556D01*
X73163124Y-91655664D01*
X72607428Y-91655664D01*
X72607428Y-89940564D01*
X75438124Y-89940564D01*
X75456829Y-90058671D01*
X75456829Y-90058672D01*
X75511116Y-90165215D01*
X75511117Y-90165216D01*
X75511119Y-90165219D01*
X75595675Y-90249775D01*
X75595677Y-90249776D01*
X75595678Y-90249777D01*
X75702221Y-90304064D01*
X75718369Y-90306621D01*
X75820330Y-90322770D01*
X75938438Y-90304064D01*
X76044985Y-90249775D01*
X76129541Y-90165219D01*
X76183830Y-90058672D01*
X76202536Y-89940564D01*
X76183830Y-89822456D01*
X76183830Y-89822455D01*
X76129543Y-89715912D01*
X76129542Y-89715911D01*
X76129541Y-89715909D01*
X76044985Y-89631353D01*
X76044982Y-89631351D01*
X76044981Y-89631350D01*
X75938438Y-89577063D01*
X75820330Y-89558358D01*
X75702222Y-89577063D01*
X75702221Y-89577063D01*
X75595678Y-89631350D01*
X75511116Y-89715912D01*
X75456829Y-89822455D01*
X75456829Y-89822456D01*
X75438124Y-89940564D01*
X72607428Y-89940564D01*
X72607428Y-88406661D01*
X77348894Y-88406661D01*
X77348894Y-88406666D01*
X77369140Y-88586362D01*
X77369142Y-88586371D01*
X77428866Y-88757052D01*
X77428868Y-88757057D01*
X77428869Y-88757059D01*
X77525082Y-88910181D01*
X77652955Y-89038054D01*
X77806077Y-89134267D01*
X77806083Y-89134269D01*
X77976764Y-89193993D01*
X77976773Y-89193995D01*
X78156470Y-89214242D01*
X78156472Y-89214242D01*
X78156474Y-89214242D01*
X78336170Y-89193995D01*
X78336173Y-89193994D01*
X78336175Y-89193994D01*
X78336175Y-89193993D01*
X78336179Y-89193993D01*
X78416520Y-89165880D01*
X78506867Y-89134267D01*
X78659989Y-89038054D01*
X78787862Y-88910181D01*
X78884075Y-88757059D01*
X78943802Y-88586367D01*
X78964050Y-88406664D01*
X78964050Y-88406661D01*
X78943803Y-88226965D01*
X78943801Y-88226956D01*
X78884077Y-88056275D01*
X78884075Y-88056270D01*
X78884075Y-88056269D01*
X78787862Y-87903147D01*
X78659989Y-87775274D01*
X78570598Y-87719106D01*
X79353972Y-87719106D01*
X79353972Y-89094222D01*
X79357129Y-89110097D01*
X79361369Y-89131411D01*
X79363279Y-89134269D01*
X79389550Y-89173586D01*
X79431724Y-89201766D01*
X79468914Y-89209164D01*
X79468916Y-89209164D01*
X80844028Y-89209164D01*
X80844030Y-89209164D01*
X80881220Y-89201766D01*
X80923394Y-89173586D01*
X80951574Y-89131412D01*
X80958972Y-89094222D01*
X80958972Y-87719106D01*
X80951574Y-87681916D01*
X80923394Y-87639742D01*
X80881220Y-87611562D01*
X80881219Y-87611561D01*
X80856369Y-87606618D01*
X80844030Y-87604164D01*
X79468914Y-87604164D01*
X79458330Y-87606269D01*
X79431724Y-87611561D01*
X79389550Y-87639742D01*
X79361369Y-87681916D01*
X79356077Y-87708522D01*
X79353972Y-87719106D01*
X78570598Y-87719106D01*
X78506867Y-87679061D01*
X78506866Y-87679060D01*
X78506865Y-87679060D01*
X78506860Y-87679058D01*
X78336179Y-87619334D01*
X78336170Y-87619332D01*
X78156474Y-87599086D01*
X78156470Y-87599086D01*
X77976773Y-87619332D01*
X77976764Y-87619334D01*
X77806083Y-87679058D01*
X77806078Y-87679060D01*
X77652957Y-87775272D01*
X77525080Y-87903149D01*
X77428868Y-88056270D01*
X77428866Y-88056275D01*
X77369142Y-88226956D01*
X77369140Y-88226965D01*
X77348894Y-88406661D01*
X72607428Y-88406661D01*
X72607428Y-87153664D01*
X73746266Y-87153664D01*
X73764971Y-87271771D01*
X73764971Y-87271772D01*
X73819258Y-87378315D01*
X73819259Y-87378316D01*
X73819261Y-87378319D01*
X73903817Y-87462875D01*
X73903819Y-87462876D01*
X73903820Y-87462877D01*
X74010363Y-87517164D01*
X74026511Y-87519721D01*
X74128472Y-87535870D01*
X74246580Y-87517164D01*
X74353127Y-87462875D01*
X74437683Y-87378319D01*
X74491972Y-87271772D01*
X74510678Y-87153664D01*
X74746266Y-87153664D01*
X74764971Y-87271771D01*
X74764971Y-87271772D01*
X74819258Y-87378315D01*
X74819259Y-87378316D01*
X74819261Y-87378319D01*
X74903817Y-87462875D01*
X74903819Y-87462876D01*
X74903820Y-87462877D01*
X75010363Y-87517164D01*
X75026511Y-87519721D01*
X75128472Y-87535870D01*
X75246580Y-87517164D01*
X75353127Y-87462875D01*
X75437683Y-87378319D01*
X75491972Y-87271772D01*
X75510678Y-87153664D01*
X75491972Y-87035556D01*
X75491972Y-87035555D01*
X75437685Y-86929012D01*
X75437684Y-86929011D01*
X75437683Y-86929009D01*
X75353127Y-86844453D01*
X75353124Y-86844451D01*
X75353123Y-86844450D01*
X75246580Y-86790163D01*
X75128472Y-86771458D01*
X75010364Y-86790163D01*
X75010363Y-86790163D01*
X74903820Y-86844450D01*
X74819258Y-86929012D01*
X74764971Y-87035555D01*
X74764971Y-87035556D01*
X74746266Y-87153664D01*
X74510678Y-87153664D01*
X74491972Y-87035556D01*
X74491972Y-87035555D01*
X74437685Y-86929012D01*
X74437684Y-86929011D01*
X74437683Y-86929009D01*
X74353127Y-86844453D01*
X74353124Y-86844451D01*
X74353123Y-86844450D01*
X74246580Y-86790163D01*
X74128472Y-86771458D01*
X74010364Y-86790163D01*
X74010363Y-86790163D01*
X73903820Y-86844450D01*
X73819258Y-86929012D01*
X73764971Y-87035555D01*
X73764971Y-87035556D01*
X73746266Y-87153664D01*
X72607428Y-87153664D01*
X72607428Y-86406661D01*
X77348894Y-86406661D01*
X77348894Y-86406666D01*
X77369140Y-86586362D01*
X77369142Y-86586371D01*
X77428866Y-86757052D01*
X77428868Y-86757057D01*
X77428869Y-86757059D01*
X77525082Y-86910181D01*
X77652955Y-87038054D01*
X77806077Y-87134267D01*
X77806083Y-87134269D01*
X77976764Y-87193993D01*
X77976773Y-87193995D01*
X78156470Y-87214242D01*
X78156472Y-87214242D01*
X78156474Y-87214242D01*
X78336170Y-87193995D01*
X78336173Y-87193994D01*
X78336175Y-87193994D01*
X78336175Y-87193993D01*
X78336179Y-87193993D01*
X78416520Y-87165880D01*
X78506867Y-87134267D01*
X78659989Y-87038054D01*
X78787862Y-86910181D01*
X78884075Y-86757059D01*
X78943802Y-86586367D01*
X78964050Y-86406664D01*
X78964050Y-86406661D01*
X79348894Y-86406661D01*
X79348894Y-86406666D01*
X79369140Y-86586362D01*
X79369142Y-86586371D01*
X79428866Y-86757052D01*
X79428868Y-86757057D01*
X79428869Y-86757059D01*
X79525082Y-86910181D01*
X79652955Y-87038054D01*
X79806077Y-87134267D01*
X79806083Y-87134269D01*
X79976764Y-87193993D01*
X79976773Y-87193995D01*
X80156470Y-87214242D01*
X80156472Y-87214242D01*
X80156474Y-87214242D01*
X80336170Y-87193995D01*
X80336173Y-87193994D01*
X80336175Y-87193994D01*
X80336175Y-87193993D01*
X80336179Y-87193993D01*
X80416520Y-87165880D01*
X80506867Y-87134267D01*
X80659989Y-87038054D01*
X80787862Y-86910181D01*
X80884075Y-86757059D01*
X80943802Y-86586367D01*
X80964050Y-86406664D01*
X80964050Y-86406661D01*
X80943803Y-86226965D01*
X80943801Y-86226956D01*
X80884077Y-86056275D01*
X80884075Y-86056270D01*
X80884075Y-86056269D01*
X80787862Y-85903147D01*
X80659989Y-85775274D01*
X80506867Y-85679061D01*
X80506866Y-85679060D01*
X80506865Y-85679060D01*
X80506860Y-85679058D01*
X80336179Y-85619334D01*
X80336170Y-85619332D01*
X80156474Y-85599086D01*
X80156470Y-85599086D01*
X79976773Y-85619332D01*
X79976764Y-85619334D01*
X79806083Y-85679058D01*
X79806078Y-85679060D01*
X79652957Y-85775272D01*
X79525080Y-85903149D01*
X79428868Y-86056270D01*
X79428866Y-86056275D01*
X79369142Y-86226956D01*
X79369140Y-86226965D01*
X79348894Y-86406661D01*
X78964050Y-86406661D01*
X78943803Y-86226965D01*
X78943801Y-86226956D01*
X78884077Y-86056275D01*
X78884075Y-86056270D01*
X78884075Y-86056269D01*
X78787862Y-85903147D01*
X78659989Y-85775274D01*
X78506867Y-85679061D01*
X78506866Y-85679060D01*
X78506865Y-85679060D01*
X78506860Y-85679058D01*
X78336179Y-85619334D01*
X78336170Y-85619332D01*
X78156474Y-85599086D01*
X78156470Y-85599086D01*
X77976773Y-85619332D01*
X77976764Y-85619334D01*
X77806083Y-85679058D01*
X77806078Y-85679060D01*
X77652957Y-85775272D01*
X77525080Y-85903149D01*
X77428868Y-86056270D01*
X77428866Y-86056275D01*
X77369142Y-86226956D01*
X77369140Y-86226965D01*
X77348894Y-86406661D01*
X72607428Y-86406661D01*
X72607428Y-84406661D01*
X77348894Y-84406661D01*
X77348894Y-84406666D01*
X77369140Y-84586362D01*
X77369142Y-84586371D01*
X77428866Y-84757052D01*
X77428868Y-84757057D01*
X77428869Y-84757059D01*
X77525082Y-84910181D01*
X77652955Y-85038054D01*
X77806077Y-85134267D01*
X77806083Y-85134269D01*
X77976764Y-85193993D01*
X77976773Y-85193995D01*
X78156470Y-85214242D01*
X78156472Y-85214242D01*
X78156474Y-85214242D01*
X78336170Y-85193995D01*
X78336173Y-85193994D01*
X78336175Y-85193994D01*
X78336175Y-85193993D01*
X78336179Y-85193993D01*
X78416520Y-85165880D01*
X78506867Y-85134267D01*
X78659989Y-85038054D01*
X78787862Y-84910181D01*
X78884075Y-84757059D01*
X78943802Y-84586367D01*
X78964050Y-84406664D01*
X78964050Y-84406661D01*
X79348894Y-84406661D01*
X79348894Y-84406666D01*
X79369140Y-84586362D01*
X79369142Y-84586371D01*
X79428866Y-84757052D01*
X79428868Y-84757057D01*
X79428869Y-84757059D01*
X79525082Y-84910181D01*
X79652955Y-85038054D01*
X79806077Y-85134267D01*
X79806083Y-85134269D01*
X79976764Y-85193993D01*
X79976773Y-85193995D01*
X80156470Y-85214242D01*
X80156472Y-85214242D01*
X80156474Y-85214242D01*
X80336170Y-85193995D01*
X80336173Y-85193994D01*
X80336175Y-85193994D01*
X80336175Y-85193993D01*
X80336179Y-85193993D01*
X80416520Y-85165880D01*
X80506867Y-85134267D01*
X80659989Y-85038054D01*
X80787862Y-84910181D01*
X80884075Y-84757059D01*
X80943802Y-84586367D01*
X80964050Y-84406664D01*
X80964050Y-84406661D01*
X80943803Y-84226965D01*
X80943801Y-84226956D01*
X80884077Y-84056275D01*
X80884075Y-84056270D01*
X80884075Y-84056269D01*
X80787862Y-83903147D01*
X80659989Y-83775274D01*
X80651856Y-83770164D01*
X80506865Y-83679060D01*
X80506860Y-83679058D01*
X80336179Y-83619334D01*
X80336170Y-83619332D01*
X80156474Y-83599086D01*
X80156470Y-83599086D01*
X79976773Y-83619332D01*
X79976764Y-83619334D01*
X79806083Y-83679058D01*
X79806078Y-83679060D01*
X79652957Y-83775272D01*
X79525080Y-83903149D01*
X79428868Y-84056270D01*
X79428866Y-84056275D01*
X79369142Y-84226956D01*
X79369140Y-84226965D01*
X79348894Y-84406661D01*
X78964050Y-84406661D01*
X78943803Y-84226965D01*
X78943801Y-84226956D01*
X78884077Y-84056275D01*
X78884075Y-84056270D01*
X78884075Y-84056269D01*
X78787862Y-83903147D01*
X78659989Y-83775274D01*
X78651856Y-83770164D01*
X78506865Y-83679060D01*
X78506860Y-83679058D01*
X78336179Y-83619334D01*
X78336170Y-83619332D01*
X78156474Y-83599086D01*
X78156470Y-83599086D01*
X77976773Y-83619332D01*
X77976764Y-83619334D01*
X77806083Y-83679058D01*
X77806078Y-83679060D01*
X77652957Y-83775272D01*
X77525080Y-83903149D01*
X77467759Y-83994375D01*
X77429706Y-84023951D01*
X77428453Y-84057455D01*
X77369142Y-84226955D01*
X77369140Y-84226965D01*
X77348894Y-84406661D01*
X72607428Y-84406661D01*
X72607428Y-83406664D01*
X74746266Y-83406664D01*
X74764971Y-83524771D01*
X74764971Y-83524772D01*
X74819258Y-83631315D01*
X74819259Y-83631316D01*
X74819261Y-83631319D01*
X74903817Y-83715875D01*
X74903819Y-83715876D01*
X74903820Y-83715877D01*
X75010363Y-83770164D01*
X75026511Y-83772721D01*
X75128472Y-83788870D01*
X75246580Y-83770164D01*
X75309972Y-83737864D01*
X76595666Y-83737864D01*
X76614371Y-83855971D01*
X76614371Y-83855972D01*
X76668658Y-83962515D01*
X76668659Y-83962516D01*
X76668661Y-83962519D01*
X76753217Y-84047075D01*
X76753219Y-84047076D01*
X76753220Y-84047077D01*
X76859763Y-84101364D01*
X76875911Y-84103921D01*
X76977872Y-84120070D01*
X77095980Y-84101364D01*
X77202527Y-84047075D01*
X77283332Y-83966269D01*
X77310760Y-83953479D01*
X77307399Y-83929119D01*
X77315010Y-83907708D01*
X77341372Y-83855972D01*
X77360078Y-83737864D01*
X77341372Y-83619756D01*
X77341372Y-83619755D01*
X77287085Y-83513212D01*
X77287084Y-83513211D01*
X77287083Y-83513209D01*
X77202527Y-83428653D01*
X77202524Y-83428651D01*
X77202522Y-83428649D01*
X77201425Y-83427852D01*
X77200803Y-83426930D01*
X77197635Y-83423762D01*
X77198251Y-83423145D01*
X77167807Y-83378001D01*
X77174098Y-83318204D01*
X77213191Y-83278425D01*
X77253327Y-83257975D01*
X77337883Y-83173419D01*
X77392172Y-83066872D01*
X77404781Y-82987255D01*
X77433931Y-82934669D01*
X77490064Y-82913120D01*
X77546915Y-82932695D01*
X77553743Y-82938842D01*
X77652955Y-83038054D01*
X77806077Y-83134267D01*
X77806083Y-83134269D01*
X77976764Y-83193993D01*
X77976773Y-83193995D01*
X78156470Y-83214242D01*
X78156472Y-83214242D01*
X78156474Y-83214242D01*
X78336170Y-83193995D01*
X78336173Y-83193994D01*
X78336175Y-83193994D01*
X78336175Y-83193993D01*
X78336179Y-83193993D01*
X78416520Y-83165880D01*
X78506867Y-83134267D01*
X78659989Y-83038054D01*
X78787862Y-82910181D01*
X78884075Y-82757059D01*
X78925193Y-82639550D01*
X78943801Y-82586371D01*
X78943803Y-82586362D01*
X78964050Y-82406666D01*
X78964050Y-82406661D01*
X79348894Y-82406661D01*
X79348894Y-82406666D01*
X79369140Y-82586362D01*
X79369142Y-82586371D01*
X79428866Y-82757052D01*
X79428868Y-82757057D01*
X79428869Y-82757059D01*
X79525082Y-82910181D01*
X79652955Y-83038054D01*
X79806077Y-83134267D01*
X79806083Y-83134269D01*
X79976764Y-83193993D01*
X79976773Y-83193995D01*
X80156470Y-83214242D01*
X80156472Y-83214242D01*
X80156474Y-83214242D01*
X80336170Y-83193995D01*
X80336173Y-83193994D01*
X80336175Y-83193994D01*
X80336175Y-83193993D01*
X80336179Y-83193993D01*
X80416520Y-83165880D01*
X80506867Y-83134267D01*
X80659989Y-83038054D01*
X80787862Y-82910181D01*
X80884075Y-82757059D01*
X80925193Y-82639550D01*
X80943801Y-82586371D01*
X80943803Y-82586362D01*
X80964050Y-82406666D01*
X80964050Y-82406661D01*
X80943803Y-82226965D01*
X80943801Y-82226956D01*
X80884077Y-82056275D01*
X80884075Y-82056270D01*
X80884075Y-82056269D01*
X80787862Y-81903147D01*
X80659989Y-81775274D01*
X80506867Y-81679061D01*
X80506866Y-81679060D01*
X80506865Y-81679060D01*
X80506860Y-81679058D01*
X80336179Y-81619334D01*
X80336170Y-81619332D01*
X80156474Y-81599086D01*
X80156470Y-81599086D01*
X79976773Y-81619332D01*
X79976764Y-81619334D01*
X79806083Y-81679058D01*
X79806078Y-81679060D01*
X79652957Y-81775272D01*
X79525080Y-81903149D01*
X79428868Y-82056270D01*
X79428866Y-82056275D01*
X79369142Y-82226956D01*
X79369140Y-82226965D01*
X79348894Y-82406661D01*
X78964050Y-82406661D01*
X78943803Y-82226965D01*
X78943801Y-82226956D01*
X78884077Y-82056275D01*
X78884075Y-82056270D01*
X78884075Y-82056269D01*
X78787862Y-81903147D01*
X78659989Y-81775274D01*
X78506867Y-81679061D01*
X78506866Y-81679060D01*
X78506865Y-81679060D01*
X78506860Y-81679058D01*
X78336179Y-81619334D01*
X78336170Y-81619332D01*
X78156474Y-81599086D01*
X78156470Y-81599086D01*
X77976773Y-81619332D01*
X77976764Y-81619334D01*
X77806083Y-81679058D01*
X77806078Y-81679060D01*
X77652957Y-81775272D01*
X77525080Y-81903149D01*
X77428868Y-82056270D01*
X77428866Y-82056275D01*
X77369142Y-82226956D01*
X77369140Y-82226965D01*
X77348894Y-82406661D01*
X77348894Y-82406667D01*
X77364263Y-82543078D01*
X77350154Y-82601526D01*
X77301775Y-82637230D01*
X77241765Y-82633485D01*
X77237010Y-82631239D01*
X77146780Y-82585264D01*
X77146778Y-82585263D01*
X77146777Y-82585263D01*
X77028672Y-82566558D01*
X76910564Y-82585263D01*
X76910563Y-82585263D01*
X76804020Y-82639550D01*
X76719458Y-82724112D01*
X76665171Y-82830655D01*
X76665171Y-82830656D01*
X76646466Y-82948764D01*
X76665171Y-83066871D01*
X76665171Y-83066872D01*
X76719458Y-83173415D01*
X76719459Y-83173416D01*
X76719461Y-83173419D01*
X76804017Y-83257975D01*
X76804019Y-83257976D01*
X76804022Y-83257979D01*
X76805116Y-83258774D01*
X76805735Y-83259692D01*
X76808909Y-83262866D01*
X76808291Y-83263483D01*
X76838735Y-83308624D01*
X76832446Y-83368421D01*
X76793352Y-83408202D01*
X76753219Y-83428651D01*
X76668658Y-83513212D01*
X76614371Y-83619755D01*
X76614371Y-83619756D01*
X76595666Y-83737864D01*
X75309972Y-83737864D01*
X75353127Y-83715875D01*
X75437683Y-83631319D01*
X75491972Y-83524772D01*
X75510678Y-83406664D01*
X75491972Y-83288556D01*
X75491972Y-83288555D01*
X75437685Y-83182012D01*
X75437684Y-83182011D01*
X75437683Y-83182009D01*
X75353127Y-83097453D01*
X75353124Y-83097451D01*
X75353123Y-83097450D01*
X75246580Y-83043163D01*
X75128472Y-83024458D01*
X75010364Y-83043163D01*
X75010363Y-83043163D01*
X74903820Y-83097450D01*
X74819258Y-83182012D01*
X74764971Y-83288555D01*
X74764971Y-83288556D01*
X74746266Y-83406664D01*
X72607428Y-83406664D01*
X72607428Y-82406664D01*
X72988124Y-82406664D01*
X73006829Y-82524771D01*
X73006829Y-82524772D01*
X73061116Y-82631315D01*
X73061117Y-82631316D01*
X73061119Y-82631319D01*
X73145675Y-82715875D01*
X73145677Y-82715876D01*
X73145678Y-82715877D01*
X73252221Y-82770164D01*
X73268369Y-82772721D01*
X73370330Y-82788870D01*
X73488438Y-82770164D01*
X73594985Y-82715875D01*
X73679541Y-82631319D01*
X73733830Y-82524772D01*
X73752536Y-82406664D01*
X73733830Y-82288556D01*
X73733830Y-82288555D01*
X73679543Y-82182012D01*
X73679542Y-82182011D01*
X73679541Y-82182009D01*
X73594985Y-82097453D01*
X73594982Y-82097451D01*
X73594981Y-82097450D01*
X73488438Y-82043163D01*
X73370330Y-82024458D01*
X73252222Y-82043163D01*
X73252221Y-82043163D01*
X73145678Y-82097450D01*
X73061116Y-82182012D01*
X73006829Y-82288555D01*
X73006829Y-82288556D01*
X72988124Y-82406664D01*
X72607428Y-82406664D01*
X72607428Y-80406661D01*
X77348894Y-80406661D01*
X77348894Y-80406666D01*
X77369140Y-80586362D01*
X77369142Y-80586371D01*
X77428866Y-80757052D01*
X77428868Y-80757057D01*
X77428869Y-80757059D01*
X77525082Y-80910181D01*
X77652955Y-81038054D01*
X77806077Y-81134267D01*
X77806083Y-81134269D01*
X77976764Y-81193993D01*
X77976773Y-81193995D01*
X78156470Y-81214242D01*
X78156472Y-81214242D01*
X78156474Y-81214242D01*
X78336170Y-81193995D01*
X78336173Y-81193994D01*
X78336175Y-81193994D01*
X78336175Y-81193993D01*
X78336179Y-81193993D01*
X78416520Y-81165880D01*
X78506867Y-81134267D01*
X78659989Y-81038054D01*
X78787862Y-80910181D01*
X78884075Y-80757059D01*
X78943802Y-80586367D01*
X78964050Y-80406664D01*
X78964050Y-80406661D01*
X78943803Y-80226965D01*
X78943801Y-80226956D01*
X78884077Y-80056275D01*
X78884075Y-80056270D01*
X78884075Y-80056269D01*
X78787862Y-79903147D01*
X78659989Y-79775274D01*
X78506867Y-79679061D01*
X78506866Y-79679060D01*
X78506865Y-79679060D01*
X78506860Y-79679058D01*
X78336179Y-79619334D01*
X78336170Y-79619332D01*
X78156474Y-79599086D01*
X78156470Y-79599086D01*
X77976773Y-79619332D01*
X77976764Y-79619334D01*
X77806083Y-79679058D01*
X77806078Y-79679060D01*
X77652957Y-79775272D01*
X77525080Y-79903149D01*
X77428868Y-80056270D01*
X77428866Y-80056275D01*
X77369142Y-80226956D01*
X77369140Y-80226965D01*
X77348894Y-80406661D01*
X72607428Y-80406661D01*
X72607428Y-78406661D01*
X77348894Y-78406661D01*
X77348894Y-78406666D01*
X77369140Y-78586362D01*
X77369142Y-78586371D01*
X77428866Y-78757052D01*
X77428868Y-78757057D01*
X77428869Y-78757059D01*
X77525082Y-78910181D01*
X77652955Y-79038054D01*
X77806077Y-79134267D01*
X77806083Y-79134269D01*
X77976764Y-79193993D01*
X77976773Y-79193995D01*
X78156470Y-79214242D01*
X78156472Y-79214242D01*
X78156474Y-79214242D01*
X78336170Y-79193995D01*
X78336173Y-79193994D01*
X78336175Y-79193994D01*
X78336175Y-79193993D01*
X78336179Y-79193993D01*
X78416520Y-79165880D01*
X78506867Y-79134267D01*
X78659989Y-79038054D01*
X78787862Y-78910181D01*
X78884075Y-78757059D01*
X78943802Y-78586367D01*
X78964050Y-78406664D01*
X78964050Y-78406661D01*
X79348894Y-78406661D01*
X79348894Y-78406666D01*
X79369140Y-78586362D01*
X79369142Y-78586371D01*
X79428866Y-78757052D01*
X79428868Y-78757057D01*
X79428869Y-78757059D01*
X79525082Y-78910181D01*
X79652955Y-79038054D01*
X79806077Y-79134267D01*
X79806083Y-79134269D01*
X79976764Y-79193993D01*
X79976773Y-79193995D01*
X80156470Y-79214242D01*
X80156472Y-79214242D01*
X80156474Y-79214242D01*
X80336170Y-79193995D01*
X80336173Y-79193994D01*
X80336175Y-79193994D01*
X80336175Y-79193993D01*
X80336179Y-79193993D01*
X80416520Y-79165880D01*
X80506867Y-79134267D01*
X80659989Y-79038054D01*
X80787862Y-78910181D01*
X80884075Y-78757059D01*
X80943802Y-78586367D01*
X80964050Y-78406664D01*
X80964050Y-78406661D01*
X80943803Y-78226965D01*
X80943801Y-78226956D01*
X80884077Y-78056275D01*
X80884075Y-78056270D01*
X80884075Y-78056269D01*
X80787862Y-77903147D01*
X80659989Y-77775274D01*
X80506867Y-77679061D01*
X80506866Y-77679060D01*
X80506865Y-77679060D01*
X80506860Y-77679058D01*
X80336179Y-77619334D01*
X80336170Y-77619332D01*
X80156474Y-77599086D01*
X80156470Y-77599086D01*
X79976773Y-77619332D01*
X79976764Y-77619334D01*
X79806083Y-77679058D01*
X79806078Y-77679060D01*
X79652957Y-77775272D01*
X79525080Y-77903149D01*
X79428868Y-78056270D01*
X79428866Y-78056275D01*
X79369142Y-78226956D01*
X79369140Y-78226965D01*
X79348894Y-78406661D01*
X78964050Y-78406661D01*
X78943803Y-78226965D01*
X78943801Y-78226956D01*
X78884077Y-78056275D01*
X78884075Y-78056270D01*
X78884075Y-78056269D01*
X78787862Y-77903147D01*
X78659989Y-77775274D01*
X78506867Y-77679061D01*
X78506866Y-77679060D01*
X78506865Y-77679060D01*
X78506860Y-77679058D01*
X78336179Y-77619334D01*
X78336170Y-77619332D01*
X78156474Y-77599086D01*
X78156470Y-77599086D01*
X77976773Y-77619332D01*
X77976764Y-77619334D01*
X77806083Y-77679058D01*
X77806078Y-77679060D01*
X77652957Y-77775272D01*
X77525080Y-77903149D01*
X77428868Y-78056270D01*
X77428866Y-78056275D01*
X77369142Y-78226956D01*
X77369140Y-78226965D01*
X77348894Y-78406661D01*
X72607428Y-78406661D01*
X72607428Y-75875564D01*
X72627993Y-75819063D01*
X72680064Y-75788999D01*
X72695328Y-75787664D01*
X80270329Y-75787664D01*
X80270330Y-75787664D01*
X80796330Y-75787664D01*
X82066330Y-77057664D01*
G37*
%TD.AperFunction*%
%TD*%
%TA.AperFunction,Conductor*%
%TO.N,GND*%
G36*
X96130595Y-82235666D02*
G01*
X96143463Y-82245140D01*
X96236077Y-82322853D01*
X96349098Y-82417688D01*
X96629136Y-82601873D01*
X96629141Y-82601876D01*
X96928679Y-82752309D01*
X97243655Y-82866951D01*
X97569810Y-82944251D01*
X97760052Y-82966487D01*
X97902732Y-82983164D01*
X97902735Y-82983164D01*
X98237928Y-82983164D01*
X98362771Y-82968571D01*
X98570850Y-82944251D01*
X98897005Y-82866951D01*
X99211981Y-82752309D01*
X99511519Y-82601876D01*
X99791566Y-82417685D01*
X99913434Y-82315425D01*
X99978473Y-82286962D01*
X100048578Y-82298179D01*
X100083519Y-82322853D01*
X100819425Y-83058759D01*
X100853451Y-83121071D01*
X100856330Y-83147854D01*
X100856330Y-90593474D01*
X100836328Y-90661595D01*
X100819425Y-90682569D01*
X100213235Y-91288759D01*
X100150923Y-91322785D01*
X100124140Y-91325664D01*
X90838520Y-91325664D01*
X90770399Y-91305662D01*
X90749425Y-91288759D01*
X90143235Y-90682569D01*
X90109209Y-90620257D01*
X90106330Y-90593474D01*
X90106330Y-90146810D01*
X94708410Y-90146810D01*
X94727115Y-90264916D01*
X94781404Y-90371464D01*
X94781406Y-90371467D01*
X94865958Y-90456019D01*
X94865961Y-90456021D01*
X94972508Y-90510310D01*
X95090616Y-90529016D01*
X95208724Y-90510310D01*
X95315271Y-90456021D01*
X95315273Y-90456019D01*
X95406839Y-90364454D01*
X95408927Y-90366542D01*
X95452571Y-90332876D01*
X95523306Y-90326788D01*
X95586104Y-90359909D01*
X95592606Y-90367410D01*
X95681672Y-90456476D01*
X95681675Y-90456478D01*
X95788222Y-90510767D01*
X95906330Y-90529473D01*
X96024438Y-90510767D01*
X96130985Y-90456478D01*
X96131444Y-90456019D01*
X96222553Y-90364911D01*
X96224557Y-90366915D01*
X96268534Y-90332993D01*
X96339269Y-90326905D01*
X96402066Y-90360027D01*
X96407848Y-90366698D01*
X96497339Y-90456189D01*
X96497342Y-90456191D01*
X96603889Y-90510480D01*
X96721997Y-90529186D01*
X96840105Y-90510480D01*
X96946652Y-90456191D01*
X97031208Y-90371635D01*
X97085497Y-90265088D01*
X97104203Y-90146980D01*
X97085497Y-90028872D01*
X97031208Y-89922325D01*
X97031206Y-89922322D01*
X96946654Y-89837770D01*
X96946651Y-89837768D01*
X96840103Y-89783479D01*
X96721997Y-89764774D01*
X96603890Y-89783479D01*
X96497342Y-89837768D01*
X96497339Y-89837770D01*
X96405774Y-89929336D01*
X96403773Y-89927335D01*
X96359755Y-89961268D01*
X96289018Y-89967333D01*
X96226232Y-89934192D01*
X96220458Y-89927528D01*
X96130987Y-89838057D01*
X96130984Y-89838055D01*
X96024436Y-89783766D01*
X95906330Y-89765061D01*
X95788223Y-89783766D01*
X95681675Y-89838055D01*
X95681672Y-89838057D01*
X95590107Y-89929623D01*
X95588022Y-89927538D01*
X95544333Y-89961216D01*
X95473596Y-89967279D01*
X95410810Y-89934137D01*
X95404319Y-89926646D01*
X95315273Y-89837600D01*
X95315270Y-89837598D01*
X95208722Y-89783309D01*
X95090616Y-89764604D01*
X94972509Y-89783309D01*
X94865961Y-89837598D01*
X94865958Y-89837600D01*
X94781406Y-89922152D01*
X94781404Y-89922155D01*
X94727115Y-90028703D01*
X94708410Y-90146810D01*
X90106330Y-90146810D01*
X90106330Y-89470665D01*
X93547522Y-89470665D01*
X93566227Y-89588771D01*
X93620516Y-89695319D01*
X93620518Y-89695322D01*
X93705070Y-89779874D01*
X93705073Y-89779876D01*
X93811620Y-89834165D01*
X93929728Y-89852871D01*
X94047836Y-89834165D01*
X94154383Y-89779876D01*
X94238939Y-89695320D01*
X94293228Y-89588773D01*
X94311934Y-89470665D01*
X97500726Y-89470665D01*
X97519431Y-89588771D01*
X97573720Y-89695319D01*
X97573722Y-89695322D01*
X97658274Y-89779874D01*
X97658277Y-89779876D01*
X97764824Y-89834165D01*
X97882932Y-89852871D01*
X98001040Y-89834165D01*
X98107587Y-89779876D01*
X98192143Y-89695320D01*
X98246432Y-89588773D01*
X98265138Y-89470665D01*
X98246432Y-89352557D01*
X98192143Y-89246010D01*
X98192141Y-89246007D01*
X98107589Y-89161455D01*
X98107586Y-89161453D01*
X98001038Y-89107164D01*
X97882932Y-89088459D01*
X97764825Y-89107164D01*
X97658277Y-89161453D01*
X97658274Y-89161455D01*
X97573722Y-89246007D01*
X97573720Y-89246010D01*
X97519431Y-89352558D01*
X97500726Y-89470665D01*
X94311934Y-89470665D01*
X94293228Y-89352557D01*
X94238939Y-89246010D01*
X94238937Y-89246007D01*
X94154385Y-89161455D01*
X94154382Y-89161453D01*
X94047834Y-89107164D01*
X93929728Y-89088459D01*
X93811621Y-89107164D01*
X93705073Y-89161453D01*
X93705070Y-89161455D01*
X93620518Y-89246007D01*
X93620516Y-89246010D01*
X93566227Y-89352558D01*
X93547522Y-89470665D01*
X90106330Y-89470665D01*
X90106330Y-88426763D01*
X90126332Y-88358642D01*
X90179988Y-88312149D01*
X90250262Y-88302045D01*
X90308390Y-88328592D01*
X90309134Y-88327569D01*
X90314184Y-88331238D01*
X90314842Y-88331539D01*
X90315709Y-88332346D01*
X90317154Y-88333396D01*
X90423701Y-88387685D01*
X90541809Y-88406391D01*
X90659917Y-88387685D01*
X90766464Y-88333396D01*
X90851020Y-88248840D01*
X90905309Y-88142293D01*
X90924015Y-88024185D01*
X90905309Y-87906077D01*
X90851020Y-87799530D01*
X90851018Y-87799527D01*
X90766466Y-87714975D01*
X90766463Y-87714973D01*
X90659915Y-87660684D01*
X90541809Y-87641979D01*
X90423702Y-87660684D01*
X90317154Y-87714973D01*
X90309134Y-87720801D01*
X90307371Y-87718375D01*
X90259113Y-87744728D01*
X90188298Y-87739663D01*
X90131462Y-87697116D01*
X90106651Y-87630596D01*
X90106330Y-87621607D01*
X90106330Y-87585164D01*
X91528124Y-87585164D01*
X91546829Y-87703270D01*
X91601118Y-87809818D01*
X91601120Y-87809821D01*
X91685672Y-87894373D01*
X91685675Y-87894375D01*
X91792222Y-87948664D01*
X91910330Y-87967370D01*
X92028438Y-87948664D01*
X92134985Y-87894375D01*
X92219541Y-87809819D01*
X92273830Y-87703272D01*
X92292536Y-87585164D01*
X92273830Y-87467056D01*
X92219541Y-87360509D01*
X92219539Y-87360506D01*
X92134987Y-87275954D01*
X92134984Y-87275952D01*
X92028436Y-87221663D01*
X91910330Y-87202958D01*
X91792223Y-87221663D01*
X91685675Y-87275952D01*
X91685672Y-87275954D01*
X91601120Y-87360506D01*
X91601118Y-87360509D01*
X91546829Y-87467057D01*
X91528124Y-87585164D01*
X90106330Y-87585164D01*
X90106330Y-84100665D01*
X95554124Y-84100665D01*
X95572829Y-84218771D01*
X95627118Y-84325319D01*
X95627120Y-84325322D01*
X95711672Y-84409874D01*
X95711675Y-84409876D01*
X95818222Y-84464165D01*
X95936330Y-84482871D01*
X96054438Y-84464165D01*
X96160985Y-84409876D01*
X96245541Y-84325320D01*
X96299830Y-84218773D01*
X96318536Y-84100665D01*
X96299830Y-83982557D01*
X96245541Y-83876010D01*
X96245539Y-83876007D01*
X96160987Y-83791455D01*
X96160984Y-83791453D01*
X96054436Y-83737164D01*
X95936330Y-83718459D01*
X95818223Y-83737164D01*
X95711675Y-83791453D01*
X95711672Y-83791455D01*
X95627120Y-83876007D01*
X95627118Y-83876010D01*
X95572829Y-83982558D01*
X95554124Y-84100665D01*
X90106330Y-84100665D01*
X90106330Y-83547854D01*
X90126332Y-83479733D01*
X90143235Y-83458759D01*
X91349425Y-82252569D01*
X91411737Y-82218543D01*
X91438520Y-82215664D01*
X96062474Y-82215664D01*
X96130595Y-82235666D01*
G37*
%TD.AperFunction*%
%TD*%
%TA.AperFunction,Conductor*%
%TO.N,PGND*%
G36*
X101235537Y-75458729D02*
G01*
X101241191Y-75463909D01*
X104203904Y-78426622D01*
X104208087Y-78430625D01*
X104212602Y-78434761D01*
X104213733Y-78435797D01*
X104257922Y-78462609D01*
X104314423Y-78483174D01*
X104359741Y-78491165D01*
X108184146Y-78491165D01*
X108240647Y-78511730D01*
X108270711Y-78563801D01*
X108260270Y-78623015D01*
X108246304Y-78641215D01*
X108197665Y-78689855D01*
X108166007Y-78721513D01*
X108111720Y-78828056D01*
X108111720Y-78828057D01*
X108093015Y-78946165D01*
X108111720Y-79064272D01*
X108111720Y-79064273D01*
X108166007Y-79170816D01*
X108166008Y-79170817D01*
X108166010Y-79170820D01*
X108250566Y-79255376D01*
X108250568Y-79255377D01*
X108250569Y-79255378D01*
X108357112Y-79309665D01*
X108373260Y-79312222D01*
X108475221Y-79328371D01*
X108593329Y-79309665D01*
X108699876Y-79255376D01*
X108784432Y-79170820D01*
X108838721Y-79064273D01*
X108838721Y-79064272D01*
X108840860Y-79057691D01*
X108843636Y-79058593D01*
X108867146Y-79016150D01*
X108923273Y-78994585D01*
X108980130Y-79014143D01*
X108986989Y-79020316D01*
X111479669Y-81512996D01*
X111491785Y-81523715D01*
X111508666Y-81536904D01*
X111508667Y-81536904D01*
X111508668Y-81536905D01*
X111508672Y-81536907D01*
X111564952Y-81562556D01*
X111564957Y-81562558D01*
X111623979Y-81574032D01*
X111662817Y-81574709D01*
X111675013Y-81575776D01*
X111732437Y-81584871D01*
X111758588Y-81593369D01*
X111797676Y-81613286D01*
X111802921Y-81615958D01*
X111825170Y-81632122D01*
X111860369Y-81667321D01*
X111876533Y-81689570D01*
X111899121Y-81733901D01*
X111907620Y-81760057D01*
X111915852Y-81812034D01*
X111916531Y-81834191D01*
X111916107Y-81838603D01*
X111916105Y-81838621D01*
X111915359Y-81860021D01*
X111927690Y-81920630D01*
X111927690Y-81920631D01*
X111953102Y-81975128D01*
X111979500Y-82012828D01*
X111991596Y-82024923D01*
X111997811Y-82031138D01*
X112018852Y-82048253D01*
X112018855Y-82048255D01*
X112018860Y-82048259D01*
X112039410Y-82061732D01*
X112048787Y-82067880D01*
X112048789Y-82067881D01*
X112108233Y-82086482D01*
X112117963Y-82089527D01*
X112178070Y-82091104D01*
X112194864Y-82090479D01*
X112264022Y-82062351D01*
X112311080Y-82024924D01*
X112341575Y-81990459D01*
X112347150Y-81981360D01*
X112355252Y-81970210D01*
X112488881Y-81813748D01*
X112498614Y-81804015D01*
X112655072Y-81670388D01*
X112666228Y-81662283D01*
X112666230Y-81662282D01*
X112841664Y-81554775D01*
X112853937Y-81548521D01*
X113044038Y-81469778D01*
X113057138Y-81465522D01*
X113257196Y-81417493D01*
X113270810Y-81415336D01*
X113475942Y-81399193D01*
X113489716Y-81399193D01*
X113694846Y-81415336D01*
X113708464Y-81417493D01*
X113844968Y-81450264D01*
X113844971Y-81450266D01*
X113856790Y-81453103D01*
X113856791Y-81453104D01*
X113881346Y-81458999D01*
X113908520Y-81465522D01*
X113921623Y-81469780D01*
X114111714Y-81548518D01*
X114123997Y-81554777D01*
X114158268Y-81575778D01*
X114299428Y-81662282D01*
X114310586Y-81670389D01*
X114467031Y-81804005D01*
X114476785Y-81813759D01*
X114568065Y-81920635D01*
X114610405Y-81970210D01*
X114618511Y-81981367D01*
X114645203Y-82024923D01*
X114645204Y-82024924D01*
X114726012Y-82156790D01*
X114732273Y-82169077D01*
X114737629Y-82182006D01*
X114737630Y-82182009D01*
X114747757Y-82206458D01*
X114747758Y-82206461D01*
X114798933Y-82330008D01*
X114798933Y-82330009D01*
X114811009Y-82359164D01*
X114815271Y-82372281D01*
X114863298Y-82572330D01*
X114865456Y-82585953D01*
X114881600Y-82791062D01*
X114881600Y-82804856D01*
X114865456Y-83009969D01*
X114863299Y-83023589D01*
X114850482Y-83076984D01*
X114850480Y-83076993D01*
X114815271Y-83223645D01*
X114811009Y-83236763D01*
X114732274Y-83426847D01*
X114726012Y-83439137D01*
X114618511Y-83614560D01*
X114610404Y-83625718D01*
X114476786Y-83782166D01*
X114467032Y-83791920D01*
X114310584Y-83925538D01*
X114299426Y-83933645D01*
X114124002Y-84041146D01*
X114111712Y-84047408D01*
X113906493Y-84132414D01*
X113901546Y-84132813D01*
X113899523Y-84134066D01*
X113886916Y-84140523D01*
X113885735Y-84141012D01*
X113882890Y-84144357D01*
X113838562Y-84171784D01*
X113838558Y-84171786D01*
X113828044Y-84179015D01*
X113828039Y-84179020D01*
X113783779Y-84239133D01*
X113783777Y-84239137D01*
X113763214Y-84295633D01*
X113763213Y-84295637D01*
X113763213Y-84295638D01*
X113755222Y-84340956D01*
X113755222Y-84340959D01*
X113755222Y-86272088D01*
X113734657Y-86328589D01*
X113682586Y-86358653D01*
X113660426Y-86359717D01*
X113482832Y-86345741D01*
X113482830Y-86345741D01*
X113243132Y-86364605D01*
X113009346Y-86420732D01*
X112787223Y-86512739D01*
X112787211Y-86512745D01*
X112582207Y-86638373D01*
X112399389Y-86794514D01*
X112399380Y-86794523D01*
X112243239Y-86977341D01*
X112117611Y-87182345D01*
X112117605Y-87182357D01*
X112025598Y-87404480D01*
X111969471Y-87638266D01*
X111950607Y-87877963D01*
X111950607Y-87877964D01*
X111969471Y-88117661D01*
X112025598Y-88351447D01*
X112111765Y-88559471D01*
X112117609Y-88573579D01*
X112243236Y-88778582D01*
X112243237Y-88778584D01*
X112243239Y-88778586D01*
X112399380Y-88961404D01*
X112399389Y-88961413D01*
X112572995Y-89109686D01*
X112582212Y-89117558D01*
X112787215Y-89243185D01*
X112839954Y-89265030D01*
X113009346Y-89335195D01*
X113243132Y-89391322D01*
X113243134Y-89391322D01*
X113243138Y-89391323D01*
X113449082Y-89407531D01*
X113482829Y-89410187D01*
X113482829Y-89410186D01*
X113482830Y-89410187D01*
X113660425Y-89396210D01*
X113718366Y-89412278D01*
X113752422Y-89461831D01*
X113755222Y-89483839D01*
X113755222Y-90580182D01*
X113734657Y-90636683D01*
X113682586Y-90666747D01*
X113681072Y-90667000D01*
X113608545Y-90678486D01*
X113608544Y-90678486D01*
X113502001Y-90732773D01*
X113417439Y-90817335D01*
X113363152Y-90923878D01*
X113363152Y-90923879D01*
X113344447Y-91041987D01*
X113344447Y-91041988D01*
X113348789Y-91069409D01*
X113337315Y-91128431D01*
X113299120Y-91162821D01*
X113267948Y-91177357D01*
X113267946Y-91177358D01*
X113230248Y-91203752D01*
X113230245Y-91203755D01*
X107807751Y-96626250D01*
X107753257Y-96651661D01*
X107695179Y-96636098D01*
X107660691Y-96586845D01*
X107657696Y-96564095D01*
X107657696Y-96282127D01*
X107657735Y-96282019D01*
X107657736Y-96245678D01*
X107657740Y-96057716D01*
X107652352Y-95999563D01*
X107623061Y-95683404D01*
X107623060Y-95683396D01*
X107623060Y-95683394D01*
X107553989Y-95313869D01*
X107451116Y-94952294D01*
X107315319Y-94601754D01*
X107147757Y-94265239D01*
X106949873Y-93945645D01*
X106949861Y-93945625D01*
X106729986Y-93654464D01*
X106723313Y-93645627D01*
X106470053Y-93367817D01*
X106470037Y-93367802D01*
X106192246Y-93114565D01*
X106192239Y-93114559D01*
X105892241Y-92888015D01*
X105572638Y-92690131D01*
X105572610Y-92690115D01*
X105236133Y-92522576D01*
X105236115Y-92522568D01*
X105236107Y-92522564D01*
X104885566Y-92386771D01*
X104885559Y-92386769D01*
X104523988Y-92283900D01*
X104154468Y-92214834D01*
X104154451Y-92214832D01*
X103780150Y-92180158D01*
X103780142Y-92180158D01*
X103592180Y-92180164D01*
X92521241Y-92180164D01*
X92520936Y-92180192D01*
X92381352Y-92180190D01*
X92381350Y-92180190D01*
X92381349Y-92180190D01*
X92381334Y-92180190D01*
X92007043Y-92214864D01*
X92007030Y-92214866D01*
X91637507Y-92283933D01*
X91275948Y-92386798D01*
X91275937Y-92386802D01*
X90925393Y-92522597D01*
X90925385Y-92522601D01*
X90588900Y-92690145D01*
X90588871Y-92690161D01*
X90269271Y-92888043D01*
X89969276Y-93114586D01*
X89969269Y-93114592D01*
X89691480Y-93367827D01*
X89691462Y-93367845D01*
X89438209Y-93645648D01*
X89211662Y-93945645D01*
X89013766Y-94265261D01*
X88846212Y-94601760D01*
X88846205Y-94601776D01*
X88710414Y-94952302D01*
X88710412Y-94952309D01*
X88607541Y-95313877D01*
X88538471Y-95683397D01*
X88538469Y-95683409D01*
X88503791Y-96057703D01*
X88503791Y-96057714D01*
X88503795Y-96231302D01*
X88503795Y-98948032D01*
X88503524Y-98954928D01*
X88488662Y-99143784D01*
X88486504Y-99157408D01*
X88443090Y-99338241D01*
X88438828Y-99351359D01*
X88367657Y-99523178D01*
X88361395Y-99535468D01*
X88264224Y-99694036D01*
X88256116Y-99705196D01*
X88135330Y-99846613D01*
X88125576Y-99856366D01*
X87984159Y-99977142D01*
X87973000Y-99985249D01*
X87814428Y-100082417D01*
X87802137Y-100088679D01*
X87630317Y-100159842D01*
X87617199Y-100164104D01*
X87436361Y-100207512D01*
X87422736Y-100209669D01*
X87233190Y-100224577D01*
X87226296Y-100224848D01*
X87197465Y-100224847D01*
X87190557Y-100224847D01*
X87190556Y-100224847D01*
X87182183Y-100224847D01*
X87182163Y-100224849D01*
X73884249Y-100224849D01*
X73877352Y-100224578D01*
X73688492Y-100209713D01*
X73674869Y-100207555D01*
X73494035Y-100164140D01*
X73480917Y-100159878D01*
X73309096Y-100088706D01*
X73296806Y-100082444D01*
X73138233Y-99985269D01*
X73127074Y-99977161D01*
X73103993Y-99957448D01*
X72985655Y-99856376D01*
X72975910Y-99846631D01*
X72855121Y-99705202D01*
X72847020Y-99694051D01*
X72749844Y-99535473D01*
X72743584Y-99523186D01*
X72672418Y-99351370D01*
X72668155Y-99338252D01*
X72668152Y-99338241D01*
X72624740Y-99157405D01*
X72622583Y-99143782D01*
X72607699Y-98954638D01*
X72607428Y-98947742D01*
X72607428Y-96056064D01*
X72627993Y-95999563D01*
X72680064Y-95969499D01*
X72695328Y-95968164D01*
X81574919Y-95968164D01*
X81574920Y-95968164D01*
X81580691Y-95968038D01*
X81588352Y-95967704D01*
X81638578Y-95955416D01*
X81638583Y-95955413D01*
X81638585Y-95955413D01*
X81693064Y-95930009D01*
X81693064Y-95930008D01*
X81693072Y-95930005D01*
X81730767Y-95903611D01*
X82134277Y-95500101D01*
X82138282Y-95495916D01*
X82143462Y-95490262D01*
X82170274Y-95446073D01*
X82190839Y-95389572D01*
X82198830Y-95344254D01*
X82198830Y-88405664D01*
X83994124Y-88405664D01*
X84012829Y-88523771D01*
X84012829Y-88523772D01*
X84067116Y-88630315D01*
X84067117Y-88630316D01*
X84067119Y-88630319D01*
X84151675Y-88714875D01*
X84151677Y-88714876D01*
X84151678Y-88714877D01*
X84258221Y-88769164D01*
X84274369Y-88771721D01*
X84376330Y-88787870D01*
X84494438Y-88769164D01*
X84520933Y-88755664D01*
X85044124Y-88755664D01*
X85062829Y-88873771D01*
X85062829Y-88873772D01*
X85117116Y-88980315D01*
X85117117Y-88980316D01*
X85117119Y-88980319D01*
X85201675Y-89064875D01*
X85201677Y-89064876D01*
X85201678Y-89064877D01*
X85308221Y-89119164D01*
X85324369Y-89121721D01*
X85426330Y-89137870D01*
X85544438Y-89119164D01*
X85650985Y-89064875D01*
X85735541Y-88980319D01*
X85789830Y-88873772D01*
X85808536Y-88755664D01*
X85789830Y-88637556D01*
X85789830Y-88637555D01*
X85735543Y-88531012D01*
X85735542Y-88531011D01*
X85735541Y-88531009D01*
X85650985Y-88446453D01*
X85650982Y-88446451D01*
X85646093Y-88441562D01*
X85647978Y-88439676D01*
X85620431Y-88398826D01*
X85626724Y-88339029D01*
X85665818Y-88299252D01*
X85682259Y-88290875D01*
X85729813Y-88243320D01*
X85784306Y-88217910D01*
X85842384Y-88233473D01*
X85854115Y-88243315D01*
X85901675Y-88290875D01*
X85901677Y-88290876D01*
X85901678Y-88290877D01*
X86008221Y-88345164D01*
X86024369Y-88347721D01*
X86126330Y-88363870D01*
X86244438Y-88345164D01*
X86350985Y-88290875D01*
X86435541Y-88206319D01*
X86489830Y-88099772D01*
X86508536Y-87981664D01*
X86489830Y-87863556D01*
X86489830Y-87863555D01*
X86435543Y-87757012D01*
X86435542Y-87757011D01*
X86435541Y-87757009D01*
X86350985Y-87672453D01*
X86350982Y-87672451D01*
X86350981Y-87672450D01*
X86244438Y-87618163D01*
X86126330Y-87599458D01*
X86008222Y-87618163D01*
X86008221Y-87618163D01*
X85901678Y-87672450D01*
X85901675Y-87672452D01*
X85901675Y-87672453D01*
X85854120Y-87720007D01*
X85799628Y-87745418D01*
X85741550Y-87729855D01*
X85729818Y-87720012D01*
X85682259Y-87672453D01*
X85682256Y-87672451D01*
X85682255Y-87672450D01*
X85575712Y-87618163D01*
X85457604Y-87599458D01*
X85339496Y-87618163D01*
X85339495Y-87618163D01*
X85232952Y-87672450D01*
X85148390Y-87757012D01*
X85094103Y-87863555D01*
X85094103Y-87863556D01*
X85075398Y-87981664D01*
X85094103Y-88099771D01*
X85094103Y-88099772D01*
X85148390Y-88206315D01*
X85148391Y-88206316D01*
X85148393Y-88206319D01*
X85232949Y-88290875D01*
X85232951Y-88290876D01*
X85237841Y-88295766D01*
X85235954Y-88297652D01*
X85263500Y-88338495D01*
X85257212Y-88398292D01*
X85218119Y-88438073D01*
X85201678Y-88446450D01*
X85117116Y-88531012D01*
X85062829Y-88637555D01*
X85062829Y-88637556D01*
X85044124Y-88755664D01*
X84520933Y-88755664D01*
X84600985Y-88714875D01*
X84685541Y-88630319D01*
X84739830Y-88523772D01*
X84758536Y-88405664D01*
X84739830Y-88287556D01*
X84739830Y-88287555D01*
X84685543Y-88181012D01*
X84685542Y-88181011D01*
X84685541Y-88181009D01*
X84600985Y-88096453D01*
X84600982Y-88096451D01*
X84600981Y-88096450D01*
X84494438Y-88042163D01*
X84376330Y-88023458D01*
X84258222Y-88042163D01*
X84258221Y-88042163D01*
X84151678Y-88096450D01*
X84067116Y-88181012D01*
X84012829Y-88287555D01*
X84012829Y-88287556D01*
X83994124Y-88405664D01*
X82198830Y-88405664D01*
X82198830Y-87356564D01*
X88128124Y-87356564D01*
X88146829Y-87474671D01*
X88146829Y-87474672D01*
X88201116Y-87581215D01*
X88201117Y-87581216D01*
X88201119Y-87581219D01*
X88285675Y-87665775D01*
X88285677Y-87665776D01*
X88285678Y-87665777D01*
X88392221Y-87720064D01*
X88408369Y-87722621D01*
X88510330Y-87738770D01*
X88628438Y-87720064D01*
X88734985Y-87665775D01*
X88819541Y-87581219D01*
X88873830Y-87474672D01*
X88892536Y-87356564D01*
X88873830Y-87238456D01*
X88873830Y-87238455D01*
X88819543Y-87131912D01*
X88819542Y-87131911D01*
X88819541Y-87131909D01*
X88734985Y-87047353D01*
X88734982Y-87047351D01*
X88734981Y-87047350D01*
X88628438Y-86993063D01*
X88510330Y-86974358D01*
X88392222Y-86993063D01*
X88392221Y-86993063D01*
X88285678Y-87047350D01*
X88201116Y-87131912D01*
X88146829Y-87238455D01*
X88146829Y-87238456D01*
X88128124Y-87356564D01*
X82198830Y-87356564D01*
X82198830Y-83547845D01*
X89973830Y-83547845D01*
X89973830Y-87621612D01*
X89973913Y-87626331D01*
X89974234Y-87635320D01*
X89974235Y-87635328D01*
X89982504Y-87676898D01*
X90007315Y-87743420D01*
X90007316Y-87743421D01*
X90052056Y-87803186D01*
X90052057Y-87803186D01*
X90052058Y-87803188D01*
X90080634Y-87824579D01*
X90108892Y-87845734D01*
X90108893Y-87845734D01*
X90108894Y-87845735D01*
X90116117Y-87848429D01*
X90161869Y-87887443D01*
X90172217Y-87944537D01*
X90159603Y-88024184D01*
X90172419Y-88105108D01*
X90160945Y-88164131D01*
X90122118Y-88198814D01*
X90093219Y-88212012D01*
X90039564Y-88258503D01*
X90039560Y-88258508D01*
X89999199Y-88321311D01*
X89999198Y-88321313D01*
X89979196Y-88389434D01*
X89979194Y-88389442D01*
X89973830Y-88426754D01*
X89973830Y-90593473D01*
X89974588Y-90607624D01*
X89977468Y-90634422D01*
X89977469Y-90634423D01*
X89992915Y-90683754D01*
X89992919Y-90683763D01*
X90026939Y-90746065D01*
X90026948Y-90746079D01*
X90049541Y-90776259D01*
X90049542Y-90776260D01*
X90049543Y-90776261D01*
X90655733Y-91382451D01*
X90655742Y-91382459D01*
X90655756Y-91382473D01*
X90655757Y-91382474D01*
X90666256Y-91391903D01*
X90666282Y-91391926D01*
X90666293Y-91391935D01*
X90666299Y-91391940D01*
X90687251Y-91408825D01*
X90687259Y-91408831D01*
X90733063Y-91432792D01*
X90733066Y-91432793D01*
X90733070Y-91432795D01*
X90801191Y-91452797D01*
X90801195Y-91452797D01*
X90801200Y-91452799D01*
X90801199Y-91452799D01*
X90838511Y-91458163D01*
X90838517Y-91458163D01*
X90838520Y-91458164D01*
X90838521Y-91458164D01*
X100124139Y-91458164D01*
X100124140Y-91458164D01*
X100138301Y-91457405D01*
X100165084Y-91454526D01*
X100165086Y-91454525D01*
X100165088Y-91454525D01*
X100165088Y-91454524D01*
X100214425Y-91439077D01*
X100276737Y-91405051D01*
X100306927Y-91382451D01*
X100913117Y-90776261D01*
X100913139Y-90776237D01*
X100913140Y-90776236D01*
X100917854Y-90770986D01*
X100922592Y-90765712D01*
X100939495Y-90744738D01*
X100963461Y-90698924D01*
X100983463Y-90630803D01*
X100983463Y-90630798D01*
X100983465Y-90630794D01*
X100988829Y-90593482D01*
X100988830Y-90593472D01*
X100988830Y-88955819D01*
X101181011Y-88955819D01*
X101199716Y-89073926D01*
X101199716Y-89073927D01*
X101254003Y-89180470D01*
X101254004Y-89180471D01*
X101254006Y-89180474D01*
X101338562Y-89265030D01*
X101376337Y-89284278D01*
X101417343Y-89328252D01*
X101420490Y-89388296D01*
X101414751Y-89402501D01*
X101396530Y-89438262D01*
X101396529Y-89438264D01*
X101377824Y-89556372D01*
X101396529Y-89674479D01*
X101396529Y-89674480D01*
X101450816Y-89781023D01*
X101450817Y-89781024D01*
X101450819Y-89781027D01*
X101535375Y-89865583D01*
X101535377Y-89865584D01*
X101535378Y-89865585D01*
X101641921Y-89919872D01*
X101647402Y-89920740D01*
X101760030Y-89938578D01*
X101853429Y-89923785D01*
X101912450Y-89935258D01*
X101950289Y-89981985D01*
X101953996Y-90024353D01*
X101939659Y-90114877D01*
X101934826Y-90145395D01*
X101935562Y-90150044D01*
X101953531Y-90263502D01*
X101953531Y-90263503D01*
X102007818Y-90370046D01*
X102007819Y-90370047D01*
X102007821Y-90370050D01*
X102092377Y-90454606D01*
X102092379Y-90454607D01*
X102092380Y-90454608D01*
X102198923Y-90508895D01*
X102215071Y-90511452D01*
X102317032Y-90527601D01*
X102435140Y-90508895D01*
X102435148Y-90508890D01*
X102436055Y-90508597D01*
X102436848Y-90508624D01*
X102441973Y-90507813D01*
X102442130Y-90508808D01*
X102496146Y-90510687D01*
X102540834Y-90550914D01*
X102541548Y-90552285D01*
X102571116Y-90610315D01*
X102571117Y-90610316D01*
X102571119Y-90610319D01*
X102655675Y-90694875D01*
X102655677Y-90694876D01*
X102655678Y-90694877D01*
X102762221Y-90749164D01*
X102778369Y-90751721D01*
X102880330Y-90767870D01*
X102998438Y-90749164D01*
X103104985Y-90694875D01*
X103189541Y-90610319D01*
X103226269Y-90538235D01*
X103270241Y-90497231D01*
X103330285Y-90494083D01*
X103378305Y-90530268D01*
X103388185Y-90550980D01*
X103444144Y-90723205D01*
X103444146Y-90723209D01*
X103546392Y-90923878D01*
X103556816Y-90944335D01*
X103702691Y-91145115D01*
X103878179Y-91320603D01*
X104078959Y-91466478D01*
X104300087Y-91579149D01*
X104536119Y-91655840D01*
X104781241Y-91694664D01*
X104781243Y-91694664D01*
X105029417Y-91694664D01*
X105029419Y-91694664D01*
X105274541Y-91655840D01*
X105510573Y-91579149D01*
X105731701Y-91466478D01*
X105932481Y-91320603D01*
X106107969Y-91145115D01*
X106253844Y-90944335D01*
X106366515Y-90723207D01*
X106443206Y-90487175D01*
X106482030Y-90242053D01*
X106482030Y-90033192D01*
X106502595Y-89976691D01*
X106554666Y-89946627D01*
X106613880Y-89957068D01*
X106648249Y-89993286D01*
X106667116Y-90030315D01*
X106667117Y-90030316D01*
X106667119Y-90030319D01*
X106751675Y-90114875D01*
X106751677Y-90114876D01*
X106751678Y-90114877D01*
X106858221Y-90169164D01*
X106981571Y-90188700D01*
X107034160Y-90217850D01*
X107055708Y-90273983D01*
X107054639Y-90289267D01*
X107044124Y-90355662D01*
X107044124Y-90355663D01*
X107062829Y-90473771D01*
X107062829Y-90473772D01*
X107117116Y-90580315D01*
X107117117Y-90580316D01*
X107117119Y-90580319D01*
X107201675Y-90664875D01*
X107201677Y-90664876D01*
X107201678Y-90664877D01*
X107308221Y-90719164D01*
X107324369Y-90721721D01*
X107426330Y-90737870D01*
X107544438Y-90719164D01*
X107650985Y-90664875D01*
X107735541Y-90580319D01*
X107770251Y-90512196D01*
X107814223Y-90471192D01*
X107874267Y-90468045D01*
X107922288Y-90504229D01*
X107926888Y-90512197D01*
X107947317Y-90552290D01*
X107947319Y-90552293D01*
X108031875Y-90636849D01*
X108031877Y-90636850D01*
X108031878Y-90636851D01*
X108138421Y-90691138D01*
X108154569Y-90693695D01*
X108256530Y-90709844D01*
X108374638Y-90691138D01*
X108481185Y-90636849D01*
X108565741Y-90552293D01*
X108620030Y-90445746D01*
X108638736Y-90327638D01*
X108620030Y-90209530D01*
X108620029Y-90209529D01*
X108619251Y-90204612D01*
X108630724Y-90145590D01*
X108677452Y-90107751D01*
X108737570Y-90108800D01*
X108745975Y-90112543D01*
X108798221Y-90139164D01*
X108814369Y-90141721D01*
X108916330Y-90157870D01*
X109034438Y-90139164D01*
X109140985Y-90084875D01*
X109225541Y-90000319D01*
X109279830Y-89893772D01*
X109296307Y-89789737D01*
X111127866Y-89789737D01*
X111146571Y-89907844D01*
X111146571Y-89907845D01*
X111200858Y-90014388D01*
X111200859Y-90014389D01*
X111200861Y-90014392D01*
X111285417Y-90098948D01*
X111285419Y-90098949D01*
X111285420Y-90098950D01*
X111391963Y-90153237D01*
X111406233Y-90155497D01*
X111510072Y-90171943D01*
X111613911Y-90155497D01*
X111672933Y-90166970D01*
X111705980Y-90202409D01*
X111746116Y-90281180D01*
X111746117Y-90281181D01*
X111746119Y-90281184D01*
X111830675Y-90365740D01*
X111830677Y-90365741D01*
X111830678Y-90365742D01*
X111937221Y-90420029D01*
X111953369Y-90422586D01*
X112055330Y-90438735D01*
X112173438Y-90420029D01*
X112279985Y-90365740D01*
X112364541Y-90281184D01*
X112418830Y-90174637D01*
X112437536Y-90056529D01*
X112418830Y-89938421D01*
X112418830Y-89938420D01*
X112364543Y-89831877D01*
X112364542Y-89831876D01*
X112364541Y-89831874D01*
X112279985Y-89747318D01*
X112279982Y-89747316D01*
X112279981Y-89747315D01*
X112173438Y-89693028D01*
X112055330Y-89674323D01*
X112055329Y-89674323D01*
X111951489Y-89690768D01*
X111892467Y-89679294D01*
X111859421Y-89643857D01*
X111819283Y-89565082D01*
X111734727Y-89480526D01*
X111734724Y-89480524D01*
X111734723Y-89480523D01*
X111628180Y-89426236D01*
X111510072Y-89407531D01*
X111391964Y-89426236D01*
X111391963Y-89426236D01*
X111285420Y-89480523D01*
X111200858Y-89565085D01*
X111146571Y-89671628D01*
X111146571Y-89671629D01*
X111127866Y-89789737D01*
X109296307Y-89789737D01*
X109298536Y-89775664D01*
X109279830Y-89657556D01*
X109279830Y-89657555D01*
X109225543Y-89551012D01*
X109225542Y-89551011D01*
X109225541Y-89551009D01*
X109140985Y-89466453D01*
X109140982Y-89466451D01*
X109140981Y-89466450D01*
X109034438Y-89412163D01*
X108916330Y-89393458D01*
X108798222Y-89412163D01*
X108798221Y-89412163D01*
X108691678Y-89466450D01*
X108607116Y-89551012D01*
X108552829Y-89657555D01*
X108552829Y-89657556D01*
X108534124Y-89775664D01*
X108553608Y-89898689D01*
X108542135Y-89957712D01*
X108495407Y-89995550D01*
X108435289Y-89994500D01*
X108426885Y-89990759D01*
X108374636Y-89964137D01*
X108374638Y-89964137D01*
X108295138Y-89951546D01*
X108242550Y-89922395D01*
X108221002Y-89866262D01*
X108222070Y-89850983D01*
X108223636Y-89841099D01*
X108204930Y-89722991D01*
X108204930Y-89722990D01*
X108150643Y-89616447D01*
X108150642Y-89616446D01*
X108150641Y-89616444D01*
X108066085Y-89531888D01*
X108066082Y-89531886D01*
X108066081Y-89531885D01*
X107959538Y-89477598D01*
X107841430Y-89458893D01*
X107723322Y-89477598D01*
X107723321Y-89477598D01*
X107616778Y-89531885D01*
X107532217Y-89616446D01*
X107496226Y-89687082D01*
X107452251Y-89728088D01*
X107392207Y-89731234D01*
X107344187Y-89695048D01*
X107339588Y-89687082D01*
X107285541Y-89581009D01*
X107200985Y-89496453D01*
X107200982Y-89496451D01*
X107200981Y-89496450D01*
X107094438Y-89442163D01*
X106976330Y-89423458D01*
X106858222Y-89442163D01*
X106858221Y-89442163D01*
X106751678Y-89496450D01*
X106667116Y-89581012D01*
X106612829Y-89687555D01*
X106608001Y-89718043D01*
X106578850Y-89770631D01*
X106522716Y-89792179D01*
X106465865Y-89772603D01*
X106437585Y-89731454D01*
X106437514Y-89731234D01*
X106366515Y-89512721D01*
X106253844Y-89291593D01*
X106107969Y-89090813D01*
X105932481Y-88915325D01*
X105731701Y-88769450D01*
X105731692Y-88769445D01*
X105510575Y-88656780D01*
X105510568Y-88656777D01*
X105274539Y-88580087D01*
X105107065Y-88553562D01*
X105029419Y-88541264D01*
X104781241Y-88541264D01*
X104714211Y-88551880D01*
X104536120Y-88580087D01*
X104300091Y-88656777D01*
X104300084Y-88656780D01*
X104078967Y-88769445D01*
X104078958Y-88769450D01*
X103878178Y-88915325D01*
X103702691Y-89090812D01*
X103556816Y-89291592D01*
X103556811Y-89291601D01*
X103444146Y-89512718D01*
X103444143Y-89512725D01*
X103367453Y-89748754D01*
X103328630Y-89993876D01*
X103328630Y-90087889D01*
X103308065Y-90144390D01*
X103255994Y-90174454D01*
X103196780Y-90164013D01*
X103178579Y-90150047D01*
X103104985Y-90076453D01*
X103104982Y-90076451D01*
X103104981Y-90076450D01*
X102998438Y-90022163D01*
X102880330Y-90003458D01*
X102762218Y-90022164D01*
X102761293Y-90022465D01*
X102760496Y-90022437D01*
X102755389Y-90023246D01*
X102755231Y-90022253D01*
X102701202Y-90020366D01*
X102656520Y-89980132D01*
X102655813Y-89978773D01*
X102626245Y-89920743D01*
X102626244Y-89920742D01*
X102626243Y-89920740D01*
X102541687Y-89836184D01*
X102541684Y-89836182D01*
X102541683Y-89836181D01*
X102435140Y-89781894D01*
X102317032Y-89763189D01*
X102223633Y-89777981D01*
X102164610Y-89766508D01*
X102126772Y-89719780D01*
X102123065Y-89677412D01*
X102123529Y-89674481D01*
X102123530Y-89674480D01*
X102142236Y-89556372D01*
X102123530Y-89438264D01*
X102123530Y-89438263D01*
X102069243Y-89331720D01*
X102069242Y-89331719D01*
X102069241Y-89331717D01*
X101984685Y-89247161D01*
X101984682Y-89247159D01*
X101984681Y-89247158D01*
X101946909Y-89227912D01*
X101905902Y-89183938D01*
X101902756Y-89123893D01*
X101908493Y-89109692D01*
X101926717Y-89073927D01*
X101945423Y-88955819D01*
X101926717Y-88837711D01*
X101926717Y-88837710D01*
X101872430Y-88731167D01*
X101872429Y-88731166D01*
X101872428Y-88731164D01*
X101841208Y-88699944D01*
X101815798Y-88645452D01*
X101831361Y-88587374D01*
X101863455Y-88559473D01*
X101950985Y-88514875D01*
X102035541Y-88430319D01*
X102089830Y-88323772D01*
X102108536Y-88205664D01*
X102089830Y-88087556D01*
X102089830Y-88087555D01*
X102035543Y-87981012D01*
X102035542Y-87981011D01*
X102035541Y-87981009D01*
X101950985Y-87896453D01*
X101950982Y-87896451D01*
X101950981Y-87896450D01*
X101844438Y-87842163D01*
X101726330Y-87823458D01*
X101608222Y-87842163D01*
X101608221Y-87842163D01*
X101501678Y-87896450D01*
X101417116Y-87981012D01*
X101362829Y-88087555D01*
X101362829Y-88087556D01*
X101344124Y-88205664D01*
X101362829Y-88323771D01*
X101362829Y-88323772D01*
X101417116Y-88430315D01*
X101417117Y-88430316D01*
X101417119Y-88430319D01*
X101448337Y-88461537D01*
X101473748Y-88516030D01*
X101458185Y-88574108D01*
X101426088Y-88602010D01*
X101338565Y-88646605D01*
X101254003Y-88731167D01*
X101199716Y-88837710D01*
X101199716Y-88837711D01*
X101181011Y-88955819D01*
X100988830Y-88955819D01*
X100988830Y-85262138D01*
X104027830Y-85262138D01*
X104027830Y-86333790D01*
X104038521Y-86407167D01*
X104045153Y-86420733D01*
X104093852Y-86520350D01*
X104093853Y-86520351D01*
X104093854Y-86520353D01*
X104182941Y-86609440D01*
X104296127Y-86664773D01*
X104369504Y-86675464D01*
X104369508Y-86675464D01*
X105441152Y-86675464D01*
X105441156Y-86675464D01*
X105514533Y-86664773D01*
X105627719Y-86609440D01*
X105716806Y-86520353D01*
X105772139Y-86407167D01*
X105782830Y-86333790D01*
X105782830Y-85262138D01*
X105772139Y-85188761D01*
X105716806Y-85075575D01*
X105627719Y-84986488D01*
X105627717Y-84986487D01*
X105627716Y-84986486D01*
X105569918Y-84958231D01*
X105514533Y-84931155D01*
X105441156Y-84920464D01*
X104369504Y-84920464D01*
X104296127Y-84931155D01*
X104296125Y-84931156D01*
X104182943Y-84986486D01*
X104093852Y-85075577D01*
X104039701Y-85186346D01*
X104038521Y-85188761D01*
X104027830Y-85262138D01*
X100988830Y-85262138D01*
X100988830Y-83147854D01*
X100988071Y-83133693D01*
X100985192Y-83106910D01*
X100985191Y-83106907D01*
X100985191Y-83106905D01*
X100985190Y-83106904D01*
X100975822Y-83076984D01*
X100969743Y-83057569D01*
X100935717Y-82995257D01*
X100935715Y-82995254D01*
X100935711Y-82995248D01*
X100913118Y-82965068D01*
X100746009Y-82797959D01*
X104022996Y-82797959D01*
X104022996Y-82797968D01*
X104042275Y-82981402D01*
X104042277Y-82981412D01*
X104091756Y-83133693D01*
X104099280Y-83156847D01*
X104191504Y-83316582D01*
X104191509Y-83316590D01*
X104301851Y-83439137D01*
X104314933Y-83453666D01*
X104464163Y-83562088D01*
X104632674Y-83637114D01*
X104813101Y-83675464D01*
X104813103Y-83675464D01*
X104817682Y-83675946D01*
X104817412Y-83678512D01*
X104865537Y-83696029D01*
X104871191Y-83701209D01*
X105160903Y-83990921D01*
X105165086Y-83994924D01*
X105167355Y-83997002D01*
X105170732Y-84000096D01*
X105214921Y-84026908D01*
X105271422Y-84047473D01*
X105316740Y-84055464D01*
X105316743Y-84055464D01*
X109982440Y-84055464D01*
X109993960Y-84054961D01*
X109993968Y-84054960D01*
X109993974Y-84054960D01*
X110009238Y-84053625D01*
X110063945Y-84036377D01*
X110116016Y-84006313D01*
X110130008Y-83997004D01*
X110174274Y-83936883D01*
X110194839Y-83880382D01*
X110202830Y-83835064D01*
X110202830Y-81760864D01*
X110202326Y-81749320D01*
X110200991Y-81734056D01*
X110200942Y-81733901D01*
X110183745Y-81679355D01*
X110183744Y-81679354D01*
X110183743Y-81679349D01*
X110183739Y-81679342D01*
X110153697Y-81627309D01*
X110153684Y-81627287D01*
X110153679Y-81627278D01*
X110144370Y-81613286D01*
X110093428Y-81575778D01*
X110084248Y-81569019D01*
X110027752Y-81548456D01*
X110027749Y-81548455D01*
X110027748Y-81548455D01*
X109982430Y-81540464D01*
X105316740Y-81540464D01*
X105316465Y-81540470D01*
X105310949Y-81540590D01*
X105303313Y-81540923D01*
X105303308Y-81540924D01*
X105253074Y-81553214D01*
X105198595Y-81578618D01*
X105198591Y-81578621D01*
X105160891Y-81605018D01*
X104871191Y-81894719D01*
X104817650Y-81919685D01*
X104817682Y-81919982D01*
X104816820Y-81920072D01*
X104816697Y-81920130D01*
X104815974Y-81920161D01*
X104813103Y-81920463D01*
X104632678Y-81958813D01*
X104632676Y-81958813D01*
X104632674Y-81958814D01*
X104632672Y-81958815D01*
X104464165Y-82033838D01*
X104314932Y-82142262D01*
X104191509Y-82279337D01*
X104191504Y-82279345D01*
X104099280Y-82439080D01*
X104042277Y-82614515D01*
X104042275Y-82614525D01*
X104022996Y-82797959D01*
X100746009Y-82797959D01*
X100562565Y-82614515D01*
X100177211Y-82229161D01*
X100177204Y-82229155D01*
X100177198Y-82229149D01*
X100159958Y-82214625D01*
X100159952Y-82214621D01*
X100159950Y-82214619D01*
X100125009Y-82189945D01*
X100069512Y-82167343D01*
X99999407Y-82156126D01*
X99999405Y-82156126D01*
X99925351Y-82165577D01*
X99925344Y-82165579D01*
X99860316Y-82194037D01*
X99860307Y-82194042D01*
X99828261Y-82213924D01*
X99716218Y-82307939D01*
X99708020Y-82314042D01*
X99449430Y-82484121D01*
X99440577Y-82489233D01*
X99163991Y-82628138D01*
X99154606Y-82632186D01*
X98863749Y-82738050D01*
X98853956Y-82740982D01*
X98552786Y-82812361D01*
X98542719Y-82814136D01*
X98349937Y-82836668D01*
X98349928Y-82836670D01*
X98235292Y-82850070D01*
X98225087Y-82850664D01*
X97915571Y-82850664D01*
X97905366Y-82850070D01*
X97775434Y-82834883D01*
X97597939Y-82814136D01*
X97587873Y-82812361D01*
X97286702Y-82740982D01*
X97276909Y-82738050D01*
X96986052Y-82632186D01*
X96976667Y-82628138D01*
X96892669Y-82585953D01*
X96700074Y-82489229D01*
X96691226Y-82484120D01*
X96432630Y-82314038D01*
X96424432Y-82307935D01*
X96419025Y-82303398D01*
X96368394Y-82260914D01*
X96368393Y-82260912D01*
X96228636Y-82143641D01*
X96222023Y-82138441D01*
X96209158Y-82128969D01*
X96209146Y-82128962D01*
X96167925Y-82108533D01*
X96099802Y-82088530D01*
X96099794Y-82088528D01*
X96062482Y-82083164D01*
X96062474Y-82083164D01*
X91438520Y-82083164D01*
X91437055Y-82083242D01*
X91424369Y-82083922D01*
X91424360Y-82083922D01*
X91424359Y-82083923D01*
X91421089Y-82084274D01*
X91397571Y-82086802D01*
X91397570Y-82086803D01*
X91348239Y-82102249D01*
X91348230Y-82102253D01*
X91285928Y-82136273D01*
X91285914Y-82136282D01*
X91255734Y-82158875D01*
X90049520Y-83365090D01*
X90049519Y-83365091D01*
X90040090Y-83375590D01*
X90040053Y-83375633D01*
X90023168Y-83396585D01*
X90023162Y-83396593D01*
X89999201Y-83442397D01*
X89999200Y-83442400D01*
X89979194Y-83510533D01*
X89973830Y-83547845D01*
X82198830Y-83547845D01*
X82198830Y-78126064D01*
X82219395Y-78069563D01*
X82271466Y-78039499D01*
X82286730Y-78038164D01*
X84633919Y-78038164D01*
X84633920Y-78038164D01*
X84639691Y-78038038D01*
X84647352Y-78037704D01*
X84697578Y-78025416D01*
X84697583Y-78025413D01*
X84697585Y-78025413D01*
X84752064Y-78000009D01*
X84752064Y-78000008D01*
X84752072Y-78000005D01*
X84789767Y-77973611D01*
X85138277Y-77625101D01*
X85142282Y-77620916D01*
X85147462Y-77615262D01*
X85174274Y-77571073D01*
X85194839Y-77514572D01*
X85202830Y-77469254D01*
X85202830Y-77385662D01*
X91484221Y-77385662D01*
X91484221Y-77385665D01*
X91494370Y-77469254D01*
X91502589Y-77536938D01*
X91502591Y-77536942D01*
X91556624Y-77679419D01*
X91643187Y-77804826D01*
X91643190Y-77804830D01*
X91757251Y-77905880D01*
X91892181Y-77976696D01*
X92040138Y-78013164D01*
X92040140Y-78013164D01*
X92192519Y-78013164D01*
X92192522Y-78013164D01*
X92340479Y-77976696D01*
X92475409Y-77905880D01*
X92589470Y-77804830D01*
X92676035Y-77679420D01*
X92730071Y-77536938D01*
X92748439Y-77385664D01*
X92730071Y-77234390D01*
X92676035Y-77091908D01*
X92589470Y-76966498D01*
X92475409Y-76865448D01*
X92475407Y-76865447D01*
X92475406Y-76865446D01*
X92340481Y-76794633D01*
X92340480Y-76794632D01*
X92340479Y-76794632D01*
X92192522Y-76758164D01*
X92040138Y-76758164D01*
X91892181Y-76794632D01*
X91892180Y-76794632D01*
X91892178Y-76794633D01*
X91757253Y-76865446D01*
X91757248Y-76865450D01*
X91643187Y-76966501D01*
X91556624Y-77091908D01*
X91507670Y-77220991D01*
X91502589Y-77234390D01*
X91502588Y-77234392D01*
X91502588Y-77234395D01*
X91484221Y-77385662D01*
X85202830Y-77385662D01*
X85202830Y-75796958D01*
X85223395Y-75740457D01*
X85228575Y-75734803D01*
X85499469Y-75463909D01*
X85553963Y-75438498D01*
X85561624Y-75438164D01*
X101179036Y-75438164D01*
X101235537Y-75458729D01*
G37*
%TD.AperFunction*%
%TA.AperFunction,Conductor*%
G36*
X78296659Y-79748218D02*
G01*
X78315849Y-79752597D01*
X78439665Y-79795923D01*
X78457396Y-79804461D01*
X78568457Y-79874246D01*
X78568464Y-79874250D01*
X78583853Y-79886522D01*
X78676612Y-79979281D01*
X78688884Y-79994670D01*
X78758670Y-80105734D01*
X78767210Y-80123468D01*
X78810535Y-80247283D01*
X78814915Y-80266473D01*
X78829602Y-80396818D01*
X78829602Y-80416502D01*
X78814914Y-80546854D01*
X78810534Y-80566043D01*
X78767210Y-80689858D01*
X78758670Y-80707592D01*
X78688886Y-80818653D01*
X78676614Y-80834043D01*
X78583851Y-80926806D01*
X78568461Y-80939078D01*
X78457400Y-81008862D01*
X78439667Y-81017402D01*
X78372758Y-81040815D01*
X78372756Y-81040816D01*
X78315848Y-81060728D01*
X78296660Y-81065107D01*
X78166312Y-81079794D01*
X78146629Y-81079794D01*
X78016283Y-81065108D01*
X77997092Y-81060728D01*
X77873276Y-81017402D01*
X77855542Y-81008862D01*
X77744478Y-80939076D01*
X77729089Y-80926804D01*
X77636330Y-80834045D01*
X77624058Y-80818656D01*
X77554270Y-80707589D01*
X77545730Y-80689855D01*
X77502406Y-80566042D01*
X77498026Y-80546851D01*
X77483340Y-80416495D01*
X77483340Y-80396826D01*
X77498026Y-80266473D01*
X77502406Y-80247285D01*
X77545731Y-80123469D01*
X77545732Y-80123468D01*
X77545732Y-80123466D01*
X77554268Y-80105740D01*
X77624058Y-79994669D01*
X77636322Y-79979289D01*
X77729097Y-79886514D01*
X77744477Y-79874250D01*
X77855548Y-79804460D01*
X77873271Y-79795925D01*
X77997091Y-79752597D01*
X78016281Y-79748218D01*
X78146636Y-79733532D01*
X78166306Y-79733532D01*
X78296659Y-79748218D01*
G37*
%TD.AperFunction*%
%TA.AperFunction,Conductor*%
G36*
X78296659Y-77748218D02*
G01*
X78315849Y-77752597D01*
X78439665Y-77795923D01*
X78457396Y-77804461D01*
X78568457Y-77874246D01*
X78568464Y-77874250D01*
X78583853Y-77886522D01*
X78676612Y-77979281D01*
X78688884Y-77994670D01*
X78758670Y-78105734D01*
X78767210Y-78123468D01*
X78810535Y-78247283D01*
X78814915Y-78266473D01*
X78829602Y-78396818D01*
X78829602Y-78416502D01*
X78814914Y-78546854D01*
X78810534Y-78566043D01*
X78767210Y-78689858D01*
X78758670Y-78707592D01*
X78688886Y-78818653D01*
X78676614Y-78834043D01*
X78583851Y-78926806D01*
X78568461Y-78939078D01*
X78457400Y-79008862D01*
X78439667Y-79017402D01*
X78372758Y-79040815D01*
X78372756Y-79040816D01*
X78315848Y-79060728D01*
X78296660Y-79065107D01*
X78166312Y-79079794D01*
X78146629Y-79079794D01*
X78016283Y-79065108D01*
X77997092Y-79060728D01*
X77873276Y-79017402D01*
X77855542Y-79008862D01*
X77744478Y-78939076D01*
X77729089Y-78926804D01*
X77636330Y-78834045D01*
X77624058Y-78818656D01*
X77554270Y-78707589D01*
X77545730Y-78689855D01*
X77502406Y-78566042D01*
X77498026Y-78546851D01*
X77488535Y-78462608D01*
X77483340Y-78416495D01*
X77483340Y-78396826D01*
X77498026Y-78266473D01*
X77502406Y-78247285D01*
X77531243Y-78164873D01*
X77545732Y-78123466D01*
X77554268Y-78105740D01*
X77624058Y-77994669D01*
X77636322Y-77979289D01*
X77729097Y-77886514D01*
X77744477Y-77874250D01*
X77855548Y-77804460D01*
X77873271Y-77795925D01*
X77997091Y-77752597D01*
X78016281Y-77748218D01*
X78146636Y-77733532D01*
X78166306Y-77733532D01*
X78296659Y-77748218D01*
G37*
%TD.AperFunction*%
%TA.AperFunction,Conductor*%
G36*
X123936488Y-67799434D02*
G01*
X124124980Y-67814276D01*
X124125349Y-67814305D01*
X124138971Y-67816463D01*
X124319815Y-67859884D01*
X124332932Y-67864147D01*
X124504746Y-67935318D01*
X124517035Y-67941579D01*
X124675612Y-68038757D01*
X124686770Y-68046864D01*
X124757480Y-68107255D01*
X124828193Y-68167650D01*
X124837943Y-68177400D01*
X124958728Y-68318819D01*
X124966835Y-68329977D01*
X125064012Y-68488548D01*
X125070274Y-68500837D01*
X125141448Y-68672653D01*
X125141449Y-68672654D01*
X125145712Y-68685771D01*
X125189135Y-68866616D01*
X125191293Y-68880239D01*
X125206148Y-69068893D01*
X125206419Y-69075787D01*
X125206421Y-69121322D01*
X125206428Y-69121381D01*
X125206428Y-78013264D01*
X125185863Y-78069765D01*
X125133792Y-78099829D01*
X125118528Y-78101164D01*
X117464025Y-78101164D01*
X117450195Y-78101889D01*
X117450155Y-78101892D01*
X117431918Y-78103809D01*
X117431911Y-78103810D01*
X117375550Y-78123218D01*
X117324554Y-78155083D01*
X117324545Y-78155090D01*
X117310897Y-78164873D01*
X117310896Y-78164874D01*
X117307980Y-78169139D01*
X117259111Y-78204168D01*
X117199158Y-78199589D01*
X117183765Y-78190635D01*
X117160030Y-78173391D01*
X117160029Y-78173390D01*
X117160027Y-78173389D01*
X117050563Y-78124653D01*
X116989215Y-78097339D01*
X116859488Y-78069765D01*
X116806321Y-78058464D01*
X116806320Y-78058464D01*
X116619340Y-78058464D01*
X116619339Y-78058464D01*
X116436449Y-78097338D01*
X116436447Y-78097338D01*
X116436445Y-78097339D01*
X116409913Y-78109152D01*
X116265625Y-78173393D01*
X116243578Y-78189411D01*
X116185780Y-78205983D01*
X116130852Y-78181525D01*
X116128294Y-78178951D01*
X116123563Y-78173989D01*
X116123561Y-78173986D01*
X116063440Y-78129720D01*
X116063439Y-78129719D01*
X116006943Y-78109156D01*
X116006928Y-78109152D01*
X115965827Y-78101905D01*
X115918937Y-78077496D01*
X113960500Y-76119059D01*
X113951978Y-76111251D01*
X113940239Y-76101401D01*
X113889362Y-76074917D01*
X113885074Y-76073768D01*
X113835822Y-76039278D01*
X113819928Y-75988864D01*
X113819928Y-75983665D01*
X113801222Y-75865557D01*
X113801222Y-75865556D01*
X113746935Y-75759013D01*
X113746934Y-75759012D01*
X113746933Y-75759010D01*
X113702089Y-75714166D01*
X114444720Y-75714166D01*
X114463088Y-75865440D01*
X114486734Y-75927792D01*
X114517123Y-76007921D01*
X114603686Y-76133328D01*
X114603689Y-76133332D01*
X114717750Y-76234382D01*
X114852680Y-76305198D01*
X115000637Y-76341666D01*
X115000639Y-76341666D01*
X115153018Y-76341666D01*
X115153021Y-76341666D01*
X115300978Y-76305198D01*
X115435908Y-76234382D01*
X115549969Y-76133332D01*
X115636534Y-76007922D01*
X115690570Y-75865440D01*
X115708938Y-75714166D01*
X115690570Y-75562892D01*
X115636534Y-75420410D01*
X115549969Y-75295000D01*
X115435908Y-75193950D01*
X115435906Y-75193949D01*
X115435905Y-75193948D01*
X115300980Y-75123135D01*
X115300979Y-75123134D01*
X115300978Y-75123134D01*
X115153021Y-75086666D01*
X115000637Y-75086666D01*
X114852680Y-75123134D01*
X114852679Y-75123134D01*
X114852677Y-75123135D01*
X114717752Y-75193948D01*
X114717747Y-75193952D01*
X114603686Y-75295003D01*
X114517123Y-75420410D01*
X114487478Y-75498580D01*
X114463088Y-75562892D01*
X114463087Y-75562894D01*
X114463087Y-75562897D01*
X114449542Y-75674451D01*
X114444720Y-75714166D01*
X113702089Y-75714166D01*
X113662377Y-75674454D01*
X113662374Y-75674452D01*
X113662373Y-75674451D01*
X113555830Y-75620164D01*
X113437722Y-75601459D01*
X113432691Y-75601459D01*
X113376190Y-75580894D01*
X113353027Y-75550708D01*
X113328720Y-75498580D01*
X113302326Y-75460885D01*
X112382159Y-74540718D01*
X112377974Y-74536713D01*
X112377965Y-74536704D01*
X112375415Y-74534368D01*
X112372320Y-74531533D01*
X112372317Y-74531531D01*
X112368832Y-74529416D01*
X112331199Y-74482523D01*
X112332513Y-74422410D01*
X112372159Y-74377205D01*
X112374477Y-74375978D01*
X112463977Y-74330376D01*
X112548533Y-74245820D01*
X112602822Y-74139273D01*
X112621528Y-74021165D01*
X112602822Y-73903057D01*
X112602822Y-73903056D01*
X112548535Y-73796513D01*
X112548534Y-73796512D01*
X112548533Y-73796510D01*
X112463977Y-73711954D01*
X112463974Y-73711952D01*
X112463973Y-73711951D01*
X112357430Y-73657664D01*
X112239322Y-73638959D01*
X112121214Y-73657664D01*
X112121213Y-73657664D01*
X112014670Y-73711951D01*
X111930108Y-73796513D01*
X111875821Y-73903056D01*
X111875821Y-73903057D01*
X111857116Y-74021165D01*
X111875821Y-74139272D01*
X111875821Y-74139273D01*
X111930108Y-74245816D01*
X111930109Y-74245817D01*
X111930111Y-74245820D01*
X112010402Y-74326111D01*
X112035813Y-74380604D01*
X112020250Y-74438682D01*
X111970997Y-74473170D01*
X111948247Y-74476165D01*
X109104016Y-74476165D01*
X109047515Y-74455600D01*
X109041862Y-74450420D01*
X108887767Y-74296326D01*
X108862356Y-74241832D01*
X108871602Y-74194265D01*
X108899622Y-74139273D01*
X108899622Y-74139272D01*
X108918328Y-74021165D01*
X108899622Y-73903057D01*
X108899622Y-73903056D01*
X108845335Y-73796513D01*
X108845334Y-73796512D01*
X108845333Y-73796510D01*
X108760777Y-73711954D01*
X108760774Y-73711952D01*
X108760773Y-73711951D01*
X108654230Y-73657664D01*
X108536122Y-73638959D01*
X108418014Y-73657664D01*
X108363021Y-73685685D01*
X108303342Y-73693012D01*
X108260961Y-73669520D01*
X105263147Y-70671706D01*
X105258964Y-70667703D01*
X105253320Y-70662533D01*
X105253319Y-70662532D01*
X105209130Y-70635720D01*
X105152629Y-70615155D01*
X105107311Y-70607164D01*
X83455311Y-70607164D01*
X83451732Y-70607212D01*
X83447027Y-70607338D01*
X83398662Y-70617892D01*
X83398656Y-70617894D01*
X83343336Y-70641464D01*
X83343324Y-70641470D01*
X83328335Y-70649012D01*
X83328330Y-70649016D01*
X83277138Y-70703362D01*
X83249913Y-70756971D01*
X83236517Y-70800996D01*
X83236517Y-70800999D01*
X83230762Y-70848398D01*
X83225691Y-70868973D01*
X83190633Y-70961413D01*
X83180785Y-70980176D01*
X83124626Y-71061535D01*
X83110575Y-71077395D01*
X83036576Y-71142954D01*
X83019135Y-71154993D01*
X82931598Y-71200935D01*
X82911787Y-71208449D01*
X82863791Y-71220279D01*
X82815793Y-71232110D01*
X82794759Y-71234664D01*
X82695901Y-71234664D01*
X82674866Y-71232110D01*
X82578871Y-71208449D01*
X82559060Y-71200935D01*
X82471523Y-71154993D01*
X82454084Y-71142956D01*
X82380081Y-71077395D01*
X82366031Y-71061535D01*
X82351342Y-71040255D01*
X82309871Y-70980173D01*
X82300024Y-70961412D01*
X82269412Y-70880694D01*
X82269412Y-70880693D01*
X82269410Y-70880689D01*
X82264967Y-70868972D01*
X82259897Y-70848400D01*
X82254142Y-70801006D01*
X82254141Y-70800996D01*
X82254139Y-70800979D01*
X82253666Y-70797479D01*
X82252975Y-70792828D01*
X82236662Y-70746049D01*
X82206598Y-70693978D01*
X82197289Y-70679986D01*
X82144978Y-70641470D01*
X82137167Y-70635719D01*
X82080671Y-70615156D01*
X82080668Y-70615155D01*
X82080667Y-70615155D01*
X82035349Y-70607164D01*
X80672740Y-70607164D01*
X80672465Y-70607170D01*
X80666949Y-70607290D01*
X80659313Y-70607623D01*
X80659308Y-70607624D01*
X80617331Y-70617894D01*
X80609074Y-70619914D01*
X80554595Y-70645318D01*
X80554591Y-70645321D01*
X80554588Y-70645322D01*
X80554588Y-70645323D01*
X80549314Y-70649016D01*
X80516891Y-70671718D01*
X80202372Y-70986237D01*
X80198369Y-70990420D01*
X80193199Y-70996064D01*
X80166386Y-71040255D01*
X80152868Y-71077396D01*
X80145821Y-71096756D01*
X80137830Y-71142074D01*
X80137830Y-71142077D01*
X80137830Y-75567264D01*
X80117265Y-75623765D01*
X80065194Y-75653829D01*
X80049930Y-75655164D01*
X72695328Y-75655164D01*
X72638827Y-75634599D01*
X72608763Y-75582528D01*
X72607428Y-75567264D01*
X72607428Y-70005664D01*
X113694124Y-70005664D01*
X113712829Y-70123771D01*
X113712829Y-70123772D01*
X113767116Y-70230315D01*
X113767117Y-70230316D01*
X113767119Y-70230319D01*
X113851675Y-70314875D01*
X113851677Y-70314876D01*
X113851678Y-70314877D01*
X113958221Y-70369164D01*
X113974369Y-70371721D01*
X114076330Y-70387870D01*
X114194438Y-70369164D01*
X114300985Y-70314875D01*
X114385541Y-70230319D01*
X114439830Y-70123772D01*
X114458536Y-70005664D01*
X114439830Y-69887556D01*
X114439830Y-69887555D01*
X114398104Y-69805664D01*
X115694124Y-69805664D01*
X115712829Y-69923771D01*
X115712829Y-69923772D01*
X115767116Y-70030315D01*
X115767117Y-70030316D01*
X115767119Y-70030319D01*
X115851675Y-70114875D01*
X115851677Y-70114876D01*
X115851678Y-70114877D01*
X115958221Y-70169164D01*
X115974369Y-70171721D01*
X116076330Y-70187870D01*
X116194438Y-70169164D01*
X116300985Y-70114875D01*
X116385541Y-70030319D01*
X116439830Y-69923772D01*
X116458536Y-69805664D01*
X117694124Y-69805664D01*
X117712829Y-69923771D01*
X117712829Y-69923772D01*
X117767116Y-70030315D01*
X117767117Y-70030316D01*
X117767119Y-70030319D01*
X117851675Y-70114875D01*
X117851677Y-70114876D01*
X117851678Y-70114877D01*
X117958221Y-70169164D01*
X117974369Y-70171721D01*
X118076330Y-70187870D01*
X118194438Y-70169164D01*
X118300985Y-70114875D01*
X118385541Y-70030319D01*
X118439830Y-69923772D01*
X118458536Y-69805664D01*
X119694124Y-69805664D01*
X119712829Y-69923771D01*
X119712829Y-69923772D01*
X119767116Y-70030315D01*
X119767117Y-70030316D01*
X119767119Y-70030319D01*
X119851675Y-70114875D01*
X119851677Y-70114876D01*
X119851678Y-70114877D01*
X119958221Y-70169164D01*
X119974369Y-70171721D01*
X120076330Y-70187870D01*
X120194438Y-70169164D01*
X120300985Y-70114875D01*
X120385541Y-70030319D01*
X120439830Y-69923772D01*
X120458536Y-69805664D01*
X120439830Y-69687556D01*
X120439830Y-69687555D01*
X120385543Y-69581012D01*
X120385542Y-69581011D01*
X120385541Y-69581009D01*
X120300985Y-69496453D01*
X120300982Y-69496451D01*
X120300981Y-69496450D01*
X120194438Y-69442163D01*
X120076330Y-69423458D01*
X119958222Y-69442163D01*
X119958221Y-69442163D01*
X119851678Y-69496450D01*
X119767116Y-69581012D01*
X119712829Y-69687555D01*
X119712829Y-69687556D01*
X119694124Y-69805664D01*
X118458536Y-69805664D01*
X118439830Y-69687556D01*
X118439830Y-69687555D01*
X118385543Y-69581012D01*
X118385542Y-69581011D01*
X118385541Y-69581009D01*
X118300985Y-69496453D01*
X118300982Y-69496451D01*
X118300981Y-69496450D01*
X118194438Y-69442163D01*
X118076330Y-69423458D01*
X117958222Y-69442163D01*
X117958221Y-69442163D01*
X117851678Y-69496450D01*
X117767116Y-69581012D01*
X117712829Y-69687555D01*
X117712829Y-69687556D01*
X117694124Y-69805664D01*
X116458536Y-69805664D01*
X116439830Y-69687556D01*
X116439830Y-69687555D01*
X116385543Y-69581012D01*
X116385542Y-69581011D01*
X116385541Y-69581009D01*
X116300985Y-69496453D01*
X116300982Y-69496451D01*
X116300981Y-69496450D01*
X116194438Y-69442163D01*
X116076330Y-69423458D01*
X115958222Y-69442163D01*
X115958221Y-69442163D01*
X115851678Y-69496450D01*
X115767116Y-69581012D01*
X115712829Y-69687555D01*
X115712829Y-69687556D01*
X115694124Y-69805664D01*
X114398104Y-69805664D01*
X114385543Y-69781012D01*
X114385542Y-69781011D01*
X114385541Y-69781009D01*
X114300985Y-69696453D01*
X114300982Y-69696451D01*
X114300981Y-69696450D01*
X114194438Y-69642163D01*
X114076330Y-69623458D01*
X113958222Y-69642163D01*
X113958221Y-69642163D01*
X113851678Y-69696450D01*
X113767116Y-69781012D01*
X113712829Y-69887555D01*
X113712829Y-69887556D01*
X113694124Y-70005664D01*
X72607428Y-70005664D01*
X72607428Y-69075998D01*
X72607699Y-69069098D01*
X72610569Y-69032648D01*
X72622572Y-68880221D01*
X72624728Y-68866616D01*
X72668152Y-68685764D01*
X72672413Y-68672654D01*
X72743590Y-68500827D01*
X72749847Y-68488548D01*
X72847030Y-68329960D01*
X72855125Y-68318818D01*
X72975924Y-68177379D01*
X72985658Y-68167645D01*
X73127087Y-68046850D01*
X73138242Y-68038745D01*
X73296822Y-67941560D01*
X73309105Y-67935302D01*
X73337977Y-67923341D01*
X73480936Y-67864118D01*
X73494032Y-67859862D01*
X73674883Y-67816434D01*
X73688498Y-67814276D01*
X73809028Y-67804782D01*
X73876912Y-67799435D01*
X73883814Y-67799164D01*
X123929589Y-67799164D01*
X123936488Y-67799434D01*
G37*
%TD.AperFunction*%
%TD*%
%TA.AperFunction,Conductor*%
%TO.N,GND*%
G36*
X112282813Y-74629230D02*
G01*
X112288467Y-74634410D01*
X113208634Y-75554577D01*
X113234045Y-75609071D01*
X113218482Y-75667149D01*
X113208634Y-75678886D01*
X113128511Y-75759009D01*
X113128508Y-75759013D01*
X113074221Y-75865556D01*
X113074221Y-75865557D01*
X113055516Y-75983665D01*
X113074221Y-76101772D01*
X113074221Y-76101773D01*
X113128508Y-76208316D01*
X113128509Y-76208317D01*
X113128511Y-76208320D01*
X113213067Y-76292876D01*
X113213069Y-76292877D01*
X113213070Y-76292878D01*
X113319613Y-76347165D01*
X113335761Y-76349722D01*
X113437722Y-76365871D01*
X113555830Y-76347165D01*
X113662377Y-76292876D01*
X113742500Y-76212752D01*
X113796992Y-76187342D01*
X113855071Y-76202903D01*
X113866809Y-76212752D01*
X116030097Y-78376040D01*
X116026947Y-78380376D01*
X115989249Y-78422245D01*
X115989245Y-78422249D01*
X115895755Y-78584179D01*
X115895754Y-78584181D01*
X115837974Y-78762010D01*
X115837973Y-78762015D01*
X115818430Y-78947959D01*
X115818430Y-78947968D01*
X115837973Y-79133912D01*
X115837974Y-79133917D01*
X115849965Y-79170820D01*
X115895755Y-79311749D01*
X115989245Y-79473679D01*
X115989247Y-79473681D01*
X115989248Y-79473682D01*
X116109722Y-79607482D01*
X116109722Y-81445664D01*
X114996256Y-82559127D01*
X114996189Y-82558272D01*
X114975708Y-82472964D01*
X114940061Y-82324480D01*
X114873485Y-82163753D01*
X114848051Y-82102349D01*
X114722424Y-81897346D01*
X114685192Y-81853753D01*
X114566279Y-81714523D01*
X114566270Y-81714514D01*
X114383452Y-81558373D01*
X114383450Y-81558371D01*
X114383448Y-81558370D01*
X114178445Y-81432743D01*
X114178439Y-81432740D01*
X114178436Y-81432739D01*
X113956313Y-81340732D01*
X113722527Y-81284605D01*
X113482830Y-81265741D01*
X113243132Y-81284605D01*
X113009346Y-81340732D01*
X112787223Y-81432739D01*
X112787211Y-81432745D01*
X112582207Y-81558373D01*
X112399389Y-81714514D01*
X112399380Y-81714523D01*
X112243238Y-81897343D01*
X112228603Y-81921223D01*
X112181545Y-81958650D01*
X112121438Y-81957073D01*
X112091503Y-81937446D01*
X112073189Y-81919132D01*
X112047778Y-81864638D01*
X112048525Y-81843233D01*
X112051736Y-81822964D01*
X112033030Y-81704856D01*
X112033030Y-81704855D01*
X111978743Y-81598312D01*
X111978742Y-81598311D01*
X111978741Y-81598309D01*
X111894185Y-81513753D01*
X111894182Y-81513751D01*
X111894181Y-81513750D01*
X111787638Y-81459463D01*
X111669530Y-81440758D01*
X111669528Y-81440758D01*
X111649264Y-81443967D01*
X111590242Y-81432493D01*
X111573361Y-81419304D01*
X111183722Y-81029665D01*
X109849384Y-79695327D01*
X109100222Y-78946165D01*
X112253015Y-78946165D01*
X112271720Y-79064272D01*
X112271720Y-79064273D01*
X112326007Y-79170816D01*
X112326008Y-79170817D01*
X112326010Y-79170820D01*
X112410566Y-79255376D01*
X112410568Y-79255377D01*
X112410569Y-79255378D01*
X112517112Y-79309665D01*
X112635221Y-79328371D01*
X112635223Y-79328371D01*
X112646275Y-79326620D01*
X112656642Y-79324978D01*
X112715665Y-79336449D01*
X112753505Y-79383176D01*
X112757213Y-79398045D01*
X112762468Y-79431229D01*
X112762468Y-79431230D01*
X112816755Y-79537773D01*
X112816756Y-79537774D01*
X112816758Y-79537777D01*
X112901314Y-79622333D01*
X112901316Y-79622334D01*
X112901317Y-79622335D01*
X113007860Y-79676622D01*
X113024008Y-79679179D01*
X113125969Y-79695328D01*
X113244077Y-79676622D01*
X113350624Y-79622333D01*
X113435180Y-79537777D01*
X113489469Y-79431230D01*
X113508175Y-79313122D01*
X113489469Y-79195014D01*
X113489469Y-79195013D01*
X113435182Y-79088470D01*
X113435181Y-79088469D01*
X113435180Y-79088467D01*
X113350624Y-79003911D01*
X113350621Y-79003909D01*
X113350620Y-79003908D01*
X113244077Y-78949621D01*
X113233583Y-78947959D01*
X113818430Y-78947959D01*
X113818430Y-78947968D01*
X113837973Y-79133912D01*
X113837974Y-79133917D01*
X113849965Y-79170820D01*
X113895755Y-79311749D01*
X113989245Y-79473679D01*
X114114360Y-79612633D01*
X114265630Y-79722537D01*
X114436445Y-79798589D01*
X114582761Y-79829689D01*
X114619339Y-79837464D01*
X114619340Y-79837464D01*
X114806321Y-79837464D01*
X114836802Y-79830984D01*
X114989215Y-79798589D01*
X115160030Y-79722537D01*
X115311300Y-79612633D01*
X115436415Y-79473679D01*
X115529905Y-79311749D01*
X115587685Y-79133920D01*
X115592462Y-79088470D01*
X115607230Y-78947968D01*
X115607230Y-78947959D01*
X115587686Y-78762015D01*
X115587685Y-78762010D01*
X115587685Y-78762008D01*
X115529905Y-78584179D01*
X115436415Y-78422249D01*
X115311300Y-78283295D01*
X115160030Y-78173391D01*
X115160029Y-78173390D01*
X115160027Y-78173389D01*
X115066947Y-78131947D01*
X114989215Y-78097339D01*
X114947514Y-78088475D01*
X114806321Y-78058464D01*
X114806320Y-78058464D01*
X114619340Y-78058464D01*
X114619339Y-78058464D01*
X114436449Y-78097338D01*
X114436447Y-78097338D01*
X114436445Y-78097339D01*
X114436443Y-78097340D01*
X114265632Y-78173389D01*
X114114359Y-78283295D01*
X113989248Y-78422245D01*
X113989247Y-78422246D01*
X113895755Y-78584179D01*
X113895754Y-78584181D01*
X113837974Y-78762010D01*
X113837973Y-78762015D01*
X113818430Y-78947959D01*
X113233583Y-78947959D01*
X113125969Y-78930916D01*
X113104543Y-78934309D01*
X113045521Y-78922835D01*
X113007682Y-78876107D01*
X113003976Y-78861239D01*
X112998721Y-78828058D01*
X112998721Y-78828056D01*
X112944434Y-78721513D01*
X112944433Y-78721512D01*
X112944432Y-78721510D01*
X112859876Y-78636954D01*
X112859873Y-78636952D01*
X112859872Y-78636951D01*
X112753329Y-78582664D01*
X112635221Y-78563959D01*
X112517113Y-78582664D01*
X112517112Y-78582664D01*
X112410569Y-78636951D01*
X112326007Y-78721513D01*
X112271720Y-78828056D01*
X112271720Y-78828057D01*
X112253015Y-78946165D01*
X109100222Y-78946165D01*
X108512722Y-78358665D01*
X108512722Y-77483665D01*
X113005515Y-77483665D01*
X113024220Y-77601772D01*
X113024220Y-77601773D01*
X113078507Y-77708316D01*
X113078508Y-77708317D01*
X113078510Y-77708320D01*
X113163066Y-77792876D01*
X113163068Y-77792877D01*
X113163069Y-77792878D01*
X113269612Y-77847165D01*
X113285760Y-77849722D01*
X113387721Y-77865871D01*
X113505829Y-77847165D01*
X113612376Y-77792876D01*
X113696932Y-77708320D01*
X113751221Y-77601773D01*
X113769927Y-77483665D01*
X113751221Y-77365557D01*
X113751221Y-77365556D01*
X113696934Y-77259013D01*
X113696933Y-77259012D01*
X113696932Y-77259010D01*
X113612376Y-77174454D01*
X113612373Y-77174452D01*
X113612372Y-77174451D01*
X113505829Y-77120164D01*
X113387721Y-77101459D01*
X113269613Y-77120164D01*
X113269612Y-77120164D01*
X113163069Y-77174451D01*
X113078507Y-77259013D01*
X113024220Y-77365556D01*
X113024220Y-77365557D01*
X113005515Y-77483665D01*
X108512722Y-77483665D01*
X108512722Y-74608665D01*
X109012722Y-74608665D01*
X112226312Y-74608665D01*
X112282813Y-74629230D01*
G37*
%TD.AperFunction*%
%TD*%
M02*
