%TF.GenerationSoftware,KiCad,Pcbnew,8.0.7*%
%TF.CreationDate,2024-12-18T08:38:47+08:00*%
%TF.ProjectId,SB-fan-board,53422d66-616e-42d6-926f-6172642e6b69,B0*%
%TF.SameCoordinates,Original*%
%TF.FileFunction,Paste,Top*%
%TF.FilePolarity,Positive*%
%FSLAX46Y46*%
G04 Gerber Fmt 4.6, Leading zero omitted, Abs format (unit mm)*
G04 Created by KiCad (PCBNEW 8.0.7) date 2024-12-18 08:38:47*
%MOMM*%
%LPD*%
G01*
G04 APERTURE LIST*
G04 Aperture macros list*
%AMRoundRect*
0 Rectangle with rounded corners*
0 $1 Rounding radius*
0 $2 $3 $4 $5 $6 $7 $8 $9 X,Y pos of 4 corners*
0 Add a 4 corners polygon primitive as box body*
4,1,4,$2,$3,$4,$5,$6,$7,$8,$9,$2,$3,0*
0 Add four circle primitives for the rounded corners*
1,1,$1+$1,$2,$3*
1,1,$1+$1,$4,$5*
1,1,$1+$1,$6,$7*
1,1,$1+$1,$8,$9*
0 Add four rect primitives between the rounded corners*
20,1,$1+$1,$2,$3,$4,$5,0*
20,1,$1+$1,$4,$5,$6,$7,0*
20,1,$1+$1,$6,$7,$8,$9,0*
20,1,$1+$1,$8,$9,$2,$3,0*%
G04 Aperture macros list end*
%ADD10RoundRect,0.200000X-0.200000X-0.275000X0.200000X-0.275000X0.200000X0.275000X-0.200000X0.275000X0*%
%ADD11R,1.100000X3.700000*%
%ADD12RoundRect,0.200000X-0.275000X0.200000X-0.275000X-0.200000X0.275000X-0.200000X0.275000X0.200000X0*%
%ADD13RoundRect,0.200000X0.200000X1.550000X-0.200000X1.550000X-0.200000X-1.550000X0.200000X-1.550000X0*%
%ADD14RoundRect,0.150000X0.150000X-0.512500X0.150000X0.512500X-0.150000X0.512500X-0.150000X-0.512500X0*%
%ADD15RoundRect,0.225000X-0.225000X-0.250000X0.225000X-0.250000X0.225000X0.250000X-0.225000X0.250000X0*%
%ADD16RoundRect,0.225000X0.225000X0.250000X-0.225000X0.250000X-0.225000X-0.250000X0.225000X-0.250000X0*%
%ADD17RoundRect,0.200000X0.200000X0.275000X-0.200000X0.275000X-0.200000X-0.275000X0.200000X-0.275000X0*%
%ADD18R,0.550000X1.600000*%
%ADD19RoundRect,0.225000X0.250000X-0.225000X0.250000X0.225000X-0.250000X0.225000X-0.250000X-0.225000X0*%
%ADD20RoundRect,0.200000X0.275000X-0.200000X0.275000X0.200000X-0.275000X0.200000X-0.275000X-0.200000X0*%
%ADD21RoundRect,0.250000X-0.475000X0.250000X-0.475000X-0.250000X0.475000X-0.250000X0.475000X0.250000X0*%
%ADD22RoundRect,0.200000X-0.200000X-1.550000X0.200000X-1.550000X0.200000X1.550000X-0.200000X1.550000X0*%
%ADD23R,2.000000X1.000000*%
%ADD24RoundRect,0.250000X0.250000X0.475000X-0.250000X0.475000X-0.250000X-0.475000X0.250000X-0.475000X0*%
%ADD25RoundRect,0.250000X-0.250000X-0.475000X0.250000X-0.475000X0.250000X0.475000X-0.250000X0.475000X0*%
%ADD26RoundRect,0.250000X0.475000X-0.250000X0.475000X0.250000X-0.475000X0.250000X-0.475000X-0.250000X0*%
%ADD27RoundRect,0.225000X-0.250000X0.225000X-0.250000X-0.225000X0.250000X-0.225000X0.250000X0.225000X0*%
%ADD28R,2.600000X3.100000*%
%ADD29R,1.550000X0.600000*%
G04 APERTURE END LIST*
D10*
%TO.C,R2*%
X165115000Y-78840000D03*
X166765000Y-78840000D03*
%TD*%
D11*
%TO.C,L1*%
X163740000Y-75860000D03*
X166740000Y-75860000D03*
%TD*%
D12*
%TO.C,R3*%
X163680000Y-78775000D03*
X163680000Y-80425000D03*
%TD*%
D13*
%TO.C,J2*%
X168600000Y-86147127D03*
X166600000Y-86147127D03*
X164600000Y-86147127D03*
X162600000Y-86147127D03*
%TD*%
D14*
%TO.C,U2*%
X155080001Y-83307500D03*
X156030000Y-83307500D03*
X156979999Y-83307500D03*
X156979999Y-81032500D03*
X156030000Y-81032500D03*
X155080001Y-81032500D03*
%TD*%
D15*
%TO.C,C1*%
X161640000Y-72860000D03*
X163190000Y-72860000D03*
%TD*%
D16*
%TO.C,C6*%
X153625000Y-80850000D03*
X152075000Y-80850000D03*
%TD*%
D10*
%TO.C,R1*%
X153125000Y-77750000D03*
X154775000Y-77750000D03*
%TD*%
%TO.C,R6*%
X158415000Y-79900000D03*
X160065000Y-79900000D03*
%TD*%
D13*
%TO.C,J3*%
X158600000Y-86126727D03*
X156600000Y-86126727D03*
X154600000Y-86126727D03*
%TD*%
D17*
%TO.C,R5*%
X154765000Y-79360000D03*
X153115000Y-79360000D03*
%TD*%
D18*
%TO.C,L2*%
X153804999Y-83150000D03*
X152355001Y-83150000D03*
%TD*%
D19*
%TO.C,C8*%
X159960000Y-83515000D03*
X159960000Y-81965000D03*
%TD*%
D20*
%TO.C,R4*%
X158470000Y-83570000D03*
X158470000Y-81920000D03*
%TD*%
D21*
%TO.C,C9*%
X152810000Y-85000001D03*
X152810000Y-86899999D03*
%TD*%
D22*
%TO.C,J1*%
X169750000Y-80139600D03*
X171750000Y-80139600D03*
X173750000Y-80139600D03*
X175750000Y-80139600D03*
%TD*%
D23*
%TO.C,J4*%
X144041000Y-86929000D03*
X148641000Y-86929000D03*
X144041000Y-84929000D03*
X148641000Y-84929000D03*
X144041000Y-82929000D03*
X148641000Y-82929000D03*
X144041000Y-80929000D03*
X148641000Y-80929000D03*
X144041000Y-78929000D03*
X148641000Y-78929000D03*
X144041000Y-76929000D03*
X148641000Y-76929000D03*
%TD*%
D24*
%TO.C,C4*%
X167100000Y-80570000D03*
X165200002Y-80570000D03*
%TD*%
D25*
%TO.C,C7*%
X161440001Y-83230000D03*
X163339999Y-83230000D03*
%TD*%
D26*
%TO.C,C2*%
X152970000Y-76270000D03*
X152970000Y-74370000D03*
%TD*%
D27*
%TO.C,C5*%
X162200000Y-79835000D03*
X162200000Y-81385000D03*
%TD*%
D19*
%TO.C,C3*%
X154690000Y-75870000D03*
X154690000Y-74320000D03*
%TD*%
D28*
%TO.C,U1*%
X159190000Y-76365000D03*
D29*
X156490000Y-74460000D03*
X156490000Y-75730000D03*
X156490000Y-77000000D03*
X156490000Y-78270000D03*
X161890000Y-78270000D03*
X161890000Y-77000000D03*
X161890000Y-75730000D03*
X161890000Y-74460000D03*
%TD*%
M02*
