%TF.GenerationSoftware,KiCad,Pcbnew,8.0.1*%
%TF.CreationDate,2024-06-02T11:28:52+08:00*%
%TF.ProjectId,SB-fan-board,53422d66-616e-42d6-926f-6172642e6b69,rev?*%
%TF.SameCoordinates,Original*%
%TF.FileFunction,Paste,Top*%
%TF.FilePolarity,Positive*%
%FSLAX46Y46*%
G04 Gerber Fmt 4.6, Leading zero omitted, Abs format (unit mm)*
G04 Created by KiCad (PCBNEW 8.0.1) date 2024-06-02 11:28:52*
%MOMM*%
%LPD*%
G01*
G04 APERTURE LIST*
G04 Aperture macros list*
%AMRoundRect*
0 Rectangle with rounded corners*
0 $1 Rounding radius*
0 $2 $3 $4 $5 $6 $7 $8 $9 X,Y pos of 4 corners*
0 Add a 4 corners polygon primitive as box body*
4,1,4,$2,$3,$4,$5,$6,$7,$8,$9,$2,$3,0*
0 Add four circle primitives for the rounded corners*
1,1,$1+$1,$2,$3*
1,1,$1+$1,$4,$5*
1,1,$1+$1,$6,$7*
1,1,$1+$1,$8,$9*
0 Add four rect primitives between the rounded corners*
20,1,$1+$1,$2,$3,$4,$5,0*
20,1,$1+$1,$4,$5,$6,$7,0*
20,1,$1+$1,$6,$7,$8,$9,0*
20,1,$1+$1,$8,$9,$2,$3,0*%
G04 Aperture macros list end*
%ADD10RoundRect,0.200000X-0.200000X-0.275000X0.200000X-0.275000X0.200000X0.275000X-0.200000X0.275000X0*%
%ADD11R,1.100000X3.700000*%
%ADD12RoundRect,0.200000X-0.275000X0.200000X-0.275000X-0.200000X0.275000X-0.200000X0.275000X0.200000X0*%
%ADD13RoundRect,0.200000X0.200000X1.550000X-0.200000X1.550000X-0.200000X-1.550000X0.200000X-1.550000X0*%
%ADD14RoundRect,0.225000X-0.225000X-0.250000X0.225000X-0.250000X0.225000X0.250000X-0.225000X0.250000X0*%
%ADD15RoundRect,0.200000X0.275000X-0.200000X0.275000X0.200000X-0.275000X0.200000X-0.275000X-0.200000X0*%
%ADD16RoundRect,0.200000X-0.200000X-1.550000X0.200000X-1.550000X0.200000X1.550000X-0.200000X1.550000X0*%
%ADD17R,2.000000X1.000000*%
%ADD18RoundRect,0.250000X0.475000X-0.250000X0.475000X0.250000X-0.475000X0.250000X-0.475000X-0.250000X0*%
%ADD19RoundRect,0.250000X-0.250000X-0.475000X0.250000X-0.475000X0.250000X0.475000X-0.250000X0.475000X0*%
%ADD20RoundRect,0.150000X-0.150000X0.512500X-0.150000X-0.512500X0.150000X-0.512500X0.150000X0.512500X0*%
G04 APERTURE END LIST*
D10*
%TO.C,R2*%
X156750000Y-80800000D03*
X158400000Y-80800000D03*
%TD*%
D11*
%TO.C,L1*%
X158650000Y-76212500D03*
X161650000Y-76212500D03*
%TD*%
D12*
%TO.C,R3*%
X154900001Y-79225000D03*
X154900001Y-80875000D03*
%TD*%
D13*
%TO.C,J2*%
X168600000Y-86147127D03*
X166600000Y-86147127D03*
X164600000Y-86147127D03*
X162600000Y-86147127D03*
%TD*%
D14*
%TO.C,C1*%
X156800000Y-79300000D03*
X158350000Y-79300000D03*
%TD*%
D15*
%TO.C,R1*%
X153100000Y-78350000D03*
X153100000Y-76700000D03*
%TD*%
D13*
%TO.C,J3*%
X158600000Y-86126727D03*
X156600000Y-86126727D03*
X154600000Y-86126727D03*
%TD*%
D16*
%TO.C,J1*%
X169750000Y-80139600D03*
X171750000Y-80139600D03*
X173750000Y-80139600D03*
X175750000Y-80139600D03*
%TD*%
D17*
%TO.C,J4*%
X144041000Y-86929000D03*
X148641000Y-86929000D03*
X144041000Y-84929000D03*
X148641000Y-84929000D03*
X144041000Y-82929000D03*
X148641000Y-82929000D03*
X144041000Y-80929000D03*
X148641000Y-80929000D03*
X144041000Y-78929000D03*
X148641000Y-78929000D03*
X144041000Y-76929000D03*
X148641000Y-76929000D03*
%TD*%
D14*
%TO.C,C4*%
X156800000Y-82300000D03*
X158350000Y-82300000D03*
%TD*%
D18*
%TO.C,C2*%
X153000000Y-75250001D03*
X153000000Y-73350001D03*
%TD*%
D19*
%TO.C,C3*%
X160350000Y-80800000D03*
X162250000Y-80800000D03*
%TD*%
D20*
%TO.C,U1*%
X156800000Y-75075000D03*
X155850000Y-75075000D03*
X154900000Y-75075000D03*
X154900000Y-77350000D03*
X155850000Y-77350000D03*
X156800000Y-77350000D03*
%TD*%
M02*
