M48
; DRILL file {KiCad 8.0.7} date 2024-12-31T14:53:47+0800
; FORMAT={-:-/ absolute / metric / decimal}
; #@! TF.CreationDate,2024-12-31T14:53:47+08:00
; #@! TF.GenerationSoftware,Kicad,Pcbnew,8.0.7
; #@! TF.FileFunction,Plated,1,2,PTH
FMAT,2
METRIC
; #@! TA.AperFunction,Plated,PTH,ViaDrill
T1C0.300
; #@! TA.AperFunction,Plated,PTH,ComponentDrill
T2C3.200
%
G90
G05
T1
X144.11Y-79.91
X145.159Y-84.929
X145.159Y-86.929
X145.74Y-81.44
X146.29Y-78.22
X146.39Y-79.68
X146.68Y-83.08
X148.66Y-77.85
X148.76Y-79.88
X149.759Y-82.929
X149.759Y-84.929
X149.759Y-86.909
X151.09Y-85.09
X151.16Y-77.85
X151.26Y-74.16
X151.83Y-75.11
X151.95Y-88.2
X153.67Y-85.0
X154.63Y-84.16
X156.6Y-87.6
X156.69Y-73.52
X158.428Y-74.079
X158.428Y-75.603
X158.428Y-77.127
X158.428Y-78.651
X158.6Y-84.65
X159.19Y-74.841
X159.19Y-76.365
X159.19Y-77.889
X159.22Y-80.97
X159.34Y-80.1
X159.952Y-74.079
X159.952Y-75.603
X159.952Y-77.127
X159.952Y-78.651
X160.41Y-86.94
X161.05Y-80.96
X161.07Y-85.3
X162.52Y-83.65
X163.8Y-81.41
X164.32Y-79.58
X164.6Y-87.62
X165.75Y-83.37
X165.9Y-79.64
X166.6Y-87.62
X167.67Y-82.67
X168.42Y-79.71
X171.75Y-78.666
X173.75Y-78.666
X174.83Y-80.21
T2
X145.2Y-71.2
X190.78Y-100.258
M30
