%TF.GenerationSoftware,KiCad,Pcbnew,8.0.7*%
%TF.CreationDate,2024-12-18T08:38:47+08:00*%
%TF.ProjectId,SB-fan-board,53422d66-616e-42d6-926f-6172642e6b69,B0*%
%TF.SameCoordinates,Original*%
%TF.FileFunction,Legend,Top*%
%TF.FilePolarity,Positive*%
%FSLAX46Y46*%
G04 Gerber Fmt 4.6, Leading zero omitted, Abs format (unit mm)*
G04 Created by KiCad (PCBNEW 8.0.7) date 2024-12-18 08:38:47*
%MOMM*%
%LPD*%
G01*
G04 APERTURE LIST*
%ADD10C,0.150000*%
%ADD11C,0.100000*%
%ADD12C,0.120000*%
%ADD13C,0.000000*%
%ADD14C,0.020000*%
G04 APERTURE END LIST*
D10*
X157600000Y-87600000D02*
X157345999Y-87346000D01*
X157854001Y-87346000D01*
X157600000Y-87600000D01*
G36*
X157600000Y-87600000D02*
G01*
X157345999Y-87346000D01*
X157854001Y-87346000D01*
X157600000Y-87600000D01*
G37*
X165600000Y-87620400D02*
X165345999Y-87366400D01*
X165854001Y-87366400D01*
X165600000Y-87620400D01*
G36*
X165600000Y-87620400D02*
G01*
X165345999Y-87366400D01*
X165854001Y-87366400D01*
X165600000Y-87620400D01*
G37*
X173004001Y-78920327D02*
X172495999Y-78920327D01*
X172750000Y-78666327D01*
X173004001Y-78920327D01*
G36*
X173004001Y-78920327D02*
G01*
X172495999Y-78920327D01*
X172750000Y-78666327D01*
X173004001Y-78920327D01*
G37*
D11*
X157327628Y-85496069D02*
X157927628Y-85496069D01*
X157927628Y-85496069D02*
X157327628Y-85838926D01*
X157327628Y-85838926D02*
X157927628Y-85838926D01*
X157641914Y-86124640D02*
X157641914Y-86324640D01*
X157327628Y-86410354D02*
X157327628Y-86124640D01*
X157327628Y-86124640D02*
X157927628Y-86124640D01*
X157927628Y-86124640D02*
X157927628Y-86410354D01*
X157927628Y-86781782D02*
X157927628Y-86896068D01*
X157927628Y-86896068D02*
X157899057Y-86953211D01*
X157899057Y-86953211D02*
X157841914Y-87010354D01*
X157841914Y-87010354D02*
X157727628Y-87038925D01*
X157727628Y-87038925D02*
X157527628Y-87038925D01*
X157527628Y-87038925D02*
X157413342Y-87010354D01*
X157413342Y-87010354D02*
X157356200Y-86953211D01*
X157356200Y-86953211D02*
X157327628Y-86896068D01*
X157327628Y-86896068D02*
X157327628Y-86781782D01*
X157327628Y-86781782D02*
X157356200Y-86724640D01*
X157356200Y-86724640D02*
X157413342Y-86667497D01*
X157413342Y-86667497D02*
X157527628Y-86638925D01*
X157527628Y-86638925D02*
X157727628Y-86638925D01*
X157727628Y-86638925D02*
X157841914Y-86667497D01*
X157841914Y-86667497D02*
X157899057Y-86724640D01*
X157899057Y-86724640D02*
X157927628Y-86781782D01*
X172791914Y-79455973D02*
X172791914Y-79255973D01*
X172477628Y-79255973D02*
X173077628Y-79255973D01*
X173077628Y-79255973D02*
X173077628Y-79541687D01*
X172649057Y-79741687D02*
X172649057Y-80027402D01*
X172477628Y-79684544D02*
X173077628Y-79884544D01*
X173077628Y-79884544D02*
X172477628Y-80084544D01*
X172477628Y-80284545D02*
X173077628Y-80284545D01*
X173077628Y-80284545D02*
X172477628Y-80627402D01*
X172477628Y-80627402D02*
X173077628Y-80627402D01*
X172477628Y-81227401D02*
X172477628Y-80884544D01*
X172477628Y-81055973D02*
X173077628Y-81055973D01*
X173077628Y-81055973D02*
X172991914Y-80998830D01*
X172991914Y-80998830D02*
X172934771Y-80941687D01*
X172934771Y-80941687D02*
X172906200Y-80884544D01*
X165641914Y-85287896D02*
X165641914Y-85087896D01*
X165327628Y-85087896D02*
X165927628Y-85087896D01*
X165927628Y-85087896D02*
X165927628Y-85373610D01*
X165499057Y-85573610D02*
X165499057Y-85859325D01*
X165327628Y-85516467D02*
X165927628Y-85716467D01*
X165927628Y-85716467D02*
X165327628Y-85916467D01*
X165327628Y-86116468D02*
X165927628Y-86116468D01*
X165927628Y-86116468D02*
X165327628Y-86459325D01*
X165327628Y-86459325D02*
X165927628Y-86459325D01*
X165927628Y-86859324D02*
X165927628Y-86916467D01*
X165927628Y-86916467D02*
X165899057Y-86973610D01*
X165899057Y-86973610D02*
X165870485Y-87002182D01*
X165870485Y-87002182D02*
X165813342Y-87030753D01*
X165813342Y-87030753D02*
X165699057Y-87059324D01*
X165699057Y-87059324D02*
X165556200Y-87059324D01*
X165556200Y-87059324D02*
X165441914Y-87030753D01*
X165441914Y-87030753D02*
X165384771Y-87002182D01*
X165384771Y-87002182D02*
X165356200Y-86973610D01*
X165356200Y-86973610D02*
X165327628Y-86916467D01*
X165327628Y-86916467D02*
X165327628Y-86859324D01*
X165327628Y-86859324D02*
X165356200Y-86802182D01*
X165356200Y-86802182D02*
X165384771Y-86773610D01*
X165384771Y-86773610D02*
X165441914Y-86745039D01*
X165441914Y-86745039D02*
X165556200Y-86716467D01*
X165556200Y-86716467D02*
X165699057Y-86716467D01*
X165699057Y-86716467D02*
X165813342Y-86745039D01*
X165813342Y-86745039D02*
X165870485Y-86773610D01*
X165870485Y-86773610D02*
X165899057Y-86802182D01*
X165899057Y-86802182D02*
X165927628Y-86859324D01*
D10*
X178185713Y-90314580D02*
X178138094Y-90362200D01*
X178138094Y-90362200D02*
X177995237Y-90409819D01*
X177995237Y-90409819D02*
X177899999Y-90409819D01*
X177899999Y-90409819D02*
X177757142Y-90362200D01*
X177757142Y-90362200D02*
X177661904Y-90266961D01*
X177661904Y-90266961D02*
X177614285Y-90171723D01*
X177614285Y-90171723D02*
X177566666Y-89981247D01*
X177566666Y-89981247D02*
X177566666Y-89838390D01*
X177566666Y-89838390D02*
X177614285Y-89647914D01*
X177614285Y-89647914D02*
X177661904Y-89552676D01*
X177661904Y-89552676D02*
X177757142Y-89457438D01*
X177757142Y-89457438D02*
X177899999Y-89409819D01*
X177899999Y-89409819D02*
X177995237Y-89409819D01*
X177995237Y-89409819D02*
X178138094Y-89457438D01*
X178138094Y-89457438D02*
X178185713Y-89505057D01*
X178614285Y-90409819D02*
X178614285Y-89409819D01*
X179042856Y-90409819D02*
X179042856Y-89886009D01*
X179042856Y-89886009D02*
X178995237Y-89790771D01*
X178995237Y-89790771D02*
X178899999Y-89743152D01*
X178899999Y-89743152D02*
X178757142Y-89743152D01*
X178757142Y-89743152D02*
X178661904Y-89790771D01*
X178661904Y-89790771D02*
X178614285Y-89838390D01*
X179947618Y-90409819D02*
X179947618Y-89886009D01*
X179947618Y-89886009D02*
X179899999Y-89790771D01*
X179899999Y-89790771D02*
X179804761Y-89743152D01*
X179804761Y-89743152D02*
X179614285Y-89743152D01*
X179614285Y-89743152D02*
X179519047Y-89790771D01*
X179947618Y-90362200D02*
X179852380Y-90409819D01*
X179852380Y-90409819D02*
X179614285Y-90409819D01*
X179614285Y-90409819D02*
X179519047Y-90362200D01*
X179519047Y-90362200D02*
X179471428Y-90266961D01*
X179471428Y-90266961D02*
X179471428Y-90171723D01*
X179471428Y-90171723D02*
X179519047Y-90076485D01*
X179519047Y-90076485D02*
X179614285Y-90028866D01*
X179614285Y-90028866D02*
X179852380Y-90028866D01*
X179852380Y-90028866D02*
X179947618Y-89981247D01*
X180423809Y-90409819D02*
X180423809Y-89743152D01*
X180423809Y-89933628D02*
X180471428Y-89838390D01*
X180471428Y-89838390D02*
X180519047Y-89790771D01*
X180519047Y-89790771D02*
X180614285Y-89743152D01*
X180614285Y-89743152D02*
X180709523Y-89743152D01*
X181185714Y-90409819D02*
X181090476Y-90362200D01*
X181090476Y-90362200D02*
X181042857Y-90266961D01*
X181042857Y-90266961D02*
X181042857Y-89409819D01*
X181566667Y-90409819D02*
X181566667Y-89743152D01*
X181566667Y-89409819D02*
X181519048Y-89457438D01*
X181519048Y-89457438D02*
X181566667Y-89505057D01*
X181566667Y-89505057D02*
X181614286Y-89457438D01*
X181614286Y-89457438D02*
X181566667Y-89409819D01*
X181566667Y-89409819D02*
X181566667Y-89505057D01*
X182423809Y-90362200D02*
X182328571Y-90409819D01*
X182328571Y-90409819D02*
X182138095Y-90409819D01*
X182138095Y-90409819D02*
X182042857Y-90362200D01*
X182042857Y-90362200D02*
X181995238Y-90266961D01*
X181995238Y-90266961D02*
X181995238Y-89886009D01*
X181995238Y-89886009D02*
X182042857Y-89790771D01*
X182042857Y-89790771D02*
X182138095Y-89743152D01*
X182138095Y-89743152D02*
X182328571Y-89743152D01*
X182328571Y-89743152D02*
X182423809Y-89790771D01*
X182423809Y-89790771D02*
X182471428Y-89886009D01*
X182471428Y-89886009D02*
X182471428Y-89981247D01*
X182471428Y-89981247D02*
X181995238Y-90076485D01*
X183090476Y-89933628D02*
X183090476Y-90409819D01*
X182757143Y-89409819D02*
X183090476Y-89933628D01*
X183090476Y-89933628D02*
X183423809Y-89409819D01*
X184185714Y-89743152D02*
X184185714Y-90409819D01*
X183757143Y-89743152D02*
X183757143Y-90266961D01*
X183757143Y-90266961D02*
X183804762Y-90362200D01*
X183804762Y-90362200D02*
X183900000Y-90409819D01*
X183900000Y-90409819D02*
X184042857Y-90409819D01*
X184042857Y-90409819D02*
X184138095Y-90362200D01*
X184138095Y-90362200D02*
X184185714Y-90314580D01*
D12*
%TO.C,R2*%
X165702742Y-78317500D02*
X166177258Y-78317500D01*
X165702742Y-79362500D02*
X166177258Y-79362500D01*
%TO.C,L1*%
X162980000Y-73600000D02*
X162980000Y-73750000D01*
X162980000Y-73600000D02*
X167500000Y-73600000D01*
X162980000Y-78120000D02*
X162980000Y-77970000D01*
X162980000Y-78120000D02*
X167500000Y-78120000D01*
X167500000Y-73600000D02*
X167500000Y-73750000D01*
X167500000Y-78120000D02*
X167500000Y-77970000D01*
%TO.C,R3*%
X163157500Y-79362742D02*
X163157500Y-79837258D01*
X164202500Y-79362742D02*
X164202500Y-79837258D01*
%TO.C,U2*%
X154469999Y-82170000D02*
X154470000Y-81370000D01*
X154469999Y-82170000D02*
X154470000Y-82970000D01*
X157590001Y-82170000D02*
X157590000Y-81370000D01*
X157590001Y-82170000D02*
X157590000Y-82970000D01*
X154520000Y-83470000D02*
X154190000Y-83710000D01*
X154190000Y-83230000D01*
X154520000Y-83470000D01*
G36*
X154520000Y-83470000D02*
G01*
X154190000Y-83710000D01*
X154190000Y-83230000D01*
X154520000Y-83470000D01*
G37*
%TO.C,C1*%
X162274420Y-72350000D02*
X162555580Y-72350000D01*
X162274420Y-73370000D02*
X162555580Y-73370000D01*
%TO.C,C6*%
X152990581Y-80340000D02*
X152709419Y-80340000D01*
X152990581Y-81360000D02*
X152709419Y-81360000D01*
%TO.C,R1*%
X153712742Y-77227500D02*
X154187258Y-77227500D01*
X153712742Y-78272500D02*
X154187258Y-78272500D01*
%TO.C,R6*%
X159002742Y-79377500D02*
X159477258Y-79377500D01*
X159002742Y-80422500D02*
X159477258Y-80422500D01*
%TO.C,R5*%
X154177258Y-78837500D02*
X153702742Y-78837500D01*
X154177258Y-79882500D02*
X153702742Y-79882500D01*
%TO.C,L2*%
X154340000Y-82090000D02*
X151820000Y-82090000D01*
X154340000Y-84210000D02*
X151820000Y-84210000D01*
D13*
%TO.C,REF\u002A\u002A*%
G36*
X183412767Y-81143552D02*
G01*
X183411358Y-81157353D01*
X183399538Y-81165840D01*
X183343182Y-81189495D01*
X183302516Y-81185072D01*
X183292815Y-81165840D01*
X183315827Y-81146609D01*
X183366187Y-81139568D01*
X183412767Y-81143552D01*
G37*
G36*
X183834308Y-81131873D02*
G01*
X183839769Y-81139159D01*
X183833720Y-81162001D01*
X183814663Y-81165840D01*
X183778158Y-81151910D01*
X183773067Y-81139159D01*
X183792216Y-81113242D01*
X183798173Y-81112479D01*
X183834308Y-81131873D01*
G37*
G36*
X184135393Y-85554020D02*
G01*
X184133256Y-85568151D01*
X184110435Y-85593576D01*
X184106575Y-85594832D01*
X184085363Y-85576223D01*
X184079895Y-85568151D01*
X184086231Y-85545547D01*
X184106575Y-85541470D01*
X184135393Y-85554020D01*
G37*
G36*
X184908315Y-85528847D02*
G01*
X184909322Y-85558599D01*
X184874964Y-85585415D01*
X184858093Y-85590118D01*
X184820015Y-85578625D01*
X184813613Y-85556767D01*
X184836057Y-85522129D01*
X184869198Y-85514790D01*
X184908315Y-85528847D01*
G37*
G36*
X185208321Y-85296041D02*
G01*
X185213823Y-85315471D01*
X185197417Y-85360257D01*
X185159647Y-85362658D01*
X185133538Y-85341072D01*
X185110817Y-85307729D01*
X185110504Y-85299303D01*
X185178356Y-85288782D01*
X185208321Y-85296041D01*
G37*
G36*
X183484292Y-85337767D02*
G01*
X183531293Y-85356799D01*
X183588024Y-85386567D01*
X183601489Y-85405678D01*
X183577501Y-85424425D01*
X183571314Y-85427695D01*
X183519416Y-85438387D01*
X183470098Y-85406404D01*
X183431982Y-85357408D01*
X183438251Y-85333282D01*
X183484292Y-85337767D01*
G37*
G36*
X184461761Y-85457094D02*
G01*
X184466765Y-85488109D01*
X184451132Y-85529953D01*
X184400063Y-85541470D01*
X184345548Y-85526879D01*
X184333361Y-85498595D01*
X184349766Y-85468300D01*
X184373382Y-85471077D01*
X184407738Y-85471631D01*
X184413403Y-85460591D01*
X184433732Y-85435493D01*
X184440084Y-85434748D01*
X184461761Y-85457094D01*
G37*
G36*
X184838284Y-85375405D02*
G01*
X184907603Y-85393706D01*
X184956783Y-85416461D01*
X184967059Y-85428174D01*
X184968499Y-85446912D01*
X184949756Y-85455267D01*
X184900448Y-85454076D01*
X184810190Y-85444173D01*
X184793603Y-85442128D01*
X184729050Y-85425156D01*
X184705865Y-85399170D01*
X184726901Y-85372494D01*
X184770744Y-85366641D01*
X184838284Y-85375405D01*
G37*
G36*
X183796793Y-85401560D02*
G01*
X183872476Y-85412124D01*
X183930732Y-85427178D01*
X183948970Y-85436805D01*
X183991953Y-85454340D01*
X184009229Y-85450538D01*
X184036241Y-85455934D01*
X184053877Y-85488709D01*
X184049136Y-85523003D01*
X184046929Y-85525522D01*
X184016411Y-85537375D01*
X183957802Y-85533006D01*
X183861671Y-85511372D01*
X183821087Y-85500534D01*
X183720307Y-85470110D01*
X183663199Y-85444648D01*
X183640897Y-85419784D01*
X183639664Y-85411232D01*
X183662938Y-85399671D01*
X183721131Y-85396928D01*
X183796793Y-85401560D01*
G37*
G36*
X183206665Y-85246756D02*
G01*
X183277096Y-85266138D01*
X183329769Y-85289195D01*
X183346176Y-85307444D01*
X183326421Y-85321954D01*
X183303185Y-85317237D01*
X183272528Y-85315235D01*
X183275339Y-85340208D01*
X183277161Y-85383552D01*
X183243248Y-85392743D01*
X183204972Y-85377551D01*
X183173586Y-85345988D01*
X183173765Y-85326385D01*
X183164941Y-85306459D01*
X183135880Y-85301344D01*
X183084935Y-85290292D01*
X183064729Y-85265923D01*
X183068553Y-85261323D01*
X183106050Y-85261323D01*
X183119391Y-85274664D01*
X183132731Y-85261323D01*
X183119391Y-85247983D01*
X183106050Y-85261323D01*
X183068553Y-85261323D01*
X183085097Y-85241422D01*
X183089727Y-85239479D01*
X183137776Y-85236165D01*
X183206665Y-85246756D01*
G37*
G36*
X183996260Y-79961142D02*
G01*
X184113496Y-79961970D01*
X184179947Y-79962262D01*
X184254590Y-79967749D01*
X184299932Y-79981442D01*
X184306680Y-79990572D01*
X184330162Y-80008940D01*
X184388034Y-80018276D01*
X184401817Y-80018571D01*
X184481215Y-80025981D01*
X184544254Y-80043952D01*
X184546941Y-80045324D01*
X184594626Y-80057555D01*
X184611916Y-80047829D01*
X184648544Y-80032944D01*
X184707889Y-80047697D01*
X184772860Y-80086192D01*
X184803490Y-80113945D01*
X184873936Y-80160664D01*
X184984159Y-80189092D01*
X185010265Y-80192719D01*
X185097352Y-80208855D01*
X185150088Y-80229571D01*
X185160462Y-80243400D01*
X185177227Y-80285627D01*
X185208500Y-80327038D01*
X185252674Y-80384939D01*
X185274365Y-80425451D01*
X185312554Y-80461726D01*
X185385358Y-80472143D01*
X185458381Y-80483267D01*
X185510393Y-80510324D01*
X185512929Y-80513090D01*
X185572843Y-80581574D01*
X185610167Y-80615070D01*
X185634408Y-80621221D01*
X185642865Y-80617557D01*
X185663915Y-80624853D01*
X185667395Y-80643992D01*
X185681334Y-80680497D01*
X185694093Y-80685588D01*
X185724933Y-80704129D01*
X185782075Y-80753823D01*
X185856558Y-80825773D01*
X185939422Y-80911083D01*
X186021704Y-81000857D01*
X186080364Y-81069039D01*
X186139912Y-81133602D01*
X186188334Y-81173445D01*
X186217852Y-81183841D01*
X186220686Y-81160060D01*
X186218157Y-81152802D01*
X186211020Y-81116410D01*
X186229661Y-81119174D01*
X186268248Y-81157258D01*
X186312692Y-81214986D01*
X186361202Y-81295379D01*
X186395782Y-81373739D01*
X186401728Y-81394511D01*
X186425174Y-81476015D01*
X186461120Y-81574981D01*
X186503221Y-81676625D01*
X186545132Y-81766162D01*
X186580508Y-81828808D01*
X186596131Y-81847474D01*
X186617664Y-81883570D01*
X186645300Y-81956833D01*
X186675929Y-82055102D01*
X186706441Y-82166216D01*
X186733725Y-82278015D01*
X186754673Y-82378337D01*
X186766173Y-82455021D01*
X186765115Y-82495906D01*
X186762744Y-82498983D01*
X186752416Y-82531094D01*
X186746484Y-82603897D01*
X186745713Y-82704846D01*
X186747168Y-82754024D01*
X186749042Y-82876722D01*
X186745529Y-82992538D01*
X186737388Y-83081386D01*
X186734071Y-83100189D01*
X186715237Y-83202563D01*
X186699928Y-83308595D01*
X186698945Y-83317089D01*
X186683779Y-83401913D01*
X186661939Y-83472119D01*
X186656879Y-83482763D01*
X186634898Y-83534427D01*
X186630698Y-83559350D01*
X186633585Y-83627212D01*
X186623576Y-83689167D01*
X186604703Y-83724725D01*
X186597678Y-83727185D01*
X186556950Y-83747468D01*
X186510084Y-83794507D01*
X186475309Y-83847586D01*
X186467815Y-83874744D01*
X186449151Y-83917540D01*
X186426580Y-83941638D01*
X186398460Y-83985059D01*
X186398791Y-84010901D01*
X186392267Y-84054415D01*
X186379619Y-84066658D01*
X186350906Y-84100355D01*
X186309627Y-84166687D01*
X186273531Y-84234117D01*
X186210942Y-84355765D01*
X186164784Y-84436659D01*
X186130085Y-84484928D01*
X186107626Y-84505257D01*
X186021227Y-84579349D01*
X185980627Y-84661498D01*
X185975143Y-84717996D01*
X185968419Y-84785783D01*
X185946823Y-84803649D01*
X185944560Y-84802916D01*
X185906580Y-84812488D01*
X185876938Y-84841668D01*
X185825068Y-84884816D01*
X185760777Y-84911420D01*
X185692287Y-84933461D01*
X185602709Y-84970081D01*
X185504360Y-85015185D01*
X185409555Y-85062679D01*
X185330610Y-85106469D01*
X185279838Y-85140461D01*
X185267643Y-85155446D01*
X185244095Y-85178338D01*
X185184674Y-85205759D01*
X185143346Y-85219537D01*
X185055306Y-85240097D01*
X184997763Y-85237744D01*
X184970283Y-85225362D01*
X184909512Y-85202611D01*
X184835188Y-85193925D01*
X184765215Y-85198672D01*
X184717497Y-85216221D01*
X184706891Y-85234643D01*
X184683042Y-85267263D01*
X184633519Y-85277759D01*
X184593162Y-85282951D01*
X184603178Y-85292047D01*
X184606838Y-85293055D01*
X184649559Y-85314336D01*
X184645834Y-85336729D01*
X184601627Y-85351313D01*
X184566817Y-85352903D01*
X184486462Y-85354448D01*
X184386076Y-85360422D01*
X184346701Y-85363781D01*
X184254778Y-85367083D01*
X184133644Y-85364254D01*
X184007018Y-85355938D01*
X183986512Y-85354011D01*
X183868683Y-85342707D01*
X183759599Y-85332834D01*
X183679080Y-85326175D01*
X183666344Y-85325261D01*
X183595812Y-85315868D01*
X183548738Y-85301436D01*
X183546281Y-85299878D01*
X183503770Y-85281369D01*
X183435231Y-85261382D01*
X183426218Y-85259240D01*
X183360993Y-85244091D01*
X183318756Y-85232285D01*
X183278442Y-85216217D01*
X183218988Y-85188281D01*
X183186092Y-85172541D01*
X183069684Y-85110795D01*
X182992459Y-85056470D01*
X182958270Y-85012896D01*
X182968825Y-84984708D01*
X182972147Y-84981176D01*
X183026008Y-84981176D01*
X183035770Y-85003137D01*
X183043795Y-84998963D01*
X183046988Y-84967300D01*
X183043795Y-84963389D01*
X183027934Y-84967052D01*
X183026008Y-84981176D01*
X182972147Y-84981176D01*
X182991649Y-84960441D01*
X182968825Y-84938036D01*
X182918902Y-84912407D01*
X182858564Y-84889034D01*
X182805821Y-84873616D01*
X185587353Y-84873616D01*
X185606910Y-84888296D01*
X185627374Y-84884102D01*
X185662479Y-84865164D01*
X185667395Y-84858259D01*
X185645608Y-84848932D01*
X185627374Y-84847773D01*
X185591861Y-84861736D01*
X185587353Y-84873616D01*
X182805821Y-84873616D01*
X182804764Y-84873307D01*
X182774452Y-84870616D01*
X182773445Y-84875915D01*
X182768322Y-84907249D01*
X182760629Y-84913592D01*
X182724688Y-84911067D01*
X182667873Y-84885469D01*
X182606182Y-84847160D01*
X182555615Y-84806502D01*
X182553319Y-84803305D01*
X183595196Y-84803305D01*
X183598858Y-84819167D01*
X183612983Y-84821092D01*
X183634944Y-84811330D01*
X183630770Y-84803305D01*
X183599106Y-84800112D01*
X183595196Y-84803305D01*
X182553319Y-84803305D01*
X182545061Y-84791806D01*
X185684503Y-84791806D01*
X185688849Y-84794412D01*
X185720115Y-84773111D01*
X185730493Y-84754160D01*
X185765155Y-84713043D01*
X185810448Y-84684516D01*
X185871626Y-84637884D01*
X185903528Y-84592415D01*
X185920180Y-84549074D01*
X185904958Y-84543503D01*
X185866449Y-84559619D01*
X185817999Y-84588348D01*
X185800798Y-84609882D01*
X185785061Y-84641479D01*
X185745877Y-84695071D01*
X185731725Y-84712322D01*
X185694761Y-84762909D01*
X185684503Y-84791806D01*
X182545061Y-84791806D01*
X182532172Y-84773858D01*
X182533275Y-84766340D01*
X182565307Y-84751964D01*
X182574280Y-84755530D01*
X182597536Y-84752154D01*
X182599117Y-84743564D01*
X182578347Y-84710172D01*
X182550010Y-84689965D01*
X182500055Y-84655550D01*
X182434817Y-84601440D01*
X182413785Y-84582304D01*
X182350396Y-84532299D01*
X182294922Y-84503603D01*
X182280263Y-84500924D01*
X182219883Y-84477938D01*
X182207033Y-84463908D01*
X182528247Y-84463908D01*
X182532416Y-84474243D01*
X182556391Y-84499696D01*
X182560671Y-84500924D01*
X182572131Y-84480282D01*
X182572437Y-84474243D01*
X182551926Y-84448588D01*
X182544181Y-84447563D01*
X182528247Y-84463908D01*
X182207033Y-84463908D01*
X182169048Y-84422435D01*
X182145691Y-84354594D01*
X182145546Y-84349305D01*
X182128119Y-84294178D01*
X182085498Y-84230746D01*
X182078844Y-84223298D01*
X182034066Y-84161443D01*
X182012492Y-84105035D01*
X182012143Y-84099339D01*
X181999390Y-84056759D01*
X181982350Y-84047353D01*
X181970683Y-84034012D01*
X182145546Y-84034012D01*
X182158886Y-84047353D01*
X182172227Y-84034012D01*
X182158886Y-84020672D01*
X182145546Y-84034012D01*
X181970683Y-84034012D01*
X181963953Y-84026317D01*
X181966177Y-83995271D01*
X181966831Y-83949506D01*
X181954916Y-83934895D01*
X181928589Y-83901807D01*
X181900963Y-83826869D01*
X181898160Y-83815969D01*
X182019586Y-83815969D01*
X182031869Y-83838734D01*
X182038316Y-83846637D01*
X182075920Y-83883640D01*
X182091336Y-83875111D01*
X182092185Y-83863443D01*
X182070800Y-83834789D01*
X182048390Y-83822811D01*
X182019586Y-83815969D01*
X181898160Y-83815969D01*
X181873864Y-83721503D01*
X181871455Y-83709398D01*
X181994356Y-83709398D01*
X181998018Y-83725259D01*
X182012143Y-83727185D01*
X182034104Y-83717423D01*
X182029930Y-83709398D01*
X181998266Y-83706204D01*
X181994356Y-83709398D01*
X181871455Y-83709398D01*
X181856411Y-83633802D01*
X181985462Y-83633802D01*
X181998802Y-83647143D01*
X182012143Y-83633802D01*
X181998802Y-83620462D01*
X181985462Y-83633802D01*
X181856411Y-83633802D01*
X181849113Y-83597128D01*
X181834352Y-83502468D01*
X181867050Y-83502468D01*
X181881287Y-83515314D01*
X181926238Y-83526321D01*
X181940345Y-83521984D01*
X181943790Y-83498330D01*
X181929553Y-83485484D01*
X181884602Y-83474477D01*
X181870495Y-83478814D01*
X181867050Y-83502468D01*
X181834352Y-83502468D01*
X181828535Y-83465166D01*
X181814796Y-83344444D01*
X181862118Y-83344444D01*
X181891328Y-83377122D01*
X181906995Y-83380336D01*
X181927398Y-83357975D01*
X181932101Y-83326975D01*
X181918022Y-83281574D01*
X181886696Y-83278003D01*
X181865399Y-83300294D01*
X181862118Y-83344444D01*
X181814796Y-83344444D01*
X181813953Y-83337037D01*
X181807192Y-83224161D01*
X181810000Y-83140210D01*
X181985462Y-83140210D01*
X181995224Y-83162171D01*
X182003249Y-83157997D01*
X182006442Y-83126333D01*
X182003249Y-83122423D01*
X181987387Y-83126085D01*
X181985462Y-83140210D01*
X181810000Y-83140210D01*
X181810075Y-83137959D01*
X181820846Y-83095316D01*
X181826380Y-83073508D01*
X182145546Y-83073508D01*
X182158886Y-83086849D01*
X182172227Y-83073508D01*
X182158886Y-83060168D01*
X182145546Y-83073508D01*
X181826380Y-83073508D01*
X181835241Y-83038585D01*
X181821804Y-83013905D01*
X181809440Y-82981495D01*
X181823053Y-82968222D01*
X181845662Y-82930154D01*
X181852059Y-82886101D01*
X181853754Y-82872968D01*
X181972391Y-82872968D01*
X181978187Y-82896171D01*
X181997228Y-82900084D01*
X182033818Y-82893897D01*
X182038823Y-82888318D01*
X182019272Y-82863414D01*
X181984093Y-82862859D01*
X181972391Y-82872968D01*
X181853754Y-82872968D01*
X181860508Y-82820623D01*
X181876359Y-82756345D01*
X181994633Y-82756345D01*
X181998802Y-82766680D01*
X182022778Y-82792133D01*
X182027058Y-82793361D01*
X182038517Y-82772719D01*
X182038823Y-82766680D01*
X182018312Y-82741025D01*
X182010568Y-82740000D01*
X181994633Y-82756345D01*
X181876359Y-82756345D01*
X181881620Y-82735009D01*
X181890223Y-82707581D01*
X181896519Y-82686638D01*
X182038823Y-82686638D01*
X182048585Y-82708600D01*
X182056610Y-82704426D01*
X182059804Y-82672762D01*
X182056610Y-82668851D01*
X182040749Y-82672514D01*
X182038823Y-82686638D01*
X181896519Y-82686638D01*
X181924150Y-82594733D01*
X181942752Y-82512765D01*
X182026401Y-82512765D01*
X182027738Y-82556795D01*
X182028335Y-82557850D01*
X182048675Y-82556627D01*
X182078046Y-82517236D01*
X182110078Y-82452599D01*
X182138403Y-82375639D01*
X182156652Y-82299277D01*
X182157039Y-82296718D01*
X182159533Y-82273088D01*
X182305630Y-82273088D01*
X182318970Y-82286428D01*
X182332311Y-82273088D01*
X182318970Y-82259748D01*
X182305630Y-82273088D01*
X182159533Y-82273088D01*
X182162827Y-82241887D01*
X182159389Y-82226159D01*
X182155445Y-82233067D01*
X182123789Y-82288719D01*
X182105822Y-82313109D01*
X182072057Y-82370030D01*
X182043379Y-82443546D01*
X182026401Y-82512765D01*
X181942752Y-82512765D01*
X181945608Y-82500182D01*
X181953214Y-82433141D01*
X181945583Y-82402824D01*
X181935794Y-82404209D01*
X181907704Y-82409897D01*
X181904894Y-82381362D01*
X181922744Y-82328582D01*
X181956631Y-82261531D01*
X182001937Y-82190185D01*
X182054041Y-82124519D01*
X182060365Y-82117981D01*
X182153275Y-82117981D01*
X182176443Y-82126322D01*
X182179446Y-82126344D01*
X182223581Y-82104766D01*
X182235236Y-82086323D01*
X182237344Y-82051890D01*
X182228018Y-82046302D01*
X182193991Y-82064520D01*
X182172227Y-82086323D01*
X182153275Y-82117981D01*
X182060365Y-82117981D01*
X182075721Y-82102106D01*
X182127205Y-82044692D01*
X182153581Y-81999322D01*
X182153613Y-81996090D01*
X182252269Y-81996090D01*
X182268707Y-82010556D01*
X182278949Y-82006281D01*
X182304634Y-81970937D01*
X182305630Y-81963111D01*
X182289191Y-81948646D01*
X182278949Y-81952920D01*
X182253265Y-81988264D01*
X182252269Y-81996090D01*
X182153613Y-81996090D01*
X182153726Y-81984591D01*
X182154683Y-81970543D01*
X182165762Y-81975605D01*
X182196273Y-81966159D01*
X182244476Y-81923140D01*
X182281232Y-81879675D01*
X182290179Y-81868431D01*
X185035952Y-81868431D01*
X185039615Y-81884293D01*
X185053739Y-81886218D01*
X185075701Y-81876456D01*
X185071526Y-81868431D01*
X185039863Y-81865238D01*
X185035952Y-81868431D01*
X182290179Y-81868431D01*
X182336609Y-81810077D01*
X182346502Y-81798618D01*
X182655184Y-81798618D01*
X182681918Y-81793020D01*
X182686980Y-81791121D01*
X182719652Y-81769984D01*
X182719886Y-81757968D01*
X182691662Y-81760960D01*
X182672045Y-81776185D01*
X182655184Y-81798618D01*
X182346502Y-81798618D01*
X182382935Y-81756417D01*
X182400525Y-81738809D01*
X182432843Y-81690549D01*
X182443086Y-81658767D01*
X182465566Y-81620986D01*
X182839243Y-81620986D01*
X182859594Y-81645374D01*
X182865924Y-81646092D01*
X182889339Y-81624375D01*
X182892605Y-81604497D01*
X182879670Y-81576881D01*
X182865924Y-81579391D01*
X182840261Y-81613501D01*
X182839243Y-81620986D01*
X182465566Y-81620986D01*
X182466403Y-81619580D01*
X182522567Y-81614174D01*
X182522867Y-81614209D01*
X182591443Y-81605395D01*
X182633860Y-81580858D01*
X182672226Y-81547756D01*
X182688545Y-81539370D01*
X182716364Y-81527514D01*
X182719325Y-81526029D01*
X182972647Y-81526029D01*
X182985987Y-81539370D01*
X182999328Y-81526029D01*
X183052689Y-81526029D01*
X183066029Y-81539370D01*
X183079370Y-81526029D01*
X183066029Y-81512689D01*
X183052689Y-81526029D01*
X182999328Y-81526029D01*
X182985987Y-81512689D01*
X182972647Y-81526029D01*
X182719325Y-81526029D01*
X182779593Y-81495805D01*
X182866843Y-81450027D01*
X182910567Y-81426565D01*
X182950929Y-81405966D01*
X183132731Y-81405966D01*
X183153034Y-81431872D01*
X183159412Y-81432647D01*
X183185317Y-81412344D01*
X183186092Y-81405966D01*
X183172855Y-81389077D01*
X183461546Y-81389077D01*
X183468815Y-81410134D01*
X183504382Y-81425101D01*
X183542622Y-81420573D01*
X183614697Y-81401026D01*
X183651045Y-81392192D01*
X183709118Y-81367799D01*
X183731087Y-81351034D01*
X183733836Y-81335109D01*
X183694220Y-81332703D01*
X183626323Y-81340469D01*
X183530060Y-81356047D01*
X183478090Y-81370942D01*
X183461546Y-81389077D01*
X183172855Y-81389077D01*
X183165789Y-81380061D01*
X183159412Y-81379286D01*
X183133506Y-81399589D01*
X183132731Y-81405966D01*
X182950929Y-81405966D01*
X183012916Y-81374330D01*
X183063959Y-81351275D01*
X183298953Y-81351275D01*
X183308831Y-81374039D01*
X183337535Y-81379286D01*
X183390244Y-81358437D01*
X183418342Y-81328622D01*
X183435648Y-81293816D01*
X183417072Y-81287977D01*
X183379807Y-81296725D01*
X183324688Y-81321448D01*
X183298953Y-81351275D01*
X183063959Y-81351275D01*
X183104897Y-81332784D01*
X183171292Y-81308616D01*
X183186092Y-81305447D01*
X183255699Y-81283657D01*
X183257716Y-81282528D01*
X183781987Y-81282528D01*
X183804181Y-81302548D01*
X183857108Y-81324283D01*
X183890098Y-81304057D01*
X183891722Y-81301522D01*
X183891361Y-81299243D01*
X183986512Y-81299243D01*
X183996274Y-81321205D01*
X184004300Y-81317031D01*
X184007493Y-81285367D01*
X184004300Y-81281456D01*
X183988438Y-81285119D01*
X183986512Y-81299243D01*
X183891361Y-81299243D01*
X183887482Y-81274720D01*
X183850343Y-81260976D01*
X183804181Y-81266866D01*
X183781987Y-81282528D01*
X183257716Y-81282528D01*
X183325085Y-81244827D01*
X183424826Y-81202392D01*
X183518520Y-81192521D01*
X183598047Y-81187373D01*
X183634508Y-81169841D01*
X183639664Y-81152500D01*
X183654070Y-81116994D01*
X183666344Y-81112479D01*
X183690495Y-81133873D01*
X183693025Y-81149607D01*
X183717389Y-81180093D01*
X183781296Y-81206277D01*
X183870967Y-81225931D01*
X183972624Y-81236831D01*
X184072488Y-81236751D01*
X184154391Y-81224138D01*
X184227098Y-81211213D01*
X184258928Y-81222737D01*
X184259139Y-81223321D01*
X184288626Y-81239798D01*
X184351801Y-81249581D01*
X184375976Y-81250551D01*
X184479936Y-81268305D01*
X184548871Y-81304360D01*
X184613508Y-81356674D01*
X184540136Y-81344999D01*
X184487335Y-81343661D01*
X184466765Y-81356305D01*
X184488125Y-81377301D01*
X184502686Y-81379286D01*
X184552988Y-81391354D01*
X184633586Y-81423123D01*
X184728379Y-81467936D01*
X184769520Y-81489573D01*
X184815607Y-81504843D01*
X184834285Y-81500910D01*
X184821595Y-81483140D01*
X184771736Y-81455828D01*
X184738305Y-81441653D01*
X184667874Y-81407923D01*
X184629695Y-81377565D01*
X184629974Y-81357261D01*
X184655614Y-81352605D01*
X184699478Y-81363821D01*
X184769612Y-81392949D01*
X184853142Y-81433210D01*
X184937195Y-81477823D01*
X185008896Y-81520007D01*
X185055371Y-81552984D01*
X185065563Y-81568504D01*
X185033443Y-81581710D01*
X185025215Y-81578251D01*
X185001981Y-81582185D01*
X185000378Y-81591156D01*
X185015053Y-81618631D01*
X185020388Y-81619746D01*
X185054739Y-81637121D01*
X185115452Y-81682169D01*
X185190852Y-81745135D01*
X185269263Y-81816268D01*
X185339010Y-81885815D01*
X185339389Y-81886218D01*
X185391920Y-81953959D01*
X185423272Y-82017083D01*
X185427141Y-82038306D01*
X185446734Y-82096851D01*
X185473960Y-82123137D01*
X185514065Y-82168901D01*
X185527515Y-82211175D01*
X185544157Y-82354762D01*
X185557677Y-82453782D01*
X185569590Y-82516826D01*
X185581410Y-82552487D01*
X185589939Y-82565241D01*
X185613167Y-82611997D01*
X185609236Y-82657922D01*
X185581764Y-82681466D01*
X185570483Y-82681138D01*
X185531467Y-82696709D01*
X185516350Y-82739485D01*
X185511178Y-82784440D01*
X185522811Y-82781185D01*
X185542487Y-82755453D01*
X185576780Y-82723124D01*
X185595218Y-82732614D01*
X185595154Y-82774041D01*
X185573939Y-82837525D01*
X185567861Y-82850152D01*
X185526570Y-82944960D01*
X185517346Y-83004810D01*
X185536504Y-83035040D01*
X185548566Y-83072693D01*
X185535106Y-83123938D01*
X185521479Y-83173732D01*
X185534072Y-83180181D01*
X185558546Y-83141629D01*
X185560672Y-83125295D01*
X185575590Y-83090812D01*
X185587353Y-83086849D01*
X185610153Y-83107121D01*
X185608861Y-83155672D01*
X185585243Y-83214103D01*
X185573460Y-83231616D01*
X185546111Y-83289325D01*
X185523692Y-83373094D01*
X185518250Y-83406129D01*
X185483816Y-83525916D01*
X185411232Y-83631167D01*
X185359358Y-83693590D01*
X185326538Y-83741020D01*
X185320546Y-83755888D01*
X185302863Y-83783662D01*
X185255470Y-83839062D01*
X185186847Y-83912448D01*
X185147055Y-83953047D01*
X185045090Y-84049215D01*
X184968852Y-84105919D01*
X184912961Y-84127052D01*
X184906091Y-84127395D01*
X184849296Y-84141539D01*
X184823262Y-84167416D01*
X184787553Y-84198514D01*
X184744057Y-84207437D01*
X184695286Y-84216111D01*
X184680210Y-84231772D01*
X184656043Y-84249827D01*
X184593050Y-84269649D01*
X184505495Y-84287615D01*
X184412934Y-84299632D01*
X184353983Y-84316166D01*
X184339562Y-84323667D01*
X184297749Y-84335218D01*
X184286670Y-84332172D01*
X184251725Y-84329528D01*
X184180099Y-84334223D01*
X184094480Y-84344308D01*
X183986532Y-84355197D01*
X183898350Y-84350724D01*
X183802103Y-84328230D01*
X183747632Y-84311155D01*
X183590427Y-84250162D01*
X183481799Y-84186326D01*
X183466458Y-84169142D01*
X183589023Y-84169142D01*
X183594787Y-84191634D01*
X183629672Y-84217680D01*
X183672676Y-84232519D01*
X183679685Y-84232860D01*
X183682428Y-84219621D01*
X183675200Y-84212756D01*
X183813088Y-84212756D01*
X183879790Y-84234117D01*
X183967238Y-84255198D01*
X184020939Y-84253372D01*
X184020970Y-84253312D01*
X184097786Y-84253312D01*
X184109184Y-84267853D01*
X184145206Y-84274009D01*
X184185838Y-84255257D01*
X184198278Y-84234117D01*
X184266659Y-84234117D01*
X184268775Y-84258703D01*
X184278425Y-84260798D01*
X184305595Y-84241430D01*
X184306680Y-84234117D01*
X184297577Y-84208130D01*
X184294915Y-84207437D01*
X184272136Y-84226133D01*
X184266659Y-84234117D01*
X184198278Y-84234117D01*
X184199958Y-84231263D01*
X184177586Y-84211897D01*
X184146596Y-84207437D01*
X184100279Y-84220754D01*
X184097786Y-84253312D01*
X184020970Y-84253312D01*
X184033670Y-84228954D01*
X184033204Y-84227447D01*
X184003400Y-84198197D01*
X183990959Y-84196765D01*
X183942333Y-84201060D01*
X183886460Y-84206094D01*
X183813088Y-84212756D01*
X183675200Y-84212756D01*
X183654952Y-84193524D01*
X183647934Y-84189650D01*
X183755280Y-84189650D01*
X183758942Y-84205511D01*
X183773067Y-84207437D01*
X183795028Y-84197675D01*
X183790854Y-84189650D01*
X183759190Y-84186456D01*
X183755280Y-84189650D01*
X183647934Y-84189650D01*
X183610483Y-84168978D01*
X183589023Y-84169142D01*
X183466458Y-84169142D01*
X183441099Y-84140735D01*
X183479580Y-84140735D01*
X183492920Y-84154075D01*
X183506260Y-84140735D01*
X183497930Y-84132405D01*
X184418528Y-84132405D01*
X184428190Y-84142844D01*
X184453424Y-84154075D01*
X184498685Y-84173129D01*
X184513456Y-84178881D01*
X184519940Y-84160276D01*
X184520126Y-84154075D01*
X184497587Y-84133981D01*
X184460094Y-84129270D01*
X184418528Y-84132405D01*
X183497930Y-84132405D01*
X183492920Y-84127395D01*
X183479580Y-84140735D01*
X183441099Y-84140735D01*
X183423375Y-84120881D01*
X183421479Y-84105792D01*
X184573487Y-84105792D01*
X184589152Y-84123267D01*
X184621063Y-84112379D01*
X184646594Y-84081320D01*
X184647421Y-84079018D01*
X184639085Y-84058929D01*
X184615738Y-84063529D01*
X184579040Y-84090792D01*
X184573487Y-84105792D01*
X183421479Y-84105792D01*
X183415630Y-84059228D01*
X183418198Y-84009038D01*
X183401625Y-83998808D01*
X183933151Y-83998808D01*
X183956079Y-84039725D01*
X184010238Y-84073239D01*
X184073688Y-84087432D01*
X184093235Y-84085785D01*
X184154384Y-84078123D01*
X184186141Y-84076075D01*
X184209645Y-84068841D01*
X184194105Y-84046625D01*
X184137923Y-84005332D01*
X184072336Y-83967311D01*
X184226638Y-83967311D01*
X184236400Y-83989272D01*
X184244426Y-83985098D01*
X184246016Y-83969328D01*
X184786933Y-83969328D01*
X184806604Y-83981553D01*
X184826954Y-83976959D01*
X184862248Y-83951231D01*
X184866975Y-83938613D01*
X184847303Y-83926388D01*
X184826954Y-83930982D01*
X184791659Y-83956710D01*
X184786933Y-83969328D01*
X184246016Y-83969328D01*
X184247619Y-83953434D01*
X184244426Y-83949524D01*
X184228564Y-83953186D01*
X184226638Y-83967311D01*
X184072336Y-83967311D01*
X184065405Y-83963293D01*
X184019194Y-83956362D01*
X184002541Y-83965080D01*
X183964213Y-83980916D01*
X183950707Y-83975973D01*
X183935556Y-83980870D01*
X183933151Y-83998808D01*
X183401625Y-83998808D01*
X183386384Y-83989400D01*
X183326166Y-83992000D01*
X183295427Y-83978227D01*
X183292815Y-83967354D01*
X183271504Y-83915219D01*
X183270392Y-83913949D01*
X183853109Y-83913949D01*
X183862871Y-83935911D01*
X183870896Y-83931736D01*
X183872360Y-83917216D01*
X184093235Y-83917216D01*
X184099122Y-83955730D01*
X184124035Y-83947987D01*
X184132962Y-83940874D01*
X184159367Y-83903295D01*
X184158068Y-83884246D01*
X184125863Y-83860446D01*
X184099735Y-83881439D01*
X184093235Y-83917216D01*
X183872360Y-83917216D01*
X183874089Y-83900073D01*
X183870896Y-83896162D01*
X183855035Y-83899825D01*
X183853109Y-83913949D01*
X183270392Y-83913949D01*
X183206306Y-83840736D01*
X183168911Y-83805652D01*
X183452899Y-83805652D01*
X183472267Y-83832822D01*
X183479580Y-83833907D01*
X183505567Y-83824804D01*
X183506260Y-83822142D01*
X183487564Y-83799362D01*
X183479580Y-83793886D01*
X183454994Y-83796002D01*
X183452899Y-83805652D01*
X183168911Y-83805652D01*
X183161509Y-83798707D01*
X183128545Y-83767206D01*
X183372857Y-83767206D01*
X183386197Y-83780546D01*
X183399538Y-83767206D01*
X183386197Y-83753865D01*
X183372857Y-83767206D01*
X183128545Y-83767206D01*
X183077650Y-83718569D01*
X183023836Y-83661587D01*
X183251030Y-83661587D01*
X183255630Y-83684934D01*
X183280369Y-83718455D01*
X183306868Y-83726106D01*
X183315664Y-83704327D01*
X183313381Y-83695501D01*
X183280728Y-83657659D01*
X183271119Y-83653251D01*
X183251030Y-83661587D01*
X183023836Y-83661587D01*
X182999982Y-83636328D01*
X182937646Y-83562543D01*
X182899782Y-83507777D01*
X182892605Y-83488012D01*
X182906174Y-83459160D01*
X182941163Y-83469235D01*
X182988995Y-83513031D01*
X183033910Y-83573771D01*
X183074347Y-83624467D01*
X183108542Y-83647066D01*
X183109932Y-83647143D01*
X183122357Y-83632593D01*
X183105515Y-83606477D01*
X183082327Y-83564545D01*
X183098629Y-83550429D01*
X183146676Y-83567126D01*
X183170437Y-83581378D01*
X183222365Y-83609546D01*
X183237421Y-83599635D01*
X183217639Y-83549665D01*
X183212701Y-83540285D01*
X183196008Y-83491512D01*
X183209262Y-83475884D01*
X183241774Y-83491961D01*
X183282853Y-83538304D01*
X183291006Y-83550833D01*
X183334332Y-83608481D01*
X183386314Y-83661396D01*
X183435398Y-83700142D01*
X183470031Y-83715284D01*
X183479580Y-83704836D01*
X183464976Y-83663181D01*
X183427729Y-83599609D01*
X183377681Y-83527392D01*
X183368234Y-83515347D01*
X183483819Y-83515347D01*
X183484473Y-83528282D01*
X183490905Y-83549272D01*
X183505197Y-83606892D01*
X183508367Y-83629314D01*
X183514819Y-83644897D01*
X183523595Y-83628137D01*
X183523523Y-83626674D01*
X183603991Y-83626674D01*
X183605079Y-83662183D01*
X183614440Y-83690997D01*
X183652142Y-83760403D01*
X183696536Y-83801840D01*
X183713112Y-83806818D01*
X183709586Y-83789440D01*
X183862003Y-83789440D01*
X183865665Y-83805301D01*
X183879790Y-83807227D01*
X183901751Y-83797465D01*
X183897577Y-83789440D01*
X183865913Y-83786246D01*
X183862003Y-83789440D01*
X183709586Y-83789440D01*
X183708787Y-83785505D01*
X183701974Y-83766951D01*
X183942517Y-83766951D01*
X183964324Y-83813920D01*
X183994491Y-83852068D01*
X184011634Y-83860588D01*
X184024558Y-83839297D01*
X184020815Y-83806811D01*
X184012588Y-83789440D01*
X184208851Y-83789440D01*
X184212514Y-83805301D01*
X184226638Y-83807227D01*
X184248600Y-83797465D01*
X184244426Y-83789440D01*
X184212762Y-83786246D01*
X184208851Y-83789440D01*
X184012588Y-83789440D01*
X183995247Y-83752825D01*
X183971754Y-83736078D01*
X184155490Y-83736078D01*
X184159152Y-83751940D01*
X184173277Y-83753865D01*
X184195238Y-83744103D01*
X184191064Y-83736078D01*
X184159401Y-83732885D01*
X184155490Y-83736078D01*
X183971754Y-83736078D01*
X183961786Y-83728972D01*
X183942555Y-83735568D01*
X183942517Y-83766951D01*
X183701974Y-83766951D01*
X183689380Y-83732650D01*
X183685219Y-83722334D01*
X183652948Y-83660684D01*
X183632847Y-83638469D01*
X183748363Y-83638469D01*
X183763023Y-83686132D01*
X183782797Y-83716859D01*
X183792149Y-83716996D01*
X183790672Y-83687157D01*
X183776324Y-83655814D01*
X183752733Y-83624469D01*
X183748363Y-83638469D01*
X183632847Y-83638469D01*
X183622909Y-83627486D01*
X183603991Y-83626674D01*
X183523523Y-83626674D01*
X183521277Y-83581310D01*
X183506134Y-83548095D01*
X183483819Y-83515347D01*
X183368234Y-83515347D01*
X183324675Y-83459807D01*
X183278555Y-83410128D01*
X183249165Y-83391631D01*
X183247595Y-83391980D01*
X183207879Y-83388653D01*
X183193655Y-83343993D01*
X183201388Y-83288661D01*
X183212070Y-83253926D01*
X183227192Y-83244824D01*
X183256122Y-83265542D01*
X183308231Y-83320267D01*
X183332985Y-83347465D01*
X183403790Y-83417132D01*
X183452759Y-83448740D01*
X183475911Y-83441766D01*
X183469269Y-83395689D01*
X183456234Y-83363661D01*
X183436638Y-83309951D01*
X183435225Y-83282394D01*
X183458780Y-83292347D01*
X183505105Y-83329925D01*
X183561583Y-83382813D01*
X183615597Y-83438696D01*
X183654527Y-83485261D01*
X183666344Y-83507948D01*
X183688405Y-83522659D01*
X183730098Y-83520833D01*
X183798165Y-83526321D01*
X183863723Y-83554428D01*
X183929969Y-83582296D01*
X184023931Y-83604047D01*
X184085795Y-83611635D01*
X184184930Y-83612685D01*
X184289551Y-83603751D01*
X184385604Y-83587353D01*
X184459034Y-83566015D01*
X184495784Y-83542258D01*
X184497447Y-83537759D01*
X184503481Y-83489417D01*
X184504117Y-83482441D01*
X184523433Y-83444103D01*
X184551392Y-83410166D01*
X184653529Y-83410166D01*
X184669968Y-83424631D01*
X184680210Y-83420357D01*
X184705894Y-83385013D01*
X184706891Y-83377187D01*
X184690452Y-83362721D01*
X184680210Y-83366996D01*
X184654525Y-83402340D01*
X184653529Y-83410166D01*
X184551392Y-83410166D01*
X184567377Y-83390764D01*
X184575796Y-83382132D01*
X184601105Y-83353655D01*
X185120441Y-83353655D01*
X185122556Y-83378241D01*
X185132207Y-83380336D01*
X185159376Y-83360968D01*
X185160462Y-83353655D01*
X185151359Y-83327668D01*
X185148696Y-83326975D01*
X185125917Y-83345671D01*
X185120441Y-83353655D01*
X184601105Y-83353655D01*
X184626462Y-83325123D01*
X184658709Y-83277379D01*
X184660477Y-83273357D01*
X184677257Y-83247141D01*
X184700052Y-83268067D01*
X184703409Y-83272841D01*
X184720315Y-83295634D01*
X184734200Y-83298706D01*
X184752345Y-83274127D01*
X184782033Y-83213966D01*
X184807475Y-83159507D01*
X184857620Y-82996491D01*
X184866975Y-82874426D01*
X184866126Y-82860063D01*
X185373907Y-82860063D01*
X185387248Y-82873403D01*
X185400588Y-82860063D01*
X185387248Y-82846722D01*
X185373907Y-82860063D01*
X184866126Y-82860063D01*
X184864549Y-82833382D01*
X185480630Y-82833382D01*
X185493970Y-82846722D01*
X185507311Y-82833382D01*
X185493970Y-82820042D01*
X185480630Y-82833382D01*
X184864549Y-82833382D01*
X184858494Y-82730955D01*
X184832029Y-82633792D01*
X184786042Y-82578485D01*
X184760779Y-82566743D01*
X184721753Y-82539895D01*
X185400588Y-82539895D01*
X185413928Y-82553235D01*
X185427269Y-82539895D01*
X185413928Y-82526554D01*
X185400588Y-82539895D01*
X184721753Y-82539895D01*
X184713709Y-82534361D01*
X184658860Y-82472810D01*
X184635412Y-82438946D01*
X184594309Y-82382501D01*
X184698760Y-82382501D01*
X184700220Y-82402045D01*
X184705789Y-82440975D01*
X184706891Y-82473193D01*
X184717184Y-82518618D01*
X184752276Y-82519533D01*
X184783017Y-82502858D01*
X184805283Y-82474331D01*
X184799496Y-82455406D01*
X185409482Y-82455406D01*
X185413144Y-82471268D01*
X185427269Y-82473193D01*
X185449230Y-82463431D01*
X185445056Y-82455406D01*
X185413392Y-82452213D01*
X185409482Y-82455406D01*
X184799496Y-82455406D01*
X184790943Y-82427435D01*
X184787881Y-82421604D01*
X184756893Y-82388068D01*
X184720982Y-82373649D01*
X184698760Y-82382501D01*
X184594309Y-82382501D01*
X184563207Y-82339790D01*
X185373907Y-82339790D01*
X185394211Y-82365695D01*
X185400588Y-82366470D01*
X185426493Y-82346167D01*
X185427269Y-82339790D01*
X185406965Y-82313884D01*
X185400588Y-82313109D01*
X185374683Y-82333412D01*
X185373907Y-82339790D01*
X184563207Y-82339790D01*
X184561373Y-82337272D01*
X184489434Y-82266433D01*
X184428407Y-82234817D01*
X184420073Y-82233955D01*
X184389654Y-82216133D01*
X184391401Y-82206386D01*
X184520126Y-82206386D01*
X184529888Y-82228348D01*
X184537913Y-82224173D01*
X184541106Y-82192510D01*
X184537913Y-82188599D01*
X184522051Y-82192262D01*
X184520126Y-82206386D01*
X184391401Y-82206386D01*
X184395801Y-82181845D01*
X184412238Y-82167086D01*
X184429039Y-82133605D01*
X184397745Y-82087056D01*
X184382205Y-82075688D01*
X185221382Y-82075688D01*
X185226980Y-82102423D01*
X185228879Y-82107485D01*
X185250015Y-82140156D01*
X185262032Y-82140391D01*
X185259039Y-82112166D01*
X185243815Y-82092549D01*
X185221382Y-82075688D01*
X184382205Y-82075688D01*
X184320992Y-82030907D01*
X184298775Y-82017897D01*
X184246479Y-81990991D01*
X184194111Y-81972879D01*
X184129573Y-81961821D01*
X184040766Y-81956076D01*
X183915593Y-81953906D01*
X183852015Y-81953647D01*
X183704066Y-81954637D01*
X183599032Y-81959141D01*
X183526519Y-81968337D01*
X183476133Y-81983403D01*
X183446073Y-81999611D01*
X183382778Y-82032820D01*
X183332712Y-82046302D01*
X183252682Y-82066768D01*
X183153914Y-82121999D01*
X183046053Y-82202746D01*
X182938744Y-82299760D01*
X182841633Y-82403791D01*
X182764362Y-82505591D01*
X182716579Y-82595911D01*
X182705840Y-82647450D01*
X182687159Y-82689894D01*
X182663052Y-82715615D01*
X182633876Y-82763369D01*
X182632646Y-82842852D01*
X182633833Y-82852286D01*
X182637521Y-82922567D01*
X182621999Y-82951435D01*
X182611128Y-82953445D01*
X182577456Y-82977782D01*
X182559214Y-83045666D01*
X182556925Y-83149411D01*
X182571107Y-83281328D01*
X182584074Y-83353168D01*
X182602603Y-83455651D01*
X182613385Y-83538221D01*
X182614735Y-83586913D01*
X182613023Y-83592867D01*
X182617272Y-83626088D01*
X182627009Y-83634550D01*
X182657611Y-83671276D01*
X182681247Y-83719336D01*
X182705645Y-83764113D01*
X182733596Y-83763175D01*
X182743549Y-83755784D01*
X182767786Y-83707185D01*
X182766845Y-83666172D01*
X182765732Y-83639982D01*
X182785850Y-83655958D01*
X182820284Y-83701820D01*
X182869137Y-83795282D01*
X182873752Y-83867142D01*
X182882991Y-83949059D01*
X182938394Y-84053059D01*
X183033610Y-84172580D01*
X183074699Y-84211623D01*
X183109987Y-84212289D01*
X183151516Y-84188076D01*
X183197540Y-84160912D01*
X183212034Y-84171264D01*
X183208311Y-84222932D01*
X183210752Y-84271355D01*
X183234969Y-84314740D01*
X183288175Y-84359311D01*
X183377581Y-84411293D01*
X183492920Y-84468584D01*
X183599339Y-84516425D01*
X183683354Y-84544766D01*
X183768719Y-84560883D01*
X183809978Y-84565683D01*
X183874294Y-84585597D01*
X183911357Y-84617326D01*
X183946532Y-84648527D01*
X183994400Y-84661498D01*
X184035881Y-84655731D01*
X184051893Y-84630722D01*
X184049522Y-84620987D01*
X184056460Y-84591337D01*
X184096548Y-84581343D01*
X184153287Y-84591108D01*
X184209221Y-84620003D01*
X184266035Y-84643592D01*
X184313705Y-84633477D01*
X184333361Y-84594307D01*
X184354916Y-84556140D01*
X184375564Y-84543800D01*
X184434551Y-84528446D01*
X184458394Y-84538305D01*
X184453424Y-84554286D01*
X184462870Y-84574070D01*
X184505211Y-84580966D01*
X184556085Y-84571076D01*
X184573487Y-84551431D01*
X184592895Y-84533591D01*
X184613508Y-84537253D01*
X184647972Y-84533740D01*
X184653529Y-84516539D01*
X184678147Y-84481542D01*
X184744609Y-84457329D01*
X184841826Y-84447929D01*
X184842226Y-84447927D01*
X184883147Y-84438894D01*
X185998872Y-84438894D01*
X186020225Y-84467874D01*
X186042499Y-84474243D01*
X186067123Y-84456342D01*
X186067605Y-84452010D01*
X186050200Y-84413344D01*
X186014071Y-84407974D01*
X186010087Y-84410111D01*
X185998872Y-84438894D01*
X184883147Y-84438894D01*
X184913966Y-84432091D01*
X185010543Y-84391059D01*
X185115708Y-84333687D01*
X185213215Y-84268832D01*
X185222543Y-84260798D01*
X186054265Y-84260798D01*
X186056380Y-84285384D01*
X186066030Y-84287479D01*
X186093200Y-84268111D01*
X186094286Y-84260798D01*
X186085182Y-84234811D01*
X186082520Y-84234117D01*
X186059741Y-84252814D01*
X186054265Y-84260798D01*
X185222543Y-84260798D01*
X185269011Y-84220777D01*
X186120966Y-84220777D01*
X186134307Y-84234117D01*
X186147647Y-84220777D01*
X186134307Y-84207437D01*
X186120966Y-84220777D01*
X185269011Y-84220777D01*
X185286351Y-84205843D01*
X185339364Y-84156114D01*
X185380104Y-84128982D01*
X185387161Y-84127295D01*
X185417333Y-84107323D01*
X185427044Y-84097379D01*
X186153205Y-84097379D01*
X186155930Y-84120770D01*
X186167657Y-84117390D01*
X186195622Y-84091854D01*
X186197673Y-84087374D01*
X186190289Y-84067706D01*
X186166502Y-84076835D01*
X186153205Y-84097379D01*
X185427044Y-84097379D01*
X185467487Y-84055966D01*
X185527469Y-83985877D01*
X185587124Y-83909708D01*
X185609274Y-83878360D01*
X186230693Y-83878360D01*
X186251515Y-83887269D01*
X186280872Y-83866096D01*
X186290177Y-83848606D01*
X186288993Y-83821534D01*
X186266351Y-83824780D01*
X186233622Y-83850622D01*
X186230693Y-83878360D01*
X185609274Y-83878360D01*
X185636299Y-83840112D01*
X185664841Y-83789742D01*
X185668243Y-83777045D01*
X185684076Y-83728192D01*
X185708264Y-83688734D01*
X185742354Y-83634520D01*
X185735076Y-83611173D01*
X185684217Y-83613307D01*
X185677770Y-83614499D01*
X185628990Y-83618956D01*
X185619491Y-83596538D01*
X185627971Y-83564108D01*
X185660670Y-83464215D01*
X185683974Y-83408824D01*
X185702179Y-83390863D01*
X185719578Y-83403258D01*
X185722795Y-83407921D01*
X185754459Y-83425062D01*
X185792174Y-83389295D01*
X185816338Y-83340315D01*
X186547857Y-83340315D01*
X186561197Y-83353655D01*
X186574538Y-83340315D01*
X186561197Y-83326975D01*
X186547857Y-83340315D01*
X185816338Y-83340315D01*
X185835872Y-83300720D01*
X185877982Y-83183006D01*
X185914555Y-83035805D01*
X185917434Y-82962339D01*
X186023137Y-82962339D01*
X186026799Y-82978200D01*
X186040924Y-82980126D01*
X186062885Y-82970364D01*
X186058711Y-82962339D01*
X186027048Y-82959146D01*
X186023137Y-82962339D01*
X185917434Y-82962339D01*
X185918992Y-82922570D01*
X185891221Y-82847262D01*
X185884303Y-82839514D01*
X185855987Y-82795303D01*
X185870513Y-82769524D01*
X185889404Y-82766680D01*
X185910081Y-82742971D01*
X185924000Y-82682998D01*
X185930627Y-82603495D01*
X185930478Y-82593256D01*
X186627899Y-82593256D01*
X186641239Y-82606596D01*
X186654580Y-82593256D01*
X186641239Y-82579916D01*
X186627899Y-82593256D01*
X185930478Y-82593256D01*
X185929429Y-82521197D01*
X185919873Y-82452836D01*
X185901425Y-82415146D01*
X185900631Y-82414600D01*
X185883273Y-82390468D01*
X185907521Y-82366879D01*
X185929294Y-82344994D01*
X185914191Y-82340198D01*
X185884859Y-82318221D01*
X185880840Y-82298656D01*
X185870038Y-82254925D01*
X185841697Y-82179545D01*
X185801913Y-82088709D01*
X185801254Y-82087299D01*
X185754183Y-81978533D01*
X185712208Y-81867743D01*
X185688366Y-81792563D01*
X185659254Y-81713545D01*
X185623750Y-81656334D01*
X185607868Y-81642793D01*
X185568717Y-81606835D01*
X185563815Y-81592731D01*
X186334412Y-81592731D01*
X186343515Y-81618718D01*
X186346177Y-81619412D01*
X186368956Y-81600715D01*
X186374433Y-81592731D01*
X186372317Y-81568145D01*
X186362667Y-81566050D01*
X186335497Y-81585418D01*
X186334412Y-81592731D01*
X185563815Y-81592731D01*
X185560672Y-81583686D01*
X185540293Y-81538071D01*
X185525714Y-81521582D01*
X186316624Y-81521582D01*
X186320287Y-81537444D01*
X186334412Y-81539370D01*
X186356373Y-81529608D01*
X186352199Y-81521582D01*
X186320535Y-81518389D01*
X186316624Y-81521582D01*
X185525714Y-81521582D01*
X185490083Y-81481283D01*
X185426429Y-81427576D01*
X185365721Y-81391200D01*
X185331066Y-81384008D01*
X185290919Y-81375314D01*
X185277835Y-81330051D01*
X185252196Y-81260275D01*
X185194956Y-81191687D01*
X185182682Y-81183354D01*
X185997520Y-81183354D01*
X186032047Y-81215297D01*
X186055839Y-81219201D01*
X186090236Y-81239013D01*
X186094286Y-81254924D01*
X186108921Y-81291001D01*
X186145109Y-81345441D01*
X186191270Y-81403978D01*
X186235825Y-81452346D01*
X186267196Y-81476277D01*
X186273516Y-81475756D01*
X186267103Y-81448844D01*
X186238241Y-81392466D01*
X186212923Y-81350347D01*
X186138762Y-81241792D01*
X186075829Y-81167170D01*
X186028631Y-81131067D01*
X186002646Y-81136340D01*
X185997520Y-81183354D01*
X185182682Y-81183354D01*
X185124587Y-81143913D01*
X185093760Y-81134468D01*
X185054135Y-81138873D01*
X185046326Y-81179170D01*
X185047153Y-81188102D01*
X185045241Y-81232054D01*
X185033813Y-81240991D01*
X184999379Y-81227062D01*
X184931909Y-81201106D01*
X184873645Y-81179116D01*
X184781886Y-81140763D01*
X184740508Y-81112397D01*
X184747896Y-81092001D01*
X184793603Y-81079015D01*
X184809117Y-81064952D01*
X184784149Y-81039622D01*
X184729125Y-81007747D01*
X184724715Y-81005756D01*
X185894180Y-81005756D01*
X185900229Y-81028597D01*
X185919287Y-81032437D01*
X185955791Y-81018507D01*
X185960882Y-81005756D01*
X185941733Y-80979839D01*
X185935776Y-80979075D01*
X185899641Y-80998470D01*
X185894180Y-81005756D01*
X184724715Y-81005756D01*
X184654475Y-80974043D01*
X184631866Y-80965735D01*
X185774117Y-80965735D01*
X185787458Y-80979075D01*
X185800798Y-80965735D01*
X185787458Y-80952395D01*
X185774117Y-80965735D01*
X184631866Y-80965735D01*
X184570626Y-80943231D01*
X184488007Y-80920030D01*
X184418402Y-80909230D01*
X184337207Y-80897748D01*
X184300995Y-80885693D01*
X185720756Y-80885693D01*
X185734096Y-80899033D01*
X185747437Y-80885693D01*
X185734096Y-80872353D01*
X185720756Y-80885693D01*
X184300995Y-80885693D01*
X184274910Y-80877009D01*
X184263271Y-80869540D01*
X184210493Y-80848677D01*
X184118878Y-80834065D01*
X184002663Y-80826430D01*
X183876085Y-80826499D01*
X183753382Y-80834996D01*
X183706904Y-80841178D01*
X183593582Y-80849847D01*
X183521903Y-80831288D01*
X183512835Y-80818991D01*
X185627374Y-80818991D01*
X185629489Y-80843577D01*
X185639139Y-80845672D01*
X185666309Y-80826304D01*
X185667395Y-80818991D01*
X185658292Y-80793004D01*
X185655629Y-80792311D01*
X185632850Y-80811007D01*
X185627374Y-80818991D01*
X183512835Y-80818991D01*
X183486054Y-80782673D01*
X183479171Y-80730373D01*
X183464940Y-80666555D01*
X185404889Y-80666555D01*
X185411381Y-80681466D01*
X185438245Y-80710109D01*
X185453690Y-80704233D01*
X185453949Y-80700503D01*
X185434999Y-80677936D01*
X185423146Y-80669700D01*
X185404889Y-80666555D01*
X183464940Y-80666555D01*
X183461168Y-80649638D01*
X183456312Y-80645567D01*
X184947017Y-80645567D01*
X184960357Y-80658907D01*
X184973697Y-80645567D01*
X184960357Y-80632227D01*
X184947017Y-80645567D01*
X183456312Y-80645567D01*
X183405006Y-80602553D01*
X183395801Y-80598893D01*
X183348264Y-80561625D01*
X183309212Y-80499216D01*
X183287650Y-80431910D01*
X183291643Y-80389805D01*
X183917399Y-80389805D01*
X183954679Y-80385717D01*
X184016154Y-80390045D01*
X184043167Y-80409410D01*
X184085725Y-80435827D01*
X184108899Y-80434922D01*
X184152172Y-80441808D01*
X184174593Y-80460388D01*
X184215635Y-80495435D01*
X184237515Y-80486754D01*
X184234852Y-80447308D01*
X184210504Y-80402664D01*
X184158263Y-80373242D01*
X184066894Y-80353525D01*
X184035248Y-80349296D01*
X183959716Y-80349041D01*
X183918267Y-80367968D01*
X183917684Y-80368862D01*
X183917399Y-80389805D01*
X183291643Y-80389805D01*
X183292578Y-80379951D01*
X183296133Y-80374763D01*
X183310234Y-80345616D01*
X183282741Y-80338739D01*
X183243982Y-80327097D01*
X183251633Y-80295787D01*
X183278002Y-80272038D01*
X183826428Y-80272038D01*
X183839769Y-80285378D01*
X183853109Y-80272038D01*
X183839769Y-80258697D01*
X183826428Y-80272038D01*
X183278002Y-80272038D01*
X183292815Y-80258697D01*
X183338933Y-80214926D01*
X183338089Y-80205336D01*
X184066554Y-80205336D01*
X184076316Y-80227297D01*
X184084342Y-80223123D01*
X184087535Y-80191459D01*
X184084342Y-80187549D01*
X184068480Y-80191211D01*
X184066554Y-80205336D01*
X183338089Y-80205336D01*
X183336494Y-80187219D01*
X183292815Y-80178655D01*
X183281896Y-80177166D01*
X184131668Y-80177166D01*
X184138428Y-80188274D01*
X184177158Y-80204505D01*
X184199183Y-80175948D01*
X184199958Y-80165315D01*
X184186386Y-80129797D01*
X184174852Y-80125294D01*
X184140012Y-80142947D01*
X184131668Y-80177166D01*
X183281896Y-80177166D01*
X183249346Y-80172727D01*
X183244019Y-80146397D01*
X183265929Y-80098996D01*
X183320068Y-80049142D01*
X183329689Y-80045252D01*
X183773067Y-80045252D01*
X183794784Y-80068667D01*
X183814663Y-80071933D01*
X183842279Y-80058998D01*
X183839769Y-80045252D01*
X183805659Y-80019589D01*
X183798173Y-80018571D01*
X183773786Y-80038922D01*
X183773067Y-80045252D01*
X183329689Y-80045252D01*
X183419869Y-80008790D01*
X183558221Y-79979550D01*
X183728013Y-79963032D01*
X183879790Y-79960037D01*
X183996260Y-79961142D01*
G37*
D12*
%TO.C,C8*%
X159450000Y-82880581D02*
X159450000Y-82599419D01*
X160470000Y-82880581D02*
X160470000Y-82599419D01*
%TO.C,R4*%
X157947500Y-82982258D02*
X157947500Y-82507742D01*
X158992500Y-82982258D02*
X158992500Y-82507742D01*
%TO.C,C9*%
X152075000Y-85688747D02*
X152075000Y-86211253D01*
X153545000Y-85688747D02*
X153545000Y-86211253D01*
D14*
%TO.C,REF\u002A\u002A*%
X189882813Y-86370021D02*
X189882813Y-88890178D01*
X187700000Y-90150256D01*
X185705906Y-88999120D01*
X186471077Y-88999120D01*
X187129294Y-88999120D01*
X187684522Y-88999120D01*
X188342938Y-88999120D01*
X189243447Y-87629108D01*
X188585032Y-87629108D01*
X187684522Y-88999120D01*
X187129294Y-88999120D01*
X188930709Y-86258698D01*
X188272294Y-86258698D01*
X186471077Y-88999120D01*
X185705906Y-88999120D01*
X185517188Y-88890178D01*
X185517188Y-87630392D01*
X186158537Y-87630392D01*
X186816755Y-87630694D01*
X187717463Y-86260682D01*
X187059047Y-86260682D01*
X186158537Y-87630392D01*
X185517188Y-87630392D01*
X185517188Y-87630099D01*
X185517188Y-86370021D01*
X187700000Y-85109745D01*
X189882813Y-86370021D01*
G36*
X189882813Y-86370021D02*
G01*
X189882813Y-88890178D01*
X187700000Y-90150256D01*
X185705906Y-88999120D01*
X186471077Y-88999120D01*
X187129294Y-88999120D01*
X187684522Y-88999120D01*
X188342938Y-88999120D01*
X189243447Y-87629108D01*
X188585032Y-87629108D01*
X187684522Y-88999120D01*
X187129294Y-88999120D01*
X188930709Y-86258698D01*
X188272294Y-86258698D01*
X186471077Y-88999120D01*
X185705906Y-88999120D01*
X185517188Y-88890178D01*
X185517188Y-87630392D01*
X186158537Y-87630392D01*
X186816755Y-87630694D01*
X187717463Y-86260682D01*
X187059047Y-86260682D01*
X186158537Y-87630392D01*
X185517188Y-87630392D01*
X185517188Y-87630099D01*
X185517188Y-86370021D01*
X187700000Y-85109745D01*
X189882813Y-86370021D01*
G37*
D12*
%TO.C,J4*%
X144281000Y-76169000D02*
X144281000Y-75869000D01*
X144281000Y-78169000D02*
X144281000Y-77689000D01*
X144281000Y-80169000D02*
X144281000Y-79689000D01*
X144281000Y-82169000D02*
X144281000Y-81689000D01*
X144281000Y-84169000D02*
X144281000Y-83689000D01*
X144281000Y-86169000D02*
X144281000Y-85689000D01*
X144281000Y-87989000D02*
X144281000Y-87689000D01*
X148401000Y-75869000D02*
X144281000Y-75869000D01*
X148401000Y-76169000D02*
X148401000Y-75869000D01*
X148401000Y-78169000D02*
X148401000Y-77689000D01*
X148401000Y-80169000D02*
X148401000Y-79689000D01*
X148401000Y-82169000D02*
X148401000Y-81689000D01*
X148401000Y-84169000D02*
X148401000Y-83689000D01*
X148401000Y-86169000D02*
X148401000Y-85689000D01*
X148401000Y-87989000D02*
X144281000Y-87989000D01*
X148401000Y-87989000D02*
X148401000Y-87689000D01*
%TO.C,C4*%
X166411254Y-79835000D02*
X165888748Y-79835000D01*
X166411254Y-81305000D02*
X165888748Y-81305000D01*
%TO.C,C7*%
X162128747Y-82495000D02*
X162651253Y-82495000D01*
X162128747Y-83965000D02*
X162651253Y-83965000D01*
D13*
%TO.C,RFF\u002A\u002A*%
G36*
X180208325Y-86819336D02*
G01*
X180245343Y-86844199D01*
X180274448Y-86878142D01*
X180289776Y-86911406D01*
X180294418Y-86952871D01*
X180284832Y-86991268D01*
X180263556Y-87023785D01*
X180233129Y-87047610D01*
X180196089Y-87059931D01*
X180157072Y-87058415D01*
X180107836Y-87040218D01*
X180070049Y-87010362D01*
X180045049Y-86970146D01*
X180036762Y-86941689D01*
X180037311Y-86901915D01*
X180051914Y-86864059D01*
X180077724Y-86832411D01*
X180111890Y-86811260D01*
X180126281Y-86806909D01*
X180167327Y-86806069D01*
X180208325Y-86819336D01*
G37*
G36*
X180642027Y-86318125D02*
G01*
X180653888Y-86324180D01*
X180684747Y-86352359D01*
X180705693Y-86390689D01*
X180715637Y-86434709D01*
X180713491Y-86479959D01*
X180700901Y-86516939D01*
X180674438Y-86551622D01*
X180639152Y-86573169D01*
X180598177Y-86580625D01*
X180554644Y-86573038D01*
X180538641Y-86566289D01*
X180506742Y-86541945D01*
X180484610Y-86507671D01*
X180472433Y-86467321D01*
X180470398Y-86424744D01*
X180478695Y-86383791D01*
X180497512Y-86348313D01*
X180526713Y-86322349D01*
X180562427Y-86310058D01*
X180603441Y-86308687D01*
X180642027Y-86318125D01*
G37*
G36*
X181347459Y-86402648D02*
G01*
X181378271Y-86420534D01*
X181401553Y-86448039D01*
X181414386Y-86484747D01*
X181415976Y-86505142D01*
X181409854Y-86556251D01*
X181390903Y-86597128D01*
X181361045Y-86627636D01*
X181323136Y-86647523D01*
X181280593Y-86655471D01*
X181239429Y-86650769D01*
X181222412Y-86644060D01*
X181195120Y-86621154D01*
X181176935Y-86587471D01*
X181168835Y-86547243D01*
X181171797Y-86504701D01*
X181182709Y-86472009D01*
X181207347Y-86435581D01*
X181239062Y-86410846D01*
X181274934Y-86397389D01*
X181312040Y-86394794D01*
X181347459Y-86402648D01*
G37*
G36*
X181681817Y-86900406D02*
G01*
X181722080Y-86912803D01*
X181724035Y-86913823D01*
X181748779Y-86935956D01*
X181765628Y-86968609D01*
X181773534Y-87006665D01*
X181771446Y-87045005D01*
X181758314Y-87078512D01*
X181757938Y-87079090D01*
X181725388Y-87115361D01*
X181685454Y-87139417D01*
X181641710Y-87150016D01*
X181597733Y-87145918D01*
X181581684Y-87140241D01*
X181546362Y-87116443D01*
X181523164Y-87083107D01*
X181513586Y-87043913D01*
X181519123Y-87002541D01*
X181522298Y-86994035D01*
X181541525Y-86957447D01*
X181566404Y-86931410D01*
X181598868Y-86911535D01*
X181638198Y-86899937D01*
X181681817Y-86900406D01*
G37*
G36*
X181169337Y-87815162D02*
G01*
X181193732Y-87830633D01*
X181212037Y-87854310D01*
X181219655Y-87881905D01*
X181219673Y-87883257D01*
X181214380Y-87911801D01*
X181197368Y-87934268D01*
X181166934Y-87952053D01*
X181121377Y-87966548D01*
X181116507Y-87967731D01*
X181073004Y-87975320D01*
X181017173Y-87980968D01*
X180953653Y-87984577D01*
X180887086Y-87986051D01*
X180822113Y-87985292D01*
X180763376Y-87982204D01*
X180715515Y-87976689D01*
X180712521Y-87976180D01*
X180664968Y-87965791D01*
X180632096Y-87953005D01*
X180611530Y-87936163D01*
X180600896Y-87913604D01*
X180598269Y-87896292D01*
X180598907Y-87869526D01*
X180607825Y-87850073D01*
X180618152Y-87838467D01*
X180628139Y-87828909D01*
X180637609Y-87822807D01*
X180649769Y-87820079D01*
X180667824Y-87820642D01*
X180694979Y-87824412D01*
X180734442Y-87831307D01*
X180754518Y-87834945D01*
X180799299Y-87840277D01*
X180855004Y-87842785D01*
X180915740Y-87842568D01*
X180975613Y-87839722D01*
X181028730Y-87834344D01*
X181054624Y-87830000D01*
X181089472Y-87822909D01*
X181120340Y-87816712D01*
X181141345Y-87812587D01*
X181143454Y-87812187D01*
X181169337Y-87815162D01*
G37*
G36*
X180976811Y-86827586D02*
G01*
X181040757Y-86855322D01*
X181042692Y-86856455D01*
X181071590Y-86876331D01*
X181108074Y-86905539D01*
X181148811Y-86940964D01*
X181190470Y-86979495D01*
X181229717Y-87018018D01*
X181263219Y-87053421D01*
X181287645Y-87082591D01*
X181293265Y-87090499D01*
X181320366Y-87144283D01*
X181330971Y-87199929D01*
X181325216Y-87258847D01*
X181313343Y-87298040D01*
X181282588Y-87357204D01*
X181239154Y-87405317D01*
X181184007Y-87441586D01*
X181118110Y-87465217D01*
X181106975Y-87467702D01*
X181082593Y-87471869D01*
X181059845Y-87473099D01*
X181033872Y-87471085D01*
X180999816Y-87465525D01*
X180966148Y-87458864D01*
X180923642Y-87450528D01*
X180892387Y-87445810D01*
X180867013Y-87444440D01*
X180842150Y-87446153D01*
X180812426Y-87450681D01*
X180809995Y-87451102D01*
X180759769Y-87459693D01*
X180722798Y-87465500D01*
X180695548Y-87468826D01*
X180674485Y-87469976D01*
X180656076Y-87469251D01*
X180636787Y-87466955D01*
X180632496Y-87466332D01*
X180594857Y-87458703D01*
X180563591Y-87446468D01*
X180532736Y-87426640D01*
X180501146Y-87400496D01*
X180460047Y-87355016D01*
X180429692Y-87302169D01*
X180412245Y-87246409D01*
X180408853Y-87210661D01*
X180411592Y-87172157D01*
X180420756Y-87136339D01*
X180437767Y-87101081D01*
X180464044Y-87064256D01*
X180501009Y-87023740D01*
X180550082Y-86977406D01*
X180585566Y-86946241D01*
X180626803Y-86911031D01*
X180658515Y-86885110D01*
X180683905Y-86866389D01*
X180706174Y-86852779D01*
X180728523Y-86842193D01*
X180754155Y-86832542D01*
X180766148Y-86828440D01*
X180835010Y-86813689D01*
X180906729Y-86813557D01*
X180976811Y-86827586D01*
G37*
G36*
X181019871Y-84988839D02*
G01*
X181200615Y-85006348D01*
X181376265Y-85039586D01*
X181548228Y-85088853D01*
X181717916Y-85154452D01*
X181805610Y-85195063D01*
X181968892Y-85284264D01*
X182122211Y-85386893D01*
X182264936Y-85502084D01*
X182396433Y-85628971D01*
X182516072Y-85766688D01*
X182623219Y-85914368D01*
X182717243Y-86071146D01*
X182797511Y-86236155D01*
X182863391Y-86408529D01*
X182914252Y-86587402D01*
X182947660Y-86759765D01*
X182952748Y-86800595D01*
X182957669Y-86852900D01*
X182961980Y-86911086D01*
X182965239Y-86969559D01*
X182966244Y-86994476D01*
X182964212Y-87178663D01*
X182945610Y-87360919D01*
X182910916Y-87540153D01*
X182860611Y-87715276D01*
X182795172Y-87885195D01*
X182715080Y-88048823D01*
X182620812Y-88205067D01*
X182512848Y-88352839D01*
X182391666Y-88491047D01*
X182257747Y-88618601D01*
X182249642Y-88625611D01*
X182101336Y-88742115D01*
X181944348Y-88844002D01*
X181779161Y-88931058D01*
X181606256Y-89003071D01*
X181426112Y-89059826D01*
X181239212Y-89101109D01*
X181147126Y-89115383D01*
X181111144Y-89119050D01*
X181062798Y-89122353D01*
X181006440Y-89125153D01*
X180946424Y-89127315D01*
X180887102Y-89128703D01*
X180832827Y-89129180D01*
X180787951Y-89128610D01*
X180763053Y-89127412D01*
X180581926Y-89106884D01*
X180409766Y-89073185D01*
X180243860Y-89025587D01*
X180081492Y-88963364D01*
X179986373Y-88919555D01*
X179821553Y-88829735D01*
X179666961Y-88726767D01*
X179523236Y-88611465D01*
X179391020Y-88484643D01*
X179270953Y-88347117D01*
X179163675Y-88199701D01*
X179069827Y-88043210D01*
X178990050Y-87878458D01*
X178924984Y-87706261D01*
X178875269Y-87527432D01*
X178868735Y-87498038D01*
X178854710Y-87429907D01*
X178844010Y-87370105D01*
X178836221Y-87314334D01*
X178830926Y-87258295D01*
X178827711Y-87197690D01*
X178826160Y-87128221D01*
X178825843Y-87054221D01*
X178826326Y-87007279D01*
X178977582Y-87007279D01*
X178980590Y-87187916D01*
X179000178Y-87365284D01*
X179036043Y-87538618D01*
X179087878Y-87707150D01*
X179155380Y-87870113D01*
X179238243Y-88026741D01*
X179336163Y-88176267D01*
X179448835Y-88317923D01*
X179535755Y-88411420D01*
X179571184Y-88445756D01*
X179612050Y-88482969D01*
X179656193Y-88521338D01*
X179701455Y-88559141D01*
X179745675Y-88594657D01*
X179786695Y-88626164D01*
X179822355Y-88651939D01*
X179850495Y-88670262D01*
X179868957Y-88679412D01*
X179872784Y-88680128D01*
X179878198Y-88672698D01*
X179883191Y-88654590D01*
X179883581Y-88652390D01*
X179885417Y-88635935D01*
X179888088Y-88604121D01*
X179891486Y-88558631D01*
X179895506Y-88501148D01*
X179900038Y-88433357D01*
X179904976Y-88356941D01*
X179910212Y-88273585D01*
X179915639Y-88184971D01*
X179921150Y-88092784D01*
X179926636Y-87998707D01*
X179931990Y-87904425D01*
X179936437Y-87823940D01*
X179950296Y-87569465D01*
X179859341Y-87483803D01*
X179801948Y-87427840D01*
X179755639Y-87377895D01*
X179717459Y-87330279D01*
X179684450Y-87281305D01*
X179653656Y-87227282D01*
X179653504Y-87226996D01*
X179614024Y-87137901D01*
X179587611Y-87045516D01*
X179574884Y-86953175D01*
X179575562Y-86914980D01*
X179700860Y-86914980D01*
X179706112Y-86996408D01*
X179726799Y-87079960D01*
X179762954Y-87164536D01*
X179814609Y-87249038D01*
X179815662Y-87250525D01*
X179839531Y-87280610D01*
X179872322Y-87317187D01*
X179910463Y-87356723D01*
X179950379Y-87395682D01*
X179988497Y-87430530D01*
X180021245Y-87457732D01*
X180035690Y-87468166D01*
X180056586Y-87485361D01*
X180070548Y-87503011D01*
X180072786Y-87508391D01*
X180073493Y-87521421D01*
X180073193Y-87549778D01*
X180071978Y-87591754D01*
X180069946Y-87645641D01*
X180067192Y-87709731D01*
X180063809Y-87782318D01*
X180059895Y-87861693D01*
X180055544Y-87946148D01*
X180050851Y-88033976D01*
X180045913Y-88123470D01*
X180040823Y-88212921D01*
X180035677Y-88300622D01*
X180030572Y-88384866D01*
X180025601Y-88463944D01*
X180020860Y-88536149D01*
X180016445Y-88599774D01*
X180012451Y-88653110D01*
X180008972Y-88694451D01*
X180006105Y-88722088D01*
X180004477Y-88732527D01*
X180003497Y-88743769D01*
X180007735Y-88753760D01*
X180019425Y-88764115D01*
X180040796Y-88776452D01*
X180074081Y-88792388D01*
X180108106Y-88807631D01*
X180261712Y-88868198D01*
X180417694Y-88915525D01*
X180572597Y-88948659D01*
X180664901Y-88961474D01*
X180704174Y-88965781D01*
X180740433Y-88969809D01*
X180767961Y-88972919D01*
X180775855Y-88973836D01*
X180804085Y-88975506D01*
X180845461Y-88975811D01*
X180896126Y-88974912D01*
X180952225Y-88972973D01*
X181009903Y-88970156D01*
X181065303Y-88966624D01*
X181114569Y-88962540D01*
X181153846Y-88958066D01*
X181155661Y-88957809D01*
X181257152Y-88941287D01*
X181347971Y-88922104D01*
X181434467Y-88898903D01*
X181441581Y-88896776D01*
X181485427Y-88882812D01*
X181531973Y-88866721D01*
X181578100Y-88849725D01*
X181620693Y-88833049D01*
X181656633Y-88817915D01*
X181682805Y-88805547D01*
X181696091Y-88797167D01*
X181696466Y-88796752D01*
X181699157Y-88785834D01*
X181699785Y-88761446D01*
X181698319Y-88722723D01*
X181694726Y-88668801D01*
X181688973Y-88598817D01*
X181688960Y-88598667D01*
X181679067Y-88482971D01*
X181669732Y-88368869D01*
X181661075Y-88258097D01*
X181653212Y-88152386D01*
X181646264Y-88053469D01*
X181640347Y-87963079D01*
X181635579Y-87882949D01*
X181632081Y-87814811D01*
X181629968Y-87760399D01*
X181629350Y-87725047D01*
X181629350Y-87614418D01*
X181699763Y-87552212D01*
X181783168Y-87476208D01*
X181852887Y-87407302D01*
X181910000Y-87344021D01*
X181955583Y-87284892D01*
X181990713Y-87228440D01*
X182016468Y-87173194D01*
X182033925Y-87117678D01*
X182040420Y-87086262D01*
X182045134Y-87011585D01*
X182033916Y-86940305D01*
X182007785Y-86873796D01*
X181967759Y-86813430D01*
X181914857Y-86760580D01*
X181850096Y-86716619D01*
X181774494Y-86682921D01*
X181731769Y-86670047D01*
X181701768Y-86661485D01*
X181677774Y-86653064D01*
X181665624Y-86647003D01*
X181660462Y-86635642D01*
X181657038Y-86610733D01*
X181655227Y-86570985D01*
X181654854Y-86534678D01*
X181651722Y-86453696D01*
X181641920Y-86386162D01*
X181624577Y-86329468D01*
X181598821Y-86281008D01*
X181563783Y-86238175D01*
X181551950Y-86226609D01*
X181492981Y-86181806D01*
X181427492Y-86150301D01*
X181358447Y-86132892D01*
X181288807Y-86130378D01*
X181232029Y-86140358D01*
X181183561Y-86159538D01*
X181130933Y-86189503D01*
X181079406Y-86226805D01*
X181034240Y-86267993D01*
X181029178Y-86273379D01*
X180999699Y-86301380D01*
X180974471Y-86315008D01*
X180951482Y-86313820D01*
X180928717Y-86297371D01*
X180904163Y-86265217D01*
X180890383Y-86242765D01*
X180845644Y-86180575D01*
X180791779Y-86129621D01*
X180731053Y-86091096D01*
X180665730Y-86066196D01*
X180598074Y-86056116D01*
X180543278Y-86059607D01*
X180476161Y-86076219D01*
X180412493Y-86102481D01*
X180356459Y-86136214D01*
X180312245Y-86175238D01*
X180305051Y-86183656D01*
X180272323Y-86230134D01*
X180249835Y-86277664D01*
X180236227Y-86330614D01*
X180230138Y-86393355D01*
X180229488Y-86426318D01*
X180228808Y-86462643D01*
X180227091Y-86492809D01*
X180224636Y-86512535D01*
X180223087Y-86517375D01*
X180205327Y-86533847D01*
X180178569Y-86541291D01*
X180140201Y-86540234D01*
X180122349Y-86537763D01*
X180048512Y-86534274D01*
X179977004Y-86547562D01*
X179908460Y-86577418D01*
X179843518Y-86623632D01*
X179833569Y-86632472D01*
X179777397Y-86694421D01*
X179736534Y-86762887D01*
X179711011Y-86836773D01*
X179700860Y-86914980D01*
X179575562Y-86914980D01*
X179576464Y-86864212D01*
X179580506Y-86834524D01*
X179585632Y-86802259D01*
X179586949Y-86780328D01*
X179583540Y-86762240D01*
X179574485Y-86741504D01*
X179564657Y-86722625D01*
X179545199Y-86673580D01*
X179539504Y-86628980D01*
X179546358Y-86590672D01*
X179564547Y-86560503D01*
X179592859Y-86540319D01*
X179630079Y-86531967D01*
X179674994Y-86537292D01*
X179684610Y-86540103D01*
X179727614Y-86553855D01*
X179774189Y-86515919D01*
X179846753Y-86466063D01*
X179922610Y-86431543D01*
X180000084Y-86413010D01*
X180047667Y-86409832D01*
X180101595Y-86409832D01*
X180101721Y-86377826D01*
X180105655Y-86336718D01*
X180116023Y-86287456D01*
X180131083Y-86236871D01*
X180149094Y-86191796D01*
X180149195Y-86191582D01*
X180173967Y-86149835D01*
X180208696Y-86105155D01*
X180248536Y-86063111D01*
X180288643Y-86029271D01*
X180293303Y-86025985D01*
X180312247Y-86011898D01*
X180323825Y-85998493D01*
X180330920Y-85980367D01*
X180336416Y-85952117D01*
X180337957Y-85942331D01*
X180348735Y-85893348D01*
X180364541Y-85858147D01*
X180386983Y-85833784D01*
X180402622Y-85823997D01*
X180436533Y-85815501D01*
X180472998Y-85822088D01*
X180509525Y-85842536D01*
X180543620Y-85875622D01*
X180562851Y-85902600D01*
X180575772Y-85920659D01*
X180589531Y-85929231D01*
X180611039Y-85931771D01*
X180621373Y-85931875D01*
X180688458Y-85939869D01*
X180757723Y-85963027D01*
X180826607Y-86000118D01*
X180892544Y-86049910D01*
X180919690Y-86075252D01*
X180947979Y-86103065D01*
X180967097Y-86120407D01*
X180979846Y-86128969D01*
X180989031Y-86130444D01*
X180997456Y-86126523D01*
X181000772Y-86124169D01*
X181077572Y-86072646D01*
X181147862Y-86035815D01*
X181166786Y-86027949D01*
X181196769Y-86017271D01*
X181224083Y-86010607D01*
X181254520Y-86007080D01*
X181293870Y-86005814D01*
X181313557Y-86005745D01*
X181353239Y-86006604D01*
X181388448Y-86008838D01*
X181414459Y-86012069D01*
X181424344Y-86014585D01*
X181438427Y-86018069D01*
X181453563Y-86014962D01*
X181474595Y-86003716D01*
X181490568Y-85993409D01*
X181534671Y-85969791D01*
X181577358Y-85959485D01*
X181578007Y-85959422D01*
X181604686Y-85958008D01*
X181622522Y-85962175D01*
X181639526Y-85974798D01*
X181650475Y-85985434D01*
X181668239Y-86005068D01*
X181677203Y-86022711D01*
X181680297Y-86045895D01*
X181680560Y-86062758D01*
X181679145Y-86093437D01*
X181675527Y-86120056D01*
X181672699Y-86130673D01*
X181670065Y-86144386D01*
X181673939Y-86160141D01*
X181685877Y-86182231D01*
X181698447Y-86201642D01*
X181735066Y-86269968D01*
X181761852Y-86349305D01*
X181777686Y-86435984D01*
X181780656Y-86471088D01*
X181783071Y-86509192D01*
X181785697Y-86533617D01*
X181789536Y-86547737D01*
X181795588Y-86554925D01*
X181804854Y-86558554D01*
X181806746Y-86559041D01*
X181840927Y-86570760D01*
X181882437Y-86589519D01*
X181924949Y-86612115D01*
X181962140Y-86635342D01*
X181973161Y-86643359D01*
X182013982Y-86674730D01*
X182060187Y-86661298D01*
X182098121Y-86653475D01*
X182130643Y-86652637D01*
X182135885Y-86653399D01*
X182166791Y-86666503D01*
X182194441Y-86690531D01*
X182212334Y-86719648D01*
X182213477Y-86723072D01*
X182214742Y-86749838D01*
X182206938Y-86784551D01*
X182191684Y-86821845D01*
X182175156Y-86850008D01*
X182160807Y-86872615D01*
X182155372Y-86889159D01*
X182157265Y-86907036D01*
X182160425Y-86918657D01*
X182166965Y-86954492D01*
X182170009Y-87001164D01*
X182169683Y-87052829D01*
X182166112Y-87103642D01*
X182159421Y-87147758D01*
X182155170Y-87164729D01*
X182125461Y-87243840D01*
X182083577Y-87321919D01*
X182028554Y-87400283D01*
X181959429Y-87480245D01*
X181875235Y-87563120D01*
X181838895Y-87595821D01*
X181747204Y-87676535D01*
X181752780Y-87770788D01*
X181755833Y-87819454D01*
X181759800Y-87877523D01*
X181764754Y-87945912D01*
X181770767Y-88025539D01*
X181777910Y-88117321D01*
X181786254Y-88222176D01*
X181795872Y-88341023D01*
X181806835Y-88474778D01*
X181819215Y-88624361D01*
X181822966Y-88669459D01*
X181826194Y-88699465D01*
X181829953Y-88721453D01*
X181833493Y-88731192D01*
X181833903Y-88731338D01*
X181842750Y-88726901D01*
X181863112Y-88714711D01*
X181892277Y-88696448D01*
X181927534Y-88673790D01*
X181941492Y-88664688D01*
X182087087Y-88559517D01*
X182220383Y-88443223D01*
X182341056Y-88316802D01*
X182448786Y-88181251D01*
X182543250Y-88037569D01*
X182624128Y-87886753D01*
X182691097Y-87729800D01*
X182743836Y-87567707D01*
X182782024Y-87401471D01*
X182805338Y-87232091D01*
X182813457Y-87060564D01*
X182806060Y-86887886D01*
X182782825Y-86715056D01*
X182743431Y-86543070D01*
X182687555Y-86372926D01*
X182683707Y-86362890D01*
X182611980Y-86200501D01*
X182526047Y-86046587D01*
X182426846Y-85901945D01*
X182315314Y-85767369D01*
X182192386Y-85643655D01*
X182059001Y-85531599D01*
X181916094Y-85431995D01*
X181764604Y-85345639D01*
X181605466Y-85273327D01*
X181439618Y-85215854D01*
X181287952Y-85177996D01*
X181109810Y-85149821D01*
X180932810Y-85138203D01*
X180757849Y-85142648D01*
X180585823Y-85162662D01*
X180417627Y-85197751D01*
X180254157Y-85247421D01*
X180096309Y-85311177D01*
X179944978Y-85388526D01*
X179801061Y-85478974D01*
X179665454Y-85582027D01*
X179539051Y-85697190D01*
X179422749Y-85823969D01*
X179317443Y-85961871D01*
X179224030Y-86110402D01*
X179143406Y-86269066D01*
X179094316Y-86387867D01*
X179049381Y-86522300D01*
X179015897Y-86657242D01*
X178993079Y-86796853D01*
X178980142Y-86945294D01*
X178977582Y-87007279D01*
X178826326Y-87007279D01*
X178826789Y-86962260D01*
X178829745Y-86882765D01*
X178835223Y-86811195D01*
X178843736Y-86743011D01*
X178855799Y-86673674D01*
X178871924Y-86598645D01*
X178882316Y-86554926D01*
X178933555Y-86380168D01*
X179000109Y-86211776D01*
X179081139Y-86050593D01*
X179175809Y-85897464D01*
X179283280Y-85753235D01*
X179402714Y-85618750D01*
X179533274Y-85494853D01*
X179674122Y-85382389D01*
X179824420Y-85282204D01*
X179983329Y-85195141D01*
X180150013Y-85122045D01*
X180323634Y-85063761D01*
X180375342Y-85049703D01*
X180473979Y-85026342D01*
X180566625Y-85009128D01*
X180659479Y-84997208D01*
X180758743Y-84989728D01*
X180832622Y-84986755D01*
X181019871Y-84988839D01*
G37*
D12*
%TO.C,C2*%
X152235000Y-75581252D02*
X152235000Y-75058748D01*
X153705000Y-75581252D02*
X153705000Y-75058748D01*
%TO.C,C5*%
X161690000Y-80469419D02*
X161690000Y-80750581D01*
X162710000Y-80469419D02*
X162710000Y-80750581D01*
%TO.C,C3*%
X154180000Y-75235581D02*
X154180000Y-74954419D01*
X155200000Y-75235581D02*
X155200000Y-74954419D01*
D10*
%TO.C,U1*%
X157114999Y-73790000D02*
X161265001Y-73790000D01*
X157114999Y-78940000D02*
X161265001Y-78940000D01*
D12*
X156515000Y-73890000D02*
X156275000Y-73560000D01*
X156755000Y-73559999D01*
X156515000Y-73890000D01*
G36*
X156515000Y-73890000D02*
G01*
X156275000Y-73560000D01*
X156755000Y-73559999D01*
X156515000Y-73890000D01*
G37*
%TD*%
M02*
