%TF.GenerationSoftware,KiCad,Pcbnew,8.0.7*%
%TF.CreationDate,2024-12-31T14:53:55+08:00*%
%TF.ProjectId,SB-fan-board,53422d66-616e-42d6-926f-6172642e6b69,B0*%
%TF.SameCoordinates,Original*%
%TF.FileFunction,Copper,L1,Top*%
%TF.FilePolarity,Positive*%
%FSLAX46Y46*%
G04 Gerber Fmt 4.6, Leading zero omitted, Abs format (unit mm)*
G04 Created by KiCad (PCBNEW 8.0.7) date 2024-12-31 14:53:55*
%MOMM*%
%LPD*%
G01*
G04 APERTURE LIST*
G04 Aperture macros list*
%AMRoundRect*
0 Rectangle with rounded corners*
0 $1 Rounding radius*
0 $2 $3 $4 $5 $6 $7 $8 $9 X,Y pos of 4 corners*
0 Add a 4 corners polygon primitive as box body*
4,1,4,$2,$3,$4,$5,$6,$7,$8,$9,$2,$3,0*
0 Add four circle primitives for the rounded corners*
1,1,$1+$1,$2,$3*
1,1,$1+$1,$4,$5*
1,1,$1+$1,$6,$7*
1,1,$1+$1,$8,$9*
0 Add four rect primitives between the rounded corners*
20,1,$1+$1,$2,$3,$4,$5,0*
20,1,$1+$1,$4,$5,$6,$7,0*
20,1,$1+$1,$6,$7,$8,$9,0*
20,1,$1+$1,$8,$9,$2,$3,0*%
G04 Aperture macros list end*
%TA.AperFunction,SMDPad,CuDef*%
%ADD10RoundRect,0.200000X-0.200000X-0.275000X0.200000X-0.275000X0.200000X0.275000X-0.200000X0.275000X0*%
%TD*%
%TA.AperFunction,SMDPad,CuDef*%
%ADD11R,1.100000X3.700000*%
%TD*%
%TA.AperFunction,SMDPad,CuDef*%
%ADD12RoundRect,0.200000X-0.275000X0.200000X-0.275000X-0.200000X0.275000X-0.200000X0.275000X0.200000X0*%
%TD*%
%TA.AperFunction,ComponentPad*%
%ADD13C,5.500000*%
%TD*%
%TA.AperFunction,SMDPad,CuDef*%
%ADD14RoundRect,0.200000X0.200000X1.550000X-0.200000X1.550000X-0.200000X-1.550000X0.200000X-1.550000X0*%
%TD*%
%TA.AperFunction,SMDPad,CuDef*%
%ADD15RoundRect,0.150000X0.150000X-0.512500X0.150000X0.512500X-0.150000X0.512500X-0.150000X-0.512500X0*%
%TD*%
%TA.AperFunction,SMDPad,CuDef*%
%ADD16RoundRect,0.225000X-0.225000X-0.250000X0.225000X-0.250000X0.225000X0.250000X-0.225000X0.250000X0*%
%TD*%
%TA.AperFunction,SMDPad,CuDef*%
%ADD17RoundRect,0.225000X0.225000X0.250000X-0.225000X0.250000X-0.225000X-0.250000X0.225000X-0.250000X0*%
%TD*%
%TA.AperFunction,SMDPad,CuDef*%
%ADD18RoundRect,0.200000X0.200000X0.275000X-0.200000X0.275000X-0.200000X-0.275000X0.200000X-0.275000X0*%
%TD*%
%TA.AperFunction,SMDPad,CuDef*%
%ADD19R,0.550000X1.600000*%
%TD*%
%TA.AperFunction,SMDPad,CuDef*%
%ADD20RoundRect,0.225000X0.250000X-0.225000X0.250000X0.225000X-0.250000X0.225000X-0.250000X-0.225000X0*%
%TD*%
%TA.AperFunction,SMDPad,CuDef*%
%ADD21RoundRect,0.200000X0.275000X-0.200000X0.275000X0.200000X-0.275000X0.200000X-0.275000X-0.200000X0*%
%TD*%
%TA.AperFunction,SMDPad,CuDef*%
%ADD22RoundRect,0.250000X-0.475000X0.250000X-0.475000X-0.250000X0.475000X-0.250000X0.475000X0.250000X0*%
%TD*%
%TA.AperFunction,SMDPad,CuDef*%
%ADD23RoundRect,0.200000X-0.200000X-1.550000X0.200000X-1.550000X0.200000X1.550000X-0.200000X1.550000X0*%
%TD*%
%TA.AperFunction,SMDPad,CuDef*%
%ADD24R,2.000000X1.000000*%
%TD*%
%TA.AperFunction,SMDPad,CuDef*%
%ADD25RoundRect,0.250000X0.250000X0.475000X-0.250000X0.475000X-0.250000X-0.475000X0.250000X-0.475000X0*%
%TD*%
%TA.AperFunction,SMDPad,CuDef*%
%ADD26RoundRect,0.250000X-0.250000X-0.475000X0.250000X-0.475000X0.250000X0.475000X-0.250000X0.475000X0*%
%TD*%
%TA.AperFunction,SMDPad,CuDef*%
%ADD27RoundRect,0.250000X0.650000X-0.325000X0.650000X0.325000X-0.650000X0.325000X-0.650000X-0.325000X0*%
%TD*%
%TA.AperFunction,SMDPad,CuDef*%
%ADD28RoundRect,0.225000X-0.250000X0.225000X-0.250000X-0.225000X0.250000X-0.225000X0.250000X0.225000X0*%
%TD*%
%TA.AperFunction,SMDPad,CuDef*%
%ADD29R,1.550000X0.600000*%
%TD*%
%TA.AperFunction,SMDPad,CuDef*%
%ADD30R,2.950000X4.900000*%
%TD*%
%TA.AperFunction,ViaPad*%
%ADD31C,0.500000*%
%TD*%
%TA.AperFunction,Conductor*%
%ADD32C,0.381000*%
%TD*%
%TA.AperFunction,Conductor*%
%ADD33C,0.127000*%
%TD*%
%TA.AperFunction,Conductor*%
%ADD34C,0.203200*%
%TD*%
%TA.AperFunction,Conductor*%
%ADD35C,0.254000*%
%TD*%
G04 APERTURE END LIST*
D10*
%TO.P,R2,1*%
%TO.N,Net-(U1-FB)*%
X165115000Y-78840000D03*
%TO.P,R2,2*%
%TO.N,+12V*%
X166765000Y-78840000D03*
%TD*%
D11*
%TO.P,L1,1*%
%TO.N,Net-(U1-SW)*%
X163740000Y-75860000D03*
%TO.P,L1,2*%
%TO.N,+12V*%
X166740000Y-75860000D03*
%TD*%
D12*
%TO.P,R3,1*%
%TO.N,Net-(U1-FB)*%
X163680000Y-78775000D03*
%TO.P,R3,2*%
%TO.N,GND*%
X163680000Y-80425000D03*
%TD*%
D13*
%TO.P,H1,1,1*%
%TO.N,GND*%
X145200000Y-71200000D03*
%TD*%
D14*
%TO.P,J2,1,Pin_1*%
%TO.N,+12V*%
X168600000Y-86147127D03*
%TO.P,J2,2,Pin_2*%
%TO.N,/FAN0_DET*%
X166600000Y-86147127D03*
%TO.P,J2,3,Pin_3*%
%TO.N,/FAN0_PWM*%
X164600000Y-86147127D03*
%TO.P,J2,4,Pin_4*%
%TO.N,GND*%
X162600000Y-86147127D03*
%TD*%
D15*
%TO.P,U2,1,GND*%
%TO.N,GND*%
X155080001Y-83307500D03*
%TO.P,U2,2,SW*%
%TO.N,Net-(U2-SW)*%
X156030000Y-83307500D03*
%TO.P,U2,3,VIN*%
%TO.N,+12V*%
X156979999Y-83307500D03*
%TO.P,U2,4,VFB*%
%TO.N,Net-(U2-VFB)*%
X156979999Y-81032500D03*
%TO.P,U2,5,EN*%
%TO.N,Net-(U2-EN)*%
X156030000Y-81032500D03*
%TO.P,U2,6,VBST*%
%TO.N,Net-(U2-VBST)*%
X155080001Y-81032500D03*
%TD*%
D16*
%TO.P,C1,1*%
%TO.N,Net-(U1-BOOT)*%
X161640000Y-72860000D03*
%TO.P,C1,2*%
%TO.N,Net-(U1-SW)*%
X163190000Y-72860000D03*
%TD*%
D17*
%TO.P,C6,1*%
%TO.N,Net-(U2-VBST)*%
X153625000Y-80850000D03*
%TO.P,C6,2*%
%TO.N,Net-(U2-SW)*%
X152075000Y-80850000D03*
%TD*%
D10*
%TO.P,R1,1*%
%TO.N,+24V*%
X153125000Y-77750000D03*
%TO.P,R1,2*%
%TO.N,Net-(U1-EN)*%
X154775000Y-77750000D03*
%TD*%
%TO.P,R6,1*%
%TO.N,Net-(U2-VFB)*%
X158415000Y-79900000D03*
%TO.P,R6,2*%
%TO.N,GND*%
X160065000Y-79900000D03*
%TD*%
D14*
%TO.P,J3,1,Pin_1*%
%TO.N,+3V3*%
X158600000Y-86126727D03*
%TO.P,J3,2,Pin_2*%
%TO.N,/NEO*%
X156600000Y-86126727D03*
%TO.P,J3,3,Pin_3*%
%TO.N,GND*%
X154600000Y-86126727D03*
%TD*%
D18*
%TO.P,R5,1*%
%TO.N,Net-(U2-VFB)*%
X154765000Y-79360000D03*
%TO.P,R5,2*%
%TO.N,+3V3*%
X153115000Y-79360000D03*
%TD*%
D19*
%TO.P,L2,1*%
%TO.N,Net-(U2-SW)*%
X153804999Y-83150000D03*
%TO.P,L2,2*%
%TO.N,+3V3*%
X152355001Y-83150000D03*
%TD*%
D20*
%TO.P,C8,1*%
%TO.N,+12V*%
X159960000Y-83515000D03*
%TO.P,C8,2*%
%TO.N,GND*%
X159960000Y-81965000D03*
%TD*%
D21*
%TO.P,R4,1*%
%TO.N,+12V*%
X158470000Y-83570000D03*
%TO.P,R4,2*%
%TO.N,Net-(U2-EN)*%
X158470000Y-81920000D03*
%TD*%
D22*
%TO.P,C9,1*%
%TO.N,+3V3*%
X152810000Y-85000001D03*
%TO.P,C9,2*%
%TO.N,GND*%
X152810000Y-86899999D03*
%TD*%
D23*
%TO.P,J1,1,Pin_1*%
%TO.N,+12V*%
X169750000Y-80139600D03*
%TO.P,J1,2,Pin_2*%
%TO.N,/FAN1_DET*%
X171750000Y-80139600D03*
%TO.P,J1,3,Pin_3*%
%TO.N,/FAN1_PWM*%
X173750000Y-80139600D03*
%TO.P,J1,4,Pin_4*%
%TO.N,GND*%
X175750000Y-80139600D03*
%TD*%
D24*
%TO.P,J4,1,Pin_1*%
%TO.N,/FAN0_DET*%
X144041000Y-86929000D03*
%TO.P,J4,2,Pin_2*%
%TO.N,/NEO*%
X148641000Y-86929000D03*
%TO.P,J4,3,Pin_3*%
%TO.N,/FAN0_PWM*%
X144041000Y-84929000D03*
%TO.P,J4,4,Pin_4*%
%TO.N,/FAN1_PWM*%
X148641000Y-84929000D03*
%TO.P,J4,5,Pin_5*%
%TO.N,unconnected-(J4-Pin_5-Pad5)*%
X144041000Y-82929000D03*
%TO.P,J4,6,Pin_6*%
%TO.N,/FAN1_DET*%
X148641000Y-82929000D03*
%TO.P,J4,7,Pin_7*%
%TO.N,unconnected-(J4-Pin_7-Pad7)*%
X144041000Y-80929000D03*
%TO.P,J4,8,Pin_8*%
%TO.N,unconnected-(J4-Pin_8-Pad8)*%
X148641000Y-80929000D03*
%TO.P,J4,9,Pin_9*%
%TO.N,GND*%
X144041000Y-78929000D03*
%TO.P,J4,10,Pin_10*%
X148641000Y-78929000D03*
%TO.P,J4,11,Pin_11*%
%TO.N,+24V*%
X144041000Y-76929000D03*
%TO.P,J4,12,Pin_12*%
%TO.N,GND*%
X148641000Y-76929000D03*
%TD*%
D13*
%TO.P,H2,1,1*%
%TO.N,GND*%
X190780000Y-100258000D03*
%TD*%
D25*
%TO.P,C4,1*%
%TO.N,+12V*%
X167100000Y-80570000D03*
%TO.P,C4,2*%
%TO.N,GND*%
X165200002Y-80570000D03*
%TD*%
D26*
%TO.P,C7,1*%
%TO.N,+12V*%
X161440001Y-83230000D03*
%TO.P,C7,2*%
%TO.N,GND*%
X163339999Y-83230000D03*
%TD*%
D27*
%TO.P,C2,1*%
%TO.N,+24V*%
X152810200Y-76184800D03*
%TO.P,C2,2*%
%TO.N,GND*%
X152810200Y-73234800D03*
%TD*%
D28*
%TO.P,C5,1*%
%TO.N,Net-(U1-VCC)*%
X162200000Y-79835000D03*
%TO.P,C5,2*%
%TO.N,GND*%
X162200000Y-81385000D03*
%TD*%
D20*
%TO.P,C3,1*%
%TO.N,+24V*%
X154690000Y-75730000D03*
%TO.P,C3,2*%
%TO.N,GND*%
X154690000Y-74180000D03*
%TD*%
D29*
%TO.P,U1,1,GND*%
%TO.N,GND*%
X156490000Y-74460000D03*
%TO.P,U1,2,VIN*%
%TO.N,+24V*%
X156490000Y-75730000D03*
%TO.P,U1,3,EN*%
%TO.N,Net-(U1-EN)*%
X156490000Y-77000000D03*
%TO.P,U1,4,PG*%
%TO.N,unconnected-(U1-PG-Pad4)*%
X156490000Y-78270000D03*
%TO.P,U1,5,FB*%
%TO.N,Net-(U1-FB)*%
X161890000Y-78270000D03*
%TO.P,U1,6,VCC*%
%TO.N,Net-(U1-VCC)*%
X161890000Y-77000000D03*
%TO.P,U1,7,BOOT*%
%TO.N,Net-(U1-BOOT)*%
X161890000Y-75730000D03*
%TO.P,U1,8,SW*%
%TO.N,Net-(U1-SW)*%
X161890000Y-74460000D03*
D30*
%TO.P,U1,9,GND*%
%TO.N,GND*%
X159190000Y-76365000D03*
%TD*%
D31*
%TO.N,/FAN0_DET*%
X145159000Y-86929000D03*
X166600000Y-87620400D03*
%TO.N,/FAN0_PWM*%
X145159000Y-84929000D03*
X164600000Y-87620400D03*
%TO.N,/FAN1_PWM*%
X149759000Y-84929000D03*
X173750000Y-78666327D03*
%TO.N,/FAN1_DET*%
X171750000Y-78666327D03*
X149759000Y-82929000D03*
%TO.N,/NEO*%
X149759000Y-86909000D03*
X156600000Y-87600000D03*
%TO.N,GND*%
X145740000Y-81440000D03*
X159220000Y-80970000D03*
X151160000Y-77850000D03*
X162520000Y-83650000D03*
X159952000Y-74079000D03*
X158428000Y-74079000D03*
X159952000Y-77127000D03*
X156690000Y-73520000D03*
X158428000Y-77127000D03*
X168420000Y-79710000D03*
X174830000Y-80210000D03*
X159190000Y-77889000D03*
X165900000Y-79640000D03*
X160410000Y-86940000D03*
X146390000Y-79680000D03*
X146290000Y-78220000D03*
X148760000Y-79880000D03*
X151950000Y-88200000D03*
X159952000Y-78651000D03*
X151090000Y-85090000D03*
X159190000Y-76365000D03*
X163800000Y-81410000D03*
X151830000Y-75110000D03*
X164320000Y-79580000D03*
X148660000Y-77850000D03*
X159190000Y-74841000D03*
X161070000Y-85300000D03*
X158428000Y-78651000D03*
X159952000Y-75603000D03*
X146680000Y-83080000D03*
X154630000Y-84160000D03*
X151260000Y-74160000D03*
X159340000Y-80100000D03*
X161050000Y-80960000D03*
X165750000Y-83370000D03*
X158428000Y-75603000D03*
X144110000Y-79910000D03*
X167670000Y-82670000D03*
%TO.N,+3V3*%
X158600000Y-84650000D03*
X153669999Y-85000001D03*
%TD*%
D32*
%TO.N,+24V*%
X146750000Y-75670000D02*
X150570000Y-75670000D01*
X150570000Y-75670000D02*
X151084800Y-76184800D01*
X151084800Y-76184800D02*
X152810200Y-76184800D01*
X145491000Y-76929000D02*
X146750000Y-75670000D01*
X144041000Y-76929000D02*
X145491000Y-76929000D01*
%TO.N,+12V*%
X167100000Y-80570000D02*
X169750000Y-80570000D01*
X165457100Y-82212900D02*
X167100000Y-80570000D01*
X161440001Y-83230000D02*
X162457101Y-82212900D01*
X168600000Y-83400000D02*
X169750000Y-82250000D01*
X168600000Y-86147127D02*
X168600000Y-83400000D01*
X169750000Y-82250000D02*
X169750000Y-80139600D01*
X162457101Y-82212900D02*
X165457100Y-82212900D01*
D33*
%TO.N,/FAN0_DET*%
X144041000Y-86929000D02*
X145159000Y-86929000D01*
%TO.N,/FAN0_PWM*%
X144041000Y-84929000D02*
X145159000Y-84929000D01*
%TO.N,/FAN1_PWM*%
X148641000Y-84929000D02*
X149759000Y-84929000D01*
%TO.N,/FAN1_DET*%
X148641000Y-82929000D02*
X149759000Y-82929000D01*
%TO.N,/NEO*%
X148641000Y-86909000D02*
X149759000Y-86909000D01*
D32*
%TO.N,+3V3*%
X151910000Y-79360000D02*
X153115000Y-79360000D01*
X152355001Y-82342525D02*
X151332900Y-81320424D01*
X152810000Y-85000001D02*
X153669999Y-85000001D01*
X151332900Y-81320424D02*
X151332900Y-79937100D01*
X151332900Y-79937100D02*
X151910000Y-79360000D01*
X152355001Y-83150000D02*
X152355001Y-82342525D01*
D34*
%TO.N,Net-(U1-EN)*%
X155525000Y-77000000D02*
X154775000Y-77750000D01*
X156490000Y-77000000D02*
X155525000Y-77000000D01*
%TO.N,Net-(U1-BOOT)*%
X161210000Y-75730000D02*
X160911800Y-75431800D01*
X161180000Y-72860000D02*
X161640000Y-72860000D01*
X160911800Y-75431800D02*
X160911800Y-73128200D01*
X161890000Y-75730000D02*
X161210000Y-75730000D01*
X160911800Y-73128200D02*
X161180000Y-72860000D01*
%TO.N,Net-(U1-VCC)*%
X162200000Y-79835000D02*
X161525000Y-79835000D01*
X160911800Y-77298200D02*
X161210000Y-77000000D01*
X161210000Y-77000000D02*
X161890000Y-77000000D01*
X161525000Y-79835000D02*
X160911800Y-79221800D01*
X160911800Y-79221800D02*
X160911800Y-77298200D01*
D35*
%TO.N,Net-(U1-FB)*%
X161890000Y-78270000D02*
X162670000Y-78270000D01*
X162670000Y-78270000D02*
X163175000Y-78775000D01*
X163175000Y-78775000D02*
X163680000Y-78775000D01*
X165115000Y-78840000D02*
X163745000Y-78840000D01*
D34*
%TO.N,Net-(U2-SW)*%
X153015000Y-81790000D02*
X153560000Y-81790000D01*
X152075000Y-80850000D02*
X153015000Y-81790000D01*
X153804999Y-82034999D02*
X153804999Y-83150000D01*
X153560000Y-81790000D02*
X153804999Y-82034999D01*
%TO.N,Net-(U2-VBST)*%
X154240000Y-80850000D02*
X154422500Y-81032500D01*
X154422500Y-81032500D02*
X155080001Y-81032500D01*
X153625000Y-80850000D02*
X154240000Y-80850000D01*
D33*
%TO.N,Net-(U2-EN)*%
X156030000Y-81694999D02*
X156255001Y-81920000D01*
X156030000Y-81032500D02*
X156030000Y-81694999D01*
X156255001Y-81920000D02*
X158470000Y-81920000D01*
D34*
%TO.N,Net-(U2-VFB)*%
X156049998Y-79360000D02*
X156979999Y-80290001D01*
X154765000Y-79360000D02*
X156049998Y-79360000D01*
X157370000Y-79900000D02*
X158415000Y-79900000D01*
X156979999Y-80290001D02*
X157370000Y-79900000D01*
X156979999Y-81032500D02*
X156979999Y-80290001D01*
%TD*%
%TA.AperFunction,Conductor*%
%TO.N,/FAN1_DET*%
G36*
X149667829Y-82708782D02*
G01*
X149758109Y-82924483D01*
X149758142Y-82933437D01*
X149758109Y-82933517D01*
X149667829Y-83149217D01*
X149661473Y-83155526D01*
X149652559Y-83155509D01*
X149266223Y-82995491D01*
X149259891Y-82989160D01*
X149259000Y-82984682D01*
X149259000Y-82873317D01*
X149262427Y-82865044D01*
X149266221Y-82862508D01*
X149652561Y-82702490D01*
X149661514Y-82702490D01*
X149667829Y-82708782D01*
G37*
%TD.AperFunction*%
%TD*%
%TA.AperFunction,Conductor*%
%TO.N,+12V*%
G36*
X161920504Y-82523831D02*
G01*
X161939979Y-82567522D01*
X161940001Y-82569185D01*
X161940001Y-83892812D01*
X161921695Y-83937006D01*
X161877814Y-83955311D01*
X158945200Y-83969999D01*
X158944887Y-83970000D01*
X156742499Y-83970000D01*
X156698305Y-83951694D01*
X156679999Y-83907500D01*
X156679999Y-82705858D01*
X156698305Y-82661664D01*
X156740834Y-82643380D01*
X161875839Y-82506707D01*
X161920504Y-82523831D01*
G37*
%TD.AperFunction*%
%TD*%
%TA.AperFunction,Conductor*%
%TO.N,Net-(U2-SW)*%
G36*
X155678306Y-81853305D02*
G01*
X156311694Y-82486694D01*
X156330000Y-82530887D01*
X156330000Y-83907500D01*
X156311694Y-83951694D01*
X156267500Y-83970000D01*
X155563034Y-83970000D01*
X155518840Y-83951694D01*
X155500534Y-83907500D01*
X155504355Y-83889378D01*
X155503576Y-83889166D01*
X155504810Y-83884631D01*
X155507500Y-83861441D01*
X155507501Y-83861439D01*
X155507501Y-82753560D01*
X155507500Y-82753558D01*
X155504810Y-82730370D01*
X155504808Y-82730364D01*
X155462906Y-82635461D01*
X155462903Y-82635457D01*
X155389543Y-82562097D01*
X155389539Y-82562094D01*
X155294636Y-82520192D01*
X155294630Y-82520190D01*
X155271441Y-82517500D01*
X155271433Y-82517500D01*
X154888569Y-82517500D01*
X154888561Y-82517500D01*
X154865371Y-82520190D01*
X154865365Y-82520192D01*
X154770462Y-82562094D01*
X154770458Y-82562097D01*
X154697098Y-82635457D01*
X154697095Y-82635461D01*
X154655193Y-82730364D01*
X154655191Y-82730370D01*
X154652501Y-82753558D01*
X154652501Y-83409112D01*
X154634195Y-83453306D01*
X154155807Y-83931694D01*
X154111613Y-83950000D01*
X153592499Y-83950000D01*
X153548305Y-83931694D01*
X153529999Y-83887500D01*
X153529999Y-82325889D01*
X153548305Y-82281695D01*
X153976694Y-81853306D01*
X154020888Y-81835000D01*
X155634113Y-81835000D01*
X155678306Y-81853305D01*
G37*
%TD.AperFunction*%
%TD*%
%TA.AperFunction,Conductor*%
%TO.N,Net-(U1-SW)*%
G36*
X163621694Y-72403306D02*
G01*
X163640000Y-72447500D01*
X163640000Y-73335000D01*
X164272520Y-73991848D01*
X164290000Y-74035200D01*
X164290000Y-77647500D01*
X164271694Y-77691694D01*
X164227500Y-77710000D01*
X163242359Y-77710000D01*
X163198165Y-77691694D01*
X163180826Y-77658451D01*
X162793467Y-75481861D01*
X162792500Y-75470910D01*
X162792500Y-75417442D01*
X162785102Y-75380252D01*
X162779126Y-75371309D01*
X162769562Y-75347541D01*
X162665000Y-74760000D01*
X161203400Y-74760000D01*
X161159206Y-74741694D01*
X161140900Y-74697500D01*
X161140900Y-74185212D01*
X161159206Y-74141018D01*
X161175101Y-74129486D01*
X162740000Y-73335000D01*
X162740000Y-72447500D01*
X162758306Y-72403306D01*
X162802500Y-72385000D01*
X163577500Y-72385000D01*
X163621694Y-72403306D01*
G37*
%TD.AperFunction*%
%TD*%
%TA.AperFunction,Conductor*%
%TO.N,/FAN0_DET*%
G36*
X145067829Y-86708782D02*
G01*
X145158109Y-86924483D01*
X145158142Y-86933437D01*
X145158109Y-86933517D01*
X145067829Y-87149217D01*
X145061473Y-87155526D01*
X145052559Y-87155509D01*
X144666223Y-86995491D01*
X144659891Y-86989160D01*
X144659000Y-86984682D01*
X144659000Y-86873317D01*
X144662427Y-86865044D01*
X144666221Y-86862508D01*
X145052561Y-86702490D01*
X145061514Y-86702490D01*
X145067829Y-86708782D01*
G37*
%TD.AperFunction*%
%TD*%
%TA.AperFunction,Conductor*%
%TO.N,/FAN0_PWM*%
G36*
X145067829Y-84708782D02*
G01*
X145158109Y-84924483D01*
X145158142Y-84933437D01*
X145158109Y-84933517D01*
X145067829Y-85149217D01*
X145061473Y-85155526D01*
X145052559Y-85155509D01*
X144666223Y-84995491D01*
X144659891Y-84989160D01*
X144659000Y-84984682D01*
X144659000Y-84873317D01*
X144662427Y-84865044D01*
X144666221Y-84862508D01*
X145052561Y-84702490D01*
X145061514Y-84702490D01*
X145067829Y-84708782D01*
G37*
%TD.AperFunction*%
%TD*%
%TA.AperFunction,Conductor*%
%TO.N,/FAN1_PWM*%
G36*
X149667829Y-84708782D02*
G01*
X149758109Y-84924483D01*
X149758142Y-84933437D01*
X149758109Y-84933517D01*
X149667829Y-85149217D01*
X149661473Y-85155526D01*
X149652559Y-85155509D01*
X149266223Y-84995491D01*
X149259891Y-84989160D01*
X149259000Y-84984682D01*
X149259000Y-84873317D01*
X149262427Y-84865044D01*
X149266221Y-84862508D01*
X149652561Y-84702490D01*
X149661514Y-84702490D01*
X149667829Y-84708782D01*
G37*
%TD.AperFunction*%
%TD*%
%TA.AperFunction,Conductor*%
%TO.N,+3V3*%
G36*
X152611695Y-82368306D02*
G01*
X152630001Y-82412500D01*
X152630001Y-83950000D01*
X153024113Y-83950000D01*
X153068307Y-83968306D01*
X153516694Y-84416693D01*
X153535000Y-84460887D01*
X153535000Y-85437501D01*
X153516694Y-85481695D01*
X153472500Y-85500001D01*
X152142501Y-85500001D01*
X152098307Y-85481695D01*
X152080001Y-85437501D01*
X152080001Y-82412500D01*
X152098307Y-82368306D01*
X152142501Y-82350000D01*
X152567501Y-82350000D01*
X152611695Y-82368306D01*
G37*
%TD.AperFunction*%
%TD*%
%TA.AperFunction,Conductor*%
%TO.N,+12V*%
G36*
X167271694Y-74028306D02*
G01*
X167290000Y-74072500D01*
X167290000Y-77710000D01*
X167599351Y-79840530D01*
X167600000Y-79849511D01*
X167600000Y-81232500D01*
X167581694Y-81276694D01*
X167537500Y-81295000D01*
X166655759Y-81295000D01*
X166611565Y-81276694D01*
X166593664Y-81239602D01*
X166190405Y-77713541D01*
X166190000Y-77706439D01*
X166190000Y-74072500D01*
X166208306Y-74028306D01*
X166252500Y-74010000D01*
X167227500Y-74010000D01*
X167271694Y-74028306D01*
G37*
%TD.AperFunction*%
%TD*%
%TA.AperFunction,Conductor*%
%TO.N,/NEO*%
G36*
X149667829Y-86688782D02*
G01*
X149758109Y-86904483D01*
X149758142Y-86913437D01*
X149758109Y-86913517D01*
X149667829Y-87129217D01*
X149661473Y-87135526D01*
X149652559Y-87135509D01*
X149266223Y-86975491D01*
X149259891Y-86969160D01*
X149259000Y-86964682D01*
X149259000Y-86853317D01*
X149262427Y-86845044D01*
X149266221Y-86842508D01*
X149652561Y-86682490D01*
X149661514Y-86682490D01*
X149667829Y-86688782D01*
G37*
%TD.AperFunction*%
%TD*%
%TA.AperFunction,Conductor*%
%TO.N,+24V*%
G36*
X155167226Y-75280159D02*
G01*
X157206954Y-75425853D01*
X157249731Y-75447261D01*
X157265000Y-75488194D01*
X157265000Y-75971805D01*
X157246694Y-76015999D01*
X157206953Y-76034146D01*
X155165000Y-76179999D01*
X153543764Y-78201602D01*
X153501834Y-78224626D01*
X153495006Y-78225000D01*
X152761757Y-78225000D01*
X152717563Y-78206694D01*
X152707135Y-78192875D01*
X151918078Y-76773966D01*
X151910200Y-76743591D01*
X151910200Y-75663993D01*
X151928506Y-75619799D01*
X151963845Y-75602123D01*
X154210597Y-75280629D01*
X154219450Y-75280000D01*
X155162773Y-75280000D01*
X155167226Y-75280159D01*
G37*
%TD.AperFunction*%
%TD*%
%TA.AperFunction,Conductor*%
%TO.N,GND*%
G36*
X186552015Y-72364606D02*
G01*
X186820132Y-72378713D01*
X186826196Y-72379332D01*
X187090243Y-72419354D01*
X187096218Y-72420562D01*
X187355090Y-72486189D01*
X187360924Y-72487976D01*
X187612147Y-72578582D01*
X187617780Y-72580931D01*
X187640820Y-72591890D01*
X187858941Y-72695643D01*
X187864326Y-72698536D01*
X188093123Y-72836259D01*
X188098201Y-72839664D01*
X188312450Y-72999083D01*
X188317170Y-73002968D01*
X188515721Y-73183375D01*
X188517933Y-73185485D01*
X188545241Y-73212852D01*
X188545242Y-73212852D01*
X188549358Y-73216977D01*
X188549790Y-73217332D01*
X188789123Y-73456609D01*
X192689166Y-77355732D01*
X192695237Y-77361801D01*
X192699461Y-77366870D01*
X192701041Y-77368404D01*
X192701042Y-77368405D01*
X192728308Y-77394873D01*
X192728906Y-77395462D01*
X192729329Y-77395885D01*
X192730807Y-77397414D01*
X192914517Y-77594075D01*
X192918464Y-77598738D01*
X193081256Y-77811293D01*
X193084729Y-77816318D01*
X193225999Y-78043756D01*
X193228963Y-78049093D01*
X193250273Y-78092318D01*
X193347358Y-78289243D01*
X193349788Y-78294847D01*
X193444174Y-78545405D01*
X193446045Y-78551220D01*
X193515518Y-78809785D01*
X193516813Y-78815755D01*
X193560714Y-79079872D01*
X193561420Y-79085940D01*
X193579360Y-79353550D01*
X193579500Y-79357730D01*
X193579500Y-100176509D01*
X193578988Y-100182057D01*
X193579492Y-100222923D01*
X193579436Y-100226457D01*
X193565664Y-100537528D01*
X193564952Y-100544564D01*
X193516411Y-100850311D01*
X193514909Y-100857221D01*
X193432139Y-101155529D01*
X193429866Y-101162225D01*
X193313929Y-101449272D01*
X193310914Y-101455669D01*
X193163290Y-101727789D01*
X193159571Y-101733804D01*
X192982157Y-101987499D01*
X192977783Y-101993055D01*
X192772850Y-102225082D01*
X192767877Y-102230109D01*
X192538036Y-102437508D01*
X192532526Y-102441941D01*
X192280733Y-102622046D01*
X192274758Y-102625828D01*
X192004230Y-102776336D01*
X191997866Y-102779419D01*
X191712072Y-102898404D01*
X191705400Y-102900748D01*
X191407982Y-102986690D01*
X191401089Y-102988266D01*
X191095880Y-103040059D01*
X191088852Y-103040846D01*
X190779740Y-103057829D01*
X190772668Y-103057817D01*
X190463615Y-103039774D01*
X190456590Y-103038963D01*
X190151557Y-102986124D01*
X190144669Y-102984525D01*
X189847557Y-102897567D01*
X189840893Y-102895200D01*
X189555498Y-102775232D01*
X189549145Y-102772127D01*
X189277556Y-102619806D01*
X189274593Y-102618035D01*
X189274224Y-102617799D01*
X189274172Y-102617726D01*
X189274155Y-102617755D01*
X189237581Y-102594429D01*
X189237499Y-102594387D01*
X178241302Y-95584163D01*
X178207672Y-95562723D01*
X178200143Y-95557923D01*
X178200141Y-95557922D01*
X178169164Y-95538174D01*
X178168956Y-95538067D01*
X178086955Y-95485800D01*
X177963504Y-95407111D01*
X177678877Y-95247605D01*
X177458343Y-95124016D01*
X176937930Y-94870029D01*
X176937925Y-94870027D01*
X176403952Y-94645972D01*
X176000722Y-94503094D01*
X175858125Y-94452567D01*
X175858110Y-94452562D01*
X175858105Y-94452561D01*
X175302208Y-94290434D01*
X174737987Y-94160096D01*
X174737985Y-94160095D01*
X174228314Y-94072467D01*
X174167277Y-94061973D01*
X173591924Y-93996381D01*
X173591919Y-93996380D01*
X173591913Y-93996380D01*
X173591909Y-93996379D01*
X173013789Y-93963531D01*
X173013785Y-93963530D01*
X172770476Y-93963512D01*
X172770444Y-93963509D01*
X172764117Y-93963509D01*
X170863000Y-93963509D01*
X170818806Y-93945203D01*
X170800500Y-93901009D01*
X170800500Y-88082847D01*
X170800500Y-88082845D01*
X170769976Y-88009153D01*
X170713574Y-87952751D01*
X170639882Y-87922227D01*
X170639881Y-87922227D01*
X169154496Y-87922227D01*
X169110302Y-87903921D01*
X169091996Y-87859727D01*
X169097852Y-87833313D01*
X169099738Y-87829266D01*
X169121221Y-87783198D01*
X169127500Y-87735502D01*
X169127499Y-84558753D01*
X169121221Y-84511056D01*
X169072411Y-84406383D01*
X169072409Y-84406381D01*
X169072409Y-84406380D01*
X168990746Y-84324717D01*
X168990747Y-84324717D01*
X168954085Y-84307621D01*
X168921769Y-84272352D01*
X168918000Y-84250977D01*
X168918000Y-83557608D01*
X168936306Y-83513414D01*
X170004458Y-82445262D01*
X170004463Y-82445257D01*
X170043347Y-82377909D01*
X170046328Y-82372746D01*
X170046329Y-82372743D01*
X170055885Y-82337078D01*
X170068000Y-82291865D01*
X170068000Y-82208135D01*
X170068000Y-82035748D01*
X170086306Y-81991554D01*
X170104085Y-81979105D01*
X170140744Y-81962011D01*
X170222411Y-81880344D01*
X170271221Y-81775671D01*
X170277500Y-81727975D01*
X170277499Y-78551226D01*
X170271221Y-78503529D01*
X170247852Y-78453414D01*
X170245765Y-78405624D01*
X170278082Y-78370356D01*
X170304496Y-78364500D01*
X171195504Y-78364500D01*
X171239698Y-78382806D01*
X171258004Y-78427000D01*
X171252148Y-78453414D01*
X171228780Y-78503526D01*
X171228778Y-78503532D01*
X171222500Y-78551218D01*
X171222500Y-81727965D01*
X171222500Y-81727966D01*
X171222501Y-81727974D01*
X171228779Y-81775671D01*
X171228780Y-81775673D01*
X171277590Y-81880346D01*
X171359253Y-81962009D01*
X171359254Y-81962009D01*
X171359256Y-81962011D01*
X171463929Y-82010821D01*
X171511625Y-82017100D01*
X171988374Y-82017099D01*
X172036071Y-82010821D01*
X172140744Y-81962011D01*
X172222411Y-81880344D01*
X172271221Y-81775671D01*
X172277500Y-81727975D01*
X172277499Y-78551226D01*
X172271221Y-78503529D01*
X172247852Y-78453414D01*
X172245765Y-78405624D01*
X172278082Y-78370356D01*
X172304496Y-78364500D01*
X173195504Y-78364500D01*
X173239698Y-78382806D01*
X173258004Y-78427000D01*
X173252148Y-78453414D01*
X173228780Y-78503526D01*
X173228778Y-78503532D01*
X173222500Y-78551218D01*
X173222500Y-81727965D01*
X173222500Y-81727966D01*
X173222501Y-81727974D01*
X173228779Y-81775671D01*
X173228780Y-81775673D01*
X173277590Y-81880346D01*
X173359253Y-81962009D01*
X173359254Y-81962009D01*
X173359256Y-81962011D01*
X173463929Y-82010821D01*
X173511625Y-82017100D01*
X173988374Y-82017099D01*
X174036071Y-82010821D01*
X174140744Y-81962011D01*
X174222411Y-81880344D01*
X174271221Y-81775671D01*
X174277500Y-81727975D01*
X174277499Y-78551226D01*
X174271221Y-78503529D01*
X174247852Y-78453414D01*
X174245765Y-78405624D01*
X174278082Y-78370356D01*
X174304496Y-78364500D01*
X177703999Y-78364500D01*
X177704201Y-78364520D01*
X177710288Y-78364520D01*
X177790050Y-78364520D01*
X177790052Y-78364520D01*
X177863744Y-78333996D01*
X177920146Y-78277594D01*
X177950670Y-78203902D01*
X177950670Y-72427020D01*
X177968976Y-72382826D01*
X178013170Y-72364520D01*
X186548731Y-72364520D01*
X186552015Y-72364606D01*
G37*
%TD.AperFunction*%
%TA.AperFunction,Conductor*%
G36*
X145209485Y-68400319D02*
G01*
X145516330Y-68418211D01*
X145523294Y-68419011D01*
X145826193Y-68471191D01*
X145833031Y-68472769D01*
X146128165Y-68558578D01*
X146134783Y-68560913D01*
X146418433Y-68679268D01*
X146424744Y-68682327D01*
X146682282Y-68825589D01*
X146694749Y-68832524D01*
X146697962Y-68834439D01*
X149760048Y-70786634D01*
X149765896Y-70790362D01*
X149765924Y-70790375D01*
X149970582Y-70920832D01*
X150475758Y-71203942D01*
X150996181Y-71457940D01*
X151530173Y-71682008D01*
X152076017Y-71875423D01*
X152161773Y-71900434D01*
X152631943Y-72037562D01*
X152631955Y-72037565D01*
X153006631Y-72124118D01*
X153196191Y-72167908D01*
X153766915Y-72266034D01*
X154342286Y-72331628D01*
X154342301Y-72331628D01*
X154342302Y-72331629D01*
X154631368Y-72348053D01*
X154920435Y-72364477D01*
X154920441Y-72364478D01*
X154920808Y-72364478D01*
X155162828Y-72364495D01*
X155162866Y-72364500D01*
X155170118Y-72364500D01*
X155210000Y-72364500D01*
X155249882Y-72364500D01*
X161042526Y-72364500D01*
X161086720Y-72382806D01*
X161105026Y-72427000D01*
X161098676Y-72454449D01*
X161072483Y-72508028D01*
X161062500Y-72576547D01*
X161062500Y-72627614D01*
X161044194Y-72671808D01*
X160717579Y-72998423D01*
X160717577Y-72998426D01*
X160694467Y-73054221D01*
X160682700Y-73082629D01*
X160682700Y-75477372D01*
X160687182Y-75488194D01*
X160717575Y-75561571D01*
X160717578Y-75561575D01*
X160969194Y-75813190D01*
X160987500Y-75857384D01*
X160987500Y-76042557D01*
X160994898Y-76079748D01*
X160994898Y-76079749D01*
X161023077Y-76121922D01*
X161051257Y-76140750D01*
X161065252Y-76150102D01*
X161102442Y-76157500D01*
X161102443Y-76157500D01*
X162677556Y-76157500D01*
X162677558Y-76157500D01*
X162713102Y-76150429D01*
X162760017Y-76159760D01*
X162786594Y-76199533D01*
X162786828Y-76200777D01*
X162847433Y-76541321D01*
X162837154Y-76588039D01*
X162796851Y-76613805D01*
X162751177Y-76604239D01*
X162714748Y-76579898D01*
X162677558Y-76572500D01*
X161102442Y-76572500D01*
X161083847Y-76576199D01*
X161065251Y-76579898D01*
X161065250Y-76579898D01*
X161023077Y-76608077D01*
X160994898Y-76650250D01*
X160994898Y-76650251D01*
X160987500Y-76687442D01*
X160987500Y-76872615D01*
X160969194Y-76916809D01*
X160717579Y-77168423D01*
X160717577Y-77168426D01*
X160699358Y-77212413D01*
X160682700Y-77252629D01*
X160682700Y-79267372D01*
X160692914Y-79292032D01*
X160692915Y-79292032D01*
X160692915Y-79292033D01*
X160717578Y-79351575D01*
X161395226Y-80029222D01*
X161444551Y-80049652D01*
X161479429Y-80064100D01*
X161479430Y-80064100D01*
X161539171Y-80064100D01*
X161583365Y-80082406D01*
X161601017Y-80117588D01*
X161602694Y-80129100D01*
X161607482Y-80161969D01*
X161607483Y-80161972D01*
X161659152Y-80267662D01*
X161742338Y-80350848D01*
X161848028Y-80402517D01*
X161916547Y-80412500D01*
X162483452Y-80412499D01*
X162551972Y-80402517D01*
X162657662Y-80350848D01*
X162740848Y-80267662D01*
X162792517Y-80161972D01*
X162802500Y-80093453D01*
X162802499Y-79576548D01*
X162792517Y-79508028D01*
X162740848Y-79402338D01*
X162657662Y-79319152D01*
X162551972Y-79267483D01*
X162551970Y-79267482D01*
X162551969Y-79267482D01*
X162497539Y-79259552D01*
X162483453Y-79257500D01*
X162483452Y-79257500D01*
X161916548Y-79257500D01*
X161848030Y-79267482D01*
X161848029Y-79267482D01*
X161848028Y-79267483D01*
X161795183Y-79293317D01*
X161742337Y-79319152D01*
X161659151Y-79402338D01*
X161659149Y-79402341D01*
X161617868Y-79486784D01*
X161582013Y-79518448D01*
X161534269Y-79515483D01*
X161517525Y-79503528D01*
X161159206Y-79145209D01*
X161140900Y-79101015D01*
X161140900Y-78760000D01*
X161159206Y-78715806D01*
X161203400Y-78697500D01*
X162677555Y-78697500D01*
X162677558Y-78697500D01*
X162694858Y-78694058D01*
X162741772Y-78703389D01*
X162751245Y-78711163D01*
X163030835Y-78990754D01*
X163030836Y-78990754D01*
X163030837Y-78990755D01*
X163043703Y-78996084D01*
X163077528Y-79029908D01*
X163081751Y-79045668D01*
X163083779Y-79061070D01*
X163083779Y-79061072D01*
X163132590Y-79165746D01*
X163214253Y-79247409D01*
X163214254Y-79247409D01*
X163214256Y-79247411D01*
X163318929Y-79296221D01*
X163366625Y-79302500D01*
X163993374Y-79302499D01*
X164041071Y-79296221D01*
X164145744Y-79247411D01*
X164145746Y-79247409D01*
X164227410Y-79165746D01*
X164227410Y-79165745D01*
X164227411Y-79165744D01*
X164238896Y-79141114D01*
X164243806Y-79130586D01*
X164279074Y-79098269D01*
X164300450Y-79094500D01*
X164525105Y-79094500D01*
X164569299Y-79112806D01*
X164586788Y-79151404D01*
X164587235Y-79151346D01*
X164587428Y-79152819D01*
X164587471Y-79152912D01*
X164587500Y-79153364D01*
X164587501Y-79153371D01*
X164587501Y-79153374D01*
X164593779Y-79201071D01*
X164593780Y-79201073D01*
X164642590Y-79305746D01*
X164724253Y-79387409D01*
X164724254Y-79387409D01*
X164724256Y-79387411D01*
X164828929Y-79436221D01*
X164876625Y-79442500D01*
X165353374Y-79442499D01*
X165401071Y-79436221D01*
X165505744Y-79387411D01*
X165587411Y-79305744D01*
X165636221Y-79201071D01*
X165642500Y-79153375D01*
X165642499Y-78526626D01*
X165636221Y-78478929D01*
X165587411Y-78374256D01*
X165587409Y-78374254D01*
X165587409Y-78374253D01*
X165505746Y-78292590D01*
X165498569Y-78289243D01*
X165401071Y-78243779D01*
X165401069Y-78243778D01*
X165401067Y-78243778D01*
X165353375Y-78237500D01*
X164876634Y-78237500D01*
X164876632Y-78237500D01*
X164876626Y-78237501D01*
X164828929Y-78243779D01*
X164828927Y-78243779D01*
X164828926Y-78243780D01*
X164724253Y-78292590D01*
X164642590Y-78374253D01*
X164593780Y-78478926D01*
X164593778Y-78478932D01*
X164587500Y-78526622D01*
X164587470Y-78527085D01*
X164587428Y-78527169D01*
X164587233Y-78528653D01*
X164586729Y-78528586D01*
X164566315Y-78569988D01*
X164525104Y-78585500D01*
X164343744Y-78585500D01*
X164299550Y-78567194D01*
X164281779Y-78531158D01*
X164276221Y-78488929D01*
X164227411Y-78384256D01*
X164227409Y-78384254D01*
X164227409Y-78384253D01*
X164145746Y-78302590D01*
X164117124Y-78289243D01*
X164041071Y-78253779D01*
X164041069Y-78253778D01*
X164041067Y-78253778D01*
X163993375Y-78247500D01*
X163366634Y-78247500D01*
X163366632Y-78247500D01*
X163366626Y-78247501D01*
X163318929Y-78253779D01*
X163318927Y-78253779D01*
X163318926Y-78253780D01*
X163214256Y-78302589D01*
X163182575Y-78334270D01*
X163138380Y-78352575D01*
X163094187Y-78334269D01*
X162810806Y-78050888D01*
X162792500Y-78006694D01*
X162792500Y-77957442D01*
X162785102Y-77920252D01*
X162785101Y-77920250D01*
X162756922Y-77878077D01*
X162714748Y-77849898D01*
X162677558Y-77842500D01*
X162677557Y-77842500D01*
X161203400Y-77842500D01*
X161159206Y-77824194D01*
X161140900Y-77780000D01*
X161140900Y-77490000D01*
X161159206Y-77445806D01*
X161203400Y-77427500D01*
X162677557Y-77427500D01*
X162677558Y-77427500D01*
X162714748Y-77420102D01*
X162756922Y-77391922D01*
X162785102Y-77349748D01*
X162792500Y-77312558D01*
X162792500Y-76940547D01*
X162810806Y-76896353D01*
X162855000Y-76878047D01*
X162899194Y-76896353D01*
X162916533Y-76929596D01*
X163050375Y-77681664D01*
X163050375Y-77681665D01*
X163050376Y-77681667D01*
X163058812Y-77706423D01*
X163059432Y-77708240D01*
X163061882Y-77719549D01*
X163061901Y-77719546D01*
X163062120Y-77720650D01*
X163062472Y-77722272D01*
X163062500Y-77722558D01*
X163069898Y-77759748D01*
X163069898Y-77759749D01*
X163098077Y-77801922D01*
X163119623Y-77816318D01*
X163140252Y-77830102D01*
X163177442Y-77837500D01*
X163211067Y-77837500D01*
X163223259Y-77838700D01*
X163242359Y-77842500D01*
X164227500Y-77842500D01*
X164246599Y-77838700D01*
X164258792Y-77837500D01*
X164302557Y-77837500D01*
X164302558Y-77837500D01*
X164339748Y-77830102D01*
X164381922Y-77801922D01*
X164410102Y-77759748D01*
X164417500Y-77722558D01*
X164417500Y-77678791D01*
X164418701Y-77666597D01*
X164422500Y-77647499D01*
X164422500Y-74035201D01*
X164422499Y-74035196D01*
X164418644Y-74015324D01*
X164417500Y-74003420D01*
X164417500Y-73997442D01*
X164410102Y-73960252D01*
X164404692Y-73952156D01*
X164381922Y-73918078D01*
X164381920Y-73918076D01*
X164381919Y-73918075D01*
X164380320Y-73916476D01*
X164372062Y-73906267D01*
X164367967Y-73899948D01*
X164367962Y-73899940D01*
X163823378Y-73334410D01*
X163789980Y-73299727D01*
X163772500Y-73256374D01*
X163772500Y-72447500D01*
X163772499Y-72447496D01*
X163770848Y-72439192D01*
X163780181Y-72392276D01*
X163819955Y-72365701D01*
X163832147Y-72364500D01*
X167487000Y-72364500D01*
X167531194Y-72382806D01*
X167549500Y-72427000D01*
X167549500Y-77709692D01*
X167531194Y-77753886D01*
X167487000Y-77772192D01*
X167442806Y-77753886D01*
X167425149Y-77718673D01*
X167423149Y-77704899D01*
X167422500Y-77695918D01*
X167422500Y-74072500D01*
X167418701Y-74053400D01*
X167417500Y-74041207D01*
X167417500Y-73997442D01*
X167410102Y-73960252D01*
X167407154Y-73955840D01*
X167381922Y-73918077D01*
X167339748Y-73889898D01*
X167302558Y-73882500D01*
X167302557Y-73882500D01*
X167258792Y-73882500D01*
X167246599Y-73881299D01*
X167227500Y-73877500D01*
X166252500Y-73877500D01*
X166233401Y-73881299D01*
X166221208Y-73882500D01*
X166177442Y-73882500D01*
X166158847Y-73886199D01*
X166140251Y-73889898D01*
X166140250Y-73889898D01*
X166098077Y-73918077D01*
X166069898Y-73960250D01*
X166069898Y-73960251D01*
X166062500Y-73997442D01*
X166062500Y-74041207D01*
X166061299Y-74053400D01*
X166057500Y-74072500D01*
X166057500Y-77706439D01*
X166057593Y-77709692D01*
X166057715Y-77713988D01*
X166058120Y-77721095D01*
X166058763Y-77728599D01*
X166407649Y-80779234D01*
X166394483Y-80825222D01*
X166389748Y-80830530D01*
X165343686Y-81876594D01*
X165299492Y-81894900D01*
X162498966Y-81894900D01*
X162415236Y-81894900D01*
X162415235Y-81894900D01*
X162415229Y-81894901D01*
X162334357Y-81916570D01*
X162334354Y-81916571D01*
X162261844Y-81958436D01*
X162261838Y-81958441D01*
X161862928Y-82357351D01*
X161820397Y-82375635D01*
X161734980Y-82377909D01*
X161728095Y-82377502D01*
X161728084Y-82377664D01*
X161725834Y-82377501D01*
X161725828Y-82377500D01*
X161725821Y-82377500D01*
X161154175Y-82377500D01*
X161080795Y-82388191D01*
X161077572Y-82389767D01*
X161051792Y-82396092D01*
X159030801Y-82449883D01*
X158986135Y-82432759D01*
X158966660Y-82389068D01*
X158983784Y-82344402D01*
X158984907Y-82343247D01*
X159017411Y-82310744D01*
X159066221Y-82206071D01*
X159072500Y-82158375D01*
X159072499Y-81681626D01*
X159066221Y-81633929D01*
X159017411Y-81529256D01*
X159017409Y-81529254D01*
X159017409Y-81529253D01*
X158935746Y-81447590D01*
X158924295Y-81442250D01*
X158831071Y-81398779D01*
X158831069Y-81398778D01*
X158831067Y-81398778D01*
X158783375Y-81392500D01*
X158156634Y-81392500D01*
X158156632Y-81392500D01*
X158156626Y-81392501D01*
X158108929Y-81398779D01*
X158108927Y-81398779D01*
X158108926Y-81398780D01*
X158004253Y-81447590D01*
X157922590Y-81529253D01*
X157873780Y-81633926D01*
X157873778Y-81633931D01*
X157868417Y-81674658D01*
X157844500Y-81716084D01*
X157806452Y-81729000D01*
X157448020Y-81729000D01*
X157403826Y-81710694D01*
X157385520Y-81666500D01*
X157390845Y-81641255D01*
X157402545Y-81614756D01*
X157404807Y-81609634D01*
X157407498Y-81586441D01*
X157407499Y-81586439D01*
X157407499Y-80478560D01*
X157407498Y-80478558D01*
X157404808Y-80455370D01*
X157404806Y-80455364D01*
X157362904Y-80360461D01*
X157362901Y-80360457D01*
X157342414Y-80339970D01*
X157324108Y-80295776D01*
X157342414Y-80251582D01*
X157446590Y-80147406D01*
X157490784Y-80129100D01*
X157825001Y-80129100D01*
X157869195Y-80147406D01*
X157887501Y-80191600D01*
X157887501Y-80213374D01*
X157893779Y-80261071D01*
X157940126Y-80360461D01*
X157942590Y-80365746D01*
X158024253Y-80447409D01*
X158024254Y-80447409D01*
X158024256Y-80447411D01*
X158128929Y-80496221D01*
X158176625Y-80502500D01*
X158653374Y-80502499D01*
X158701071Y-80496221D01*
X158805744Y-80447411D01*
X158887411Y-80365744D01*
X158936221Y-80261071D01*
X158942500Y-80213375D01*
X158942499Y-79586626D01*
X158936221Y-79538929D01*
X158887411Y-79434256D01*
X158887409Y-79434254D01*
X158887409Y-79434253D01*
X158805746Y-79352590D01*
X158701073Y-79303780D01*
X158701071Y-79303779D01*
X158701069Y-79303778D01*
X158701067Y-79303778D01*
X158653375Y-79297500D01*
X158176634Y-79297500D01*
X158176632Y-79297500D01*
X158176626Y-79297501D01*
X158128929Y-79303779D01*
X158128927Y-79303779D01*
X158128926Y-79303780D01*
X158024253Y-79352590D01*
X157942590Y-79434253D01*
X157893780Y-79538926D01*
X157893778Y-79538932D01*
X157887500Y-79586618D01*
X157887500Y-79608400D01*
X157869194Y-79652594D01*
X157825000Y-79670900D01*
X157324426Y-79670900D01*
X157296095Y-79682636D01*
X157296094Y-79682637D01*
X157240227Y-79705777D01*
X157240224Y-79705779D01*
X157024193Y-79921810D01*
X156979999Y-79940116D01*
X156935805Y-79921810D01*
X156179773Y-79165778D01*
X156179691Y-79165744D01*
X156120231Y-79141115D01*
X156120230Y-79141114D01*
X156095570Y-79130900D01*
X156095569Y-79130900D01*
X155354999Y-79130900D01*
X155310805Y-79112594D01*
X155292499Y-79068400D01*
X155292499Y-79046634D01*
X155292499Y-79046626D01*
X155286221Y-78998929D01*
X155237411Y-78894256D01*
X155237409Y-78894254D01*
X155237409Y-78894253D01*
X155155746Y-78812590D01*
X155051073Y-78763780D01*
X155051071Y-78763779D01*
X155051069Y-78763778D01*
X155051067Y-78763778D01*
X155003375Y-78757500D01*
X154526634Y-78757500D01*
X154526632Y-78757500D01*
X154526626Y-78757501D01*
X154478929Y-78763779D01*
X154478927Y-78763779D01*
X154478926Y-78763780D01*
X154374253Y-78812590D01*
X154292590Y-78894253D01*
X154243780Y-78998926D01*
X154243778Y-78998932D01*
X154237500Y-79046618D01*
X154237500Y-79673365D01*
X154237500Y-79673366D01*
X154237501Y-79673374D01*
X154243779Y-79721071D01*
X154243780Y-79721073D01*
X154292590Y-79825746D01*
X154374253Y-79907409D01*
X154374254Y-79907409D01*
X154374256Y-79907411D01*
X154478929Y-79956221D01*
X154526625Y-79962500D01*
X155003374Y-79962499D01*
X155051071Y-79956221D01*
X155155744Y-79907411D01*
X155237411Y-79825744D01*
X155286221Y-79721071D01*
X155292500Y-79673375D01*
X155292500Y-79651600D01*
X155310806Y-79607406D01*
X155355000Y-79589100D01*
X155929213Y-79589100D01*
X155973407Y-79607406D01*
X156617582Y-80251581D01*
X156635888Y-80295775D01*
X156617584Y-80339967D01*
X156597096Y-80360456D01*
X156562174Y-80439549D01*
X156527577Y-80472583D01*
X156479754Y-80471479D01*
X156447824Y-80439548D01*
X156412905Y-80360461D01*
X156412902Y-80360457D01*
X156339542Y-80287097D01*
X156339538Y-80287094D01*
X156244635Y-80245192D01*
X156244629Y-80245190D01*
X156221440Y-80242500D01*
X156221432Y-80242500D01*
X155838568Y-80242500D01*
X155838560Y-80242500D01*
X155815370Y-80245190D01*
X155815364Y-80245192D01*
X155720461Y-80287094D01*
X155720457Y-80287097D01*
X155647097Y-80360457D01*
X155647095Y-80360460D01*
X155612175Y-80439549D01*
X155577578Y-80472583D01*
X155529755Y-80471479D01*
X155497825Y-80439548D01*
X155462906Y-80360461D01*
X155462903Y-80360457D01*
X155389543Y-80287097D01*
X155389539Y-80287094D01*
X155294636Y-80245192D01*
X155294630Y-80245190D01*
X155271441Y-80242500D01*
X155271433Y-80242500D01*
X154888569Y-80242500D01*
X154888561Y-80242500D01*
X154865371Y-80245190D01*
X154865365Y-80245192D01*
X154770462Y-80287094D01*
X154770458Y-80287097D01*
X154697098Y-80360457D01*
X154697095Y-80360461D01*
X154655193Y-80455364D01*
X154655191Y-80455370D01*
X154652501Y-80478558D01*
X154652501Y-80740900D01*
X154634195Y-80785094D01*
X154590001Y-80803400D01*
X154543285Y-80803400D01*
X154499091Y-80785094D01*
X154369775Y-80655778D01*
X154310233Y-80631115D01*
X154310232Y-80631114D01*
X154285572Y-80620900D01*
X154285571Y-80620900D01*
X154264472Y-80620900D01*
X154220278Y-80602594D01*
X154202625Y-80567410D01*
X154192517Y-80498030D01*
X154192517Y-80498028D01*
X154140848Y-80392338D01*
X154057662Y-80309152D01*
X153951972Y-80257483D01*
X153951970Y-80257482D01*
X153951969Y-80257482D01*
X153897539Y-80249552D01*
X153883453Y-80247500D01*
X153883452Y-80247500D01*
X153366548Y-80247500D01*
X153298030Y-80257482D01*
X153298029Y-80257482D01*
X153298028Y-80257483D01*
X153277207Y-80267662D01*
X153192337Y-80309152D01*
X153109152Y-80392337D01*
X153057482Y-80498030D01*
X153047500Y-80566547D01*
X153047500Y-81133451D01*
X153057482Y-81201969D01*
X153057483Y-81201972D01*
X153109152Y-81307662D01*
X153192338Y-81390848D01*
X153297485Y-81442251D01*
X153329148Y-81478106D01*
X153326184Y-81525850D01*
X153290328Y-81557514D01*
X153270034Y-81560900D01*
X153135784Y-81560900D01*
X153091590Y-81542594D01*
X152670805Y-81121809D01*
X152652499Y-81077615D01*
X152652499Y-80566548D01*
X152642517Y-80498030D01*
X152642517Y-80498028D01*
X152590848Y-80392338D01*
X152507662Y-80309152D01*
X152401972Y-80257483D01*
X152401970Y-80257482D01*
X152401969Y-80257482D01*
X152347539Y-80249552D01*
X152333453Y-80247500D01*
X152333452Y-80247500D01*
X151816548Y-80247500D01*
X151748030Y-80257482D01*
X151748028Y-80257483D01*
X151740848Y-80260993D01*
X151693106Y-80263956D01*
X151657250Y-80232292D01*
X151650900Y-80204843D01*
X151650900Y-80094708D01*
X151669206Y-80050514D01*
X152023414Y-79696306D01*
X152067608Y-79678000D01*
X152534341Y-79678000D01*
X152578535Y-79696306D01*
X152590875Y-79717148D01*
X152591758Y-79716737D01*
X152642590Y-79825746D01*
X152724253Y-79907409D01*
X152724254Y-79907409D01*
X152724256Y-79907411D01*
X152828929Y-79956221D01*
X152876625Y-79962500D01*
X153353374Y-79962499D01*
X153401071Y-79956221D01*
X153505744Y-79907411D01*
X153587411Y-79825744D01*
X153636221Y-79721071D01*
X153642500Y-79673375D01*
X153642499Y-79046626D01*
X153636221Y-78998929D01*
X153587411Y-78894256D01*
X153587409Y-78894254D01*
X153587409Y-78894253D01*
X153505746Y-78812590D01*
X153401073Y-78763780D01*
X153401071Y-78763779D01*
X153401069Y-78763778D01*
X153401067Y-78763778D01*
X153353375Y-78757500D01*
X152876634Y-78757500D01*
X152876632Y-78757500D01*
X152876626Y-78757501D01*
X152828929Y-78763779D01*
X152828927Y-78763779D01*
X152828926Y-78763780D01*
X152724253Y-78812590D01*
X152642590Y-78894253D01*
X152591758Y-79003263D01*
X152589977Y-79002432D01*
X152564397Y-79034299D01*
X152534341Y-79042000D01*
X151951865Y-79042000D01*
X151868135Y-79042000D01*
X151868134Y-79042000D01*
X151868128Y-79042001D01*
X151787256Y-79063670D01*
X151787253Y-79063671D01*
X151714743Y-79105536D01*
X151714737Y-79105541D01*
X151078441Y-79741837D01*
X151078436Y-79741843D01*
X151036571Y-79814353D01*
X151036570Y-79814356D01*
X151020962Y-79872610D01*
X151020962Y-79872611D01*
X151014900Y-79895230D01*
X151014900Y-81362287D01*
X151014901Y-81362295D01*
X151036570Y-81443167D01*
X151036571Y-81443170D01*
X151078436Y-81515680D01*
X151078441Y-81515686D01*
X151929195Y-82366439D01*
X151947501Y-82410633D01*
X151947501Y-82412499D01*
X151947501Y-82412500D01*
X151947501Y-85437501D01*
X151957587Y-85488207D01*
X151969610Y-85517233D01*
X151975891Y-85532397D01*
X151975899Y-85532414D01*
X151989465Y-85557258D01*
X151989466Y-85557259D01*
X151989468Y-85557262D01*
X152047601Y-85604109D01*
X152091795Y-85622415D01*
X152142501Y-85632501D01*
X153472500Y-85632501D01*
X153523206Y-85622415D01*
X153567400Y-85604109D01*
X153592261Y-85590534D01*
X153639108Y-85532401D01*
X153657414Y-85488207D01*
X153667500Y-85437501D01*
X153667500Y-85435982D01*
X153667696Y-85435508D01*
X153667801Y-85434445D01*
X153668123Y-85434476D01*
X153685806Y-85391788D01*
X153720220Y-85374252D01*
X153788107Y-85363501D01*
X153894654Y-85309212D01*
X153979210Y-85224656D01*
X154033499Y-85118109D01*
X154052205Y-85000001D01*
X154033499Y-84881893D01*
X153979210Y-84775346D01*
X153894654Y-84690790D01*
X153788107Y-84636501D01*
X153720221Y-84625749D01*
X153679437Y-84600756D01*
X153667500Y-84564019D01*
X153667500Y-84460887D01*
X153657414Y-84410181D01*
X153639108Y-84365987D01*
X153610386Y-84323001D01*
X153471579Y-84184194D01*
X153453273Y-84140000D01*
X153471579Y-84095806D01*
X153515773Y-84077500D01*
X153517441Y-84077500D01*
X153561207Y-84077500D01*
X153573399Y-84078700D01*
X153592499Y-84082500D01*
X154111613Y-84082500D01*
X154162319Y-84072414D01*
X154206513Y-84054108D01*
X154249499Y-84025386D01*
X154727887Y-83546998D01*
X154756609Y-83504012D01*
X154774915Y-83459818D01*
X154785001Y-83409112D01*
X154785001Y-82777593D01*
X154790325Y-82752351D01*
X154803584Y-82722320D01*
X154816560Y-82703377D01*
X154838379Y-82681558D01*
X154857322Y-82668582D01*
X154887354Y-82655323D01*
X154912594Y-82650000D01*
X155247406Y-82650000D01*
X155272650Y-82655325D01*
X155302674Y-82668581D01*
X155321624Y-82681562D01*
X155343437Y-82703375D01*
X155356416Y-82722322D01*
X155369676Y-82752354D01*
X155375001Y-82777596D01*
X155375001Y-83850165D01*
X155374584Y-83857372D01*
X155373562Y-83866176D01*
X155372636Y-83871856D01*
X155370887Y-83880152D01*
X155370139Y-83883976D01*
X155370138Y-83883979D01*
X155372354Y-83904589D01*
X155372475Y-83908877D01*
X155372649Y-83909744D01*
X155373512Y-83915357D01*
X155378120Y-83958207D01*
X155396420Y-84002386D01*
X155396432Y-84002413D01*
X155409998Y-84027257D01*
X155409999Y-84027258D01*
X155410001Y-84027261D01*
X155468134Y-84074108D01*
X155512328Y-84092414D01*
X155563034Y-84102500D01*
X156267500Y-84102500D01*
X156318206Y-84092414D01*
X156362400Y-84074108D01*
X156387261Y-84060533D01*
X156434108Y-84002400D01*
X156434114Y-84002387D01*
X156440192Y-83987711D01*
X156447257Y-83970654D01*
X156481079Y-83936830D01*
X156528915Y-83936829D01*
X156562739Y-83970650D01*
X156562741Y-83970653D01*
X156562741Y-83970654D01*
X156575885Y-84002387D01*
X156575897Y-84002413D01*
X156589463Y-84027257D01*
X156589464Y-84027258D01*
X156589466Y-84027261D01*
X156647599Y-84074108D01*
X156691793Y-84092414D01*
X156742499Y-84102500D01*
X158944841Y-84102500D01*
X158944887Y-84102500D01*
X158945268Y-84102499D01*
X158945315Y-84102499D01*
X158945323Y-84102498D01*
X158945623Y-84102498D01*
X158945864Y-84102497D01*
X161878478Y-84087809D01*
X161928826Y-84077598D01*
X161972707Y-84059293D01*
X161997262Y-84045845D01*
X162044109Y-83987712D01*
X162062415Y-83943518D01*
X162072501Y-83892812D01*
X162072501Y-83073108D01*
X162090807Y-83028914D01*
X162570515Y-82549206D01*
X162614709Y-82530900D01*
X165498964Y-82530900D01*
X165498965Y-82530900D01*
X165579844Y-82509229D01*
X165652357Y-82467363D01*
X166673914Y-81445806D01*
X166718108Y-81427500D01*
X167537500Y-81427500D01*
X167588206Y-81417414D01*
X167632400Y-81399108D01*
X167633005Y-81398778D01*
X167657257Y-81385535D01*
X167657256Y-81385535D01*
X167657261Y-81385533D01*
X167704108Y-81327400D01*
X167722414Y-81283206D01*
X167732500Y-81232500D01*
X167732500Y-80950500D01*
X167750806Y-80906306D01*
X167795000Y-80888000D01*
X169160001Y-80888000D01*
X169204195Y-80906306D01*
X169222501Y-80950500D01*
X169222501Y-81727974D01*
X169228779Y-81775671D01*
X169228780Y-81775673D01*
X169277590Y-81880346D01*
X169359253Y-81962009D01*
X169359255Y-81962010D01*
X169359256Y-81962011D01*
X169395913Y-81979104D01*
X169428231Y-82014371D01*
X169432000Y-82035748D01*
X169432000Y-82092391D01*
X169413694Y-82136585D01*
X168345541Y-83204737D01*
X168345536Y-83204743D01*
X168303671Y-83277253D01*
X168303670Y-83277256D01*
X168282001Y-83358128D01*
X168282000Y-83358136D01*
X168282000Y-84250977D01*
X168263694Y-84295171D01*
X168245915Y-84307621D01*
X168209253Y-84324717D01*
X168127590Y-84406380D01*
X168078780Y-84511053D01*
X168078778Y-84511059D01*
X168072500Y-84558745D01*
X168072500Y-87735492D01*
X168072500Y-87735493D01*
X168072501Y-87735501D01*
X168078779Y-87783198D01*
X168078780Y-87783200D01*
X168102148Y-87833313D01*
X168104235Y-87881103D01*
X168071918Y-87916371D01*
X168045504Y-87922227D01*
X167154496Y-87922227D01*
X167110302Y-87903921D01*
X167091996Y-87859727D01*
X167097852Y-87833313D01*
X167099738Y-87829266D01*
X167121221Y-87783198D01*
X167127500Y-87735502D01*
X167127499Y-84558753D01*
X167121221Y-84511056D01*
X167072411Y-84406383D01*
X167072409Y-84406381D01*
X167072409Y-84406380D01*
X166990746Y-84324717D01*
X166886073Y-84275907D01*
X166886071Y-84275906D01*
X166886069Y-84275905D01*
X166886067Y-84275905D01*
X166838375Y-84269627D01*
X166361634Y-84269627D01*
X166361632Y-84269627D01*
X166361626Y-84269628D01*
X166313929Y-84275906D01*
X166313927Y-84275906D01*
X166313926Y-84275907D01*
X166209253Y-84324717D01*
X166127590Y-84406380D01*
X166078780Y-84511053D01*
X166078778Y-84511059D01*
X166072500Y-84558745D01*
X166072500Y-87735492D01*
X166072500Y-87735493D01*
X166072501Y-87735501D01*
X166078779Y-87783198D01*
X166078780Y-87783200D01*
X166102148Y-87833313D01*
X166104235Y-87881103D01*
X166071918Y-87916371D01*
X166045504Y-87922227D01*
X165154496Y-87922227D01*
X165110302Y-87903921D01*
X165091996Y-87859727D01*
X165097852Y-87833313D01*
X165099738Y-87829266D01*
X165121221Y-87783198D01*
X165127500Y-87735502D01*
X165127499Y-84558753D01*
X165121221Y-84511056D01*
X165072411Y-84406383D01*
X165072409Y-84406381D01*
X165072409Y-84406380D01*
X164990746Y-84324717D01*
X164886073Y-84275907D01*
X164886071Y-84275906D01*
X164886069Y-84275905D01*
X164886067Y-84275905D01*
X164838375Y-84269627D01*
X164361634Y-84269627D01*
X164361632Y-84269627D01*
X164361626Y-84269628D01*
X164313929Y-84275906D01*
X164313927Y-84275906D01*
X164313926Y-84275907D01*
X164209253Y-84324717D01*
X164127590Y-84406380D01*
X164078780Y-84511053D01*
X164078778Y-84511059D01*
X164072500Y-84558745D01*
X164072500Y-87735492D01*
X164072500Y-87735493D01*
X164072501Y-87735501D01*
X164078779Y-87783198D01*
X164078780Y-87783200D01*
X164102148Y-87833313D01*
X164104235Y-87881103D01*
X164071918Y-87916371D01*
X164045504Y-87922227D01*
X159144983Y-87922227D01*
X159100789Y-87903921D01*
X159082483Y-87859727D01*
X159088339Y-87833313D01*
X159111707Y-87783200D01*
X159121221Y-87762798D01*
X159127500Y-87715102D01*
X159127499Y-84538353D01*
X159121221Y-84490656D01*
X159072411Y-84385983D01*
X159072409Y-84385981D01*
X159072409Y-84385980D01*
X158990746Y-84304317D01*
X158971133Y-84295171D01*
X158886071Y-84255506D01*
X158886069Y-84255505D01*
X158886067Y-84255505D01*
X158838375Y-84249227D01*
X158361634Y-84249227D01*
X158361632Y-84249227D01*
X158361626Y-84249228D01*
X158313929Y-84255506D01*
X158313927Y-84255506D01*
X158313926Y-84255507D01*
X158209253Y-84304317D01*
X158127590Y-84385980D01*
X158078780Y-84490653D01*
X158078778Y-84490659D01*
X158072500Y-84538345D01*
X158072500Y-87715092D01*
X158072500Y-87715093D01*
X158072501Y-87715101D01*
X158078779Y-87762798D01*
X158078780Y-87762800D01*
X158111661Y-87833313D01*
X158113748Y-87881103D01*
X158081431Y-87916371D01*
X158055017Y-87922227D01*
X157144983Y-87922227D01*
X157100789Y-87903921D01*
X157082483Y-87859727D01*
X157088339Y-87833313D01*
X157111707Y-87783200D01*
X157121221Y-87762798D01*
X157127500Y-87715102D01*
X157127499Y-84538353D01*
X157121221Y-84490656D01*
X157072411Y-84385983D01*
X157072409Y-84385981D01*
X157072409Y-84385980D01*
X156990746Y-84304317D01*
X156971133Y-84295171D01*
X156886071Y-84255506D01*
X156886069Y-84255505D01*
X156886067Y-84255505D01*
X156838375Y-84249227D01*
X156361634Y-84249227D01*
X156361632Y-84249227D01*
X156361626Y-84249228D01*
X156313929Y-84255506D01*
X156313927Y-84255506D01*
X156313926Y-84255507D01*
X156209253Y-84304317D01*
X156127590Y-84385980D01*
X156078780Y-84490653D01*
X156078778Y-84490659D01*
X156072500Y-84538345D01*
X156072500Y-87715092D01*
X156072500Y-87715093D01*
X156072501Y-87715101D01*
X156078779Y-87762798D01*
X156078780Y-87762800D01*
X156111661Y-87833313D01*
X156113748Y-87881103D01*
X156081431Y-87916371D01*
X156055017Y-87922227D01*
X152560118Y-87922227D01*
X152486427Y-87952750D01*
X152486424Y-87952752D01*
X152430025Y-88009151D01*
X152430023Y-88009154D01*
X152399500Y-88082845D01*
X152399500Y-93901000D01*
X152381194Y-93945194D01*
X152337000Y-93963500D01*
X148859827Y-93963500D01*
X148857377Y-93963452D01*
X148484539Y-93948824D01*
X148479653Y-93948440D01*
X148110322Y-93904789D01*
X148105482Y-93904023D01*
X147740721Y-93831573D01*
X147735962Y-93830433D01*
X147542471Y-93775944D01*
X147377982Y-93729622D01*
X147373321Y-93728110D01*
X147024345Y-93599564D01*
X147019816Y-93597691D01*
X146681980Y-93442197D01*
X146677613Y-93439975D01*
X146353015Y-93258500D01*
X146348834Y-93255943D01*
X146344318Y-93252931D01*
X146039435Y-93049581D01*
X146035468Y-93046704D01*
X145743198Y-92816745D01*
X145739468Y-92813566D01*
X145465242Y-92560610D01*
X145463412Y-92558851D01*
X143944481Y-91039005D01*
X143842580Y-90937042D01*
X143842579Y-90937040D01*
X143806472Y-90900912D01*
X143804785Y-90899156D01*
X143551559Y-90625067D01*
X143548374Y-90621336D01*
X143372079Y-90397593D01*
X143318188Y-90329197D01*
X143315331Y-90325264D01*
X143108743Y-90015936D01*
X143106203Y-90011788D01*
X142924534Y-89687247D01*
X142922308Y-89682876D01*
X142766661Y-89345103D01*
X142764784Y-89340570D01*
X142636105Y-88991621D01*
X142634590Y-88986955D01*
X142615398Y-88918876D01*
X142533682Y-88629003D01*
X142532537Y-88624233D01*
X142512120Y-88521544D01*
X142460010Y-88259449D01*
X142459244Y-88254609D01*
X142415550Y-87885253D01*
X142415168Y-87880408D01*
X142400558Y-87508212D01*
X142400510Y-87505761D01*
X142400510Y-86416442D01*
X142913500Y-86416442D01*
X142913500Y-87441558D01*
X142920898Y-87478748D01*
X142920898Y-87478749D01*
X142949077Y-87520922D01*
X142977257Y-87539750D01*
X142991252Y-87549102D01*
X143028442Y-87556500D01*
X143028443Y-87556500D01*
X145053557Y-87556500D01*
X145053558Y-87556500D01*
X145090748Y-87549102D01*
X145132922Y-87520922D01*
X145161102Y-87478748D01*
X145168500Y-87441558D01*
X145168500Y-87363081D01*
X145186806Y-87318887D01*
X145221221Y-87301351D01*
X145277108Y-87292500D01*
X145383655Y-87238211D01*
X145468211Y-87153655D01*
X145522500Y-87047108D01*
X145541206Y-86929000D01*
X145522500Y-86810892D01*
X145468211Y-86704345D01*
X145383655Y-86619789D01*
X145277108Y-86565500D01*
X145277107Y-86565499D01*
X145277106Y-86565499D01*
X145277104Y-86565498D01*
X145221222Y-86556647D01*
X145180436Y-86531653D01*
X145168500Y-86494917D01*
X145168500Y-86416442D01*
X147513500Y-86416442D01*
X147513500Y-87441558D01*
X147520898Y-87478748D01*
X147520898Y-87478749D01*
X147549077Y-87520922D01*
X147577257Y-87539750D01*
X147591252Y-87549102D01*
X147628442Y-87556500D01*
X147628443Y-87556500D01*
X149653557Y-87556500D01*
X149653558Y-87556500D01*
X149690748Y-87549102D01*
X149732922Y-87520922D01*
X149761102Y-87478748D01*
X149768500Y-87441558D01*
X149768500Y-87343081D01*
X149786806Y-87298887D01*
X149821221Y-87281351D01*
X149877108Y-87272500D01*
X149983655Y-87218211D01*
X150068211Y-87133655D01*
X150122500Y-87027108D01*
X150141206Y-86909000D01*
X150122500Y-86790892D01*
X150068211Y-86684345D01*
X149983655Y-86599789D01*
X149877108Y-86545500D01*
X149877107Y-86545499D01*
X149877106Y-86545499D01*
X149877104Y-86545498D01*
X149821222Y-86536647D01*
X149780436Y-86511653D01*
X149768500Y-86474917D01*
X149768500Y-86416442D01*
X149761102Y-86379252D01*
X149761101Y-86379250D01*
X149732922Y-86337077D01*
X149690748Y-86308898D01*
X149653558Y-86301500D01*
X147628442Y-86301500D01*
X147609847Y-86305199D01*
X147591251Y-86308898D01*
X147591250Y-86308898D01*
X147549077Y-86337077D01*
X147520898Y-86379250D01*
X147520898Y-86379251D01*
X147520898Y-86379252D01*
X147513500Y-86416442D01*
X145168500Y-86416442D01*
X145161102Y-86379252D01*
X145161101Y-86379250D01*
X145132922Y-86337077D01*
X145090748Y-86308898D01*
X145053558Y-86301500D01*
X143028442Y-86301500D01*
X143009847Y-86305199D01*
X142991251Y-86308898D01*
X142991250Y-86308898D01*
X142949077Y-86337077D01*
X142920898Y-86379250D01*
X142920898Y-86379251D01*
X142920898Y-86379252D01*
X142913500Y-86416442D01*
X142400510Y-86416442D01*
X142400510Y-84416442D01*
X142913500Y-84416442D01*
X142913500Y-85441557D01*
X142920898Y-85478748D01*
X142920898Y-85478749D01*
X142949077Y-85520922D01*
X142977257Y-85539750D01*
X142991252Y-85549102D01*
X143028442Y-85556500D01*
X143028443Y-85556500D01*
X145053557Y-85556500D01*
X145053558Y-85556500D01*
X145090748Y-85549102D01*
X145132922Y-85520922D01*
X145161102Y-85478748D01*
X145168500Y-85441558D01*
X145168500Y-85363081D01*
X145186806Y-85318887D01*
X145221221Y-85301351D01*
X145277108Y-85292500D01*
X145383655Y-85238211D01*
X145468211Y-85153655D01*
X145522500Y-85047108D01*
X145541206Y-84929000D01*
X145522500Y-84810892D01*
X145468211Y-84704345D01*
X145383655Y-84619789D01*
X145277108Y-84565500D01*
X145277107Y-84565499D01*
X145277106Y-84565499D01*
X145277104Y-84565498D01*
X145221222Y-84556647D01*
X145180436Y-84531653D01*
X145168500Y-84494917D01*
X145168500Y-84416442D01*
X147513500Y-84416442D01*
X147513500Y-85441557D01*
X147520898Y-85478748D01*
X147520898Y-85478749D01*
X147549077Y-85520922D01*
X147577257Y-85539750D01*
X147591252Y-85549102D01*
X147628442Y-85556500D01*
X147628443Y-85556500D01*
X149653557Y-85556500D01*
X149653558Y-85556500D01*
X149690748Y-85549102D01*
X149732922Y-85520922D01*
X149761102Y-85478748D01*
X149768500Y-85441558D01*
X149768500Y-85363081D01*
X149786806Y-85318887D01*
X149821221Y-85301351D01*
X149877108Y-85292500D01*
X149983655Y-85238211D01*
X150068211Y-85153655D01*
X150122500Y-85047108D01*
X150141206Y-84929000D01*
X150122500Y-84810892D01*
X150068211Y-84704345D01*
X149983655Y-84619789D01*
X149877108Y-84565500D01*
X149877107Y-84565499D01*
X149877106Y-84565499D01*
X149877104Y-84565498D01*
X149821222Y-84556647D01*
X149780436Y-84531653D01*
X149768500Y-84494917D01*
X149768500Y-84416442D01*
X149767255Y-84410182D01*
X149761102Y-84379252D01*
X149752237Y-84365984D01*
X149732922Y-84337077D01*
X149690748Y-84308898D01*
X149667714Y-84304316D01*
X149653558Y-84301500D01*
X147628442Y-84301500D01*
X147614286Y-84304316D01*
X147591251Y-84308898D01*
X147591250Y-84308898D01*
X147549077Y-84337077D01*
X147520898Y-84379250D01*
X147520898Y-84379251D01*
X147513500Y-84416442D01*
X145168500Y-84416442D01*
X145167255Y-84410182D01*
X145161102Y-84379252D01*
X145152237Y-84365984D01*
X145132922Y-84337077D01*
X145090748Y-84308898D01*
X145067714Y-84304316D01*
X145053558Y-84301500D01*
X143028442Y-84301500D01*
X143014286Y-84304316D01*
X142991251Y-84308898D01*
X142991250Y-84308898D01*
X142949077Y-84337077D01*
X142920898Y-84379250D01*
X142920898Y-84379251D01*
X142913500Y-84416442D01*
X142400510Y-84416442D01*
X142400510Y-82416442D01*
X142913500Y-82416442D01*
X142913500Y-83441557D01*
X142920898Y-83478748D01*
X142920898Y-83478749D01*
X142949077Y-83520922D01*
X142965238Y-83531720D01*
X142991252Y-83549102D01*
X143028442Y-83556500D01*
X143028443Y-83556500D01*
X145053557Y-83556500D01*
X145053558Y-83556500D01*
X145090748Y-83549102D01*
X145132922Y-83520922D01*
X145161102Y-83478748D01*
X145168500Y-83441558D01*
X145168500Y-82416442D01*
X147513500Y-82416442D01*
X147513500Y-83441557D01*
X147520898Y-83478748D01*
X147520898Y-83478749D01*
X147549077Y-83520922D01*
X147565238Y-83531720D01*
X147591252Y-83549102D01*
X147628442Y-83556500D01*
X147628443Y-83556500D01*
X149653557Y-83556500D01*
X149653558Y-83556500D01*
X149690748Y-83549102D01*
X149732922Y-83520922D01*
X149761102Y-83478748D01*
X149768500Y-83441558D01*
X149768500Y-83363081D01*
X149786806Y-83318887D01*
X149821221Y-83301351D01*
X149877108Y-83292500D01*
X149983655Y-83238211D01*
X150068211Y-83153655D01*
X150122500Y-83047108D01*
X150141206Y-82929000D01*
X150122500Y-82810892D01*
X150068211Y-82704345D01*
X149983655Y-82619789D01*
X149877108Y-82565500D01*
X149877107Y-82565499D01*
X149877106Y-82565499D01*
X149877104Y-82565498D01*
X149821222Y-82556647D01*
X149780436Y-82531653D01*
X149768500Y-82494917D01*
X149768500Y-82416442D01*
X149767344Y-82410633D01*
X149761102Y-82379252D01*
X149761101Y-82379250D01*
X149732922Y-82337077D01*
X149690748Y-82308898D01*
X149653558Y-82301500D01*
X147628442Y-82301500D01*
X147609847Y-82305199D01*
X147591251Y-82308898D01*
X147591250Y-82308898D01*
X147549077Y-82337077D01*
X147520898Y-82379250D01*
X147520898Y-82379251D01*
X147513500Y-82416442D01*
X145168500Y-82416442D01*
X145161102Y-82379252D01*
X145161101Y-82379250D01*
X145132922Y-82337077D01*
X145090748Y-82308898D01*
X145053558Y-82301500D01*
X143028442Y-82301500D01*
X143009847Y-82305199D01*
X142991251Y-82308898D01*
X142991250Y-82308898D01*
X142949077Y-82337077D01*
X142920898Y-82379250D01*
X142920898Y-82379251D01*
X142913500Y-82416442D01*
X142400510Y-82416442D01*
X142400510Y-80416442D01*
X142913500Y-80416442D01*
X142913500Y-81441558D01*
X142915677Y-81452500D01*
X142920898Y-81478748D01*
X142920898Y-81478749D01*
X142949077Y-81520922D01*
X142976008Y-81538916D01*
X142991252Y-81549102D01*
X143028442Y-81556500D01*
X143028443Y-81556500D01*
X145053557Y-81556500D01*
X145053558Y-81556500D01*
X145090748Y-81549102D01*
X145132922Y-81520922D01*
X145161102Y-81478748D01*
X145168500Y-81441558D01*
X145168500Y-80416442D01*
X147513500Y-80416442D01*
X147513500Y-81441558D01*
X147515677Y-81452500D01*
X147520898Y-81478748D01*
X147520898Y-81478749D01*
X147549077Y-81520922D01*
X147576008Y-81538916D01*
X147591252Y-81549102D01*
X147628442Y-81556500D01*
X147628443Y-81556500D01*
X149653557Y-81556500D01*
X149653558Y-81556500D01*
X149690748Y-81549102D01*
X149732922Y-81520922D01*
X149761102Y-81478748D01*
X149768500Y-81441558D01*
X149768500Y-80416442D01*
X149761102Y-80379252D01*
X149752078Y-80365746D01*
X149732922Y-80337077D01*
X149690748Y-80308898D01*
X149653558Y-80301500D01*
X147628442Y-80301500D01*
X147611018Y-80304966D01*
X147591251Y-80308898D01*
X147591250Y-80308898D01*
X147549077Y-80337077D01*
X147520898Y-80379250D01*
X147520898Y-80379251D01*
X147520898Y-80379252D01*
X147513500Y-80416442D01*
X145168500Y-80416442D01*
X145161102Y-80379252D01*
X145152078Y-80365746D01*
X145132922Y-80337077D01*
X145090748Y-80308898D01*
X145053558Y-80301500D01*
X143028442Y-80301500D01*
X143011018Y-80304966D01*
X142991251Y-80308898D01*
X142991250Y-80308898D01*
X142949077Y-80337077D01*
X142920898Y-80379250D01*
X142920898Y-80379251D01*
X142920898Y-80379252D01*
X142913500Y-80416442D01*
X142400510Y-80416442D01*
X142400510Y-76416442D01*
X142913500Y-76416442D01*
X142913500Y-77441557D01*
X142920898Y-77478748D01*
X142920898Y-77478749D01*
X142949077Y-77520922D01*
X142971440Y-77535864D01*
X142991252Y-77549102D01*
X143028442Y-77556500D01*
X143028443Y-77556500D01*
X145053557Y-77556500D01*
X145053558Y-77556500D01*
X145090748Y-77549102D01*
X145132922Y-77520922D01*
X145161102Y-77478748D01*
X145168500Y-77441558D01*
X145168500Y-77309500D01*
X145186806Y-77265306D01*
X145231000Y-77247000D01*
X145532864Y-77247000D01*
X145532865Y-77247000D01*
X145613744Y-77225329D01*
X145686257Y-77183463D01*
X146863414Y-76006306D01*
X146907608Y-75988000D01*
X150412392Y-75988000D01*
X150456586Y-76006306D01*
X150889537Y-76439258D01*
X150889543Y-76439263D01*
X150962053Y-76481128D01*
X150962056Y-76481129D01*
X151042935Y-76502800D01*
X151715200Y-76502800D01*
X151759394Y-76521106D01*
X151777700Y-76565300D01*
X151777700Y-76743594D01*
X151781942Y-76776849D01*
X151781943Y-76776854D01*
X151789820Y-76807227D01*
X151802280Y-76838365D01*
X152158398Y-77478748D01*
X152589394Y-78253779D01*
X152591337Y-78257272D01*
X152591342Y-78257282D01*
X152601364Y-78272679D01*
X152601368Y-78272686D01*
X152611794Y-78286502D01*
X152611798Y-78286506D01*
X152666857Y-78329108D01*
X152711051Y-78347414D01*
X152761757Y-78357500D01*
X153494992Y-78357500D01*
X153495006Y-78357500D01*
X153502253Y-78357302D01*
X153509081Y-78356928D01*
X153565608Y-78340768D01*
X153607538Y-78317744D01*
X153647130Y-78284497D01*
X154136242Y-77674596D01*
X154178172Y-77651572D01*
X154224101Y-77664940D01*
X154247126Y-77706870D01*
X154247500Y-77713698D01*
X154247500Y-78063365D01*
X154247500Y-78063366D01*
X154247501Y-78063374D01*
X154253779Y-78111071D01*
X154297067Y-78203901D01*
X154302590Y-78215746D01*
X154384253Y-78297409D01*
X154384254Y-78297409D01*
X154384256Y-78297411D01*
X154488929Y-78346221D01*
X154536625Y-78352500D01*
X155013374Y-78352499D01*
X155061071Y-78346221D01*
X155165744Y-78297411D01*
X155247411Y-78215744D01*
X155296221Y-78111071D01*
X155302500Y-78063375D01*
X155302500Y-77957442D01*
X155587500Y-77957442D01*
X155587500Y-78582557D01*
X155594898Y-78619748D01*
X155594898Y-78619749D01*
X155623077Y-78661922D01*
X155651257Y-78680750D01*
X155665252Y-78690102D01*
X155702442Y-78697500D01*
X155702443Y-78697500D01*
X157277557Y-78697500D01*
X157277558Y-78697500D01*
X157314748Y-78690102D01*
X157356922Y-78661922D01*
X157385102Y-78619748D01*
X157392500Y-78582558D01*
X157392500Y-77957442D01*
X157385102Y-77920252D01*
X157385101Y-77920250D01*
X157356922Y-77878077D01*
X157314748Y-77849898D01*
X157277558Y-77842500D01*
X155702442Y-77842500D01*
X155683847Y-77846199D01*
X155665251Y-77849898D01*
X155665250Y-77849898D01*
X155623077Y-77878077D01*
X155594898Y-77920250D01*
X155594898Y-77920251D01*
X155587500Y-77957442D01*
X155302500Y-77957442D01*
X155302499Y-77572384D01*
X155320805Y-77528191D01*
X155428895Y-77420101D01*
X155502736Y-77346260D01*
X155546929Y-77327955D01*
X155591123Y-77346261D01*
X155598896Y-77355732D01*
X155623077Y-77391922D01*
X155631297Y-77397414D01*
X155665252Y-77420102D01*
X155702442Y-77427500D01*
X155702443Y-77427500D01*
X157277557Y-77427500D01*
X157277558Y-77427500D01*
X157314748Y-77420102D01*
X157356922Y-77391922D01*
X157385102Y-77349748D01*
X157392500Y-77312558D01*
X157392500Y-76687442D01*
X157385102Y-76650252D01*
X157360749Y-76613805D01*
X157356922Y-76608077D01*
X157314748Y-76579898D01*
X157277558Y-76572500D01*
X155702442Y-76572500D01*
X155683847Y-76576199D01*
X155665251Y-76579898D01*
X155665250Y-76579898D01*
X155623077Y-76608077D01*
X155594898Y-76650250D01*
X155594898Y-76650251D01*
X155587500Y-76687442D01*
X155587500Y-76708400D01*
X155569194Y-76752594D01*
X155525000Y-76770900D01*
X155479426Y-76770900D01*
X155465054Y-76776854D01*
X155465053Y-76776855D01*
X155395224Y-76805778D01*
X155395223Y-76805779D01*
X155070627Y-77130374D01*
X155026433Y-77148680D01*
X155018287Y-77148146D01*
X155013375Y-77147500D01*
X155013369Y-77147500D01*
X154689188Y-77147500D01*
X154644994Y-77129194D01*
X154626688Y-77085000D01*
X154640430Y-77045898D01*
X154758635Y-76898503D01*
X155215084Y-76329332D01*
X155257014Y-76306309D01*
X155259380Y-76306094D01*
X157216393Y-76166309D01*
X157243315Y-76159439D01*
X157258766Y-76157500D01*
X157277557Y-76157500D01*
X157277558Y-76157500D01*
X157314748Y-76150102D01*
X157356922Y-76121922D01*
X157385102Y-76079748D01*
X157392500Y-76042558D01*
X157392500Y-76003096D01*
X157393701Y-75990902D01*
X157394279Y-75988000D01*
X157397500Y-75971805D01*
X157397500Y-75488194D01*
X157393493Y-75465986D01*
X157392500Y-75454889D01*
X157392500Y-75417442D01*
X157392121Y-75415536D01*
X157385102Y-75380252D01*
X157380704Y-75373670D01*
X157356922Y-75338077D01*
X157314748Y-75309898D01*
X157277558Y-75302500D01*
X157277557Y-75302500D01*
X157256935Y-75302500D01*
X157240407Y-75300275D01*
X157216394Y-75293690D01*
X155176651Y-75147994D01*
X155171973Y-75147743D01*
X155167505Y-75147584D01*
X155162778Y-75147500D01*
X155162773Y-75147500D01*
X154219450Y-75147500D01*
X154210060Y-75147833D01*
X154207805Y-75147993D01*
X154201195Y-75148462D01*
X154191845Y-75149463D01*
X154191839Y-75149463D01*
X154191828Y-75149465D01*
X153309170Y-75275767D01*
X151945079Y-75470958D01*
X151945069Y-75470960D01*
X151904576Y-75483618D01*
X151904570Y-75483621D01*
X151869243Y-75501290D01*
X151852940Y-75510958D01*
X151852939Y-75510959D01*
X151806091Y-75569093D01*
X151787785Y-75613290D01*
X151777700Y-75663992D01*
X151777700Y-75804300D01*
X151759394Y-75848494D01*
X151715200Y-75866800D01*
X151242408Y-75866800D01*
X151198214Y-75848494D01*
X150765262Y-75415541D01*
X150765256Y-75415536D01*
X150692746Y-75373671D01*
X150692743Y-75373670D01*
X150611871Y-75352001D01*
X150611866Y-75352000D01*
X150611865Y-75352000D01*
X146791865Y-75352000D01*
X146708135Y-75352000D01*
X146708134Y-75352000D01*
X146708128Y-75352001D01*
X146627256Y-75373670D01*
X146627253Y-75373671D01*
X146554743Y-75415536D01*
X146554737Y-75415541D01*
X145377586Y-76592694D01*
X145333392Y-76611000D01*
X145231000Y-76611000D01*
X145186806Y-76592694D01*
X145168500Y-76548500D01*
X145168500Y-76416442D01*
X145161102Y-76379252D01*
X145161101Y-76379250D01*
X145132922Y-76337077D01*
X145090748Y-76308898D01*
X145076652Y-76306094D01*
X145053558Y-76301500D01*
X143028442Y-76301500D01*
X143009847Y-76305199D01*
X142991251Y-76308898D01*
X142991250Y-76308898D01*
X142949077Y-76337077D01*
X142920898Y-76379250D01*
X142920898Y-76379251D01*
X142913500Y-76416442D01*
X142400510Y-76416442D01*
X142400510Y-71247111D01*
X142400511Y-71247094D01*
X142400510Y-71239830D01*
X142400512Y-71239828D01*
X142400510Y-71201706D01*
X142400608Y-71198201D01*
X142402750Y-71160075D01*
X142417948Y-70889560D01*
X142418735Y-70882589D01*
X142435056Y-70786635D01*
X142470270Y-70579592D01*
X142471833Y-70572753D01*
X142513856Y-70427066D01*
X142557019Y-70277425D01*
X142559339Y-70270808D01*
X142659120Y-70030241D01*
X142677099Y-69986894D01*
X142680133Y-69980603D01*
X142828985Y-69711675D01*
X142832720Y-69705741D01*
X143010779Y-69455204D01*
X143015143Y-69449741D01*
X143220180Y-69220735D01*
X143225129Y-69215796D01*
X143454549Y-69011221D01*
X143460019Y-69006869D01*
X143710925Y-68829306D01*
X143716846Y-68825597D01*
X143986084Y-68677281D01*
X143992381Y-68674260D01*
X144276545Y-68557067D01*
X144283158Y-68554765D01*
X144578651Y-68470175D01*
X144585483Y-68468628D01*
X144888597Y-68417700D01*
X144895567Y-68416928D01*
X145202496Y-68400305D01*
X145209485Y-68400319D01*
G37*
%TD.AperFunction*%
%TA.AperFunction,Conductor*%
G36*
X167620059Y-78318526D02*
G01*
X167626868Y-78324418D01*
X167636426Y-78333976D01*
X167710118Y-78364500D01*
X167789882Y-78364500D01*
X169195504Y-78364500D01*
X169239698Y-78382806D01*
X169258004Y-78427000D01*
X169252148Y-78453414D01*
X169228780Y-78503526D01*
X169228778Y-78503532D01*
X169222500Y-78551218D01*
X169222500Y-78551225D01*
X169222500Y-79390518D01*
X169222501Y-80189500D01*
X169204195Y-80233694D01*
X169160001Y-80252000D01*
X167795000Y-80252000D01*
X167750806Y-80233694D01*
X167732500Y-80189500D01*
X167732500Y-79849500D01*
X167732155Y-79839967D01*
X167731506Y-79830984D01*
X167731506Y-79830980D01*
X167730476Y-79821491D01*
X167520823Y-78377591D01*
X167532588Y-78331227D01*
X167573693Y-78306761D01*
X167620059Y-78318526D01*
G37*
%TD.AperFunction*%
%TD*%
M02*
